<svg viewBox="0 0 1680 4552" xmlns="http://www.w3.org/2000/svg"><rect x="0" y="0" width="1680" height="4552" fill="lightyellow" stroke="none "/><rect x="636" y="3952" width="462" height="403" fill="white" stroke="black "/><circle cx="1480" cy="4093" r="5" fill="green" stroke="none" /><circle cx="46" cy="3325" r="5" fill="green" stroke="none" /><circle cx="249" cy="4164" r="5" fill="green" stroke="none" /><circle cx="1514" cy="4285" r="5" fill="green" stroke="none" /><circle cx="631" cy="3943" r="5" fill="green" stroke="none" /><circle cx="165" cy="3691" r="5" fill="green" stroke="none" /><circle cx="1017" cy="4516" r="5" fill="green" stroke="none" /><circle cx="374" cy="3477" r="5" fill="green" stroke="none" /><circle cx="89" cy="3968" r="5" fill="green" stroke="none" /><circle cx="1561" cy="4085" r="5" fill="green" stroke="none" /><circle cx="341" cy="4406" r="5" fill="green" stroke="none" /><circle cx="389" cy="4143" r="5" fill="green" stroke="none" /><circle cx="52" cy="3886" r="5" fill="green" stroke="none" /><circle cx="1665" cy="4394" r="5" fill="green" stroke="none" /><circle cx="893" cy="4427" r="5" fill="green" stroke="none" /><circle cx="1496" cy="4301" r="5" fill="green" stroke="none" /><circle cx="350" cy="4189" r="5" fill="green" stroke="none" /><circle cx="1166" cy="4509" r="5" fill="green" stroke="none" /><circle cx="466" cy="3342" r="5" fill="green" stroke="none" /><circle cx="1354" cy="2548" r="5" fill="green" stroke="none" /><circle cx="735" cy="3671" r="5" fill="green" stroke="none" /><circle cx="382" cy="3681" r="5" fill="green" stroke="none" /><circle cx="1347" cy="4263" r="5" fill="green" stroke="none" /><circle cx="1590" cy="3771" r="5" fill="green" stroke="none" /><circle cx="600" cy="4498" r="5" fill="green" stroke="none" /><circle cx="331" cy="4014" r="5" fill="green" stroke="none" /><circle cx="1526" cy="4395" r="5" fill="green" stroke="none" /><circle cx="1376" cy="4224" r="5" fill="green" stroke="none" /><circle cx="763" cy="3535" r="5" fill="green" stroke="none" /><circle cx="796" cy="4362" r="5" fill="green" stroke="none" /><circle cx="1455" cy="4430" r="5" fill="green" stroke="none" /><circle cx="303" cy="3442" r="5" fill="green" stroke="none" /><circle cx="1128" cy="4304" r="5" fill="green" stroke="none" /><circle cx="1092" cy="3776" r="5" fill="green" stroke="none" /><circle cx="225" cy="4204" r="5" fill="green" stroke="none" /><circle cx="636" cy="3815" r="5" fill="green" stroke="none" /><circle cx="705" cy="3594" r="5" fill="green" stroke="none" /><circle cx="660" cy="3547" r="5" fill="green" stroke="none" /><circle cx="1662" cy="1601" r="5" fill="green" stroke="none" /><circle cx="1666" cy="4546" r="5" fill="green" stroke="none" /><circle cx="1669" cy="3851" r="5" fill="green" stroke="none" /><circle cx="1296" cy="2673" r="5" fill="green" stroke="none" /><circle cx="1294" cy="4522" r="5" fill="green" stroke="none" /><circle cx="418" cy="4088" r="5" fill="green" stroke="none" /><circle cx="1635" cy="1546" r="5" fill="green" stroke="none" /><circle cx="1420" cy="4483" r="5" fill="green" stroke="none" /><circle cx="676" cy="4409" r="5" fill="green" stroke="none" /><circle cx="1465" cy="2086" r="5" fill="green" stroke="none" /><circle cx="97" cy="3612" r="5" fill="green" stroke="none" /><circle cx="328" cy="3869" r="5" fill="green" stroke="none" /><circle cx="1653" cy="3762" r="5" fill="green" stroke="none" /><circle cx="473" cy="4102" r="5" fill="green" stroke="none" /><circle cx="808" cy="3631" r="5" fill="green" stroke="none" /><circle cx="1619" cy="1519" r="5" fill="green" stroke="none" /><circle cx="1030" cy="3602" r="5" fill="green" stroke="none" /><circle cx="1121" cy="3395" r="5" fill="green" stroke="none" /><circle cx="1592" cy="4497" r="5" fill="green" stroke="none" /><circle cx="621" cy="3758" r="5" fill="green" stroke="none" /><circle cx="444" cy="4541" r="5" fill="green" stroke="none" /><circle cx="356" cy="4072" r="5" fill="green" stroke="none" /><circle cx="721" cy="3221" r="5" fill="green" stroke="none" /><circle cx="1570" cy="4490" r="5" fill="green" stroke="none" /><circle cx="995" cy="3881" r="5" fill="green" stroke="none" /><circle cx="1276" cy="3198" r="5" fill="green" stroke="none" /><circle cx="367" cy="4406" r="5" fill="green" stroke="none" /><circle cx="1040" cy="4358" r="5" fill="green" stroke="none" /><circle cx="404" cy="3621" r="5" fill="green" stroke="none" /><circle cx="577" cy="3828" r="5" fill="green" stroke="none" /><circle cx="1099" cy="4334" r="5" fill="green" stroke="none" /><circle cx="358" cy="3890" r="5" fill="green" stroke="none" /><circle cx="477" cy="4323" r="5" fill="green" stroke="none" /><circle cx="1505" cy="3921" r="5" fill="green" stroke="none" /><circle cx="1666" cy="3935" r="5" fill="green" stroke="none" /><circle cx="1679" cy="3814" r="5" fill="green" stroke="none" /><circle cx="1647" cy="4388" r="5" fill="green" stroke="none" /><circle cx="1355" cy="4061" r="5" fill="green" stroke="none" /><circle cx="1553" cy="3979" r="5" fill="green" stroke="none" /><circle cx="823" cy="3589" r="5" fill="green" stroke="none" /><circle cx="1310" cy="3399" r="5" fill="green" stroke="none" /><circle cx="518" cy="3677" r="5" fill="green" stroke="none" /><circle cx="1412" cy="3593" r="5" fill="green" stroke="none" /><circle cx="1121" cy="3465" r="5" fill="green" stroke="none" /><circle cx="24" cy="3342" r="5" fill="green" stroke="none" /><circle cx="259" cy="3822" r="5" fill="green" stroke="none" /><circle cx="1109" cy="3442" r="5" fill="green" stroke="none" /><circle cx="559" cy="3260" r="5" fill="green" stroke="none" /><circle cx="1592" cy="1553" r="5" fill="green" stroke="none" /><circle cx="1280" cy="4463" r="5" fill="green" stroke="none" /><circle cx="126" cy="4551" r="5" fill="green" stroke="none" /><circle cx="1514" cy="4252" r="5" fill="green" stroke="none" /><circle cx="645" cy="3822" r="5" fill="green" stroke="none" /><circle cx="152" cy="3296" r="5" fill="green" stroke="none" /><circle cx="1130" cy="3439" r="5" fill="green" stroke="none" /><circle cx="1172" cy="3229" r="5" fill="green" stroke="none" /><circle cx="289" cy="3935" r="5" fill="green" stroke="none" /><circle cx="1561" cy="4208" r="5" fill="green" stroke="none" /><circle cx="724" cy="3276" r="5" fill="green" stroke="none" /><circle cx="1193" cy="4283" r="5" fill="green" stroke="none" /><circle cx="1125" cy="4528" r="5" fill="green" stroke="none" /><circle cx="289" cy="1818" r="9" fill="red" stroke="none" /><circle cx="195" cy="451" r="40" fill="red" stroke="none" /><circle cx="770" cy="2136" r="46" fill="red" stroke="none" /><circle cx="761" cy="3816" r="8" fill="red" stroke="none" /><circle cx="633" cy="2718" r="34" fill="red" stroke="none" /><circle cx="697" cy="820" r="50" fill="red" stroke="none" /><circle cx="667" cy="1355" r="58" fill="red" stroke="none" /><circle cx="154" cy="2644" r="82" fill="red" stroke="none" /><circle cx="1233" cy="3576" r="66" fill="red" stroke="none" /><circle cx="390" cy="533" r="38" fill="red" stroke="none" /><circle cx="810" cy="1525" r="82" fill="red" stroke="none" /><circle cx="317" cy="3230" r="61" fill="red" stroke="none" /><circle cx="810" cy="1606" r="79" fill="red" stroke="none" /><circle cx="873" cy="2599" r="21" fill="red" stroke="none" /><circle cx="555" cy="4169" r="77" fill="red" stroke="none" /><circle cx="1227" cy="3644" r="30" fill="red" stroke="none" /><circle cx="406" cy="137" r="49" fill="red" stroke="none" /><circle cx="422" cy="274" r="9" fill="red" stroke="none" /><circle cx="632" cy="1016" r="45" fill="red" stroke="none" /><circle cx="707" cy="1456" r="41" fill="red" stroke="none" /><circle cx="555" cy="2202" r="42" fill="red" stroke="none" /><circle cx="520" cy="1134" r="57" fill="red" stroke="none" /><circle cx="620" cy="1133" r="13" fill="red" stroke="none" /><circle cx="1464" cy="353" r="62" fill="red" stroke="none" /><circle cx="1004" cy="3395" r="60" fill="red" stroke="none" /><circle cx="1321" cy="516" r="31" fill="red" stroke="none" /><circle cx="748" cy="2907" r="16" fill="red" stroke="none" /><circle cx="922" cy="3605" r="41" fill="red" stroke="none" /><circle cx="1389" cy="2995" r="37" fill="red" stroke="none" /><circle cx="964" cy="3765" r="61" fill="red" stroke="none" /><circle cx="217" cy="1923" r="10" fill="red" stroke="none" /><circle cx="323" cy="3359" r="49" fill="red" stroke="none" /><circle cx="754" cy="1910" r="10" fill="red" stroke="none" /><circle cx="1070" cy="2121" r="43" fill="red" stroke="none" /><circle cx="1355" cy="931" r="71" fill="red" stroke="none" /><circle cx="476" cy="985" r="45" fill="red" stroke="none" /><circle cx="1329" cy="1060" r="81" fill="red" stroke="none" /><circle cx="355" cy="3185" r="35" fill="red" stroke="none" /><circle cx="1224" cy="3817" r="41" fill="red" stroke="none" /><circle cx="700" cy="3382" r="21" fill="red" stroke="none" /><circle cx="723" cy="1112" r="26" fill="red" stroke="none" /><circle cx="360" cy="511" r="54" fill="red" stroke="none" /><circle cx="867" cy="3866" r="78" fill="red" stroke="none" /><circle cx="504" cy="954" r="78" fill="red" stroke="none" /><circle cx="1283" cy="2499" r="80" fill="red" stroke="none" /><circle cx="1564" cy="2605" r="41" fill="red" stroke="none" /><circle cx="173" cy="1673" r="57" fill="red" stroke="none" /><circle cx="1331" cy="3141" r="14" fill="red" stroke="none" /><circle cx="49" cy="297" r="40" fill="red" stroke="none" /><circle cx="401" cy="4295" r="44" fill="red" stroke="none" /><circle cx="745" cy="2579" r="8" fill="red" stroke="none" /><circle cx="1392" cy="2663" r="32" fill="red" stroke="none" /><circle cx="555" cy="1397" r="15" fill="red" stroke="none" /><circle cx="195" cy="4316" r="63" fill="red" stroke="none" /><circle cx="934" cy="937" r="81" fill="red" stroke="none" /><circle cx="341" cy="2525" r="16" fill="red" stroke="none" /><circle cx="996" cy="1922" r="53" fill="red" stroke="none" /><circle cx="1287" cy="3158" r="37" fill="red" stroke="none" /><circle cx="247" cy="4432" r="64" fill="red" stroke="none" /><circle cx="320" cy="372" r="22" fill="red" stroke="none" /><circle cx="398" cy="1587" r="50" fill="red" stroke="none" /><circle cx="585" cy="768" r="13" fill="red" stroke="none" /><circle cx="1242" cy="102" r="12" fill="red" stroke="none" /><circle cx="178" cy="520" r="20" fill="red" stroke="none" /><circle cx="1416" cy="4373" r="30" fill="red" stroke="none" /><circle cx="1163" cy="506" r="46" fill="red" stroke="none" /><circle cx="112" cy="1961" r="24" fill="red" stroke="none" /><circle cx="1350" cy="2259" r="76" fill="red" stroke="none" /><circle cx="629" cy="579" r="17" fill="red" stroke="none" /><circle cx="1340" cy="1540" r="8" fill="red" stroke="none" /><circle cx="1223" cy="2002" r="73" fill="red" stroke="none" /><circle cx="1510" cy="3147" r="9" fill="red" stroke="none" /><circle cx="153" cy="2559" r="73" fill="red" stroke="none" /><circle cx="1134" cy="611" r="12" fill="red" stroke="none" /><circle cx="488" cy="2890" r="18" fill="red" stroke="none" /><circle cx="1586" cy="2695" r="31" fill="red" stroke="none" /><circle cx="516" cy="1066" r="24" fill="red" stroke="none" /><circle cx="242" cy="2029" r="62" fill="red" stroke="none" /><circle cx="1135" cy="515" r="55" fill="red" stroke="none" /><circle cx="602" cy="2973" r="65" fill="red" stroke="none" /><circle cx="666" cy="318" r="6" fill="red" stroke="none" /><circle cx="79" cy="3528" r="63" fill="red" stroke="none" /><circle cx="876" cy="3091" r="79" fill="red" stroke="none" /><circle cx="389" cy="860" r="81" fill="red" stroke="none" /><circle cx="112" cy="1401" r="24" fill="red" stroke="none" /><circle cx="904" cy="2013" r="8" fill="red" stroke="none" /><circle cx="1032" cy="376" r="14" fill="red" stroke="none" /><circle cx="1248" cy="3685" r="37" fill="red" stroke="none" /><circle cx="547" cy="4234" r="76" fill="red" stroke="none" /><circle cx="1191" cy="1723" r="10" fill="red" stroke="none" /><circle cx="659" cy="1772" r="31" fill="red" stroke="none" /><circle cx="186" cy="1302" r="54" fill="red" stroke="none" /><circle cx="893" cy="4484" r="36" fill="red" stroke="none" /><circle cx="737" cy="3129" r="62" fill="red" stroke="none" /><circle cx="961" cy="3593" r="67" fill="red" stroke="none" /><circle cx="1020" cy="2471" r="79" fill="red" stroke="none" /><circle cx="875" cy="343" r="48" fill="red" stroke="none" /><circle cx="575" cy="3201" r="55" fill="red" stroke="none" /><circle cx="1124" cy="1114" r="58" fill="red" stroke="none" /><circle cx="550" cy="2037" r="61" fill="red" stroke="none" /><circle cx="426" cy="1484" r="23" fill="red" stroke="none" /><circle cx="423" cy="2363" r="13" fill="red" stroke="none" /><circle cx="1542" cy="4139" r="16" fill="red" stroke="none" /><circle cx="955" cy="359" r="66" fill="red" stroke="none" /><circle cx="333" cy="2956" r="56" fill="red" stroke="none" /><circle cx="1488" cy="578" r="33" fill="red" stroke="none" /><circle cx="1231" cy="3929" r="44" fill="red" stroke="none" /><circle cx="1273" cy="491" r="65" fill="red" stroke="none" /><circle cx="1379" cy="837" r="7" fill="red" stroke="none" /><circle cx="686" cy="3110" r="63" fill="red" stroke="none" /><circle cx="261" cy="4259" r="24" fill="red" stroke="none" /><circle cx="1481" cy="3346" r="46" fill="red" stroke="none" /><circle cx="500" cy="3117" r="30" fill="red" stroke="none" /><circle cx="1360" cy="493" r="13" fill="red" stroke="none" /><circle cx="668" cy="1115" r="53" fill="red" stroke="none" /><circle cx="229" cy="2404" r="18" fill="red" stroke="none" /><circle cx="1240" cy="3890" r="56" fill="red" stroke="none" /><circle cx="533" cy="1750" r="44" fill="red" stroke="none" /><circle cx="718" cy="2125" r="52" fill="red" stroke="none" /><circle cx="318" cy="939" r="49" fill="red" stroke="none" /><circle cx="1430" cy="1096" r="22" fill="red" stroke="none" /><circle cx="986" cy="4427" r="37" fill="red" stroke="none" /><circle cx="1468" cy="3688" r="65" fill="red" stroke="none" /><circle cx="1252" cy="1351" r="52" fill="red" stroke="none" /><circle cx="1585" cy="2261" r="81" fill="red" stroke="none" /><circle cx="645" cy="1234" r="50" fill="red" stroke="none" /><circle cx="395" cy="285" r="57" fill="red" stroke="none" /><circle cx="668" cy="2174" r="39" fill="red" stroke="none" /><circle cx="800" cy="969" r="40" fill="red" stroke="none" /><circle cx="457" cy="1563" r="10" fill="red" stroke="none" /><circle cx="976" cy="803" r="10" fill="red" stroke="none" /><circle cx="429" cy="1784" r="19" fill="red" stroke="none" /><circle cx="863" cy="2782" r="6" fill="red" stroke="none" /><circle cx="549" cy="2159" r="74" fill="red" stroke="none" /><circle cx="997" cy="346" r="68" fill="red" stroke="none" /><circle cx="1124" cy="4498" r="9" fill="red" stroke="none" /><circle cx="718" cy="1094" r="77" fill="red" stroke="none" /><circle cx="1014" cy="2483" r="29" fill="red" stroke="none" /><circle cx="274" cy="2623" r="46" fill="red" stroke="none" /><circle cx="654" cy="2403" r="12" fill="red" stroke="none" /><circle cx="942" cy="1350" r="72" fill="red" stroke="none" /><circle cx="118" cy="3878" r="24" fill="red" stroke="none" /><circle cx="1347" cy="1092" r="84" fill="red" stroke="none" /><circle cx="519" cy="2312" r="64" fill="red" stroke="none" /><circle cx="666" cy="3370" r="58" fill="red" stroke="none" /><circle cx="867" cy="3932" r="8" fill="red" stroke="none" /><circle cx="109" cy="2492" r="59" fill="red" stroke="none" /><circle cx="1007" cy="2997" r="28" fill="red" stroke="none" /><circle cx="433" cy="3215" r="70" fill="red" stroke="none" /><circle cx="639" cy="3256" r="37" fill="red" stroke="none" /><circle cx="1001" cy="3386" r="82" fill="red" stroke="none" /><circle cx="585" cy="484" r="37" fill="red" stroke="none" /><circle cx="1606" cy="3047" r="26" fill="red" stroke="none" /><circle cx="1408" cy="3053" r="23" fill="red" stroke="none" /><circle cx="1194" cy="468" r="75" fill="red" stroke="none" /><circle cx="142" cy="923" r="16" fill="red" stroke="none" /><circle cx="1316" cy="1611" r="23" fill="red" stroke="none" /><circle cx="898" cy="179" r="44" fill="red" stroke="none" /><circle cx="485" cy="2354" r="51" fill="red" stroke="none" /><circle cx="1147" cy="2906" r="71" fill="red" stroke="none" /><circle cx="940" cy="3270" r="44" fill="red" stroke="none" /><circle cx="397" cy="3276" r="74" fill="red" stroke="none" /><circle cx="1084" cy="928" r="22" fill="red" stroke="none" /><circle cx="1059" cy="541" r="31" fill="red" stroke="none" /><circle cx="560" cy="2610" r="73" fill="red" stroke="none" /><circle cx="1034" cy="2204" r="27" fill="red" stroke="none" /><circle cx="230" cy="4059" r="56" fill="red" stroke="none" /><circle cx="1370" cy="455" r="9" fill="red" stroke="none" /><circle cx="1235" cy="3954" r="72" fill="red" stroke="none" /><circle cx="707" cy="1652" r="53" fill="red" stroke="none" /><circle cx="1223" cy="3636" r="77" fill="red" stroke="none" /><circle cx="1005" cy="1632" r="33" fill="red" stroke="none" /><circle cx="801" cy="3370" r="74" fill="red" stroke="none" /><circle cx="514" cy="3113" r="58" fill="red" stroke="none" /><circle cx="544" cy="2842" r="34" fill="red" stroke="none" /><circle cx="99" cy="2663" r="41" fill="red" stroke="none" /><circle cx="727" cy="2751" r="72" fill="red" stroke="none" /><circle cx="1147" cy="1653" r="63" fill="red" stroke="none" /><circle cx="321" cy="3573" r="66" fill="red" stroke="none" /><circle cx="594" cy="1257" r="35" fill="red" stroke="none" /><circle cx="528" cy="1800" r="22" fill="red" stroke="none" /><circle cx="1319" cy="1788" r="56" fill="red" stroke="none" /><circle cx="1185" cy="4061" r="81" fill="red" stroke="none" /><circle cx="894" cy="587" r="51" fill="red" stroke="none" /><circle cx="1397" cy="3849" r="82" fill="red" stroke="none" /><circle cx="1005" cy="2813" r="26" fill="red" stroke="none" /><circle cx="110" cy="4160" r="36" fill="red" stroke="none" /><circle cx="845" cy="69" r="67" fill="red" stroke="none" /><circle cx="956" cy="3263" r="25" fill="red" stroke="none" /><circle cx="525" cy="3241" r="38" fill="red" stroke="none" /><circle cx="389" cy="4303" r="42" fill="red" stroke="none" /><circle cx="1267" cy="3390" r="33" fill="red" stroke="none" /><circle cx="296" cy="2830" r="52" fill="red" stroke="none" /><circle cx="912" cy="3530" r="26" fill="red" stroke="none" /><circle cx="780.6421341839809" cy="4132.36224474147" r="5" fill="blue" stroke="none" /><circle cx="909.1434124912004" cy="4280.816507865538" r="5" fill="blue" stroke="none" /><circle cx="902.9847389184832" cy="4145.138553811758" r="5" fill="blue" stroke="none" /><circle cx="1077.1046542788167" cy="4166.570379989402" r="5" fill="blue" stroke="none" /><circle cx="717.0505692642766" cy="4076.742257509949" r="5" fill="blue" stroke="none" /><circle cx="681.9853929694711" cy="4086.746177532092" r="5" fill="blue" stroke="none" /><circle cx="1011.8343861875665" cy="4235.504036029475" r="5" fill="blue" stroke="none" /><circle cx="656.0228127313832" cy="3962" r="5" fill="blue" stroke="none" /><circle cx="1073.5616356934797" cy="4293.50902208905" r="5" fill="blue" stroke="none" /><circle cx="687.3208348627018" cy="4336.25710088917" r="5" fill="blue" stroke="none" /><circle cx="1079.3694204909189" cy="4302.377131321043" r="5" fill="blue" stroke="none" /><circle cx="755.235097640016" cy="4105.384010487326" r="5" fill="blue" stroke="none" /><circle cx="796.8316883893294" cy="3962" r="5" fill="blue" stroke="none" /><circle cx="693.3702979762502" cy="4246.13531267262" r="5" fill="blue" stroke="none" /><circle cx="979.2370140173091" cy="4033.697009287448" r="5" fill="blue" stroke="none" /><circle cx="700.4170244513118" cy="4345" r="5" fill="blue" stroke="none" /><circle cx="1024.8951782736683" cy="4139.699091144861" r="5" fill="blue" stroke="none" /><circle cx="791.836815966395" cy="3988.279744638917" r="5" fill="blue" stroke="none" /><circle cx="836.3658888717562" cy="4191.246156428672" r="5" fill="blue" stroke="none" /><circle cx="696.4091295484477" cy="4065.5676949965928" r="5" fill="blue" stroke="none" /><circle cx="1078.1001763346837" cy="4345" r="5" fill="blue" stroke="none" /><circle cx="1008.8797232481847" cy="4276.6271774624765" r="5" fill="blue" stroke="none" /><circle cx="1005.3510542706471" cy="4345" r="5" fill="blue" stroke="none" /><circle cx="844.3131286418793" cy="4345" r="5" fill="blue" stroke="none" /><circle cx="686.2503771465854" cy="4308.77245198597" r="5" fill="blue" stroke="none" /><circle cx="1058.3867997600664" cy="4187.520203813845" r="5" fill="blue" stroke="none" /><circle cx="1088" cy="3973.832933931596" r="5" fill="blue" stroke="none" /><circle cx="949.1908731889894" cy="4121.04093813641" r="5" fill="blue" stroke="none" /><circle cx="778.1978545052926" cy="4119.596459150942" r="5" fill="blue" stroke="none" /><circle cx="839.7845511222682" cy="4148.966882679742" r="5" fill="blue" stroke="none" /><circle cx="825.2388040782976" cy="4016.053962368507" r="5" fill="blue" stroke="none" /><circle cx="710.7483466839761" cy="4342.59608727789" r="5" fill="blue" stroke="none" /><circle cx="654.1306736779238" cy="4153.428851089563" r="5" fill="blue" stroke="none" /><circle cx="1004.0755100215963" cy="3962" r="5" fill="blue" stroke="none" /><circle cx="713.8217736296408" cy="4261.493562857317" r="5" fill="blue" stroke="none" /><circle cx="778.3224556000263" cy="3974.397748715919" r="5" fill="blue" stroke="none" /><circle cx="704.7364874380027" cy="3988.0299775578615" r="5" fill="blue" stroke="none" /><circle cx="1052.289945710611" cy="4345" r="5" fill="blue" stroke="none" /><circle cx="898.5700660469874" cy="4082.2549104361924" r="5" fill="blue" stroke="none" /><circle cx="1087.7802382626526" cy="4109.874550879275" r="5" fill="blue" stroke="none" /><circle cx="943.1382242757218" cy="3996.9709958287585" r="5" fill="blue" stroke="none" /><circle cx="646" cy="4230.9098129343965" r="5" fill="blue" stroke="none" /><circle cx="693.145267507328" cy="3965.251648095751" r="5" fill="blue" stroke="none" /><circle cx="766.6269908977265" cy="4169.0065597435005" r="5" fill="blue" stroke="none" /><circle cx="1088" cy="4266.060488090236" r="5" fill="blue" stroke="none" /><circle cx="648.2965508993474" cy="4333.395617795036" r="5" fill="blue" stroke="none" /><circle cx="955.3972878591151" cy="4104.808317765293" r="5" fill="blue" stroke="none" /><circle cx="872.258363132146" cy="4272.56634115576" r="5" fill="blue" stroke="none" /><circle cx="736.9409567336415" cy="4183.982531803842" r="5" fill="blue" stroke="none" /><circle cx="646" cy="4037.6372512607454" r="5" fill="blue" stroke="none" /><circle cx="734.6893712479364" cy="3962" r="5" fill="blue" stroke="none" /><circle cx="1043.8848806591905" cy="4248.255629796664" r="5" fill="blue" stroke="none" /><circle cx="688.2338194614356" cy="3982.213261855746" r="5" fill="blue" stroke="none" /><circle cx="1085.5897973875487" cy="4184.634725830247" r="5" fill="blue" stroke="none" /><circle cx="751.3187303408795" cy="4193.707404265205" r="5" fill="blue" stroke="none" /><circle cx="676.1352944540178" cy="4282.887004718764" r="5" fill="blue" stroke="none" /><circle cx="723.9203834722562" cy="4247.288735414969" r="5" fill="blue" stroke="none" /><circle cx="646" cy="3992.501378724864" r="5" fill="blue" stroke="none" /><circle cx="921.1008547170319" cy="4333.401534532686" r="5" fill="blue" stroke="none" /><circle cx="918.3923742374852" cy="4068.6591307945923" r="5" fill="blue" stroke="none" /><circle cx="815.7460711673709" cy="4027.4258257342326" r="5" fill="blue" stroke="none" /><circle cx="1022.2808304430642" cy="4288.216205666102" r="5" fill="blue" stroke="none" /><circle cx="1088" cy="4195.703067321191" r="5" fill="blue" stroke="none" /><circle cx="1046.835519531378" cy="3962" r="5" fill="blue" stroke="none" /><circle cx="674.2512131048952" cy="4060.7575141761117" r="5" fill="blue" stroke="none" /><circle cx="720.5428214067927" cy="4091.146454489195" r="5" fill="blue" stroke="none" /><circle cx="991.1318163597334" cy="4073.6947715991164" r="5" fill="blue" stroke="none" /><circle cx="903.278550190171" cy="4240.833145676258" r="5" fill="blue" stroke="none" /><circle cx="1017.7561764876256" cy="4256.985745916582" r="5" fill="blue" stroke="none" /><circle cx="749.7505165551678" cy="4345" r="5" fill="blue" stroke="none" /><circle cx="713.1821621469184" cy="4192.6362208134115" r="5" fill="blue" stroke="none" /><circle cx="783.8115529388679" cy="4043.688378935887" r="5" fill="blue" stroke="none" /><circle cx="687.0021020266231" cy="4124.338601334588" r="5" fill="blue" stroke="none" /><circle cx="1083.1206335946267" cy="4034.4852652921772" r="5" fill="blue" stroke="none" /><circle cx="927.049430880987" cy="3962" r="5" fill="blue" stroke="none" /><circle cx="952.6122208234883" cy="3962" r="5" fill="blue" stroke="none" /><circle cx="646" cy="4049.506512515877" r="5" fill="blue" stroke="none" /><circle cx="1062.8491889859667" cy="4345" r="5" fill="blue" stroke="none" /><circle cx="999.7733399608111" cy="3978.306925107517" r="5" fill="blue" stroke="none" /><circle cx="772.4905203688169" cy="4285.710305720686" r="5" fill="blue" stroke="none" /><circle cx="1088" cy="4297.263039612296" r="5" fill="blue" stroke="none" /><circle cx="996.0037396754149" cy="4333.973558752698" r="5" fill="blue" stroke="none" /><circle cx="982.4727263297589" cy="4345" r="5" fill="blue" stroke="none" /><circle cx="863.9713790760317" cy="3985.8027480047667" r="5" fill="blue" stroke="none" /><circle cx="1049.072999968909" cy="3977.1779019929418" r="5" fill="blue" stroke="none" /><circle cx="1088" cy="4343.558497773218" r="5" fill="blue" stroke="none" /><circle cx="1076.444938363052" cy="4329.908861069733" r="5" fill="blue" stroke="none" /><circle cx="1045.1152156292267" cy="4200.059393357546" r="5" fill="blue" stroke="none" /><circle cx="1068.7471489605373" cy="3962" r="5" fill="blue" stroke="none" /><circle cx="1000.4156744233377" cy="4233.326624218986" r="5" fill="blue" stroke="none" /><circle cx="727.5256915285545" cy="3973.2543398259336" r="5" fill="blue" stroke="none" /><circle cx="904.5231607693523" cy="4318.931894969971" r="5" fill="blue" stroke="none" /><circle cx="1045.6856134134543" cy="3997.320127090863" r="5" fill="blue" stroke="none" /><circle cx="646" cy="4020.6485839735597" r="5" fill="blue" stroke="none" /><circle cx="859.8552336438227" cy="4263.011141537482" r="5" fill="blue" stroke="none" /><circle cx="977.5394930110169" cy="4317.780003055087" r="5" fill="blue" stroke="none" /><circle cx="1082.5436825363765" cy="4148.119160263105" r="5" fill="blue" stroke="none" /><circle cx="842.4274109691448" cy="4109.099681615597" r="5" fill="blue" stroke="none" /><circle cx="681.3178609530722" cy="4207.286946289634" r="5" fill="blue" stroke="none" /><circle cx="915.7465480180334" cy="3962" r="5" fill="blue" stroke="none" /><circle cx="796.0262263352122" cy="4064.3135579283385" r="5" fill="blue" stroke="none" /><circle cx="965.0995112627043" cy="4223.303829706787" r="5" fill="blue" stroke="none" /><circle cx="868.5927909555828" cy="4345" r="5" fill="blue" stroke="none" /><circle cx="949.0673654760858" cy="4207.094646497047" r="5" fill="blue" stroke="none" /><circle cx="1045.4839628231905" cy="4265.972466672089" r="5" fill="blue" stroke="none" /><circle cx="1047.0336168468075" cy="4189.041878217538" r="5" fill="blue" stroke="none" /><circle cx="656.6623279969351" cy="4296.130214708771" r="5" fill="blue" stroke="none" /><circle cx="878.658593860515" cy="4314.418116479348" r="5" fill="blue" stroke="none" /><circle cx="671.354552199867" cy="4306.448641052085" r="5" fill="blue" stroke="none" /><circle cx="719.076131008816" cy="3986.046303189114" r="5" fill="blue" stroke="none" /><circle cx="725.1748045605549" cy="4328.733809201101" r="5" fill="blue" stroke="none" /><circle cx="716.8358189339363" cy="4206.946573516947" r="5" fill="blue" stroke="none" /><circle cx="1058.1563827468917" cy="4220.583215906025" r="5" fill="blue" stroke="none" /><circle cx="667.3648439159533" cy="4345" r="5" fill="blue" stroke="none" /><circle cx="682.9842491635557" cy="4111.855259964442" r="5" fill="blue" stroke="none" /><circle cx="813.5813394736452" cy="4252.939806590611" r="5" fill="blue" stroke="none" /><circle cx="910.6604964698805" cy="4133.668720872903" r="5" fill="blue" stroke="none" /><circle cx="882.3602740080464" cy="4249.990777469401" r="5" fill="blue" stroke="none" /><circle cx="1055.995839689532" cy="3995.702728915425" r="5" fill="blue" stroke="none" /><circle cx="657.3442948996427" cy="4327.84474259027" r="5" fill="blue" stroke="none" /><circle cx="674.0726693098602" cy="4199.715228051206" r="5" fill="blue" stroke="none" /><circle cx="1071.245153056282" cy="4116.279753778521" r="5" fill="blue" stroke="none" /><circle cx="701.1427076076491" cy="4086.1556629047163" r="5" fill="blue" stroke="none" /><circle cx="845.5520848062238" cy="4245.150859888655" r="5" fill="blue" stroke="none" /><circle cx="909.2370242118456" cy="4330.700882199593" r="5" fill="blue" stroke="none" /><circle cx="910.4570409986327" cy="4302.50331318169" r="5" fill="blue" stroke="none" /><circle cx="647.5753605483039" cy="4139.411928012341" r="5" fill="blue" stroke="none" /><circle cx="932.440467241928" cy="4328.843737850092" r="5" fill="blue" stroke="none" /><circle cx="759.1543607970126" cy="4091.1142957005914" r="5" fill="blue" stroke="none" /><circle cx="734.6851255782146" cy="4033.432748185618" r="5" fill="blue" stroke="none" /><circle cx="1088" cy="3962" r="5" fill="blue" stroke="none" /><circle cx="1052.126841687254" cy="4212.153563600023" r="5" fill="blue" stroke="none" /><circle cx="767.051988074894" cy="4317.6064736587705" r="5" fill="blue" stroke="none" /><circle cx="1088" cy="4333.551634476393" r="5" fill="blue" stroke="none" /><circle cx="955.2068912223464" cy="4335.195638964324" r="5" fill="blue" stroke="none" /><circle cx="973.0640659983421" cy="3962" r="5" fill="blue" stroke="none" /><circle cx="657.5420707641969" cy="4270.534538201344" r="5" fill="blue" stroke="none" /><circle cx="1014.3463374879552" cy="3962" r="5" fill="blue" stroke="none" /><circle cx="785.9471475641121" cy="4345" r="5" fill="blue" stroke="none" /><circle cx="886.9479416645008" cy="4232.972713454527" r="5" fill="blue" stroke="none" /><circle cx="1040.6001607915387" cy="4345" r="5" fill="blue" stroke="none" /><circle cx="1080.8322383520276" cy="3985.2836748959926" r="5" fill="blue" stroke="none" /><circle cx="729.0508989789174" cy="4290.386469092659" r="5" fill="blue" stroke="none" /><circle cx="846.7765631346919" cy="4181.035092902821" r="5" fill="blue" stroke="none" /><circle cx="1082.7873872821654" cy="4073.748665183468" r="5" fill="blue" stroke="none" /><circle cx="921.9935811081413" cy="4116.124924569932" r="5" fill="blue" stroke="none" /><circle cx="740.8217589877596" cy="4042.806818409173" r="5" fill="blue" stroke="none" /><circle cx="838.7522267088175" cy="3976.0839830469067" r="5" fill="blue" stroke="none" /><circle cx="805.9863877727154" cy="4345" r="5" fill="blue" stroke="none" /><circle cx="921.2529025377827" cy="4050.752169159975" r="5" fill="blue" stroke="none" /><circle cx="1040.4925559275073" cy="4137.025501576421" r="5" fill="blue" stroke="none" /><circle cx="672.1131785894077" cy="4002.8115306787454" r="5" fill="blue" stroke="none" /><circle cx="1069.625359035708" cy="4308.8057984358875" r="5" fill="blue" stroke="none" /><circle cx="1088" cy="4276.164162859033" r="5" fill="blue" stroke="none" /><circle cx="667.3739075023154" cy="4102.190472387869" r="5" fill="blue" stroke="none" /><circle cx="681.8371586565484" cy="4035.927822645178" r="5" fill="blue" stroke="none" /><circle cx="660.6038621088034" cy="4133.338663903353" r="5" fill="blue" stroke="none" /><circle cx="1022.6263511308065" cy="3983.1094038666947" r="5" fill="blue" stroke="none" /><circle cx="842.2177776437298" cy="4315.528861890531" r="5" fill="blue" stroke="none" /><circle cx="982.2536322150036" cy="4180.46309506273" r="5" fill="blue" stroke="none" /><circle cx="972.9577912355211" cy="4158.010647523336" r="5" fill="blue" stroke="none" /><circle cx="652.4110638956101" cy="4172.404659577297" r="5" fill="blue" stroke="none" /><circle cx="840.0369899368937" cy="4122.676067536598" r="5" fill="blue" stroke="none" /><circle cx="991.2048310441443" cy="4096.85813261074" r="5" fill="blue" stroke="none" /><circle cx="885.5493600365586" cy="4329.231358445025" r="5" fill="blue" stroke="none" /><circle cx="940.5652676177602" cy="4008.70956388775" r="5" fill="blue" stroke="none" /><circle cx="892.9768273044328" cy="4190.916677195443" r="5" fill="blue" stroke="none" /><circle cx="646" cy="4108.374321202556" r="5" fill="blue" stroke="none" /><circle cx="1088" cy="4162.711074972761" r="5" fill="blue" stroke="none" /><circle cx="998.5509289604965" cy="4014.384678352574" r="5" fill="blue" stroke="none" /><circle cx="909.4150906432454" cy="4178.064057184096" r="5" fill="blue" stroke="none" /><circle cx="818.9874004801242" cy="4060.44612449872" r="5" fill="blue" stroke="none" /><circle cx="1063.4605406907995" cy="4265.322717883327" r="5" fill="blue" stroke="none" /><circle cx="677.4399977422877" cy="4298.170318076823" r="5" fill="blue" stroke="none" /><circle cx="993.6820600760825" cy="3962" r="5" fill="blue" stroke="none" /><circle cx="663.1402191670938" cy="3970.919650331051" r="5" fill="blue" stroke="none" /><circle cx="661.0052619236068" cy="4030.0621456604595" r="5" fill="blue" stroke="none" /><circle cx="688.039319803249" cy="4009.672560132312" r="5" fill="blue" stroke="none" /><circle cx="672.545817020383" cy="4031.5454982458486" r="5" fill="blue" stroke="none" /><circle cx="943.8655094150142" cy="4336.357345878835" r="5" fill="blue" stroke="none" /><circle cx="659.4663190914006" cy="4314.4652294440575" r="5" fill="blue" stroke="none" /><circle cx="808.964639824155" cy="3979.058360188957" r="5" fill="blue" stroke="none" /><circle cx="744.1417319411275" cy="4245.480756729092" r="5" fill="blue" stroke="none" /><circle cx="851.2051828640984" cy="4292.465331897201" r="5" fill="blue" stroke="none" /><circle cx="824.5722738931823" cy="4292.6556734050055" r="5" fill="blue" stroke="none" /><circle cx="1088" cy="4323.274906016811" r="5" fill="blue" stroke="none" /><circle cx="985.7174462528243" cy="4086.274157651298" r="5" fill="blue" stroke="none" /><circle cx="816.2820306189549" cy="4345" r="5" fill="blue" stroke="none" /><circle cx="1074.3029771501438" cy="4191.6716219000455" r="5" fill="blue" stroke="none" /><circle cx="967.2375909498519" cy="4339.537543055005" r="5" fill="blue" stroke="none" /><circle cx="906.8397564006124" cy="4006.348286879423" r="5" fill="blue" stroke="none" /><circle cx="659.3648306419991" cy="4258.439503513868" r="5" fill="blue" stroke="none" /><circle cx="1020.1934726374209" cy="4345" r="5" fill="blue" stroke="none" /><circle cx="646" cy="4266.013263131658" r="5" fill="blue" stroke="none" /><circle cx="646" cy="4303.432167330415" r="5" fill="blue" stroke="none" /><circle cx="893.3390333354336" cy="3995.851607151714" r="5" fill="blue" stroke="none" /><circle cx="1070.454293822045" cy="4037.767986783354" r="5" fill="blue" stroke="none" /><circle cx="770.1469744580676" cy="3962" r="5" fill="blue" stroke="none" /><circle cx="650.712699398704" cy="4211.889695584283" r="5" fill="blue" stroke="none" /><circle cx="875.1150323880179" cy="4229.155767144113" r="5" fill="blue" stroke="none" /><circle cx="828.5767543974276" cy="4256.809259690137" r="5" fill="blue" stroke="none" /><circle cx="861.9708827719955" cy="4232.1642892056525" r="5" fill="blue" stroke="none" /><circle cx="904.2990479876054" cy="4253.643086289531" r="5" fill="blue" stroke="none" /><circle cx="1004.4926980715462" cy="4308.240162678818" r="5" fill="blue" stroke="none" /><circle cx="1088" cy="4312.390447623513" r="5" fill="blue" stroke="none" /><circle cx="728.774779291119" cy="3991.9611982597185" r="5" fill="blue" stroke="none" /><circle cx="702.7222755205632" cy="3962" r="5" fill="blue" stroke="none" /><circle cx="762.1874701525526" cy="4113.067475858952" r="5" fill="blue" stroke="none" /><circle cx="1020.1825884523765" cy="4116.515029493514" r="5" fill="blue" stroke="none" /><circle cx="1074.493671132833" cy="4232.555605587213" r="5" fill="blue" stroke="none" /><circle cx="798.0442425926785" cy="4256.268804541316" r="5" fill="blue" stroke="none" /><circle cx="998.9979284754481" cy="4083.2027632178974" r="5" fill="blue" stroke="none" /><circle cx="721.8011382827542" cy="4345" r="5" fill="blue" stroke="none" /><circle cx="993.9701636328756" cy="4311.5009097598495" r="5" fill="blue" stroke="none" /><circle cx="883.7186002691086" cy="4086.3549471776596" r="5" fill="blue" stroke="none" /><circle cx="1062.1766356181763" cy="3971.8343573693037" r="5" fill="blue" stroke="none" /><circle cx="665.158045516293" cy="4091.481703897538" r="5" fill="blue" stroke="none" /><circle cx="1062.061286103135" cy="4175.918242944153" r="5" fill="blue" stroke="none" /><circle cx="1088" cy="4244.1319007149505" r="5" fill="blue" stroke="none" /><circle cx="756.481656546444" cy="4265.498686924693" r="5" fill="blue" stroke="none" /><circle cx="741.4682906955642" cy="4230.954394205067" r="5" fill="blue" stroke="none" /><circle cx="811.9324240951637" cy="4219.1246623464685" r="5" fill="blue" stroke="none" /><circle cx="1052.9013719239042" cy="4066.1123199162103" r="5" fill="blue" stroke="none" /><circle cx="772.8445134381861" cy="4142.96957764257" r="5" fill="blue" stroke="none" /><circle cx="673.3535602749682" cy="4336.579784936476" r="5" fill="blue" stroke="none" /><circle cx="961.2853422164653" cy="3984.555585556746" r="5" fill="blue" stroke="none" /><circle cx="1088" cy="4130.191179128408" r="5" fill="blue" stroke="none" /><circle cx="898.3576467926049" cy="4345" r="5" fill="blue" stroke="none" /><circle cx="1069.3947808438902" cy="4127.1136875238535" r="5" fill="blue" stroke="none" /><circle cx="813.1508463038484" cy="3968.2879229328564" r="5" fill="blue" stroke="none" /><circle cx="1069.3736558204457" cy="4243.901769308188" r="5" fill="blue" stroke="none" /><circle cx="1063.4747424390341" cy="4286.573876836541" r="5" fill="blue" stroke="none" /><circle cx="684.4011127520818" cy="4048.583438221617" r="5" fill="blue" stroke="none" /><circle cx="880.293320448066" cy="4095.973090922314" r="5" fill="blue" stroke="none" /><circle cx="669.8254567205497" cy="3962" r="5" fill="blue" stroke="none" /><circle cx="930.2737324429387" cy="4058.8282717951406" r="5" fill="blue" stroke="none" /><circle cx="646" cy="3973.516965302596" r="5" fill="blue" stroke="none" /><circle cx="796.7868246978118" cy="4283.187072852484" r="5" fill="blue" stroke="none" /><circle cx="708.7622135181823" cy="4329.038670417675" r="5" fill="blue" stroke="none" /><circle cx="742.3303652223506" cy="3985.925643289095" r="5" fill="blue" stroke="none" /><circle cx="904.6052830164334" cy="3962" r="5" fill="blue" stroke="none" /><circle cx="1073.3479309791578" cy="4318.697504813596" r="5" fill="blue" stroke="none" /><circle cx="827.2969303271957" cy="4345" r="5" fill="blue" stroke="none" /><circle cx="1057.6674406716763" cy="4083.4819520602896" r="5" fill="blue" stroke="none" /><circle cx="942.2941904699646" cy="4279.108873047006" r="5" fill="blue" stroke="none" /><circle cx="694.1936794642811" cy="4113.1139558533705" r="5" fill="blue" stroke="none" /><circle cx="684.4880129807362" cy="4160.849992294086" r="5" fill="blue" stroke="none" /><circle cx="962.4042417978876" cy="3973.0503826759177" r="5" fill="blue" stroke="none" /><circle cx="960.3586134821078" cy="4143.298091006069" r="5" fill="blue" stroke="none" /><circle cx="646" cy="4343.875771949574" r="5" fill="blue" stroke="none" /><circle cx="880.1726605414348" cy="4199.2659000163585" r="5" fill="blue" stroke="none" /><circle cx="880.5857822087092" cy="4345" r="5" fill="blue" stroke="none" /><circle cx="807.1868175660699" cy="4008.0184146047845" r="5" fill="blue" stroke="none" /><circle cx="1054.0681071954937" cy="4295.4143991458495" r="5" fill="blue" stroke="none" /><circle cx="927.25150725107" cy="4007.74235463786" r="5" fill="blue" stroke="none" /><circle cx="665.3819144888738" cy="4116.197811129409" r="5" fill="blue" stroke="none" /><circle cx="785.5827616272918" cy="4006.1910122308163" r="5" fill="blue" stroke="none" /><circle cx="1018.0100883161671" cy="4176.735963586703" r="5" fill="blue" stroke="none" /><circle cx="811.048985690542" cy="4242.1873541369305" r="5" fill="blue" stroke="none" /><circle cx="901.9388184625049" cy="4163.298497315193" r="5" fill="blue" stroke="none" /><circle cx="646" cy="4064.39368337055" r="5" fill="blue" stroke="none" /><circle cx="1034.4189458752091" cy="4086.9282847118166" r="5" fill="blue" stroke="none" /><circle cx="699.5513439583942" cy="4136.017978524723" r="5" fill="blue" stroke="none" /><circle cx="792.6675241444884" cy="4182.531035448385" r="5" fill="blue" stroke="none" /><circle cx="780.9264454856806" cy="4068.212632517263" r="5" fill="blue" stroke="none" /><circle cx="983.6711770127695" cy="3962" r="5" fill="blue" stroke="none" /><circle cx="987.5584820693261" cy="4121.889797327455" r="5" fill="blue" stroke="none" /><circle cx="653.2715884531085" cy="4010.180453466852" r="5" fill="blue" stroke="none" /><circle cx="783.3633591179184" cy="3962" r="5" fill="blue" stroke="none" /><circle cx="884.9697794339081" cy="3962" r="5" fill="blue" stroke="none" /><circle cx="910.2935627848127" cy="3991.467733128827" r="5" fill="blue" stroke="none" /><circle cx="663.5219797935154" cy="4061.109425360875" r="5" fill="blue" stroke="none" /><circle cx="697.9524311655558" cy="4334.552197301726" r="5" fill="blue" stroke="none" /><circle cx="678.312125218639" cy="4322.481484770817" r="5" fill="blue" stroke="none" /><circle cx="1053.8391306628566" cy="4329.234800967978" r="5" fill="blue" stroke="none" /><circle cx="1088" cy="4255.801192007168" r="5" fill="blue" stroke="none" /><circle cx="833.8848619159044" cy="4049.256764819975" r="5" fill="blue" stroke="none" /><circle cx="858.7855518239044" cy="4284.41980987939" r="5" fill="blue" stroke="none" /><circle cx="967.9572005231763" cy="4131.169075849738" r="5" fill="blue" stroke="none" /><circle cx="1030.3666589526845" cy="4345" r="5" fill="blue" stroke="none" /><circle cx="788.5920733545887" cy="4331.996503225806" r="5" fill="blue" stroke="none" /><circle cx="966.4396010784064" cy="4212.531105759864" r="5" fill="blue" stroke="none" /><circle cx="888.70724448187" cy="4024.3321748843955" r="5" fill="blue" stroke="none" /><circle cx="1088" cy="4230.416672349027" r="5" fill="blue" stroke="none" /><circle cx="1036.7518997569455" cy="3962" r="5" fill="blue" stroke="none" /><circle cx="1088" cy="4096.2783600843695" r="5" fill="blue" stroke="none" /><circle cx="1088" cy="4287.07785982219" r="5" fill="blue" stroke="none" /><circle cx="773.5083167740402" cy="4196.766938083192" r="5" fill="blue" stroke="none" /><circle cx="715.4847592968691" cy="4130.11326640868" r="5" fill="blue" stroke="none" /><circle cx="891.7305295120761" cy="4337.323338499228" r="5" fill="blue" stroke="none" /><circle cx="940.221838431205" cy="3962" r="5" fill="blue" stroke="none" /><circle cx="742.4979065842688" cy="4212.992352310194" r="5" fill="blue" stroke="none" /><circle cx="679.9604108102067" cy="4345" r="5" fill="blue" stroke="none" /><circle cx="874.3390175551963" cy="4334.593139057326" r="5" fill="blue" stroke="none" /><circle cx="1024.4025243787098" cy="3962" r="5" fill="blue" stroke="none" /><circle cx="944.0770901699727" cy="4324.662596305148" r="5" fill="blue" stroke="none" /><circle cx="735.0075623589585" cy="4341.323265956045" r="5" fill="blue" stroke="none" /><circle cx="962.5410926911377" cy="4319.240143648731" r="5" fill="blue" stroke="none" /><circle cx="720.9779626621353" cy="4220.752988947125" r="5" fill="blue" stroke="none" /><circle cx="780.2706021677402" cy="4257.374962498894" r="5" fill="blue" stroke="none" /><circle cx="1070.0011002729188" cy="4214.01114804079" r="5" fill="blue" stroke="none" /><circle cx="764.5477379677232" cy="4345" r="5" fill="blue" stroke="none" /><circle cx="1076.8504233323156" cy="4281.30816519689" r="5" fill="blue" stroke="none" /><circle cx="912.1010264947316" cy="4345" r="5" fill="blue" stroke="none" /><circle cx="760.2379212962082" cy="3979.2129138157966" r="5" fill="blue" stroke="none" /><circle cx="824.2660766097872" cy="4324.101898616786" r="5" fill="blue" stroke="none" /><circle cx="938.7737170573262" cy="3974.345046417775" r="5" fill="blue" stroke="none" /><circle cx="751.0125684217113" cy="4020.0265474299267" r="5" fill="blue" stroke="none" /><circle cx="1058.158370249243" cy="3962" r="5" fill="blue" stroke="none" /><circle cx="775.2456718202789" cy="4345" r="5" fill="blue" stroke="none" /><circle cx="976.7290743999481" cy="4234.5556441404515" r="5" fill="blue" stroke="none" /><circle cx="1007.3428548101665" cy="4194.778958018166" r="5" fill="blue" stroke="none" /><circle cx="880.4047446431135" cy="3975.2251001838886" r="5" fill="blue" stroke="none" /><circle cx="871.7969213545312" cy="3962" r="5" fill="blue" stroke="none" /><circle cx="1088" cy="4174.13881697048" r="5" fill="blue" stroke="none" /><circle cx="762.9860760089445" cy="3993.4980033348543" r="5" fill="blue" stroke="none" /><circle cx="646" cy="4197.765265513739" r="5" fill="blue" stroke="none" /><circle cx="1022.376923878625" cy="4203.912552921477" r="5" fill="blue" stroke="none" /><circle cx="646" cy="4085.179006521352" r="5" fill="blue" stroke="none" /><circle cx="656.399390930682" cy="4053.172439595515" r="5" fill="blue" stroke="none" /><circle cx="854.7817540781059" cy="4329.543280297411" r="5" fill="blue" stroke="none" /><circle cx="795.9503374589025" cy="4345" r="5" fill="blue" stroke="none" /><circle cx="793.8498640506178" cy="4032.838645300045" r="5" fill="blue" stroke="none" /><circle cx="1041.2321575810274" cy="4161.421133064344" r="5" fill="blue" stroke="none" /><circle cx="654.2477468572666" cy="4118.15085970423" r="5" fill="blue" stroke="none" /><circle cx="1012.0966836357251" cy="4205.846495960966" r="5" fill="blue" stroke="none" /><circle cx="646" cy="3962" r="5" fill="blue" stroke="none" /><circle cx="1088" cy="4215.938502404754" r="5" fill="blue" stroke="none" /><circle cx="970.0309723676252" cy="4003.7180300914492" r="5" fill="blue" stroke="none" /><circle cx="727.0863924824835" cy="4186.640836685439" r="5" fill="blue" stroke="none" /><circle cx="677.930667158107" cy="3970.7889240656955" r="5" fill="blue" stroke="none" /><circle cx="708.6222661481287" cy="4007.413170556122" r="5" fill="blue" stroke="none" /><circle cx="928.9307412454233" cy="4107.690301570085" r="5" fill="blue" stroke="none" /><circle cx="1012.3010616634277" cy="4329.86611089254" r="5" fill="blue" stroke="none" /><circle cx="647.1121079351083" cy="4322.025301193964" r="5" fill="blue" stroke="none" /><circle cx="717.2542382302357" cy="4117.968647087126" r="5" fill="blue" stroke="none" /></svg>