<svg viewBox="0 0 1000 1000" xmlns="http://www.w3.org/2000/svg"><rect x="0" y="0" width="1000" height="1000" fill="lightyellow" stroke="none "/><rect x="0" y="980" width="1000" height="20" fill="white" stroke="black "/><circle cx="953" cy="949" r="5" fill="green" stroke="none" /><circle cx="704" cy="104" r="5" fill="green" stroke="none" /><circle cx="313" cy="435" r="5" fill="green" stroke="none" /><circle cx="832" cy="677" r="5" fill="green" stroke="none" /><circle cx="673" cy="75" r="5" fill="green" stroke="none" /><circle cx="191" cy="748" r="5" fill="green" stroke="none" /><circle cx="363" cy="54" r="5" fill="green" stroke="none" /><circle cx="350" cy="269" r="5" fill="green" stroke="none" /><circle cx="230" cy="77" r="5" fill="green" stroke="none" /><circle cx="469" cy="274" r="5" fill="green" stroke="none" /><circle cx="569" cy="79" r="5" fill="green" stroke="none" /><circle cx="210" cy="342" r="5" fill="green" stroke="none" /><circle cx="550" cy="105" r="5" fill="green" stroke="none" /><circle cx="868" cy="383" r="5" fill="green" stroke="none" /><circle cx="879" cy="743" r="5" fill="green" stroke="none" /><circle cx="252" cy="846" r="5" fill="green" stroke="none" /><circle cx="292" cy="534" r="5" fill="green" stroke="none" /><circle cx="780" cy="36" r="5" fill="green" stroke="none" /><circle cx="644" cy="84" r="5" fill="green" stroke="none" /><circle cx="582" cy="109" r="5" fill="green" stroke="none" /><circle cx="186" cy="46" r="5" fill="green" stroke="none" /><circle cx="68" cy="907" r="5" fill="green" stroke="none" /><circle cx="250" cy="439" r="5" fill="green" stroke="none" /><circle cx="449" cy="79" r="5" fill="green" stroke="none" /><circle cx="833" cy="776" r="5" fill="green" stroke="none" /><circle cx="919" cy="602" r="5" fill="green" stroke="none" /><circle cx="560" cy="85" r="5" fill="green" stroke="none" /><circle cx="687" cy="274" r="5" fill="green" stroke="none" /><circle cx="311" cy="894" r="5" fill="green" stroke="none" /><circle cx="838" cy="206" r="5" fill="green" stroke="none" /><circle cx="407" cy="819" r="5" fill="green" stroke="none" /><circle cx="732" cy="697" r="5" fill="green" stroke="none" /><circle cx="128" cy="817" r="5" fill="green" stroke="none" /><circle cx="428" cy="48" r="5" fill="green" stroke="none" /><circle cx="601" cy="116" r="5" fill="green" stroke="none" /><circle cx="894" cy="554" r="5" fill="green" stroke="none" /><circle cx="609" cy="521" r="5" fill="green" stroke="none" /><circle cx="272" cy="517" r="5" fill="green" stroke="none" /><circle cx="608" cy="650" r="5" fill="green" stroke="none" /><circle cx="14" cy="732" r="5" fill="green" stroke="none" /><circle cx="503" cy="168" r="5" fill="green" stroke="none" /><circle cx="444" cy="351" r="5" fill="green" stroke="none" /><circle cx="614" cy="293" r="5" fill="green" stroke="none" /><circle cx="154" cy="163" r="5" fill="green" stroke="none" /><circle cx="870" cy="205" r="5" fill="green" stroke="none" /><circle cx="421" cy="929" r="5" fill="green" stroke="none" /><circle cx="39" cy="405" r="5" fill="green" stroke="none" /><circle cx="194" cy="435" r="5" fill="green" stroke="none" /><circle cx="99" cy="960" r="5" fill="green" stroke="none" /><circle cx="291" cy="756" r="5" fill="green" stroke="none" /><circle cx="394" cy="513" r="5" fill="green" stroke="none" /><circle cx="845" cy="638" r="5" fill="green" stroke="none" /><circle cx="88" cy="263" r="5" fill="green" stroke="none" /><circle cx="917" cy="951" r="5" fill="green" stroke="none" /><circle cx="722" cy="481" r="5" fill="green" stroke="none" /><circle cx="588" cy="187" r="5" fill="green" stroke="none" /><circle cx="250" cy="643" r="5" fill="green" stroke="none" /><circle cx="481" cy="92" r="5" fill="green" stroke="none" /><circle cx="451" cy="665" r="5" fill="green" stroke="none" /><circle cx="789" cy="965" r="5" fill="green" stroke="none" /><circle cx="612" cy="230" r="5" fill="green" stroke="none" /><circle cx="368" cy="853" r="5" fill="green" stroke="none" /><circle cx="465" cy="956" r="5" fill="green" stroke="none" /><circle cx="108" cy="621" r="5" fill="green" stroke="none" /><circle cx="117" cy="709" r="5" fill="green" stroke="none" /><circle cx="367" cy="393" r="5" fill="green" stroke="none" /><circle cx="686" cy="367" r="5" fill="green" stroke="none" /><circle cx="955" cy="25" r="5" fill="green" stroke="none" /><circle cx="693" cy="839" r="5" fill="green" stroke="none" /><circle cx="706" cy="784" r="5" fill="green" stroke="none" /><circle cx="734" cy="649" r="5" fill="green" stroke="none" /><circle cx="98" cy="931" r="5" fill="green" stroke="none" /><circle cx="430" cy="876" r="5" fill="green" stroke="none" /><circle cx="902" cy="117" r="5" fill="green" stroke="none" /><circle cx="80" cy="898" r="5" fill="green" stroke="none" /><circle cx="271" cy="428" r="5" fill="green" stroke="none" /><circle cx="192" cy="481" r="5" fill="green" stroke="none" /><circle cx="829" cy="671" r="5" fill="green" stroke="none" /><circle cx="626" cy="202" r="5" fill="green" stroke="none" /><circle cx="261" cy="796" r="5" fill="green" stroke="none" /><circle cx="657" cy="632" r="5" fill="green" stroke="none" /><circle cx="507" cy="318" r="5" fill="green" stroke="none" /><circle cx="2" cy="428" r="5" fill="green" stroke="none" /><circle cx="940" cy="73" r="5" fill="green" stroke="none" /><circle cx="122" cy="633" r="5" fill="green" stroke="none" /><circle cx="575" cy="96" r="5" fill="green" stroke="none" /><circle cx="367" cy="199" r="5" fill="green" stroke="none" /><circle cx="422" cy="284" r="5" fill="green" stroke="none" /><circle cx="858" cy="129" r="5" fill="green" stroke="none" /><circle cx="353" cy="430" r="5" fill="green" stroke="none" /><circle cx="884" cy="148" r="5" fill="green" stroke="none" /><circle cx="716" cy="233" r="5" fill="green" stroke="none" /><circle cx="403" cy="830" r="5" fill="green" stroke="none" /><circle cx="337" cy="443" r="5" fill="green" stroke="none" /><circle cx="319" cy="205" r="5" fill="green" stroke="none" /><circle cx="569" cy="538" r="5" fill="green" stroke="none" /><circle cx="300" cy="242" r="5" fill="green" stroke="none" /><circle cx="209" cy="503" r="5" fill="green" stroke="none" /><circle cx="740" cy="775" r="5" fill="green" stroke="none" /><circle cx="858" cy="796" r="5" fill="green" stroke="none" /><circle cx="289" cy="289" r="5" fill="green" stroke="none" /><circle cx="84" cy="832" r="5" fill="green" stroke="none" /><circle cx="392" cy="9" r="5" fill="green" stroke="none" /><circle cx="813" cy="635" r="5" fill="green" stroke="none" /><circle cx="395" cy="67" r="5" fill="green" stroke="none" /><circle cx="115" cy="454" r="5" fill="green" stroke="none" /><circle cx="130" cy="274" r="5" fill="green" stroke="none" /><circle cx="879" cy="56" r="5" fill="green" stroke="none" /><circle cx="631" cy="427" r="5" fill="green" stroke="none" /><circle cx="740" cy="189" r="5" fill="green" stroke="none" /><circle cx="113" cy="365" r="5" fill="green" stroke="none" /><circle cx="314" cy="499" r="5" fill="green" stroke="none" /><circle cx="33" cy="498" r="5" fill="green" stroke="none" /><circle cx="297" cy="765" r="5" fill="green" stroke="none" /><circle cx="717" cy="89" r="5" fill="green" stroke="none" /><circle cx="803" cy="89" r="5" fill="green" stroke="none" /><circle cx="258" cy="802" r="5" fill="green" stroke="none" /><circle cx="752" cy="531" r="5" fill="green" stroke="none" /><circle cx="534" cy="506" r="5" fill="green" stroke="none" /><circle cx="307" cy="898" r="5" fill="green" stroke="none" /><circle cx="755" cy="47" r="5" fill="green" stroke="none" /><circle cx="64" cy="691" r="5" fill="green" stroke="none" /><circle cx="166" cy="969" r="5" fill="green" stroke="none" /><circle cx="304" cy="101" r="5" fill="green" stroke="none" /><circle cx="560" cy="194" r="5" fill="green" stroke="none" /><circle cx="774" cy="530" r="5" fill="green" stroke="none" /><circle cx="214" cy="334" r="5" fill="green" stroke="none" /><circle cx="884" cy="325" r="5" fill="green" stroke="none" /><circle cx="748" cy="844" r="5" fill="green" stroke="none" /><circle cx="407" cy="119" r="5" fill="green" stroke="none" /><circle cx="616" cy="617" r="5" fill="green" stroke="none" /><circle cx="288" cy="778" r="5" fill="green" stroke="none" /><circle cx="29" cy="950" r="5" fill="green" stroke="none" /><circle cx="685" cy="710" r="5" fill="green" stroke="none" /><circle cx="911" cy="503" r="5" fill="green" stroke="none" /><circle cx="964" cy="253" r="5" fill="green" stroke="none" /><circle cx="466" cy="867" r="5" fill="green" stroke="none" /><circle cx="735" cy="402" r="5" fill="green" stroke="none" /><circle cx="212" cy="95" r="5" fill="green" stroke="none" /><circle cx="358" cy="456" r="5" fill="green" stroke="none" /><circle cx="966" cy="863" r="5" fill="green" stroke="none" /><circle cx="453" cy="693" r="5" fill="green" stroke="none" /><circle cx="562" cy="891" r="5" fill="green" stroke="none" /><circle cx="175" cy="50" r="5" fill="green" stroke="none" /><circle cx="298" cy="269" r="5" fill="green" stroke="none" /><circle cx="20" cy="819" r="5" fill="green" stroke="none" /><circle cx="888" cy="906" r="5" fill="green" stroke="none" /><circle cx="308" cy="372" r="5" fill="green" stroke="none" /><circle cx="406" cy="578" r="5" fill="green" stroke="none" /><circle cx="15" cy="213" r="5" fill="green" stroke="none" /><circle cx="164" cy="409" r="5" fill="green" stroke="none" /><circle cx="469" cy="524" r="5" fill="green" stroke="none" /><circle cx="776" cy="718" r="5" fill="green" stroke="none" /><circle cx="1" cy="687" r="5" fill="green" stroke="none" /><circle cx="85" cy="511" r="5" fill="green" stroke="none" /><circle cx="967" cy="13" r="5" fill="green" stroke="none" /><circle cx="863" cy="536" r="5" fill="green" stroke="none" /><circle cx="647" cy="916" r="5" fill="green" stroke="none" /><circle cx="420" cy="565" r="5" fill="green" stroke="none" /><circle cx="537" cy="176" r="5" fill="green" stroke="none" /><circle cx="73" cy="226" r="5" fill="green" stroke="none" /><circle cx="509" cy="530" r="5" fill="green" stroke="none" /><circle cx="764" cy="924" r="5" fill="green" stroke="none" /><circle cx="0" cy="706" r="5" fill="green" stroke="none" /><circle cx="785" cy="532" r="5" fill="green" stroke="none" /><circle cx="788" cy="255" r="5" fill="green" stroke="none" /><circle cx="70" cy="385" r="5" fill="green" stroke="none" /><circle cx="230" cy="795" r="5" fill="green" stroke="none" /><circle cx="213" cy="541" r="5" fill="green" stroke="none" /><circle cx="273" cy="166" r="5" fill="green" stroke="none" /><circle cx="930" cy="638" r="5" fill="green" stroke="none" /><circle cx="553" cy="680" r="5" fill="green" stroke="none" /><circle cx="491" cy="234" r="5" fill="green" stroke="none" /><circle cx="612" cy="732" r="5" fill="green" stroke="none" /><circle cx="69" cy="647" r="5" fill="green" stroke="none" /><circle cx="657" cy="785" r="5" fill="green" stroke="none" /><circle cx="662" cy="131" r="5" fill="green" stroke="none" /><circle cx="99" cy="2" r="5" fill="green" stroke="none" /><circle cx="351" cy="288" r="5" fill="green" stroke="none" /><circle cx="761" cy="675" r="5" fill="green" stroke="none" /><circle cx="471" cy="805" r="5" fill="green" stroke="none" /><circle cx="771" cy="762" r="5" fill="green" stroke="none" /><circle cx="481" cy="400" r="5" fill="green" stroke="none" /><circle cx="200" cy="287" r="5" fill="green" stroke="none" /><circle cx="173" cy="138" r="5" fill="green" stroke="none" /><circle cx="323" cy="726" r="5" fill="green" stroke="none" /><circle cx="917" cy="257" r="5" fill="green" stroke="none" /><circle cx="150" cy="735" r="5" fill="green" stroke="none" /><circle cx="363" cy="57" r="5" fill="green" stroke="none" /><circle cx="543" cy="128" r="5" fill="green" stroke="none" /><circle cx="458" cy="108" r="5" fill="green" stroke="none" /><circle cx="940" cy="136" r="5" fill="green" stroke="none" /><circle cx="763" cy="96" r="5" fill="green" stroke="none" /><circle cx="206" cy="103" r="5" fill="green" stroke="none" /><circle cx="132" cy="692" r="5" fill="green" stroke="none" /><circle cx="956" cy="174" r="5" fill="green" stroke="none" /><circle cx="89" cy="583" r="5" fill="green" stroke="none" /><circle cx="833" cy="864" r="5" fill="green" stroke="none" /><circle cx="267" cy="787" r="5" fill="green" stroke="none" /><circle cx="881" cy="353" r="5" fill="green" stroke="none" /><circle cx="123" cy="321" r="5" fill="green" stroke="none" /><circle cx="585" cy="930" r="5" fill="green" stroke="none" /><circle cx="746" cy="763" r="5" fill="green" stroke="none" /><circle cx="345" cy="154" r="5" fill="green" stroke="none" /><circle cx="947" cy="869" r="5" fill="green" stroke="none" /><circle cx="117" cy="303" r="5" fill="green" stroke="none" /><circle cx="512" cy="127" r="5" fill="green" stroke="none" /><circle cx="40" cy="275" r="5" fill="green" stroke="none" /><circle cx="96" cy="174" r="5" fill="green" stroke="none" /><circle cx="937" cy="186" r="5" fill="green" stroke="none" /><circle cx="243" cy="434" r="5" fill="green" stroke="none" /><circle cx="545" cy="836" r="5" fill="green" stroke="none" /><circle cx="388" cy="578" r="5" fill="green" stroke="none" /><circle cx="308" cy="662" r="5" fill="green" stroke="none" /><circle cx="393" cy="689" r="5" fill="green" stroke="none" /><circle cx="124" cy="705" r="5" fill="green" stroke="none" /><circle cx="970" cy="582" r="5" fill="green" stroke="none" /><circle cx="536" cy="66" r="5" fill="green" stroke="none" /><circle cx="609" cy="225" r="5" fill="green" stroke="none" /><circle cx="514" cy="170" r="5" fill="green" stroke="none" /><circle cx="673" cy="745" r="5" fill="green" stroke="none" /><circle cx="72" cy="976" r="5" fill="green" stroke="none" /><circle cx="978" cy="804" r="5" fill="green" stroke="none" /><circle cx="956" cy="798" r="5" fill="green" stroke="none" /><circle cx="757" cy="749" r="5" fill="green" stroke="none" /><circle cx="528" cy="32" r="5" fill="green" stroke="none" /><circle cx="752" cy="285" r="5" fill="green" stroke="none" /><circle cx="946" cy="521" r="5" fill="green" stroke="none" /><circle cx="833" cy="252" r="5" fill="green" stroke="none" /><circle cx="290" cy="857" r="5" fill="green" stroke="none" /><circle cx="50" cy="79" r="5" fill="green" stroke="none" /><circle cx="219" cy="644" r="5" fill="green" stroke="none" /><circle cx="554" cy="779" r="5" fill="green" stroke="none" /><circle cx="446" cy="511" r="5" fill="green" stroke="none" /><circle cx="913" cy="217" r="5" fill="green" stroke="none" /><circle cx="857" cy="400" r="5" fill="green" stroke="none" /><circle cx="524" cy="156" r="5" fill="green" stroke="none" /><circle cx="597" cy="809" r="5" fill="green" stroke="none" /><circle cx="334" cy="884" r="5" fill="green" stroke="none" /><circle cx="790" cy="623" r="5" fill="green" stroke="none" /><circle cx="343" cy="279" r="5" fill="green" stroke="none" /><circle cx="769" cy="491" r="5" fill="green" stroke="none" /><circle cx="549" cy="461" r="5" fill="green" stroke="none" /><circle cx="369" cy="115" r="5" fill="green" stroke="none" /><circle cx="533" cy="205" r="5" fill="green" stroke="none" /><circle cx="101" cy="592" r="5" fill="green" stroke="none" /><circle cx="388" cy="776" r="5" fill="green" stroke="none" /><circle cx="613" cy="396" r="5" fill="green" stroke="none" /><circle cx="755" cy="248" r="5" fill="green" stroke="none" /><circle cx="934" cy="106" r="5" fill="green" stroke="none" /><circle cx="232" cy="424" r="5" fill="green" stroke="none" /><circle cx="850" cy="416" r="5" fill="green" stroke="none" /><circle cx="116" cy="504" r="5" fill="green" stroke="none" /><circle cx="374" cy="903" r="5" fill="green" stroke="none" /><circle cx="232" cy="329" r="5" fill="green" stroke="none" /><circle cx="386" cy="352" r="5" fill="green" stroke="none" /><circle cx="254" cy="755" r="5" fill="green" stroke="none" /><circle cx="873" cy="840" r="5" fill="green" stroke="none" /><circle cx="38" cy="319" r="5" fill="green" stroke="none" /><circle cx="486" cy="683" r="5" fill="green" stroke="none" /><circle cx="285" cy="851" r="5" fill="green" stroke="none" /><circle cx="296" cy="925" r="5" fill="green" stroke="none" /><circle cx="847" cy="601" r="5" fill="green" stroke="none" /><circle cx="222" cy="198" r="5" fill="green" stroke="none" /><circle cx="660" cy="400" r="5" fill="green" stroke="none" /><circle cx="336" cy="329" r="5" fill="green" stroke="none" /><circle cx="868" cy="736" r="5" fill="green" stroke="none" /><circle cx="964" cy="521" r="5" fill="green" stroke="none" /><circle cx="490" cy="489" r="5" fill="green" stroke="none" /><circle cx="448" cy="212" r="5" fill="green" stroke="none" /><circle cx="184" cy="375" r="5" fill="green" stroke="none" /><circle cx="607" cy="937" r="5" fill="green" stroke="none" /><circle cx="446" cy="333" r="5" fill="green" stroke="none" /><circle cx="709" cy="221" r="5" fill="green" stroke="none" /><circle cx="107" cy="907" r="5" fill="green" stroke="none" /><circle cx="441" cy="905" r="5" fill="green" stroke="none" /><circle cx="649" cy="760" r="5" fill="green" stroke="none" /><circle cx="452" cy="773" r="5" fill="green" stroke="none" /><circle cx="777" cy="558" r="5" fill="green" stroke="none" /><circle cx="563" cy="99" r="5" fill="green" stroke="none" /><circle cx="297" cy="279" r="5" fill="green" stroke="none" /><circle cx="89" cy="6" r="5" fill="green" stroke="none" /><circle cx="278" cy="194" r="5" fill="green" stroke="none" /><circle cx="346" cy="757" r="5" fill="green" stroke="none" /><circle cx="913" cy="73" r="5" fill="green" stroke="none" /><circle cx="549" cy="178" r="5" fill="green" stroke="none" /><circle cx="501" cy="202" r="5" fill="green" stroke="none" /><circle cx="710" cy="716" r="5" fill="green" stroke="none" /><circle cx="60" cy="47" r="5" fill="green" stroke="none" /><circle cx="161" cy="423" r="5" fill="green" stroke="none" /><circle cx="109" cy="373" r="5" fill="green" stroke="none" /><circle cx="42" cy="180" r="5" fill="green" stroke="none" /><circle cx="875" cy="941" r="5" fill="green" stroke="none" /><circle cx="695" cy="473" r="5" fill="green" stroke="none" /><circle cx="302" cy="623" r="5" fill="green" stroke="none" /><circle cx="426" cy="374" r="5" fill="green" stroke="none" /><circle cx="650" cy="142" r="5" fill="green" stroke="none" /><circle cx="77" cy="647" r="5" fill="green" stroke="none" /><circle cx="640" cy="456" r="5" fill="green" stroke="none" /><circle cx="565" cy="589" r="5" fill="green" stroke="none" /><circle cx="753" cy="210" r="5" fill="green" stroke="none" /><circle cx="498" cy="873" r="5" fill="green" stroke="none" /><circle cx="13" cy="497" r="5" fill="green" stroke="none" /><circle cx="733" cy="315" r="5" fill="green" stroke="none" /><circle cx="321" cy="754" r="5" fill="green" stroke="none" /><circle cx="121" cy="912" r="5" fill="green" stroke="none" /><circle cx="406" cy="511" r="5" fill="green" stroke="none" /><circle cx="828" cy="798" r="5" fill="green" stroke="none" /><circle cx="729" cy="936" r="5" fill="green" stroke="none" /><circle cx="617" cy="493" r="5" fill="green" stroke="none" /><circle cx="31" cy="566" r="5" fill="green" stroke="none" /><circle cx="234" cy="415" r="5" fill="green" stroke="none" /><circle cx="636" cy="482" r="5" fill="green" stroke="none" /><circle cx="106" cy="278" r="5" fill="green" stroke="none" /><circle cx="223" cy="973" r="5" fill="green" stroke="none" /><circle cx="427" cy="504" r="5" fill="green" stroke="none" /><circle cx="856" cy="879" r="5" fill="green" stroke="none" /><circle cx="12" cy="314" r="5" fill="green" stroke="none" /><circle cx="120" cy="359" r="5" fill="green" stroke="none" /><circle cx="228" cy="360" r="5" fill="green" stroke="none" /><circle cx="878" cy="845" r="5" fill="green" stroke="none" /><circle cx="854" cy="743" r="5" fill="green" stroke="none" /><circle cx="678" cy="506" r="5" fill="green" stroke="none" /><circle cx="954" cy="54" r="5" fill="green" stroke="none" /><circle cx="70" cy="478" r="5" fill="green" stroke="none" /><circle cx="428" cy="851" r="5" fill="green" stroke="none" /><circle cx="570" cy="826" r="5" fill="green" stroke="none" /><circle cx="920" cy="435" r="5" fill="green" stroke="none" /><circle cx="817" cy="417" r="5" fill="green" stroke="none" /><circle cx="379" cy="703" r="5" fill="green" stroke="none" /><circle cx="563" cy="42" r="5" fill="green" stroke="none" /><circle cx="331" cy="840" r="5" fill="green" stroke="none" /><circle cx="380" cy="443" r="5" fill="green" stroke="none" /><circle cx="455" cy="437" r="5" fill="green" stroke="none" /><circle cx="47" cy="673" r="5" fill="green" stroke="none" /><circle cx="225" cy="500" r="5" fill="green" stroke="none" /><circle cx="228" cy="722" r="5" fill="green" stroke="none" /><circle cx="721" cy="735" r="5" fill="green" stroke="none" /><circle cx="51" cy="780" r="5" fill="green" stroke="none" /><circle cx="442" cy="324" r="5" fill="green" stroke="none" /><circle cx="109" cy="337" r="5" fill="green" stroke="none" /><circle cx="90" cy="417" r="5" fill="green" stroke="none" /><circle cx="112" cy="910" r="5" fill="green" stroke="none" /><circle cx="852" cy="179" r="5" fill="green" stroke="none" /><circle cx="788" cy="93" r="5" fill="green" stroke="none" /><circle cx="241" cy="391" r="5" fill="green" stroke="none" /><circle cx="412" cy="965" r="5" fill="green" stroke="none" /><circle cx="826" cy="790" r="5" fill="green" stroke="none" /><circle cx="534" cy="468" r="5" fill="green" stroke="none" /><circle cx="849" cy="469" r="5" fill="green" stroke="none" /><circle cx="547" cy="54" r="5" fill="green" stroke="none" /><circle cx="647" cy="71" r="5" fill="green" stroke="none" /><circle cx="744" cy="578" r="5" fill="green" stroke="none" /><circle cx="321" cy="327" r="5" fill="green" stroke="none" /><circle cx="959" cy="931" r="5" fill="green" stroke="none" /><circle cx="503" cy="408" r="5" fill="green" stroke="none" /><circle cx="286" cy="574" r="5" fill="green" stroke="none" /><circle cx="527" cy="234" r="5" fill="green" stroke="none" /><circle cx="712" cy="807" r="5" fill="green" stroke="none" /><circle cx="710" cy="895" r="5" fill="green" stroke="none" /><circle cx="331" cy="821" r="5" fill="green" stroke="none" /><circle cx="145" cy="139" r="5" fill="green" stroke="none" /><circle cx="946" cy="265" r="5" fill="green" stroke="none" /><circle cx="561" cy="918" r="5" fill="green" stroke="none" /><circle cx="992" cy="762" r="5" fill="green" stroke="none" /><circle cx="496" cy="204" r="5" fill="green" stroke="none" /><circle cx="346" cy="897" r="5" fill="green" stroke="none" /><circle cx="304" cy="280" r="5" fill="green" stroke="none" /><circle cx="359" cy="233" r="5" fill="green" stroke="none" /><circle cx="486" cy="665" r="5" fill="green" stroke="none" /><circle cx="184" cy="86" r="5" fill="green" stroke="none" /><circle cx="578" cy="572" r="5" fill="green" stroke="none" /><circle cx="571" cy="59" r="5" fill="green" stroke="none" /><circle cx="709" cy="394" r="5" fill="green" stroke="none" /><circle cx="642" cy="727" r="5" fill="green" stroke="none" /><circle cx="292" cy="271" r="5" fill="green" stroke="none" /><circle cx="871" cy="539" r="5" fill="green" stroke="none" /><circle cx="714" cy="714" r="5" fill="green" stroke="none" /><circle cx="755" cy="126" r="5" fill="green" stroke="none" /><circle cx="973" cy="446" r="5" fill="green" stroke="none" /><circle cx="614" cy="630" r="5" fill="green" stroke="none" /><circle cx="108" cy="636" r="5" fill="green" stroke="none" /><circle cx="825" cy="525" r="5" fill="green" stroke="none" /><circle cx="858" cy="213" r="5" fill="green" stroke="none" /><circle cx="702" cy="974" r="5" fill="green" stroke="none" /><circle cx="780" cy="159" r="5" fill="green" stroke="none" /><circle cx="102" cy="363" r="5" fill="green" stroke="none" /><circle cx="362" cy="906" r="5" fill="green" stroke="none" /><circle cx="448" cy="171" r="5" fill="green" stroke="none" /><circle cx="744" cy="923" r="5" fill="green" stroke="none" /><circle cx="555" cy="479" r="5" fill="green" stroke="none" /><circle cx="640" cy="256" r="5" fill="green" stroke="none" /><circle cx="245" cy="707" r="5" fill="green" stroke="none" /><circle cx="131" cy="836" r="5" fill="green" stroke="none" /><circle cx="166" cy="394" r="5" fill="green" stroke="none" /><circle cx="119" cy="651" r="5" fill="green" stroke="none" /><circle cx="847" cy="238" r="5" fill="green" stroke="none" /><circle cx="478" cy="817" r="5" fill="green" stroke="none" /><circle cx="567" cy="473" r="5" fill="green" stroke="none" /><circle cx="699" cy="114" r="5" fill="green" stroke="none" /><circle cx="415.65696617758596" cy="990" r="5" fill="blue" stroke="none" /><circle cx="228.21323078078646" cy="990" r="5" fill="blue" stroke="none" /><circle cx="58.42053945727537" cy="990" r="5" fill="blue" stroke="none" /><circle cx="68.46204637393538" cy="990" r="5" fill="blue" stroke="none" /><circle cx="459.07120596643347" cy="990" r="5" fill="blue" stroke="none" /><circle cx="788.80988379728" cy="990" r="5" fill="blue" stroke="none" /><circle cx="728.4862861420588" cy="990" r="5" fill="blue" stroke="none" /><circle cx="425.6634176016533" cy="990" r="5" fill="blue" stroke="none" /><circle cx="88.46853638102344" cy="990" r="5" fill="blue" stroke="none" /><circle cx="708.4849612153703" cy="990" r="5" fill="blue" stroke="none" /><circle cx="78.46232886213733" cy="990" r="5" fill="blue" stroke="none" /><circle cx="718.4855069410207" cy="990" r="5" fill="blue" stroke="none" /><circle cx="698.4839163714089" cy="990" r="5" fill="blue" stroke="none" /><circle cx="405.14742248628727" cy="990" r="5" fill="blue" stroke="none" /><circle cx="688.4836987948493" cy="990" r="5" fill="blue" stroke="none" /><circle cx="218.2100565444686" cy="990" r="5" fill="blue" stroke="none" /></svg>