<svg viewBox="0 0 1000 1000" xmlns="http://www.w3.org/2000/svg"><rect x="0" y="0" width="1000" height="1000" fill="lightyellow" stroke="none "/><rect x="0" y="980" width="1000" height="20" fill="white" stroke="black "/><circle cx="38" cy="725" r="5" fill="green" stroke="none" /><circle cx="94" cy="941" r="5" fill="green" stroke="none" /><circle cx="308" cy="662" r="5" fill="green" stroke="none" /><circle cx="775" cy="652" r="5" fill="green" stroke="none" /><circle cx="927" cy="463" r="5" fill="green" stroke="none" /><circle cx="732" cy="139" r="5" fill="green" stroke="none" /><circle cx="953" cy="909" r="5" fill="green" stroke="none" /><circle cx="230" cy="561" r="5" fill="green" stroke="none" /><circle cx="254" cy="49" r="5" fill="green" stroke="none" /><circle cx="579" cy="792" r="5" fill="green" stroke="none" /><circle cx="165" cy="709" r="5" fill="green" stroke="none" /><circle cx="229" cy="568" r="5" fill="green" stroke="none" /><circle cx="811" cy="596" r="5" fill="green" stroke="none" /><circle cx="139" cy="906" r="5" fill="green" stroke="none" /><circle cx="134" cy="769" r="5" fill="green" stroke="none" /><circle cx="184" cy="616" r="5" fill="green" stroke="none" /><circle cx="327" cy="958" r="5" fill="green" stroke="none" /><circle cx="692" cy="191" r="5" fill="green" stroke="none" /><circle cx="111" cy="551" r="5" fill="green" stroke="none" /><circle cx="633" cy="329" r="5" fill="green" stroke="none" /><circle cx="262" cy="531" r="5" fill="green" stroke="none" /><circle cx="3" cy="831" r="5" fill="green" stroke="none" /><circle cx="918" cy="261" r="5" fill="green" stroke="none" /><circle cx="513" cy="943" r="5" fill="green" stroke="none" /><circle cx="328" cy="928" r="5" fill="green" stroke="none" /><circle cx="420" cy="590" r="5" fill="green" stroke="none" /><circle cx="735" cy="222" r="5" fill="green" stroke="none" /><circle cx="106" cy="730" r="5" fill="green" stroke="none" /><circle cx="99" cy="572" r="5" fill="green" stroke="none" /><circle cx="107" cy="239" r="5" fill="green" stroke="none" /><circle cx="74" cy="452" r="5" fill="green" stroke="none" /><circle cx="431" cy="794" r="5" fill="green" stroke="none" /><circle cx="968" cy="473" r="5" fill="green" stroke="none" /><circle cx="639" cy="906" r="5" fill="green" stroke="none" /><circle cx="297" cy="691" r="5" fill="green" stroke="none" /><circle cx="388" cy="666" r="5" fill="green" stroke="none" /><circle cx="213" cy="417" r="5" fill="green" stroke="none" /><circle cx="937" cy="172" r="5" fill="green" stroke="none" /><circle cx="44" cy="280" r="5" fill="green" stroke="none" /><circle cx="367" cy="116" r="5" fill="green" stroke="none" /><circle cx="997" cy="631" r="5" fill="green" stroke="none" /><circle cx="385" cy="425" r="5" fill="green" stroke="none" /><circle cx="482" cy="551" r="5" fill="green" stroke="none" /><circle cx="257" cy="352" r="5" fill="green" stroke="none" /><circle cx="427" cy="391" r="5" fill="green" stroke="none" /><circle cx="551" cy="205" r="5" fill="green" stroke="none" /><circle cx="434" cy="884" r="5" fill="green" stroke="none" /><circle cx="977" cy="773" r="5" fill="green" stroke="none" /><circle cx="626" cy="896" r="5" fill="green" stroke="none" /><circle cx="815" cy="204" r="5" fill="green" stroke="none" /><circle cx="78" cy="841" r="5" fill="green" stroke="none" /><circle cx="681" cy="444" r="5" fill="green" stroke="none" /><circle cx="906" cy="794" r="5" fill="green" stroke="none" /><circle cx="828" cy="622" r="5" fill="green" stroke="none" /><circle cx="655" cy="375" r="5" fill="green" stroke="none" /><circle cx="474" cy="159" r="5" fill="green" stroke="none" /><circle cx="342" cy="739" r="5" fill="green" stroke="none" /><circle cx="789" cy="348" r="5" fill="green" stroke="none" /><circle cx="362" cy="624" r="5" fill="green" stroke="none" /><circle cx="740" cy="377" r="5" fill="green" stroke="none" /><circle cx="346" cy="137" r="5" fill="green" stroke="none" /><circle cx="1" cy="462" r="5" fill="green" stroke="none" /><circle cx="957" cy="401" r="5" fill="green" stroke="none" /><circle cx="630" cy="856" r="5" fill="green" stroke="none" /><circle cx="484" cy="121" r="5" fill="green" stroke="none" /><circle cx="777" cy="219" r="5" fill="green" stroke="none" /><circle cx="642" cy="865" r="5" fill="green" stroke="none" /><circle cx="842" cy="53" r="5" fill="green" stroke="none" /><circle cx="775" cy="419" r="5" fill="green" stroke="none" /><circle cx="718" cy="350" r="5" fill="green" stroke="none" /><circle cx="394" cy="851" r="5" fill="green" stroke="none" /><circle cx="921" cy="28" r="5" fill="green" stroke="none" /><circle cx="227" cy="410" r="5" fill="green" stroke="none" /><circle cx="175" cy="536" r="5" fill="green" stroke="none" /><circle cx="554" cy="566" r="5" fill="green" stroke="none" /><circle cx="170" cy="297" r="5" fill="green" stroke="none" /><circle cx="584" cy="241" r="5" fill="green" stroke="none" /><circle cx="108" cy="574" r="5" fill="green" stroke="none" /><circle cx="889" cy="800" r="5" fill="green" stroke="none" /><circle cx="369" cy="84" r="5" fill="green" stroke="none" /><circle cx="620" cy="836" r="5" fill="green" stroke="none" /><circle cx="475" cy="340" r="5" fill="green" stroke="none" /><circle cx="366" cy="930" r="5" fill="green" stroke="none" /><circle cx="127" cy="724" r="5" fill="green" stroke="none" /><circle cx="18" cy="488" r="5" fill="green" stroke="none" /><circle cx="903" cy="251" r="5" fill="green" stroke="none" /><circle cx="576" cy="766" r="5" fill="green" stroke="none" /><circle cx="913" cy="580" r="5" fill="green" stroke="none" /><circle cx="270" cy="90" r="5" fill="green" stroke="none" /><circle cx="172" cy="825" r="5" fill="green" stroke="none" /><circle cx="166" cy="925" r="5" fill="green" stroke="none" /><circle cx="137" cy="374" r="5" fill="green" stroke="none" /><circle cx="801" cy="67" r="5" fill="green" stroke="none" /><circle cx="639" cy="527" r="5" fill="green" stroke="none" /><circle cx="917" cy="380" r="5" fill="green" stroke="none" /><circle cx="823" cy="808" r="5" fill="green" stroke="none" /><circle cx="366" cy="366" r="5" fill="green" stroke="none" /><circle cx="662" cy="555" r="5" fill="green" stroke="none" /><circle cx="190" cy="914" r="5" fill="green" stroke="none" /><circle cx="813" cy="167" r="5" fill="green" stroke="none" /><circle cx="909" cy="467" r="5" fill="green" stroke="none" /><circle cx="988" cy="543" r="5" fill="green" stroke="none" /><circle cx="998" cy="180" r="5" fill="green" stroke="none" /><circle cx="847" cy="287" r="5" fill="green" stroke="none" /><circle cx="73" cy="333" r="5" fill="green" stroke="none" /><circle cx="729" cy="285" r="5" fill="green" stroke="none" /><circle cx="976" cy="378" r="5" fill="green" stroke="none" /><circle cx="739" cy="979" r="5" fill="green" stroke="none" /><circle cx="631" cy="637" r="5" fill="green" stroke="none" /><circle cx="592" cy="869" r="5" fill="green" stroke="none" /><circle cx="185" cy="291" r="5" fill="green" stroke="none" /><circle cx="996" cy="194" r="5" fill="green" stroke="none" /><circle cx="48" cy="90" r="5" fill="green" stroke="none" /><circle cx="66" cy="332" r="5" fill="green" stroke="none" /><circle cx="548" cy="560" r="5" fill="green" stroke="none" /><circle cx="652" cy="419" r="5" fill="green" stroke="none" /><circle cx="88" cy="850" r="5" fill="green" stroke="none" /><circle cx="793" cy="247" r="5" fill="green" stroke="none" /><circle cx="969" cy="458" r="5" fill="green" stroke="none" /><circle cx="476" cy="410" r="5" fill="green" stroke="none" /><circle cx="544" cy="825" r="5" fill="green" stroke="none" /><circle cx="521" cy="852" r="5" fill="green" stroke="none" /><circle cx="581" cy="506" r="5" fill="green" stroke="none" /><circle cx="568" cy="291" r="5" fill="green" stroke="none" /><circle cx="225" cy="963" r="5" fill="green" stroke="none" /><circle cx="784" cy="704" r="5" fill="green" stroke="none" /><circle cx="717" cy="955" r="5" fill="green" stroke="none" /><circle cx="882" cy="297" r="5" fill="green" stroke="none" /><circle cx="247" cy="275" r="5" fill="green" stroke="none" /><circle cx="404" cy="473" r="5" fill="green" stroke="none" /><circle cx="90" cy="1" r="5" fill="green" stroke="none" /><circle cx="833" cy="569" r="5" fill="green" stroke="none" /><circle cx="934" cy="926" r="5" fill="green" stroke="none" /><circle cx="567" cy="886" r="5" fill="green" stroke="none" /><circle cx="836" cy="911" r="5" fill="green" stroke="none" /><circle cx="276" cy="152" r="5" fill="green" stroke="none" /><circle cx="604" cy="217" r="5" fill="green" stroke="none" /><circle cx="142" cy="355" r="5" fill="green" stroke="none" /><circle cx="337" cy="46" r="5" fill="green" stroke="none" /><circle cx="650" cy="906" r="5" fill="green" stroke="none" /><circle cx="105" cy="135" r="5" fill="green" stroke="none" /><circle cx="292" cy="605" r="5" fill="green" stroke="none" /><circle cx="232" cy="829" r="5" fill="green" stroke="none" /><circle cx="864" cy="649" r="5" fill="green" stroke="none" /><circle cx="845" cy="464" r="5" fill="green" stroke="none" /><circle cx="406" cy="676" r="5" fill="green" stroke="none" /><circle cx="681" cy="826" r="5" fill="green" stroke="none" /><circle cx="188" cy="751" r="5" fill="green" stroke="none" /><circle cx="130" cy="580" r="5" fill="green" stroke="none" /><circle cx="509" cy="435" r="5" fill="green" stroke="none" /><circle cx="940" cy="821" r="5" fill="green" stroke="none" /><circle cx="695" cy="894" r="5" fill="green" stroke="none" /><circle cx="266" cy="878" r="5" fill="green" stroke="none" /><circle cx="384" cy="323" r="5" fill="green" stroke="none" /><circle cx="484" cy="179" r="5" fill="green" stroke="none" /><circle cx="965" cy="840" r="5" fill="green" stroke="none" /><circle cx="969" cy="359" r="5" fill="green" stroke="none" /><circle cx="790" cy="926" r="5" fill="green" stroke="none" /><circle cx="485" cy="164" r="5" fill="green" stroke="none" /><circle cx="49" cy="194" r="5" fill="green" stroke="none" /><circle cx="410" cy="952" r="5" fill="green" stroke="none" /><circle cx="525" cy="901" r="5" fill="green" stroke="none" /><circle cx="766" cy="428" r="5" fill="green" stroke="none" /><circle cx="631" cy="55" r="5" fill="green" stroke="none" /><circle cx="463" cy="833" r="5" fill="green" stroke="none" /><circle cx="429" cy="658" r="5" fill="green" stroke="none" /><circle cx="554" cy="900" r="5" fill="green" stroke="none" /><circle cx="480" cy="511" r="5" fill="green" stroke="none" /><circle cx="759" cy="409" r="5" fill="green" stroke="none" /><circle cx="907" cy="268" r="5" fill="green" stroke="none" /><circle cx="207" cy="168" r="5" fill="green" stroke="none" /><circle cx="374" cy="86" r="5" fill="green" stroke="none" /><circle cx="543" cy="568" r="5" fill="green" stroke="none" /><circle cx="414" cy="205" r="5" fill="green" stroke="none" /><circle cx="29" cy="564" r="5" fill="green" stroke="none" /><circle cx="997" cy="774" r="5" fill="green" stroke="none" /><circle cx="111" cy="760" r="5" fill="green" stroke="none" /><circle cx="936" cy="461" r="5" fill="green" stroke="none" /><circle cx="774" cy="642" r="5" fill="green" stroke="none" /><circle cx="245" cy="579" r="5" fill="green" stroke="none" /><circle cx="34" cy="837" r="5" fill="green" stroke="none" /><circle cx="30" cy="743" r="5" fill="green" stroke="none" /><circle cx="582" cy="442" r="5" fill="green" stroke="none" /><circle cx="123" cy="174" r="5" fill="green" stroke="none" /><circle cx="648" cy="286" r="5" fill="green" stroke="none" /><circle cx="15" cy="162" r="5" fill="green" stroke="none" /><circle cx="854" cy="570" r="5" fill="green" stroke="none" /><circle cx="140" cy="640" r="5" fill="green" stroke="none" /><circle cx="613" cy="469" r="5" fill="green" stroke="none" /><circle cx="733" cy="404" r="5" fill="green" stroke="none" /><circle cx="459" cy="3" r="5" fill="green" stroke="none" /><circle cx="265" cy="186" r="5" fill="green" stroke="none" /><circle cx="750" cy="759" r="5" fill="green" stroke="none" /><circle cx="807" cy="875" r="5" fill="green" stroke="none" /><circle cx="167" cy="837" r="5" fill="green" stroke="none" /><circle cx="627" cy="498" r="5" fill="green" stroke="none" /><circle cx="653" cy="542" r="5" fill="green" stroke="none" /><circle cx="950" cy="816" r="5" fill="green" stroke="none" /><circle cx="722" cy="580" r="5" fill="green" stroke="none" /><circle cx="160" cy="292" r="5" fill="green" stroke="none" /><circle cx="291" cy="859" r="5" fill="green" stroke="none" /><circle cx="522" cy="234" r="5" fill="green" stroke="none" /><circle cx="108" cy="684" r="5" fill="green" stroke="none" /><circle cx="836" cy="932" r="5" fill="green" stroke="none" /><circle cx="784" cy="414" r="5" fill="green" stroke="none" /><circle cx="97" cy="228" r="5" fill="green" stroke="none" /><circle cx="193" cy="189" r="5" fill="green" stroke="none" /><circle cx="893" cy="894" r="5" fill="green" stroke="none" /><circle cx="791" cy="949" r="5" fill="green" stroke="none" /><circle cx="738" cy="134" r="5" fill="green" stroke="none" /><circle cx="701" cy="790" r="5" fill="green" stroke="none" /><circle cx="62" cy="676" r="5" fill="green" stroke="none" /><circle cx="745" cy="728" r="5" fill="green" stroke="none" /><circle cx="848" cy="377" r="5" fill="green" stroke="none" /><circle cx="625" cy="563" r="5" fill="green" stroke="none" /><circle cx="782" cy="804" r="5" fill="green" stroke="none" /><circle cx="915" cy="86" r="5" fill="green" stroke="none" /><circle cx="468" cy="748" r="5" fill="green" stroke="none" /><circle cx="108" cy="917" r="5" fill="green" stroke="none" /><circle cx="99" cy="572" r="5" fill="green" stroke="none" /><circle cx="988" cy="195" r="5" fill="green" stroke="none" /><circle cx="435" cy="941" r="5" fill="green" stroke="none" /><circle cx="12" cy="298" r="5" fill="green" stroke="none" /><circle cx="114" cy="43" r="5" fill="green" stroke="none" /><circle cx="247" cy="422" r="5" fill="green" stroke="none" /><circle cx="288" cy="242" r="5" fill="green" stroke="none" /><circle cx="126" cy="884" r="5" fill="green" stroke="none" /><circle cx="131" cy="560" r="5" fill="green" stroke="none" /><circle cx="295" cy="383" r="5" fill="green" stroke="none" /><circle cx="742" cy="302" r="5" fill="green" stroke="none" /><circle cx="69" cy="840" r="5" fill="green" stroke="none" /><circle cx="680" cy="845" r="5" fill="green" stroke="none" /><circle cx="129" cy="935" r="5" fill="green" stroke="none" /><circle cx="162" cy="506" r="5" fill="green" stroke="none" /><circle cx="911" cy="524" r="5" fill="green" stroke="none" /><circle cx="126" cy="552" r="5" fill="green" stroke="none" /><circle cx="132" cy="531" r="5" fill="green" stroke="none" /><circle cx="781" cy="48" r="5" fill="green" stroke="none" /><circle cx="205" cy="601" r="5" fill="green" stroke="none" /><circle cx="727" cy="403" r="5" fill="green" stroke="none" /><circle cx="281" cy="560" r="5" fill="green" stroke="none" /><circle cx="31" cy="198" r="5" fill="green" stroke="none" /><circle cx="816" cy="49" r="5" fill="green" stroke="none" /><circle cx="431" cy="185" r="5" fill="green" stroke="none" /><circle cx="775" cy="593" r="5" fill="green" stroke="none" /><circle cx="900" cy="935" r="5" fill="green" stroke="none" /><circle cx="288" cy="429" r="5" fill="green" stroke="none" /><circle cx="641" cy="520" r="5" fill="green" stroke="none" /><circle cx="178" cy="151" r="5" fill="green" stroke="none" /><circle cx="472" cy="287" r="5" fill="green" stroke="none" /><circle cx="175" cy="663" r="5" fill="green" stroke="none" /><circle cx="749" cy="30" r="5" fill="green" stroke="none" /><circle cx="990" cy="136" r="5" fill="green" stroke="none" /><circle cx="106" cy="506" r="5" fill="green" stroke="none" /><circle cx="195" cy="581" r="5" fill="green" stroke="none" /><circle cx="834" cy="400" r="5" fill="green" stroke="none" /><circle cx="532" cy="729" r="5" fill="green" stroke="none" /><circle cx="633" cy="720" r="5" fill="green" stroke="none" /><circle cx="680" cy="495" r="5" fill="green" stroke="none" /><circle cx="992" cy="714" r="5" fill="green" stroke="none" /><circle cx="353" cy="229" r="5" fill="green" stroke="none" /><circle cx="948" cy="537" r="5" fill="green" stroke="none" /><circle cx="204" cy="442" r="5" fill="green" stroke="none" /><circle cx="952" cy="233" r="5" fill="green" stroke="none" /><circle cx="230" cy="633" r="5" fill="green" stroke="none" /><circle cx="932" cy="456" r="5" fill="green" stroke="none" /><circle cx="643" cy="752" r="5" fill="green" stroke="none" /><circle cx="520" cy="859" r="5" fill="green" stroke="none" /><circle cx="391" cy="365" r="5" fill="green" stroke="none" /><circle cx="631" cy="951" r="5" fill="green" stroke="none" /><circle cx="890" cy="159" r="5" fill="green" stroke="none" /><circle cx="568" cy="895" r="5" fill="green" stroke="none" /><circle cx="97" cy="927" r="5" fill="green" stroke="none" /><circle cx="309" cy="358" r="5" fill="green" stroke="none" /><circle cx="72" cy="80" r="5" fill="green" stroke="none" /><circle cx="179" cy="248" r="5" fill="green" stroke="none" /><circle cx="883" cy="672" r="5" fill="green" stroke="none" /><circle cx="840" cy="297" r="5" fill="green" stroke="none" /><circle cx="895" cy="257" r="5" fill="green" stroke="none" /><circle cx="261" cy="422" r="5" fill="green" stroke="none" /><circle cx="62" cy="735" r="5" fill="green" stroke="none" /><circle cx="599" cy="484" r="5" fill="green" stroke="none" /><circle cx="754" cy="682" r="5" fill="green" stroke="none" /><circle cx="466" cy="769" r="5" fill="green" stroke="none" /><circle cx="280" cy="288" r="5" fill="green" stroke="none" /><circle cx="9" cy="288" r="5" fill="green" stroke="none" /><circle cx="289" cy="564" r="5" fill="green" stroke="none" /><circle cx="296" cy="522" r="5" fill="green" stroke="none" /><circle cx="310" cy="48" r="5" fill="green" stroke="none" /><circle cx="660" cy="176" r="5" fill="green" stroke="none" /><circle cx="347" cy="841" r="5" fill="green" stroke="none" /><circle cx="951" cy="95" r="5" fill="green" stroke="none" /><circle cx="948" cy="166" r="5" fill="green" stroke="none" /><circle cx="233" cy="354" r="5" fill="green" stroke="none" /><circle cx="198" cy="671" r="5" fill="green" stroke="none" /><circle cx="272" cy="149" r="5" fill="green" stroke="none" /><circle cx="694" cy="634" r="5" fill="green" stroke="none" /><circle cx="662" cy="284" r="5" fill="green" stroke="none" /><circle cx="437" cy="431" r="5" fill="green" stroke="none" /><circle cx="127" cy="736" r="5" fill="green" stroke="none" /><circle cx="734" cy="704" r="5" fill="green" stroke="none" /><circle cx="932" cy="572" r="5" fill="green" stroke="none" /><circle cx="710" cy="568" r="5" fill="green" stroke="none" /><circle cx="573" cy="564" r="5" fill="green" stroke="none" /><circle cx="227" cy="327" r="5" fill="green" stroke="none" /><circle cx="178" cy="414" r="5" fill="green" stroke="none" /><circle cx="343" cy="825" r="5" fill="green" stroke="none" /><circle cx="939" cy="685" r="5" fill="green" stroke="none" /><circle cx="946" cy="206" r="5" fill="green" stroke="none" /><circle cx="555" cy="930" r="5" fill="green" stroke="none" /><circle cx="857" cy="315" r="5" fill="green" stroke="none" /><circle cx="879" cy="820" r="5" fill="green" stroke="none" /><circle cx="494" cy="82" r="5" fill="green" stroke="none" /><circle cx="929" cy="162" r="5" fill="green" stroke="none" /><circle cx="116" cy="900" r="5" fill="green" stroke="none" /><circle cx="136" cy="3" r="5" fill="green" stroke="none" /><circle cx="596" cy="39" r="5" fill="green" stroke="none" /><circle cx="535" cy="942" r="5" fill="green" stroke="none" /><circle cx="256" cy="326" r="5" fill="green" stroke="none" /><circle cx="557" cy="338" r="5" fill="green" stroke="none" /><circle cx="646" cy="433" r="5" fill="green" stroke="none" /><circle cx="27" cy="368" r="5" fill="green" stroke="none" /><circle cx="773" cy="278" r="5" fill="green" stroke="none" /><circle cx="752" cy="873" r="5" fill="green" stroke="none" /><circle cx="784" cy="395" r="5" fill="green" stroke="none" /><circle cx="353" cy="766" r="5" fill="green" stroke="none" /><circle cx="0" cy="299" r="5" fill="green" stroke="none" /><circle cx="652" cy="741" r="5" fill="green" stroke="none" /><circle cx="75" cy="699" r="5" fill="green" stroke="none" /><circle cx="587" cy="365" r="5" fill="green" stroke="none" /><circle cx="907" cy="867" r="5" fill="green" stroke="none" /><circle cx="86" cy="44" r="5" fill="green" stroke="none" /><circle cx="87" cy="931" r="5" fill="green" stroke="none" /><circle cx="629" cy="912" r="5" fill="green" stroke="none" /><circle cx="74" cy="421" r="5" fill="green" stroke="none" /><circle cx="27" cy="928" r="5" fill="green" stroke="none" /><circle cx="220" cy="581" r="5" fill="green" stroke="none" /><circle cx="201" cy="801" r="5" fill="green" stroke="none" /><circle cx="986" cy="100" r="5" fill="green" stroke="none" /><circle cx="640" cy="404" r="5" fill="green" stroke="none" /><circle cx="641" cy="134" r="5" fill="green" stroke="none" /><circle cx="384" cy="139" r="5" fill="green" stroke="none" /><circle cx="254" cy="977" r="5" fill="green" stroke="none" /><circle cx="272" cy="826" r="5" fill="green" stroke="none" /><circle cx="796" cy="719" r="5" fill="green" stroke="none" /><circle cx="671" cy="161" r="5" fill="green" stroke="none" /><circle cx="804" cy="556" r="5" fill="green" stroke="none" /><circle cx="90" cy="222" r="5" fill="green" stroke="none" /><circle cx="942" cy="946" r="5" fill="green" stroke="none" /><circle cx="867" cy="276" r="5" fill="green" stroke="none" /><circle cx="925" cy="83" r="5" fill="green" stroke="none" /><circle cx="36" cy="792" r="5" fill="green" stroke="none" /><circle cx="572" cy="482" r="5" fill="green" stroke="none" /><circle cx="442" cy="504" r="5" fill="green" stroke="none" /><circle cx="809" cy="835" r="5" fill="green" stroke="none" /><circle cx="45" cy="131" r="5" fill="green" stroke="none" /><circle cx="550" cy="46" r="5" fill="green" stroke="none" /><circle cx="920" cy="272" r="5" fill="green" stroke="none" /><circle cx="295" cy="229" r="5" fill="green" stroke="none" /><circle cx="207" cy="753" r="5" fill="green" stroke="none" /><circle cx="10" cy="834" r="5" fill="green" stroke="none" /><circle cx="810" cy="685" r="5" fill="green" stroke="none" /><circle cx="654" cy="633" r="5" fill="green" stroke="none" /><circle cx="243" cy="889" r="5" fill="green" stroke="none" /><circle cx="737" cy="204" r="5" fill="green" stroke="none" /><circle cx="793" cy="678" r="5" fill="green" stroke="none" /><circle cx="213" cy="345" r="5" fill="green" stroke="none" /><circle cx="716" cy="214" r="5" fill="green" stroke="none" /><circle cx="456" cy="786" r="5" fill="green" stroke="none" /><circle cx="22" cy="756" r="5" fill="green" stroke="none" /><circle cx="905" cy="420" r="5" fill="green" stroke="none" /><circle cx="871" cy="739" r="5" fill="green" stroke="none" /><circle cx="812" cy="347" r="5" fill="green" stroke="none" /><circle cx="711" cy="557" r="5" fill="green" stroke="none" /><circle cx="550" cy="713" r="5" fill="green" stroke="none" /><circle cx="113" cy="273" r="5" fill="green" stroke="none" /><circle cx="481" cy="336" r="5" fill="green" stroke="none" /><circle cx="123" cy="73" r="5" fill="green" stroke="none" /><circle cx="356" cy="515" r="5" fill="green" stroke="none" /><circle cx="551" cy="4" r="5" fill="green" stroke="none" /><circle cx="126" cy="305" r="5" fill="green" stroke="none" /><circle cx="376" cy="839" r="5" fill="green" stroke="none" /><circle cx="454" cy="699" r="5" fill="green" stroke="none" /><circle cx="769" cy="42" r="5" fill="green" stroke="none" /><circle cx="942" cy="59" r="5" fill="green" stroke="none" /><circle cx="673" cy="175" r="5" fill="green" stroke="none" /><circle cx="40" cy="494" r="5" fill="green" stroke="none" /><circle cx="337" cy="333" r="5" fill="green" stroke="none" /><circle cx="263" cy="600" r="5" fill="green" stroke="none" /><circle cx="260" cy="451" r="5" fill="green" stroke="none" /><circle cx="210" cy="328" r="5" fill="green" stroke="none" /><circle cx="555" cy="431" r="5" fill="green" stroke="none" /><circle cx="28" cy="638" r="5" fill="green" stroke="none" /><circle cx="392" cy="26" r="5" fill="green" stroke="none" /><circle cx="591" cy="424" r="5" fill="green" stroke="none" /><circle cx="944" cy="141" r="5" fill="green" stroke="none" /><circle cx="610" cy="389" r="5" fill="green" stroke="none" /><circle cx="313" cy="102" r="5" fill="green" stroke="none" /><circle cx="154" cy="447" r="5" fill="green" stroke="none" /><circle cx="981" cy="173" r="5" fill="green" stroke="none" /><circle cx="721" cy="175" r="5" fill="green" stroke="none" /><circle cx="259" cy="668" r="5" fill="green" stroke="none" /><circle cx="998" cy="877" r="5" fill="green" stroke="none" /><circle cx="592" cy="929" r="5" fill="green" stroke="none" /><circle cx="382" cy="365" r="5" fill="green" stroke="none" /><circle cx="373" cy="719" r="5" fill="green" stroke="none" /><circle cx="818" cy="932" r="5" fill="green" stroke="none" /><circle cx="383" cy="440" r="5" fill="green" stroke="none" /><circle cx="809" cy="449" r="5" fill="green" stroke="none" /><circle cx="853" cy="307" r="5" fill="green" stroke="none" /><circle cx="784" cy="68" r="5" fill="green" stroke="none" /><circle cx="718" cy="151" r="5" fill="green" stroke="none" /><circle cx="166" cy="428" r="5" fill="green" stroke="none" /><circle cx="383" cy="264" r="5" fill="green" stroke="none" /><circle cx="382" cy="836" r="5" fill="green" stroke="none" /><circle cx="792" cy="313" r="5" fill="green" stroke="none" /><circle cx="387" cy="845" r="5" fill="green" stroke="none" /><circle cx="457" cy="485" r="5" fill="green" stroke="none" /><circle cx="341" cy="466" r="5" fill="green" stroke="none" /><circle cx="547" cy="898" r="5" fill="green" stroke="none" /><circle cx="297" cy="217" r="5" fill="green" stroke="none" /><circle cx="486" cy="525" r="5" fill="green" stroke="none" /><circle cx="484" cy="290" r="5" fill="green" stroke="none" /><circle cx="124" cy="239" r="5" fill="green" stroke="none" /><circle cx="632" cy="775" r="5" fill="green" stroke="none" /><circle cx="771" cy="629" r="5" fill="green" stroke="none" /><circle cx="942" cy="627" r="5" fill="green" stroke="none" /><circle cx="19" cy="499" r="5" fill="green" stroke="none" /><circle cx="131" cy="713" r="5" fill="green" stroke="none" /><circle cx="740" cy="586" r="5" fill="green" stroke="none" /><circle cx="668" cy="388" r="5" fill="green" stroke="none" /><circle cx="101" cy="954" r="5" fill="green" stroke="none" /><circle cx="34" cy="138" r="5" fill="green" stroke="none" /><circle cx="821" cy="100" r="5" fill="green" stroke="none" /><circle cx="575" cy="812" r="5" fill="green" stroke="none" /><circle cx="48" cy="765" r="5" fill="green" stroke="none" /><circle cx="1" cy="559" r="5" fill="green" stroke="none" /><circle cx="217" cy="272" r="5" fill="green" stroke="none" /><circle cx="570" cy="398" r="5" fill="green" stroke="none" /><circle cx="696" cy="620" r="5" fill="green" stroke="none" /><circle cx="55" cy="846" r="5" fill="green" stroke="none" /><circle cx="922" cy="786" r="5" fill="green" stroke="none" /><circle cx="609" cy="180" r="5" fill="green" stroke="none" /><circle cx="305" cy="405" r="5" fill="green" stroke="none" /><circle cx="42" cy="317" r="5" fill="green" stroke="none" /><circle cx="285" cy="777" r="5" fill="green" stroke="none" /><circle cx="465" cy="666" r="5" fill="green" stroke="none" /><circle cx="364" cy="882" r="5" fill="green" stroke="none" /><circle cx="898" cy="745" r="5" fill="green" stroke="none" /><circle cx="771" cy="209" r="5" fill="green" stroke="none" /><circle cx="463" cy="706" r="5" fill="green" stroke="none" /><circle cx="563" cy="58" r="5" fill="green" stroke="none" /><circle cx="568" cy="665" r="5" fill="green" stroke="none" /><circle cx="817" cy="463" r="5" fill="green" stroke="none" /><circle cx="526" cy="794" r="5" fill="green" stroke="none" /><circle cx="647" cy="324" r="5" fill="green" stroke="none" /><circle cx="680" cy="968" r="5" fill="green" stroke="none" /><circle cx="975" cy="933" r="5" fill="green" stroke="none" /><circle cx="371" cy="897" r="5" fill="green" stroke="none" /><circle cx="71" cy="310" r="5" fill="green" stroke="none" /><circle cx="397" cy="921" r="5" fill="green" stroke="none" /><circle cx="443" cy="978" r="5" fill="green" stroke="none" /><circle cx="744" cy="234" r="5" fill="green" stroke="none" /><circle cx="926" cy="919" r="5" fill="green" stroke="none" /><circle cx="106" cy="3" r="5" fill="green" stroke="none" /><circle cx="853" cy="7" r="5" fill="green" stroke="none" /><circle cx="270" cy="417" r="5" fill="green" stroke="none" /><circle cx="693" cy="256" r="5" fill="green" stroke="none" /><circle cx="900" cy="174" r="5" fill="green" stroke="none" /><circle cx="813" cy="179" r="5" fill="green" stroke="none" /><circle cx="639" cy="868" r="5" fill="green" stroke="none" /><circle cx="715" cy="733" r="5" fill="green" stroke="none" /><circle cx="915" cy="566" r="5" fill="green" stroke="none" /><circle cx="148" cy="420" r="5" fill="green" stroke="none" /><circle cx="714" cy="228" r="5" fill="green" stroke="none" /><circle cx="814" cy="178" r="5" fill="green" stroke="none" /><circle cx="292" cy="172" r="5" fill="green" stroke="none" /><circle cx="246" cy="235" r="5" fill="green" stroke="none" /><circle cx="199" cy="515" r="5" fill="green" stroke="none" /><circle cx="848" cy="745" r="5" fill="green" stroke="none" /><circle cx="367" cy="426" r="5" fill="green" stroke="none" /><circle cx="429" cy="342" r="5" fill="green" stroke="none" /><circle cx="491" cy="970" r="5" fill="green" stroke="none" /><circle cx="868" cy="15" r="5" fill="green" stroke="none" /><circle cx="727" cy="870" r="5" fill="green" stroke="none" /><circle cx="627" cy="496" r="5" fill="green" stroke="none" /><circle cx="471" cy="649" r="5" fill="green" stroke="none" /><circle cx="258" cy="936" r="5" fill="green" stroke="none" /><circle cx="250" cy="162" r="5" fill="green" stroke="none" /><circle cx="495" cy="434" r="5" fill="green" stroke="none" /><circle cx="758" cy="538" r="5" fill="green" stroke="none" /><circle cx="214" cy="259" r="5" fill="green" stroke="none" /><circle cx="451" cy="624" r="5" fill="green" stroke="none" /><circle cx="791" cy="338" r="5" fill="green" stroke="none" /><circle cx="122" cy="977" r="5" fill="green" stroke="none" /><circle cx="409" cy="956" r="5" fill="green" stroke="none" /><circle cx="204" cy="150" r="5" fill="green" stroke="none" /><circle cx="951" cy="884" r="5" fill="green" stroke="none" /><circle cx="780" cy="236" r="5" fill="green" stroke="none" /><circle cx="659" cy="907" r="5" fill="green" stroke="none" /><circle cx="103.95217458999204" cy="990" r="5" fill="blue" stroke="none" /><circle cx="726.1997634943612" cy="990" r="5" fill="blue" stroke="none" /><circle cx="746.2005836476555" cy="990" r="5" fill="blue" stroke="none" /><circle cx="442.84594450737853" cy="990" r="5" fill="blue" stroke="none" /><circle cx="736.2003532084909" cy="990" r="5" fill="blue" stroke="none" /><circle cx="114.2760305951398" cy="990" r="5" fill="blue" stroke="none" /><circle cx="124.30389512932385" cy="990" r="5" fill="blue" stroke="none" /><circle cx="681.8198001636295" cy="990" r="5" fill="blue" stroke="none" /><circle cx="756.2009759749856" cy="990" r="5" fill="blue" stroke="none" /><circle cx="713.0070093320217" cy="990" r="5" fill="blue" stroke="none" /></svg>