<svg viewBox="0 0 2372 1101" xmlns="http://www.w3.org/2000/svg"><rect x="0" y="0" width="2372" height="1101" fill="lightyellow" stroke="none "/><rect x="1719" y="498" width="636" height="279" fill="white" stroke="black "/><circle cx="346" cy="454" r="5" fill="green" stroke="none" /><circle cx="1522" cy="440" r="5" fill="green" stroke="none" /><circle cx="2192" cy="869" r="5" fill="green" stroke="none" /><circle cx="669" cy="518" r="5" fill="green" stroke="none" /><circle cx="131" cy="119" r="5" fill="green" stroke="none" /><circle cx="1679" cy="668" r="5" fill="green" stroke="none" /><circle cx="88" cy="547" r="5" fill="green" stroke="none" /><circle cx="182" cy="1063" r="5" fill="green" stroke="none" /><circle cx="1183" cy="893" r="5" fill="green" stroke="none" /><circle cx="186" cy="250" r="5" fill="green" stroke="none" /><circle cx="485" cy="868" r="5" fill="green" stroke="none" /><circle cx="1705" cy="171" r="5" fill="green" stroke="none" /><circle cx="1755" cy="375" r="5" fill="green" stroke="none" /><circle cx="846" cy="833" r="5" fill="green" stroke="none" /><circle cx="2281" cy="169" r="5" fill="green" stroke="none" /><circle cx="1593" cy="208" r="5" fill="green" stroke="none" /><circle cx="92" cy="521" r="5" fill="green" stroke="none" /><circle cx="159" cy="158" r="5" fill="green" stroke="none" /><circle cx="110" cy="340" r="5" fill="green" stroke="none" /><circle cx="1665" cy="218" r="5" fill="green" stroke="none" /><circle cx="760" cy="574" r="5" fill="green" stroke="none" /><circle cx="1515" cy="838" r="5" fill="green" stroke="none" /><circle cx="837" cy="135" r="5" fill="green" stroke="none" /><circle cx="1208" cy="721" r="5" fill="green" stroke="none" /><circle cx="2220" cy="1019" r="5" fill="green" stroke="none" /><circle cx="948" cy="1025" r="5" fill="green" stroke="none" /><circle cx="697" cy="81" r="5" fill="green" stroke="none" /><circle cx="1002" cy="307" r="5" fill="green" stroke="none" /><circle cx="1451" cy="951" r="5" fill="green" stroke="none" /><circle cx="1675" cy="387" r="5" fill="green" stroke="none" /><circle cx="242" cy="76" r="5" fill="green" stroke="none" /><circle cx="2231" cy="930" r="5" fill="green" stroke="none" /><circle cx="1817" cy="821" r="5" fill="green" stroke="none" /><circle cx="1507" cy="450" r="5" fill="green" stroke="none" /><circle cx="834" cy="885" r="5" fill="green" stroke="none" /><circle cx="433" cy="114" r="5" fill="green" stroke="none" /><circle cx="75" cy="1011" r="5" fill="green" stroke="none" /><circle cx="44" cy="272" r="5" fill="green" stroke="none" /><circle cx="674" cy="334" r="5" fill="green" stroke="none" /><circle cx="927" cy="479" r="5" fill="green" stroke="none" /><circle cx="653" cy="772" r="5" fill="green" stroke="none" /><circle cx="1793" cy="396" r="5" fill="green" stroke="none" /><circle cx="1409" cy="198" r="5" fill="green" stroke="none" /><circle cx="561" cy="695" r="5" fill="green" stroke="none" /><circle cx="1024" cy="837" r="5" fill="green" stroke="none" /><circle cx="690" cy="526" r="5" fill="green" stroke="none" /><circle cx="415" cy="956" r="5" fill="green" stroke="none" /><circle cx="96" cy="519" r="5" fill="green" stroke="none" /><circle cx="2168" cy="325" r="5" fill="green" stroke="none" /><circle cx="1031" cy="75" r="5" fill="green" stroke="none" /><circle cx="1093" cy="192" r="5" fill="green" stroke="none" /><circle cx="391" cy="870" r="5" fill="green" stroke="none" /><circle cx="5" cy="355" r="5" fill="green" stroke="none" /><circle cx="59" cy="358" r="5" fill="green" stroke="none" /><circle cx="636" cy="143" r="5" fill="green" stroke="none" /><circle cx="778" cy="718" r="5" fill="green" stroke="none" /><circle cx="1628" cy="709" r="5" fill="green" stroke="none" /><circle cx="924" cy="1100" r="5" fill="green" stroke="none" /><circle cx="748" cy="492" r="5" fill="green" stroke="none" /><circle cx="2190" cy="904" r="5" fill="green" stroke="none" /><circle cx="750" cy="951" r="5" fill="green" stroke="none" /><circle cx="1433" cy="949" r="5" fill="green" stroke="none" /><circle cx="1497" cy="574" r="5" fill="green" stroke="none" /><circle cx="579" cy="592" r="5" fill="green" stroke="none" /><circle cx="229" cy="167" r="5" fill="green" stroke="none" /><circle cx="1559" cy="143" r="5" fill="green" stroke="none" /><circle cx="76" cy="1090" r="5" fill="green" stroke="none" /><circle cx="496" cy="796" r="5" fill="green" stroke="none" /><circle cx="1396" cy="959" r="5" fill="green" stroke="none" /><circle cx="909" cy="323" r="5" fill="green" stroke="none" /><circle cx="922" cy="980" r="5" fill="green" stroke="none" /><circle cx="477" cy="898" r="5" fill="green" stroke="none" /><circle cx="56" cy="708" r="5" fill="green" stroke="none" /><circle cx="1915" cy="1051" r="5" fill="green" stroke="none" /><circle cx="1031" cy="976" r="5" fill="green" stroke="none" /><circle cx="1110" cy="700" r="5" fill="green" stroke="none" /><circle cx="737" cy="214" r="5" fill="green" stroke="none" /><circle cx="596" cy="54" r="5" fill="green" stroke="none" /><circle cx="921" cy="1096" r="5" fill="green" stroke="none" /><circle cx="947" cy="907" r="5" fill="green" stroke="none" /><circle cx="1206" cy="566" r="5" fill="green" stroke="none" /><circle cx="1305" cy="535" r="5" fill="green" stroke="none" /><circle cx="632" cy="163" r="5" fill="green" stroke="none" /><circle cx="941" cy="917" r="5" fill="green" stroke="none" /><circle cx="1587" cy="262" r="5" fill="green" stroke="none" /><circle cx="619" cy="630" r="5" fill="green" stroke="none" /><circle cx="1666" cy="668" r="5" fill="green" stroke="none" /><circle cx="1698" cy="115" r="5" fill="green" stroke="none" /><circle cx="1866" cy="111" r="5" fill="green" stroke="none" /><circle cx="1566" cy="1026" r="5" fill="green" stroke="none" /><circle cx="83" cy="464" r="5" fill="green" stroke="none" /><circle cx="2130" cy="323" r="5" fill="green" stroke="none" /><circle cx="1183" cy="493" r="5" fill="green" stroke="none" /><circle cx="1043" cy="529" r="5" fill="green" stroke="none" /><circle cx="2370" cy="33" r="5" fill="green" stroke="none" /><circle cx="1216" cy="220" r="5" fill="green" stroke="none" /><circle cx="2127" cy="215" r="5" fill="green" stroke="none" /><circle cx="2165" cy="55" r="5" fill="green" stroke="none" /><circle cx="1879" cy="442" r="5" fill="green" stroke="none" /><circle cx="1906" cy="1016" r="5" fill="green" stroke="none" /><circle cx="1014" cy="782" r="5" fill="green" stroke="none" /><circle cx="53" cy="818" r="5" fill="green" stroke="none" /><circle cx="1024" cy="814" r="5" fill="green" stroke="none" /><circle cx="444" cy="327" r="5" fill="green" stroke="none" /><circle cx="1016" cy="595" r="5" fill="green" stroke="none" /><circle cx="2369" cy="800" r="5" fill="green" stroke="none" /><circle cx="994" cy="542" r="5" fill="green" stroke="none" /><circle cx="1531" cy="414" r="5" fill="green" stroke="none" /><circle cx="1997" cy="416" r="5" fill="green" stroke="none" /><circle cx="1372" cy="571" r="5" fill="green" stroke="none" /><circle cx="1196" cy="126" r="5" fill="green" stroke="none" /><circle cx="2190" cy="396" r="5" fill="green" stroke="none" /><circle cx="2086" cy="403" r="5" fill="green" stroke="none" /><circle cx="1296" cy="611" r="5" fill="green" stroke="none" /><circle cx="1171" cy="450" r="5" fill="green" stroke="none" /><circle cx="1453" cy="202" r="5" fill="green" stroke="none" /><circle cx="2291" cy="398" r="5" fill="green" stroke="none" /><circle cx="1630" cy="1052" r="5" fill="green" stroke="none" /><circle cx="2306" cy="205" r="5" fill="green" stroke="none" /><circle cx="599" cy="199" r="5" fill="green" stroke="none" /><circle cx="1468" cy="931" r="5" fill="green" stroke="none" /><circle cx="1324" cy="699" r="5" fill="green" stroke="none" /><circle cx="328" cy="392" r="5" fill="green" stroke="none" /><circle cx="229" cy="657" r="5" fill="green" stroke="none" /><circle cx="884" cy="594" r="5" fill="green" stroke="none" /><circle cx="1988" cy="420" r="5" fill="green" stroke="none" /><circle cx="1172" cy="78" r="5" fill="green" stroke="none" /><circle cx="223" cy="904" r="5" fill="green" stroke="none" /><circle cx="698" cy="703" r="5" fill="green" stroke="none" /><circle cx="245" cy="728" r="5" fill="green" stroke="none" /><circle cx="1267" cy="371" r="5" fill="green" stroke="none" /><circle cx="1559" cy="911" r="5" fill="green" stroke="none" /><circle cx="723" cy="106" r="5" fill="green" stroke="none" /><circle cx="1406" cy="731" r="5" fill="green" stroke="none" /><circle cx="482" cy="632" r="5" fill="green" stroke="none" /><circle cx="222" cy="964" r="5" fill="green" stroke="none" /><circle cx="1059" cy="791" r="5" fill="green" stroke="none" /><circle cx="854" cy="1053" r="5" fill="green" stroke="none" /><circle cx="1947" cy="429" r="5" fill="green" stroke="none" /><circle cx="815" cy="125" r="5" fill="green" stroke="none" /><circle cx="2313" cy="102" r="5" fill="green" stroke="none" /><circle cx="1845" cy="820" r="5" fill="green" stroke="none" /><circle cx="1620" cy="669" r="5" fill="green" stroke="none" /><circle cx="1070" cy="937" r="5" fill="green" stroke="none" /><circle cx="1015" cy="112" r="5" fill="green" stroke="none" /><circle cx="2073" cy="214" r="5" fill="green" stroke="none" /><circle cx="132" cy="533" r="5" fill="green" stroke="none" /><circle cx="648" cy="263" r="5" fill="green" stroke="none" /><circle cx="395" cy="331" r="5" fill="green" stroke="none" /><circle cx="996" cy="627" r="5" fill="green" stroke="none" /><circle cx="1124" cy="1035" r="5" fill="green" stroke="none" /><circle cx="93" cy="962" r="5" fill="green" stroke="none" /><circle cx="643" cy="113" r="5" fill="green" stroke="none" /><circle cx="2354" cy="794" r="5" fill="green" stroke="none" /><circle cx="75" cy="449" r="5" fill="green" stroke="none" /><circle cx="298" cy="128" r="5" fill="green" stroke="none" /><circle cx="2076" cy="1004" r="5" fill="green" stroke="none" /><circle cx="420" cy="172" r="5" fill="green" stroke="none" /><circle cx="257" cy="160" r="5" fill="green" stroke="none" /><circle cx="178" cy="147" r="5" fill="green" stroke="none" /><circle cx="1245" cy="394" r="5" fill="green" stroke="none" /><circle cx="146" cy="470" r="5" fill="green" stroke="none" /><circle cx="375" cy="756" r="5" fill="green" stroke="none" /><circle cx="1402" cy="955" r="5" fill="green" stroke="none" /><circle cx="428" cy="887" r="5" fill="green" stroke="none" /><circle cx="1878" cy="35" r="5" fill="green" stroke="none" /><circle cx="798" cy="107" r="5" fill="green" stroke="none" /><circle cx="269" cy="712" r="5" fill="green" stroke="none" /><circle cx="1919" cy="96" r="5" fill="green" stroke="none" /><circle cx="534" cy="239" r="5" fill="green" stroke="none" /><circle cx="956" cy="1064" r="5" fill="green" stroke="none" /><circle cx="1228" cy="280" r="5" fill="green" stroke="none" /><circle cx="1121" cy="113" r="5" fill="green" stroke="none" /><circle cx="309" cy="309" r="5" fill="green" stroke="none" /><circle cx="546" cy="944" r="5" fill="green" stroke="none" /><circle cx="293" cy="869" r="5" fill="green" stroke="none" /><circle cx="1175" cy="725" r="5" fill="green" stroke="none" /><circle cx="1511" cy="314" r="5" fill="green" stroke="none" /><circle cx="1575" cy="894" r="5" fill="green" stroke="none" /><circle cx="1758" cy="961" r="5" fill="green" stroke="none" /><circle cx="818" cy="686" r="5" fill="green" stroke="none" /><circle cx="118" cy="997" r="5" fill="green" stroke="none" /><circle cx="1381" cy="109" r="5" fill="green" stroke="none" /><circle cx="992" cy="433" r="5" fill="green" stroke="none" /><circle cx="647" cy="511" r="5" fill="green" stroke="none" /><circle cx="2028" cy="329" r="5" fill="green" stroke="none" /><circle cx="1759" cy="162" r="5" fill="green" stroke="none" /><circle cx="279" cy="257" r="5" fill="green" stroke="none" /><circle cx="209" cy="554" r="5" fill="green" stroke="none" /><circle cx="877" cy="766" r="5" fill="green" stroke="none" /><circle cx="2162" cy="856" r="5" fill="green" stroke="none" /><circle cx="1610" cy="147" r="5" fill="green" stroke="none" /><circle cx="1482" cy="484" r="5" fill="green" stroke="none" /><circle cx="2272" cy="395" r="5" fill="green" stroke="none" /><circle cx="849" cy="77" r="5" fill="green" stroke="none" /><circle cx="423" cy="999" r="5" fill="green" stroke="none" /><circle cx="873" cy="432" r="5" fill="green" stroke="none" /><circle cx="271" cy="105" r="5" fill="green" stroke="none" /><circle cx="2173" cy="109" r="5" fill="green" stroke="none" /><circle cx="116" cy="75" r="5" fill="green" stroke="none" /><circle cx="1921" cy="361" r="5" fill="green" stroke="none" /><circle cx="731" cy="904" r="5" fill="green" stroke="none" /><circle cx="1149" cy="615" r="5" fill="green" stroke="none" /><circle cx="587" cy="373" r="5" fill="green" stroke="none" /><circle cx="858" cy="667" r="5" fill="green" stroke="none" /><circle cx="1880" cy="268" r="5" fill="green" stroke="none" /><circle cx="1110" cy="290" r="5" fill="green" stroke="none" /><circle cx="1774" cy="96" r="5" fill="green" stroke="none" /><circle cx="943" cy="466" r="5" fill="green" stroke="none" /><circle cx="1281" cy="945" r="5" fill="green" stroke="none" /><circle cx="602" cy="654" r="5" fill="green" stroke="none" /><circle cx="887" cy="842" r="5" fill="green" stroke="none" /><circle cx="1640" cy="372" r="5" fill="green" stroke="none" /><circle cx="1403" cy="595" r="5" fill="green" stroke="none" /><circle cx="1031" cy="673" r="5" fill="green" stroke="none" /><circle cx="699" cy="220" r="5" fill="green" stroke="none" /><circle cx="97" cy="123" r="5" fill="green" stroke="none" /><circle cx="1391" cy="115" r="5" fill="green" stroke="none" /><circle cx="1357" cy="1017" r="5" fill="green" stroke="none" /><circle cx="1760" cy="833" r="5" fill="green" stroke="none" /><circle cx="958" cy="723" r="5" fill="green" stroke="none" /><circle cx="40" cy="1049" r="5" fill="green" stroke="none" /><circle cx="95" cy="858" r="5" fill="green" stroke="none" /><circle cx="2206" cy="804" r="5" fill="green" stroke="none" /><circle cx="355" cy="73" r="5" fill="green" stroke="none" /><circle cx="1225" cy="1074" r="5" fill="green" stroke="none" /><circle cx="453" cy="34" r="5" fill="green" stroke="none" /><circle cx="2249" cy="353" r="5" fill="green" stroke="none" /><circle cx="2207" cy="297" r="5" fill="green" stroke="none" /><circle cx="2188" cy="909" r="5" fill="green" stroke="none" /><circle cx="2229" cy="216" r="5" fill="green" stroke="none" /><circle cx="1097" cy="354" r="5" fill="green" stroke="none" /><circle cx="1160" cy="686" r="5" fill="green" stroke="none" /><circle cx="880" cy="1070" r="5" fill="green" stroke="none" /><circle cx="2239" cy="296" r="5" fill="green" stroke="none" /><circle cx="880" cy="113" r="5" fill="green" stroke="none" /><circle cx="416" cy="842" r="5" fill="green" stroke="none" /><circle cx="1805" cy="58" r="5" fill="green" stroke="none" /><circle cx="754" cy="1063" r="5" fill="green" stroke="none" /><circle cx="405" cy="971" r="5" fill="green" stroke="none" /><circle cx="1126" cy="94" r="5" fill="green" stroke="none" /><circle cx="678" cy="279" r="5" fill="green" stroke="none" /><circle cx="1016" cy="1098" r="5" fill="green" stroke="none" /><circle cx="34" cy="726" r="5" fill="green" stroke="none" /><circle cx="1397" cy="793" r="5" fill="green" stroke="none" /><circle cx="1093" cy="1083" r="5" fill="green" stroke="none" /><circle cx="2174" cy="934" r="5" fill="green" stroke="none" /><circle cx="1200" cy="449" r="5" fill="green" stroke="none" /><circle cx="1682" cy="547" r="5" fill="green" stroke="none" /><circle cx="1569" cy="468" r="5" fill="green" stroke="none" /><circle cx="1655" cy="743" r="5" fill="green" stroke="none" /><circle cx="1002" cy="689" r="5" fill="green" stroke="none" /><circle cx="1562" cy="871" r="5" fill="green" stroke="none" /><circle cx="842" cy="439" r="5" fill="green" stroke="none" /><circle cx="1954" cy="222" r="5" fill="green" stroke="none" /><circle cx="1927" cy="325" r="5" fill="green" stroke="none" /><circle cx="1933" cy="8" r="5" fill="green" stroke="none" /><circle cx="1642" cy="1009" r="5" fill="green" stroke="none" /><circle cx="1348" cy="90" r="5" fill="green" stroke="none" /><circle cx="988" cy="805" r="5" fill="green" stroke="none" /><circle cx="621" cy="735" r="5" fill="green" stroke="none" /><circle cx="648" cy="835" r="5" fill="green" stroke="none" /><circle cx="1522" cy="324" r="5" fill="green" stroke="none" /><circle cx="1000" cy="586" r="5" fill="green" stroke="none" /><circle cx="1331" cy="492" r="5" fill="green" stroke="none" /><circle cx="130" cy="441" r="5" fill="green" stroke="none" /><circle cx="2283" cy="169" r="5" fill="green" stroke="none" /><circle cx="1380" cy="312" r="5" fill="green" stroke="none" /><circle cx="1501" cy="924" r="5" fill="green" stroke="none" /><circle cx="1485" cy="91" r="5" fill="green" stroke="none" /><circle cx="1687" cy="1020" r="5" fill="green" stroke="none" /><circle cx="1746" cy="456" r="5" fill="green" stroke="none" /><circle cx="2239" cy="408" r="5" fill="green" stroke="none" /><circle cx="2039" cy="1080" r="5" fill="green" stroke="none" /><circle cx="783" cy="830" r="5" fill="green" stroke="none" /><circle cx="145" cy="367" r="5" fill="green" stroke="none" /><circle cx="1242" cy="1094" r="5" fill="green" stroke="none" /><circle cx="2361" cy="397" r="5" fill="green" stroke="none" /><circle cx="1428" cy="228" r="5" fill="green" stroke="none" /><circle cx="1047" cy="678" r="5" fill="green" stroke="none" /><circle cx="2284" cy="482" r="5" fill="green" stroke="none" /><circle cx="584" cy="993" r="5" fill="green" stroke="none" /><circle cx="2330" cy="241" r="5" fill="green" stroke="none" /><circle cx="1778" cy="476" r="5" fill="green" stroke="none" /><circle cx="1946" cy="13" r="5" fill="green" stroke="none" /><circle cx="1981" cy="471" r="5" fill="green" stroke="none" /><circle cx="1721" cy="157" r="5" fill="green" stroke="none" /><circle cx="1579" cy="290" r="5" fill="green" stroke="none" /><circle cx="159" cy="413" r="5" fill="green" stroke="none" /><circle cx="38" cy="1034" r="5" fill="green" stroke="none" /><circle cx="727" cy="1006" r="5" fill="green" stroke="none" /><circle cx="1679" cy="351" r="5" fill="green" stroke="none" /><circle cx="392" cy="138" r="5" fill="green" stroke="none" /><circle cx="586" cy="555" r="5" fill="green" stroke="none" /><circle cx="397" cy="355" r="5" fill="green" stroke="none" /><circle cx="0" cy="429" r="5" fill="green" stroke="none" /><circle cx="893" cy="1045" r="5" fill="green" stroke="none" /><circle cx="1336" cy="644" r="5" fill="green" stroke="none" /><circle cx="1508" cy="798" r="5" fill="green" stroke="none" /><circle cx="1276" cy="878" r="5" fill="green" stroke="none" /><circle cx="1494" cy="272" r="5" fill="green" stroke="none" /><circle cx="1272" cy="371" r="5" fill="green" stroke="none" /><circle cx="1435" cy="224" r="5" fill="green" stroke="none" /><circle cx="1043" cy="115" r="5" fill="green" stroke="none" /><circle cx="1288" cy="226" r="5" fill="green" stroke="none" /><circle cx="435" cy="991" r="5" fill="green" stroke="none" /><circle cx="1290" cy="92" r="5" fill="green" stroke="none" /><circle cx="894" cy="516" r="5" fill="green" stroke="none" /><circle cx="96" cy="893" r="5" fill="green" stroke="none" /><circle cx="1364" cy="164" r="5" fill="green" stroke="none" /><circle cx="1127" cy="585" r="5" fill="green" stroke="none" /><circle cx="2020" cy="311" r="5" fill="green" stroke="none" /><circle cx="1259" cy="290" r="5" fill="green" stroke="none" /><circle cx="1771" cy="778" r="5" fill="green" stroke="none" /><circle cx="2084" cy="890" r="5" fill="green" stroke="none" /><circle cx="74" cy="995" r="5" fill="green" stroke="none" /><circle cx="572" cy="335" r="5" fill="green" stroke="none" /><circle cx="710" cy="66" r="5" fill="green" stroke="none" /><circle cx="1973" cy="129" r="5" fill="green" stroke="none" /><circle cx="466" cy="65" r="5" fill="green" stroke="none" /><circle cx="1348" cy="439" r="5" fill="green" stroke="none" /><circle cx="1899" cy="945" r="5" fill="green" stroke="none" /><circle cx="2052" cy="297" r="5" fill="green" stroke="none" /><circle cx="1256" cy="7" r="5" fill="green" stroke="none" /><circle cx="443" cy="777" r="5" fill="green" stroke="none" /><circle cx="79" cy="495" r="5" fill="green" stroke="none" /><circle cx="215" cy="612" r="5" fill="green" stroke="none" /><circle cx="837" cy="181" r="5" fill="green" stroke="none" /><circle cx="495" cy="546" r="5" fill="green" stroke="none" /><circle cx="668" cy="561" r="5" fill="green" stroke="none" /><circle cx="851" cy="134" r="5" fill="green" stroke="none" /><circle cx="311" cy="436" r="5" fill="green" stroke="none" /><circle cx="1355" cy="305" r="5" fill="green" stroke="none" /><circle cx="1519" cy="179" r="5" fill="green" stroke="none" /><circle cx="1746" cy="126" r="5" fill="green" stroke="none" /><circle cx="1647" cy="615" r="5" fill="green" stroke="none" /><circle cx="937" cy="483" r="5" fill="green" stroke="none" /><circle cx="734" cy="174" r="5" fill="green" stroke="none" /><circle cx="1630" cy="865" r="5" fill="green" stroke="none" /><circle cx="484" cy="637" r="5" fill="green" stroke="none" /><circle cx="561" cy="415" r="5" fill="green" stroke="none" /><circle cx="998" cy="1075" r="5" fill="green" stroke="none" /><circle cx="804" cy="370" r="5" fill="green" stroke="none" /><circle cx="1178" cy="440" r="5" fill="green" stroke="none" /><circle cx="833" cy="878" r="5" fill="green" stroke="none" /><circle cx="1189" cy="74" r="5" fill="green" stroke="none" /><circle cx="375" cy="766" r="5" fill="green" stroke="none" /><circle cx="2138" cy="9" r="5" fill="green" stroke="none" /><circle cx="1968" cy="314" r="5" fill="green" stroke="none" /><circle cx="1000" cy="647" r="5" fill="green" stroke="none" /><circle cx="436" cy="245" r="5" fill="green" stroke="none" /><circle cx="1819" cy="799" r="5" fill="green" stroke="none" /><circle cx="2112" cy="194" r="5" fill="green" stroke="none" /><circle cx="2290" cy="354" r="5" fill="green" stroke="none" /><circle cx="734" cy="674" r="5" fill="green" stroke="none" /><circle cx="1329" cy="35" r="5" fill="green" stroke="none" /><circle cx="810" cy="333" r="5" fill="green" stroke="none" /><circle cx="2244" cy="472" r="5" fill="green" stroke="none" /><circle cx="1483" cy="1012" r="5" fill="green" stroke="none" /><circle cx="2009" cy="377" r="5" fill="green" stroke="none" /><circle cx="431" cy="10" r="5" fill="green" stroke="none" /><circle cx="1356" cy="251" r="5" fill="green" stroke="none" /><circle cx="1219" cy="547" r="5" fill="green" stroke="none" /><circle cx="863" cy="647" r="5" fill="green" stroke="none" /><circle cx="783" cy="682" r="5" fill="green" stroke="none" /><circle cx="2166" cy="83" r="5" fill="green" stroke="none" /><circle cx="1704" cy="409" r="5" fill="green" stroke="none" /><circle cx="1002" cy="851" r="5" fill="green" stroke="none" /><circle cx="635" cy="944" r="5" fill="green" stroke="none" /><circle cx="2347" cy="993" r="5" fill="green" stroke="none" /><circle cx="1799" cy="1068" r="5" fill="green" stroke="none" /><circle cx="701" cy="458" r="5" fill="green" stroke="none" /><circle cx="1760" cy="40" r="5" fill="green" stroke="none" /><circle cx="1485" cy="976" r="5" fill="green" stroke="none" /><circle cx="774" cy="994" r="5" fill="green" stroke="none" /><circle cx="302" cy="930" r="5" fill="green" stroke="none" /><circle cx="16" cy="1062" r="5" fill="green" stroke="none" /><circle cx="384" cy="117" r="5" fill="green" stroke="none" /><circle cx="87" cy="13" r="5" fill="green" stroke="none" /><circle cx="1673" cy="1050" r="5" fill="green" stroke="none" /><circle cx="4" cy="669" r="5" fill="green" stroke="none" /><circle cx="139" cy="570" r="5" fill="green" stroke="none" /><circle cx="2368" cy="768" r="5" fill="green" stroke="none" /><circle cx="178" cy="1022" r="5" fill="green" stroke="none" /><circle cx="739" cy="885" r="5" fill="green" stroke="none" /><circle cx="1534" cy="339" r="5" fill="green" stroke="none" /><circle cx="1678" cy="697" r="5" fill="green" stroke="none" /><circle cx="256" cy="713" r="5" fill="green" stroke="none" /><circle cx="1046" cy="862" r="5" fill="green" stroke="none" /><circle cx="835" cy="765" r="5" fill="green" stroke="none" /><circle cx="2181" cy="99" r="5" fill="green" stroke="none" /><circle cx="1238" cy="977" r="5" fill="green" stroke="none" /><circle cx="311" cy="659" r="5" fill="green" stroke="none" /><circle cx="876" cy="879" r="5" fill="green" stroke="none" /><circle cx="244" cy="874" r="5" fill="green" stroke="none" /><circle cx="123" cy="166" r="5" fill="green" stroke="none" /><circle cx="1469" cy="1015" r="5" fill="green" stroke="none" /><circle cx="261" cy="153" r="5" fill="green" stroke="none" /><circle cx="1801" cy="250" r="5" fill="green" stroke="none" /><circle cx="953" cy="552" r="5" fill="green" stroke="none" /><circle cx="1706" cy="544" r="5" fill="green" stroke="none" /><circle cx="2223" cy="948" r="5" fill="green" stroke="none" /><circle cx="1153" cy="197" r="5" fill="green" stroke="none" /><circle cx="2068" cy="1048" r="5" fill="green" stroke="none" /><circle cx="1813" cy="362" r="5" fill="green" stroke="none" /><circle cx="1470" cy="94" r="5" fill="green" stroke="none" /><circle cx="1858" cy="452" r="5" fill="green" stroke="none" /><circle cx="845" cy="273" r="5" fill="green" stroke="none" /><circle cx="28" cy="594" r="5" fill="green" stroke="none" /><circle cx="1842" cy="931" r="5" fill="green" stroke="none" /><circle cx="1138" cy="135" r="5" fill="green" stroke="none" /><circle cx="2044" cy="376" r="5" fill="green" stroke="none" /><circle cx="583" cy="1091" r="5" fill="green" stroke="none" /><circle cx="265" cy="802" r="5" fill="green" stroke="none" /><circle cx="924" cy="664" r="5" fill="green" stroke="none" /><circle cx="1282" cy="661" r="5" fill="green" stroke="none" /><circle cx="29" cy="302" r="5" fill="green" stroke="none" /><circle cx="1965" cy="828" r="5" fill="green" stroke="none" /><circle cx="1059" cy="240" r="5" fill="green" stroke="none" /><circle cx="1672" cy="1064" r="5" fill="green" stroke="none" /><circle cx="315" cy="1051" r="5" fill="green" stroke="none" /><circle cx="756" cy="716" r="5" fill="green" stroke="none" /><circle cx="467" cy="156" r="5" fill="green" stroke="none" /><circle cx="821" cy="739" r="5" fill="green" stroke="none" /><circle cx="592" cy="507" r="5" fill="green" stroke="none" /><circle cx="2005" cy="45" r="5" fill="green" stroke="none" /><circle cx="332" cy="784" r="5" fill="green" stroke="none" /><circle cx="535" cy="491" r="5" fill="green" stroke="none" /><circle cx="573" cy="350" r="5" fill="green" stroke="none" /><circle cx="122" cy="436" r="5" fill="green" stroke="none" /><circle cx="1187" cy="807" r="5" fill="green" stroke="none" /><circle cx="1259" cy="442" r="5" fill="green" stroke="none" /><circle cx="1813" cy="900" r="5" fill="green" stroke="none" /><circle cx="1118" cy="442" r="5" fill="green" stroke="none" /><circle cx="1892" cy="255" r="5" fill="green" stroke="none" /><circle cx="1390" cy="593" r="5" fill="green" stroke="none" /><circle cx="1355" cy="240" r="5" fill="green" stroke="none" /><circle cx="1780" cy="939" r="5" fill="green" stroke="none" /><circle cx="268" cy="402" r="5" fill="green" stroke="none" /><circle cx="939" cy="220" r="5" fill="green" stroke="none" /><circle cx="1704" cy="355" r="5" fill="green" stroke="none" /><circle cx="402" cy="764" r="5" fill="green" stroke="none" /><circle cx="411" cy="251" r="5" fill="green" stroke="none" /><circle cx="1038" cy="670" r="5" fill="green" stroke="none" /><circle cx="538" cy="81" r="5" fill="green" stroke="none" /><circle cx="1313" cy="407" r="5" fill="green" stroke="none" /><circle cx="759" cy="609" r="5" fill="green" stroke="none" /><circle cx="1900" cy="200" r="5" fill="green" stroke="none" /><circle cx="1647" cy="1002" r="5" fill="green" stroke="none" /><circle cx="226" cy="837" r="5" fill="green" stroke="none" /><circle cx="2246" cy="1078" r="5" fill="green" stroke="none" /><circle cx="1066" cy="67" r="5" fill="green" stroke="none" /><circle cx="651" cy="343" r="5" fill="green" stroke="none" /><circle cx="983" cy="701" r="5" fill="green" stroke="none" /><circle cx="1663" cy="802" r="5" fill="green" stroke="none" /><circle cx="2149" cy="971" r="5" fill="green" stroke="none" /><circle cx="186" cy="1082" r="5" fill="green" stroke="none" /><circle cx="1569" cy="559" r="5" fill="green" stroke="none" /><circle cx="1832" cy="956" r="5" fill="green" stroke="none" /><circle cx="260" cy="1066" r="5" fill="green" stroke="none" /><circle cx="2212" cy="377" r="5" fill="green" stroke="none" /><circle cx="575" cy="180" r="5" fill="green" stroke="none" /><circle cx="2172" cy="1053" r="5" fill="green" stroke="none" /><circle cx="1463" cy="599" r="5" fill="green" stroke="none" /><circle cx="1739" cy="373" r="5" fill="green" stroke="none" /><circle cx="147" cy="207" r="5" fill="green" stroke="none" /><circle cx="1509" cy="1024" r="5" fill="green" stroke="none" /><circle cx="466" cy="216" r="5" fill="green" stroke="none" /><circle cx="1378" cy="303" r="5" fill="green" stroke="none" /><circle cx="1297" cy="499" r="5" fill="green" stroke="none" /><circle cx="313" cy="310" r="5" fill="green" stroke="none" /><circle cx="2334" cy="871" r="5" fill="green" stroke="none" /><circle cx="499" cy="539" r="5" fill="green" stroke="none" /><circle cx="1055" cy="28" r="5" fill="green" stroke="none" /><circle cx="110" cy="196" r="5" fill="green" stroke="none" /><circle cx="446" cy="924" r="5" fill="green" stroke="none" /><circle cx="998" cy="162" r="5" fill="green" stroke="none" /><circle cx="956" cy="1075" r="5" fill="green" stroke="none" /><circle cx="2315" cy="1056" r="5" fill="green" stroke="none" /><circle cx="1450" cy="172" r="5" fill="green" stroke="none" /><circle cx="1065" cy="1094" r="5" fill="green" stroke="none" /><circle cx="934" cy="518" r="5" fill="green" stroke="none" /><circle cx="217" cy="118" r="5" fill="green" stroke="none" /><circle cx="1810" cy="66" r="5" fill="green" stroke="none" /><circle cx="594" cy="872" r="5" fill="green" stroke="none" /><circle cx="787" cy="64" r="5" fill="green" stroke="none" /><circle cx="1922" cy="231" r="5" fill="green" stroke="none" /><circle cx="1321" cy="983" r="5" fill="green" stroke="none" /><circle cx="1169" cy="54" r="5" fill="green" stroke="none" /><circle cx="336" cy="860" r="5" fill="green" stroke="none" /><circle cx="1431" cy="632" r="5" fill="green" stroke="none" /><circle cx="1547" cy="758" r="5" fill="green" stroke="none" /><circle cx="303" cy="853" r="5" fill="green" stroke="none" /><circle cx="871" cy="425" r="5" fill="green" stroke="none" /><circle cx="1692" cy="714" r="5" fill="green" stroke="none" /><circle cx="2081" cy="78" r="5" fill="green" stroke="none" /><circle cx="1533" cy="976" r="5" fill="green" stroke="none" /><circle cx="819" cy="871" r="5" fill="green" stroke="none" /><circle cx="1470" cy="849" r="5" fill="green" stroke="none" /><circle cx="1416" cy="393" r="5" fill="green" stroke="none" /><circle cx="1729" cy="731.1799357002424" r="5" fill="blue" stroke="none" /><circle cx="1987.557630503208" cy="508" r="5" fill="blue" stroke="none" /><circle cx="1828.734719855674" cy="767" r="5" fill="blue" stroke="none" /><circle cx="1803.8904606060298" cy="767" r="5" fill="blue" stroke="none" /><circle cx="2330.4493287874575" cy="767" r="5" fill="blue" stroke="none" /><circle cx="2185.6838752180256" cy="540.2309836161799" r="5" fill="blue" stroke="none" /><circle cx="1798.2881983452453" cy="518.1006953628034" r="5" fill="blue" stroke="none" /><circle cx="2135.276804459155" cy="519.1824584083935" r="5" fill="blue" stroke="none" /><circle cx="1732.544976110414" cy="523.0873692138633" r="5" fill="blue" stroke="none" /><circle cx="1905.8573420399296" cy="517.4616575559315" r="5" fill="blue" stroke="none" /><circle cx="2313.349757661445" cy="518.0490274090668" r="5" fill="blue" stroke="none" /><circle cx="2333.214049507854" cy="508.91399125784164" r="5" fill="blue" stroke="none" /><circle cx="2293.6320246267014" cy="508" r="5" fill="blue" stroke="none" /><circle cx="1810.231670483363" cy="758.8933265605376" r="5" fill="blue" stroke="none" /><circle cx="1744.3371178470939" cy="668.5325085779417" r="5" fill="blue" stroke="none" /><circle cx="2251.3704706847457" cy="508" r="5" fill="blue" stroke="none" /><circle cx="1729.070234347634" cy="554.655149356924" r="5" fill="blue" stroke="none" /><circle cx="2260.3350077749283" cy="517.6728265822568" r="5" fill="blue" stroke="none" /><circle cx="1729" cy="642.6194547878424" r="5" fill="blue" stroke="none" /><circle cx="1938.4770062562932" cy="525.8191878905177" r="5" fill="blue" stroke="none" /><circle cx="1817.1396095209063" cy="766.9941493150075" r="5" fill="blue" stroke="none" /><circle cx="2012.0827004151654" cy="514.1818963505202" r="5" fill="blue" stroke="none" /><circle cx="1868.5460701384493" cy="515.7645467773586" r="5" fill="blue" stroke="none" /><circle cx="1885.321715205169" cy="517.9612165878181" r="5" fill="blue" stroke="none" /><circle cx="1738.501233821817" cy="535.7212047736854" r="5" fill="blue" stroke="none" /><circle cx="2140.5044906319945" cy="767" r="5" fill="blue" stroke="none" /><circle cx="2198.3865690614257" cy="767" r="5" fill="blue" stroke="none" /><circle cx="1996.6637619610185" cy="762.3168193921952" r="5" fill="blue" stroke="none" /><circle cx="2275.8599914708107" cy="756.08307388452" r="5" fill="blue" stroke="none" /><circle cx="2256.040414057413" cy="764.4848547475902" r="5" fill="blue" stroke="none" /><circle cx="2116.806278287671" cy="763.0350033510866" r="5" fill="blue" stroke="none" /><circle cx="1980.85399372197" cy="518.7901252469153" r="5" fill="blue" stroke="none" /><circle cx="1786.368534566272" cy="767" r="5" fill="blue" stroke="none" /><circle cx="2096.291981263784" cy="508" r="5" fill="blue" stroke="none" /><circle cx="2322.5350633463036" cy="509.8697357139522" r="5" fill="blue" stroke="none" /><circle cx="1734.375119909816" cy="621.9350640710038" r="5" fill="blue" stroke="none" /><circle cx="1891.5998253218252" cy="760.2528902682604" r="5" fill="blue" stroke="none" /><circle cx="2077.7418884514886" cy="510.14632648865995" r="5" fill="blue" stroke="none" /><circle cx="2345" cy="719.1754555385536" r="5" fill="blue" stroke="none" /><circle cx="2345" cy="740.6237654276086" r="5" fill="blue" stroke="none" /><circle cx="2283.4520290121595" cy="508.14584942578585" r="5" fill="blue" stroke="none" /><circle cx="1729.1046088842547" cy="543.2896648831744" r="5" fill="blue" stroke="none" /><circle cx="2178.6799008934217" cy="758.8932892172204" r="5" fill="blue" stroke="none" /><circle cx="2065.199389320858" cy="531.3991863507952" r="5" fill="blue" stroke="none" /><circle cx="2126.3746745621975" cy="760.078663077081" r="5" fill="blue" stroke="none" /><circle cx="1972.6537391507413" cy="767" r="5" fill="blue" stroke="none" /><circle cx="1753.7048639395152" cy="508" r="5" fill="blue" stroke="none" /><circle cx="1729" cy="701.8576018099009" r="5" fill="blue" stroke="none" /><circle cx="1738.1893096137535" cy="676.7646283187639" r="5" fill="blue" stroke="none" /><circle cx="2244.2564358902546" cy="767" r="5" fill="blue" stroke="none" /><circle cx="1948.5829739908256" cy="523.3681642499455" r="5" fill="blue" stroke="none" /><circle cx="2160.7938158942443" cy="537.5515812073393" r="5" fill="blue" stroke="none" /><circle cx="2146.0822044541396" cy="531.6737032695283" r="5" fill="blue" stroke="none" /><circle cx="1740.3896288760534" cy="597.5066070389173" r="5" fill="blue" stroke="none" /><circle cx="1736.1315822138913" cy="573.6408690530715" r="5" fill="blue" stroke="none" /><circle cx="2217.3500581777307" cy="756.184222185019" r="5" fill="blue" stroke="none" /><circle cx="1888.6376142371635" cy="508" r="5" fill="blue" stroke="none" /><circle cx="1848.4771654150895" cy="755.970331586383" r="5" fill="blue" stroke="none" /><circle cx="1962.135379348952" cy="767" r="5" fill="blue" stroke="none" /><circle cx="1766.249344838229" cy="760.012269308791" r="5" fill="blue" stroke="none" /><circle cx="2151.696238390878" cy="756.0475072743934" r="5" fill="blue" stroke="none" /><circle cx="2337.407767652206" cy="747.2858736827416" r="5" fill="blue" stroke="none" /><circle cx="2061.1649231207175" cy="763.5138403514604" r="5" fill="blue" stroke="none" /><circle cx="2232.7612430656513" cy="764.4036245109392" r="5" fill="blue" stroke="none" /><circle cx="2236.4674944541084" cy="521.4314887877183" r="5" fill="blue" stroke="none" /><circle cx="1877.8831100878251" cy="762.9024910937926" r="5" fill="blue" stroke="none" /><circle cx="2184.497170313528" cy="529.4711458253985" r="5" fill="blue" stroke="none" /><circle cx="1975.3411934098135" cy="508" r="5" fill="blue" stroke="none" /><circle cx="1858.5596123029911" cy="752.898037344248" r="5" fill="blue" stroke="none" /><circle cx="1923.859304503804" cy="515.2514256682241" r="5" fill="blue" stroke="none" /><circle cx="2263.105096937471" cy="508" r="5" fill="blue" stroke="none" /><circle cx="1738.27518650687" cy="706.0892719004073" r="5" fill="blue" stroke="none" /><circle cx="1959.8891016318064" cy="511.3622423037042" r="5" fill="blue" stroke="none" /><circle cx="2219.9402952107" cy="767" r="5" fill="blue" stroke="none" /><circle cx="1798.802092417666" cy="755.1941467122713" r="5" fill="blue" stroke="none" /><circle cx="1895.844972043232" cy="515.4578410696324" r="5" fill="blue" stroke="none" /><circle cx="1821.6383348902334" cy="508" r="5" fill="blue" stroke="none" /><circle cx="1971.2867032305635" cy="532.6867140659299" r="5" fill="blue" stroke="none" /><circle cx="2203.228664188842" cy="758.2115857821946" r="5" fill="blue" stroke="none" /><circle cx="1855.897663765465" cy="767" r="5" fill="blue" stroke="none" /><circle cx="1859.6295309078234" cy="508" r="5" fill="blue" stroke="none" /><circle cx="1867.8823685607654" cy="767" r="5" fill="blue" stroke="none" /><circle cx="2266.1098370462073" cy="767" r="5" fill="blue" stroke="none" /><circle cx="1867.8183050378193" cy="748.8917749727757" r="5" fill="blue" stroke="none" /><circle cx="1920.4899187753608" cy="767" r="5" fill="blue" stroke="none" /><circle cx="1734.3271158739587" cy="654.7509448331132" r="5" fill="blue" stroke="none" /><circle cx="1787.9714873191422" cy="757.0506461612247" r="5" fill="blue" stroke="none" /><circle cx="2280.780337053758" cy="766.0718783182931" r="5" fill="blue" stroke="none" /><circle cx="1840.0921266558748" cy="766.7073259467123" r="5" fill="blue" stroke="none" /><circle cx="1763.8473169952122" cy="508" r="5" fill="blue" stroke="none" /><circle cx="1766.2206588647468" cy="518.3644829125709" r="5" fill="blue" stroke="none" /><circle cx="2343.9484512652616" cy="508" r="5" fill="blue" stroke="none" /><circle cx="2025.1341110121932" cy="520.517534633556" r="5" fill="blue" stroke="none" /><circle cx="2042.616980456905" cy="762.8740018377401" r="5" fill="blue" stroke="none" /><circle cx="1745.8608599265417" cy="515.3922484467193" r="5" fill="blue" stroke="none" /><circle cx="2325.049317434811" cy="757.9122855988628" r="5" fill="blue" stroke="none" /><circle cx="1729" cy="715.6854642072021" r="5" fill="blue" stroke="none" /><circle cx="1750.0231012273466" cy="736.6228891483233" r="5" fill="blue" stroke="none" /><circle cx="1737.9641474368098" cy="764.845398600067" r="5" fill="blue" stroke="none" /><circle cx="1731.8958883571493" cy="564.5147187284867" r="5" fill="blue" stroke="none" /><circle cx="2273.1313704026293" cy="508.04911082386036" r="5" fill="blue" stroke="none" /><circle cx="2066.650780554214" cy="749.6866915723585" r="5" fill="blue" stroke="none" /><circle cx="1739.7778367321669" cy="586.5205248977835" r="5" fill="blue" stroke="none" /><circle cx="2276.273123430144" cy="517.573947705269" r="5" fill="blue" stroke="none" /><circle cx="2099.019135533488" cy="522.9891889814913" r="5" fill="blue" stroke="none" /><circle cx="2021.4157546603146" cy="756.3744753316781" r="5" fill="blue" stroke="none" /><circle cx="2340.4720544182014" cy="766.9435301237738" r="5" fill="blue" stroke="none" /><circle cx="1950.394746900539" cy="766.8419903743411" r="5" fill="blue" stroke="none" /><circle cx="1751.2699184209391" cy="726.2271024535622" r="5" fill="blue" stroke="none" /><circle cx="1875.000002765904" cy="508" r="5" fill="blue" stroke="none" /><circle cx="2121.899143153307" cy="510.0304064837693" r="5" fill="blue" stroke="none" /><circle cx="2060.590168816644" cy="508" r="5" fill="blue" stroke="none" /><circle cx="1748.218119135828" cy="684.4414653690046" r="5" fill="blue" stroke="none" /><circle cx="2242.8106850791946" cy="513.2236448629471" r="5" fill="blue" stroke="none" /><circle cx="1729" cy="691.0971047459464" r="5" fill="blue" stroke="none" /><circle cx="1732.2633147771749" cy="632.9838303834323" r="5" fill="blue" stroke="none" /><circle cx="2298.422898981157" cy="767" r="5" fill="blue" stroke="none" /><circle cx="2047.9461463919647" cy="509.6032467966652" r="5" fill="blue" stroke="none" /><circle cx="2184.9466864879746" cy="767" r="5" fill="blue" stroke="none" /><circle cx="1838.8721555078162" cy="516.6431401362239" r="5" fill="blue" stroke="none" /><circle cx="1729" cy="592.827850616221" r="5" fill="blue" stroke="none" /><circle cx="1918.6718555434545" cy="753.1192726546819" r="5" fill="blue" stroke="none" /><circle cx="1787.7918732682947" cy="508" r="5" fill="blue" stroke="none" /><circle cx="1748.6986962202348" cy="659.1434160701046" r="5" fill="blue" stroke="none" /><circle cx="1799.7150621935702" cy="508" r="5" fill="blue" stroke="none" /><circle cx="2035.0206399370525" cy="730.1829432381927" r="5" fill="blue" stroke="none" /><circle cx="2302.5622936404143" cy="512.7621090949059" r="5" fill="blue" stroke="none" /><circle cx="2086.1414686453613" cy="766.3580049006592" r="5" fill="blue" stroke="none" /><circle cx="2344.8365092342997" cy="730.570969570904" r="5" fill="blue" stroke="none" /><circle cx="2156.479598502959" cy="767" r="5" fill="blue" stroke="none" /><circle cx="2153.775382150253" cy="746.213228661549" r="5" fill="blue" stroke="none" /><circle cx="2311.617320355383" cy="508" r="5" fill="blue" stroke="none" /><circle cx="2087.0428323905167" cy="524.1514529467152" r="5" fill="blue" stroke="none" /><circle cx="1981.3733439227258" cy="756.079929558244" r="5" fill="blue" stroke="none" /><circle cx="1911.6151773188649" cy="508" r="5" fill="blue" stroke="none" /><circle cx="1758.387515924931" cy="766.4108541481635" r="5" fill="blue" stroke="none" /><circle cx="1741.4590205073307" cy="729.5468650860221" r="5" fill="blue" stroke="none" /><circle cx="1745.631765749737" cy="714.3120529334767" r="5" fill="blue" stroke="none" /><circle cx="1985.4152055599332" cy="765.645577076685" r="5" fill="blue" stroke="none" /><circle cx="1739.1761166463923" cy="645.7417591169957" r="5" fill="blue" stroke="none" /><circle cx="1955.3365714819813" cy="531.13834038193" r="5" fill="blue" stroke="none" /><circle cx="2205.138104611326" cy="526.5409331239044" r="5" fill="blue" stroke="none" /><circle cx="2046.3143296661765" cy="537.5521128067619" r="5" fill="blue" stroke="none" /><circle cx="1962.5789516418797" cy="521.082255453248" r="5" fill="blue" stroke="none" /><circle cx="1939.5774909876588" cy="752.0110331001516" r="5" fill="blue" stroke="none" /><circle cx="1967.9437346363381" cy="757.9316005467153" r="5" fill="blue" stroke="none" /><circle cx="2215.738668800466" cy="518.0404119017951" r="5" fill="blue" stroke="none" /><circle cx="2167.340705526068" cy="750.8940602285941" r="5" fill="blue" stroke="none" /><circle cx="1928.5041551281483" cy="755.5385489170501" r="5" fill="blue" stroke="none" /><circle cx="1823.105105592724" cy="758.1491775224557" r="5" fill="blue" stroke="none" /><circle cx="2342.651256621059" cy="756.9031025299416" r="5" fill="blue" stroke="none" /><circle cx="2018.0880819381814" cy="767" r="5" fill="blue" stroke="none" /><circle cx="1781.0922737694202" cy="515.561790096936" r="5" fill="blue" stroke="none" /><circle cx="2173.6905129332476" cy="534.1077162396837" r="5" fill="blue" stroke="none" /><circle cx="2209.3276385076488" cy="767" r="5" fill="blue" stroke="none" /><circle cx="1729" cy="532.528633166962" r="5" fill="blue" stroke="none" /><circle cx="1774.4138223234615" cy="508" r="5" fill="blue" stroke="none" /><circle cx="2345" cy="680.9083240768232" r="5" fill="blue" stroke="none" /><circle cx="2310.283887825838" cy="767" r="5" fill="blue" stroke="none" /><circle cx="1748.0426303385877" cy="767" r="5" fill="blue" stroke="none" /><circle cx="2320.316723705068" cy="766.8082909457752" r="5" fill="blue" stroke="none" /><circle cx="1827.4015660661928" cy="517.5609654069702" r="5" fill="blue" stroke="none" /><circle cx="1945.7986494424601" cy="508" r="5" fill="blue" stroke="none" /><circle cx="2189.425283451279" cy="757.9615592261374" r="5" fill="blue" stroke="none" /><circle cx="2097.4705418209064" cy="751.2719530818616" r="5" fill="blue" stroke="none" /><circle cx="1955.720673031116" cy="758.2276674763066" r="5" fill="blue" stroke="none" /><circle cx="1738.344906591361" cy="609.371381874401" r="5" fill="blue" stroke="none" /><circle cx="2096.1990094156085" cy="767" r="5" fill="blue" stroke="none" /><circle cx="2021.259583196549" cy="508" r="5" fill="blue" stroke="none" /><circle cx="1995.423297922524" cy="514.5622440097645" r="5" fill="blue" stroke="none" /><circle cx="2224.899221959363" cy="513.8088704383373" r="5" fill="blue" stroke="none" /><circle cx="1738.0631215946871" cy="550.1500796557335" r="5" fill="blue" stroke="none" /><circle cx="1787.5256764569513" cy="741.0859104582817" r="5" fill="blue" stroke="none" /><circle cx="1861.2267416784214" cy="524.3624873936367" r="5" fill="blue" stroke="none" /><circle cx="2233.4032600726905" cy="508" r="5" fill="blue" stroke="none" /><circle cx="1931.346412087497" cy="540.3016091785349" r="5" fill="blue" stroke="none" /><circle cx="1901.5469122998536" cy="761.7644725030052" r="5" fill="blue" stroke="none" /><circle cx="2134.2577382888" cy="508" r="5" fill="blue" stroke="none" /><circle cx="1850.5343120691637" cy="517.4846190305632" r="5" fill="blue" stroke="none" /><circle cx="1833.3950822019724" cy="758.1486521415313" r="5" fill="blue" stroke="none" /><circle cx="2177.4932739871706" cy="510.30136227079197" r="5" fill="blue" stroke="none" /><circle cx="2246.2906135278913" cy="756.7388980634005" r="5" fill="blue" stroke="none" /><circle cx="1847.0181964165467" cy="508" r="5" fill="blue" stroke="none" /><circle cx="2003.0150788301044" cy="508" r="5" fill="blue" stroke="none" /><circle cx="2344.119560178466" cy="701.8848768051155" r="5" fill="blue" stroke="none" /><circle cx="2333.4327250081665" cy="737.0057580920002" r="5" fill="blue" stroke="none" /><circle cx="1730.3129424842514" cy="666.6644105385673" r="5" fill="blue" stroke="none" /><circle cx="2151.0735147158475" cy="509.61902481265065" r="5" fill="blue" stroke="none" /><circle cx="1738.5499101859511" cy="687.5153355513287" r="5" fill="blue" stroke="none" /><circle cx="1729" cy="581.0735464040831" r="5" fill="blue" stroke="none" /><circle cx="1757.3754424520223" cy="754.7884961223958" r="5" fill="blue" stroke="none" /><circle cx="1729" cy="747.9094617956538" r="5" fill="blue" stroke="none" /><circle cx="2141.696258268477" cy="750.8318146097537" r="5" fill="blue" stroke="none" /><circle cx="2232.646698648332" cy="753.8603297825592" r="5" fill="blue" stroke="none" /><circle cx="2109.328922532875" cy="522.3212490341435" r="5" fill="blue" stroke="none" /><circle cx="1729.4679108554776" cy="509.3548155562544" r="5" fill="blue" stroke="none" /><circle cx="1773.4072383863886" cy="767" r="5" fill="blue" stroke="none" /><circle cx="2060.501812639657" cy="518.9953399390268" r="5" fill="blue" stroke="none" /><circle cx="2215.963765221841" cy="508" r="5" fill="blue" stroke="none" /><circle cx="1810.3701863567633" cy="508.3909460137187" r="5" fill="blue" stroke="none" /><circle cx="2290.1712986629027" cy="517.4459863211241" r="5" fill="blue" stroke="none" /></svg>