<svg viewBox="0 0 1000 1000" xmlns="http://www.w3.org/2000/svg"><rect x="0" y="0" width="1000" height="1000" fill="lightyellow" stroke="none "/><rect x="379" y="372" width="159" height="248" fill="white" stroke="black "/><circle cx="975" cy="613" r="5" fill="green" stroke="none" /><circle cx="377" cy="207" r="5" fill="green" stroke="none" /><circle cx="152" cy="638" r="5" fill="green" stroke="none" /><circle cx="303" cy="829" r="5" fill="green" stroke="none" /><circle cx="468" cy="249" r="5" fill="green" stroke="none" /><circle cx="683" cy="73" r="5" fill="green" stroke="none" /><circle cx="191" cy="93" r="5" fill="green" stroke="none" /><circle cx="765" cy="119" r="5" fill="green" stroke="none" /><circle cx="104" cy="929" r="5" fill="green" stroke="none" /><circle cx="342" cy="16" r="5" fill="green" stroke="none" /><circle cx="870" cy="264" r="5" fill="green" stroke="none" /><circle cx="384" cy="906" r="5" fill="green" stroke="none" /><circle cx="821" cy="847" r="5" fill="green" stroke="none" /><circle cx="679" cy="298" r="5" fill="green" stroke="none" /><circle cx="981" cy="766" r="5" fill="green" stroke="none" /><circle cx="552" cy="556" r="5" fill="green" stroke="none" /><circle cx="773" cy="460" r="5" fill="green" stroke="none" /><circle cx="420" cy="708" r="5" fill="green" stroke="none" /><circle cx="167" cy="899" r="5" fill="green" stroke="none" /><circle cx="259" cy="603" r="5" fill="green" stroke="none" /><circle cx="323" cy="752" r="5" fill="green" stroke="none" /><circle cx="499" cy="832" r="5" fill="green" stroke="none" /><circle cx="215" cy="899" r="5" fill="green" stroke="none" /><circle cx="982" cy="749" r="5" fill="green" stroke="none" /><circle cx="500" cy="623" r="5" fill="green" stroke="none" /><circle cx="660" cy="208" r="5" fill="green" stroke="none" /><circle cx="170" cy="242" r="5" fill="green" stroke="none" /><circle cx="481" cy="111" r="5" fill="green" stroke="none" /><circle cx="952" cy="91" r="5" fill="green" stroke="none" /><circle cx="267" cy="236" r="5" fill="green" stroke="none" /><circle cx="120" cy="520" r="5" fill="green" stroke="none" /><circle cx="927" cy="41" r="5" fill="green" stroke="none" /><circle cx="648" cy="180" r="5" fill="green" stroke="none" /><circle cx="445" cy="235" r="5" fill="green" stroke="none" /><circle cx="569" cy="275" r="5" fill="green" stroke="none" /><circle cx="879" cy="186" r="5" fill="green" stroke="none" /><circle cx="629" cy="176" r="5" fill="green" stroke="none" /><circle cx="668" cy="887" r="5" fill="green" stroke="none" /><circle cx="757" cy="87" r="5" fill="green" stroke="none" /><circle cx="339" cy="11" r="5" fill="green" stroke="none" /><circle cx="924" cy="262" r="5" fill="green" stroke="none" /><circle cx="546" cy="318" r="5" fill="green" stroke="none" /><circle cx="206" cy="606" r="5" fill="green" stroke="none" /><circle cx="214" cy="274" r="5" fill="green" stroke="none" /><circle cx="137" cy="51" r="5" fill="green" stroke="none" /><circle cx="377" cy="133" r="5" fill="green" stroke="none" /><circle cx="553" cy="537" r="5" fill="green" stroke="none" /><circle cx="0" cy="468" r="5" fill="green" stroke="none" /><circle cx="586" cy="561" r="5" fill="green" stroke="none" /><circle cx="979" cy="103" r="5" fill="green" stroke="none" /><circle cx="850" cy="846" r="5" fill="green" stroke="none" /><circle cx="263" cy="828" r="5" fill="green" stroke="none" /><circle cx="581" cy="730" r="5" fill="green" stroke="none" /><circle cx="468" cy="184" r="5" fill="green" stroke="none" /><circle cx="726" cy="897" r="5" fill="green" stroke="none" /><circle cx="204" cy="271" r="5" fill="green" stroke="none" /><circle cx="103" cy="543" r="5" fill="green" stroke="none" /><circle cx="888" cy="872" r="5" fill="green" stroke="none" /><circle cx="842" cy="709" r="5" fill="green" stroke="none" /><circle cx="6" cy="925" r="5" fill="green" stroke="none" /><circle cx="986" cy="919" r="5" fill="green" stroke="none" /><circle cx="981" cy="104" r="5" fill="green" stroke="none" /><circle cx="979" cy="489" r="5" fill="green" stroke="none" /><circle cx="200" cy="959" r="5" fill="green" stroke="none" /><circle cx="676" cy="71" r="5" fill="green" stroke="none" /><circle cx="668" cy="990" r="5" fill="green" stroke="none" /><circle cx="499" cy="679" r="5" fill="green" stroke="none" /><circle cx="260" cy="541" r="5" fill="green" stroke="none" /><circle cx="729" cy="283" r="5" fill="green" stroke="none" /><circle cx="476" cy="865" r="5" fill="green" stroke="none" /><circle cx="817" cy="899" r="5" fill="green" stroke="none" /><circle cx="437" cy="42" r="5" fill="green" stroke="none" /><circle cx="889" cy="51" r="5" fill="green" stroke="none" /><circle cx="54" cy="5" r="5" fill="green" stroke="none" /><circle cx="544" cy="427" r="5" fill="green" stroke="none" /><circle cx="25" cy="292" r="5" fill="green" stroke="none" /><circle cx="518" cy="323" r="5" fill="green" stroke="none" /><circle cx="483" cy="956" r="5" fill="green" stroke="none" /><circle cx="71" cy="851" r="5" fill="green" stroke="none" /><circle cx="977" cy="302" r="5" fill="green" stroke="none" /><circle cx="954" cy="897" r="5" fill="green" stroke="none" /><circle cx="516" cy="121" r="5" fill="green" stroke="none" /><circle cx="414" cy="714" r="5" fill="green" stroke="none" /><circle cx="210" cy="437" r="5" fill="green" stroke="none" /><circle cx="841" cy="39" r="5" fill="green" stroke="none" /><circle cx="512" cy="639" r="5" fill="green" stroke="none" /><circle cx="197" cy="159" r="5" fill="green" stroke="none" /><circle cx="969" cy="29" r="5" fill="green" stroke="none" /><circle cx="451" cy="111" r="5" fill="green" stroke="none" /><circle cx="67" cy="629" r="5" fill="green" stroke="none" /><circle cx="307" cy="186" r="5" fill="green" stroke="none" /><circle cx="325" cy="445" r="5" fill="green" stroke="none" /><circle cx="412" cy="805" r="5" fill="green" stroke="none" /><circle cx="798" cy="419" r="5" fill="green" stroke="none" /><circle cx="619" cy="204" r="5" fill="green" stroke="none" /><circle cx="658" cy="231" r="5" fill="green" stroke="none" /><circle cx="907" cy="168" r="5" fill="green" stroke="none" /><circle cx="623" cy="247" r="5" fill="green" stroke="none" /><circle cx="441" cy="798" r="5" fill="green" stroke="none" /><circle cx="814" cy="932" r="5" fill="green" stroke="none" /><circle cx="434" cy="994" r="5" fill="green" stroke="none" /><circle cx="838" cy="683" r="5" fill="green" stroke="none" /><circle cx="475" cy="980" r="5" fill="green" stroke="none" /><circle cx="359" cy="905" r="5" fill="green" stroke="none" /><circle cx="4" cy="740" r="5" fill="green" stroke="none" /><circle cx="583" cy="834" r="5" fill="green" stroke="none" /><circle cx="721" cy="338" r="5" fill="green" stroke="none" /><circle cx="200" cy="973" r="5" fill="green" stroke="none" /><circle cx="702" cy="10" r="5" fill="green" stroke="none" /><circle cx="430" cy="873" r="5" fill="green" stroke="none" /><circle cx="505" cy="135" r="5" fill="green" stroke="none" /><circle cx="5" cy="203" r="5" fill="green" stroke="none" /><circle cx="269" cy="838" r="5" fill="green" stroke="none" /><circle cx="524" cy="252" r="5" fill="green" stroke="none" /><circle cx="27" cy="116" r="5" fill="green" stroke="none" /><circle cx="901" cy="978" r="5" fill="green" stroke="none" /><circle cx="481" cy="123" r="5" fill="green" stroke="none" /><circle cx="328" cy="77" r="5" fill="green" stroke="none" /><circle cx="961" cy="416" r="5" fill="green" stroke="none" /><circle cx="957" cy="639" r="5" fill="green" stroke="none" /><circle cx="406" cy="23" r="5" fill="green" stroke="none" /><circle cx="560" cy="960" r="5" fill="green" stroke="none" /><circle cx="140" cy="259" r="5" fill="green" stroke="none" /><circle cx="404" cy="134" r="5" fill="green" stroke="none" /><circle cx="529" cy="252" r="5" fill="green" stroke="none" /><circle cx="573" cy="435" r="5" fill="green" stroke="none" /><circle cx="821" cy="366" r="5" fill="green" stroke="none" /><circle cx="471" cy="260" r="5" fill="green" stroke="none" /><circle cx="742" cy="412" r="5" fill="green" stroke="none" /><circle cx="274" cy="815" r="5" fill="green" stroke="none" /><circle cx="432" cy="944" r="5" fill="green" stroke="none" /><circle cx="141" cy="432" r="5" fill="green" stroke="none" /><circle cx="632" cy="899" r="5" fill="green" stroke="none" /><circle cx="9" cy="970" r="5" fill="green" stroke="none" /><circle cx="142" cy="709" r="5" fill="green" stroke="none" /><circle cx="359" cy="847" r="5" fill="green" stroke="none" /><circle cx="245" cy="331" r="5" fill="green" stroke="none" /><circle cx="499" cy="10" r="5" fill="green" stroke="none" /><circle cx="603" cy="296" r="5" fill="green" stroke="none" /><circle cx="933" cy="281" r="5" fill="green" stroke="none" /><circle cx="683" cy="25" r="5" fill="green" stroke="none" /><circle cx="880" cy="530" r="5" fill="green" stroke="none" /><circle cx="821" cy="805" r="5" fill="green" stroke="none" /><circle cx="583" cy="390" r="5" fill="green" stroke="none" /><circle cx="280" cy="800" r="5" fill="green" stroke="none" /><circle cx="900" cy="415" r="5" fill="green" stroke="none" /><circle cx="392" cy="922" r="5" fill="green" stroke="none" /><circle cx="967" cy="974" r="5" fill="green" stroke="none" /><circle cx="994" cy="413" r="5" fill="green" stroke="none" /><circle cx="87" cy="88" r="5" fill="green" stroke="none" /><circle cx="661" cy="954" r="5" fill="green" stroke="none" /><circle cx="315" cy="715" r="5" fill="green" stroke="none" /><circle cx="59" cy="239" r="5" fill="green" stroke="none" /><circle cx="357" cy="785" r="5" fill="green" stroke="none" /><circle cx="29" cy="487" r="5" fill="green" stroke="none" /><circle cx="659" cy="932" r="5" fill="green" stroke="none" /><circle cx="111" cy="346" r="5" fill="green" stroke="none" /><circle cx="735" cy="830" r="5" fill="green" stroke="none" /><circle cx="579" cy="810" r="5" fill="green" stroke="none" /><circle cx="126" cy="997" r="5" fill="green" stroke="none" /><circle cx="698" cy="457" r="5" fill="green" stroke="none" /><circle cx="253" cy="299" r="5" fill="green" stroke="none" /><circle cx="122" cy="799" r="5" fill="green" stroke="none" /><circle cx="361" cy="116" r="5" fill="green" stroke="none" /><circle cx="167" cy="517" r="5" fill="green" stroke="none" /><circle cx="61" cy="961" r="5" fill="green" stroke="none" /><circle cx="948" cy="92" r="5" fill="green" stroke="none" /><circle cx="974" cy="1000" r="5" fill="green" stroke="none" /><circle cx="594" cy="517" r="5" fill="green" stroke="none" /><circle cx="890" cy="666" r="5" fill="green" stroke="none" /><circle cx="503" cy="702" r="5" fill="green" stroke="none" /><circle cx="769" cy="150" r="5" fill="green" stroke="none" /><circle cx="111" cy="320" r="5" fill="green" stroke="none" /><circle cx="72" cy="270" r="5" fill="green" stroke="none" /><circle cx="654" cy="405" r="5" fill="green" stroke="none" /><circle cx="564" cy="340" r="5" fill="green" stroke="none" /><circle cx="718" cy="126" r="5" fill="green" stroke="none" /><circle cx="90" cy="17" r="5" fill="green" stroke="none" /><circle cx="478" cy="145" r="5" fill="green" stroke="none" /><circle cx="149" cy="427" r="5" fill="green" stroke="none" /><circle cx="507" cy="87" r="5" fill="green" stroke="none" /><circle cx="712" cy="302" r="5" fill="green" stroke="none" /><circle cx="854" cy="540" r="5" fill="green" stroke="none" /><circle cx="562" cy="936" r="5" fill="green" stroke="none" /><circle cx="838" cy="488" r="5" fill="green" stroke="none" /><circle cx="319" cy="688" r="5" fill="green" stroke="none" /><circle cx="147" cy="665" r="5" fill="green" stroke="none" /><circle cx="239" cy="412" r="5" fill="green" stroke="none" /><circle cx="864" cy="505" r="5" fill="green" stroke="none" /><circle cx="173" cy="398" r="5" fill="green" stroke="none" /><circle cx="889" cy="992" r="5" fill="green" stroke="none" /><circle cx="109" cy="633" r="5" fill="green" stroke="none" /><circle cx="4" cy="373" r="5" fill="green" stroke="none" /><circle cx="342" cy="651" r="5" fill="green" stroke="none" /><circle cx="764" cy="299" r="5" fill="green" stroke="none" /><circle cx="59" cy="625" r="5" fill="green" stroke="none" /><circle cx="801" cy="676" r="5" fill="green" stroke="none" /><circle cx="328" cy="388" r="5" fill="green" stroke="none" /><circle cx="953" cy="256" r="5" fill="green" stroke="none" /><circle cx="638" cy="461" r="5" fill="green" stroke="none" /><circle cx="39" cy="740" r="5" fill="green" stroke="none" /><circle cx="811" cy="526" r="5" fill="green" stroke="none" /><circle cx="549" cy="895" r="5" fill="green" stroke="none" /><circle cx="712" cy="146" r="5" fill="green" stroke="none" /><circle cx="482" cy="297" r="5" fill="green" stroke="none" /><circle cx="316" cy="680" r="5" fill="green" stroke="none" /><circle cx="685" cy="927" r="5" fill="green" stroke="none" /><circle cx="839" cy="957" r="5" fill="green" stroke="none" /><circle cx="605" cy="33" r="5" fill="green" stroke="none" /><circle cx="8" cy="714" r="5" fill="green" stroke="none" /><circle cx="816" cy="982" r="5" fill="green" stroke="none" /><circle cx="674" cy="886" r="5" fill="green" stroke="none" /><circle cx="27" cy="324" r="5" fill="green" stroke="none" /><circle cx="686" cy="415" r="5" fill="green" stroke="none" /><circle cx="110" cy="907" r="5" fill="green" stroke="none" /><circle cx="490" cy="983" r="5" fill="green" stroke="none" /><circle cx="497" cy="788" r="5" fill="green" stroke="none" /><circle cx="516" cy="269" r="5" fill="green" stroke="none" /><circle cx="838" cy="437" r="5" fill="green" stroke="none" /><circle cx="203" cy="47" r="5" fill="green" stroke="none" /><circle cx="280" cy="119" r="5" fill="green" stroke="none" /><circle cx="157" cy="436" r="5" fill="green" stroke="none" /><circle cx="478" cy="180" r="5" fill="green" stroke="none" /><circle cx="574" cy="810" r="5" fill="green" stroke="none" /><circle cx="961" cy="222" r="5" fill="green" stroke="none" /><circle cx="273" cy="875" r="5" fill="green" stroke="none" /><circle cx="490" cy="167" r="5" fill="green" stroke="none" /><circle cx="355" cy="459" r="5" fill="green" stroke="none" /><circle cx="74" cy="904" r="5" fill="green" stroke="none" /><circle cx="528" cy="117" r="5" fill="green" stroke="none" /><circle cx="86" cy="138" r="5" fill="green" stroke="none" /><circle cx="325" cy="958" r="5" fill="green" stroke="none" /><circle cx="476" cy="69" r="5" fill="green" stroke="none" /><circle cx="19" cy="405" r="5" fill="green" stroke="none" /><circle cx="128" cy="554" r="5" fill="green" stroke="none" /><circle cx="927" cy="163" r="5" fill="green" stroke="none" /><circle cx="8" cy="393" r="5" fill="green" stroke="none" /><circle cx="434" cy="873" r="5" fill="green" stroke="none" /><circle cx="389" cy="32" r="5" fill="green" stroke="none" /><circle cx="420" cy="790" r="5" fill="green" stroke="none" /><circle cx="624" cy="50" r="5" fill="green" stroke="none" /><circle cx="743" cy="470" r="5" fill="green" stroke="none" /><circle cx="631" cy="544" r="5" fill="green" stroke="none" /><circle cx="810" cy="932" r="5" fill="green" stroke="none" /><circle cx="859" cy="699" r="5" fill="green" stroke="none" /><circle cx="262" cy="264" r="5" fill="green" stroke="none" /><circle cx="36" cy="363" r="5" fill="green" stroke="none" /><circle cx="267" cy="958" r="5" fill="green" stroke="none" /><circle cx="577" cy="901" r="5" fill="green" stroke="none" /><circle cx="331" cy="41" r="5" fill="green" stroke="none" /><circle cx="315" cy="27" r="5" fill="green" stroke="none" /><circle cx="300" cy="693" r="5" fill="green" stroke="none" /><circle cx="529" cy="973" r="5" fill="green" stroke="none" /><circle cx="392" cy="264" r="5" fill="green" stroke="none" /><circle cx="171" cy="457" r="5" fill="green" stroke="none" /><circle cx="480" cy="333" r="5" fill="green" stroke="none" /><circle cx="166" cy="216" r="5" fill="green" stroke="none" /><circle cx="634" cy="19" r="5" fill="green" stroke="none" /><circle cx="838" cy="306" r="5" fill="green" stroke="none" /><circle cx="907" cy="106" r="5" fill="green" stroke="none" /><circle cx="679" cy="193" r="5" fill="green" stroke="none" /><circle cx="132" cy="515" r="5" fill="green" stroke="none" /><circle cx="993" cy="608" r="5" fill="green" stroke="none" /><circle cx="352" cy="618" r="5" fill="green" stroke="none" /><circle cx="796" cy="338" r="5" fill="green" stroke="none" /><circle cx="533" cy="950" r="5" fill="green" stroke="none" /><circle cx="876" cy="558" r="5" fill="green" stroke="none" /><circle cx="848" cy="943" r="5" fill="green" stroke="none" /><circle cx="720" cy="354" r="5" fill="green" stroke="none" /><circle cx="87" cy="254" r="5" fill="green" stroke="none" /><circle cx="881" cy="590" r="5" fill="green" stroke="none" /><circle cx="822" cy="821" r="5" fill="green" stroke="none" /><circle cx="771" cy="725" r="5" fill="green" stroke="none" /><circle cx="593" cy="73" r="5" fill="green" stroke="none" /><circle cx="738" cy="684" r="5" fill="green" stroke="none" /><circle cx="770" cy="900" r="5" fill="green" stroke="none" /><circle cx="338" cy="702" r="5" fill="green" stroke="none" /><circle cx="931" cy="500" r="5" fill="green" stroke="none" /><circle cx="863" cy="447" r="5" fill="green" stroke="none" /><circle cx="942" cy="100" r="5" fill="green" stroke="none" /><circle cx="33" cy="483" r="5" fill="green" stroke="none" /><circle cx="413" cy="871" r="5" fill="green" stroke="none" /><circle cx="177" cy="975" r="5" fill="green" stroke="none" /><circle cx="401" cy="845" r="5" fill="green" stroke="none" /><circle cx="333" cy="882" r="5" fill="green" stroke="none" /><circle cx="564" cy="900" r="5" fill="green" stroke="none" /><circle cx="771" cy="60" r="5" fill="green" stroke="none" /><circle cx="900" cy="179" r="5" fill="green" stroke="none" /><circle cx="78" cy="502" r="5" fill="green" stroke="none" /><circle cx="786" cy="337" r="5" fill="green" stroke="none" /><circle cx="700" cy="305" r="5" fill="green" stroke="none" /><circle cx="211" cy="99" r="5" fill="green" stroke="none" /><circle cx="792" cy="624" r="5" fill="green" stroke="none" /><circle cx="44" cy="419" r="5" fill="green" stroke="none" /><circle cx="443" cy="174" r="5" fill="green" stroke="none" /><circle cx="987" cy="645" r="5" fill="green" stroke="none" /><circle cx="831" cy="148" r="5" fill="green" stroke="none" /><circle cx="197" cy="470" r="5" fill="green" stroke="none" /><circle cx="390" cy="809" r="5" fill="green" stroke="none" /><circle cx="846" cy="438" r="5" fill="green" stroke="none" /><circle cx="750" cy="348" r="5" fill="green" stroke="none" /><circle cx="843" cy="271" r="5" fill="green" stroke="none" /><circle cx="582" cy="1000" r="5" fill="green" stroke="none" /><circle cx="326" cy="543" r="5" fill="green" stroke="none" /><circle cx="564" cy="511" r="5" fill="green" stroke="none" /><circle cx="716" cy="104" r="5" fill="green" stroke="none" /><circle cx="972" cy="577" r="5" fill="green" stroke="none" /><circle cx="876" cy="48" r="5" fill="green" stroke="none" /><circle cx="718" cy="319" r="5" fill="green" stroke="none" /><circle cx="979" cy="48" r="5" fill="green" stroke="none" /><circle cx="667" cy="258" r="5" fill="green" stroke="none" /><circle cx="576" cy="267" r="5" fill="green" stroke="none" /><circle cx="432" cy="980" r="5" fill="green" stroke="none" /><circle cx="909" cy="241" r="5" fill="green" stroke="none" /><circle cx="736" cy="153" r="5" fill="green" stroke="none" /><circle cx="573" cy="797" r="5" fill="green" stroke="none" /><circle cx="260" cy="916" r="5" fill="green" stroke="none" /><circle cx="612" cy="585" r="5" fill="green" stroke="none" /><circle cx="336" cy="739" r="5" fill="green" stroke="none" /><circle cx="228" cy="507" r="5" fill="green" stroke="none" /><circle cx="139" cy="896" r="5" fill="green" stroke="none" /><circle cx="352" cy="686" r="5" fill="green" stroke="none" /><circle cx="140" cy="47" r="5" fill="green" stroke="none" /><circle cx="410" cy="731" r="5" fill="green" stroke="none" /><circle cx="485" cy="174" r="5" fill="green" stroke="none" /><circle cx="290" cy="285" r="5" fill="green" stroke="none" /><circle cx="110" cy="49" r="5" fill="green" stroke="none" /><circle cx="259" cy="207" r="5" fill="green" stroke="none" /><circle cx="497" cy="835" r="5" fill="green" stroke="none" /><circle cx="606" cy="840" r="5" fill="green" stroke="none" /><circle cx="186" cy="907" r="5" fill="green" stroke="none" /><circle cx="534" cy="987" r="5" fill="green" stroke="none" /><circle cx="372" cy="366" r="5" fill="green" stroke="none" /><circle cx="40" cy="204" r="5" fill="green" stroke="none" /><circle cx="106" cy="654" r="5" fill="green" stroke="none" /><circle cx="345" cy="792" r="5" fill="green" stroke="none" /><circle cx="747" cy="224" r="5" fill="green" stroke="none" /><circle cx="962" cy="996" r="5" fill="green" stroke="none" /><circle cx="818" cy="124" r="5" fill="green" stroke="none" /><circle cx="960" cy="162" r="5" fill="green" stroke="none" /><circle cx="448" cy="25" r="5" fill="green" stroke="none" /><circle cx="466" cy="953" r="5" fill="green" stroke="none" /><circle cx="634" cy="608" r="5" fill="green" stroke="none" /><circle cx="364" cy="460" r="5" fill="green" stroke="none" /><circle cx="523" cy="350" r="5" fill="green" stroke="none" /><circle cx="333" cy="268" r="5" fill="green" stroke="none" /><circle cx="383" cy="215" r="5" fill="green" stroke="none" /><circle cx="276" cy="111" r="5" fill="green" stroke="none" /><circle cx="875" cy="808" r="5" fill="green" stroke="none" /><circle cx="350" cy="716" r="5" fill="green" stroke="none" /><circle cx="108" cy="811" r="5" fill="green" stroke="none" /><circle cx="989" cy="910" r="5" fill="green" stroke="none" /><circle cx="206" cy="852" r="5" fill="green" stroke="none" /><circle cx="707" cy="378" r="5" fill="green" stroke="none" /><circle cx="596" cy="358" r="5" fill="green" stroke="none" /><circle cx="940" cy="521" r="5" fill="green" stroke="none" /><circle cx="842" cy="1" r="5" fill="green" stroke="none" /><circle cx="990" cy="466" r="5" fill="green" stroke="none" /><circle cx="352" cy="395" r="5" fill="green" stroke="none" /><circle cx="610" cy="607" r="5" fill="green" stroke="none" /><circle cx="414" cy="972" r="5" fill="green" stroke="none" /><circle cx="576" cy="992" r="5" fill="green" stroke="none" /><circle cx="664" cy="47" r="5" fill="green" stroke="none" /><circle cx="894" cy="585" r="5" fill="green" stroke="none" /><circle cx="109" cy="40" r="5" fill="green" stroke="none" /><circle cx="632" cy="181" r="5" fill="green" stroke="none" /><circle cx="728" cy="702" r="5" fill="green" stroke="none" /><circle cx="128" cy="18" r="5" fill="green" stroke="none" /><circle cx="433" cy="215" r="5" fill="green" stroke="none" /><circle cx="711" cy="87" r="5" fill="green" stroke="none" /><circle cx="643" cy="988" r="5" fill="green" stroke="none" /><circle cx="705" cy="158" r="5" fill="green" stroke="none" /><circle cx="767" cy="363" r="5" fill="green" stroke="none" /><circle cx="547" cy="348" r="5" fill="green" stroke="none" /><circle cx="36" cy="841" r="5" fill="green" stroke="none" /><circle cx="273" cy="646" r="5" fill="green" stroke="none" /><circle cx="135" cy="224" r="5" fill="green" stroke="none" /><circle cx="946" cy="176" r="5" fill="green" stroke="none" /><circle cx="302" cy="512" r="5" fill="green" stroke="none" /><circle cx="924" cy="779" r="5" fill="green" stroke="none" /><circle cx="728" cy="296" r="5" fill="green" stroke="none" /><circle cx="777" cy="827" r="5" fill="green" stroke="none" /><circle cx="208" cy="206" r="5" fill="green" stroke="none" /><circle cx="516" cy="159" r="5" fill="green" stroke="none" /><circle cx="412" cy="749" r="5" fill="green" stroke="none" /><circle cx="728" cy="750" r="5" fill="green" stroke="none" /><circle cx="301" cy="245" r="5" fill="green" stroke="none" /><circle cx="741" cy="965" r="5" fill="green" stroke="none" /><circle cx="87" cy="559" r="5" fill="green" stroke="none" /><circle cx="413" cy="810" r="5" fill="green" stroke="none" /><circle cx="324" cy="455" r="5" fill="green" stroke="none" /><circle cx="787" cy="109" r="5" fill="green" stroke="none" /><circle cx="945" cy="476" r="5" fill="green" stroke="none" /><circle cx="842" cy="221" r="5" fill="green" stroke="none" /><circle cx="977" cy="925" r="5" fill="green" stroke="none" /><circle cx="398" cy="218" r="5" fill="green" stroke="none" /><circle cx="251" cy="993" r="5" fill="green" stroke="none" /><circle cx="815" cy="162" r="5" fill="green" stroke="none" /><circle cx="793" cy="448" r="5" fill="green" stroke="none" /><circle cx="911" cy="37" r="5" fill="green" stroke="none" /><circle cx="499.2755333660571" cy="609.9936528501552" r="5" fill="blue" stroke="none" /><circle cx="527.8044128310635" cy="549.6882845174958" r="5" fill="blue" stroke="none" /><circle cx="389" cy="610" r="5" fill="blue" stroke="none" /><circle cx="528" cy="421.6325021992709" r="5" fill="blue" stroke="none" /><circle cx="481.29384932822074" cy="382" r="5" fill="blue" stroke="none" /><circle cx="528" cy="431.6325241555629" r="5" fill="blue" stroke="none" /><circle cx="509.27722614789724" cy="610" r="5" fill="blue" stroke="none" /><circle cx="389" cy="382" r="5" fill="blue" stroke="none" /><circle cx="528" cy="539.6895671543709" r="5" fill="blue" stroke="none" /><circle cx="528" cy="529.5024341536312" r="5" fill="blue" stroke="none" /></svg>