<svg viewBox="0 0 9948 8811" xmlns="http://www.w3.org/2000/svg"><rect x="0" y="0" width="9948" height="8811" fill="lightyellow" stroke="none "/><rect x="0" y="6996" width="1301" height="1815" fill="white" stroke="black "/><circle cx="419" cy="6548" r="5" fill="green" stroke="none" /><circle cx="9255" cy="7116" r="5" fill="green" stroke="none" /><circle cx="9838" cy="1580" r="5" fill="green" stroke="none" /><circle cx="1379" cy="3885" r="5" fill="green" stroke="none" /><circle cx="7435" cy="5212" r="5" fill="green" stroke="none" /><circle cx="8667" cy="418" r="5" fill="green" stroke="none" /><circle cx="9707" cy="569" r="5" fill="green" stroke="none" /><circle cx="8981" cy="4238" r="5" fill="green" stroke="none" /><circle cx="3131" cy="1719" r="5" fill="green" stroke="none" /><circle cx="7049" cy="6492" r="5" fill="green" stroke="none" /><circle cx="8928" cy="2163" r="5" fill="green" stroke="none" /><circle cx="9403" cy="6119" r="5" fill="green" stroke="none" /><circle cx="6001" cy="7429" r="5" fill="green" stroke="none" /><circle cx="1487" cy="6726" r="5" fill="green" stroke="none" /><circle cx="3368" cy="1743" r="5" fill="green" stroke="none" /><circle cx="587" cy="2193" r="5" fill="green" stroke="none" /><circle cx="5308" cy="4750" r="5" fill="green" stroke="none" /><circle cx="2674" cy="1112" r="5" fill="green" stroke="none" /><circle cx="8409" cy="5476" r="5" fill="green" stroke="none" /><circle cx="7774" cy="822" r="5" fill="green" stroke="none" /><circle cx="1972" cy="5208" r="5" fill="green" stroke="none" /><circle cx="3576" cy="5090" r="5" fill="green" stroke="none" /><circle cx="9851" cy="1354" r="5" fill="green" stroke="none" /><circle cx="8500" cy="6697" r="5" fill="green" stroke="none" /><circle cx="4552" cy="3072" r="5" fill="green" stroke="none" /><circle cx="9711" cy="6008" r="5" fill="green" stroke="none" /><circle cx="4680" cy="3793" r="5" fill="green" stroke="none" /><circle cx="2036" cy="4834" r="5" fill="green" stroke="none" /><circle cx="6849" cy="5008" r="5" fill="green" stroke="none" /><circle cx="3841" cy="2615" r="5" fill="green" stroke="none" /><circle cx="9007" cy="4921" r="5" fill="green" stroke="none" /><circle cx="2142" cy="231" r="5" fill="green" stroke="none" /><circle cx="1491" cy="5557" r="5" fill="green" stroke="none" /><circle cx="4409" cy="4136" r="5" fill="green" stroke="none" /><circle cx="7179" cy="339" r="5" fill="green" stroke="none" /><circle cx="1018" cy="4970" r="5" fill="green" stroke="none" /><circle cx="7127" cy="2623" r="5" fill="green" stroke="none" /><circle cx="8433" cy="49" r="5" fill="green" stroke="none" /><circle cx="8339" cy="8519" r="5" fill="green" stroke="none" /><circle cx="2716" cy="1192" r="5" fill="green" stroke="none" /><circle cx="6801" cy="7197" r="5" fill="green" stroke="none" /><circle cx="9296" cy="8721" r="5" fill="green" stroke="none" /><circle cx="3261" cy="1453" r="5" fill="green" stroke="none" /><circle cx="5802" cy="5950" r="5" fill="green" stroke="none" /><circle cx="9294" cy="7777" r="5" fill="green" stroke="none" /><circle cx="2576" cy="8125" r="5" fill="green" stroke="none" /><circle cx="9915" cy="2450" r="5" fill="green" stroke="none" /><circle cx="728" cy="2576" r="5" fill="green" stroke="none" /><circle cx="2684" cy="4921" r="5" fill="green" stroke="none" /><circle cx="5007" cy="2145" r="5" fill="green" stroke="none" /><circle cx="6268" cy="1107" r="5" fill="green" stroke="none" /><circle cx="4628" cy="5961" r="5" fill="green" stroke="none" /><circle cx="5632" cy="3616" r="5" fill="green" stroke="none" /><circle cx="173" cy="2128" r="5" fill="green" stroke="none" /><circle cx="6278" cy="586" r="5" fill="green" stroke="none" /><circle cx="4255" cy="1786" r="5" fill="green" stroke="none" /><circle cx="4321" cy="924" r="5" fill="green" stroke="none" /><circle cx="7926" cy="2038" r="5" fill="green" stroke="none" /><circle cx="307" cy="5219" r="5" fill="green" stroke="none" /><circle cx="3365" cy="416" r="5" fill="green" stroke="none" /><circle cx="9621" cy="2769" r="5" fill="green" stroke="none" /><circle cx="7711" cy="4179" r="5" fill="green" stroke="none" /><circle cx="9494" cy="6304" r="5" fill="green" stroke="none" /><circle cx="1626" cy="2784" r="5" fill="green" stroke="none" /><circle cx="6959" cy="3161" r="5" fill="green" stroke="none" /><circle cx="4318" cy="4941" r="5" fill="green" stroke="none" /><circle cx="9765" cy="831" r="5" fill="green" stroke="none" /><circle cx="2930" cy="5720" r="5" fill="green" stroke="none" /><circle cx="884" cy="5691" r="5" fill="green" stroke="none" /><circle cx="546" cy="6501" r="5" fill="green" stroke="none" /><circle cx="5943" cy="6433" r="5" fill="green" stroke="none" /><circle cx="5646" cy="1916" r="5" fill="green" stroke="none" /><circle cx="2674" cy="3171" r="5" fill="green" stroke="none" /><circle cx="7258" cy="5061" r="5" fill="green" stroke="none" /><circle cx="6303" cy="8058" r="5" fill="green" stroke="none" /><circle cx="4884" cy="7879" r="5" fill="green" stroke="none" /><circle cx="2124" cy="8721" r="5" fill="green" stroke="none" /><circle cx="3589" cy="7466" r="5" fill="green" stroke="none" /><circle cx="2075" cy="7468" r="5" fill="green" stroke="none" /><circle cx="7305" cy="3835" r="5" fill="green" stroke="none" /><circle cx="2351" cy="8733" r="5" fill="green" stroke="none" /><circle cx="7410" cy="8693" r="5" fill="green" stroke="none" /><circle cx="4147" cy="7036" r="5" fill="green" stroke="none" /><circle cx="5359" cy="7746" r="5" fill="green" stroke="none" /><circle cx="3106" cy="6023" r="5" fill="green" stroke="none" /><circle cx="9500" cy="5881" r="5" fill="green" stroke="none" /><circle cx="4594" cy="4471" r="5" fill="green" stroke="none" /><circle cx="2431" cy="299" r="5" fill="green" stroke="none" /><circle cx="6122" cy="6964" r="5" fill="green" stroke="none" /><circle cx="4794" cy="7104" r="5" fill="green" stroke="none" /><circle cx="3001" cy="6340" r="5" fill="green" stroke="none" /><circle cx="8107" cy="7346" r="5" fill="green" stroke="none" /><circle cx="6609" cy="8312" r="5" fill="green" stroke="none" /><circle cx="4333" cy="5883" r="5" fill="green" stroke="none" /><circle cx="7441" cy="1958" r="5" fill="green" stroke="none" /><circle cx="972" cy="5792" r="5" fill="green" stroke="none" /><circle cx="3279" cy="1563" r="5" fill="green" stroke="none" /><circle cx="6587" cy="1843" r="5" fill="green" stroke="none" /><circle cx="2380" cy="2869" r="5" fill="green" stroke="none" /><circle cx="3525" cy="4448" r="5" fill="green" stroke="none" /><circle cx="5153" cy="7279" r="5" fill="green" stroke="none" /><circle cx="7315" cy="5637" r="5" fill="green" stroke="none" /><circle cx="7247" cy="569" r="5" fill="green" stroke="none" /><circle cx="1072" cy="5300" r="5" fill="green" stroke="none" /><circle cx="21" cy="3421" r="5" fill="green" stroke="none" /><circle cx="9440" cy="6877" r="5" fill="green" stroke="none" /><circle cx="2984" cy="7005" r="5" fill="green" stroke="none" /><circle cx="6557" cy="6129" r="5" fill="green" stroke="none" /><circle cx="1770" cy="2060" r="5" fill="green" stroke="none" /><circle cx="5691" cy="3322" r="5" fill="green" stroke="none" /><circle cx="4104" cy="8606" r="5" fill="green" stroke="none" /><circle cx="1990" cy="6814" r="5" fill="green" stroke="none" /><circle cx="5000" cy="6753" r="5" fill="green" stroke="none" /><circle cx="7976" cy="2164" r="5" fill="green" stroke="none" /><circle cx="8163" cy="1368" r="5" fill="green" stroke="none" /><circle cx="9670" cy="4774" r="5" fill="green" stroke="none" /><circle cx="2100" cy="7278" r="5" fill="green" stroke="none" /><circle cx="7719" cy="4788" r="5" fill="green" stroke="none" /><circle cx="7103" cy="6708" r="5" fill="green" stroke="none" /><circle cx="8017" cy="3219" r="5" fill="green" stroke="none" /><circle cx="1175" cy="2367" r="5" fill="green" stroke="none" /><circle cx="8875" cy="2471" r="5" fill="green" stroke="none" /><circle cx="3106" cy="455" r="5" fill="green" stroke="none" /><circle cx="4543" cy="4628" r="5" fill="green" stroke="none" /><circle cx="8334" cy="4665" r="5" fill="green" stroke="none" /><circle cx="921" cy="1074" r="5" fill="green" stroke="none" /><circle cx="544" cy="12" r="5" fill="green" stroke="none" /><circle cx="5886" cy="28" r="5" fill="green" stroke="none" /><circle cx="6266" cy="7819" r="5" fill="green" stroke="none" /><circle cx="9485" cy="3878" r="5" fill="green" stroke="none" /><circle cx="5373" cy="3388" r="5" fill="green" stroke="none" /><circle cx="8520" cy="2289" r="5" fill="green" stroke="none" /><circle cx="4666" cy="1550" r="5" fill="green" stroke="none" /><circle cx="9867" cy="4301" r="5" fill="green" stroke="none" /><circle cx="4546" cy="6121" r="5" fill="green" stroke="none" /><circle cx="7255" cy="408" r="5" fill="green" stroke="none" /><circle cx="8343" cy="5074" r="5" fill="green" stroke="none" /><circle cx="9291" cy="7628" r="5" fill="green" stroke="none" /><circle cx="6495" cy="8134" r="5" fill="green" stroke="none" /><circle cx="2607" cy="7577" r="5" fill="green" stroke="none" /><circle cx="4852" cy="7649" r="5" fill="green" stroke="none" /><circle cx="1490" cy="3527" r="5" fill="green" stroke="none" /><circle cx="4832" cy="1876" r="5" fill="green" stroke="none" /><circle cx="4519" cy="5544" r="5" fill="green" stroke="none" /><circle cx="7083" cy="7582" r="5" fill="green" stroke="none" /><circle cx="5767" cy="81" r="5" fill="green" stroke="none" /><circle cx="6787" cy="4752" r="5" fill="green" stroke="none" /><circle cx="8333" cy="4637" r="5" fill="green" stroke="none" /><circle cx="1565" cy="6453" r="5" fill="green" stroke="none" /><circle cx="1877" cy="3993" r="5" fill="green" stroke="none" /><circle cx="4552" cy="1134" r="5" fill="green" stroke="none" /><circle cx="8987" cy="2222" r="5" fill="green" stroke="none" /><circle cx="4214" cy="4687" r="5" fill="green" stroke="none" /><circle cx="9632" cy="5980" r="5" fill="green" stroke="none" /><circle cx="5104" cy="1989" r="5" fill="green" stroke="none" /><circle cx="2313" cy="4425" r="5" fill="green" stroke="none" /><circle cx="7551" cy="4730" r="5" fill="green" stroke="none" /><circle cx="8510" cy="7328" r="5" fill="green" stroke="none" /><circle cx="8617" cy="8064" r="5" fill="green" stroke="none" /><circle cx="3546" cy="3182" r="5" fill="green" stroke="none" /><circle cx="496" cy="4448" r="5" fill="green" stroke="none" /><circle cx="7103" cy="1715" r="5" fill="green" stroke="none" /><circle cx="7573" cy="6910" r="5" fill="green" stroke="none" /><circle cx="926" cy="1457" r="5" fill="green" stroke="none" /><circle cx="7311" cy="99" r="5" fill="green" stroke="none" /><circle cx="4619" cy="2360" r="5" fill="green" stroke="none" /><circle cx="2082" cy="8775" r="5" fill="green" stroke="none" /><circle cx="3680" cy="5723" r="5" fill="green" stroke="none" /><circle cx="3611" cy="4553" r="5" fill="green" stroke="none" /><circle cx="1087" cy="470" r="5" fill="green" stroke="none" /><circle cx="2588" cy="4031" r="5" fill="green" stroke="none" /><circle cx="2667" cy="1053" r="5" fill="green" stroke="none" /><circle cx="5971" cy="6181" r="5" fill="green" stroke="none" /><circle cx="2135" cy="7066" r="5" fill="green" stroke="none" /><circle cx="3075" cy="7932" r="5" fill="green" stroke="none" /><circle cx="2000" cy="6571" r="5" fill="green" stroke="none" /><circle cx="4864" cy="3463" r="5" fill="green" stroke="none" /><circle cx="6663" cy="7064" r="5" fill="green" stroke="none" /><circle cx="3581" cy="5542" r="5" fill="green" stroke="none" /><circle cx="7234" cy="8161" r="5" fill="green" stroke="none" /><circle cx="9687" cy="4552" r="5" fill="green" stroke="none" /><circle cx="6840" cy="5496" r="5" fill="green" stroke="none" /><circle cx="5934" cy="3597" r="5" fill="green" stroke="none" /><circle cx="2294" cy="3827" r="5" fill="green" stroke="none" /><circle cx="1937" cy="6800" r="5" fill="green" stroke="none" /><circle cx="8217" cy="2629" r="5" fill="green" stroke="none" /><circle cx="7718" cy="5352" r="5" fill="green" stroke="none" /><circle cx="3073" cy="3278" r="5" fill="green" stroke="none" /><circle cx="3069" cy="8488" r="5" fill="green" stroke="none" /><circle cx="1487" cy="3088" r="5" fill="green" stroke="none" /><circle cx="4405" cy="2616" r="5" fill="green" stroke="none" /><circle cx="6013" cy="1659" r="5" fill="green" stroke="none" /><circle cx="7778" cy="403" r="5" fill="green" stroke="none" /><circle cx="4199" cy="8196" r="5" fill="green" stroke="none" /><circle cx="7741" cy="4964" r="5" fill="green" stroke="none" /><circle cx="7480" cy="3905" r="5" fill="green" stroke="none" /><circle cx="3179" cy="8454" r="5" fill="green" stroke="none" /><circle cx="7561" cy="5102" r="5" fill="green" stroke="none" /><circle cx="5380" cy="1772" r="5" fill="green" stroke="none" /><circle cx="753" cy="1053" r="5" fill="green" stroke="none" /><circle cx="9764" cy="5842" r="5" fill="green" stroke="none" /><circle cx="8654" cy="2045" r="5" fill="green" stroke="none" /><circle cx="6133" cy="163" r="5" fill="green" stroke="none" /><circle cx="5806" cy="6947" r="5" fill="green" stroke="none" /><circle cx="6728" cy="29" r="5" fill="green" stroke="none" /><circle cx="8873" cy="861" r="5" fill="green" stroke="none" /><circle cx="7089" cy="7501" r="5" fill="green" stroke="none" /><circle cx="8641" cy="8548" r="5" fill="green" stroke="none" /><circle cx="2681" cy="1156" r="5" fill="green" stroke="none" /><circle cx="2122" cy="537" r="5" fill="green" stroke="none" /><circle cx="7937" cy="3192" r="5" fill="green" stroke="none" /><circle cx="3521" cy="8609" r="5" fill="green" stroke="none" /><circle cx="3997" cy="6411" r="5" fill="green" stroke="none" /><circle cx="8171" cy="7564" r="5" fill="green" stroke="none" /><circle cx="6392" cy="7714" r="5" fill="green" stroke="none" /><circle cx="1849" cy="5919" r="5" fill="green" stroke="none" /><circle cx="8158" cy="6267" r="5" fill="green" stroke="none" /><circle cx="7364" cy="4992" r="5" fill="green" stroke="none" /><circle cx="2844" cy="8237" r="5" fill="green" stroke="none" /><circle cx="6126" cy="597" r="5" fill="green" stroke="none" /><circle cx="7905" cy="3963" r="5" fill="green" stroke="none" /><circle cx="4235" cy="8540" r="5" fill="green" stroke="none" /><circle cx="9595" cy="8619" r="5" fill="green" stroke="none" /><circle cx="8911" cy="160" r="5" fill="green" stroke="none" /><circle cx="5603" cy="1975" r="5" fill="green" stroke="none" /><circle cx="5175" cy="1583" r="5" fill="green" stroke="none" /><circle cx="8351" cy="949" r="5" fill="green" stroke="none" /><circle cx="6176" cy="6385" r="5" fill="green" stroke="none" /><circle cx="1327" cy="7165" r="5" fill="green" stroke="none" /><circle cx="4747" cy="6884" r="5" fill="green" stroke="none" /><circle cx="5832" cy="1901" r="5" fill="green" stroke="none" /><circle cx="9527" cy="8258" r="5" fill="green" stroke="none" /><circle cx="8393" cy="6307" r="5" fill="green" stroke="none" /><circle cx="3635" cy="3319" r="5" fill="green" stroke="none" /><circle cx="7151" cy="613" r="5" fill="green" stroke="none" /><circle cx="9851" cy="5132" r="5" fill="green" stroke="none" /><circle cx="9274" cy="4001" r="5" fill="green" stroke="none" /><circle cx="3048" cy="1516" r="5" fill="green" stroke="none" /><circle cx="7038" cy="3072" r="5" fill="green" stroke="none" /><circle cx="7472" cy="3454" r="5" fill="green" stroke="none" /><circle cx="2997" cy="4855" r="5" fill="green" stroke="none" /><circle cx="3050" cy="831" r="5" fill="green" stroke="none" /><circle cx="1404" cy="8801" r="5" fill="green" stroke="none" /><circle cx="2849" cy="1022" r="5" fill="green" stroke="none" /><circle cx="3309" cy="1383" r="5" fill="green" stroke="none" /><circle cx="3387" cy="3516" r="5" fill="green" stroke="none" /><circle cx="8476" cy="4787" r="5" fill="green" stroke="none" /><circle cx="1237" cy="735" r="5" fill="green" stroke="none" /><circle cx="1746" cy="2651" r="5" fill="green" stroke="none" /><circle cx="1183" cy="1240" r="5" fill="green" stroke="none" /><circle cx="6731" cy="5782" r="5" fill="green" stroke="none" /><circle cx="2753" cy="2698" r="5" fill="green" stroke="none" /><circle cx="3400" cy="764" r="5" fill="green" stroke="none" /><circle cx="8456" cy="6853" r="5" fill="green" stroke="none" /><circle cx="9424" cy="8438" r="5" fill="green" stroke="none" /><circle cx="4920" cy="6341" r="5" fill="green" stroke="none" /><circle cx="6988" cy="6648" r="5" fill="green" stroke="none" /><circle cx="8000" cy="4595" r="5" fill="green" stroke="none" /><circle cx="5344" cy="952" r="5" fill="green" stroke="none" /><circle cx="6716" cy="1555" r="5" fill="green" stroke="none" /><circle cx="5882" cy="4941" r="5" fill="green" stroke="none" /><circle cx="3554" cy="1890" r="5" fill="green" stroke="none" /><circle cx="3186" cy="5303" r="5" fill="green" stroke="none" /><circle cx="2702" cy="909" r="5" fill="green" stroke="none" /><circle cx="8691" cy="1907" r="5" fill="green" stroke="none" /><circle cx="3735" cy="5920" r="5" fill="green" stroke="none" /><circle cx="7765" cy="6133" r="5" fill="green" stroke="none" /><circle cx="9757" cy="3129" r="5" fill="green" stroke="none" /><circle cx="4156" cy="4146" r="5" fill="green" stroke="none" /><circle cx="6845" cy="1285" r="5" fill="green" stroke="none" /><circle cx="3948" cy="4537" r="5" fill="green" stroke="none" /><circle cx="2449" cy="7176" r="5" fill="green" stroke="none" /><circle cx="9121" cy="3621" r="5" fill="green" stroke="none" /><circle cx="5290" cy="2663" r="5" fill="green" stroke="none" /><circle cx="4483" cy="2748" r="5" fill="green" stroke="none" /><circle cx="7309" cy="2713" r="5" fill="green" stroke="none" /><circle cx="5090" cy="8677" r="5" fill="green" stroke="none" /><circle cx="4404" cy="8722" r="5" fill="green" stroke="none" /><circle cx="6028" cy="1624" r="5" fill="green" stroke="none" /><circle cx="5741" cy="7094" r="5" fill="green" stroke="none" /><circle cx="6945" cy="7590" r="5" fill="green" stroke="none" /><circle cx="2174" cy="6436" r="5" fill="green" stroke="none" /><circle cx="6662" cy="3747" r="5" fill="green" stroke="none" /><circle cx="1760" cy="6042" r="5" fill="green" stroke="none" /><circle cx="2354" cy="1087" r="5" fill="green" stroke="none" /><circle cx="5073" cy="3919" r="5" fill="green" stroke="none" /><circle cx="4874" cy="5782" r="5" fill="green" stroke="none" /><circle cx="7671" cy="630" r="5" fill="green" stroke="none" /><circle cx="5944" cy="2149" r="5" fill="green" stroke="none" /><circle cx="5862" cy="8431" r="5" fill="green" stroke="none" /><circle cx="6440" cy="2765" r="5" fill="green" stroke="none" /><circle cx="5737" cy="7048" r="5" fill="green" stroke="none" /><circle cx="6987" cy="1776" r="5" fill="green" stroke="none" /><circle cx="8990" cy="37" r="5" fill="green" stroke="none" /><circle cx="6492" cy="6834" r="5" fill="green" stroke="none" /><circle cx="6484" cy="6750" r="5" fill="green" stroke="none" /><circle cx="4974" cy="4150" r="5" fill="green" stroke="none" /><circle cx="7362" cy="2416" r="5" fill="green" stroke="none" /><circle cx="6558" cy="8565" r="5" fill="green" stroke="none" /><circle cx="719" cy="5261" r="5" fill="green" stroke="none" /><circle cx="1291" cy="7149.560571916525" r="5" fill="blue" stroke="none" /><circle cx="1291" cy="7129.559406926868" r="5" fill="blue" stroke="none" /><circle cx="1291" cy="7215.152027650578" r="5" fill="blue" stroke="none" /><circle cx="1291" cy="7205.152022368136" r="5" fill="blue" stroke="none" /><circle cx="1277.9442589002313" cy="7185.09707489098" r="5" fill="blue" stroke="none" /><circle cx="1291" cy="7139.559921631049" r="5" fill="blue" stroke="none" /><circle cx="1291" cy="7195.15182354479" r="5" fill="blue" stroke="none" /><circle cx="1284.0678819258176" cy="7177.183263765147" r="5" fill="blue" stroke="none" /><circle cx="1291" cy="7169.968144090493" r="5" fill="blue" stroke="none" /><circle cx="1282.336867210049" cy="7164.960316116765" r="5" fill="blue" stroke="none" /><circle cx="1281.3042464170205" cy="7152.008505591638" r="5" fill="blue" stroke="none" /><circle cx="1291" cy="7159.965077712664" r="5" fill="blue" stroke="none" /><circle cx="1291" cy="7185.151777801005" r="5" fill="blue" stroke="none" /><circle cx="1290.286648156421" cy="7119.5769814008145" r="5" fill="blue" stroke="none" /></svg>