<svg viewBox="0 0 8531 3600" xmlns="http://www.w3.org/2000/svg"><rect x="0" y="0" width="8531" height="3600" fill="lightyellow" stroke="none "/><rect x="0" y="2474" width="216" height="1126" fill="white" stroke="black "/><circle cx="4940" cy="45" r="5" fill="green" stroke="none" /><circle cx="6230" cy="3024" r="5" fill="green" stroke="none" /><circle cx="2740" cy="311" r="5" fill="green" stroke="none" /><circle cx="2979" cy="2823" r="5" fill="green" stroke="none" /><circle cx="7770" cy="2379" r="5" fill="green" stroke="none" /><circle cx="3703" cy="1302" r="5" fill="green" stroke="none" /><circle cx="642" cy="627" r="5" fill="green" stroke="none" /><circle cx="5714" cy="3357" r="5" fill="green" stroke="none" /><circle cx="2499" cy="2551" r="5" fill="green" stroke="none" /><circle cx="2979" cy="1517" r="5" fill="green" stroke="none" /><circle cx="6196" cy="3309" r="5" fill="green" stroke="none" /><circle cx="266" cy="953" r="5" fill="green" stroke="none" /><circle cx="5432" cy="3328" r="5" fill="green" stroke="none" /><circle cx="8052" cy="483" r="5" fill="green" stroke="none" /><circle cx="5617" cy="3129" r="5" fill="green" stroke="none" /><circle cx="137" cy="1361" r="5" fill="green" stroke="none" /><circle cx="4411" cy="611" r="5" fill="green" stroke="none" /><circle cx="6296" cy="2171" r="5" fill="green" stroke="none" /><circle cx="5661" cy="426" r="5" fill="green" stroke="none" /><circle cx="253" cy="550" r="5" fill="green" stroke="none" /><circle cx="4493" cy="1083" r="5" fill="green" stroke="none" /><circle cx="7317" cy="3083" r="5" fill="green" stroke="none" /><circle cx="4075" cy="584" r="5" fill="green" stroke="none" /><circle cx="392" cy="2778" r="5" fill="green" stroke="none" /><circle cx="8326" cy="3008" r="5" fill="green" stroke="none" /><circle cx="3259" cy="3068" r="5" fill="green" stroke="none" /><circle cx="2818" cy="1845" r="5" fill="green" stroke="none" /><circle cx="2622" cy="2472" r="5" fill="green" stroke="none" /><circle cx="15" cy="519" r="5" fill="green" stroke="none" /><circle cx="8222" cy="3445" r="5" fill="green" stroke="none" /><circle cx="2504" cy="1542" r="5" fill="green" stroke="none" /><circle cx="864" cy="1459" r="5" fill="green" stroke="none" /><circle cx="696" cy="3078" r="5" fill="green" stroke="none" /><circle cx="829" cy="127" r="5" fill="green" stroke="none" /><circle cx="397" cy="1591" r="5" fill="green" stroke="none" /><circle cx="196" cy="319" r="5" fill="green" stroke="none" /><circle cx="6595" cy="917" r="5" fill="green" stroke="none" /><circle cx="2931" cy="821" r="5" fill="green" stroke="none" /><circle cx="6295" cy="2759" r="5" fill="green" stroke="none" /><circle cx="7563" cy="3426" r="5" fill="green" stroke="none" /><circle cx="7907" cy="1519" r="5" fill="green" stroke="none" /><circle cx="4538" cy="2703" r="5" fill="green" stroke="none" /><circle cx="7176" cy="1339" r="5" fill="green" stroke="none" /><circle cx="6266" cy="2649" r="5" fill="green" stroke="none" /><circle cx="4604" cy="523" r="5" fill="green" stroke="none" /><circle cx="7189" cy="3357" r="5" fill="green" stroke="none" /><circle cx="158" cy="1355" r="5" fill="green" stroke="none" /><circle cx="4015" cy="3324" r="5" fill="green" stroke="none" /><circle cx="1008" cy="1876" r="5" fill="green" stroke="none" /><circle cx="6849" cy="656" r="5" fill="green" stroke="none" /><circle cx="2777" cy="1550" r="5" fill="green" stroke="none" /><circle cx="7162" cy="18" r="5" fill="green" stroke="none" /><circle cx="7600" cy="675" r="5" fill="green" stroke="none" /><circle cx="7295" cy="1266" r="5" fill="green" stroke="none" /><circle cx="1876" cy="525" r="5" fill="green" stroke="none" /><circle cx="2783" cy="878" r="5" fill="green" stroke="none" /><circle cx="8254" cy="3566" r="5" fill="green" stroke="none" /><circle cx="2689" cy="742" r="5" fill="green" stroke="none" /><circle cx="8031" cy="3243" r="5" fill="green" stroke="none" /><circle cx="3395" cy="3537" r="5" fill="green" stroke="none" /><circle cx="5804" cy="1751" r="5" fill="green" stroke="none" /><circle cx="6686" cy="3495" r="5" fill="green" stroke="none" /><circle cx="4966" cy="2709" r="5" fill="green" stroke="none" /><circle cx="7494" cy="1087" r="5" fill="green" stroke="none" /><circle cx="6377" cy="3174" r="5" fill="green" stroke="none" /><circle cx="5819" cy="3459" r="5" fill="green" stroke="none" /><circle cx="5042" cy="3287" r="5" fill="green" stroke="none" /><circle cx="5934" cy="2791" r="5" fill="green" stroke="none" /><circle cx="6919" cy="249" r="5" fill="green" stroke="none" /><circle cx="7245" cy="579" r="5" fill="green" stroke="none" /><circle cx="3235" cy="1550" r="5" fill="green" stroke="none" /><circle cx="2886" cy="3538" r="5" fill="green" stroke="none" /><circle cx="7600" cy="1187" r="5" fill="green" stroke="none" /><circle cx="4488" cy="517" r="5" fill="green" stroke="none" /><circle cx="2344" cy="942" r="5" fill="green" stroke="none" /><circle cx="8299" cy="2228" r="5" fill="green" stroke="none" /><circle cx="1346" cy="951" r="5" fill="green" stroke="none" /><circle cx="3162" cy="1690" r="5" fill="green" stroke="none" /><circle cx="355" cy="1658" r="5" fill="green" stroke="none" /><circle cx="1439" cy="821" r="5" fill="green" stroke="none" /><circle cx="3374" cy="3003" r="5" fill="green" stroke="none" /><circle cx="1057" cy="3290" r="5" fill="green" stroke="none" /><circle cx="7626" cy="440" r="5" fill="green" stroke="none" /><circle cx="8002" cy="190" r="5" fill="green" stroke="none" /><circle cx="7608" cy="1067" r="5" fill="green" stroke="none" /><circle cx="2262" cy="2153" r="5" fill="green" stroke="none" /><circle cx="8335" cy="2961" r="5" fill="green" stroke="none" /><circle cx="7808" cy="2283" r="5" fill="green" stroke="none" /><circle cx="3152" cy="2071" r="5" fill="green" stroke="none" /><circle cx="6583" cy="2204" r="5" fill="green" stroke="none" /><circle cx="1705" cy="1834" r="5" fill="green" stroke="none" /><circle cx="1884" cy="3455" r="5" fill="green" stroke="none" /><circle cx="1810" cy="637" r="5" fill="green" stroke="none" /><circle cx="523" cy="1434" r="5" fill="green" stroke="none" /><circle cx="5122" cy="2125" r="5" fill="green" stroke="none" /><circle cx="3328" cy="2290" r="5" fill="green" stroke="none" /><circle cx="4973" cy="2061" r="5" fill="green" stroke="none" /><circle cx="2998" cy="75" r="5" fill="green" stroke="none" /><circle cx="7607" cy="1597" r="5" fill="green" stroke="none" /><circle cx="1990" cy="1756" r="5" fill="green" stroke="none" /><circle cx="1896" cy="3039" r="5" fill="green" stroke="none" /><circle cx="1850" cy="543" r="5" fill="green" stroke="none" /><circle cx="7884" cy="2891" r="5" fill="green" stroke="none" /><circle cx="2095" cy="1837" r="5" fill="green" stroke="none" /><circle cx="5501" cy="1230" r="5" fill="green" stroke="none" /><circle cx="4937" cy="2421" r="5" fill="green" stroke="none" /><circle cx="5550" cy="2100" r="5" fill="green" stroke="none" /><circle cx="3866" cy="1383" r="5" fill="green" stroke="none" /><circle cx="4357" cy="2331" r="5" fill="green" stroke="none" /><circle cx="86" cy="2225" r="5" fill="green" stroke="none" /><circle cx="4171" cy="1880" r="5" fill="green" stroke="none" /><circle cx="6401" cy="2210" r="5" fill="green" stroke="none" /><circle cx="3007" cy="1320" r="5" fill="green" stroke="none" /><circle cx="1487" cy="1568" r="5" fill="green" stroke="none" /><circle cx="4172" cy="1740" r="5" fill="green" stroke="none" /><circle cx="1811" cy="684" r="5" fill="green" stroke="none" /><circle cx="2946" cy="1644" r="5" fill="green" stroke="none" /><circle cx="5936" cy="206" r="5" fill="green" stroke="none" /><circle cx="7167" cy="1137" r="5" fill="green" stroke="none" /><circle cx="6497" cy="7" r="5" fill="green" stroke="none" /><circle cx="3792" cy="1449" r="5" fill="green" stroke="none" /><circle cx="2822" cy="3345" r="5" fill="green" stroke="none" /><circle cx="3599" cy="1920" r="5" fill="green" stroke="none" /><circle cx="893" cy="3120" r="5" fill="green" stroke="none" /><circle cx="322" cy="3278" r="5" fill="green" stroke="none" /><circle cx="8400" cy="2606" r="5" fill="green" stroke="none" /><circle cx="1853" cy="1404" r="5" fill="green" stroke="none" /><circle cx="2974" cy="1287" r="5" fill="green" stroke="none" /><circle cx="8176" cy="1970" r="5" fill="green" stroke="none" /><circle cx="1176" cy="2186" r="5" fill="green" stroke="none" /><circle cx="792" cy="1617" r="5" fill="green" stroke="none" /><circle cx="4753" cy="1469" r="5" fill="green" stroke="none" /><circle cx="6141" cy="3018" r="5" fill="green" stroke="none" /><circle cx="4887" cy="313" r="5" fill="green" stroke="none" /><circle cx="8469" cy="438" r="5" fill="green" stroke="none" /><circle cx="3480" cy="2313" r="5" fill="green" stroke="none" /><circle cx="3017" cy="1861" r="5" fill="green" stroke="none" /><circle cx="4234" cy="1014" r="5" fill="green" stroke="none" /><circle cx="7451" cy="2737" r="5" fill="green" stroke="none" /><circle cx="2002" cy="1082" r="5" fill="green" stroke="none" /><circle cx="5311" cy="2758" r="5" fill="green" stroke="none" /><circle cx="7658" cy="2693" r="5" fill="green" stroke="none" /><circle cx="392" cy="3594" r="5" fill="green" stroke="none" /><circle cx="5298" cy="2098" r="5" fill="green" stroke="none" /><circle cx="3018" cy="1908" r="5" fill="green" stroke="none" /><circle cx="4466" cy="601" r="5" fill="green" stroke="none" /><circle cx="1203" cy="887" r="5" fill="green" stroke="none" /><circle cx="4200" cy="1507" r="5" fill="green" stroke="none" /><circle cx="8130" cy="3112" r="5" fill="green" stroke="none" /><circle cx="3601" cy="3553" r="5" fill="green" stroke="none" /><circle cx="540" cy="1222" r="5" fill="green" stroke="none" /><circle cx="2555" cy="588" r="5" fill="green" stroke="none" /><circle cx="6798" cy="2270" r="5" fill="green" stroke="none" /><circle cx="4833" cy="1153" r="5" fill="green" stroke="none" /><circle cx="7190" cy="1899" r="5" fill="green" stroke="none" /><circle cx="2757" cy="857" r="5" fill="green" stroke="none" /><circle cx="4570" cy="2904" r="5" fill="green" stroke="none" /><circle cx="5623" cy="333" r="5" fill="green" stroke="none" /><circle cx="5556" cy="1446" r="5" fill="green" stroke="none" /><circle cx="250" cy="2054" r="5" fill="green" stroke="none" /><circle cx="3459" cy="1049" r="5" fill="green" stroke="none" /><circle cx="5214" cy="1368" r="5" fill="green" stroke="none" /><circle cx="5929" cy="113" r="5" fill="green" stroke="none" /><circle cx="3120" cy="1685" r="5" fill="green" stroke="none" /><circle cx="3360" cy="929" r="5" fill="green" stroke="none" /><circle cx="3107" cy="434" r="5" fill="green" stroke="none" /><circle cx="3770" cy="3009" r="5" fill="green" stroke="none" /><circle cx="671" cy="1924" r="5" fill="green" stroke="none" /><circle cx="3671" cy="2942" r="5" fill="green" stroke="none" /><circle cx="7086" cy="103" r="5" fill="green" stroke="none" /><circle cx="3864" cy="3061" r="5" fill="green" stroke="none" /><circle cx="5593" cy="1426" r="5" fill="green" stroke="none" /><circle cx="8279" cy="3055" r="5" fill="green" stroke="none" /><circle cx="6774" cy="2248" r="5" fill="green" stroke="none" /><circle cx="3540" cy="2183" r="5" fill="green" stroke="none" /><circle cx="1992" cy="1866" r="5" fill="green" stroke="none" /><circle cx="2736" cy="3396" r="5" fill="green" stroke="none" /><circle cx="1288" cy="198" r="5" fill="green" stroke="none" /><circle cx="1680" cy="2893" r="5" fill="green" stroke="none" /><circle cx="2998" cy="2227" r="5" fill="green" stroke="none" /><circle cx="5858" cy="140" r="5" fill="green" stroke="none" /><circle cx="5135" cy="2544" r="5" fill="green" stroke="none" /><circle cx="7728" cy="2597" r="5" fill="green" stroke="none" /><circle cx="3385" cy="2181" r="5" fill="green" stroke="none" /><circle cx="3980" cy="2846" r="5" fill="green" stroke="none" /><circle cx="1061" cy="497" r="5" fill="green" stroke="none" /><circle cx="8390" cy="2504" r="5" fill="green" stroke="none" /><circle cx="5277" cy="70" r="5" fill="green" stroke="none" /><circle cx="950" cy="2740" r="5" fill="green" stroke="none" /><circle cx="2228" cy="3346" r="5" fill="green" stroke="none" /><circle cx="1569" cy="2834" r="5" fill="green" stroke="none" /><circle cx="803" cy="2869" r="5" fill="green" stroke="none" /><circle cx="4291" cy="1356" r="5" fill="green" stroke="none" /><circle cx="6194" cy="3536" r="5" fill="green" stroke="none" /><circle cx="8197" cy="2735" r="5" fill="green" stroke="none" /><circle cx="6863" cy="1612" r="5" fill="green" stroke="none" /><circle cx="6556" cy="603" r="5" fill="green" stroke="none" /><circle cx="2977" cy="2304" r="5" fill="green" stroke="none" /><circle cx="1431" cy="915" r="5" fill="green" stroke="none" /><circle cx="992" cy="1022" r="5" fill="green" stroke="none" /><circle cx="205.83817106458315" cy="3129.258608054384" r="5" fill="blue" stroke="none" /><circle cx="197.2302832585831" cy="3251.8465033175535" r="5" fill="blue" stroke="none" /><circle cx="206" cy="3273.139295601459" r="5" fill="blue" stroke="none" /><circle cx="191.2470566949451" cy="3216.9167608537987" r="5" fill="blue" stroke="none" /><circle cx="195.81523649297088" cy="3238.381358480915" r="5" fill="blue" stroke="none" /><circle cx="206" cy="3352.2287817899205" r="5" fill="blue" stroke="none" /><circle cx="206" cy="3447.5769983062464" r="5" fill="blue" stroke="none" /><circle cx="206" cy="3362.2590855819776" r="5" fill="blue" stroke="none" /><circle cx="205.70161308487053" cy="3218.1337968838243" r="5" fill="blue" stroke="none" /><circle cx="206" cy="3382.336035349438" r="5" fill="blue" stroke="none" /><circle cx="206" cy="3157.87934127843" r="5" fill="blue" stroke="none" /><circle cx="200.40065615703364" cy="3283.42765426506" r="5" fill="blue" stroke="none" /><circle cx="205.6479611088633" cy="3258.814841281393" r="5" fill="blue" stroke="none" /><circle cx="206" cy="3195.2344139382317" r="5" fill="blue" stroke="none" /><circle cx="201.17979599446525" cy="2484" r="5" fill="blue" stroke="none" /><circle cx="203.836146562322" cy="3372.0415230372087" r="5" fill="blue" stroke="none" /><circle cx="206" cy="3170.6735424831213" r="5" fill="blue" stroke="none" /><circle cx="206" cy="3247.034506349646" r="5" fill="blue" stroke="none" /><circle cx="202.8855573046686" cy="3301.2584010616547" r="5" fill="blue" stroke="none" /><circle cx="197.99696249719642" cy="3267.113229997948" r="5" fill="blue" stroke="none" /><circle cx="204.9885018614559" cy="3414.170722361368" r="5" fill="blue" stroke="none" /><circle cx="205.95844089588115" cy="3183.0141844715954" r="5" fill="blue" stroke="none" /><circle cx="201.39278654688795" cy="3227.2898544760164" r="5" fill="blue" stroke="none" /><circle cx="191.8531352813944" cy="3278.207158785175" r="5" fill="blue" stroke="none" /><circle cx="196.28806851387216" cy="3319.7544806436995" r="5" fill="blue" stroke="none" /><circle cx="206" cy="3236.168693673277" r="5" fill="blue" stroke="none" /><circle cx="206" cy="3501.0452940609416" r="5" fill="blue" stroke="none" /><circle cx="206" cy="3342.2095299137313" r="5" fill="blue" stroke="none" /><circle cx="195.919796734657" cy="3308.489968133459" r="5" fill="blue" stroke="none" /><circle cx="206" cy="3322.1719867832894" r="5" fill="blue" stroke="none" /><circle cx="206" cy="3311.2234756080024" r="5" fill="blue" stroke="none" /><circle cx="206" cy="3332.1776815471662" r="5" fill="blue" stroke="none" /><circle cx="205.40879357946312" cy="3205.902380167623" r="5" fill="blue" stroke="none" /><circle cx="206" cy="3428.8525702036104" r="5" fill="blue" stroke="none" /><circle cx="205.8819411960156" cy="3143.6574801404167" r="5" fill="blue" stroke="none" /><circle cx="206" cy="3291.734379267491" r="5" fill="blue" stroke="none" /><circle cx="206" cy="3403.8614566451083" r="5" fill="blue" stroke="none" /><circle cx="204.08285773011946" cy="3392.706215527306" r="5" fill="blue" stroke="none" /></svg>