<svg viewBox="0 0 6863 7049" xmlns="http://www.w3.org/2000/svg"><rect x="0" y="0" width="6863" height="7049" fill="lightyellow" stroke="none "/><rect x="0" y="4721" width="1546" height="2328" fill="white" stroke="black "/><circle cx="2885" cy="4993" r="5" fill="green" stroke="none" /><circle cx="6481" cy="782" r="5" fill="green" stroke="none" /><circle cx="5815" cy="3909" r="5" fill="green" stroke="none" /><circle cx="1316" cy="2996" r="5" fill="green" stroke="none" /><circle cx="5609" cy="2042" r="5" fill="green" stroke="none" /><circle cx="5422" cy="2022" r="5" fill="green" stroke="none" /><circle cx="622" cy="3550" r="5" fill="green" stroke="none" /><circle cx="4187" cy="4801" r="5" fill="green" stroke="none" /><circle cx="2150" cy="2015" r="5" fill="green" stroke="none" /><circle cx="5794" cy="1657" r="5" fill="green" stroke="none" /><circle cx="5735" cy="664" r="5" fill="green" stroke="none" /><circle cx="2362" cy="2961" r="5" fill="green" stroke="none" /><circle cx="4758" cy="1406" r="5" fill="green" stroke="none" /><circle cx="5490" cy="5811" r="5" fill="green" stroke="none" /><circle cx="3382" cy="2594" r="5" fill="green" stroke="none" /><circle cx="5893" cy="5105" r="5" fill="green" stroke="none" /><circle cx="788" cy="3983" r="5" fill="green" stroke="none" /><circle cx="6197" cy="5886" r="5" fill="green" stroke="none" /><circle cx="72" cy="2774" r="5" fill="green" stroke="none" /><circle cx="1918" cy="5380" r="5" fill="green" stroke="none" /><circle cx="2890" cy="4874" r="5" fill="green" stroke="none" /><circle cx="2779" cy="5056" r="5" fill="green" stroke="none" /><circle cx="4968" cy="6897" r="5" fill="green" stroke="none" /><circle cx="6336" cy="342" r="5" fill="green" stroke="none" /><circle cx="3411" cy="5592" r="5" fill="green" stroke="none" /><circle cx="2794" cy="4723" r="5" fill="green" stroke="none" /><circle cx="1106" cy="4052" r="5" fill="green" stroke="none" /><circle cx="1609" cy="2346" r="5" fill="green" stroke="none" /><circle cx="3908" cy="1691" r="5" fill="green" stroke="none" /><circle cx="3281" cy="705" r="5" fill="green" stroke="none" /><circle cx="1840" cy="4453" r="5" fill="green" stroke="none" /><circle cx="2764" cy="6771" r="5" fill="green" stroke="none" /><circle cx="4372" cy="4027" r="5" fill="green" stroke="none" /><circle cx="5356" cy="2765" r="5" fill="green" stroke="none" /><circle cx="2378" cy="4185" r="5" fill="green" stroke="none" /><circle cx="3346" cy="6860" r="5" fill="green" stroke="none" /><circle cx="5899" cy="5248" r="5" fill="green" stroke="none" /><circle cx="3294" cy="6294" r="5" fill="green" stroke="none" /><circle cx="6109" cy="5314" r="5" fill="green" stroke="none" /><circle cx="5327" cy="5548" r="5" fill="green" stroke="none" /><circle cx="5035" cy="1821" r="5" fill="green" stroke="none" /><circle cx="5589" cy="229" r="5" fill="green" stroke="none" /><circle cx="3957" cy="1598" r="5" fill="green" stroke="none" /><circle cx="3807" cy="5097" r="5" fill="green" stroke="none" /><circle cx="4793" cy="923" r="5" fill="green" stroke="none" /><circle cx="3233" cy="3549" r="5" fill="green" stroke="none" /><circle cx="41" cy="2382" r="5" fill="green" stroke="none" /><circle cx="217" cy="4351" r="5" fill="green" stroke="none" /><circle cx="2665" cy="3145" r="5" fill="green" stroke="none" /><circle cx="1934" cy="3492" r="5" fill="green" stroke="none" /><circle cx="3631" cy="6613" r="5" fill="green" stroke="none" /><circle cx="5214" cy="5246" r="5" fill="green" stroke="none" /><circle cx="5516" cy="247" r="5" fill="green" stroke="none" /><circle cx="2334" cy="2559" r="5" fill="green" stroke="none" /><circle cx="2913" cy="2838" r="5" fill="green" stroke="none" /><circle cx="4162" cy="3693" r="5" fill="green" stroke="none" /><circle cx="6098" cy="4965" r="5" fill="green" stroke="none" /><circle cx="2684" cy="4505" r="5" fill="green" stroke="none" /><circle cx="3916" cy="208" r="5" fill="green" stroke="none" /><circle cx="6269" cy="1260" r="5" fill="green" stroke="none" /><circle cx="2003" cy="7015" r="5" fill="green" stroke="none" /><circle cx="4019" cy="4502" r="5" fill="green" stroke="none" /><circle cx="6772" cy="2834" r="5" fill="green" stroke="none" /><circle cx="3262" cy="1189" r="5" fill="green" stroke="none" /><circle cx="1219" cy="3289" r="5" fill="green" stroke="none" /><circle cx="2508" cy="5780" r="5" fill="green" stroke="none" /><circle cx="5286" cy="3787" r="5" fill="green" stroke="none" /><circle cx="870" cy="2683" r="5" fill="green" stroke="none" /><circle cx="3471" cy="264" r="5" fill="green" stroke="none" /><circle cx="2459" cy="3675" r="5" fill="green" stroke="none" /><circle cx="2105" cy="1659" r="5" fill="green" stroke="none" /><circle cx="1527" cy="3764" r="5" fill="green" stroke="none" /><circle cx="6583" cy="295" r="5" fill="green" stroke="none" /><circle cx="5219" cy="6001" r="5" fill="green" stroke="none" /><circle cx="6269" cy="6602" r="5" fill="green" stroke="none" /><circle cx="2714" cy="4642" r="5" fill="green" stroke="none" /><circle cx="2533" cy="1277" r="5" fill="green" stroke="none" /><circle cx="3999" cy="4033" r="5" fill="green" stroke="none" /><circle cx="2115" cy="2966" r="5" fill="green" stroke="none" /><circle cx="4817" cy="3949" r="5" fill="green" stroke="none" /><circle cx="3425" cy="3429" r="5" fill="green" stroke="none" /><circle cx="2433" cy="4363" r="5" fill="green" stroke="none" /><circle cx="6738" cy="2502" r="5" fill="green" stroke="none" /><circle cx="4131" cy="922" r="5" fill="green" stroke="none" /><circle cx="2592" cy="651" r="5" fill="green" stroke="none" /><circle cx="5958" cy="3498" r="5" fill="green" stroke="none" /><circle cx="1997" cy="6659" r="5" fill="green" stroke="none" /><circle cx="4987" cy="1894" r="5" fill="green" stroke="none" /><circle cx="2319" cy="4944" r="5" fill="green" stroke="none" /><circle cx="4856" cy="1455" r="5" fill="green" stroke="none" /><circle cx="2005" cy="488" r="5" fill="green" stroke="none" /><circle cx="4865" cy="1695" r="5" fill="green" stroke="none" /><circle cx="3922" cy="6148" r="5" fill="green" stroke="none" /><circle cx="1482" cy="373" r="5" fill="green" stroke="none" /><circle cx="2767" cy="1537" r="5" fill="green" stroke="none" /><circle cx="1495" cy="3848" r="5" fill="green" stroke="none" /><circle cx="3886" cy="1577" r="5" fill="green" stroke="none" /><circle cx="3647" cy="2743" r="5" fill="green" stroke="none" /><circle cx="4166" cy="6167" r="5" fill="green" stroke="none" /><circle cx="3344" cy="1860" r="5" fill="green" stroke="none" /><circle cx="2811" cy="4062" r="5" fill="green" stroke="none" /><circle cx="5718" cy="6935" r="5" fill="green" stroke="none" /><circle cx="4862" cy="2476" r="5" fill="green" stroke="none" /><circle cx="4471" cy="4868" r="5" fill="green" stroke="none" /><circle cx="1828" cy="6200" r="5" fill="green" stroke="none" /><circle cx="2565" cy="2276" r="5" fill="green" stroke="none" /><circle cx="5315" cy="5216" r="5" fill="green" stroke="none" /><circle cx="1561" cy="4981" r="5" fill="green" stroke="none" /><circle cx="3811" cy="6589" r="5" fill="green" stroke="none" /><circle cx="3217" cy="6942" r="5" fill="green" stroke="none" /><circle cx="3085" cy="7016" r="5" fill="green" stroke="none" /><circle cx="5854" cy="1909" r="5" fill="green" stroke="none" /><circle cx="215" cy="366" r="5" fill="green" stroke="none" /><circle cx="6178" cy="1372" r="5" fill="green" stroke="none" /><circle cx="5891" cy="6482" r="5" fill="green" stroke="none" /><circle cx="6142" cy="4287" r="5" fill="green" stroke="none" /><circle cx="5747" cy="3199" r="5" fill="green" stroke="none" /><circle cx="5936" cy="3985" r="5" fill="green" stroke="none" /><circle cx="1930" cy="3545" r="5" fill="green" stroke="none" /><circle cx="2263" cy="3380" r="5" fill="green" stroke="none" /><circle cx="1731" cy="1186" r="5" fill="green" stroke="none" /><circle cx="5342" cy="6090" r="5" fill="green" stroke="none" /><circle cx="2788" cy="1910" r="5" fill="green" stroke="none" /><circle cx="4089" cy="4077" r="5" fill="green" stroke="none" /><circle cx="5494" cy="4831" r="5" fill="green" stroke="none" /><circle cx="4397" cy="3373" r="5" fill="green" stroke="none" /><circle cx="2656" cy="2541" r="5" fill="green" stroke="none" /><circle cx="2792" cy="460" r="5" fill="green" stroke="none" /><circle cx="3448" cy="6912" r="5" fill="green" stroke="none" /><circle cx="887" cy="2422" r="5" fill="green" stroke="none" /><circle cx="4048" cy="562" r="5" fill="green" stroke="none" /><circle cx="3623" cy="5642" r="5" fill="green" stroke="none" /><circle cx="4016" cy="4476" r="5" fill="green" stroke="none" /><circle cx="3674" cy="1600" r="5" fill="green" stroke="none" /><circle cx="5651" cy="4443" r="5" fill="green" stroke="none" /><circle cx="6133" cy="4267" r="5" fill="green" stroke="none" /><circle cx="2555" cy="985" r="5" fill="green" stroke="none" /><circle cx="160" cy="1548" r="5" fill="green" stroke="none" /><circle cx="5863" cy="1982" r="5" fill="green" stroke="none" /><circle cx="1125" cy="2029" r="5" fill="green" stroke="none" /><circle cx="2934" cy="2720" r="5" fill="green" stroke="none" /><circle cx="4100" cy="1017" r="5" fill="green" stroke="none" /><circle cx="2297" cy="5546" r="5" fill="green" stroke="none" /><circle cx="3032" cy="1454" r="5" fill="green" stroke="none" /><circle cx="1083" cy="4229" r="5" fill="green" stroke="none" /><circle cx="7" cy="4545" r="5" fill="green" stroke="none" /><circle cx="6147" cy="6603" r="5" fill="green" stroke="none" /><circle cx="4855" cy="273" r="5" fill="green" stroke="none" /><circle cx="3586" cy="4845" r="5" fill="green" stroke="none" /><circle cx="2185" cy="784" r="5" fill="green" stroke="none" /><circle cx="6374" cy="2796" r="5" fill="green" stroke="none" /><circle cx="2017" cy="5022" r="5" fill="green" stroke="none" /><circle cx="2828" cy="2267" r="5" fill="green" stroke="none" /><circle cx="1526" cy="4415" r="5" fill="green" stroke="none" /><circle cx="5943" cy="307" r="5" fill="green" stroke="none" /><circle cx="5521" cy="6641" r="5" fill="green" stroke="none" /><circle cx="6252" cy="1804" r="5" fill="green" stroke="none" /><circle cx="2781" cy="5020" r="5" fill="green" stroke="none" /><circle cx="143" cy="2191" r="5" fill="green" stroke="none" /><circle cx="3116" cy="483" r="5" fill="green" stroke="none" /><circle cx="1330" cy="885" r="5" fill="green" stroke="none" /><circle cx="2182" cy="6964" r="5" fill="green" stroke="none" /><circle cx="1892" cy="5481" r="5" fill="green" stroke="none" /><circle cx="6194" cy="5841" r="5" fill="green" stroke="none" /><circle cx="3250" cy="4973" r="5" fill="green" stroke="none" /><circle cx="1933" cy="665" r="5" fill="green" stroke="none" /><circle cx="4412" cy="280" r="5" fill="green" stroke="none" /><circle cx="3584" cy="3210" r="5" fill="green" stroke="none" /><circle cx="2479" cy="6540" r="5" fill="green" stroke="none" /><circle cx="4388" cy="3128" r="5" fill="green" stroke="none" /><circle cx="5366" cy="429" r="5" fill="green" stroke="none" /><circle cx="2407" cy="5528" r="5" fill="green" stroke="none" /><circle cx="3251" cy="4398" r="5" fill="green" stroke="none" /><circle cx="6133" cy="2545" r="5" fill="green" stroke="none" /><circle cx="5038" cy="5113" r="5" fill="green" stroke="none" /><circle cx="3654" cy="2771" r="5" fill="green" stroke="none" /><circle cx="1341" cy="3856" r="5" fill="green" stroke="none" /><circle cx="1693" cy="4957" r="5" fill="green" stroke="none" /><circle cx="6677" cy="5834" r="5" fill="green" stroke="none" /><circle cx="2169" cy="4506" r="5" fill="green" stroke="none" /><circle cx="5502" cy="3607" r="5" fill="green" stroke="none" /><circle cx="3153" cy="5301" r="5" fill="green" stroke="none" /><circle cx="106" cy="2779" r="5" fill="green" stroke="none" /><circle cx="5552" cy="3192" r="5" fill="green" stroke="none" /><circle cx="5475" cy="2189" r="5" fill="green" stroke="none" /><circle cx="1584" cy="802" r="5" fill="green" stroke="none" /><circle cx="1250" cy="4392" r="5" fill="green" stroke="none" /><circle cx="3405" cy="1837" r="5" fill="green" stroke="none" /><circle cx="5894" cy="4417" r="5" fill="green" stroke="none" /><circle cx="6592" cy="1836" r="5" fill="green" stroke="none" /><circle cx="6303" cy="4257" r="5" fill="green" stroke="none" /><circle cx="3208" cy="3946" r="5" fill="green" stroke="none" /><circle cx="5854" cy="493" r="5" fill="green" stroke="none" /><circle cx="4610" cy="2796" r="5" fill="green" stroke="none" /><circle cx="3443" cy="2885" r="5" fill="green" stroke="none" /><circle cx="6836" cy="1601" r="5" fill="green" stroke="none" /><circle cx="6787" cy="759" r="5" fill="green" stroke="none" /><circle cx="1690" cy="5934" r="5" fill="green" stroke="none" /><circle cx="135" cy="2096" r="5" fill="green" stroke="none" /><circle cx="4844" cy="5443" r="5" fill="green" stroke="none" /><circle cx="3021" cy="6218" r="5" fill="green" stroke="none" /><circle cx="5063" cy="1578" r="5" fill="green" stroke="none" /><circle cx="3757" cy="6714" r="5" fill="green" stroke="none" /><circle cx="1035" cy="4615" r="5" fill="green" stroke="none" /><circle cx="6149" cy="3763" r="5" fill="green" stroke="none" /><circle cx="6316" cy="1776" r="5" fill="green" stroke="none" /><circle cx="2137" cy="5028" r="5" fill="green" stroke="none" /><circle cx="7" cy="352" r="5" fill="green" stroke="none" /><circle cx="6841" cy="4336" r="5" fill="green" stroke="none" /><circle cx="3589" cy="3298" r="5" fill="green" stroke="none" /><circle cx="2075" cy="4315" r="5" fill="green" stroke="none" /><circle cx="3314" cy="3134" r="5" fill="green" stroke="none" /><circle cx="623" cy="4550" r="5" fill="green" stroke="none" /><circle cx="5074" cy="3280" r="5" fill="green" stroke="none" /><circle cx="3291" cy="6294" r="5" fill="green" stroke="none" /><circle cx="1042" cy="1938" r="5" fill="green" stroke="none" /><circle cx="4365" cy="5769" r="5" fill="green" stroke="none" /><circle cx="866" cy="216" r="5" fill="green" stroke="none" /><circle cx="6157" cy="1649" r="5" fill="green" stroke="none" /><circle cx="5549" cy="6817" r="5" fill="green" stroke="none" /><circle cx="2286" cy="6570" r="5" fill="green" stroke="none" /><circle cx="3320" cy="3435" r="5" fill="green" stroke="none" /><circle cx="1330" cy="3664" r="5" fill="green" stroke="none" /><circle cx="6413" cy="5090" r="5" fill="green" stroke="none" /><circle cx="2887" cy="2760" r="5" fill="green" stroke="none" /><circle cx="2761" cy="5623" r="5" fill="green" stroke="none" /><circle cx="2159" cy="3810" r="5" fill="green" stroke="none" /><circle cx="1263" cy="4123" r="5" fill="green" stroke="none" /><circle cx="3110" cy="6892" r="5" fill="green" stroke="none" /><circle cx="5627" cy="3462" r="5" fill="green" stroke="none" /><circle cx="2324" cy="3835" r="5" fill="green" stroke="none" /><circle cx="2274" cy="2721" r="5" fill="green" stroke="none" /><circle cx="2864" cy="5218" r="5" fill="green" stroke="none" /><circle cx="1037" cy="1508" r="5" fill="green" stroke="none" /><circle cx="3968" cy="4540" r="5" fill="green" stroke="none" /><circle cx="4292" cy="2942" r="5" fill="green" stroke="none" /><circle cx="2972" cy="5349" r="5" fill="green" stroke="none" /><circle cx="705" cy="4597" r="5" fill="green" stroke="none" /><circle cx="4375" cy="1251" r="5" fill="green" stroke="none" /><circle cx="5097" cy="4429" r="5" fill="green" stroke="none" /><circle cx="5904" cy="1750" r="5" fill="green" stroke="none" /><circle cx="1194" cy="3019" r="5" fill="green" stroke="none" /><circle cx="750" cy="794" r="5" fill="green" stroke="none" /><circle cx="4529" cy="1067" r="5" fill="green" stroke="none" /><circle cx="3571" cy="4145" r="5" fill="green" stroke="none" /><circle cx="5412" cy="6009" r="5" fill="green" stroke="none" /><circle cx="6497" cy="3783" r="5" fill="green" stroke="none" /><circle cx="2269" cy="5481" r="5" fill="green" stroke="none" /><circle cx="3956" cy="6202" r="5" fill="green" stroke="none" /><circle cx="4145" cy="88" r="5" fill="green" stroke="none" /><circle cx="4174" cy="3531" r="5" fill="green" stroke="none" /><circle cx="1566" cy="3580" r="5" fill="green" stroke="none" /><circle cx="1172" cy="354" r="5" fill="green" stroke="none" /><circle cx="5899" cy="6944" r="5" fill="green" stroke="none" /><circle cx="3558" cy="4853" r="5" fill="green" stroke="none" /><circle cx="1604" cy="6593" r="5" fill="green" stroke="none" /><circle cx="2657" cy="6112" r="5" fill="green" stroke="none" /><circle cx="3644" cy="2490" r="5" fill="green" stroke="none" /><circle cx="1144" cy="1781" r="5" fill="green" stroke="none" /><circle cx="6388" cy="1437" r="5" fill="green" stroke="none" /><circle cx="6543" cy="3428" r="5" fill="green" stroke="none" /><circle cx="3077" cy="4703" r="5" fill="green" stroke="none" /><circle cx="4420" cy="4767" r="5" fill="green" stroke="none" /><circle cx="6801" cy="6556" r="5" fill="green" stroke="none" /><circle cx="4537" cy="2990" r="5" fill="green" stroke="none" /><circle cx="1537" cy="3740" r="5" fill="green" stroke="none" /><circle cx="2925" cy="1022" r="5" fill="green" stroke="none" /><circle cx="4685" cy="6393" r="5" fill="green" stroke="none" /><circle cx="5291" cy="6077" r="5" fill="green" stroke="none" /><circle cx="3545" cy="4496" r="5" fill="green" stroke="none" /><circle cx="2864" cy="5757" r="5" fill="green" stroke="none" /><circle cx="1441" cy="969" r="5" fill="green" stroke="none" /><circle cx="2523" cy="5362" r="5" fill="green" stroke="none" /><circle cx="127" cy="1245" r="5" fill="green" stroke="none" /><circle cx="1017" cy="1146" r="5" fill="green" stroke="none" /><circle cx="5586" cy="6771" r="5" fill="green" stroke="none" /><circle cx="6139" cy="5173" r="5" fill="green" stroke="none" /><circle cx="3919" cy="1042" r="5" fill="green" stroke="none" /><circle cx="3102" cy="5678" r="5" fill="green" stroke="none" /><circle cx="66" cy="1222" r="5" fill="green" stroke="none" /><circle cx="6293" cy="3069" r="5" fill="green" stroke="none" /><circle cx="7" cy="2260" r="5" fill="green" stroke="none" /><circle cx="2851" cy="4990" r="5" fill="green" stroke="none" /><circle cx="6351" cy="6262" r="5" fill="green" stroke="none" /><circle cx="3157" cy="1303" r="5" fill="green" stroke="none" /><circle cx="2899" cy="2589" r="5" fill="green" stroke="none" /><circle cx="1372" cy="2008" r="5" fill="green" stroke="none" /><circle cx="5906" cy="3360" r="5" fill="green" stroke="none" /><circle cx="6693" cy="3035" r="5" fill="green" stroke="none" /><circle cx="1802" cy="2156" r="5" fill="green" stroke="none" /><circle cx="3249" cy="4056" r="5" fill="green" stroke="none" /><circle cx="1481" cy="3784" r="5" fill="green" stroke="none" /><circle cx="4050" cy="5793" r="5" fill="green" stroke="none" /><circle cx="6762" cy="5345" r="5" fill="green" stroke="none" /><circle cx="3771" cy="3899" r="5" fill="green" stroke="none" /><circle cx="5930" cy="3882" r="5" fill="green" stroke="none" /><circle cx="5539" cy="5011" r="5" fill="green" stroke="none" /><circle cx="3259" cy="6379" r="5" fill="green" stroke="none" /><circle cx="2188" cy="5419" r="5" fill="green" stroke="none" /><circle cx="2239" cy="5790" r="5" fill="green" stroke="none" /><circle cx="1536" cy="5002.521074366923" r="5" fill="blue" stroke="none" /><circle cx="1536" cy="4851.878584441467" r="5" fill="blue" stroke="none" /><circle cx="662.0828322395887" cy="4731" r="5" fill="blue" stroke="none" /><circle cx="1536" cy="4962.2669927890565" r="5" fill="blue" stroke="none" /><circle cx="1536" cy="4952.218384448352" r="5" fill="blue" stroke="none" /><circle cx="1536" cy="5049.626182038576" r="5" fill="blue" stroke="none" /><circle cx="1536" cy="4878.658814849066" r="5" fill="blue" stroke="none" /><circle cx="1536" cy="5012.598120271507" r="5" fill="blue" stroke="none" /><circle cx="1536" cy="5035.0147109274785" r="5" fill="blue" stroke="none" /><circle cx="1536" cy="4916.881417953753" r="5" fill="blue" stroke="none" /><circle cx="1536" cy="4972.3393427920855" r="5" fill="blue" stroke="none" /><circle cx="1536" cy="5090.950732068054" r="5" fill="blue" stroke="none" /><circle cx="1536" cy="4942.158120055859" r="5" fill="blue" stroke="none" /><circle cx="1536" cy="4982.409954943185" r="5" fill="blue" stroke="none" /><circle cx="1536" cy="5067.824779276928" r="5" fill="blue" stroke="none" /><circle cx="1536" cy="4899.8845808011665" r="5" fill="blue" stroke="none" /><circle cx="1536" cy="5022.651881798555" r="5" fill="blue" stroke="none" /><circle cx="1536" cy="4992.448782924807" r="5" fill="blue" stroke="none" /><circle cx="1536" cy="4930.6467956695815" r="5" fill="blue" stroke="none" /></svg>