<svg viewBox="0 0 4922 2260" xmlns="http://www.w3.org/2000/svg"><rect x="0" y="0" width="4922" height="2260" fill="lightyellow" stroke="none "/><rect x="0" y="1786" width="626" height="474" fill="white" stroke="black "/><circle cx="355" cy="797" r="5" fill="green" stroke="none" /><circle cx="4177" cy="265" r="5" fill="green" stroke="none" /><circle cx="4014" cy="523" r="5" fill="green" stroke="none" /><circle cx="2176" cy="625" r="5" fill="green" stroke="none" /><circle cx="1493" cy="1804" r="5" fill="green" stroke="none" /><circle cx="498" cy="534" r="5" fill="green" stroke="none" /><circle cx="3820" cy="133" r="5" fill="green" stroke="none" /><circle cx="2153" cy="2089" r="5" fill="green" stroke="none" /><circle cx="4241" cy="148" r="5" fill="green" stroke="none" /><circle cx="3109" cy="2229" r="5" fill="green" stroke="none" /><circle cx="208" cy="437" r="5" fill="green" stroke="none" /><circle cx="4566" cy="959" r="5" fill="green" stroke="none" /><circle cx="569" cy="797" r="5" fill="green" stroke="none" /><circle cx="3126" cy="1546" r="5" fill="green" stroke="none" /><circle cx="3100" cy="812" r="5" fill="green" stroke="none" /><circle cx="740" cy="730" r="5" fill="green" stroke="none" /><circle cx="1366" cy="169" r="5" fill="green" stroke="none" /><circle cx="1374" cy="1613" r="5" fill="green" stroke="none" /><circle cx="2847" cy="138" r="5" fill="green" stroke="none" /><circle cx="4416" cy="973" r="5" fill="green" stroke="none" /><circle cx="4431" cy="234" r="5" fill="green" stroke="none" /><circle cx="1678" cy="1376" r="5" fill="green" stroke="none" /><circle cx="1890" cy="716" r="5" fill="green" stroke="none" /><circle cx="1205" cy="1270" r="5" fill="green" stroke="none" /><circle cx="1241" cy="2208" r="5" fill="green" stroke="none" /><circle cx="1271" cy="1926" r="5" fill="green" stroke="none" /><circle cx="1300" cy="1608" r="5" fill="green" stroke="none" /><circle cx="1055" cy="1911" r="5" fill="green" stroke="none" /><circle cx="4086" cy="1464" r="5" fill="green" stroke="none" /><circle cx="3154" cy="1623" r="5" fill="green" stroke="none" /><circle cx="1343" cy="1300" r="5" fill="green" stroke="none" /><circle cx="686" cy="575" r="5" fill="green" stroke="none" /><circle cx="3513" cy="1803" r="5" fill="green" stroke="none" /><circle cx="438" cy="1326" r="5" fill="green" stroke="none" /><circle cx="3753" cy="145" r="5" fill="green" stroke="none" /><circle cx="4738" cy="1785" r="5" fill="green" stroke="none" /><circle cx="4518" cy="314" r="5" fill="green" stroke="none" /><circle cx="832" cy="1360" r="5" fill="green" stroke="none" /><circle cx="1297" cy="2134" r="5" fill="green" stroke="none" /><circle cx="4291" cy="1822" r="5" fill="green" stroke="none" /><circle cx="4039" cy="771" r="5" fill="green" stroke="none" /><circle cx="2390" cy="2224" r="5" fill="green" stroke="none" /><circle cx="2524" cy="1331" r="5" fill="green" stroke="none" /><circle cx="4469" cy="955" r="5" fill="green" stroke="none" /><circle cx="3160" cy="947" r="5" fill="green" stroke="none" /><circle cx="2394" cy="1960" r="5" fill="green" stroke="none" /><circle cx="3801" cy="1414" r="5" fill="green" stroke="none" /><circle cx="3312" cy="87" r="5" fill="green" stroke="none" /><circle cx="4275" cy="352" r="5" fill="green" stroke="none" /><circle cx="1868" cy="1712" r="5" fill="green" stroke="none" /><circle cx="2281" cy="871" r="5" fill="green" stroke="none" /><circle cx="2387" cy="829" r="5" fill="green" stroke="none" /><circle cx="4642" cy="81" r="5" fill="green" stroke="none" /><circle cx="1104" cy="191" r="5" fill="green" stroke="none" /><circle cx="993" cy="1130" r="5" fill="green" stroke="none" /><circle cx="1881" cy="1392" r="5" fill="green" stroke="none" /><circle cx="2838" cy="1278" r="5" fill="green" stroke="none" /><circle cx="1838" cy="2000" r="5" fill="green" stroke="none" /><circle cx="886" cy="2007" r="5" fill="green" stroke="none" /><circle cx="498" cy="1696" r="5" fill="green" stroke="none" /><circle cx="1393" cy="1288" r="5" fill="green" stroke="none" /><circle cx="3226" cy="827" r="5" fill="green" stroke="none" /><circle cx="2720" cy="1764" r="5" fill="green" stroke="none" /><circle cx="3996" cy="1050" r="5" fill="green" stroke="none" /><circle cx="1511" cy="477" r="5" fill="green" stroke="none" /><circle cx="2377" cy="381" r="5" fill="green" stroke="none" /><circle cx="3938" cy="2084" r="5" fill="green" stroke="none" /><circle cx="3859" cy="1396" r="5" fill="green" stroke="none" /><circle cx="4913" cy="304" r="5" fill="green" stroke="none" /><circle cx="4518" cy="913" r="5" fill="green" stroke="none" /><circle cx="2529" cy="1262" r="5" fill="green" stroke="none" /><circle cx="719" cy="1723" r="5" fill="green" stroke="none" /><circle cx="1446" cy="1147" r="5" fill="green" stroke="none" /><circle cx="1528" cy="1305" r="5" fill="green" stroke="none" /><circle cx="798" cy="2146" r="5" fill="green" stroke="none" /><circle cx="1378" cy="2250" r="5" fill="green" stroke="none" /><circle cx="4644" cy="2111" r="5" fill="green" stroke="none" /><circle cx="1050" cy="225" r="5" fill="green" stroke="none" /><circle cx="1240" cy="791" r="5" fill="green" stroke="none" /><circle cx="4592" cy="1507" r="5" fill="green" stroke="none" /><circle cx="1899" cy="1418" r="5" fill="green" stroke="none" /><circle cx="3264" cy="963" r="5" fill="green" stroke="none" /><circle cx="2197" cy="171" r="5" fill="green" stroke="none" /><circle cx="3149" cy="2041" r="5" fill="green" stroke="none" /><circle cx="2642" cy="722" r="5" fill="green" stroke="none" /><circle cx="2667" cy="1505" r="5" fill="green" stroke="none" /><circle cx="4615" cy="1044" r="5" fill="green" stroke="none" /><circle cx="3615" cy="605" r="5" fill="green" stroke="none" /><circle cx="3288" cy="636" r="5" fill="green" stroke="none" /><circle cx="1983" cy="1085" r="5" fill="green" stroke="none" /><circle cx="414" cy="100" r="5" fill="green" stroke="none" /><circle cx="1524" cy="690" r="5" fill="green" stroke="none" /><circle cx="4744" cy="1431" r="5" fill="green" stroke="none" /><circle cx="4307" cy="368" r="5" fill="green" stroke="none" /><circle cx="1849" cy="839" r="5" fill="green" stroke="none" /><circle cx="3928" cy="1167" r="5" fill="green" stroke="none" /><circle cx="2448" cy="652" r="5" fill="green" stroke="none" /><circle cx="3252" cy="747" r="5" fill="green" stroke="none" /><circle cx="3086" cy="2051" r="5" fill="green" stroke="none" /><circle cx="2509" cy="547" r="5" fill="green" stroke="none" /><circle cx="192" cy="89" r="5" fill="green" stroke="none" /><circle cx="4245" cy="235" r="5" fill="green" stroke="none" /><circle cx="270" cy="1420" r="5" fill="green" stroke="none" /><circle cx="3647" cy="1096" r="5" fill="green" stroke="none" /><circle cx="518" cy="1534" r="5" fill="green" stroke="none" /><circle cx="2234" cy="1160" r="5" fill="green" stroke="none" /><circle cx="686" cy="1464" r="5" fill="green" stroke="none" /><circle cx="4852" cy="1313" r="5" fill="green" stroke="none" /><circle cx="3760" cy="1202" r="5" fill="green" stroke="none" /><circle cx="2270" cy="1638" r="5" fill="green" stroke="none" /><circle cx="4099" cy="803" r="5" fill="green" stroke="none" /><circle cx="3862" cy="2038" r="5" fill="green" stroke="none" /><circle cx="2330" cy="707" r="5" fill="green" stroke="none" /><circle cx="4837" cy="22" r="5" fill="green" stroke="none" /><circle cx="1467" cy="50" r="5" fill="green" stroke="none" /><circle cx="982" cy="43" r="5" fill="green" stroke="none" /><circle cx="747" cy="1434" r="5" fill="green" stroke="none" /><circle cx="3857" cy="2211" r="5" fill="green" stroke="none" /><circle cx="4162" cy="50" r="5" fill="green" stroke="none" /><circle cx="3837" cy="1374" r="5" fill="green" stroke="none" /><circle cx="2780" cy="2121" r="5" fill="green" stroke="none" /><circle cx="3351" cy="918" r="5" fill="green" stroke="none" /><circle cx="1674" cy="2017" r="5" fill="green" stroke="none" /><circle cx="246" cy="367" r="5" fill="green" stroke="none" /><circle cx="966" cy="406" r="5" fill="green" stroke="none" /><circle cx="1878" cy="559" r="5" fill="green" stroke="none" /><circle cx="449" cy="166" r="5" fill="green" stroke="none" /><circle cx="1502" cy="773" r="5" fill="green" stroke="none" /><circle cx="1857" cy="1773" r="5" fill="green" stroke="none" /><circle cx="1118" cy="1540" r="5" fill="green" stroke="none" /><circle cx="3525" cy="398" r="5" fill="green" stroke="none" /><circle cx="3217" cy="1018" r="5" fill="green" stroke="none" /><circle cx="1251" cy="1829" r="5" fill="green" stroke="none" /><circle cx="1981" cy="625" r="5" fill="green" stroke="none" /><circle cx="3338" cy="468" r="5" fill="green" stroke="none" /><circle cx="1975" cy="1174" r="5" fill="green" stroke="none" /><circle cx="2397" cy="368" r="5" fill="green" stroke="none" /><circle cx="2072" cy="1144" r="5" fill="green" stroke="none" /><circle cx="1703" cy="65" r="5" fill="green" stroke="none" /><circle cx="4121" cy="1169" r="5" fill="green" stroke="none" /><circle cx="1965" cy="1100" r="5" fill="green" stroke="none" /><circle cx="4894" cy="2212" r="5" fill="green" stroke="none" /><circle cx="4033" cy="410" r="5" fill="green" stroke="none" /><circle cx="3051" cy="438" r="5" fill="green" stroke="none" /><circle cx="631" cy="1386" r="5" fill="green" stroke="none" /><circle cx="642" cy="996" r="5" fill="green" stroke="none" /><circle cx="1048" cy="870" r="5" fill="green" stroke="none" /><circle cx="1733" cy="1827" r="5" fill="green" stroke="none" /><circle cx="2213" cy="1438" r="5" fill="green" stroke="none" /><circle cx="1131" cy="157" r="5" fill="green" stroke="none" /><circle cx="4664" cy="39" r="5" fill="green" stroke="none" /><circle cx="487" cy="234" r="5" fill="green" stroke="none" /><circle cx="3152" cy="356" r="5" fill="green" stroke="none" /><circle cx="4635" cy="1832" r="5" fill="green" stroke="none" /><circle cx="1846" cy="1588" r="5" fill="green" stroke="none" /><circle cx="2492" cy="386" r="5" fill="green" stroke="none" /><circle cx="471" cy="1635" r="5" fill="green" stroke="none" /><circle cx="2908" cy="1060" r="5" fill="green" stroke="none" /><circle cx="3630" cy="519" r="5" fill="green" stroke="none" /><circle cx="2114" cy="793" r="5" fill="green" stroke="none" /><circle cx="2219" cy="2011" r="5" fill="green" stroke="none" /><circle cx="708" cy="1662" r="5" fill="green" stroke="none" /><circle cx="795" cy="876" r="5" fill="green" stroke="none" /><circle cx="3282" cy="834" r="5" fill="green" stroke="none" /><circle cx="3046" cy="645" r="5" fill="green" stroke="none" /><circle cx="1047" cy="318" r="5" fill="green" stroke="none" /><circle cx="4568" cy="315" r="5" fill="green" stroke="none" /><circle cx="2268" cy="2242" r="5" fill="green" stroke="none" /><circle cx="1537" cy="1175" r="5" fill="green" stroke="none" /><circle cx="4859" cy="2250" r="5" fill="green" stroke="none" /><circle cx="3307" cy="384" r="5" fill="green" stroke="none" /><circle cx="314" cy="1639" r="5" fill="green" stroke="none" /><circle cx="4835" cy="2057" r="5" fill="green" stroke="none" /><circle cx="2129" cy="341" r="5" fill="green" stroke="none" /><circle cx="2700" cy="1325" r="5" fill="green" stroke="none" /><circle cx="2130" cy="1232" r="5" fill="green" stroke="none" /><circle cx="4331" cy="346" r="5" fill="green" stroke="none" /><circle cx="3651" cy="275" r="5" fill="green" stroke="none" /><circle cx="1439" cy="1376" r="5" fill="green" stroke="none" /><circle cx="2307" cy="1557" r="5" fill="green" stroke="none" /><circle cx="3201" cy="859" r="5" fill="green" stroke="none" /><circle cx="2149" cy="1196" r="5" fill="green" stroke="none" /><circle cx="882" cy="1044" r="5" fill="green" stroke="none" /><circle cx="3236" cy="91" r="5" fill="green" stroke="none" /><circle cx="2486" cy="2055" r="5" fill="green" stroke="none" /><circle cx="4338" cy="2260" r="5" fill="green" stroke="none" /><circle cx="3828" cy="801" r="5" fill="green" stroke="none" /><circle cx="179" cy="791" r="5" fill="green" stroke="none" /><circle cx="4371" cy="1122" r="5" fill="green" stroke="none" /><circle cx="1742" cy="2060" r="5" fill="green" stroke="none" /><circle cx="4833" cy="1557" r="5" fill="green" stroke="none" /><circle cx="766" cy="711" r="5" fill="green" stroke="none" /><circle cx="2519" cy="2180" r="5" fill="green" stroke="none" /><circle cx="4088" cy="253" r="5" fill="green" stroke="none" /><circle cx="1192" cy="268" r="5" fill="green" stroke="none" /><circle cx="330" cy="491" r="5" fill="green" stroke="none" /><circle cx="1095" cy="1394" r="5" fill="green" stroke="none" /><circle cx="2064" cy="1820" r="5" fill="green" stroke="none" /><circle cx="1961" cy="1379" r="5" fill="green" stroke="none" /><circle cx="4466" cy="309" r="5" fill="green" stroke="none" /><circle cx="2963" cy="1620" r="5" fill="green" stroke="none" /><circle cx="1892" cy="956" r="5" fill="green" stroke="none" /><circle cx="3492" cy="627" r="5" fill="green" stroke="none" /><circle cx="3731" cy="759" r="5" fill="green" stroke="none" /><circle cx="2553" cy="2149" r="5" fill="green" stroke="none" /><circle cx="2453" cy="1693" r="5" fill="green" stroke="none" /><circle cx="2933" cy="1409" r="5" fill="green" stroke="none" /><circle cx="3233" cy="231" r="5" fill="green" stroke="none" /><circle cx="3659" cy="1019" r="5" fill="green" stroke="none" /><circle cx="4317" cy="905" r="5" fill="green" stroke="none" /><circle cx="4067" cy="381" r="5" fill="green" stroke="none" /><circle cx="2548" cy="1554" r="5" fill="green" stroke="none" /><circle cx="614" cy="962" r="5" fill="green" stroke="none" /><circle cx="4916" cy="1912" r="5" fill="green" stroke="none" /><circle cx="2202" cy="793" r="5" fill="green" stroke="none" /><circle cx="556" cy="801" r="5" fill="green" stroke="none" /><circle cx="1808" cy="1991" r="5" fill="green" stroke="none" /><circle cx="757" cy="300" r="5" fill="green" stroke="none" /><circle cx="1820" cy="432" r="5" fill="green" stroke="none" /><circle cx="2906" cy="2025" r="5" fill="green" stroke="none" /><circle cx="4273" cy="1801" r="5" fill="green" stroke="none" /><circle cx="4203" cy="67" r="5" fill="green" stroke="none" /><circle cx="3839" cy="1231" r="5" fill="green" stroke="none" /><circle cx="2444" cy="1947" r="5" fill="green" stroke="none" /><circle cx="4099" cy="1472" r="5" fill="green" stroke="none" /><circle cx="3262" cy="783" r="5" fill="green" stroke="none" /><circle cx="2508" cy="1151" r="5" fill="green" stroke="none" /><circle cx="3824" cy="1097" r="5" fill="green" stroke="none" /><circle cx="2728" cy="2146" r="5" fill="green" stroke="none" /><circle cx="3967" cy="1842" r="5" fill="green" stroke="none" /><circle cx="3448" cy="1326" r="5" fill="green" stroke="none" /><circle cx="3405" cy="805" r="5" fill="green" stroke="none" /><circle cx="3252" cy="1399" r="5" fill="green" stroke="none" /><circle cx="276" cy="425" r="5" fill="green" stroke="none" /><circle cx="533" cy="469" r="5" fill="green" stroke="none" /><circle cx="1754" cy="2237" r="5" fill="green" stroke="none" /><circle cx="3612" cy="1080" r="5" fill="green" stroke="none" /><circle cx="4337" cy="1101" r="5" fill="green" stroke="none" /><circle cx="1266" cy="419" r="5" fill="green" stroke="none" /><circle cx="4792" cy="1928" r="5" fill="green" stroke="none" /><circle cx="746" cy="1857" r="5" fill="green" stroke="none" /><circle cx="1512" cy="1042" r="5" fill="green" stroke="none" /><circle cx="3432" cy="1067" r="5" fill="green" stroke="none" /><circle cx="3353" cy="28" r="5" fill="green" stroke="none" /><circle cx="4567" cy="664" r="5" fill="green" stroke="none" /><circle cx="1827" cy="1196" r="5" fill="green" stroke="none" /><circle cx="3588" cy="532" r="5" fill="green" stroke="none" /><circle cx="4134" cy="1943" r="5" fill="green" stroke="none" /><circle cx="1887" cy="133" r="5" fill="green" stroke="none" /><circle cx="3906" cy="1687" r="5" fill="green" stroke="none" /><circle cx="4553" cy="1160" r="5" fill="green" stroke="none" /><circle cx="881" cy="829" r="5" fill="green" stroke="none" /><circle cx="1782" cy="199" r="5" fill="green" stroke="none" /><circle cx="4109" cy="1243" r="5" fill="green" stroke="none" /><circle cx="1709" cy="1529" r="5" fill="green" stroke="none" /><circle cx="1593" cy="467" r="5" fill="green" stroke="none" /><circle cx="4313" cy="1832" r="5" fill="green" stroke="none" /><circle cx="640" cy="1988" r="5" fill="green" stroke="none" /><circle cx="4854" cy="1547" r="5" fill="green" stroke="none" /><circle cx="4298" cy="105" r="5" fill="green" stroke="none" /><circle cx="2498" cy="1344" r="5" fill="green" stroke="none" /><circle cx="146" cy="1505" r="5" fill="green" stroke="none" /><circle cx="4184" cy="1292" r="5" fill="green" stroke="none" /><circle cx="3622" cy="613" r="5" fill="green" stroke="none" /><circle cx="2316" cy="232" r="5" fill="green" stroke="none" /><circle cx="2410" cy="2139" r="5" fill="green" stroke="none" /><circle cx="4859" cy="1471" r="5" fill="green" stroke="none" /><circle cx="1529" cy="2097" r="5" fill="green" stroke="none" /><circle cx="1401" cy="912" r="5" fill="green" stroke="none" /><circle cx="1085" cy="515" r="5" fill="green" stroke="none" /><circle cx="3795" cy="2231" r="5" fill="green" stroke="none" /><circle cx="2872" cy="825" r="5" fill="green" stroke="none" /><circle cx="2954" cy="2014" r="5" fill="green" stroke="none" /><circle cx="3881" cy="1579" r="5" fill="green" stroke="none" /><circle cx="4444" cy="858" r="5" fill="green" stroke="none" /><circle cx="831" cy="1247" r="5" fill="green" stroke="none" /><circle cx="4649" cy="174" r="5" fill="green" stroke="none" /><circle cx="848" cy="181" r="5" fill="green" stroke="none" /><circle cx="1695" cy="1771" r="5" fill="green" stroke="none" /><circle cx="18" cy="1691" r="5" fill="green" stroke="none" /><circle cx="2685" cy="1134" r="5" fill="green" stroke="none" /><circle cx="731" cy="1739" r="5" fill="green" stroke="none" /><circle cx="2021" cy="1951" r="5" fill="green" stroke="none" /><circle cx="4103" cy="1747" r="5" fill="green" stroke="none" /><circle cx="3340" cy="1313" r="5" fill="green" stroke="none" /><circle cx="2455" cy="394" r="5" fill="green" stroke="none" /><circle cx="3130" cy="1302" r="5" fill="green" stroke="none" /><circle cx="769" cy="2193" r="5" fill="green" stroke="none" /><circle cx="4527" cy="307" r="5" fill="green" stroke="none" /><circle cx="870" cy="2174" r="5" fill="green" stroke="none" /><circle cx="966" cy="738" r="5" fill="green" stroke="none" /><circle cx="4794" cy="2198" r="5" fill="green" stroke="none" /><circle cx="2246" cy="1173" r="5" fill="green" stroke="none" /><circle cx="1044" cy="561" r="5" fill="green" stroke="none" /><circle cx="759" cy="2167" r="5" fill="green" stroke="none" /><circle cx="1491" cy="310" r="5" fill="green" stroke="none" /><circle cx="2170" cy="940" r="5" fill="green" stroke="none" /><circle cx="481" cy="1734" r="5" fill="green" stroke="none" /><circle cx="4495" cy="1888" r="5" fill="green" stroke="none" /><circle cx="4420" cy="2068" r="5" fill="green" stroke="none" /><circle cx="616" cy="1828.156073048842" r="5" fill="blue" stroke="none" /><circle cx="616" cy="1968.7695839843686" r="5" fill="blue" stroke="none" /><circle cx="482.7115723801298" cy="1796" r="5" fill="blue" stroke="none" /><circle cx="555.1076816471555" cy="1797.5727409356655" r="5" fill="blue" stroke="none" /><circle cx="616" cy="2029.260586712395" r="5" fill="blue" stroke="none" /><circle cx="616" cy="2009.2499740649769" r="5" fill="blue" stroke="none" /><circle cx="606.3705222592555" cy="1996.533878270852" r="5" fill="blue" stroke="none" /><circle cx="615.5673424321152" cy="2086.980633152683" r="5" fill="blue" stroke="none" /><circle cx="615.9711883959759" cy="2043.5705749836527" r="5" fill="blue" stroke="none" /><circle cx="528.9297289250784" cy="1799.447132610102" r="5" fill="blue" stroke="none" /><circle cx="454.65778670101577" cy="1796" r="5" fill="blue" stroke="none" /><circle cx="492.7266112558204" cy="1796" r="5" fill="blue" stroke="none" /><circle cx="615.9370605130533" cy="1946.3918699761048" r="5" fill="blue" stroke="none" /><circle cx="513.767549930355" cy="1798.402059287821" r="5" fill="blue" stroke="none" /><circle cx="443.6823257581702" cy="1798.825924757296" r="5" fill="blue" stroke="none" /><circle cx="614.2137476814011" cy="1810.4084136731694" r="5" fill="blue" stroke="none" /><circle cx="580.4124860789199" cy="1797.011539153059" r="5" fill="blue" stroke="none" /><circle cx="463.39630020463034" cy="1800.8625105424694" r="5" fill="blue" stroke="none" /><circle cx="606.6175577833874" cy="1982.2306606411953" r="5" fill="blue" stroke="none" /><circle cx="603.2752441081533" cy="1796" r="5" fill="blue" stroke="none" /><circle cx="616" cy="1893.6706069220645" r="5" fill="blue" stroke="none" /><circle cx="616" cy="2060.612031060877" r="5" fill="blue" stroke="none" /><circle cx="472.8220423409633" cy="1797.4949144006841" r="5" fill="blue" stroke="none" /><circle cx="616" cy="1796" r="5" fill="blue" stroke="none" /><circle cx="433.83921444997173" cy="1796.1427138666013" r="5" fill="blue" stroke="none" /><circle cx="616" cy="1978.769649295839" r="5" fill="blue" stroke="none" /><circle cx="616" cy="1988.9266691350422" r="5" fill="blue" stroke="none" /><circle cx="616" cy="1862.3889904322439" r="5" fill="blue" stroke="none" /><circle cx="381.1093817863218" cy="1796.0428740466114" r="5" fill="blue" stroke="none" /><circle cx="502.7276617620622" cy="1796" r="5" fill="blue" stroke="none" /><circle cx="616" cy="2019.2501337835326" r="5" fill="blue" stroke="none" /><circle cx="616" cy="1958.7693300830078" r="5" fill="blue" stroke="none" /><circle cx="616" cy="1999.2493215664265" r="5" fill="blue" stroke="none" /><circle cx="412.875723517596" cy="1796" r="5" fill="blue" stroke="none" /></svg>