<svg viewBox="0 0 7314 6807" xmlns="http://www.w3.org/2000/svg"><rect x="0" y="0" width="7314" height="6807" fill="lightyellow" stroke="none "/><rect x="2076" y="1695" width="542" height="1606" fill="white" stroke="black "/><circle cx="2950" cy="2979" r="5" fill="green" stroke="none" /><circle cx="151" cy="1382" r="5" fill="green" stroke="none" /><circle cx="844" cy="2862" r="5" fill="green" stroke="none" /><circle cx="1956" cy="2738" r="5" fill="green" stroke="none" /><circle cx="6326" cy="5289" r="5" fill="green" stroke="none" /><circle cx="4046" cy="1224" r="5" fill="green" stroke="none" /><circle cx="2795" cy="322" r="5" fill="green" stroke="none" /><circle cx="5601" cy="246" r="5" fill="green" stroke="none" /><circle cx="5474" cy="4682" r="5" fill="green" stroke="none" /><circle cx="5729" cy="5718" r="5" fill="green" stroke="none" /><circle cx="1904" cy="3057" r="5" fill="green" stroke="none" /><circle cx="2967" cy="4072" r="5" fill="green" stroke="none" /><circle cx="6890" cy="2400" r="5" fill="green" stroke="none" /><circle cx="3961" cy="2864" r="5" fill="green" stroke="none" /><circle cx="1643" cy="2296" r="5" fill="green" stroke="none" /><circle cx="663" cy="3483" r="5" fill="green" stroke="none" /><circle cx="1139" cy="2853" r="5" fill="green" stroke="none" /><circle cx="3977" cy="2610" r="5" fill="green" stroke="none" /><circle cx="6249" cy="4932" r="5" fill="green" stroke="none" /><circle cx="3374" cy="3128" r="5" fill="green" stroke="none" /><circle cx="4260" cy="5461" r="5" fill="green" stroke="none" /><circle cx="3278" cy="1251" r="5" fill="green" stroke="none" /><circle cx="5347" cy="3990" r="5" fill="green" stroke="none" /><circle cx="7156" cy="1043" r="5" fill="green" stroke="none" /><circle cx="3597" cy="5678" r="5" fill="green" stroke="none" /><circle cx="5292" cy="80" r="5" fill="green" stroke="none" /><circle cx="5154" cy="135" r="5" fill="green" stroke="none" /><circle cx="3143" cy="4769" r="5" fill="green" stroke="none" /><circle cx="4780" cy="2517" r="5" fill="green" stroke="none" /><circle cx="2440" cy="3812" r="5" fill="green" stroke="none" /><circle cx="4456" cy="382" r="5" fill="green" stroke="none" /><circle cx="4657" cy="1289" r="5" fill="green" stroke="none" /><circle cx="1781" cy="6505" r="5" fill="green" stroke="none" /><circle cx="7098" cy="760" r="5" fill="green" stroke="none" /><circle cx="5315" cy="4899" r="5" fill="green" stroke="none" /><circle cx="5993" cy="381" r="5" fill="green" stroke="none" /><circle cx="5351" cy="5754" r="5" fill="green" stroke="none" /><circle cx="7050" cy="1584" r="5" fill="green" stroke="none" /><circle cx="5836" cy="5709" r="5" fill="green" stroke="none" /><circle cx="5582" cy="207" r="5" fill="green" stroke="none" /><circle cx="5569" cy="6112" r="5" fill="green" stroke="none" /><circle cx="1543" cy="4181" r="5" fill="green" stroke="none" /><circle cx="4161" cy="1995" r="5" fill="green" stroke="none" /><circle cx="898" cy="2539" r="5" fill="green" stroke="none" /><circle cx="3559" cy="1234" r="5" fill="green" stroke="none" /><circle cx="3173" cy="4745" r="5" fill="green" stroke="none" /><circle cx="7286" cy="1464" r="5" fill="green" stroke="none" /><circle cx="2243" cy="232" r="5" fill="green" stroke="none" /><circle cx="4550" cy="3102" r="5" fill="green" stroke="none" /><circle cx="2850" cy="4917" r="5" fill="green" stroke="none" /><circle cx="4335" cy="4863" r="5" fill="green" stroke="none" /><circle cx="6921" cy="3535" r="5" fill="green" stroke="none" /><circle cx="3391" cy="1455" r="5" fill="green" stroke="none" /><circle cx="303" cy="3385" r="5" fill="green" stroke="none" /><circle cx="6766" cy="3248" r="5" fill="green" stroke="none" /><circle cx="4579" cy="4718" r="5" fill="green" stroke="none" /><circle cx="4012" cy="1779" r="5" fill="green" stroke="none" /><circle cx="3392" cy="1792" r="5" fill="green" stroke="none" /><circle cx="5544" cy="5100" r="5" fill="green" stroke="none" /><circle cx="1239" cy="886" r="5" fill="green" stroke="none" /><circle cx="1921" cy="2756" r="5" fill="green" stroke="none" /><circle cx="3748" cy="3107" r="5" fill="green" stroke="none" /><circle cx="293" cy="3524" r="5" fill="green" stroke="none" /><circle cx="5259" cy="6701" r="5" fill="green" stroke="none" /><circle cx="6447" cy="1087" r="5" fill="green" stroke="none" /><circle cx="6979" cy="2238" r="5" fill="green" stroke="none" /><circle cx="3234" cy="6628" r="5" fill="green" stroke="none" /><circle cx="5751" cy="2547" r="5" fill="green" stroke="none" /><circle cx="6014" cy="5641" r="5" fill="green" stroke="none" /><circle cx="3011" cy="1196" r="5" fill="green" stroke="none" /><circle cx="1532" cy="918" r="5" fill="green" stroke="none" /><circle cx="3492" cy="5962" r="5" fill="green" stroke="none" /><circle cx="2722" cy="5506" r="5" fill="green" stroke="none" /><circle cx="5252" cy="3405" r="5" fill="green" stroke="none" /><circle cx="7053" cy="1575" r="5" fill="green" stroke="none" /><circle cx="1689" cy="1738" r="5" fill="green" stroke="none" /><circle cx="2824" cy="4627" r="5" fill="green" stroke="none" /><circle cx="682" cy="4678" r="5" fill="green" stroke="none" /><circle cx="2142" cy="350" r="5" fill="green" stroke="none" /><circle cx="5203" cy="489" r="5" fill="green" stroke="none" /><circle cx="5171" cy="1385" r="5" fill="green" stroke="none" /><circle cx="5934" cy="5367" r="5" fill="green" stroke="none" /><circle cx="4447" cy="115" r="5" fill="green" stroke="none" /><circle cx="975" cy="6301" r="5" fill="green" stroke="none" /><circle cx="3651" cy="5573" r="5" fill="green" stroke="none" /><circle cx="4465" cy="982" r="5" fill="green" stroke="none" /><circle cx="2104" cy="1304" r="5" fill="green" stroke="none" /><circle cx="3980" cy="217" r="5" fill="green" stroke="none" /><circle cx="3636" cy="3561" r="5" fill="green" stroke="none" /><circle cx="36" cy="1153" r="5" fill="green" stroke="none" /><circle cx="1374" cy="728" r="5" fill="green" stroke="none" /><circle cx="779" cy="1833" r="5" fill="green" stroke="none" /><circle cx="1179" cy="2730" r="5" fill="green" stroke="none" /><circle cx="2978" cy="4430" r="5" fill="green" stroke="none" /><circle cx="6814" cy="3201" r="5" fill="green" stroke="none" /><circle cx="5630" cy="2138" r="5" fill="green" stroke="none" /><circle cx="5294" cy="4009" r="5" fill="green" stroke="none" /><circle cx="3808" cy="1381" r="5" fill="green" stroke="none" /><circle cx="5061" cy="4837" r="5" fill="green" stroke="none" /><circle cx="5137" cy="3495" r="5" fill="green" stroke="none" /><circle cx="2227" cy="1463" r="5" fill="green" stroke="none" /><circle cx="5971" cy="1272" r="5" fill="green" stroke="none" /><circle cx="6695" cy="4152" r="5" fill="green" stroke="none" /><circle cx="3450" cy="3506" r="5" fill="green" stroke="none" /><circle cx="47" cy="6478" r="5" fill="green" stroke="none" /><circle cx="813" cy="4838" r="5" fill="green" stroke="none" /><circle cx="1037" cy="1042" r="5" fill="green" stroke="none" /><circle cx="4725" cy="5174" r="5" fill="green" stroke="none" /><circle cx="4455" cy="912" r="5" fill="green" stroke="none" /><circle cx="4630" cy="2802" r="5" fill="green" stroke="none" /><circle cx="2940" cy="1910" r="5" fill="green" stroke="none" /><circle cx="1051" cy="2933" r="5" fill="green" stroke="none" /><circle cx="2942" cy="2421" r="5" fill="green" stroke="none" /><circle cx="2789" cy="4454" r="5" fill="green" stroke="none" /><circle cx="1207" cy="3091" r="5" fill="green" stroke="none" /><circle cx="4568" cy="4951" r="5" fill="green" stroke="none" /><circle cx="4764" cy="1386" r="5" fill="green" stroke="none" /><circle cx="763" cy="3411" r="5" fill="green" stroke="none" /><circle cx="7042" cy="285" r="5" fill="green" stroke="none" /><circle cx="2404" cy="4736" r="5" fill="green" stroke="none" /><circle cx="4498" cy="2778" r="5" fill="green" stroke="none" /><circle cx="1827" cy="4320" r="5" fill="green" stroke="none" /><circle cx="6438" cy="4887" r="5" fill="green" stroke="none" /><circle cx="1444" cy="5082" r="5" fill="green" stroke="none" /><circle cx="6071" cy="5861" r="5" fill="green" stroke="none" /><circle cx="1900" cy="1702" r="5" fill="green" stroke="none" /><circle cx="2453" cy="1143" r="5" fill="green" stroke="none" /><circle cx="4682" cy="4557" r="5" fill="green" stroke="none" /><circle cx="203" cy="5496" r="5" fill="green" stroke="none" /><circle cx="1907" cy="441" r="5" fill="green" stroke="none" /><circle cx="7178" cy="6589" r="5" fill="green" stroke="none" /><circle cx="6704" cy="5933" r="5" fill="green" stroke="none" /><circle cx="4435" cy="5698" r="5" fill="green" stroke="none" /><circle cx="336" cy="4459" r="5" fill="green" stroke="none" /><circle cx="2733" cy="2721" r="5" fill="green" stroke="none" /><circle cx="6820" cy="4520" r="5" fill="green" stroke="none" /><circle cx="4728" cy="6038" r="5" fill="green" stroke="none" /><circle cx="1410" cy="5571" r="5" fill="green" stroke="none" /><circle cx="4127" cy="3278" r="5" fill="green" stroke="none" /><circle cx="1813" cy="484" r="5" fill="green" stroke="none" /><circle cx="3462" cy="4906" r="5" fill="green" stroke="none" /><circle cx="423" cy="5464" r="5" fill="green" stroke="none" /><circle cx="77" cy="2902" r="5" fill="green" stroke="none" /><circle cx="4032" cy="4001" r="5" fill="green" stroke="none" /><circle cx="3875" cy="880" r="5" fill="green" stroke="none" /><circle cx="355" cy="2091" r="5" fill="green" stroke="none" /><circle cx="910" cy="2074" r="5" fill="green" stroke="none" /><circle cx="5688" cy="1007" r="5" fill="green" stroke="none" /><circle cx="6137" cy="5800" r="5" fill="green" stroke="none" /><circle cx="6256" cy="5264" r="5" fill="green" stroke="none" /><circle cx="6935" cy="1476" r="5" fill="green" stroke="none" /><circle cx="4674" cy="98" r="5" fill="green" stroke="none" /><circle cx="772" cy="3919" r="5" fill="green" stroke="none" /><circle cx="1080" cy="5937" r="5" fill="green" stroke="none" /><circle cx="3819" cy="3152" r="5" fill="green" stroke="none" /><circle cx="1851" cy="4113" r="5" fill="green" stroke="none" /><circle cx="6646" cy="3610" r="5" fill="green" stroke="none" /><circle cx="6316" cy="3063" r="5" fill="green" stroke="none" /><circle cx="6671" cy="4331" r="5" fill="green" stroke="none" /><circle cx="6304" cy="4957" r="5" fill="green" stroke="none" /><circle cx="5891" cy="3889" r="5" fill="green" stroke="none" /><circle cx="4340" cy="5439" r="5" fill="green" stroke="none" /><circle cx="2740" cy="1364" r="5" fill="green" stroke="none" /><circle cx="6530" cy="6375" r="5" fill="green" stroke="none" /><circle cx="952" cy="2521" r="5" fill="green" stroke="none" /><circle cx="4266" cy="5502" r="5" fill="green" stroke="none" /><circle cx="6837" cy="5252" r="5" fill="green" stroke="none" /><circle cx="5210" cy="6257" r="5" fill="green" stroke="none" /><circle cx="1372" cy="2661" r="5" fill="green" stroke="none" /><circle cx="1731" cy="1910" r="5" fill="green" stroke="none" /><circle cx="2122" cy="3741" r="5" fill="green" stroke="none" /><circle cx="4227" cy="3051" r="5" fill="green" stroke="none" /><circle cx="1936" cy="3866" r="5" fill="green" stroke="none" /><circle cx="3329" cy="5383" r="5" fill="green" stroke="none" /><circle cx="2863" cy="4002" r="5" fill="green" stroke="none" /><circle cx="5967" cy="1343" r="5" fill="green" stroke="none" /><circle cx="1379" cy="4051" r="5" fill="green" stroke="none" /><circle cx="3220" cy="3211" r="5" fill="green" stroke="none" /><circle cx="5849" cy="2593" r="5" fill="green" stroke="none" /><circle cx="5674" cy="2845" r="5" fill="green" stroke="none" /><circle cx="2996" cy="2561" r="5" fill="green" stroke="none" /><circle cx="3785" cy="618" r="5" fill="green" stroke="none" /><circle cx="949" cy="2258" r="5" fill="green" stroke="none" /><circle cx="7092" cy="6380" r="5" fill="green" stroke="none" /><circle cx="5283" cy="603" r="5" fill="green" stroke="none" /><circle cx="5852" cy="1525" r="5" fill="green" stroke="none" /><circle cx="4135" cy="4195" r="5" fill="green" stroke="none" /><circle cx="1773" cy="5574" r="5" fill="green" stroke="none" /><circle cx="3790" cy="5964" r="5" fill="green" stroke="none" /><circle cx="4193" cy="3212" r="5" fill="green" stroke="none" /><circle cx="861" cy="5869" r="5" fill="green" stroke="none" /><circle cx="1983" cy="139" r="5" fill="green" stroke="none" /><circle cx="2177" cy="6290" r="5" fill="green" stroke="none" /><circle cx="1144" cy="3289" r="5" fill="green" stroke="none" /><circle cx="3529" cy="5523" r="5" fill="green" stroke="none" /><circle cx="4930" cy="3513" r="5" fill="green" stroke="none" /><circle cx="2449" cy="612" r="5" fill="green" stroke="none" /><circle cx="1096" cy="3757" r="5" fill="green" stroke="none" /><circle cx="2506" cy="3469" r="5" fill="green" stroke="none" /><circle cx="6789" cy="6498" r="5" fill="green" stroke="none" /><circle cx="6829" cy="815" r="5" fill="green" stroke="none" /><circle cx="1317" cy="2826" r="5" fill="green" stroke="none" /><circle cx="6002" cy="3617" r="5" fill="green" stroke="none" /><circle cx="2441" cy="4794" r="5" fill="green" stroke="none" /><circle cx="2395" cy="211" r="5" fill="green" stroke="none" /><circle cx="3580" cy="3006" r="5" fill="green" stroke="none" /><circle cx="4549" cy="2047" r="5" fill="green" stroke="none" /><circle cx="7171" cy="1897" r="5" fill="green" stroke="none" /><circle cx="6951" cy="4931" r="5" fill="green" stroke="none" /><circle cx="6358" cy="2667" r="5" fill="green" stroke="none" /><circle cx="1558" cy="3758" r="5" fill="green" stroke="none" /><circle cx="58" cy="2529" r="5" fill="green" stroke="none" /><circle cx="4289" cy="6544" r="5" fill="green" stroke="none" /><circle cx="4353" cy="3207" r="5" fill="green" stroke="none" /><circle cx="853" cy="3284" r="5" fill="green" stroke="none" /><circle cx="4354" cy="5290" r="5" fill="green" stroke="none" /><circle cx="2698" cy="2335" r="5" fill="green" stroke="none" /><circle cx="2588" cy="3672" r="5" fill="green" stroke="none" /><circle cx="4440" cy="4447" r="5" fill="green" stroke="none" /><circle cx="3438" cy="4280" r="5" fill="green" stroke="none" /><circle cx="7125" cy="5781" r="5" fill="green" stroke="none" /><circle cx="4318" cy="6141" r="5" fill="green" stroke="none" /><circle cx="6954" cy="5657" r="5" fill="green" stroke="none" /><circle cx="270" cy="986" r="5" fill="green" stroke="none" /><circle cx="4225" cy="4058" r="5" fill="green" stroke="none" /><circle cx="4731" cy="724" r="5" fill="green" stroke="none" /><circle cx="4057" cy="1632" r="5" fill="green" stroke="none" /><circle cx="2821" cy="4627" r="5" fill="green" stroke="none" /><circle cx="6643" cy="3550" r="5" fill="green" stroke="none" /><circle cx="5859" cy="2000" r="5" fill="green" stroke="none" /><circle cx="4863" cy="4812" r="5" fill="green" stroke="none" /><circle cx="877" cy="2962" r="5" fill="green" stroke="none" /><circle cx="3470" cy="2476" r="5" fill="green" stroke="none" /><circle cx="4860" cy="3076" r="5" fill="green" stroke="none" /><circle cx="346" cy="6473" r="5" fill="green" stroke="none" /><circle cx="6633" cy="3327" r="5" fill="green" stroke="none" /><circle cx="408" cy="5646" r="5" fill="green" stroke="none" /><circle cx="1206" cy="4429" r="5" fill="green" stroke="none" /><circle cx="5411" cy="1059" r="5" fill="green" stroke="none" /><circle cx="5325" cy="100" r="5" fill="green" stroke="none" /><circle cx="5768" cy="723" r="5" fill="green" stroke="none" /><circle cx="5333" cy="6496" r="5" fill="green" stroke="none" /><circle cx="1533" cy="4246" r="5" fill="green" stroke="none" /><circle cx="5758" cy="1238" r="5" fill="green" stroke="none" /><circle cx="5981" cy="1312" r="5" fill="green" stroke="none" /><circle cx="3987" cy="3085" r="5" fill="green" stroke="none" /><circle cx="3654" cy="1904" r="5" fill="green" stroke="none" /><circle cx="6045" cy="3977" r="5" fill="green" stroke="none" /><circle cx="3171" cy="4977" r="5" fill="green" stroke="none" /><circle cx="4451" cy="4659" r="5" fill="green" stroke="none" /><circle cx="490" cy="2498" r="5" fill="green" stroke="none" /><circle cx="6205" cy="3672" r="5" fill="green" stroke="none" /><circle cx="5910" cy="6758" r="5" fill="green" stroke="none" /><circle cx="5443" cy="5713" r="5" fill="green" stroke="none" /><circle cx="1665" cy="283" r="5" fill="green" stroke="none" /><circle cx="382" cy="5585" r="5" fill="green" stroke="none" /><circle cx="3430" cy="831" r="5" fill="green" stroke="none" /><circle cx="951" cy="6216" r="5" fill="green" stroke="none" /><circle cx="7071" cy="417" r="5" fill="green" stroke="none" /><circle cx="1103" cy="6581" r="5" fill="green" stroke="none" /><circle cx="6681" cy="2597" r="5" fill="green" stroke="none" /><circle cx="1395" cy="734" r="5" fill="green" stroke="none" /><circle cx="6598" cy="3271" r="5" fill="green" stroke="none" /><circle cx="851" cy="944" r="5" fill="green" stroke="none" /><circle cx="913" cy="2568" r="5" fill="green" stroke="none" /><circle cx="2453" cy="613" r="5" fill="green" stroke="none" /><circle cx="7224" cy="3567" r="5" fill="green" stroke="none" /><circle cx="63" cy="2729" r="5" fill="green" stroke="none" /><circle cx="1027" cy="2797" r="5" fill="green" stroke="none" /><circle cx="5040" cy="4720" r="5" fill="green" stroke="none" /><circle cx="1687" cy="4222" r="5" fill="green" stroke="none" /><circle cx="1627" cy="6316" r="5" fill="green" stroke="none" /><circle cx="4071" cy="1783" r="5" fill="green" stroke="none" /><circle cx="25" cy="1412" r="5" fill="green" stroke="none" /><circle cx="630" cy="6291" r="5" fill="green" stroke="none" /><circle cx="1709" cy="67" r="5" fill="green" stroke="none" /><circle cx="4460" cy="1954" r="5" fill="green" stroke="none" /><circle cx="5580" cy="2377" r="5" fill="green" stroke="none" /><circle cx="5182" cy="3481" r="5" fill="green" stroke="none" /><circle cx="5785" cy="861" r="5" fill="green" stroke="none" /><circle cx="1379" cy="3145" r="5" fill="green" stroke="none" /><circle cx="645" cy="3960" r="5" fill="green" stroke="none" /><circle cx="3459" cy="4118" r="5" fill="green" stroke="none" /><circle cx="5266" cy="3428" r="5" fill="green" stroke="none" /><circle cx="5542" cy="4440" r="5" fill="green" stroke="none" /><circle cx="5768" cy="3141" r="5" fill="green" stroke="none" /><circle cx="4591" cy="5052" r="5" fill="green" stroke="none" /><circle cx="3302" cy="2948" r="5" fill="green" stroke="none" /><circle cx="1670" cy="2761" r="5" fill="green" stroke="none" /><circle cx="1862" cy="4437" r="5" fill="green" stroke="none" /><circle cx="3244" cy="305" r="5" fill="green" stroke="none" /><circle cx="1631" cy="6593" r="5" fill="green" stroke="none" /><circle cx="1989" cy="3556" r="5" fill="green" stroke="none" /><circle cx="6096" cy="4496" r="5" fill="green" stroke="none" /><circle cx="1344" cy="6205" r="5" fill="green" stroke="none" /><circle cx="4934" cy="3153" r="5" fill="green" stroke="none" /><circle cx="252" cy="1956" r="5" fill="green" stroke="none" /><circle cx="5406" cy="5565" r="5" fill="green" stroke="none" /><circle cx="1403" cy="1173" r="5" fill="green" stroke="none" /><circle cx="4701" cy="2594" r="5" fill="green" stroke="none" /><circle cx="4957" cy="3301" r="5" fill="green" stroke="none" /><circle cx="7101" cy="2647" r="5" fill="green" stroke="none" /><circle cx="4638" cy="4416" r="5" fill="green" stroke="none" /><circle cx="4146" cy="5944" r="5" fill="green" stroke="none" /><circle cx="3313" cy="3898" r="5" fill="green" stroke="none" /><circle cx="1551" cy="6575" r="5" fill="green" stroke="none" /><circle cx="6441" cy="15" r="5" fill="green" stroke="none" /><circle cx="5870" cy="4511" r="5" fill="green" stroke="none" /><circle cx="4603" cy="3863" r="5" fill="green" stroke="none" /><circle cx="4323" cy="1521" r="5" fill="green" stroke="none" /><circle cx="3805" cy="3811" r="5" fill="green" stroke="none" /><circle cx="5653" cy="4971" r="5" fill="green" stroke="none" /><circle cx="52" cy="4971" r="5" fill="green" stroke="none" /><circle cx="7025" cy="5395" r="5" fill="green" stroke="none" /><circle cx="4603" cy="4322" r="5" fill="green" stroke="none" /><circle cx="5801" cy="6172" r="5" fill="green" stroke="none" /><circle cx="1372" cy="5710" r="5" fill="green" stroke="none" /><circle cx="6949" cy="2517" r="5" fill="green" stroke="none" /><circle cx="2758" cy="6573" r="5" fill="green" stroke="none" /><circle cx="1117" cy="6107" r="5" fill="green" stroke="none" /><circle cx="1494" cy="5470" r="5" fill="green" stroke="none" /><circle cx="2411" cy="1161" r="5" fill="green" stroke="none" /><circle cx="6562" cy="4108" r="5" fill="green" stroke="none" /><circle cx="2027" cy="2376" r="5" fill="green" stroke="none" /><circle cx="1351" cy="1134" r="5" fill="green" stroke="none" /><circle cx="4984" cy="3065" r="5" fill="green" stroke="none" /><circle cx="2976" cy="3030" r="5" fill="green" stroke="none" /><circle cx="2793" cy="4905" r="5" fill="green" stroke="none" /><circle cx="1962" cy="5356" r="5" fill="green" stroke="none" /><circle cx="1055" cy="5638" r="5" fill="green" stroke="none" /><circle cx="4222" cy="5760" r="5" fill="green" stroke="none" /><circle cx="5146" cy="6718" r="5" fill="green" stroke="none" /><circle cx="547" cy="2694" r="5" fill="green" stroke="none" /><circle cx="5654" cy="2987" r="5" fill="green" stroke="none" /><circle cx="2580" cy="1068" r="5" fill="green" stroke="none" /><circle cx="6011" cy="2380" r="5" fill="green" stroke="none" /><circle cx="7032" cy="4018" r="5" fill="green" stroke="none" /><circle cx="4372" cy="4422" r="5" fill="green" stroke="none" /><circle cx="6900" cy="4251" r="5" fill="green" stroke="none" /><circle cx="6627" cy="4056" r="5" fill="green" stroke="none" /><circle cx="1349" cy="5151" r="5" fill="green" stroke="none" /><circle cx="1414" cy="6198" r="5" fill="green" stroke="none" /><circle cx="3163" cy="5261" r="5" fill="green" stroke="none" /><circle cx="1041" cy="3644" r="5" fill="green" stroke="none" /><circle cx="6687" cy="1685" r="5" fill="green" stroke="none" /><circle cx="3017" cy="6568" r="5" fill="green" stroke="none" /><circle cx="6754" cy="1973" r="5" fill="green" stroke="none" /><circle cx="6663" cy="6588" r="5" fill="green" stroke="none" /><circle cx="3929" cy="404" r="5" fill="green" stroke="none" /><circle cx="1450" cy="1209" r="5" fill="green" stroke="none" /><circle cx="217" cy="4338" r="5" fill="green" stroke="none" /><circle cx="4388" cy="6379" r="5" fill="green" stroke="none" /><circle cx="5715" cy="1715" r="5" fill="green" stroke="none" /><circle cx="1583" cy="3799" r="5" fill="green" stroke="none" /><circle cx="1203" cy="538" r="5" fill="green" stroke="none" /><circle cx="1490" cy="4730" r="5" fill="green" stroke="none" /><circle cx="6773" cy="4151" r="5" fill="green" stroke="none" /><circle cx="5101" cy="4318" r="5" fill="green" stroke="none" /><circle cx="978" cy="1075" r="5" fill="green" stroke="none" /><circle cx="2148" cy="6788" r="5" fill="green" stroke="none" /><circle cx="5670" cy="4512" r="5" fill="green" stroke="none" /><circle cx="5673" cy="2679" r="5" fill="green" stroke="none" /><circle cx="4118" cy="4101" r="5" fill="green" stroke="none" /><circle cx="2928" cy="1530" r="5" fill="green" stroke="none" /><circle cx="6878" cy="4382" r="5" fill="green" stroke="none" /><circle cx="6639" cy="3704" r="5" fill="green" stroke="none" /><circle cx="3936" cy="3270" r="5" fill="green" stroke="none" /><circle cx="4243" cy="1740" r="5" fill="green" stroke="none" /><circle cx="4055" cy="4676" r="5" fill="green" stroke="none" /><circle cx="6430" cy="4367" r="5" fill="green" stroke="none" /><circle cx="4061" cy="5052" r="5" fill="green" stroke="none" /><circle cx="5500" cy="4301" r="5" fill="green" stroke="none" /><circle cx="930" cy="1601" r="5" fill="green" stroke="none" /><circle cx="1006" cy="1929" r="5" fill="green" stroke="none" /><circle cx="6124" cy="6795" r="5" fill="green" stroke="none" /><circle cx="959" cy="2097" r="5" fill="green" stroke="none" /><circle cx="3716" cy="83" r="5" fill="green" stroke="none" /><circle cx="2690" cy="5146" r="5" fill="green" stroke="none" /><circle cx="4640" cy="2943" r="5" fill="green" stroke="none" /><circle cx="2666" cy="5238" r="5" fill="green" stroke="none" /><circle cx="6445" cy="4850" r="5" fill="green" stroke="none" /><circle cx="4214" cy="4295" r="5" fill="green" stroke="none" /><circle cx="1526" cy="832" r="5" fill="green" stroke="none" /><circle cx="6310" cy="393" r="5" fill="green" stroke="none" /><circle cx="7000" cy="5066" r="5" fill="green" stroke="none" /><circle cx="6382" cy="5972" r="5" fill="green" stroke="none" /><circle cx="6803" cy="4516" r="5" fill="green" stroke="none" /><circle cx="5133" cy="3485" r="5" fill="green" stroke="none" /><circle cx="47" cy="6525" r="5" fill="green" stroke="none" /><circle cx="369" cy="4539" r="5" fill="green" stroke="none" /><circle cx="4551" cy="4491" r="5" fill="green" stroke="none" /><circle cx="5258" cy="3860" r="5" fill="green" stroke="none" /><circle cx="2290" cy="4754" r="5" fill="green" stroke="none" /><circle cx="4049" cy="5517" r="5" fill="green" stroke="none" /><circle cx="4031" cy="46" r="5" fill="green" stroke="none" /><circle cx="959" cy="4471" r="5" fill="green" stroke="none" /><circle cx="5447" cy="542" r="5" fill="green" stroke="none" /><circle cx="6557" cy="449" r="5" fill="green" stroke="none" /><circle cx="5828" cy="3444" r="5" fill="green" stroke="none" /><circle cx="3405" cy="1050" r="5" fill="green" stroke="none" /><circle cx="2086" cy="2773.8373585574213" r="5" fill="blue" stroke="none" /><circle cx="2608" cy="2369.6541004432474" r="5" fill="blue" stroke="none" /><circle cx="2086" cy="2316.384492771429" r="5" fill="blue" stroke="none" /><circle cx="2086" cy="2792.0418671952134" r="5" fill="blue" stroke="none" /><circle cx="2086" cy="2410.4640157243693" r="5" fill="blue" stroke="none" /><circle cx="2608" cy="2329.3694695749145" r="5" fill="blue" stroke="none" /><circle cx="2086.1928487124833" cy="2726.421632753879" r="5" fill="blue" stroke="none" /><circle cx="2086" cy="2739.541154872581" r="5" fill="blue" stroke="none" /><circle cx="2088.7177926383224" cy="2340.861883363118" r="5" fill="blue" stroke="none" /><circle cx="2086" cy="2370.6992482219366" r="5" fill="blue" stroke="none" /><circle cx="2086" cy="2360.602335871632" r="5" fill="blue" stroke="none" /><circle cx="2087.4360655076475" cy="2420.5234272163734" r="5" fill="blue" stroke="none" /><circle cx="2086.0368810927116" cy="2831.5505882263974" r="5" fill="blue" stroke="none" /><circle cx="2086.249713828147" cy="2350.585797428862" r="5" fill="blue" stroke="none" /><circle cx="2608" cy="2300.0102527736344" r="5" fill="blue" stroke="none" /><circle cx="2086" cy="2755.6525893310986" r="5" fill="blue" stroke="none" /><circle cx="2086" cy="2400.4382370035273" r="5" fill="blue" stroke="none" /><circle cx="2090.6843051670976" cy="2430.056592892308" r="5" fill="blue" stroke="none" /><circle cx="2086.4215491575706" cy="2683.0095824119308" r="5" fill="blue" stroke="none" /><circle cx="2086" cy="2331.0196698867494" r="5" fill="blue" stroke="none" /><circle cx="2608" cy="2354.149095361683" r="5" fill="blue" stroke="none" /><circle cx="2608" cy="2317.586383410514" r="5" fill="blue" stroke="none" /><circle cx="2086" cy="2709.3618299806794" r="5" fill="blue" stroke="none" /><circle cx="2087.7627453360888" cy="2390.5931134325456" r="5" fill="blue" stroke="none" /><circle cx="2086" cy="2380.7263594066853" r="5" fill="blue" stroke="none" /><circle cx="2608" cy="2710.180394804951" r="5" fill="blue" stroke="none" /></svg>