<svg viewBox="0 0 6168 1514" xmlns="http://www.w3.org/2000/svg"><rect x="0" y="0" width="6168" height="1514" fill="lightyellow" stroke="none "/><rect x="443" y="1122" width="1231" height="326" fill="white" stroke="black "/><circle cx="3011" cy="523" r="5" fill="green" stroke="none" /><circle cx="2188" cy="267" r="5" fill="green" stroke="none" /><circle cx="2126" cy="786" r="5" fill="green" stroke="none" /><circle cx="1790" cy="519" r="5" fill="green" stroke="none" /><circle cx="5859" cy="447" r="5" fill="green" stroke="none" /><circle cx="5914" cy="1275" r="5" fill="green" stroke="none" /><circle cx="4890" cy="987" r="5" fill="green" stroke="none" /><circle cx="1196" cy="1092" r="5" fill="green" stroke="none" /><circle cx="1810" cy="1162" r="5" fill="green" stroke="none" /><circle cx="2582" cy="27" r="5" fill="green" stroke="none" /><circle cx="3061" cy="93" r="5" fill="green" stroke="none" /><circle cx="269" cy="448" r="5" fill="green" stroke="none" /><circle cx="4227" cy="1070" r="5" fill="green" stroke="none" /><circle cx="401" cy="137" r="5" fill="green" stroke="none" /><circle cx="419" cy="640" r="5" fill="green" stroke="none" /><circle cx="1713" cy="1339" r="5" fill="green" stroke="none" /><circle cx="3054" cy="562" r="5" fill="green" stroke="none" /><circle cx="175" cy="952" r="5" fill="green" stroke="none" /><circle cx="4407" cy="1504" r="5" fill="green" stroke="none" /><circle cx="5967" cy="668" r="5" fill="green" stroke="none" /><circle cx="3608" cy="680" r="5" fill="green" stroke="none" /><circle cx="3262" cy="916" r="5" fill="green" stroke="none" /><circle cx="1750" cy="751" r="5" fill="green" stroke="none" /><circle cx="4113" cy="368" r="5" fill="green" stroke="none" /><circle cx="1947" cy="1329" r="5" fill="green" stroke="none" /><circle cx="4301" cy="1100" r="5" fill="green" stroke="none" /><circle cx="3870" cy="477" r="5" fill="green" stroke="none" /><circle cx="5966" cy="1402" r="5" fill="green" stroke="none" /><circle cx="5896" cy="1495" r="5" fill="green" stroke="none" /><circle cx="4332" cy="338" r="5" fill="green" stroke="none" /><circle cx="3113" cy="40" r="5" fill="green" stroke="none" /><circle cx="1422" cy="287" r="5" fill="green" stroke="none" /><circle cx="387" cy="149" r="5" fill="green" stroke="none" /><circle cx="6157" cy="970" r="5" fill="green" stroke="none" /><circle cx="1106" cy="512" r="5" fill="green" stroke="none" /><circle cx="5382" cy="702" r="5" fill="green" stroke="none" /><circle cx="1206" cy="947" r="5" fill="green" stroke="none" /><circle cx="2359" cy="670" r="5" fill="green" stroke="none" /><circle cx="1493" cy="899" r="5" fill="green" stroke="none" /><circle cx="5390" cy="879" r="5" fill="green" stroke="none" /><circle cx="2195" cy="1139" r="5" fill="green" stroke="none" /><circle cx="1709" cy="10" r="5" fill="green" stroke="none" /><circle cx="4743" cy="856" r="5" fill="green" stroke="none" /><circle cx="5478" cy="893" r="5" fill="green" stroke="none" /><circle cx="3624" cy="390" r="5" fill="green" stroke="none" /><circle cx="149" cy="507" r="5" fill="green" stroke="none" /><circle cx="4674" cy="1208" r="5" fill="green" stroke="none" /><circle cx="191" cy="1154" r="5" fill="green" stroke="none" /><circle cx="6065" cy="349" r="5" fill="green" stroke="none" /><circle cx="3071" cy="1279" r="5" fill="green" stroke="none" /><circle cx="1888" cy="504" r="5" fill="green" stroke="none" /><circle cx="3247" cy="740" r="5" fill="green" stroke="none" /><circle cx="1296" cy="472" r="5" fill="green" stroke="none" /><circle cx="2863" cy="507" r="5" fill="green" stroke="none" /><circle cx="1901" cy="1155" r="5" fill="green" stroke="none" /><circle cx="2263" cy="615" r="5" fill="green" stroke="none" /><circle cx="2438" cy="947" r="5" fill="green" stroke="none" /><circle cx="4271" cy="927" r="5" fill="green" stroke="none" /><circle cx="3393" cy="346" r="5" fill="green" stroke="none" /><circle cx="1152" cy="954" r="5" fill="green" stroke="none" /><circle cx="262" cy="1415" r="5" fill="green" stroke="none" /><circle cx="1614" cy="467" r="5" fill="green" stroke="none" /><circle cx="63" cy="1355" r="5" fill="green" stroke="none" /><circle cx="4755" cy="913" r="5" fill="green" stroke="none" /><circle cx="4345" cy="123" r="5" fill="green" stroke="none" /><circle cx="2221" cy="97" r="5" fill="green" stroke="none" /><circle cx="5696" cy="355" r="5" fill="green" stroke="none" /><circle cx="4127" cy="956" r="5" fill="green" stroke="none" /><circle cx="5344" cy="1424" r="5" fill="green" stroke="none" /><circle cx="3742" cy="1141" r="5" fill="green" stroke="none" /><circle cx="4187" cy="150" r="5" fill="green" stroke="none" /><circle cx="3807" cy="441" r="5" fill="green" stroke="none" /><circle cx="1615" cy="896" r="5" fill="green" stroke="none" /><circle cx="1294" cy="1106" r="5" fill="green" stroke="none" /><circle cx="3485" cy="1181" r="5" fill="green" stroke="none" /><circle cx="190" cy="78" r="5" fill="green" stroke="none" /><circle cx="5142" cy="457" r="5" fill="green" stroke="none" /><circle cx="1883" cy="267" r="5" fill="green" stroke="none" /><circle cx="3208" cy="906" r="5" fill="green" stroke="none" /><circle cx="2442" cy="1072" r="5" fill="green" stroke="none" /><circle cx="6030" cy="250" r="5" fill="green" stroke="none" /><circle cx="1991" cy="649" r="5" fill="green" stroke="none" /><circle cx="5141" cy="1403" r="5" fill="green" stroke="none" /><circle cx="4388" cy="449" r="5" fill="green" stroke="none" /><circle cx="4449" cy="685" r="5" fill="green" stroke="none" /><circle cx="3265" cy="680" r="5" fill="green" stroke="none" /><circle cx="2184" cy="298" r="5" fill="green" stroke="none" /><circle cx="4598" cy="242" r="5" fill="green" stroke="none" /><circle cx="5816" cy="93" r="5" fill="green" stroke="none" /><circle cx="6033" cy="826" r="5" fill="green" stroke="none" /><circle cx="6043" cy="659" r="5" fill="green" stroke="none" /><circle cx="3210" cy="1255" r="5" fill="green" stroke="none" /><circle cx="3553" cy="104" r="5" fill="green" stroke="none" /><circle cx="4066" cy="382" r="5" fill="green" stroke="none" /><circle cx="2109" cy="946" r="5" fill="green" stroke="none" /><circle cx="3897" cy="1173" r="5" fill="green" stroke="none" /><circle cx="3160" cy="52" r="5" fill="green" stroke="none" /><circle cx="5329" cy="834" r="5" fill="green" stroke="none" /><circle cx="5218" cy="1473" r="5" fill="green" stroke="none" /><circle cx="3516" cy="129" r="5" fill="green" stroke="none" /><circle cx="962" cy="786" r="5" fill="green" stroke="none" /><circle cx="687" cy="788" r="5" fill="green" stroke="none" /><circle cx="1039" cy="498" r="5" fill="green" stroke="none" /><circle cx="1048" cy="1088" r="5" fill="green" stroke="none" /><circle cx="431" cy="1334" r="5" fill="green" stroke="none" /><circle cx="4829" cy="460" r="5" fill="green" stroke="none" /><circle cx="3233" cy="886" r="5" fill="green" stroke="none" /><circle cx="4994" cy="966" r="5" fill="green" stroke="none" /><circle cx="5428" cy="789" r="5" fill="green" stroke="none" /><circle cx="664" cy="177" r="5" fill="green" stroke="none" /><circle cx="4255" cy="575" r="5" fill="green" stroke="none" /><circle cx="4667" cy="938" r="5" fill="green" stroke="none" /><circle cx="33" cy="1177" r="5" fill="green" stroke="none" /><circle cx="2262" cy="529" r="5" fill="green" stroke="none" /><circle cx="168" cy="1375" r="5" fill="green" stroke="none" /><circle cx="5230" cy="1459" r="5" fill="green" stroke="none" /><circle cx="3376" cy="86" r="5" fill="green" stroke="none" /><circle cx="5492" cy="1473" r="5" fill="green" stroke="none" /><circle cx="5454" cy="145" r="5" fill="green" stroke="none" /><circle cx="728" cy="775" r="5" fill="green" stroke="none" /><circle cx="6161" cy="102" r="5" fill="green" stroke="none" /><circle cx="5510" cy="47" r="5" fill="green" stroke="none" /><circle cx="2022" cy="1213" r="5" fill="green" stroke="none" /><circle cx="325" cy="99" r="5" fill="green" stroke="none" /><circle cx="2667" cy="1478" r="5" fill="green" stroke="none" /><circle cx="998" cy="979" r="5" fill="green" stroke="none" /><circle cx="5193" cy="651" r="5" fill="green" stroke="none" /><circle cx="5026" cy="50" r="5" fill="green" stroke="none" /><circle cx="275" cy="681" r="5" fill="green" stroke="none" /><circle cx="420" cy="1162" r="5" fill="green" stroke="none" /><circle cx="1978" cy="177" r="5" fill="green" stroke="none" /><circle cx="5424" cy="442" r="5" fill="green" stroke="none" /><circle cx="5487" cy="1499" r="5" fill="green" stroke="none" /><circle cx="4951" cy="1029" r="5" fill="green" stroke="none" /><circle cx="2860" cy="1260" r="5" fill="green" stroke="none" /><circle cx="2084" cy="1461" r="5" fill="green" stroke="none" /><circle cx="5810" cy="8" r="5" fill="green" stroke="none" /><circle cx="1662" cy="599" r="5" fill="green" stroke="none" /><circle cx="2748" cy="567" r="5" fill="green" stroke="none" /><circle cx="1811" cy="828" r="5" fill="green" stroke="none" /><circle cx="4522" cy="1232" r="5" fill="green" stroke="none" /><circle cx="5525" cy="672" r="5" fill="green" stroke="none" /><circle cx="5307" cy="99" r="5" fill="green" stroke="none" /><circle cx="80" cy="37" r="5" fill="green" stroke="none" /><circle cx="1804" cy="839" r="5" fill="green" stroke="none" /><circle cx="2570" cy="536" r="5" fill="green" stroke="none" /><circle cx="51" cy="1157" r="5" fill="green" stroke="none" /><circle cx="2212" cy="169" r="5" fill="green" stroke="none" /><circle cx="3294" cy="660" r="5" fill="green" stroke="none" /><circle cx="2008" cy="1435" r="5" fill="green" stroke="none" /><circle cx="4460" cy="1245" r="5" fill="green" stroke="none" /><circle cx="369" cy="236" r="5" fill="green" stroke="none" /><circle cx="1143" cy="304" r="5" fill="green" stroke="none" /><circle cx="1958" cy="721" r="5" fill="green" stroke="none" /><circle cx="2355" cy="781" r="5" fill="green" stroke="none" /><circle cx="4153" cy="208" r="5" fill="green" stroke="none" /><circle cx="136" cy="389" r="5" fill="green" stroke="none" /><circle cx="636" cy="1000" r="5" fill="green" stroke="none" /><circle cx="684" cy="479" r="5" fill="green" stroke="none" /><circle cx="3330" cy="1443" r="5" fill="green" stroke="none" /><circle cx="1748" cy="425" r="5" fill="green" stroke="none" /><circle cx="2046" cy="1279" r="5" fill="green" stroke="none" /><circle cx="3228" cy="637" r="5" fill="green" stroke="none" /><circle cx="3991" cy="964" r="5" fill="green" stroke="none" /><circle cx="643" cy="340" r="5" fill="green" stroke="none" /><circle cx="1630" cy="816" r="5" fill="green" stroke="none" /><circle cx="392" cy="1162" r="5" fill="green" stroke="none" /><circle cx="5935" cy="1168" r="5" fill="green" stroke="none" /><circle cx="2658" cy="1347" r="5" fill="green" stroke="none" /><circle cx="4717" cy="1018" r="5" fill="green" stroke="none" /><circle cx="3424" cy="1001" r="5" fill="green" stroke="none" /><circle cx="5407" cy="231" r="5" fill="green" stroke="none" /><circle cx="3712" cy="704" r="5" fill="green" stroke="none" /><circle cx="3631" cy="794" r="5" fill="green" stroke="none" /><circle cx="2236" cy="1278" r="5" fill="green" stroke="none" /><circle cx="2503" cy="896" r="5" fill="green" stroke="none" /><circle cx="176" cy="1065" r="5" fill="green" stroke="none" /><circle cx="146" cy="230" r="5" fill="green" stroke="none" /><circle cx="244" cy="1437" r="5" fill="green" stroke="none" /><circle cx="5694" cy="1217" r="5" fill="green" stroke="none" /><circle cx="4452" cy="82" r="5" fill="green" stroke="none" /><circle cx="4836" cy="1225" r="5" fill="green" stroke="none" /><circle cx="3541" cy="1176" r="5" fill="green" stroke="none" /><circle cx="1775" cy="546" r="5" fill="green" stroke="none" /><circle cx="3015" cy="502" r="5" fill="green" stroke="none" /><circle cx="3025" cy="1423" r="5" fill="green" stroke="none" /><circle cx="3708" cy="472" r="5" fill="green" stroke="none" /><circle cx="4651" cy="1" r="5" fill="green" stroke="none" /><circle cx="4868" cy="1019" r="5" fill="green" stroke="none" /><circle cx="490" cy="1457" r="5" fill="green" stroke="none" /><circle cx="4653" cy="1397" r="5" fill="green" stroke="none" /><circle cx="1020" cy="53" r="5" fill="green" stroke="none" /><circle cx="857" cy="193" r="5" fill="green" stroke="none" /><circle cx="3683" cy="320" r="5" fill="green" stroke="none" /><circle cx="4258" cy="1168" r="5" fill="green" stroke="none" /><circle cx="5054" cy="437" r="5" fill="green" stroke="none" /><circle cx="312" cy="1171" r="5" fill="green" stroke="none" /><circle cx="1795" cy="61" r="5" fill="green" stroke="none" /><circle cx="698" cy="1075" r="5" fill="green" stroke="none" /><circle cx="2429" cy="744" r="5" fill="green" stroke="none" /><circle cx="1733" cy="1119" r="5" fill="green" stroke="none" /><circle cx="3367" cy="114" r="5" fill="green" stroke="none" /><circle cx="2675" cy="692" r="5" fill="green" stroke="none" /><circle cx="3934" cy="12" r="5" fill="green" stroke="none" /><circle cx="4978" cy="761" r="5" fill="green" stroke="none" /><circle cx="2806" cy="985" r="5" fill="green" stroke="none" /><circle cx="2197" cy="1091" r="5" fill="green" stroke="none" /><circle cx="1972" cy="809" r="5" fill="green" stroke="none" /><circle cx="4524" cy="1165" r="5" fill="green" stroke="none" /><circle cx="2806" cy="1321" r="5" fill="green" stroke="none" /><circle cx="4976" cy="1170" r="5" fill="green" stroke="none" /><circle cx="3546" cy="653" r="5" fill="green" stroke="none" /><circle cx="3522" cy="978" r="5" fill="green" stroke="none" /><circle cx="2483" cy="230" r="5" fill="green" stroke="none" /><circle cx="121" cy="351" r="5" fill="green" stroke="none" /><circle cx="3764" cy="1401" r="5" fill="green" stroke="none" /><circle cx="2828" cy="1074" r="5" fill="green" stroke="none" /><circle cx="3652" cy="895" r="5" fill="green" stroke="none" /><circle cx="5823" cy="1129" r="5" fill="green" stroke="none" /><circle cx="3939" cy="619" r="5" fill="green" stroke="none" /><circle cx="115" cy="1476" r="5" fill="green" stroke="none" /><circle cx="3510" cy="34" r="5" fill="green" stroke="none" /><circle cx="3346" cy="81" r="5" fill="green" stroke="none" /><circle cx="5617" cy="158" r="5" fill="green" stroke="none" /><circle cx="4576" cy="1314" r="5" fill="green" stroke="none" /><circle cx="2302" cy="156" r="5" fill="green" stroke="none" /><circle cx="3487" cy="1299" r="5" fill="green" stroke="none" /><circle cx="2768" cy="1055" r="5" fill="green" stroke="none" /><circle cx="840" cy="982" r="5" fill="green" stroke="none" /><circle cx="2792" cy="1319" r="5" fill="green" stroke="none" /><circle cx="1573" cy="265" r="5" fill="green" stroke="none" /><circle cx="4211" cy="303" r="5" fill="green" stroke="none" /><circle cx="5180" cy="1099" r="5" fill="green" stroke="none" /><circle cx="3851" cy="35" r="5" fill="green" stroke="none" /><circle cx="5517" cy="985" r="5" fill="green" stroke="none" /><circle cx="4430" cy="4" r="5" fill="green" stroke="none" /><circle cx="4209" cy="195" r="5" fill="green" stroke="none" /><circle cx="4038" cy="1360" r="5" fill="green" stroke="none" /><circle cx="1653" cy="645" r="5" fill="green" stroke="none" /><circle cx="2675" cy="691" r="5" fill="green" stroke="none" /><circle cx="4311" cy="1476" r="5" fill="green" stroke="none" /><circle cx="873" cy="31" r="5" fill="green" stroke="none" /><circle cx="1201" cy="17" r="5" fill="green" stroke="none" /><circle cx="5936" cy="1223" r="5" fill="green" stroke="none" /><circle cx="5964" cy="468" r="5" fill="green" stroke="none" /><circle cx="2746" cy="1465" r="5" fill="green" stroke="none" /><circle cx="4595" cy="1305" r="5" fill="green" stroke="none" /><circle cx="2557" cy="574" r="5" fill="green" stroke="none" /><circle cx="4477" cy="124" r="5" fill="green" stroke="none" /><circle cx="4309" cy="1029" r="5" fill="green" stroke="none" /><circle cx="4852" cy="657" r="5" fill="green" stroke="none" /><circle cx="5546" cy="421" r="5" fill="green" stroke="none" /><circle cx="1365" cy="947" r="5" fill="green" stroke="none" /><circle cx="976" cy="1503" r="5" fill="green" stroke="none" /><circle cx="3259" cy="1291" r="5" fill="green" stroke="none" /><circle cx="2719" cy="750" r="5" fill="green" stroke="none" /><circle cx="5910" cy="107" r="5" fill="green" stroke="none" /><circle cx="981" cy="1090" r="5" fill="green" stroke="none" /><circle cx="1748" cy="57" r="5" fill="green" stroke="none" /><circle cx="3207" cy="433" r="5" fill="green" stroke="none" /><circle cx="4018" cy="966" r="5" fill="green" stroke="none" /><circle cx="4535" cy="113" r="5" fill="green" stroke="none" /><circle cx="242" cy="259" r="5" fill="green" stroke="none" /><circle cx="577" cy="1048" r="5" fill="green" stroke="none" /><circle cx="5887" cy="178" r="5" fill="green" stroke="none" /><circle cx="54" cy="972" r="5" fill="green" stroke="none" /><circle cx="2133" cy="1444" r="5" fill="green" stroke="none" /><circle cx="44" cy="547" r="5" fill="green" stroke="none" /><circle cx="4820" cy="244" r="5" fill="green" stroke="none" /><circle cx="3529" cy="785" r="5" fill="green" stroke="none" /><circle cx="1388" cy="92" r="5" fill="green" stroke="none" /><circle cx="933" cy="86" r="5" fill="green" stroke="none" /><circle cx="1531" cy="627" r="5" fill="green" stroke="none" /><circle cx="1851" cy="1091" r="5" fill="green" stroke="none" /><circle cx="4271" cy="1014" r="5" fill="green" stroke="none" /><circle cx="738" cy="22" r="5" fill="green" stroke="none" /><circle cx="3031" cy="162" r="5" fill="green" stroke="none" /><circle cx="2447" cy="1024" r="5" fill="green" stroke="none" /><circle cx="513" cy="882" r="5" fill="green" stroke="none" /><circle cx="6005" cy="165" r="5" fill="green" stroke="none" /><circle cx="5998" cy="1175" r="5" fill="green" stroke="none" /><circle cx="2306" cy="1476" r="5" fill="green" stroke="none" /><circle cx="200" cy="801" r="5" fill="green" stroke="none" /><circle cx="5289" cy="1439" r="5" fill="green" stroke="none" /><circle cx="5958" cy="1318" r="5" fill="green" stroke="none" /><circle cx="4890" cy="700" r="5" fill="green" stroke="none" /><circle cx="4114" cy="1149" r="5" fill="green" stroke="none" /><circle cx="3210" cy="1502" r="5" fill="green" stroke="none" /><circle cx="163" cy="898" r="5" fill="green" stroke="none" /><circle cx="6149" cy="684" r="5" fill="green" stroke="none" /><circle cx="2159" cy="622" r="5" fill="green" stroke="none" /><circle cx="1122" cy="737" r="5" fill="green" stroke="none" /><circle cx="2572" cy="280" r="5" fill="green" stroke="none" /><circle cx="55" cy="259" r="5" fill="green" stroke="none" /><circle cx="5999" cy="1410" r="5" fill="green" stroke="none" /><circle cx="2542" cy="627" r="5" fill="green" stroke="none" /><circle cx="925" cy="1105" r="5" fill="green" stroke="none" /><circle cx="1784" cy="1392" r="5" fill="green" stroke="none" /><circle cx="5987" cy="1227" r="5" fill="green" stroke="none" /><circle cx="24" cy="1283" r="5" fill="green" stroke="none" /><circle cx="5575" cy="456" r="5" fill="green" stroke="none" /><circle cx="4574" cy="36" r="5" fill="green" stroke="none" /><circle cx="3859" cy="1513" r="5" fill="green" stroke="none" /><circle cx="5306" cy="167" r="5" fill="green" stroke="none" /><circle cx="1914" cy="811" r="5" fill="green" stroke="none" /><circle cx="1082" cy="1065" r="5" fill="green" stroke="none" /><circle cx="2212" cy="673" r="5" fill="green" stroke="none" /><circle cx="5640" cy="1097" r="5" fill="green" stroke="none" /><circle cx="453" cy="490" r="5" fill="green" stroke="none" /><circle cx="4678" cy="203" r="5" fill="green" stroke="none" /><circle cx="1590" cy="154" r="5" fill="green" stroke="none" /><circle cx="3272" cy="1162" r="5" fill="green" stroke="none" /><circle cx="2596" cy="1171" r="5" fill="green" stroke="none" /><circle cx="3792" cy="607" r="5" fill="green" stroke="none" /><circle cx="123" cy="318" r="5" fill="green" stroke="none" /><circle cx="2768" cy="1435" r="5" fill="green" stroke="none" /><circle cx="2590" cy="1060" r="5" fill="green" stroke="none" /><circle cx="3468" cy="1067" r="5" fill="green" stroke="none" /><circle cx="5026" cy="365" r="5" fill="green" stroke="none" /><circle cx="5311" cy="990" r="5" fill="green" stroke="none" /><circle cx="760" cy="1462" r="5" fill="green" stroke="none" /><circle cx="3910" cy="789" r="5" fill="green" stroke="none" /><circle cx="3955" cy="942" r="5" fill="green" stroke="none" /><circle cx="3818" cy="1105" r="5" fill="green" stroke="none" /><circle cx="2967" cy="260" r="5" fill="green" stroke="none" /><circle cx="5700" cy="1066" r="5" fill="green" stroke="none" /><circle cx="4323" cy="252" r="5" fill="green" stroke="none" /><circle cx="4332" cy="332" r="5" fill="green" stroke="none" /><circle cx="5867" cy="1141" r="5" fill="green" stroke="none" /><circle cx="5489" cy="653" r="5" fill="green" stroke="none" /><circle cx="907" cy="678" r="5" fill="green" stroke="none" /><circle cx="4707" cy="789" r="5" fill="green" stroke="none" /><circle cx="4366" cy="1106" r="5" fill="green" stroke="none" /><circle cx="2091" cy="769" r="5" fill="green" stroke="none" /><circle cx="864" cy="815" r="5" fill="green" stroke="none" /><circle cx="5942" cy="642" r="5" fill="green" stroke="none" /><circle cx="2587" cy="1209" r="5" fill="green" stroke="none" /><circle cx="5030" cy="269" r="5" fill="green" stroke="none" /><circle cx="3815" cy="158" r="5" fill="green" stroke="none" /><circle cx="5485" cy="30" r="5" fill="green" stroke="none" /><circle cx="6143" cy="637" r="5" fill="green" stroke="none" /><circle cx="1239" cy="371" r="5" fill="green" stroke="none" /><circle cx="2813" cy="1181" r="5" fill="green" stroke="none" /><circle cx="3340" cy="1183" r="5" fill="green" stroke="none" /><circle cx="1801" cy="1486" r="5" fill="green" stroke="none" /><circle cx="1089" cy="1059" r="5" fill="green" stroke="none" /><circle cx="1838" cy="61" r="5" fill="green" stroke="none" /><circle cx="288" cy="1053" r="5" fill="green" stroke="none" /><circle cx="4197" cy="167" r="5" fill="green" stroke="none" /><circle cx="3252" cy="1092" r="5" fill="green" stroke="none" /><circle cx="5396" cy="1316" r="5" fill="green" stroke="none" /><circle cx="3146" cy="44" r="5" fill="green" stroke="none" /><circle cx="661" cy="944" r="5" fill="green" stroke="none" /><circle cx="5945" cy="796" r="5" fill="green" stroke="none" /><circle cx="3421" cy="745" r="5" fill="green" stroke="none" /><circle cx="5401" cy="451" r="5" fill="green" stroke="none" /><circle cx="3524" cy="1347" r="5" fill="green" stroke="none" /><circle cx="6164" cy="465" r="5" fill="green" stroke="none" /><circle cx="2856" cy="980" r="5" fill="green" stroke="none" /><circle cx="2691" cy="878" r="5" fill="green" stroke="none" /><circle cx="6063" cy="154" r="5" fill="green" stroke="none" /><circle cx="33" cy="1357" r="5" fill="green" stroke="none" /><circle cx="3537" cy="483" r="5" fill="green" stroke="none" /><circle cx="5471" cy="159" r="5" fill="green" stroke="none" /><circle cx="3036" cy="1101" r="5" fill="green" stroke="none" /><circle cx="967" cy="93" r="5" fill="green" stroke="none" /><circle cx="4116" cy="384" r="5" fill="green" stroke="none" /><circle cx="6092" cy="525" r="5" fill="green" stroke="none" /><circle cx="5612" cy="349" r="5" fill="green" stroke="none" /><circle cx="3186" cy="638" r="5" fill="green" stroke="none" /><circle cx="5125" cy="502" r="5" fill="green" stroke="none" /><circle cx="4577" cy="224" r="5" fill="green" stroke="none" /><circle cx="5415" cy="758" r="5" fill="green" stroke="none" /><circle cx="3464" cy="443" r="5" fill="green" stroke="none" /><circle cx="3249" cy="1502" r="5" fill="green" stroke="none" /><circle cx="4854" cy="670" r="5" fill="green" stroke="none" /><circle cx="3876" cy="548" r="5" fill="green" stroke="none" /><circle cx="5014" cy="1217" r="5" fill="green" stroke="none" /><circle cx="4322" cy="302" r="5" fill="green" stroke="none" /><circle cx="2000" cy="1496" r="5" fill="green" stroke="none" /><circle cx="4493" cy="1461" r="5" fill="green" stroke="none" /><circle cx="1825" cy="1145" r="5" fill="green" stroke="none" /><circle cx="703" cy="986" r="5" fill="green" stroke="none" /><circle cx="279" cy="1389" r="5" fill="green" stroke="none" /><circle cx="3239" cy="480" r="5" fill="green" stroke="none" /><circle cx="3566" cy="366" r="5" fill="green" stroke="none" /><circle cx="4335" cy="615" r="5" fill="green" stroke="none" /><circle cx="4514" cy="1465" r="5" fill="green" stroke="none" /><circle cx="5793" cy="83" r="5" fill="green" stroke="none" /><circle cx="4369" cy="1199" r="5" fill="green" stroke="none" /><circle cx="3073" cy="804" r="5" fill="green" stroke="none" /><circle cx="1308" cy="574" r="5" fill="green" stroke="none" /><circle cx="5284" cy="1368" r="5" fill="green" stroke="none" /><circle cx="920" cy="73" r="5" fill="green" stroke="none" /><circle cx="1766" cy="1243" r="5" fill="green" stroke="none" /><circle cx="1623" cy="346" r="5" fill="green" stroke="none" /><circle cx="5290" cy="426" r="5" fill="green" stroke="none" /><circle cx="5826" cy="807" r="5" fill="green" stroke="none" /><circle cx="5962" cy="919" r="5" fill="green" stroke="none" /><circle cx="2487" cy="1157" r="5" fill="green" stroke="none" /><circle cx="3646" cy="683" r="35" fill="red" stroke="none" /><circle cx="5819" cy="710" r="38" fill="red" stroke="none" /><circle cx="1731" cy="1231" r="5" fill="red" stroke="none" /><circle cx="1693" cy="479" r="77" fill="red" stroke="none" /><circle cx="2073" cy="174" r="73" fill="red" stroke="none" /><circle cx="1159" cy="30" r="10" fill="red" stroke="none" /><circle cx="5410" cy="1051" r="32" fill="red" stroke="none" /><circle cx="4324" cy="837" r="50" fill="red" stroke="none" /><circle cx="1455" cy="531" r="16" fill="red" stroke="none" /><circle cx="4391" cy="1171" r="15" fill="red" stroke="none" /><circle cx="2006" cy="1075" r="56" fill="red" stroke="none" /><circle cx="4097" cy="656" r="83" fill="red" stroke="none" /><circle cx="71" cy="591" r="22" fill="red" stroke="none" /><circle cx="4554" cy="802" r="33" fill="red" stroke="none" /><circle cx="1862" cy="1226" r="70" fill="red" stroke="none" /><circle cx="4760" cy="1349" r="74" fill="red" stroke="none" /><circle cx="2982" cy="81" r="60" fill="red" stroke="none" /><circle cx="315" cy="933" r="66" fill="red" stroke="none" /><circle cx="4477" cy="898" r="40" fill="red" stroke="none" /><circle cx="5964" cy="356" r="73" fill="red" stroke="none" /><circle cx="2517" cy="49" r="8" fill="red" stroke="none" /><circle cx="2756" cy="927" r="76" fill="red" stroke="none" /><circle cx="2714" cy="467" r="71" fill="red" stroke="none" /><circle cx="387" cy="197" r="16" fill="red" stroke="none" /><circle cx="5985" cy="523" r="37" fill="red" stroke="none" /><circle cx="3909" cy="1051" r="82" fill="red" stroke="none" /><circle cx="2075" cy="472" r="23" fill="red" stroke="none" /><circle cx="5250" cy="265" r="63" fill="red" stroke="none" /><circle cx="1458" cy="370" r="21" fill="red" stroke="none" /><circle cx="4729" cy="1281" r="27" fill="red" stroke="none" /><circle cx="3436" cy="103" r="62" fill="red" stroke="none" /><circle cx="3746" cy="227" r="82" fill="red" stroke="none" /><circle cx="4434" cy="1105" r="49" fill="red" stroke="none" /><circle cx="1672" cy="193" r="21" fill="red" stroke="none" /><circle cx="5876" cy="1312" r="25" fill="red" stroke="none" /><circle cx="188" cy="296" r="32" fill="red" stroke="none" /><circle cx="228" cy="512" r="12" fill="red" stroke="none" /><circle cx="4372" cy="825" r="56" fill="red" stroke="none" /><circle cx="1948" cy="88" r="83" fill="red" stroke="none" /><circle cx="1836" cy="653" r="21" fill="red" stroke="none" /><circle cx="5653" cy="855" r="13" fill="red" stroke="none" /><circle cx="736" cy="183" r="18" fill="red" stroke="none" /><circle cx="2756" cy="258" r="34" fill="red" stroke="none" /><circle cx="4920" cy="673" r="29" fill="red" stroke="none" /><circle cx="3424" cy="223" r="77" fill="red" stroke="none" /><circle cx="3467" cy="549" r="21" fill="red" stroke="none" /><circle cx="4820" cy="1376" r="79" fill="red" stroke="none" /><circle cx="4987" cy="1381" r="33" fill="red" stroke="none" /><circle cx="984" cy="335" r="19" fill="red" stroke="none" /><circle cx="4700" cy="445" r="39" fill="red" stroke="none" /><circle cx="2559" cy="1181" r="21" fill="red" stroke="none" /><circle cx="3140" cy="581" r="72" fill="red" stroke="none" /><circle cx="5647" cy="955" r="77" fill="red" stroke="none" /><circle cx="4147" cy="823" r="78" fill="red" stroke="none" /><circle cx="3996" cy="213" r="82" fill="red" stroke="none" /><circle cx="5966" cy="608" r="36" fill="red" stroke="none" /><circle cx="2270" cy="123" r="8" fill="red" stroke="none" /><circle cx="49" cy="336" r="22" fill="red" stroke="none" /><circle cx="1276" cy="684" r="76" fill="red" stroke="none" /><circle cx="5594" cy="1404" r="69" fill="red" stroke="none" /><circle cx="106" cy="924" r="8" fill="red" stroke="none" /><circle cx="3348" cy="881" r="70" fill="red" stroke="none" /><circle cx="5908" cy="238" r="36" fill="red" stroke="none" /><circle cx="147" cy="1271" r="65" fill="red" stroke="none" /><circle cx="1998" cy="907" r="25" fill="red" stroke="none" /><circle cx="3757" cy="1339" r="12" fill="red" stroke="none" /><circle cx="4693" cy="1158" r="11" fill="red" stroke="none" /><circle cx="5352" cy="549" r="79" fill="red" stroke="none" /><circle cx="3080" cy="1354" r="62" fill="red" stroke="none" /><circle cx="5896" cy="41" r="12" fill="red" stroke="none" /><circle cx="4471" cy="982" r="44" fill="red" stroke="none" /><circle cx="2690" cy="1428" r="23" fill="red" stroke="none" /><circle cx="42" cy="307" r="40" fill="red" stroke="none" /><circle cx="5800" cy="261" r="53" fill="red" stroke="none" /><circle cx="1233" cy="758" r="56" fill="red" stroke="none" /><circle cx="4379" cy="279" r="25" fill="red" stroke="none" /><circle cx="2054" cy="478" r="40" fill="red" stroke="none" /><circle cx="576" cy="63" r="12" fill="red" stroke="none" /><circle cx="16" cy="932" r="12" fill="red" stroke="none" /><circle cx="3628" cy="1253" r="11" fill="red" stroke="none" /><circle cx="5110" cy="690" r="72" fill="red" stroke="none" /><circle cx="1520" cy="805" r="24" fill="red" stroke="none" /><circle cx="1728" cy="540" r="43" fill="red" stroke="none" /><circle cx="69" cy="333" r="7" fill="red" stroke="none" /><circle cx="5098" cy="590" r="84" fill="red" stroke="none" /><circle cx="2212" cy="235" r="17" fill="red" stroke="none" /><circle cx="4993" cy="1034" r="28" fill="red" stroke="none" /><circle cx="5292" cy="356" r="23" fill="red" stroke="none" /><circle cx="3784" cy="1033" r="65" fill="red" stroke="none" /><circle cx="3633" cy="1095" r="75" fill="red" stroke="none" /><circle cx="774" cy="1006" r="28" fill="red" stroke="none" /><circle cx="5007" cy="1368" r="76" fill="red" stroke="none" /><circle cx="6059" cy="54" r="44" fill="red" stroke="none" /><circle cx="4715" cy="558" r="70" fill="red" stroke="none" /><circle cx="5776" cy="1322" r="9" fill="red" stroke="none" /><circle cx="700" cy="685" r="7" fill="red" stroke="none" /><circle cx="2130" cy="1212" r="53" fill="red" stroke="none" /><circle cx="385" cy="330" r="40" fill="red" stroke="none" /><circle cx="785" cy="364" r="50" fill="red" stroke="none" /><circle cx="3413" cy="889" r="17" fill="red" stroke="none" /><circle cx="5024" cy="187" r="5" fill="red" stroke="none" /><circle cx="6004" cy="1323" r="26" fill="red" stroke="none" /><circle cx="4947" cy="764" r="11" fill="red" stroke="none" /><circle cx="2248" cy="679" r="13" fill="red" stroke="none" /><circle cx="2345" cy="126" r="30" fill="red" stroke="none" /><circle cx="873" cy="328" r="71" fill="red" stroke="none" /><circle cx="3806" cy="1321" r="40" fill="red" stroke="none" /><circle cx="5181" cy="1218" r="75" fill="red" stroke="none" /><circle cx="4241" cy="1037" r="34" fill="red" stroke="none" /><circle cx="6029" cy="1387" r="30" fill="red" stroke="none" /><circle cx="4402" cy="204" r="43" fill="red" stroke="none" /><circle cx="4819" cy="1368" r="50" fill="red" stroke="none" /><circle cx="3895" cy="1261" r="68" fill="red" stroke="none" /><circle cx="2845" cy="1458" r="31" fill="red" stroke="none" /><circle cx="4389" cy="175" r="66" fill="red" stroke="none" /><circle cx="3426" cy="343" r="8" fill="red" stroke="none" /><circle cx="1850" cy="1029" r="46" fill="red" stroke="none" /><circle cx="3863" cy="134" r="52" fill="red" stroke="none" /><circle cx="5558" cy="135" r="36" fill="red" stroke="none" /><circle cx="2469" cy="351" r="44" fill="red" stroke="none" /><circle cx="5795" cy="1168" r="16" fill="red" stroke="none" /><circle cx="6151" cy="1072" r="7" fill="red" stroke="none" /><circle cx="1948" cy="474" r="25" fill="red" stroke="none" /><circle cx="3589" cy="15" r="9" fill="red" stroke="none" /><circle cx="6133" cy="219" r="32" fill="red" stroke="none" /><circle cx="1536" cy="399" r="22" fill="red" stroke="none" /><circle cx="2473" cy="722" r="44" fill="red" stroke="none" /><circle cx="5765" cy="907" r="23" fill="red" stroke="none" /><circle cx="3841" cy="328" r="76" fill="red" stroke="none" /><circle cx="3852" cy="51" r="12" fill="red" stroke="none" /><circle cx="294" cy="108" r="28" fill="red" stroke="none" /><circle cx="2981" cy="58" r="30" fill="red" stroke="none" /><circle cx="958" cy="312" r="47" fill="red" stroke="none" /><circle cx="4807" cy="1363" r="64" fill="red" stroke="none" /><circle cx="1776" cy="1124" r="28" fill="red" stroke="none" /><circle cx="364" cy="1293" r="44" fill="red" stroke="none" /><circle cx="2954" cy="1314" r="75" fill="red" stroke="none" /><circle cx="5311" cy="1127" r="45" fill="red" stroke="none" /><circle cx="1110" cy="114" r="39" fill="red" stroke="none" /><circle cx="551" cy="318" r="81" fill="red" stroke="none" /><circle cx="3327" cy="354" r="62" fill="red" stroke="none" /><circle cx="5245" cy="715" r="48" fill="red" stroke="none" /><circle cx="697" cy="719" r="27" fill="red" stroke="none" /><circle cx="5670" cy="913" r="30" fill="red" stroke="none" /><circle cx="4460" cy="776" r="48" fill="red" stroke="none" /><circle cx="3672" cy="1123" r="62" fill="red" stroke="none" /><circle cx="4081" cy="354" r="6" fill="red" stroke="none" /><circle cx="68" cy="609" r="64" fill="red" stroke="none" /><circle cx="3007" cy="1179" r="61" fill="red" stroke="none" /><circle cx="2987" cy="772" r="22" fill="red" stroke="none" /><circle cx="3764" cy="1457" r="56" fill="red" stroke="none" /><circle cx="2853" cy="269" r="74" fill="red" stroke="none" /><circle cx="1028" cy="252" r="35" fill="red" stroke="none" /><circle cx="2512" cy="1396" r="33" fill="red" stroke="none" /><circle cx="2409" cy="431" r="40" fill="red" stroke="none" /><circle cx="5296" cy="1288" r="35" fill="red" stroke="none" /><circle cx="3125" cy="377" r="36" fill="red" stroke="none" /><circle cx="4646" cy="664" r="83" fill="red" stroke="none" /><circle cx="2123" cy="1392" r="43" fill="red" stroke="none" /><circle cx="3448" cy="294" r="61" fill="red" stroke="none" /><circle cx="1650" cy="85" r="61" fill="red" stroke="none" /><circle cx="3791" cy="1148" r="22" fill="red" stroke="none" /><circle cx="3035" cy="1284" r="10" fill="red" stroke="none" /><circle cx="3334" cy="55" r="19" fill="red" stroke="none" /><circle cx="1265" cy="206" r="78" fill="red" stroke="none" /><circle cx="4889" cy="1160" r="11" fill="red" stroke="none" /><circle cx="3445" cy="1435" r="15" fill="red" stroke="none" /><circle cx="1969" cy="402" r="33" fill="red" stroke="none" /><circle cx="2003" cy="848" r="21" fill="red" stroke="none" /><circle cx="5102" cy="252" r="21" fill="red" stroke="none" /><circle cx="3318" cy="229" r="69" fill="red" stroke="none" /><circle cx="3557" cy="183" r="7" fill="red" stroke="none" /><circle cx="4966" cy="432" r="35" fill="red" stroke="none" /><circle cx="3105" cy="1180" r="49" fill="red" stroke="none" /><circle cx="4017" cy="753" r="73" fill="red" stroke="none" /><circle cx="1685" cy="830" r="52" fill="red" stroke="none" /><circle cx="4221" cy="282" r="23" fill="red" stroke="none" /><circle cx="3661" cy="563" r="80" fill="red" stroke="none" /><circle cx="326" cy="559" r="79" fill="red" stroke="none" /><circle cx="5117" cy="227" r="35" fill="red" stroke="none" /><circle cx="4893" cy="1473" r="36" fill="red" stroke="none" /><circle cx="5567" cy="528" r="72" fill="red" stroke="none" /><circle cx="5277" cy="589" r="76" fill="red" stroke="none" /><circle cx="3839" cy="1295" r="36" fill="red" stroke="none" /><circle cx="3399" cy="638" r="22" fill="red" stroke="none" /><circle cx="5164" cy="1009" r="71" fill="red" stroke="none" /><circle cx="2430" cy="988" r="24" fill="red" stroke="none" /><circle cx="4692" cy="1267" r="52" fill="red" stroke="none" /><circle cx="2756" cy="852" r="14" fill="red" stroke="none" /><circle cx="3166" cy="1351" r="10" fill="red" stroke="none" /><circle cx="3172" cy="1061" r="40" fill="red" stroke="none" /><circle cx="5865" cy="982" r="20" fill="red" stroke="none" /><circle cx="4592" cy="721" r="7" fill="red" stroke="none" /><circle cx="5130" cy="887" r="13" fill="red" stroke="none" /><circle cx="1056.0404180749777" cy="1141.0664440123733" r="5" fill="blue" stroke="none" /><circle cx="641.3710197224225" cy="1132" r="5" fill="blue" stroke="none" /><circle cx="1664" cy="1390.6931834120612" r="5" fill="blue" stroke="none" /><circle cx="585.8967578401813" cy="1132" r="5" fill="blue" stroke="none" /><circle cx="1080.6286745709183" cy="1134.1904368173646" r="5" fill="blue" stroke="none" /><circle cx="1664" cy="1370.3171952364094" r="5" fill="blue" stroke="none" /><circle cx="1664" cy="1319.9221142619826" r="5" fill="blue" stroke="none" /><circle cx="737.8616099072023" cy="1132" r="5" fill="blue" stroke="none" /><circle cx="453" cy="1358.730364971912" r="5" fill="blue" stroke="none" /><circle cx="1339.1188428359337" cy="1132" r="5" fill="blue" stroke="none" /><circle cx="1219.434069232715" cy="1132" r="5" fill="blue" stroke="none" /><circle cx="1384.6189091067718" cy="1132" r="5" fill="blue" stroke="none" /><circle cx="1309.0164804547844" cy="1132" r="5" fill="blue" stroke="none" /><circle cx="947.5647035149073" cy="1133.2981480649687" r="5" fill="blue" stroke="none" /><circle cx="1208.003398099283" cy="1132" r="5" fill="blue" stroke="none" /><circle cx="732.8253806369659" cy="1438" r="5" fill="blue" stroke="none" /><circle cx="1203.9608528058711" cy="1141.1555782865166" r="5" fill="blue" stroke="none" /><circle cx="1664" cy="1169.0577049505112" r="5" fill="blue" stroke="none" /><circle cx="940.3654621516911" cy="1438" r="5" fill="blue" stroke="none" /><circle cx="1157.2425047590011" cy="1132" r="5" fill="blue" stroke="none" /><circle cx="564.5366047404759" cy="1132" r="5" fill="blue" stroke="none" /><circle cx="453" cy="1191.3665240972086" r="5" fill="blue" stroke="none" /><circle cx="1090.392562710843" cy="1132" r="5" fill="blue" stroke="none" /><circle cx="920.340616507414" cy="1149.696125199577" r="5" fill="blue" stroke="none" /><circle cx="927.2458991287536" cy="1132" r="5" fill="blue" stroke="none" /><circle cx="453" cy="1379.823914005342" r="5" fill="blue" stroke="none" /><circle cx="960.5395822574595" cy="1438" r="5" fill="blue" stroke="none" /><circle cx="453" cy="1338.7156553763998" r="5" fill="blue" stroke="none" /><circle cx="453" cy="1141.1408526930077" r="5" fill="blue" stroke="none" /><circle cx="977.4444398042967" cy="1136.3093270391769" r="5" fill="blue" stroke="none" /><circle cx="671.5345544143156" cy="1132" r="5" fill="blue" stroke="none" /><circle cx="1140.500005564314" cy="1132" r="5" fill="blue" stroke="none" /><circle cx="887.0737413745733" cy="1132.6288124011096" r="5" fill="blue" stroke="none" /><circle cx="453" cy="1161.3136272039278" r="5" fill="blue" stroke="none" /><circle cx="1049.580066011334" cy="1132" r="5" fill="blue" stroke="none" /><circle cx="1662.4772007049044" cy="1280.814573471237" r="5" fill="blue" stroke="none" /><circle cx="917.1174180324035" cy="1132" r="5" fill="blue" stroke="none" /><circle cx="1664" cy="1180.108769042919" r="5" fill="blue" stroke="none" /><circle cx="1248.840469968338" cy="1132" r="5" fill="blue" stroke="none" /><circle cx="479.2455364301797" cy="1428.1205214816425" r="5" fill="blue" stroke="none" /><circle cx="1011.6598417921334" cy="1438" r="5" fill="blue" stroke="none" /><circle cx="1128.7182270928322" cy="1132.1519063646645" r="5" fill="blue" stroke="none" /><circle cx="518.3140959240344" cy="1438" r="5" fill="blue" stroke="none" /><circle cx="1278.9449735520745" cy="1132" r="5" fill="blue" stroke="none" /><circle cx="976.1633906396949" cy="1429.3535816932474" r="5" fill="blue" stroke="none" /><circle cx="773.5293661884735" cy="1438" r="5" fill="blue" stroke="none" /><circle cx="1664" cy="1290.927310454183" r="5" fill="blue" stroke="none" /><circle cx="529.9616515784738" cy="1438" r="5" fill="blue" stroke="none" /><circle cx="736.7124653152343" cy="1143.728393768548" r="5" fill="blue" stroke="none" /><circle cx="997.9371649410289" cy="1132" r="5" fill="blue" stroke="none" /><circle cx="457.5523520768275" cy="1438" r="5" fill="blue" stroke="none" /><circle cx="804.0595992471564" cy="1438" r="5" fill="blue" stroke="none" /><circle cx="877.0603415292079" cy="1132.2706043129942" r="5" fill="blue" stroke="none" /><circle cx="712.3164051150649" cy="1438" r="5" fill="blue" stroke="none" /><circle cx="498.2915584989734" cy="1438" r="5" fill="blue" stroke="none" /><circle cx="1664" cy="1380.3846386439857" r="5" fill="blue" stroke="none" /><circle cx="453" cy="1233.4966076211676" r="5" fill="blue" stroke="none" /><circle cx="651.4410084580746" cy="1132" r="5" fill="blue" stroke="none" /><circle cx="842.7647774932055" cy="1132" r="5" fill="blue" stroke="none" /><circle cx="1647.7281669812119" cy="1143.587155188007" r="5" fill="blue" stroke="none" /><circle cx="968.3524094909335" cy="1132" r="5" fill="blue" stroke="none" /><circle cx="1663.4336402724118" cy="1239.9131879262195" r="5" fill="blue" stroke="none" /><circle cx="1027.7817085406002" cy="1132" r="5" fill="blue" stroke="none" /><circle cx="691.5958121359254" cy="1132" r="5" fill="blue" stroke="none" /><circle cx="711.6477309940143" cy="1132" r="5" fill="blue" stroke="none" /><circle cx="453" cy="1287.9182074308458" r="5" fill="blue" stroke="none" /><circle cx="1664" cy="1132.1548067540664" r="5" fill="blue" stroke="none" /><circle cx="995.6220706500228" cy="1142.6579671912068" r="5" fill="blue" stroke="none" /><circle cx="1187.3042822629593" cy="1132" r="5" fill="blue" stroke="none" /><circle cx="1268.9330313387459" cy="1132" r="5" fill="blue" stroke="none" /><circle cx="1070.8354388105602" cy="1132" r="5" fill="blue" stroke="none" /><circle cx="661.5245415506463" cy="1132" r="5" fill="blue" stroke="none" /><circle cx="1663.3802995201995" cy="1210.205653596694" r="5" fill="blue" stroke="none" /><circle cx="1298.9771256582526" cy="1132" r="5" fill="blue" stroke="none" /><circle cx="1664" cy="1309.8915860423276" r="5" fill="blue" stroke="none" /><circle cx="742.851942306243" cy="1438" r="5" fill="blue" stroke="none" /><circle cx="1258.9252762402914" cy="1132.3345811286808" r="5" fill="blue" stroke="none" /><circle cx="467.56645943583874" cy="1438" r="5" fill="blue" stroke="none" /><circle cx="596.994351045423" cy="1132" r="5" fill="blue" stroke="none" /><circle cx="462.9659007588486" cy="1154.4759082654173" r="5" fill="blue" stroke="none" /><circle cx="545.3788684252132" cy="1438" r="5" fill="blue" stroke="none" /><circle cx="453" cy="1171.3146218864335" r="5" fill="blue" stroke="none" /><circle cx="986.4867814531427" cy="1132" r="5" fill="blue" stroke="none" /><circle cx="1043.8227985498263" cy="1141.026620668504" r="5" fill="blue" stroke="none" /><circle cx="453" cy="1181.3456408169347" r="5" fill="blue" stroke="none" /><circle cx="1663.9570364069536" cy="1228.6312079590055" r="5" fill="blue" stroke="none" /><circle cx="1664" cy="1329.9483715476729" r="5" fill="blue" stroke="none" /><circle cx="453" cy="1328.714063547624" r="5" fill="blue" stroke="none" /><circle cx="971.0626960715191" cy="1438" r="5" fill="blue" stroke="none" /><circle cx="1365.9805942371547" cy="1132" r="5" fill="blue" stroke="none" /><circle cx="752.8711802715146" cy="1438" r="5" fill="blue" stroke="none" /><circle cx="1664" cy="1431.893002869879" r="5" fill="blue" stroke="none" /><circle cx="453.32167548300833" cy="1211.3949120121706" r="5" fill="blue" stroke="none" /><circle cx="453" cy="1348.718560877905" r="5" fill="blue" stroke="none" /><circle cx="1579.8489091750769" cy="1147.8967060589707" r="5" fill="blue" stroke="none" /><circle cx="897.0610145093987" cy="1132" r="5" fill="blue" stroke="none" /><circle cx="937.2514517217429" cy="1132" r="5" fill="blue" stroke="none" /><circle cx="1197.3366075187669" cy="1132" r="5" fill="blue" stroke="none" /><circle cx="1660.673514980371" cy="1300.3685006512078" r="5" fill="blue" stroke="none" /><circle cx="907.1152147752305" cy="1132" r="5" fill="blue" stroke="none" /><circle cx="1664" cy="1360.3034958249086" r="5" fill="blue" stroke="none" /><circle cx="1013.651850484841" cy="1133.2990310473385" r="5" fill="blue" stroke="none" /><circle cx="1664" cy="1339.9663419975373" r="5" fill="blue" stroke="none" /><circle cx="1664" cy="1270.9048537591354" r="5" fill="blue" stroke="none" /><circle cx="1319.0491603429464" cy="1132" r="5" fill="blue" stroke="none" /><circle cx="757.1004789701415" cy="1428.9336972380172" r="5" fill="blue" stroke="none" /><circle cx="1117.9442673065478" cy="1132" r="5" fill="blue" stroke="none" /><circle cx="1664" cy="1349.9708814564428" r="5" fill="blue" stroke="none" /><circle cx="1664" cy="1157.8271436048035" r="5" fill="blue" stroke="none" /><circle cx="453" cy="1201.3932268166573" r="5" fill="blue" stroke="none" /><circle cx="1001.6573216493803" cy="1438" r="5" fill="blue" stroke="none" /><circle cx="488.2750510046619" cy="1438" r="5" fill="blue" stroke="none" /><circle cx="1060.2680819998604" cy="1132" r="5" fill="blue" stroke="none" /><circle cx="1351.2405197556093" cy="1132" r="5" fill="blue" stroke="none" /><circle cx="1293.942396963035" cy="1140.750500774725" r="5" fill="blue" stroke="none" /><circle cx="1663.713656253796" cy="1410.838877404008" r="5" fill="blue" stroke="none" /><circle cx="574.5682125085759" cy="1132" r="5" fill="blue" stroke="none" /><circle cx="1661.7192357687968" cy="1189.911659592416" r="5" fill="blue" stroke="none" /><circle cx="1664" cy="1420.9227225075992" r="5" fill="blue" stroke="none" /><circle cx="1100.5337125302822" cy="1132" r="5" fill="blue" stroke="none" /><circle cx="1663.2503858964503" cy="1260.3550895864746" r="5" fill="blue" stroke="none" /><circle cx="1664" cy="1144.1553373081026" r="5" fill="blue" stroke="none" /><circle cx="771.5626589951787" cy="1428.1692918322135" r="5" fill="blue" stroke="none" /><circle cx="453" cy="1318.699262265074" r="5" fill="blue" stroke="none" /><circle cx="1177.2866265014677" cy="1132" r="5" fill="blue" stroke="none" /><circle cx="477.5853767828344" cy="1438" r="5" fill="blue" stroke="none" /><circle cx="964.5101343898249" cy="1428.789938741611" r="5" fill="blue" stroke="none" /><circle cx="457.2720060252019" cy="1132" r="5" fill="blue" stroke="none" /><circle cx="1109.5522892278143" cy="1137.5318435211666" r="5" fill="blue" stroke="none" /><circle cx="453" cy="1308.6983495291133" r="5" fill="blue" stroke="none" /><circle cx="832.9552141374548" cy="1438" r="5" fill="blue" stroke="none" /><circle cx="1235.8115572187385" cy="1132.1728065924087" r="5" fill="blue" stroke="none" /><circle cx="1013.2706372534878" cy="1143.3184440782525" r="5" fill="blue" stroke="none" /><circle cx="1039.4504069745922" cy="1132" r="5" fill="blue" stroke="none" /><circle cx="453.42540600410837" cy="1298.6452203835552" r="5" fill="blue" stroke="none" /><circle cx="1664" cy="1400.826466784409" r="5" fill="blue" stroke="none" /><circle cx="950.5295904784464" cy="1438" r="5" fill="blue" stroke="none" /><circle cx="453.78278198482843" cy="1270.846314031608" r="5" fill="blue" stroke="none" /><circle cx="860.0704365720143" cy="1132.092640922866" r="5" fill="blue" stroke="none" /><circle cx="991.656871165733" cy="1438" r="5" fill="blue" stroke="none" /><circle cx="957.4953041766596" cy="1132" r="5" fill="blue" stroke="none" /><circle cx="762.9177114528583" cy="1438" r="5" fill="blue" stroke="none" /><circle cx="783.5347481357511" cy="1437.997345392667" r="5" fill="blue" stroke="none" /><circle cx="722.7897796418586" cy="1437.6407082011058" r="5" fill="blue" stroke="none" /><circle cx="453" cy="1151.142457849901" r="5" fill="blue" stroke="none" /><circle cx="1167.2562167698509" cy="1132" r="5" fill="blue" stroke="none" /><circle cx="1646.7214503080656" cy="1431.3511261670642" r="5" fill="blue" stroke="none" /><circle cx="793.5493667218742" cy="1438" r="5" fill="blue" stroke="none" /><circle cx="817.7057421904906" cy="1437.7507029934616" r="5" fill="blue" stroke="none" /><circle cx="981.2381294184304" cy="1438" r="5" fill="blue" stroke="none" /><circle cx="1288.9482398576279" cy="1132" r="5" fill="blue" stroke="none" /><circle cx="607.0102285617286" cy="1132.0947019489452" r="5" fill="blue" stroke="none" /><circle cx="701.6106782690672" cy="1132" r="5" fill="blue" stroke="none" /><circle cx="681.540491581905" cy="1132" r="5" fill="blue" stroke="none" /><circle cx="722.5357512287258" cy="1132" r="5" fill="blue" stroke="none" /><circle cx="453" cy="1221.4047746136575" r="5" fill="blue" stroke="none" /><circle cx="508.2997903082872" cy="1437.9822418033261" r="5" fill="blue" stroke="none" /><circle cx="453.23785168431135" cy="1368.7665877167196" r="5" fill="blue" stroke="none" /><circle cx="1329.0662491693076" cy="1132" r="5" fill="blue" stroke="none" /><circle cx="1029.588073817885" cy="1142.3316979465606" r="5" fill="blue" stroke="none" /><circle cx="750.1707728673925" cy="1132" r="5" fill="blue" stroke="none" /></svg>