<svg viewBox="0 0 1000 1000" xmlns="http://www.w3.org/2000/svg"><rect x="0" y="0" width="1000" height="1000" fill="lightyellow" stroke="none "/><rect x="529" y="210" width="148" height="169" fill="white" stroke="black "/><circle cx="663" cy="829" r="5" fill="green" stroke="none" /><circle cx="410" cy="525" r="5" fill="green" stroke="none" /><circle cx="66" cy="698" r="5" fill="green" stroke="none" /><circle cx="993" cy="837" r="5" fill="green" stroke="none" /><circle cx="255" cy="193" r="5" fill="green" stroke="none" /><circle cx="235" cy="525" r="5" fill="green" stroke="none" /><circle cx="700" cy="261" r="5" fill="green" stroke="none" /><circle cx="955" cy="600" r="5" fill="green" stroke="none" /><circle cx="396" cy="845" r="5" fill="green" stroke="none" /><circle cx="806" cy="960" r="5" fill="green" stroke="none" /><circle cx="337" cy="532" r="5" fill="green" stroke="none" /><circle cx="8" cy="765" r="5" fill="green" stroke="none" /><circle cx="924" cy="826" r="5" fill="green" stroke="none" /><circle cx="979" cy="656" r="5" fill="green" stroke="none" /><circle cx="789" cy="465" r="5" fill="green" stroke="none" /><circle cx="705" cy="368" r="5" fill="green" stroke="none" /><circle cx="934" cy="1000" r="5" fill="green" stroke="none" /><circle cx="323" cy="408" r="5" fill="green" stroke="none" /><circle cx="979" cy="180" r="5" fill="green" stroke="none" /><circle cx="225" cy="130" r="5" fill="green" stroke="none" /><circle cx="72" cy="777" r="5" fill="green" stroke="none" /><circle cx="59" cy="539" r="5" fill="green" stroke="none" /><circle cx="446" cy="141" r="5" fill="green" stroke="none" /><circle cx="23" cy="846" r="5" fill="green" stroke="none" /><circle cx="540" cy="201" r="5" fill="green" stroke="none" /><circle cx="829" cy="411" r="5" fill="green" stroke="none" /><circle cx="157" cy="275" r="5" fill="green" stroke="none" /><circle cx="401" cy="926" r="5" fill="green" stroke="none" /><circle cx="930" cy="452" r="5" fill="green" stroke="none" /><circle cx="93" cy="598" r="5" fill="green" stroke="none" /><circle cx="868" cy="564" r="5" fill="green" stroke="none" /><circle cx="764" cy="362" r="5" fill="green" stroke="none" /><circle cx="812" cy="43" r="5" fill="green" stroke="none" /><circle cx="456" cy="262" r="5" fill="green" stroke="none" /><circle cx="110" cy="901" r="5" fill="green" stroke="none" /><circle cx="720" cy="745" r="5" fill="green" stroke="none" /><circle cx="402" cy="257" r="5" fill="green" stroke="none" /><circle cx="735" cy="129" r="5" fill="green" stroke="none" /><circle cx="421" cy="699" r="5" fill="green" stroke="none" /><circle cx="226" cy="267" r="5" fill="green" stroke="none" /><circle cx="843" cy="503" r="5" fill="green" stroke="none" /><circle cx="15" cy="412" r="5" fill="green" stroke="none" /><circle cx="632" cy="189" r="5" fill="green" stroke="none" /><circle cx="823" cy="813" r="5" fill="green" stroke="none" /><circle cx="366" cy="272" r="5" fill="green" stroke="none" /><circle cx="706" cy="985" r="5" fill="green" stroke="none" /><circle cx="440" cy="893" r="5" fill="green" stroke="none" /><circle cx="470" cy="315" r="5" fill="green" stroke="none" /><circle cx="593" cy="149" r="5" fill="green" stroke="none" /><circle cx="836" cy="855" r="5" fill="green" stroke="none" /><circle cx="422" cy="443" r="5" fill="green" stroke="none" /><circle cx="992" cy="211" r="5" fill="green" stroke="none" /><circle cx="464" cy="882" r="5" fill="green" stroke="none" /><circle cx="369" cy="559" r="5" fill="green" stroke="none" /><circle cx="726" cy="518" r="5" fill="green" stroke="none" /><circle cx="161" cy="610" r="5" fill="green" stroke="none" /><circle cx="840" cy="342" r="5" fill="green" stroke="none" /><circle cx="792" cy="876" r="5" fill="green" stroke="none" /><circle cx="107" cy="47" r="5" fill="green" stroke="none" /><circle cx="31" cy="388" r="5" fill="green" stroke="none" /><circle cx="986" cy="610" r="5" fill="green" stroke="none" /><circle cx="548" cy="620" r="5" fill="green" stroke="none" /><circle cx="366" cy="886" r="5" fill="green" stroke="none" /><circle cx="783" cy="583" r="5" fill="green" stroke="none" /><circle cx="216" cy="282" r="5" fill="green" stroke="none" /><circle cx="907" cy="371" r="5" fill="green" stroke="none" /><circle cx="70" cy="888" r="5" fill="green" stroke="none" /><circle cx="240" cy="889" r="5" fill="green" stroke="none" /><circle cx="57" cy="341" r="5" fill="green" stroke="none" /><circle cx="937" cy="497" r="5" fill="green" stroke="none" /><circle cx="964" cy="19" r="5" fill="green" stroke="none" /><circle cx="538" cy="574" r="5" fill="green" stroke="none" /><circle cx="670" cy="883" r="5" fill="green" stroke="none" /><circle cx="412" cy="90" r="5" fill="green" stroke="none" /><circle cx="648" cy="833" r="5" fill="green" stroke="none" /><circle cx="693" cy="337" r="5" fill="green" stroke="none" /><circle cx="936" cy="616" r="5" fill="green" stroke="none" /><circle cx="922" cy="575" r="5" fill="green" stroke="none" /><circle cx="706" cy="350" r="5" fill="green" stroke="none" /><circle cx="47" cy="548" r="5" fill="green" stroke="none" /><circle cx="249" cy="995" r="5" fill="green" stroke="none" /><circle cx="13" cy="563" r="5" fill="green" stroke="none" /><circle cx="997" cy="554" r="5" fill="green" stroke="none" /><circle cx="353" cy="390" r="5" fill="green" stroke="none" /><circle cx="367" cy="333" r="5" fill="green" stroke="none" /><circle cx="24" cy="145" r="5" fill="green" stroke="none" /><circle cx="774" cy="426" r="5" fill="green" stroke="none" /><circle cx="544" cy="965" r="5" fill="green" stroke="none" /><circle cx="365" cy="10" r="5" fill="green" stroke="none" /><circle cx="255" cy="909" r="5" fill="green" stroke="none" /><circle cx="5" cy="218" r="5" fill="green" stroke="none" /><circle cx="200" cy="3" r="5" fill="green" stroke="none" /><circle cx="311" cy="196" r="5" fill="green" stroke="none" /><circle cx="503" cy="688" r="5" fill="green" stroke="none" /><circle cx="745" cy="793" r="5" fill="green" stroke="none" /><circle cx="482" cy="264" r="5" fill="green" stroke="none" /><circle cx="605" cy="509" r="5" fill="green" stroke="none" /><circle cx="687" cy="403" r="5" fill="green" stroke="none" /><circle cx="457" cy="144" r="5" fill="green" stroke="none" /><circle cx="860" cy="874" r="5" fill="green" stroke="none" /><circle cx="559.0000021564578" cy="369" r="5" fill="blue" stroke="none" /><circle cx="539.000000290274" cy="368.9999961119803" r="5" fill="blue" stroke="none" /><circle cx="564.0003967527224" cy="360.3395510010172" r="5" fill="blue" stroke="none" /><circle cx="554.0000127604841" cy="360.33973705642063" r="5" fill="blue" stroke="none" /><circle cx="549.0000003572516" cy="368.9999985131632" r="5" fill="blue" stroke="none" /></svg>