<svg viewBox="0 0 1000 1000" xmlns="http://www.w3.org/2000/svg"><rect x="0" y="0" width="1000" height="1000" fill="lightyellow" stroke="none "/><rect x="875" y="107" width="105" height="175" fill="white" stroke="black "/><circle cx="21" cy="19" r="5" fill="green" stroke="none" /><circle cx="341" cy="456" r="5" fill="green" stroke="none" /><circle cx="493" cy="111" r="5" fill="green" stroke="none" /><circle cx="951" cy="446" r="5" fill="green" stroke="none" /><circle cx="827" cy="716" r="5" fill="green" stroke="none" /><circle cx="554" cy="187" r="5" fill="green" stroke="none" /><circle cx="428" cy="311" r="5" fill="green" stroke="none" /><circle cx="213" cy="83" r="5" fill="green" stroke="none" /><circle cx="756" cy="188" r="5" fill="green" stroke="none" /><circle cx="479" cy="420" r="5" fill="green" stroke="none" /><circle cx="263" cy="617" r="5" fill="green" stroke="none" /><circle cx="730" cy="180" r="5" fill="green" stroke="none" /><circle cx="415" cy="791" r="5" fill="green" stroke="none" /><circle cx="161" cy="610" r="5" fill="green" stroke="none" /><circle cx="51" cy="717" r="5" fill="green" stroke="none" /><circle cx="499" cy="419" r="5" fill="green" stroke="none" /><circle cx="78" cy="425" r="5" fill="green" stroke="none" /><circle cx="395" cy="0" r="5" fill="green" stroke="none" /><circle cx="522" cy="116" r="5" fill="green" stroke="none" /><circle cx="184" cy="371" r="5" fill="green" stroke="none" /><circle cx="798" cy="539" r="5" fill="green" stroke="none" /><circle cx="178" cy="471" r="5" fill="green" stroke="none" /><circle cx="176" cy="210" r="5" fill="green" stroke="none" /><circle cx="542" cy="424" r="5" fill="green" stroke="none" /><circle cx="207" cy="433" r="5" fill="green" stroke="none" /><circle cx="338" cy="64" r="5" fill="green" stroke="none" /><circle cx="911" cy="627" r="5" fill="green" stroke="none" /><circle cx="985" cy="423" r="5" fill="green" stroke="none" /><circle cx="256" cy="393" r="5" fill="green" stroke="none" /><circle cx="888" cy="562" r="5" fill="green" stroke="none" /><circle cx="625" cy="94" r="5" fill="green" stroke="none" /><circle cx="436" cy="351" r="5" fill="green" stroke="none" /><circle cx="730" cy="330" r="5" fill="green" stroke="none" /><circle cx="634" cy="277" r="5" fill="green" stroke="none" /><circle cx="158" cy="617" r="5" fill="green" stroke="none" /><circle cx="890" cy="55" r="5" fill="green" stroke="none" /><circle cx="607" cy="711" r="5" fill="green" stroke="none" /><circle cx="159" cy="215" r="5" fill="green" stroke="none" /><circle cx="715" cy="910" r="5" fill="green" stroke="none" /><circle cx="589" cy="651" r="5" fill="green" stroke="none" /><circle cx="954" cy="679" r="5" fill="green" stroke="none" /><circle cx="853" cy="131" r="5" fill="green" stroke="none" /><circle cx="191" cy="911" r="5" fill="green" stroke="none" /><circle cx="611" cy="99" r="5" fill="green" stroke="none" /><circle cx="6" cy="99" r="5" fill="green" stroke="none" /><circle cx="723" cy="69" r="5" fill="green" stroke="none" /><circle cx="259" cy="160" r="5" fill="green" stroke="none" /><circle cx="93" cy="221" r="5" fill="green" stroke="none" /><circle cx="466" cy="318" r="5" fill="green" stroke="none" /><circle cx="186" cy="149" r="5" fill="green" stroke="none" /><circle cx="627" cy="597" r="5" fill="green" stroke="none" /><circle cx="473" cy="828" r="5" fill="green" stroke="none" /><circle cx="4" cy="4" r="5" fill="green" stroke="none" /><circle cx="875" cy="580" r="5" fill="green" stroke="none" /><circle cx="822" cy="351" r="5" fill="green" stroke="none" /><circle cx="336" cy="533" r="5" fill="green" stroke="none" /><circle cx="419" cy="524" r="5" fill="green" stroke="none" /><circle cx="404" cy="400" r="5" fill="green" stroke="none" /><circle cx="694" cy="152" r="5" fill="green" stroke="none" /><circle cx="53" cy="276" r="5" fill="green" stroke="none" /><circle cx="338" cy="210" r="5" fill="green" stroke="none" /><circle cx="792" cy="81" r="5" fill="green" stroke="none" /><circle cx="866" cy="318" r="5" fill="green" stroke="none" /><circle cx="849" cy="327" r="5" fill="green" stroke="none" /><circle cx="122" cy="485" r="5" fill="green" stroke="none" /><circle cx="246" cy="756" r="5" fill="green" stroke="none" /><circle cx="321" cy="479" r="5" fill="green" stroke="none" /><circle cx="848" cy="752" r="5" fill="green" stroke="none" /><circle cx="738" cy="752" r="5" fill="green" stroke="none" /><circle cx="767" cy="767" r="5" fill="green" stroke="none" /><circle cx="843" cy="66" r="5" fill="green" stroke="none" /><circle cx="737" cy="809" r="5" fill="green" stroke="none" /><circle cx="807" cy="844" r="5" fill="green" stroke="none" /><circle cx="31" cy="984" r="5" fill="green" stroke="none" /><circle cx="688" cy="197" r="5" fill="green" stroke="none" /><circle cx="21" cy="807" r="5" fill="green" stroke="none" /><circle cx="67" cy="645" r="5" fill="green" stroke="none" /><circle cx="286" cy="747" r="5" fill="green" stroke="none" /><circle cx="708" cy="743" r="5" fill="green" stroke="none" /><circle cx="562" cy="694" r="5" fill="green" stroke="none" /><circle cx="305" cy="763" r="5" fill="green" stroke="none" /><circle cx="122" cy="425" r="5" fill="green" stroke="none" /><circle cx="92" cy="796" r="5" fill="green" stroke="none" /><circle cx="267" cy="912" r="5" fill="green" stroke="none" /><circle cx="748" cy="864" r="5" fill="green" stroke="none" /><circle cx="596" cy="524" r="5" fill="green" stroke="none" /><circle cx="844" cy="837" r="5" fill="green" stroke="none" /><circle cx="143" cy="894" r="5" fill="green" stroke="none" /><circle cx="74" cy="59" r="5" fill="green" stroke="none" /><circle cx="338" cy="221" r="5" fill="green" stroke="none" /><circle cx="59" cy="89" r="5" fill="green" stroke="none" /><circle cx="756" cy="132" r="5" fill="green" stroke="none" /><circle cx="561" cy="483" r="5" fill="green" stroke="none" /><circle cx="441" cy="225" r="5" fill="green" stroke="none" /><circle cx="127" cy="233" r="5" fill="green" stroke="none" /><circle cx="602" cy="938" r="5" fill="green" stroke="none" /><circle cx="192" cy="672" r="5" fill="green" stroke="none" /><circle cx="46" cy="471" r="5" fill="green" stroke="none" /><circle cx="965" cy="863" r="5" fill="green" stroke="none" /><circle cx="659" cy="177" r="5" fill="green" stroke="none" /><circle cx="885.002019881395" cy="196.11483721949963" r="5" fill="blue" stroke="none" /><circle cx="885.0000000000002" cy="137.1268349749893" r="5" fill="blue" stroke="none" /><circle cx="885.0006115950574" cy="127.09981975927904" r="5" fill="blue" stroke="none" /><circle cx="885.0020093010679" cy="117.09907152392404" r="5" fill="blue" stroke="none" /><circle cx="885.0000376516541" cy="163.6272043339141" r="5" fill="blue" stroke="none" /></svg>