<svg viewBox="0 0 6073 3064" xmlns="http://www.w3.org/2000/svg"><rect x="0" y="0" width="6073" height="3064" fill="lightyellow" stroke="none "/><rect x="0" y="0" width="1904" height="498" fill="white" stroke="black "/><circle cx="5969" cy="3028" r="5" fill="green" stroke="none" /><circle cx="6066" cy="3027" r="5" fill="green" stroke="none" /><circle cx="5883" cy="2886" r="5" fill="green" stroke="none" /><circle cx="5950" cy="2984" r="5" fill="green" stroke="none" /><circle cx="5913" cy="3058" r="5" fill="green" stroke="none" /><circle cx="6026" cy="2868" r="5" fill="green" stroke="none" /><circle cx="5946" cy="2964" r="5" fill="green" stroke="none" /><circle cx="5988" cy="2950" r="5" fill="green" stroke="none" /><circle cx="5984" cy="3030" r="5" fill="green" stroke="none" /><circle cx="5877" cy="3047" r="5" fill="green" stroke="none" /><circle cx="5889" cy="2956" r="5" fill="green" stroke="none" /><circle cx="5877" cy="3018" r="5" fill="green" stroke="none" /><circle cx="6027" cy="2939" r="5" fill="green" stroke="none" /><circle cx="5894" cy="2871" r="5" fill="green" stroke="none" /><circle cx="6001" cy="2984" r="5" fill="green" stroke="none" /><circle cx="5952" cy="2948" r="5" fill="green" stroke="none" /><circle cx="5941" cy="2937" r="5" fill="green" stroke="none" /><circle cx="5941" cy="2995" r="5" fill="green" stroke="none" /><circle cx="5902" cy="2982" r="5" fill="green" stroke="none" /><circle cx="6063" cy="2939" r="5" fill="green" stroke="none" /><circle cx="5960" cy="2931" r="5" fill="green" stroke="none" /><circle cx="5994" cy="2927" r="5" fill="green" stroke="none" /><circle cx="5897" cy="2968" r="5" fill="green" stroke="none" /><circle cx="6058" cy="2907" r="5" fill="green" stroke="none" /><circle cx="5958" cy="2941" r="5" fill="green" stroke="none" /><circle cx="6069" cy="3048" r="5" fill="green" stroke="none" /><circle cx="6042" cy="2974" r="5" fill="green" stroke="none" /><circle cx="5949" cy="2948" r="5" fill="green" stroke="none" /><circle cx="5904" cy="2913" r="5" fill="green" stroke="none" /><circle cx="6052" cy="2900" r="5" fill="green" stroke="none" /><circle cx="6050" cy="2954" r="5" fill="green" stroke="none" /><circle cx="5885" cy="3015" r="5" fill="green" stroke="none" /><circle cx="5953" cy="2963" r="5" fill="green" stroke="none" /><circle cx="6064" cy="2867" r="5" fill="green" stroke="none" /><circle cx="5977" cy="2893" r="5" fill="green" stroke="none" /><circle cx="5893" cy="2916" r="5" fill="green" stroke="none" /><circle cx="6047" cy="2920" r="5" fill="green" stroke="none" /><circle cx="5953" cy="2902" r="5" fill="green" stroke="none" /><circle cx="5986" cy="2919" r="5" fill="green" stroke="none" /><circle cx="6032" cy="2946" r="5" fill="green" stroke="none" /><circle cx="5955" cy="2944" r="5" fill="green" stroke="none" /><circle cx="6031" cy="2949" r="5" fill="green" stroke="none" /><circle cx="6043" cy="3048" r="5" fill="green" stroke="none" /><circle cx="5893" cy="2929" r="5" fill="green" stroke="none" /><circle cx="5909" cy="2976" r="5" fill="green" stroke="none" /><circle cx="5924" cy="2985" r="5" fill="green" stroke="none" /><circle cx="6031" cy="2969" r="5" fill="green" stroke="none" /><circle cx="6009" cy="2997" r="5" fill="green" stroke="none" /><circle cx="6001" cy="3060" r="5" fill="green" stroke="none" /><circle cx="6049" cy="3007" r="5" fill="green" stroke="none" /><circle cx="6052" cy="2884" r="5" fill="green" stroke="none" /><circle cx="5994" cy="2959" r="5" fill="green" stroke="none" /><circle cx="5960" cy="2962" r="5" fill="green" stroke="none" /><circle cx="5927" cy="2891" r="5" fill="green" stroke="none" /><circle cx="6007" cy="2970" r="5" fill="green" stroke="none" /><circle cx="6053" cy="3027" r="5" fill="green" stroke="none" /><circle cx="5998" cy="2964" r="5" fill="green" stroke="none" /><circle cx="5963" cy="2992" r="5" fill="green" stroke="none" /><circle cx="6028" cy="3035" r="5" fill="green" stroke="none" /><circle cx="5996" cy="2929" r="5" fill="green" stroke="none" /><circle cx="5983" cy="2984" r="5" fill="green" stroke="none" /><circle cx="5885" cy="3006" r="5" fill="green" stroke="none" /><circle cx="5902" cy="2904" r="5" fill="green" stroke="none" /><circle cx="6041" cy="2922" r="5" fill="green" stroke="none" /><circle cx="5923" cy="2938" r="5" fill="green" stroke="none" /><circle cx="6007" cy="3025" r="5" fill="green" stroke="none" /><circle cx="5978" cy="2935" r="5" fill="green" stroke="none" /><circle cx="5880" cy="2969" r="5" fill="green" stroke="none" /><circle cx="6068" cy="2893" r="5" fill="green" stroke="none" /><circle cx="5930" cy="2893" r="5" fill="green" stroke="none" /><circle cx="6050" cy="3044" r="5" fill="green" stroke="none" /><circle cx="5924" cy="2947" r="5" fill="green" stroke="none" /><circle cx="6018" cy="2932" r="5" fill="green" stroke="none" /><circle cx="5914" cy="2956" r="5" fill="green" stroke="none" /><circle cx="5893" cy="3011" r="5" fill="green" stroke="none" /><circle cx="5876" cy="2894" r="5" fill="green" stroke="none" /><circle cx="5972" cy="3035" r="5" fill="green" stroke="none" /><circle cx="5945" cy="2875" r="5" fill="green" stroke="none" /><circle cx="6024" cy="3026" r="5" fill="green" stroke="none" /><circle cx="5989" cy="3005" r="5" fill="green" stroke="none" /><circle cx="6011" cy="2982" r="5" fill="green" stroke="none" /><circle cx="5953" cy="3026" r="5" fill="green" stroke="none" /><circle cx="5961" cy="2964" r="5" fill="green" stroke="none" /><circle cx="6054" cy="2924" r="5" fill="green" stroke="none" /><circle cx="5990" cy="3028" r="5" fill="green" stroke="none" /><circle cx="6059" cy="2898" r="5" fill="green" stroke="none" /><circle cx="5917" cy="3054" r="5" fill="green" stroke="none" /><circle cx="5894" cy="2872" r="5" fill="green" stroke="none" /><circle cx="5901" cy="3026" r="5" fill="green" stroke="none" /><circle cx="5965" cy="2954" r="5" fill="green" stroke="none" /><circle cx="5977" cy="2878" r="5" fill="green" stroke="none" /><circle cx="5967" cy="3055" r="5" fill="green" stroke="none" /><circle cx="5938" cy="2981" r="5" fill="green" stroke="none" /><circle cx="5938" cy="2994" r="5" fill="green" stroke="none" /><circle cx="6043" cy="3063" r="5" fill="green" stroke="none" /><circle cx="5995" cy="3059" r="5" fill="green" stroke="none" /><circle cx="5971" cy="3059" r="5" fill="green" stroke="none" /><circle cx="6067" cy="2983" r="5" fill="green" stroke="none" /><circle cx="6065" cy="2873" r="5" fill="green" stroke="none" /><circle cx="6072" cy="3023" r="5" fill="green" stroke="none" /><circle cx="6057" cy="3053" r="5" fill="green" stroke="none" /><circle cx="5910" cy="3024" r="5" fill="green" stroke="none" /><circle cx="6060" cy="2924" r="5" fill="green" stroke="none" /><circle cx="5939" cy="2929" r="5" fill="green" stroke="none" /><circle cx="5877" cy="3041" r="5" fill="green" stroke="none" /><circle cx="5883" cy="2870" r="5" fill="green" stroke="none" /><circle cx="5968" cy="2943" r="5" fill="green" stroke="none" /><circle cx="5988" cy="3049" r="5" fill="green" stroke="none" /><circle cx="6072" cy="3002" r="5" fill="green" stroke="none" /><circle cx="5879" cy="2888" r="5" fill="green" stroke="none" /><circle cx="6056" cy="3010" r="5" fill="green" stroke="none" /><circle cx="5916" cy="3011" r="5" fill="green" stroke="none" /><circle cx="5877" cy="2978" r="5" fill="green" stroke="none" /><circle cx="5877" cy="2899" r="5" fill="green" stroke="none" /><circle cx="5888" cy="2946" r="5" fill="green" stroke="none" /><circle cx="5956" cy="3045" r="5" fill="green" stroke="none" /><circle cx="5942" cy="3037" r="5" fill="green" stroke="none" /><circle cx="5913" cy="2869" r="5" fill="green" stroke="none" /><circle cx="5882" cy="2929" r="5" fill="green" stroke="none" /><circle cx="6042" cy="2909" r="5" fill="green" stroke="none" /><circle cx="5983" cy="2904" r="5" fill="green" stroke="none" /><circle cx="5928" cy="3013" r="5" fill="green" stroke="none" /><circle cx="6027" cy="2941" r="5" fill="green" stroke="none" /><circle cx="5946" cy="3055" r="5" fill="green" stroke="none" /><circle cx="6028" cy="3055" r="5" fill="green" stroke="none" /><circle cx="5926" cy="2878" r="5" fill="green" stroke="none" /><circle cx="5939" cy="3031" r="5" fill="green" stroke="none" /><circle cx="5891" cy="2938" r="5" fill="green" stroke="none" /><circle cx="5886" cy="2922" r="5" fill="green" stroke="none" /><circle cx="6049" cy="3058" r="5" fill="green" stroke="none" /><circle cx="6056" cy="2965" r="5" fill="green" stroke="none" /><circle cx="6038" cy="3008" r="5" fill="green" stroke="none" /><circle cx="5944" cy="2959" r="5" fill="green" stroke="none" /><circle cx="5989" cy="3012" r="5" fill="green" stroke="none" /><circle cx="5960" cy="2890" r="5" fill="green" stroke="none" /><circle cx="5884" cy="2982" r="5" fill="green" stroke="none" /><circle cx="6007" cy="2965" r="5" fill="green" stroke="none" /><circle cx="5941" cy="3024" r="5" fill="green" stroke="none" /><circle cx="6051" cy="3061" r="5" fill="green" stroke="none" /><circle cx="5876" cy="2977" r="5" fill="green" stroke="none" /><circle cx="5977" cy="2959" r="5" fill="green" stroke="none" /><circle cx="5983" cy="3056" r="5" fill="green" stroke="none" /><circle cx="6004" cy="3017" r="5" fill="green" stroke="none" /><circle cx="6072" cy="3004" r="5" fill="green" stroke="none" /><circle cx="6041" cy="2865" r="5" fill="green" stroke="none" /><circle cx="5936" cy="2961" r="5" fill="green" stroke="none" /><circle cx="6068" cy="2971" r="5" fill="green" stroke="none" /><circle cx="6005" cy="2971" r="5" fill="green" stroke="none" /><circle cx="5973" cy="2866" r="5" fill="green" stroke="none" /><circle cx="6063" cy="3037" r="5" fill="green" stroke="none" /><circle cx="5895" cy="3012" r="5" fill="green" stroke="none" /><circle cx="5979" cy="3012" r="5" fill="green" stroke="none" /><circle cx="5987" cy="2956" r="5" fill="green" stroke="none" /><circle cx="6016" cy="2938" r="5" fill="green" stroke="none" /><circle cx="5913" cy="2864" r="5" fill="green" stroke="none" /><circle cx="5995" cy="3019" r="5" fill="green" stroke="none" /><circle cx="5972" cy="2939" r="5" fill="green" stroke="none" /><circle cx="5877" cy="3023" r="5" fill="green" stroke="none" /><circle cx="5902" cy="2898" r="5" fill="green" stroke="none" /><circle cx="5883" cy="2943" r="5" fill="green" stroke="none" /><circle cx="6016" cy="2875" r="5" fill="green" stroke="none" /><circle cx="5909" cy="3041" r="5" fill="green" stroke="none" /><circle cx="5940" cy="2986" r="5" fill="green" stroke="none" /><circle cx="5966" cy="2938" r="5" fill="green" stroke="none" /><circle cx="6020" cy="2960" r="5" fill="green" stroke="none" /><circle cx="6007" cy="2943" r="5" fill="green" stroke="none" /><circle cx="6070" cy="3037" r="5" fill="green" stroke="none" /><circle cx="5926" cy="2968" r="5" fill="green" stroke="none" /><circle cx="6071" cy="2912" r="5" fill="green" stroke="none" /><circle cx="5959" cy="2978" r="5" fill="green" stroke="none" /><circle cx="5899" cy="2881" r="5" fill="green" stroke="none" /><circle cx="5982" cy="2931" r="5" fill="green" stroke="none" /><circle cx="5905" cy="2954" r="5" fill="green" stroke="none" /><circle cx="5963" cy="3018" r="5" fill="green" stroke="none" /><circle cx="6011" cy="3038" r="5" fill="green" stroke="none" /><circle cx="6008" cy="3036" r="5" fill="green" stroke="none" /><circle cx="5965" cy="2973" r="5" fill="green" stroke="none" /><circle cx="6050" cy="2927" r="5" fill="green" stroke="none" /><circle cx="5911" cy="2939" r="5" fill="green" stroke="none" /><circle cx="5916" cy="2953" r="5" fill="green" stroke="none" /><circle cx="6065" cy="2928" r="5" fill="green" stroke="none" /><circle cx="5886" cy="3054" r="5" fill="green" stroke="none" /><circle cx="6058" cy="2966" r="5" fill="green" stroke="none" /><circle cx="6006" cy="3063" r="5" fill="green" stroke="none" /><circle cx="5939" cy="2882" r="5" fill="green" stroke="none" /><circle cx="5876" cy="2990" r="5" fill="green" stroke="none" /><circle cx="5935" cy="2952" r="5" fill="green" stroke="none" /><circle cx="5945" cy="2882" r="5" fill="green" stroke="none" /><circle cx="5943" cy="2970" r="5" fill="green" stroke="none" /><circle cx="5909" cy="2944" r="5" fill="green" stroke="none" /><circle cx="5972" cy="2912" r="5" fill="green" stroke="none" /><circle cx="5937" cy="2909" r="5" fill="green" stroke="none" /><circle cx="6010" cy="2906" r="5" fill="green" stroke="none" /><circle cx="5930" cy="3049" r="5" fill="green" stroke="none" /><circle cx="5900" cy="3018" r="5" fill="green" stroke="none" /><circle cx="5947" cy="2978" r="5" fill="green" stroke="none" /><circle cx="5912" cy="3014" r="5" fill="green" stroke="none" /><circle cx="6010" cy="2975" r="5" fill="green" stroke="none" /><circle cx="6038" cy="2994" r="5" fill="green" stroke="none" /><circle cx="5956" cy="2886" r="5" fill="green" stroke="none" /><circle cx="5894" cy="2911" r="5" fill="green" stroke="none" /><circle cx="6006" cy="2973" r="5" fill="green" stroke="none" /><circle cx="5946" cy="3057" r="5" fill="green" stroke="none" /><circle cx="5998" cy="3016" r="5" fill="green" stroke="none" /><circle cx="6034" cy="2916" r="5" fill="green" stroke="none" /><circle cx="5885" cy="3051" r="5" fill="green" stroke="none" /><circle cx="5890" cy="3060" r="5" fill="green" stroke="none" /><circle cx="5876" cy="2865" r="5" fill="green" stroke="none" /><circle cx="5896" cy="3000" r="5" fill="green" stroke="none" /><circle cx="6053" cy="3018" r="5" fill="green" stroke="none" /><circle cx="5927" cy="3014" r="5" fill="green" stroke="none" /><circle cx="5893" cy="2969" r="5" fill="green" stroke="none" /><circle cx="5930" cy="2953" r="5" fill="green" stroke="none" /><circle cx="6013" cy="3017" r="5" fill="green" stroke="none" /><circle cx="5949" cy="2932" r="5" fill="green" stroke="none" /><circle cx="5958" cy="2949" r="5" fill="green" stroke="none" /><circle cx="6042" cy="2926" r="5" fill="green" stroke="none" /><circle cx="5925" cy="2924" r="5" fill="green" stroke="none" /><circle cx="5945" cy="3002" r="5" fill="green" stroke="none" /><circle cx="5932" cy="2995" r="5" fill="green" stroke="none" /><circle cx="5899" cy="2956" r="5" fill="green" stroke="none" /><circle cx="6039" cy="2993" r="5" fill="green" stroke="none" /><circle cx="5999" cy="2913" r="5" fill="green" stroke="none" /><circle cx="5873" cy="3049" r="5" fill="green" stroke="none" /><circle cx="5968" cy="2985" r="5" fill="green" stroke="none" /><circle cx="5890" cy="2894" r="5" fill="green" stroke="none" /><circle cx="6049" cy="3005" r="5" fill="green" stroke="none" /><circle cx="5913" cy="2900" r="5" fill="green" stroke="none" /><circle cx="6008" cy="2915" r="5" fill="green" stroke="none" /><circle cx="5933" cy="3042" r="5" fill="green" stroke="none" /><circle cx="5963" cy="3060" r="5" fill="green" stroke="none" /><circle cx="6030" cy="3008" r="5" fill="green" stroke="none" /><circle cx="5958" cy="2869" r="5" fill="green" stroke="none" /><circle cx="5923" cy="3045" r="5" fill="green" stroke="none" /><circle cx="5999" cy="3011" r="5" fill="green" stroke="none" /><circle cx="5960" cy="3023" r="5" fill="green" stroke="none" /><circle cx="5982" cy="2888" r="5" fill="green" stroke="none" /><circle cx="5930" cy="2921" r="5" fill="green" stroke="none" /><circle cx="6045" cy="2886" r="5" fill="green" stroke="none" /><circle cx="5933" cy="3011" r="5" fill="green" stroke="none" /><circle cx="5993" cy="2933" r="5" fill="green" stroke="none" /><circle cx="5945" cy="3003" r="5" fill="green" stroke="none" /><circle cx="5943" cy="2912" r="5" fill="green" stroke="none" /><circle cx="6064" cy="3021" r="5" fill="green" stroke="none" /><circle cx="5911" cy="2990" r="5" fill="green" stroke="none" /><circle cx="5982" cy="2871" r="5" fill="green" stroke="none" /><circle cx="5943" cy="3044" r="5" fill="green" stroke="none" /><circle cx="5965" cy="3023" r="5" fill="green" stroke="none" /><circle cx="5983" cy="2870" r="5" fill="green" stroke="none" /><circle cx="5920" cy="2965" r="5" fill="green" stroke="none" /><circle cx="6011" cy="3063" r="5" fill="green" stroke="none" /><circle cx="6029" cy="3040" r="5" fill="green" stroke="none" /><circle cx="6048" cy="2957" r="5" fill="green" stroke="none" /><circle cx="6005" cy="2923" r="5" fill="green" stroke="none" /><circle cx="6027" cy="2940" r="5" fill="green" stroke="none" /><circle cx="6071" cy="2939" r="5" fill="green" stroke="none" /><circle cx="6027" cy="2876" r="5" fill="green" stroke="none" /><circle cx="5923" cy="2873" r="5" fill="green" stroke="none" /><circle cx="5907" cy="3039" r="5" fill="green" stroke="none" /><circle cx="6016" cy="2903" r="5" fill="green" stroke="none" /><circle cx="5926" cy="3061" r="5" fill="green" stroke="none" /><circle cx="5981" cy="2907" r="5" fill="green" stroke="none" /><circle cx="6061" cy="3000" r="5" fill="green" stroke="none" /><circle cx="5997" cy="3046" r="5" fill="green" stroke="none" /><circle cx="5946" cy="2963" r="5" fill="green" stroke="none" /><circle cx="5884" cy="3032" r="5" fill="green" stroke="none" /><circle cx="5927" cy="3012" r="5" fill="green" stroke="none" /><circle cx="5957" cy="2979" r="5" fill="green" stroke="none" /><circle cx="5873" cy="2918" r="5" fill="green" stroke="none" /><circle cx="6010" cy="2874" r="5" fill="green" stroke="none" /><circle cx="5993" cy="2915" r="5" fill="green" stroke="none" /><circle cx="5964" cy="3032" r="5" fill="green" stroke="none" /><circle cx="5920" cy="2911" r="5" fill="green" stroke="none" /><circle cx="5897" cy="2885" r="5" fill="green" stroke="none" /><circle cx="6071" cy="2871" r="5" fill="green" stroke="none" /><circle cx="5972" cy="3017" r="5" fill="green" stroke="none" /><circle cx="6051" cy="2892" r="5" fill="green" stroke="none" /><circle cx="6068" cy="2972" r="5" fill="green" stroke="none" /><circle cx="5957" cy="2965" r="5" fill="green" stroke="none" /><circle cx="5989" cy="3049" r="5" fill="green" stroke="none" /><circle cx="5968" cy="2999" r="5" fill="green" stroke="none" /><circle cx="6045" cy="3052" r="5" fill="green" stroke="none" /><circle cx="5878" cy="2933" r="5" fill="green" stroke="none" /><circle cx="5874" cy="2913" r="5" fill="green" stroke="none" /><circle cx="6037" cy="2955" r="5" fill="green" stroke="none" /><circle cx="5994" cy="2887" r="5" fill="green" stroke="none" /><circle cx="6048" cy="2998" r="5" fill="green" stroke="none" /><circle cx="6057" cy="2878" r="5" fill="green" stroke="none" /><circle cx="5907" cy="3052" r="5" fill="green" stroke="none" /><circle cx="5948" cy="2999" r="5" fill="green" stroke="none" /><circle cx="6058" cy="3060" r="5" fill="green" stroke="none" /><circle cx="6035" cy="2993" r="5" fill="green" stroke="none" /><circle cx="6013" cy="3057" r="5" fill="green" stroke="none" /><circle cx="6046" cy="2964" r="5" fill="green" stroke="none" /><circle cx="5889" cy="2885" r="5" fill="green" stroke="none" /><circle cx="6052" cy="3036" r="5" fill="green" stroke="none" /><circle cx="6046" cy="2995" r="5" fill="green" stroke="none" /><circle cx="6018" cy="2978" r="5" fill="green" stroke="none" /><circle cx="5983" cy="3028" r="5" fill="green" stroke="none" /><circle cx="5933" cy="2975" r="5" fill="green" stroke="none" /><circle cx="5989" cy="2976" r="5" fill="green" stroke="none" /><circle cx="5920" cy="3026" r="5" fill="green" stroke="none" /><circle cx="6048" cy="2970" r="5" fill="green" stroke="none" /><circle cx="5904" cy="2913" r="5" fill="green" stroke="none" /><circle cx="6016" cy="3010" r="5" fill="green" stroke="none" /><circle cx="6064" cy="2973" r="5" fill="green" stroke="none" /><circle cx="6006" cy="2864" r="5" fill="green" stroke="none" /><circle cx="5931" cy="2887" r="5" fill="green" stroke="none" /><circle cx="5874" cy="3024" r="5" fill="green" stroke="none" /><circle cx="5916" cy="3035" r="5" fill="green" stroke="none" /><circle cx="6019" cy="2938" r="5" fill="green" stroke="none" /><circle cx="6059" cy="2913" r="5" fill="green" stroke="none" /><circle cx="6064" cy="2927" r="5" fill="green" stroke="none" /><circle cx="5942" cy="2958" r="5" fill="green" stroke="none" /><circle cx="5988" cy="2972" r="5" fill="green" stroke="none" /><circle cx="5952" cy="3004" r="5" fill="green" stroke="none" /><circle cx="5981" cy="3021" r="5" fill="green" stroke="none" /><circle cx="6006" cy="2893" r="5" fill="green" stroke="none" /><circle cx="5882" cy="2935" r="5" fill="green" stroke="none" /><circle cx="6038" cy="2874" r="5" fill="green" stroke="none" /><circle cx="5909" cy="2974" r="5" fill="green" stroke="none" /><circle cx="5967" cy="3036" r="5" fill="green" stroke="none" /><circle cx="5975" cy="2933" r="5" fill="green" stroke="none" /><circle cx="5945" cy="2891" r="5" fill="green" stroke="none" /><circle cx="6037" cy="3018" r="5" fill="green" stroke="none" /><circle cx="5953" cy="2999" r="5" fill="green" stroke="none" /><circle cx="5975" cy="2964" r="5" fill="green" stroke="none" /><circle cx="5951" cy="2900" r="5" fill="green" stroke="none" /><circle cx="6002" cy="2947" r="5" fill="green" stroke="none" /><circle cx="6027" cy="2964" r="5" fill="green" stroke="none" /><circle cx="5954" cy="2865" r="5" fill="green" stroke="none" /><circle cx="5913" cy="2947" r="5" fill="green" stroke="none" /><circle cx="6024" cy="2903" r="5" fill="green" stroke="none" /><circle cx="5941" cy="2879" r="5" fill="green" stroke="none" /><circle cx="5959" cy="2905" r="5" fill="green" stroke="none" /><circle cx="6063" cy="2866" r="5" fill="green" stroke="none" /><circle cx="5956" cy="2966" r="5" fill="green" stroke="none" /><circle cx="6042" cy="2878" r="5" fill="green" stroke="none" /><circle cx="5875" cy="3000" r="5" fill="green" stroke="none" /><circle cx="6068" cy="3034" r="5" fill="green" stroke="none" /><circle cx="6015" cy="2959" r="5" fill="green" stroke="none" /><circle cx="5940" cy="2916" r="5" fill="green" stroke="none" /><circle cx="5889" cy="2950" r="5" fill="green" stroke="none" /><circle cx="5962" cy="3049" r="5" fill="green" stroke="none" /><circle cx="6037" cy="2881" r="5" fill="green" stroke="none" /><circle cx="5894" cy="3048" r="5" fill="green" stroke="none" /><circle cx="5926" cy="2983" r="5" fill="green" stroke="none" /><circle cx="5932" cy="2934" r="5" fill="green" stroke="none" /><circle cx="5882" cy="2871" r="5" fill="green" stroke="none" /><circle cx="5931" cy="2957" r="5" fill="green" stroke="none" /><circle cx="6063" cy="2961" r="5" fill="green" stroke="none" /><circle cx="5996" cy="2995" r="5" fill="green" stroke="none" /><circle cx="6042" cy="2904" r="5" fill="green" stroke="none" /><circle cx="6056" cy="2905" r="5" fill="green" stroke="none" /><circle cx="6051" cy="3050" r="5" fill="green" stroke="none" /><circle cx="5887" cy="2976" r="5" fill="green" stroke="none" /><circle cx="5893" cy="2874" r="5" fill="green" stroke="none" /><circle cx="6038" cy="2886" r="5" fill="green" stroke="none" /><circle cx="6035" cy="2998" r="5" fill="green" stroke="none" /><circle cx="6037" cy="2949" r="5" fill="green" stroke="none" /><circle cx="6063" cy="2921" r="5" fill="green" stroke="none" /><circle cx="5903" cy="3019" r="5" fill="green" stroke="none" /><circle cx="6060" cy="2897" r="5" fill="green" stroke="none" /><circle cx="6001" cy="2999" r="5" fill="green" stroke="none" /><circle cx="6044" cy="2927" r="5" fill="green" stroke="none" /><circle cx="5979" cy="2927" r="5" fill="green" stroke="none" /><circle cx="5978" cy="2977" r="5" fill="green" stroke="none" /><circle cx="5931" cy="2993" r="5" fill="green" stroke="none" /><circle cx="5984" cy="2937" r="5" fill="green" stroke="none" /><circle cx="5909" cy="2962" r="5" fill="green" stroke="none" /><circle cx="5928" cy="2911" r="5" fill="green" stroke="none" /><circle cx="5920" cy="2864" r="5" fill="green" stroke="none" /><circle cx="5924" cy="2886" r="5" fill="green" stroke="none" /><circle cx="5924" cy="2943" r="5" fill="green" stroke="none" /><circle cx="5950" cy="3008" r="5" fill="green" stroke="none" /><circle cx="5895" cy="3063" r="5" fill="green" stroke="none" /><circle cx="5887" cy="2906" r="5" fill="green" stroke="none" /><circle cx="5879" cy="3056" r="5" fill="green" stroke="none" /><circle cx="5906" cy="2999" r="5" fill="green" stroke="none" /><circle cx="5890" cy="2934" r="5" fill="green" stroke="none" /><circle cx="6029" cy="3010" r="5" fill="green" stroke="none" /><circle cx="6065" cy="2876" r="5" fill="green" stroke="none" /><circle cx="5950" cy="2884" r="5" fill="green" stroke="none" /><circle cx="6040" cy="2941" r="5" fill="green" stroke="none" /><circle cx="5982" cy="2913" r="5" fill="green" stroke="none" /><circle cx="6037" cy="2940" r="5" fill="green" stroke="none" /><circle cx="6068" cy="3004" r="5" fill="green" stroke="none" /><circle cx="5940" cy="2924" r="5" fill="green" stroke="none" /><circle cx="6027" cy="2919" r="5" fill="green" stroke="none" /><circle cx="5950" cy="2882" r="5" fill="green" stroke="none" /><circle cx="6011" cy="3028" r="5" fill="green" stroke="none" /><circle cx="5985" cy="3020" r="5" fill="green" stroke="none" /><circle cx="5933" cy="2980" r="5" fill="green" stroke="none" /><circle cx="5874" cy="3020" r="5" fill="green" stroke="none" /><circle cx="6067" cy="2980" r="5" fill="green" stroke="none" /><circle cx="6048" cy="2929" r="5" fill="green" stroke="none" /><circle cx="6039" cy="3053" r="5" fill="green" stroke="none" /><circle cx="5975" cy="2915" r="5" fill="green" stroke="none" /><circle cx="6039" cy="2899" r="5" fill="green" stroke="none" /><circle cx="5990" cy="2895" r="5" fill="green" stroke="none" /><circle cx="5931" cy="2866" r="5" fill="green" stroke="none" /><circle cx="6058" cy="3049" r="5" fill="green" stroke="none" /><circle cx="6029" cy="2977" r="5" fill="green" stroke="none" /><circle cx="5944" cy="2940" r="5" fill="green" stroke="none" /><circle cx="5939" cy="3039" r="5" fill="green" stroke="none" /><circle cx="5934" cy="2887" r="5" fill="green" stroke="none" /><circle cx="5994" cy="2909" r="5" fill="green" stroke="none" /><circle cx="5973" cy="3052" r="5" fill="green" stroke="none" /><circle cx="6068" cy="2909" r="5" fill="green" stroke="none" /><circle cx="5909" cy="3005" r="5" fill="green" stroke="none" /><circle cx="5941" cy="3020" r="5" fill="green" stroke="none" /><circle cx="6033" cy="3004" r="5" fill="green" stroke="none" /><circle cx="6060" cy="2973" r="5" fill="green" stroke="none" /><circle cx="5893" cy="3059" r="5" fill="green" stroke="none" /><circle cx="6064" cy="2928" r="5" fill="green" stroke="none" /><circle cx="6024" cy="2886" r="5" fill="green" stroke="none" /><circle cx="5887" cy="2928" r="5" fill="green" stroke="none" /><circle cx="6009" cy="2902" r="5" fill="green" stroke="none" /><circle cx="6048" cy="3060" r="5" fill="green" stroke="none" /><circle cx="6060" cy="3063" r="5" fill="green" stroke="none" /><circle cx="6008" cy="2886" r="5" fill="green" stroke="none" /><circle cx="5971" cy="3043" r="5" fill="green" stroke="none" /><circle cx="6046" cy="2908" r="5" fill="green" stroke="none" /><circle cx="5938" cy="2874" r="5" fill="green" stroke="none" /><circle cx="5910" cy="2927" r="5" fill="green" stroke="none" /><circle cx="5967" cy="3006" r="5" fill="green" stroke="none" /><circle cx="6057" cy="2965" r="5" fill="green" stroke="none" /><circle cx="5980" cy="3012" r="5" fill="green" stroke="none" /><circle cx="5877" cy="3058" r="5" fill="green" stroke="none" /><circle cx="5969" cy="2959" r="5" fill="green" stroke="none" /><circle cx="5957" cy="2952" r="5" fill="green" stroke="none" /><circle cx="5881" cy="2996" r="5" fill="green" stroke="none" /><circle cx="6001" cy="3008" r="5" fill="green" stroke="none" /><circle cx="5957" cy="2926" r="5" fill="green" stroke="none" /><circle cx="5923" cy="2898" r="5" fill="green" stroke="none" /><circle cx="6006" cy="2981" r="5" fill="green" stroke="none" /><circle cx="5896" cy="2911" r="5" fill="green" stroke="none" /><circle cx="5874" cy="2881" r="5" fill="green" stroke="none" /><circle cx="5936" cy="2990" r="5" fill="green" stroke="none" /><circle cx="5892" cy="2953" r="5" fill="green" stroke="none" /><circle cx="5899" cy="3027" r="5" fill="green" stroke="none" /><circle cx="5996" cy="2913" r="5" fill="green" stroke="none" /><circle cx="5889" cy="3008" r="5" fill="green" stroke="none" /><circle cx="5938" cy="2914" r="5" fill="green" stroke="none" /><circle cx="6001" cy="2954" r="5" fill="green" stroke="none" /><circle cx="5879" cy="3056" r="5" fill="green" stroke="none" /><circle cx="6045" cy="3041" r="5" fill="green" stroke="none" /><circle cx="5920" cy="3027" r="5" fill="green" stroke="none" /><circle cx="6063" cy="2995" r="5" fill="green" stroke="none" /><circle cx="5994" cy="2875" r="5" fill="green" stroke="none" /><circle cx="5988" cy="2942" r="5" fill="green" stroke="none" /><circle cx="5876" cy="2936" r="5" fill="green" stroke="none" /><circle cx="5988" cy="3022" r="5" fill="green" stroke="none" /><circle cx="6000" cy="3044" r="5" fill="green" stroke="none" /><circle cx="5947" cy="2999" r="5" fill="green" stroke="none" /><circle cx="5907" cy="2880" r="5" fill="green" stroke="none" /><circle cx="5988" cy="2982" r="5" fill="green" stroke="none" /><circle cx="5954" cy="3042" r="5" fill="green" stroke="none" /><circle cx="6009" cy="2972" r="5" fill="green" stroke="none" /><circle cx="5886" cy="2949" r="5" fill="green" stroke="none" /><circle cx="5955" cy="3033" r="5" fill="green" stroke="none" /><circle cx="6056" cy="2907" r="5" fill="green" stroke="none" /><circle cx="6003" cy="2992" r="5" fill="green" stroke="none" /><circle cx="6024" cy="2938" r="5" fill="green" stroke="none" /><circle cx="5955" cy="2951" r="5" fill="green" stroke="none" /><circle cx="6062" cy="2912" r="5" fill="green" stroke="none" /><circle cx="5874" cy="3056" r="5" fill="green" stroke="none" /><circle cx="5882" cy="2903" r="5" fill="green" stroke="none" /><circle cx="5988" cy="2970" r="5" fill="green" stroke="none" /><circle cx="5874" cy="2883" r="5" fill="green" stroke="none" /><circle cx="5909" cy="3041" r="5" fill="green" stroke="none" /><circle cx="6036" cy="2972" r="5" fill="green" stroke="none" /><circle cx="5986" cy="3062" r="5" fill="green" stroke="none" /><circle cx="5921" cy="2993" r="5" fill="green" stroke="none" /><circle cx="5963" cy="2931" r="5" fill="green" stroke="none" /><circle cx="5968" cy="2900" r="5" fill="green" stroke="none" /><circle cx="6065" cy="2957" r="5" fill="green" stroke="none" /><circle cx="6014" cy="2983" r="5" fill="green" stroke="none" /><circle cx="5891" cy="3032" r="5" fill="green" stroke="none" /><circle cx="5924" cy="2875" r="5" fill="green" stroke="none" /><circle cx="5921" cy="2953" r="5" fill="green" stroke="none" /><circle cx="6015" cy="2907" r="5" fill="green" stroke="none" /><circle cx="5933" cy="2871" r="5" fill="green" stroke="none" /><circle cx="6066" cy="2893" r="5" fill="green" stroke="none" /><circle cx="5945" cy="3019" r="5" fill="green" stroke="none" /><circle cx="5935" cy="2991" r="5" fill="green" stroke="none" /><circle cx="5968" cy="3043" r="5" fill="green" stroke="none" /><circle cx="5897" cy="3060" r="5" fill="green" stroke="none" /><circle cx="5895" cy="2871" r="5" fill="green" stroke="none" /><circle cx="5940" cy="2905" r="5" fill="green" stroke="none" /><circle cx="6055" cy="3055" r="5" fill="green" stroke="none" /><circle cx="6046" cy="3038" r="5" fill="green" stroke="none" /><circle cx="5962" cy="2894" r="5" fill="green" stroke="none" /><circle cx="6037" cy="3039" r="5" fill="green" stroke="none" /><circle cx="5948" cy="2938" r="5" fill="green" stroke="none" /><circle cx="5947" cy="3007" r="5" fill="green" stroke="none" /><circle cx="5951" cy="2960" r="5" fill="green" stroke="none" /><circle cx="5877" cy="2954" r="5" fill="green" stroke="none" /><circle cx="6058" cy="3005" r="5" fill="green" stroke="none" /><circle cx="5892" cy="3060" r="5" fill="green" stroke="none" /></svg>