<svg viewBox="0 0 6073 3064" xmlns="http://www.w3.org/2000/svg"><rect x="0" y="0" width="6073" height="3064" fill="lightyellow" stroke="none "/><rect x="0" y="2566" width="1904" height="498" fill="white" stroke="black "/><circle cx="5969" cy="36" r="5" fill="green" stroke="none" /><circle cx="6066" cy="37" r="5" fill="green" stroke="none" /><circle cx="5883" cy="178" r="5" fill="green" stroke="none" /><circle cx="5950" cy="80" r="5" fill="green" stroke="none" /><circle cx="5913" cy="6" r="5" fill="green" stroke="none" /><circle cx="6026" cy="196" r="5" fill="green" stroke="none" /><circle cx="5946" cy="100" r="5" fill="green" stroke="none" /><circle cx="5988" cy="114" r="5" fill="green" stroke="none" /><circle cx="5984" cy="34" r="5" fill="green" stroke="none" /><circle cx="5877" cy="17" r="5" fill="green" stroke="none" /><circle cx="5889" cy="108" r="5" fill="green" stroke="none" /><circle cx="5877" cy="46" r="5" fill="green" stroke="none" /><circle cx="6027" cy="125" r="5" fill="green" stroke="none" /><circle cx="5894" cy="193" r="5" fill="green" stroke="none" /><circle cx="6001" cy="80" r="5" fill="green" stroke="none" /><circle cx="5952" cy="116" r="5" fill="green" stroke="none" /><circle cx="5941" cy="127" r="5" fill="green" stroke="none" /><circle cx="5941" cy="69" r="5" fill="green" stroke="none" /><circle cx="5902" cy="82" r="5" fill="green" stroke="none" /><circle cx="6063" cy="125" r="5" fill="green" stroke="none" /><circle cx="5960" cy="133" r="5" fill="green" stroke="none" /><circle cx="5994" cy="137" r="5" fill="green" stroke="none" /><circle cx="5897" cy="96" r="5" fill="green" stroke="none" /><circle cx="6058" cy="157" r="5" fill="green" stroke="none" /><circle cx="5958" cy="123" r="5" fill="green" stroke="none" /><circle cx="6069" cy="16" r="5" fill="green" stroke="none" /><circle cx="6042" cy="90" r="5" fill="green" stroke="none" /><circle cx="5949" cy="116" r="5" fill="green" stroke="none" /><circle cx="5904" cy="151" r="5" fill="green" stroke="none" /><circle cx="6052" cy="164" r="5" fill="green" stroke="none" /><circle cx="6050" cy="110" r="5" fill="green" stroke="none" /><circle cx="5885" cy="49" r="5" fill="green" stroke="none" /><circle cx="5953" cy="101" r="5" fill="green" stroke="none" /><circle cx="6064" cy="197" r="5" fill="green" stroke="none" /><circle cx="5977" cy="171" r="5" fill="green" stroke="none" /><circle cx="5893" cy="148" r="5" fill="green" stroke="none" /><circle cx="6047" cy="144" r="5" fill="green" stroke="none" /><circle cx="5953" cy="162" r="5" fill="green" stroke="none" /><circle cx="5986" cy="145" r="5" fill="green" stroke="none" /><circle cx="6032" cy="118" r="5" fill="green" stroke="none" /><circle cx="5955" cy="120" r="5" fill="green" stroke="none" /><circle cx="6031" cy="115" r="5" fill="green" stroke="none" /><circle cx="6043" cy="16" r="5" fill="green" stroke="none" /><circle cx="5893" cy="135" r="5" fill="green" stroke="none" /><circle cx="5909" cy="88" r="5" fill="green" stroke="none" /><circle cx="5924" cy="79" r="5" fill="green" stroke="none" /><circle cx="6031" cy="95" r="5" fill="green" stroke="none" /><circle cx="6009" cy="67" r="5" fill="green" stroke="none" /><circle cx="6001" cy="4" r="5" fill="green" stroke="none" /><circle cx="6049" cy="57" r="5" fill="green" stroke="none" /><circle cx="6052" cy="180" r="5" fill="green" stroke="none" /><circle cx="5994" cy="105" r="5" fill="green" stroke="none" /><circle cx="5960" cy="102" r="5" fill="green" stroke="none" /><circle cx="5927" cy="173" r="5" fill="green" stroke="none" /><circle cx="6007" cy="94" r="5" fill="green" stroke="none" /><circle cx="6053" cy="37" r="5" fill="green" stroke="none" /><circle cx="5998" cy="100" r="5" fill="green" stroke="none" /><circle cx="5963" cy="72" r="5" fill="green" stroke="none" /><circle cx="6028" cy="29" r="5" fill="green" stroke="none" /><circle cx="5996" cy="135" r="5" fill="green" stroke="none" /><circle cx="5983" cy="80" r="5" fill="green" stroke="none" /><circle cx="5885" cy="58" r="5" fill="green" stroke="none" /><circle cx="5902" cy="160" r="5" fill="green" stroke="none" /><circle cx="6041" cy="142" r="5" fill="green" stroke="none" /><circle cx="5923" cy="126" r="5" fill="green" stroke="none" /><circle cx="6007" cy="39" r="5" fill="green" stroke="none" /><circle cx="5978" cy="129" r="5" fill="green" stroke="none" /><circle cx="5880" cy="95" r="5" fill="green" stroke="none" /><circle cx="6068" cy="171" r="5" fill="green" stroke="none" /><circle cx="5930" cy="171" r="5" fill="green" stroke="none" /><circle cx="6050" cy="20" r="5" fill="green" stroke="none" /><circle cx="5924" cy="117" r="5" fill="green" stroke="none" /><circle cx="6018" cy="132" r="5" fill="green" stroke="none" /><circle cx="5914" cy="108" r="5" fill="green" stroke="none" /><circle cx="5893" cy="53" r="5" fill="green" stroke="none" /><circle cx="5876" cy="170" r="5" fill="green" stroke="none" /><circle cx="5972" cy="29" r="5" fill="green" stroke="none" /><circle cx="5945" cy="189" r="5" fill="green" stroke="none" /><circle cx="6024" cy="38" r="5" fill="green" stroke="none" /><circle cx="5989" cy="59" r="5" fill="green" stroke="none" /><circle cx="6011" cy="82" r="5" fill="green" stroke="none" /><circle cx="5953" cy="38" r="5" fill="green" stroke="none" /><circle cx="5961" cy="100" r="5" fill="green" stroke="none" /><circle cx="6054" cy="140" r="5" fill="green" stroke="none" /><circle cx="5990" cy="36" r="5" fill="green" stroke="none" /><circle cx="6059" cy="166" r="5" fill="green" stroke="none" /><circle cx="5917" cy="10" r="5" fill="green" stroke="none" /><circle cx="5894" cy="192" r="5" fill="green" stroke="none" /><circle cx="5901" cy="38" r="5" fill="green" stroke="none" /><circle cx="5965" cy="110" r="5" fill="green" stroke="none" /><circle cx="5977" cy="186" r="5" fill="green" stroke="none" /><circle cx="5967" cy="9" r="5" fill="green" stroke="none" /><circle cx="5938" cy="83" r="5" fill="green" stroke="none" /><circle cx="5938" cy="70" r="5" fill="green" stroke="none" /><circle cx="6043" cy="1" r="5" fill="green" stroke="none" /><circle cx="5995" cy="5" r="5" fill="green" stroke="none" /><circle cx="5971" cy="5" r="5" fill="green" stroke="none" /><circle cx="6067" cy="81" r="5" fill="green" stroke="none" /><circle cx="6065" cy="191" r="5" fill="green" stroke="none" /><circle cx="6072" cy="41" r="5" fill="green" stroke="none" /><circle cx="6057" cy="11" r="5" fill="green" stroke="none" /><circle cx="5910" cy="40" r="5" fill="green" stroke="none" /><circle cx="6060" cy="140" r="5" fill="green" stroke="none" /><circle cx="5939" cy="135" r="5" fill="green" stroke="none" /><circle cx="5877" cy="23" r="5" fill="green" stroke="none" /><circle cx="5883" cy="194" r="5" fill="green" stroke="none" /><circle cx="5968" cy="121" r="5" fill="green" stroke="none" /><circle cx="5988" cy="15" r="5" fill="green" stroke="none" /><circle cx="6072" cy="62" r="5" fill="green" stroke="none" /><circle cx="5879" cy="176" r="5" fill="green" stroke="none" /><circle cx="6056" cy="54" r="5" fill="green" stroke="none" /><circle cx="5916" cy="53" r="5" fill="green" stroke="none" /><circle cx="5877" cy="86" r="5" fill="green" stroke="none" /><circle cx="5877" cy="165" r="5" fill="green" stroke="none" /><circle cx="5888" cy="118" r="5" fill="green" stroke="none" /><circle cx="5956" cy="19" r="5" fill="green" stroke="none" /><circle cx="5942" cy="27" r="5" fill="green" stroke="none" /><circle cx="5913" cy="195" r="5" fill="green" stroke="none" /><circle cx="5882" cy="135" r="5" fill="green" stroke="none" /><circle cx="6042" cy="155" r="5" fill="green" stroke="none" /><circle cx="5983" cy="160" r="5" fill="green" stroke="none" /><circle cx="5928" cy="51" r="5" fill="green" stroke="none" /><circle cx="6027" cy="123" r="5" fill="green" stroke="none" /><circle cx="5946" cy="9" r="5" fill="green" stroke="none" /><circle cx="6028" cy="9" r="5" fill="green" stroke="none" /><circle cx="5926" cy="186" r="5" fill="green" stroke="none" /><circle cx="5939" cy="33" r="5" fill="green" stroke="none" /><circle cx="5891" cy="126" r="5" fill="green" stroke="none" /><circle cx="5886" cy="142" r="5" fill="green" stroke="none" /><circle cx="6049" cy="6" r="5" fill="green" stroke="none" /><circle cx="6056" cy="99" r="5" fill="green" stroke="none" /><circle cx="6038" cy="56" r="5" fill="green" stroke="none" /><circle cx="5944" cy="105" r="5" fill="green" stroke="none" /><circle cx="5989" cy="52" r="5" fill="green" stroke="none" /><circle cx="5960" cy="174" r="5" fill="green" stroke="none" /><circle cx="5884" cy="82" r="5" fill="green" stroke="none" /><circle cx="6007" cy="99" r="5" fill="green" stroke="none" /><circle cx="5941" cy="40" r="5" fill="green" stroke="none" /><circle cx="6051" cy="3" r="5" fill="green" stroke="none" /><circle cx="5876" cy="87" r="5" fill="green" stroke="none" /><circle cx="5977" cy="105" r="5" fill="green" stroke="none" /><circle cx="5983" cy="8" r="5" fill="green" stroke="none" /><circle cx="6004" cy="47" r="5" fill="green" stroke="none" /><circle cx="6072" cy="60" r="5" fill="green" stroke="none" /><circle cx="6041" cy="199" r="5" fill="green" stroke="none" /><circle cx="5936" cy="103" r="5" fill="green" stroke="none" /><circle cx="6068" cy="93" r="5" fill="green" stroke="none" /><circle cx="6005" cy="93" r="5" fill="green" stroke="none" /><circle cx="5973" cy="198" r="5" fill="green" stroke="none" /><circle cx="6063" cy="27" r="5" fill="green" stroke="none" /><circle cx="5895" cy="52" r="5" fill="green" stroke="none" /><circle cx="5979" cy="52" r="5" fill="green" stroke="none" /><circle cx="5987" cy="108" r="5" fill="green" stroke="none" /><circle cx="6016" cy="126" r="5" fill="green" stroke="none" /><circle cx="5913" cy="200" r="5" fill="green" stroke="none" /><circle cx="5995" cy="45" r="5" fill="green" stroke="none" /><circle cx="5972" cy="125" r="5" fill="green" stroke="none" /><circle cx="5877" cy="41" r="5" fill="green" stroke="none" /><circle cx="5902" cy="166" r="5" fill="green" stroke="none" /><circle cx="5883" cy="121" r="5" fill="green" stroke="none" /><circle cx="6016" cy="189" r="5" fill="green" stroke="none" /><circle cx="5909" cy="23" r="5" fill="green" stroke="none" /><circle cx="5940" cy="78" r="5" fill="green" stroke="none" /><circle cx="5966" cy="126" r="5" fill="green" stroke="none" /><circle cx="6020" cy="104" r="5" fill="green" stroke="none" /><circle cx="6007" cy="121" r="5" fill="green" stroke="none" /><circle cx="6070" cy="27" r="5" fill="green" stroke="none" /><circle cx="5926" cy="96" r="5" fill="green" stroke="none" /><circle cx="6071" cy="152" r="5" fill="green" stroke="none" /><circle cx="5959" cy="86" r="5" fill="green" stroke="none" /><circle cx="5899" cy="183" r="5" fill="green" stroke="none" /><circle cx="5982" cy="133" r="5" fill="green" stroke="none" /><circle cx="5905" cy="110" r="5" fill="green" stroke="none" /><circle cx="5963" cy="46" r="5" fill="green" stroke="none" /><circle cx="6011" cy="26" r="5" fill="green" stroke="none" /><circle cx="6008" cy="28" r="5" fill="green" stroke="none" /><circle cx="5965" cy="91" r="5" fill="green" stroke="none" /><circle cx="6050" cy="137" r="5" fill="green" stroke="none" /><circle cx="5911" cy="125" r="5" fill="green" stroke="none" /><circle cx="5916" cy="111" r="5" fill="green" stroke="none" /><circle cx="6065" cy="136" r="5" fill="green" stroke="none" /><circle cx="5886" cy="10" r="5" fill="green" stroke="none" /><circle cx="6058" cy="98" r="5" fill="green" stroke="none" /><circle cx="6006" cy="1" r="5" fill="green" stroke="none" /><circle cx="5939" cy="182" r="5" fill="green" stroke="none" /><circle cx="5876" cy="74" r="5" fill="green" stroke="none" /><circle cx="5935" cy="112" r="5" fill="green" stroke="none" /><circle cx="5945" cy="182" r="5" fill="green" stroke="none" /><circle cx="5943" cy="94" r="5" fill="green" stroke="none" /><circle cx="5909" cy="120" r="5" fill="green" stroke="none" /><circle cx="5972" cy="152" r="5" fill="green" stroke="none" /><circle cx="5937" cy="155" r="5" fill="green" stroke="none" /><circle cx="6010" cy="158" r="5" fill="green" stroke="none" /><circle cx="5930" cy="15" r="5" fill="green" stroke="none" /><circle cx="5900" cy="46" r="5" fill="green" stroke="none" /><circle cx="5947" cy="86" r="5" fill="green" stroke="none" /><circle cx="5912" cy="50" r="5" fill="green" stroke="none" /><circle cx="6010" cy="89" r="5" fill="green" stroke="none" /><circle cx="6038" cy="70" r="5" fill="green" stroke="none" /><circle cx="5956" cy="178" r="5" fill="green" stroke="none" /><circle cx="5894" cy="153" r="5" fill="green" stroke="none" /><circle cx="6006" cy="91" r="5" fill="green" stroke="none" /><circle cx="5946" cy="7" r="5" fill="green" stroke="none" /><circle cx="5998" cy="48" r="5" fill="green" stroke="none" /><circle cx="6034" cy="148" r="5" fill="green" stroke="none" /><circle cx="5885" cy="13" r="5" fill="green" stroke="none" /><circle cx="5890" cy="4" r="5" fill="green" stroke="none" /><circle cx="5876" cy="199" r="5" fill="green" stroke="none" /><circle cx="5896" cy="64" r="5" fill="green" stroke="none" /><circle cx="6053" cy="46" r="5" fill="green" stroke="none" /><circle cx="5927" cy="50" r="5" fill="green" stroke="none" /><circle cx="5893" cy="95" r="5" fill="green" stroke="none" /><circle cx="5930" cy="111" r="5" fill="green" stroke="none" /><circle cx="6013" cy="47" r="5" fill="green" stroke="none" /><circle cx="5949" cy="132" r="5" fill="green" stroke="none" /><circle cx="5958" cy="115" r="5" fill="green" stroke="none" /><circle cx="6042" cy="138" r="5" fill="green" stroke="none" /><circle cx="5925" cy="140" r="5" fill="green" stroke="none" /><circle cx="5945" cy="62" r="5" fill="green" stroke="none" /><circle cx="5932" cy="69" r="5" fill="green" stroke="none" /><circle cx="5899" cy="108" r="5" fill="green" stroke="none" /><circle cx="6039" cy="71" r="5" fill="green" stroke="none" /><circle cx="5999" cy="151" r="5" fill="green" stroke="none" /><circle cx="5873" cy="15" r="5" fill="green" stroke="none" /><circle cx="5968" cy="79" r="5" fill="green" stroke="none" /><circle cx="5890" cy="170" r="5" fill="green" stroke="none" /><circle cx="6049" cy="59" r="5" fill="green" stroke="none" /><circle cx="5913" cy="164" r="5" fill="green" stroke="none" /><circle cx="6008" cy="149" r="5" fill="green" stroke="none" /><circle cx="5933" cy="22" r="5" fill="green" stroke="none" /><circle cx="5963" cy="4" r="5" fill="green" stroke="none" /><circle cx="6030" cy="56" r="5" fill="green" stroke="none" /><circle cx="5958" cy="195" r="5" fill="green" stroke="none" /><circle cx="5923" cy="19" r="5" fill="green" stroke="none" /><circle cx="5999" cy="53" r="5" fill="green" stroke="none" /><circle cx="5960" cy="41" r="5" fill="green" stroke="none" /><circle cx="5982" cy="176" r="5" fill="green" stroke="none" /><circle cx="5930" cy="143" r="5" fill="green" stroke="none" /><circle cx="6045" cy="178" r="5" fill="green" stroke="none" /><circle cx="5933" cy="53" r="5" fill="green" stroke="none" /><circle cx="5993" cy="131" r="5" fill="green" stroke="none" /><circle cx="5945" cy="61" r="5" fill="green" stroke="none" /><circle cx="5943" cy="152" r="5" fill="green" stroke="none" /><circle cx="6064" cy="43" r="5" fill="green" stroke="none" /><circle cx="5911" cy="74" r="5" fill="green" stroke="none" /><circle cx="5982" cy="193" r="5" fill="green" stroke="none" /><circle cx="5943" cy="20" r="5" fill="green" stroke="none" /><circle cx="5965" cy="41" r="5" fill="green" stroke="none" /><circle cx="5983" cy="194" r="5" fill="green" stroke="none" /><circle cx="5920" cy="99" r="5" fill="green" stroke="none" /><circle cx="6011" cy="1" r="5" fill="green" stroke="none" /><circle cx="6029" cy="24" r="5" fill="green" stroke="none" /><circle cx="6048" cy="107" r="5" fill="green" stroke="none" /><circle cx="6005" cy="141" r="5" fill="green" stroke="none" /><circle cx="6027" cy="124" r="5" fill="green" stroke="none" /><circle cx="6071" cy="125" r="5" fill="green" stroke="none" /><circle cx="6027" cy="188" r="5" fill="green" stroke="none" /><circle cx="5923" cy="191" r="5" fill="green" stroke="none" /><circle cx="5907" cy="25" r="5" fill="green" stroke="none" /><circle cx="6016" cy="161" r="5" fill="green" stroke="none" /><circle cx="5926" cy="3" r="5" fill="green" stroke="none" /><circle cx="5981" cy="157" r="5" fill="green" stroke="none" /><circle cx="6061" cy="64" r="5" fill="green" stroke="none" /><circle cx="5997" cy="18" r="5" fill="green" stroke="none" /><circle cx="5946" cy="101" r="5" fill="green" stroke="none" /><circle cx="5884" cy="32" r="5" fill="green" stroke="none" /><circle cx="5927" cy="52" r="5" fill="green" stroke="none" /><circle cx="5957" cy="85" r="5" fill="green" stroke="none" /><circle cx="5873" cy="146" r="5" fill="green" stroke="none" /><circle cx="6010" cy="190" r="5" fill="green" stroke="none" /><circle cx="5993" cy="149" r="5" fill="green" stroke="none" /><circle cx="5964" cy="32" r="5" fill="green" stroke="none" /><circle cx="5920" cy="153" r="5" fill="green" stroke="none" /><circle cx="5897" cy="179" r="5" fill="green" stroke="none" /><circle cx="6071" cy="193" r="5" fill="green" stroke="none" /><circle cx="5972" cy="47" r="5" fill="green" stroke="none" /><circle cx="6051" cy="172" r="5" fill="green" stroke="none" /><circle cx="6068" cy="92" r="5" fill="green" stroke="none" /><circle cx="5957" cy="99" r="5" fill="green" stroke="none" /><circle cx="5989" cy="15" r="5" fill="green" stroke="none" /><circle cx="5968" cy="65" r="5" fill="green" stroke="none" /><circle cx="6045" cy="12" r="5" fill="green" stroke="none" /><circle cx="5878" cy="131" r="5" fill="green" stroke="none" /><circle cx="5874" cy="151" r="5" fill="green" stroke="none" /><circle cx="6037" cy="109" r="5" fill="green" stroke="none" /><circle cx="5994" cy="177" r="5" fill="green" stroke="none" /><circle cx="6048" cy="66" r="5" fill="green" stroke="none" /><circle cx="6057" cy="186" r="5" fill="green" stroke="none" /><circle cx="5907" cy="12" r="5" fill="green" stroke="none" /><circle cx="5948" cy="65" r="5" fill="green" stroke="none" /><circle cx="6058" cy="4" r="5" fill="green" stroke="none" /><circle cx="6035" cy="71" r="5" fill="green" stroke="none" /><circle cx="6013" cy="7" r="5" fill="green" stroke="none" /><circle cx="6046" cy="100" r="5" fill="green" stroke="none" /><circle cx="5889" cy="179" r="5" fill="green" stroke="none" /><circle cx="6052" cy="28" r="5" fill="green" stroke="none" /><circle cx="6046" cy="69" r="5" fill="green" stroke="none" /><circle cx="6018" cy="86" r="5" fill="green" stroke="none" /><circle cx="5983" cy="36" r="5" fill="green" stroke="none" /><circle cx="5933" cy="89" r="5" fill="green" stroke="none" /><circle cx="5989" cy="88" r="5" fill="green" stroke="none" /><circle cx="5920" cy="38" r="5" fill="green" stroke="none" /><circle cx="6048" cy="94" r="5" fill="green" stroke="none" /><circle cx="5904" cy="151" r="5" fill="green" stroke="none" /><circle cx="6016" cy="54" r="5" fill="green" stroke="none" /><circle cx="6064" cy="91" r="5" fill="green" stroke="none" /><circle cx="6006" cy="200" r="5" fill="green" stroke="none" /><circle cx="5931" cy="177" r="5" fill="green" stroke="none" /><circle cx="5874" cy="40" r="5" fill="green" stroke="none" /><circle cx="5916" cy="29" r="5" fill="green" stroke="none" /><circle cx="6019" cy="126" r="5" fill="green" stroke="none" /><circle cx="6059" cy="151" r="5" fill="green" stroke="none" /><circle cx="6064" cy="137" r="5" fill="green" stroke="none" /><circle cx="5942" cy="106" r="5" fill="green" stroke="none" /><circle cx="5988" cy="92" r="5" fill="green" stroke="none" /><circle cx="5952" cy="60" r="5" fill="green" stroke="none" /><circle cx="5981" cy="43" r="5" fill="green" stroke="none" /><circle cx="6006" cy="171" r="5" fill="green" stroke="none" /><circle cx="5882" cy="129" r="5" fill="green" stroke="none" /><circle cx="6038" cy="190" r="5" fill="green" stroke="none" /><circle cx="5909" cy="90" r="5" fill="green" stroke="none" /><circle cx="5967" cy="28" r="5" fill="green" stroke="none" /><circle cx="5975" cy="131" r="5" fill="green" stroke="none" /><circle cx="5945" cy="173" r="5" fill="green" stroke="none" /><circle cx="6037" cy="46" r="5" fill="green" stroke="none" /><circle cx="5953" cy="65" r="5" fill="green" stroke="none" /><circle cx="5975" cy="100" r="5" fill="green" stroke="none" /><circle cx="5951" cy="164" r="5" fill="green" stroke="none" /><circle cx="6002" cy="117" r="5" fill="green" stroke="none" /><circle cx="6027" cy="100" r="5" fill="green" stroke="none" /><circle cx="5954" cy="199" r="5" fill="green" stroke="none" /><circle cx="5913" cy="117" r="5" fill="green" stroke="none" /><circle cx="6024" cy="161" r="5" fill="green" stroke="none" /><circle cx="5941" cy="185" r="5" fill="green" stroke="none" /><circle cx="5959" cy="159" r="5" fill="green" stroke="none" /><circle cx="6063" cy="198" r="5" fill="green" stroke="none" /><circle cx="5956" cy="98" r="5" fill="green" stroke="none" /><circle cx="6042" cy="186" r="5" fill="green" stroke="none" /><circle cx="5875" cy="64" r="5" fill="green" stroke="none" /><circle cx="6068" cy="30" r="5" fill="green" stroke="none" /><circle cx="6015" cy="105" r="5" fill="green" stroke="none" /><circle cx="5940" cy="148" r="5" fill="green" stroke="none" /><circle cx="5889" cy="114" r="5" fill="green" stroke="none" /><circle cx="5962" cy="15" r="5" fill="green" stroke="none" /><circle cx="6037" cy="183" r="5" fill="green" stroke="none" /><circle cx="5894" cy="16" r="5" fill="green" stroke="none" /><circle cx="5926" cy="81" r="5" fill="green" stroke="none" /><circle cx="5932" cy="130" r="5" fill="green" stroke="none" /><circle cx="5882" cy="193" r="5" fill="green" stroke="none" /><circle cx="5931" cy="107" r="5" fill="green" stroke="none" /><circle cx="6063" cy="103" r="5" fill="green" stroke="none" /><circle cx="5996" cy="69" r="5" fill="green" stroke="none" /><circle cx="6042" cy="160" r="5" fill="green" stroke="none" /><circle cx="6056" cy="159" r="5" fill="green" stroke="none" /><circle cx="6051" cy="14" r="5" fill="green" stroke="none" /><circle cx="5887" cy="88" r="5" fill="green" stroke="none" /><circle cx="5893" cy="190" r="5" fill="green" stroke="none" /><circle cx="6038" cy="178" r="5" fill="green" stroke="none" /><circle cx="6035" cy="66" r="5" fill="green" stroke="none" /><circle cx="6037" cy="115" r="5" fill="green" stroke="none" /><circle cx="6063" cy="143" r="5" fill="green" stroke="none" /><circle cx="5903" cy="45" r="5" fill="green" stroke="none" /><circle cx="6060" cy="167" r="5" fill="green" stroke="none" /><circle cx="6001" cy="65" r="5" fill="green" stroke="none" /><circle cx="6044" cy="137" r="5" fill="green" stroke="none" /><circle cx="5979" cy="137" r="5" fill="green" stroke="none" /><circle cx="5978" cy="87" r="5" fill="green" stroke="none" /><circle cx="5931" cy="71" r="5" fill="green" stroke="none" /><circle cx="5984" cy="127" r="5" fill="green" stroke="none" /><circle cx="5909" cy="102" r="5" fill="green" stroke="none" /><circle cx="5928" cy="153" r="5" fill="green" stroke="none" /><circle cx="5920" cy="200" r="5" fill="green" stroke="none" /><circle cx="5924" cy="178" r="5" fill="green" stroke="none" /><circle cx="5924" cy="121" r="5" fill="green" stroke="none" /><circle cx="5950" cy="56" r="5" fill="green" stroke="none" /><circle cx="5895" cy="1" r="5" fill="green" stroke="none" /><circle cx="5887" cy="158" r="5" fill="green" stroke="none" /><circle cx="5879" cy="8" r="5" fill="green" stroke="none" /><circle cx="5906" cy="65" r="5" fill="green" stroke="none" /><circle cx="5890" cy="130" r="5" fill="green" stroke="none" /><circle cx="6029" cy="54" r="5" fill="green" stroke="none" /><circle cx="6065" cy="188" r="5" fill="green" stroke="none" /><circle cx="5950" cy="180" r="5" fill="green" stroke="none" /><circle cx="6040" cy="123" r="5" fill="green" stroke="none" /><circle cx="5982" cy="151" r="5" fill="green" stroke="none" /><circle cx="6037" cy="124" r="5" fill="green" stroke="none" /><circle cx="6068" cy="60" r="5" fill="green" stroke="none" /><circle cx="5940" cy="140" r="5" fill="green" stroke="none" /><circle cx="6027" cy="145" r="5" fill="green" stroke="none" /><circle cx="5950" cy="182" r="5" fill="green" stroke="none" /><circle cx="6011" cy="36" r="5" fill="green" stroke="none" /><circle cx="5985" cy="44" r="5" fill="green" stroke="none" /><circle cx="5933" cy="84" r="5" fill="green" stroke="none" /><circle cx="5874" cy="44" r="5" fill="green" stroke="none" /><circle cx="6067" cy="84" r="5" fill="green" stroke="none" /><circle cx="6048" cy="135" r="5" fill="green" stroke="none" /><circle cx="6039" cy="11" r="5" fill="green" stroke="none" /><circle cx="5975" cy="149" r="5" fill="green" stroke="none" /><circle cx="6039" cy="165" r="5" fill="green" stroke="none" /><circle cx="5990" cy="169" r="5" fill="green" stroke="none" /><circle cx="5931" cy="198" r="5" fill="green" stroke="none" /><circle cx="6058" cy="15" r="5" fill="green" stroke="none" /><circle cx="6029" cy="87" r="5" fill="green" stroke="none" /><circle cx="5944" cy="124" r="5" fill="green" stroke="none" /><circle cx="5939" cy="25" r="5" fill="green" stroke="none" /><circle cx="5934" cy="177" r="5" fill="green" stroke="none" /><circle cx="5994" cy="155" r="5" fill="green" stroke="none" /><circle cx="5973" cy="12" r="5" fill="green" stroke="none" /><circle cx="6068" cy="155" r="5" fill="green" stroke="none" /><circle cx="5909" cy="59" r="5" fill="green" stroke="none" /><circle cx="5941" cy="44" r="5" fill="green" stroke="none" /><circle cx="6033" cy="60" r="5" fill="green" stroke="none" /><circle cx="6060" cy="91" r="5" fill="green" stroke="none" /><circle cx="5893" cy="5" r="5" fill="green" stroke="none" /><circle cx="6064" cy="136" r="5" fill="green" stroke="none" /><circle cx="6024" cy="178" r="5" fill="green" stroke="none" /><circle cx="5887" cy="136" r="5" fill="green" stroke="none" /><circle cx="6009" cy="162" r="5" fill="green" stroke="none" /><circle cx="6048" cy="4" r="5" fill="green" stroke="none" /><circle cx="6060" cy="1" r="5" fill="green" stroke="none" /><circle cx="6008" cy="178" r="5" fill="green" stroke="none" /><circle cx="5971" cy="21" r="5" fill="green" stroke="none" /><circle cx="6046" cy="156" r="5" fill="green" stroke="none" /><circle cx="5938" cy="190" r="5" fill="green" stroke="none" /><circle cx="5910" cy="137" r="5" fill="green" stroke="none" /><circle cx="5967" cy="58" r="5" fill="green" stroke="none" /><circle cx="6057" cy="99" r="5" fill="green" stroke="none" /><circle cx="5980" cy="52" r="5" fill="green" stroke="none" /><circle cx="5877" cy="6" r="5" fill="green" stroke="none" /><circle cx="5969" cy="105" r="5" fill="green" stroke="none" /><circle cx="5957" cy="112" r="5" fill="green" stroke="none" /><circle cx="5881" cy="68" r="5" fill="green" stroke="none" /><circle cx="6001" cy="56" r="5" fill="green" stroke="none" /><circle cx="5957" cy="138" r="5" fill="green" stroke="none" /><circle cx="5923" cy="166" r="5" fill="green" stroke="none" /><circle cx="6006" cy="83" r="5" fill="green" stroke="none" /><circle cx="5896" cy="153" r="5" fill="green" stroke="none" /><circle cx="5874" cy="183" r="5" fill="green" stroke="none" /><circle cx="5936" cy="74" r="5" fill="green" stroke="none" /><circle cx="5892" cy="111" r="5" fill="green" stroke="none" /><circle cx="5899" cy="37" r="5" fill="green" stroke="none" /><circle cx="5996" cy="151" r="5" fill="green" stroke="none" /><circle cx="5889" cy="56" r="5" fill="green" stroke="none" /><circle cx="5938" cy="150" r="5" fill="green" stroke="none" /><circle cx="6001" cy="110" r="5" fill="green" stroke="none" /><circle cx="5879" cy="8" r="5" fill="green" stroke="none" /><circle cx="6045" cy="23" r="5" fill="green" stroke="none" /><circle cx="5920" cy="37" r="5" fill="green" stroke="none" /><circle cx="6063" cy="69" r="5" fill="green" stroke="none" /><circle cx="5994" cy="189" r="5" fill="green" stroke="none" /><circle cx="5988" cy="122" r="5" fill="green" stroke="none" /><circle cx="5876" cy="128" r="5" fill="green" stroke="none" /><circle cx="5988" cy="42" r="5" fill="green" stroke="none" /><circle cx="6000" cy="20" r="5" fill="green" stroke="none" /><circle cx="5947" cy="65" r="5" fill="green" stroke="none" /><circle cx="5907" cy="184" r="5" fill="green" stroke="none" /><circle cx="5988" cy="82" r="5" fill="green" stroke="none" /><circle cx="5954" cy="22" r="5" fill="green" stroke="none" /><circle cx="6009" cy="92" r="5" fill="green" stroke="none" /><circle cx="5886" cy="115" r="5" fill="green" stroke="none" /><circle cx="5955" cy="31" r="5" fill="green" stroke="none" /><circle cx="6056" cy="157" r="5" fill="green" stroke="none" /><circle cx="6003" cy="72" r="5" fill="green" stroke="none" /><circle cx="6024" cy="126" r="5" fill="green" stroke="none" /><circle cx="5955" cy="113" r="5" fill="green" stroke="none" /><circle cx="6062" cy="152" r="5" fill="green" stroke="none" /><circle cx="5874" cy="8" r="5" fill="green" stroke="none" /><circle cx="5882" cy="161" r="5" fill="green" stroke="none" /><circle cx="5988" cy="94" r="5" fill="green" stroke="none" /><circle cx="5874" cy="181" r="5" fill="green" stroke="none" /><circle cx="5909" cy="23" r="5" fill="green" stroke="none" /><circle cx="6036" cy="92" r="5" fill="green" stroke="none" /><circle cx="5986" cy="2" r="5" fill="green" stroke="none" /><circle cx="5921" cy="71" r="5" fill="green" stroke="none" /><circle cx="5963" cy="133" r="5" fill="green" stroke="none" /><circle cx="5968" cy="164" r="5" fill="green" stroke="none" /><circle cx="6065" cy="107" r="5" fill="green" stroke="none" /><circle cx="6014" cy="81" r="5" fill="green" stroke="none" /><circle cx="5891" cy="32" r="5" fill="green" stroke="none" /><circle cx="5924" cy="189" r="5" fill="green" stroke="none" /><circle cx="5921" cy="111" r="5" fill="green" stroke="none" /><circle cx="6015" cy="157" r="5" fill="green" stroke="none" /><circle cx="5933" cy="193" r="5" fill="green" stroke="none" /><circle cx="6066" cy="171" r="5" fill="green" stroke="none" /><circle cx="5945" cy="45" r="5" fill="green" stroke="none" /><circle cx="5935" cy="73" r="5" fill="green" stroke="none" /><circle cx="5968" cy="21" r="5" fill="green" stroke="none" /><circle cx="5897" cy="4" r="5" fill="green" stroke="none" /><circle cx="5895" cy="193" r="5" fill="green" stroke="none" /><circle cx="5940" cy="159" r="5" fill="green" stroke="none" /><circle cx="6055" cy="9" r="5" fill="green" stroke="none" /><circle cx="6046" cy="26" r="5" fill="green" stroke="none" /><circle cx="5962" cy="170" r="5" fill="green" stroke="none" /><circle cx="6037" cy="25" r="5" fill="green" stroke="none" /><circle cx="5948" cy="126" r="5" fill="green" stroke="none" /><circle cx="5947" cy="57" r="5" fill="green" stroke="none" /><circle cx="5951" cy="104" r="5" fill="green" stroke="none" /><circle cx="5877" cy="110" r="5" fill="green" stroke="none" /><circle cx="6058" cy="59" r="5" fill="green" stroke="none" /><circle cx="5892" cy="4" r="5" fill="green" stroke="none" /></svg>