<svg viewBox="0 0 1000 1000" xmlns="http://www.w3.org/2000/svg"><rect x="0" y="0" width="1000" height="1000" fill="lightyellow" stroke="none "/><rect x="0" y="0" width="1000" height="20" fill="white" stroke="black "/><circle cx="38" cy="275" r="5" fill="green" stroke="none" /><circle cx="94" cy="59" r="5" fill="green" stroke="none" /><circle cx="308" cy="338" r="5" fill="green" stroke="none" /><circle cx="775" cy="348" r="5" fill="green" stroke="none" /><circle cx="927" cy="537" r="5" fill="green" stroke="none" /><circle cx="732" cy="861" r="5" fill="green" stroke="none" /><circle cx="953" cy="91" r="5" fill="green" stroke="none" /><circle cx="230" cy="439" r="5" fill="green" stroke="none" /><circle cx="254" cy="951" r="5" fill="green" stroke="none" /><circle cx="579" cy="208" r="5" fill="green" stroke="none" /><circle cx="165" cy="291" r="5" fill="green" stroke="none" /><circle cx="229" cy="432" r="5" fill="green" stroke="none" /><circle cx="811" cy="404" r="5" fill="green" stroke="none" /><circle cx="139" cy="94" r="5" fill="green" stroke="none" /><circle cx="134" cy="231" r="5" fill="green" stroke="none" /><circle cx="184" cy="384" r="5" fill="green" stroke="none" /><circle cx="327" cy="42" r="5" fill="green" stroke="none" /><circle cx="692" cy="809" r="5" fill="green" stroke="none" /><circle cx="111" cy="449" r="5" fill="green" stroke="none" /><circle cx="633" cy="671" r="5" fill="green" stroke="none" /><circle cx="262" cy="469" r="5" fill="green" stroke="none" /><circle cx="3" cy="169" r="5" fill="green" stroke="none" /><circle cx="918" cy="739" r="5" fill="green" stroke="none" /><circle cx="513" cy="57" r="5" fill="green" stroke="none" /><circle cx="328" cy="72" r="5" fill="green" stroke="none" /><circle cx="420" cy="410" r="5" fill="green" stroke="none" /><circle cx="735" cy="778" r="5" fill="green" stroke="none" /><circle cx="106" cy="270" r="5" fill="green" stroke="none" /><circle cx="99" cy="428" r="5" fill="green" stroke="none" /><circle cx="107" cy="761" r="5" fill="green" stroke="none" /><circle cx="74" cy="548" r="5" fill="green" stroke="none" /><circle cx="431" cy="206" r="5" fill="green" stroke="none" /><circle cx="968" cy="527" r="5" fill="green" stroke="none" /><circle cx="639" cy="94" r="5" fill="green" stroke="none" /><circle cx="297" cy="309" r="5" fill="green" stroke="none" /><circle cx="388" cy="334" r="5" fill="green" stroke="none" /><circle cx="213" cy="583" r="5" fill="green" stroke="none" /><circle cx="937" cy="828" r="5" fill="green" stroke="none" /><circle cx="44" cy="720" r="5" fill="green" stroke="none" /><circle cx="367" cy="884" r="5" fill="green" stroke="none" /><circle cx="997" cy="369" r="5" fill="green" stroke="none" /><circle cx="385" cy="575" r="5" fill="green" stroke="none" /><circle cx="482" cy="449" r="5" fill="green" stroke="none" /><circle cx="257" cy="648" r="5" fill="green" stroke="none" /><circle cx="427" cy="609" r="5" fill="green" stroke="none" /><circle cx="551" cy="795" r="5" fill="green" stroke="none" /><circle cx="434" cy="116" r="5" fill="green" stroke="none" /><circle cx="977" cy="227" r="5" fill="green" stroke="none" /><circle cx="626" cy="104" r="5" fill="green" stroke="none" /><circle cx="815" cy="796" r="5" fill="green" stroke="none" /><circle cx="78" cy="159" r="5" fill="green" stroke="none" /><circle cx="681" cy="556" r="5" fill="green" stroke="none" /><circle cx="906" cy="206" r="5" fill="green" stroke="none" /><circle cx="828" cy="378" r="5" fill="green" stroke="none" /><circle cx="655" cy="625" r="5" fill="green" stroke="none" /><circle cx="474" cy="841" r="5" fill="green" stroke="none" /><circle cx="342" cy="261" r="5" fill="green" stroke="none" /><circle cx="789" cy="652" r="5" fill="green" stroke="none" /><circle cx="362" cy="376" r="5" fill="green" stroke="none" /><circle cx="740" cy="623" r="5" fill="green" stroke="none" /><circle cx="346" cy="863" r="5" fill="green" stroke="none" /><circle cx="1" cy="538" r="5" fill="green" stroke="none" /><circle cx="957" cy="599" r="5" fill="green" stroke="none" /><circle cx="630" cy="144" r="5" fill="green" stroke="none" /><circle cx="484" cy="879" r="5" fill="green" stroke="none" /><circle cx="777" cy="781" r="5" fill="green" stroke="none" /><circle cx="642" cy="135" r="5" fill="green" stroke="none" /><circle cx="842" cy="947" r="5" fill="green" stroke="none" /><circle cx="775" cy="581" r="5" fill="green" stroke="none" /><circle cx="718" cy="650" r="5" fill="green" stroke="none" /><circle cx="394" cy="149" r="5" fill="green" stroke="none" /><circle cx="921" cy="972" r="5" fill="green" stroke="none" /><circle cx="227" cy="590" r="5" fill="green" stroke="none" /><circle cx="175" cy="464" r="5" fill="green" stroke="none" /><circle cx="554" cy="434" r="5" fill="green" stroke="none" /><circle cx="170" cy="703" r="5" fill="green" stroke="none" /><circle cx="584" cy="759" r="5" fill="green" stroke="none" /><circle cx="108" cy="426" r="5" fill="green" stroke="none" /><circle cx="889" cy="200" r="5" fill="green" stroke="none" /><circle cx="369" cy="916" r="5" fill="green" stroke="none" /><circle cx="620" cy="164" r="5" fill="green" stroke="none" /><circle cx="475" cy="660" r="5" fill="green" stroke="none" /><circle cx="366" cy="70" r="5" fill="green" stroke="none" /><circle cx="127" cy="276" r="5" fill="green" stroke="none" /><circle cx="18" cy="512" r="5" fill="green" stroke="none" /><circle cx="903" cy="749" r="5" fill="green" stroke="none" /><circle cx="576" cy="234" r="5" fill="green" stroke="none" /><circle cx="913" cy="420" r="5" fill="green" stroke="none" /><circle cx="270" cy="910" r="5" fill="green" stroke="none" /><circle cx="172" cy="175" r="5" fill="green" stroke="none" /><circle cx="166" cy="75" r="5" fill="green" stroke="none" /><circle cx="137" cy="626" r="5" fill="green" stroke="none" /><circle cx="801" cy="933" r="5" fill="green" stroke="none" /><circle cx="639" cy="473" r="5" fill="green" stroke="none" /><circle cx="917" cy="620" r="5" fill="green" stroke="none" /><circle cx="823" cy="192" r="5" fill="green" stroke="none" /><circle cx="366" cy="634" r="5" fill="green" stroke="none" /><circle cx="662" cy="445" r="5" fill="green" stroke="none" /><circle cx="190" cy="86" r="5" fill="green" stroke="none" /><circle cx="813" cy="833" r="5" fill="green" stroke="none" /><circle cx="909" cy="533" r="5" fill="green" stroke="none" /><circle cx="988" cy="457" r="5" fill="green" stroke="none" /><circle cx="998" cy="820" r="5" fill="green" stroke="none" /><circle cx="847" cy="713" r="5" fill="green" stroke="none" /><circle cx="73" cy="667" r="5" fill="green" stroke="none" /><circle cx="729" cy="715" r="5" fill="green" stroke="none" /><circle cx="976" cy="622" r="5" fill="green" stroke="none" /><circle cx="739" cy="21" r="5" fill="green" stroke="none" /><circle cx="631" cy="363" r="5" fill="green" stroke="none" /><circle cx="592" cy="131" r="5" fill="green" stroke="none" /><circle cx="185" cy="709" r="5" fill="green" stroke="none" /><circle cx="996" cy="806" r="5" fill="green" stroke="none" /><circle cx="48" cy="910" r="5" fill="green" stroke="none" /><circle cx="66" cy="668" r="5" fill="green" stroke="none" /><circle cx="548" cy="440" r="5" fill="green" stroke="none" /><circle cx="652" cy="581" r="5" fill="green" stroke="none" /><circle cx="88" cy="150" r="5" fill="green" stroke="none" /><circle cx="793" cy="753" r="5" fill="green" stroke="none" /><circle cx="969" cy="542" r="5" fill="green" stroke="none" /><circle cx="476" cy="590" r="5" fill="green" stroke="none" /><circle cx="544" cy="175" r="5" fill="green" stroke="none" /><circle cx="521" cy="148" r="5" fill="green" stroke="none" /><circle cx="581" cy="494" r="5" fill="green" stroke="none" /><circle cx="568" cy="709" r="5" fill="green" stroke="none" /><circle cx="225" cy="37" r="5" fill="green" stroke="none" /><circle cx="784" cy="296" r="5" fill="green" stroke="none" /><circle cx="717" cy="45" r="5" fill="green" stroke="none" /><circle cx="882" cy="703" r="5" fill="green" stroke="none" /><circle cx="247" cy="725" r="5" fill="green" stroke="none" /><circle cx="404" cy="527" r="5" fill="green" stroke="none" /><circle cx="90" cy="999" r="5" fill="green" stroke="none" /><circle cx="833" cy="431" r="5" fill="green" stroke="none" /><circle cx="934" cy="74" r="5" fill="green" stroke="none" /><circle cx="567" cy="114" r="5" fill="green" stroke="none" /><circle cx="836" cy="89" r="5" fill="green" stroke="none" /><circle cx="276" cy="848" r="5" fill="green" stroke="none" /><circle cx="604" cy="783" r="5" fill="green" stroke="none" /><circle cx="142" cy="645" r="5" fill="green" stroke="none" /><circle cx="337" cy="954" r="5" fill="green" stroke="none" /><circle cx="650" cy="94" r="5" fill="green" stroke="none" /><circle cx="105" cy="865" r="5" fill="green" stroke="none" /><circle cx="292" cy="395" r="5" fill="green" stroke="none" /><circle cx="232" cy="171" r="5" fill="green" stroke="none" /><circle cx="864" cy="351" r="5" fill="green" stroke="none" /><circle cx="845" cy="536" r="5" fill="green" stroke="none" /><circle cx="406" cy="324" r="5" fill="green" stroke="none" /><circle cx="681" cy="174" r="5" fill="green" stroke="none" /><circle cx="188" cy="249" r="5" fill="green" stroke="none" /><circle cx="130" cy="420" r="5" fill="green" stroke="none" /><circle cx="509" cy="565" r="5" fill="green" stroke="none" /><circle cx="940" cy="179" r="5" fill="green" stroke="none" /><circle cx="695" cy="106" r="5" fill="green" stroke="none" /><circle cx="266" cy="122" r="5" fill="green" stroke="none" /><circle cx="384" cy="677" r="5" fill="green" stroke="none" /><circle cx="484" cy="821" r="5" fill="green" stroke="none" /><circle cx="965" cy="160" r="5" fill="green" stroke="none" /><circle cx="969" cy="641" r="5" fill="green" stroke="none" /><circle cx="790" cy="74" r="5" fill="green" stroke="none" /><circle cx="485" cy="836" r="5" fill="green" stroke="none" /><circle cx="49" cy="806" r="5" fill="green" stroke="none" /><circle cx="410" cy="48" r="5" fill="green" stroke="none" /><circle cx="525" cy="99" r="5" fill="green" stroke="none" /><circle cx="766" cy="572" r="5" fill="green" stroke="none" /><circle cx="631" cy="945" r="5" fill="green" stroke="none" /><circle cx="463" cy="167" r="5" fill="green" stroke="none" /><circle cx="429" cy="342" r="5" fill="green" stroke="none" /><circle cx="554" cy="100" r="5" fill="green" stroke="none" /><circle cx="480" cy="489" r="5" fill="green" stroke="none" /><circle cx="759" cy="591" r="5" fill="green" stroke="none" /><circle cx="907" cy="732" r="5" fill="green" stroke="none" /><circle cx="207" cy="832" r="5" fill="green" stroke="none" /><circle cx="374" cy="914" r="5" fill="green" stroke="none" /><circle cx="543" cy="432" r="5" fill="green" stroke="none" /><circle cx="414" cy="795" r="5" fill="green" stroke="none" /><circle cx="29" cy="436" r="5" fill="green" stroke="none" /><circle cx="997" cy="226" r="5" fill="green" stroke="none" /><circle cx="111" cy="240" r="5" fill="green" stroke="none" /><circle cx="936" cy="539" r="5" fill="green" stroke="none" /><circle cx="774" cy="358" r="5" fill="green" stroke="none" /><circle cx="245" cy="421" r="5" fill="green" stroke="none" /><circle cx="34" cy="163" r="5" fill="green" stroke="none" /><circle cx="30" cy="257" r="5" fill="green" stroke="none" /><circle cx="582" cy="558" r="5" fill="green" stroke="none" /><circle cx="123" cy="826" r="5" fill="green" stroke="none" /><circle cx="648" cy="714" r="5" fill="green" stroke="none" /><circle cx="15" cy="838" r="5" fill="green" stroke="none" /><circle cx="854" cy="430" r="5" fill="green" stroke="none" /><circle cx="140" cy="360" r="5" fill="green" stroke="none" /><circle cx="613" cy="531" r="5" fill="green" stroke="none" /><circle cx="733" cy="596" r="5" fill="green" stroke="none" /><circle cx="459" cy="997" r="5" fill="green" stroke="none" /><circle cx="265" cy="814" r="5" fill="green" stroke="none" /><circle cx="750" cy="241" r="5" fill="green" stroke="none" /><circle cx="807" cy="125" r="5" fill="green" stroke="none" /><circle cx="167" cy="163" r="5" fill="green" stroke="none" /><circle cx="627" cy="502" r="5" fill="green" stroke="none" /><circle cx="653" cy="458" r="5" fill="green" stroke="none" /><circle cx="950" cy="184" r="5" fill="green" stroke="none" /><circle cx="722" cy="420" r="5" fill="green" stroke="none" /><circle cx="160" cy="708" r="5" fill="green" stroke="none" /><circle cx="291" cy="141" r="5" fill="green" stroke="none" /><circle cx="522" cy="766" r="5" fill="green" stroke="none" /><circle cx="108" cy="316" r="5" fill="green" stroke="none" /><circle cx="836" cy="68" r="5" fill="green" stroke="none" /><circle cx="784" cy="586" r="5" fill="green" stroke="none" /><circle cx="97" cy="772" r="5" fill="green" stroke="none" /><circle cx="193" cy="811" r="5" fill="green" stroke="none" /><circle cx="893" cy="106" r="5" fill="green" stroke="none" /><circle cx="791" cy="51" r="5" fill="green" stroke="none" /><circle cx="738" cy="866" r="5" fill="green" stroke="none" /><circle cx="701" cy="210" r="5" fill="green" stroke="none" /><circle cx="62" cy="324" r="5" fill="green" stroke="none" /><circle cx="745" cy="272" r="5" fill="green" stroke="none" /><circle cx="848" cy="623" r="5" fill="green" stroke="none" /><circle cx="625" cy="437" r="5" fill="green" stroke="none" /><circle cx="782" cy="196" r="5" fill="green" stroke="none" /><circle cx="915" cy="914" r="5" fill="green" stroke="none" /><circle cx="468" cy="252" r="5" fill="green" stroke="none" /><circle cx="108" cy="83" r="5" fill="green" stroke="none" /><circle cx="99" cy="428" r="5" fill="green" stroke="none" /><circle cx="988" cy="805" r="5" fill="green" stroke="none" /><circle cx="435" cy="59" r="5" fill="green" stroke="none" /><circle cx="12" cy="702" r="5" fill="green" stroke="none" /><circle cx="114" cy="957" r="5" fill="green" stroke="none" /><circle cx="247" cy="578" r="5" fill="green" stroke="none" /><circle cx="288" cy="758" r="5" fill="green" stroke="none" /><circle cx="126" cy="116" r="5" fill="green" stroke="none" /><circle cx="131" cy="440" r="5" fill="green" stroke="none" /><circle cx="295" cy="617" r="5" fill="green" stroke="none" /><circle cx="742" cy="698" r="5" fill="green" stroke="none" /><circle cx="69" cy="160" r="5" fill="green" stroke="none" /><circle cx="680" cy="155" r="5" fill="green" stroke="none" /><circle cx="129" cy="65" r="5" fill="green" stroke="none" /><circle cx="162" cy="494" r="5" fill="green" stroke="none" /><circle cx="911" cy="476" r="5" fill="green" stroke="none" /><circle cx="126" cy="448" r="5" fill="green" stroke="none" /><circle cx="132" cy="469" r="5" fill="green" stroke="none" /><circle cx="781" cy="952" r="5" fill="green" stroke="none" /><circle cx="205" cy="399" r="5" fill="green" stroke="none" /><circle cx="727" cy="597" r="5" fill="green" stroke="none" /><circle cx="281" cy="440" r="5" fill="green" stroke="none" /><circle cx="31" cy="802" r="5" fill="green" stroke="none" /><circle cx="816" cy="951" r="5" fill="green" stroke="none" /><circle cx="431" cy="815" r="5" fill="green" stroke="none" /><circle cx="775" cy="407" r="5" fill="green" stroke="none" /><circle cx="900" cy="65" r="5" fill="green" stroke="none" /><circle cx="288" cy="571" r="5" fill="green" stroke="none" /><circle cx="641" cy="480" r="5" fill="green" stroke="none" /><circle cx="178" cy="849" r="5" fill="green" stroke="none" /><circle cx="472" cy="713" r="5" fill="green" stroke="none" /><circle cx="175" cy="337" r="5" fill="green" stroke="none" /><circle cx="749" cy="970" r="5" fill="green" stroke="none" /><circle cx="990" cy="864" r="5" fill="green" stroke="none" /><circle cx="106" cy="494" r="5" fill="green" stroke="none" /><circle cx="195" cy="419" r="5" fill="green" stroke="none" /><circle cx="834" cy="600" r="5" fill="green" stroke="none" /><circle cx="532" cy="271" r="5" fill="green" stroke="none" /><circle cx="633" cy="280" r="5" fill="green" stroke="none" /><circle cx="680" cy="505" r="5" fill="green" stroke="none" /><circle cx="992" cy="286" r="5" fill="green" stroke="none" /><circle cx="353" cy="771" r="5" fill="green" stroke="none" /><circle cx="948" cy="463" r="5" fill="green" stroke="none" /><circle cx="204" cy="558" r="5" fill="green" stroke="none" /><circle cx="952" cy="767" r="5" fill="green" stroke="none" /><circle cx="230" cy="367" r="5" fill="green" stroke="none" /><circle cx="932" cy="544" r="5" fill="green" stroke="none" /><circle cx="643" cy="248" r="5" fill="green" stroke="none" /><circle cx="520" cy="141" r="5" fill="green" stroke="none" /><circle cx="391" cy="635" r="5" fill="green" stroke="none" /><circle cx="631" cy="49" r="5" fill="green" stroke="none" /><circle cx="890" cy="841" r="5" fill="green" stroke="none" /><circle cx="568" cy="105" r="5" fill="green" stroke="none" /><circle cx="97" cy="73" r="5" fill="green" stroke="none" /><circle cx="309" cy="642" r="5" fill="green" stroke="none" /><circle cx="72" cy="920" r="5" fill="green" stroke="none" /><circle cx="179" cy="752" r="5" fill="green" stroke="none" /><circle cx="883" cy="328" r="5" fill="green" stroke="none" /><circle cx="840" cy="703" r="5" fill="green" stroke="none" /><circle cx="895" cy="743" r="5" fill="green" stroke="none" /><circle cx="261" cy="578" r="5" fill="green" stroke="none" /><circle cx="62" cy="265" r="5" fill="green" stroke="none" /><circle cx="599" cy="516" r="5" fill="green" stroke="none" /><circle cx="754" cy="318" r="5" fill="green" stroke="none" /><circle cx="466" cy="231" r="5" fill="green" stroke="none" /><circle cx="280" cy="712" r="5" fill="green" stroke="none" /><circle cx="9" cy="712" r="5" fill="green" stroke="none" /><circle cx="289" cy="436" r="5" fill="green" stroke="none" /><circle cx="296" cy="478" r="5" fill="green" stroke="none" /><circle cx="310" cy="952" r="5" fill="green" stroke="none" /><circle cx="660" cy="824" r="5" fill="green" stroke="none" /><circle cx="347" cy="159" r="5" fill="green" stroke="none" /><circle cx="951" cy="905" r="5" fill="green" stroke="none" /><circle cx="948" cy="834" r="5" fill="green" stroke="none" /><circle cx="233" cy="646" r="5" fill="green" stroke="none" /><circle cx="198" cy="329" r="5" fill="green" stroke="none" /><circle cx="272" cy="851" r="5" fill="green" stroke="none" /><circle cx="694" cy="366" r="5" fill="green" stroke="none" /><circle cx="662" cy="716" r="5" fill="green" stroke="none" /><circle cx="437" cy="569" r="5" fill="green" stroke="none" /><circle cx="127" cy="264" r="5" fill="green" stroke="none" /><circle cx="734" cy="296" r="5" fill="green" stroke="none" /><circle cx="932" cy="428" r="5" fill="green" stroke="none" /><circle cx="710" cy="432" r="5" fill="green" stroke="none" /><circle cx="573" cy="436" r="5" fill="green" stroke="none" /><circle cx="227" cy="673" r="5" fill="green" stroke="none" /><circle cx="178" cy="586" r="5" fill="green" stroke="none" /><circle cx="343" cy="175" r="5" fill="green" stroke="none" /><circle cx="939" cy="315" r="5" fill="green" stroke="none" /><circle cx="946" cy="794" r="5" fill="green" stroke="none" /><circle cx="555" cy="70" r="5" fill="green" stroke="none" /><circle cx="857" cy="685" r="5" fill="green" stroke="none" /><circle cx="879" cy="180" r="5" fill="green" stroke="none" /><circle cx="494" cy="918" r="5" fill="green" stroke="none" /><circle cx="929" cy="838" r="5" fill="green" stroke="none" /><circle cx="116" cy="100" r="5" fill="green" stroke="none" /><circle cx="136" cy="997" r="5" fill="green" stroke="none" /><circle cx="596" cy="961" r="5" fill="green" stroke="none" /><circle cx="535" cy="58" r="5" fill="green" stroke="none" /><circle cx="256" cy="674" r="5" fill="green" stroke="none" /><circle cx="557" cy="662" r="5" fill="green" stroke="none" /><circle cx="646" cy="567" r="5" fill="green" stroke="none" /><circle cx="27" cy="632" r="5" fill="green" stroke="none" /><circle cx="773" cy="722" r="5" fill="green" stroke="none" /><circle cx="752" cy="127" r="5" fill="green" stroke="none" /><circle cx="784" cy="605" r="5" fill="green" stroke="none" /><circle cx="353" cy="234" r="5" fill="green" stroke="none" /><circle cx="0" cy="701" r="5" fill="green" stroke="none" /><circle cx="652" cy="259" r="5" fill="green" stroke="none" /><circle cx="75" cy="301" r="5" fill="green" stroke="none" /><circle cx="587" cy="635" r="5" fill="green" stroke="none" /><circle cx="907" cy="133" r="5" fill="green" stroke="none" /><circle cx="86" cy="956" r="5" fill="green" stroke="none" /><circle cx="87" cy="69" r="5" fill="green" stroke="none" /><circle cx="629" cy="88" r="5" fill="green" stroke="none" /><circle cx="74" cy="579" r="5" fill="green" stroke="none" /><circle cx="27" cy="72" r="5" fill="green" stroke="none" /><circle cx="220" cy="419" r="5" fill="green" stroke="none" /><circle cx="201" cy="199" r="5" fill="green" stroke="none" /><circle cx="986" cy="900" r="5" fill="green" stroke="none" /><circle cx="640" cy="596" r="5" fill="green" stroke="none" /><circle cx="641" cy="866" r="5" fill="green" stroke="none" /><circle cx="384" cy="861" r="5" fill="green" stroke="none" /><circle cx="254" cy="23" r="5" fill="green" stroke="none" /><circle cx="272" cy="174" r="5" fill="green" stroke="none" /><circle cx="796" cy="281" r="5" fill="green" stroke="none" /><circle cx="671" cy="839" r="5" fill="green" stroke="none" /><circle cx="804" cy="444" r="5" fill="green" stroke="none" /><circle cx="90" cy="778" r="5" fill="green" stroke="none" /><circle cx="942" cy="54" r="5" fill="green" stroke="none" /><circle cx="867" cy="724" r="5" fill="green" stroke="none" /><circle cx="925" cy="917" r="5" fill="green" stroke="none" /><circle cx="36" cy="208" r="5" fill="green" stroke="none" /><circle cx="572" cy="518" r="5" fill="green" stroke="none" /><circle cx="442" cy="496" r="5" fill="green" stroke="none" /><circle cx="809" cy="165" r="5" fill="green" stroke="none" /><circle cx="45" cy="869" r="5" fill="green" stroke="none" /><circle cx="550" cy="954" r="5" fill="green" stroke="none" /><circle cx="920" cy="728" r="5" fill="green" stroke="none" /><circle cx="295" cy="771" r="5" fill="green" stroke="none" /><circle cx="207" cy="247" r="5" fill="green" stroke="none" /><circle cx="10" cy="166" r="5" fill="green" stroke="none" /><circle cx="810" cy="315" r="5" fill="green" stroke="none" /><circle cx="654" cy="367" r="5" fill="green" stroke="none" /><circle cx="243" cy="111" r="5" fill="green" stroke="none" /><circle cx="737" cy="796" r="5" fill="green" stroke="none" /><circle cx="793" cy="322" r="5" fill="green" stroke="none" /><circle cx="213" cy="655" r="5" fill="green" stroke="none" /><circle cx="716" cy="786" r="5" fill="green" stroke="none" /><circle cx="456" cy="214" r="5" fill="green" stroke="none" /><circle cx="22" cy="244" r="5" fill="green" stroke="none" /><circle cx="905" cy="580" r="5" fill="green" stroke="none" /><circle cx="871" cy="261" r="5" fill="green" stroke="none" /><circle cx="812" cy="653" r="5" fill="green" stroke="none" /><circle cx="711" cy="443" r="5" fill="green" stroke="none" /><circle cx="550" cy="287" r="5" fill="green" stroke="none" /><circle cx="113" cy="727" r="5" fill="green" stroke="none" /><circle cx="481" cy="664" r="5" fill="green" stroke="none" /><circle cx="123" cy="927" r="5" fill="green" stroke="none" /><circle cx="356" cy="485" r="5" fill="green" stroke="none" /><circle cx="551" cy="996" r="5" fill="green" stroke="none" /><circle cx="126" cy="695" r="5" fill="green" stroke="none" /><circle cx="376" cy="161" r="5" fill="green" stroke="none" /><circle cx="454" cy="301" r="5" fill="green" stroke="none" /><circle cx="769" cy="958" r="5" fill="green" stroke="none" /><circle cx="942" cy="941" r="5" fill="green" stroke="none" /><circle cx="673" cy="825" r="5" fill="green" stroke="none" /><circle cx="40" cy="506" r="5" fill="green" stroke="none" /><circle cx="337" cy="667" r="5" fill="green" stroke="none" /><circle cx="263" cy="400" r="5" fill="green" stroke="none" /><circle cx="260" cy="549" r="5" fill="green" stroke="none" /><circle cx="210" cy="672" r="5" fill="green" stroke="none" /><circle cx="555" cy="569" r="5" fill="green" stroke="none" /><circle cx="28" cy="362" r="5" fill="green" stroke="none" /><circle cx="392" cy="974" r="5" fill="green" stroke="none" /><circle cx="591" cy="576" r="5" fill="green" stroke="none" /><circle cx="944" cy="859" r="5" fill="green" stroke="none" /><circle cx="610" cy="611" r="5" fill="green" stroke="none" /><circle cx="313" cy="898" r="5" fill="green" stroke="none" /><circle cx="154" cy="553" r="5" fill="green" stroke="none" /><circle cx="981" cy="827" r="5" fill="green" stroke="none" /><circle cx="721" cy="825" r="5" fill="green" stroke="none" /><circle cx="259" cy="332" r="5" fill="green" stroke="none" /><circle cx="998" cy="123" r="5" fill="green" stroke="none" /><circle cx="592" cy="71" r="5" fill="green" stroke="none" /><circle cx="382" cy="635" r="5" fill="green" stroke="none" /><circle cx="373" cy="281" r="5" fill="green" stroke="none" /><circle cx="818" cy="68" r="5" fill="green" stroke="none" /><circle cx="383" cy="560" r="5" fill="green" stroke="none" /><circle cx="809" cy="551" r="5" fill="green" stroke="none" /><circle cx="853" cy="693" r="5" fill="green" stroke="none" /><circle cx="784" cy="932" r="5" fill="green" stroke="none" /><circle cx="718" cy="849" r="5" fill="green" stroke="none" /><circle cx="166" cy="572" r="5" fill="green" stroke="none" /><circle cx="383" cy="736" r="5" fill="green" stroke="none" /><circle cx="382" cy="164" r="5" fill="green" stroke="none" /><circle cx="792" cy="687" r="5" fill="green" stroke="none" /><circle cx="387" cy="155" r="5" fill="green" stroke="none" /><circle cx="457" cy="515" r="5" fill="green" stroke="none" /><circle cx="341" cy="534" r="5" fill="green" stroke="none" /><circle cx="547" cy="102" r="5" fill="green" stroke="none" /><circle cx="297" cy="783" r="5" fill="green" stroke="none" /><circle cx="486" cy="475" r="5" fill="green" stroke="none" /><circle cx="484" cy="710" r="5" fill="green" stroke="none" /><circle cx="124" cy="761" r="5" fill="green" stroke="none" /><circle cx="632" cy="225" r="5" fill="green" stroke="none" /><circle cx="771" cy="371" r="5" fill="green" stroke="none" /><circle cx="942" cy="373" r="5" fill="green" stroke="none" /><circle cx="19" cy="501" r="5" fill="green" stroke="none" /><circle cx="131" cy="287" r="5" fill="green" stroke="none" /><circle cx="740" cy="414" r="5" fill="green" stroke="none" /><circle cx="668" cy="612" r="5" fill="green" stroke="none" /><circle cx="101" cy="46" r="5" fill="green" stroke="none" /><circle cx="34" cy="862" r="5" fill="green" stroke="none" /><circle cx="821" cy="900" r="5" fill="green" stroke="none" /><circle cx="575" cy="188" r="5" fill="green" stroke="none" /><circle cx="48" cy="235" r="5" fill="green" stroke="none" /><circle cx="1" cy="441" r="5" fill="green" stroke="none" /><circle cx="217" cy="728" r="5" fill="green" stroke="none" /><circle cx="570" cy="602" r="5" fill="green" stroke="none" /><circle cx="696" cy="380" r="5" fill="green" stroke="none" /><circle cx="55" cy="154" r="5" fill="green" stroke="none" /><circle cx="922" cy="214" r="5" fill="green" stroke="none" /><circle cx="609" cy="820" r="5" fill="green" stroke="none" /><circle cx="305" cy="595" r="5" fill="green" stroke="none" /><circle cx="42" cy="683" r="5" fill="green" stroke="none" /><circle cx="285" cy="223" r="5" fill="green" stroke="none" /><circle cx="465" cy="334" r="5" fill="green" stroke="none" /><circle cx="364" cy="118" r="5" fill="green" stroke="none" /><circle cx="898" cy="255" r="5" fill="green" stroke="none" /><circle cx="771" cy="791" r="5" fill="green" stroke="none" /><circle cx="463" cy="294" r="5" fill="green" stroke="none" /><circle cx="563" cy="942" r="5" fill="green" stroke="none" /><circle cx="568" cy="335" r="5" fill="green" stroke="none" /><circle cx="817" cy="537" r="5" fill="green" stroke="none" /><circle cx="526" cy="206" r="5" fill="green" stroke="none" /><circle cx="647" cy="676" r="5" fill="green" stroke="none" /><circle cx="680" cy="32" r="5" fill="green" stroke="none" /><circle cx="975" cy="67" r="5" fill="green" stroke="none" /><circle cx="371" cy="103" r="5" fill="green" stroke="none" /><circle cx="71" cy="690" r="5" fill="green" stroke="none" /><circle cx="397" cy="79" r="5" fill="green" stroke="none" /><circle cx="443" cy="22" r="5" fill="green" stroke="none" /><circle cx="744" cy="766" r="5" fill="green" stroke="none" /><circle cx="926" cy="81" r="5" fill="green" stroke="none" /><circle cx="106" cy="997" r="5" fill="green" stroke="none" /><circle cx="853" cy="993" r="5" fill="green" stroke="none" /><circle cx="270" cy="583" r="5" fill="green" stroke="none" /><circle cx="693" cy="744" r="5" fill="green" stroke="none" /><circle cx="900" cy="826" r="5" fill="green" stroke="none" /><circle cx="813" cy="821" r="5" fill="green" stroke="none" /><circle cx="639" cy="132" r="5" fill="green" stroke="none" /><circle cx="715" cy="267" r="5" fill="green" stroke="none" /><circle cx="915" cy="434" r="5" fill="green" stroke="none" /><circle cx="148" cy="580" r="5" fill="green" stroke="none" /><circle cx="714" cy="772" r="5" fill="green" stroke="none" /><circle cx="814" cy="822" r="5" fill="green" stroke="none" /><circle cx="292" cy="828" r="5" fill="green" stroke="none" /><circle cx="246" cy="765" r="5" fill="green" stroke="none" /><circle cx="199" cy="485" r="5" fill="green" stroke="none" /><circle cx="848" cy="255" r="5" fill="green" stroke="none" /><circle cx="367" cy="574" r="5" fill="green" stroke="none" /><circle cx="429" cy="658" r="5" fill="green" stroke="none" /><circle cx="491" cy="30" r="5" fill="green" stroke="none" /><circle cx="868" cy="985" r="5" fill="green" stroke="none" /><circle cx="727" cy="130" r="5" fill="green" stroke="none" /><circle cx="627" cy="504" r="5" fill="green" stroke="none" /><circle cx="471" cy="351" r="5" fill="green" stroke="none" /><circle cx="258" cy="64" r="5" fill="green" stroke="none" /><circle cx="250" cy="838" r="5" fill="green" stroke="none" /><circle cx="495" cy="566" r="5" fill="green" stroke="none" /><circle cx="758" cy="462" r="5" fill="green" stroke="none" /><circle cx="214" cy="741" r="5" fill="green" stroke="none" /><circle cx="451" cy="376" r="5" fill="green" stroke="none" /><circle cx="791" cy="662" r="5" fill="green" stroke="none" /><circle cx="122" cy="23" r="5" fill="green" stroke="none" /><circle cx="409" cy="44" r="5" fill="green" stroke="none" /><circle cx="204" cy="850" r="5" fill="green" stroke="none" /><circle cx="951" cy="116" r="5" fill="green" stroke="none" /><circle cx="780" cy="764" r="5" fill="green" stroke="none" /><circle cx="659" cy="93" r="5" fill="green" stroke="none" /></svg>