<svg viewBox="0 0 8882 5656" xmlns="http://www.w3.org/2000/svg"><rect x="0" y="0" width="8882" height="5656" fill="lightyellow" stroke="none "/><rect x="6609" y="1514" width="1324" height="669" fill="white" stroke="black "/><circle cx="1716" cy="1690" r="5" fill="green" stroke="none" /><circle cx="5709" cy="5214" r="5" fill="green" stroke="none" /><circle cx="4652" cy="1789" r="5" fill="green" stroke="none" /><circle cx="135" cy="1133" r="5" fill="green" stroke="none" /><circle cx="5428" cy="46" r="5" fill="green" stroke="none" /><circle cx="5783" cy="4153" r="5" fill="green" stroke="none" /><circle cx="7845" cy="747" r="5" fill="green" stroke="none" /><circle cx="1686" cy="1875" r="5" fill="green" stroke="none" /><circle cx="898" cy="2527" r="5" fill="green" stroke="none" /><circle cx="374" cy="396" r="5" fill="green" stroke="none" /><circle cx="7204" cy="4640" r="5" fill="green" stroke="none" /><circle cx="2788" cy="2305" r="5" fill="green" stroke="none" /><circle cx="1684" cy="5519" r="5" fill="green" stroke="none" /><circle cx="4281" cy="5389" r="5" fill="green" stroke="none" /><circle cx="418" cy="3385" r="5" fill="green" stroke="none" /><circle cx="1050" cy="4973" r="5" fill="green" stroke="none" /><circle cx="5447" cy="4284" r="5" fill="green" stroke="none" /><circle cx="4729" cy="1398" r="5" fill="green" stroke="none" /><circle cx="7494" cy="4602" r="5" fill="green" stroke="none" /><circle cx="1943" cy="5290" r="5" fill="green" stroke="none" /><circle cx="3568" cy="4955" r="5" fill="green" stroke="none" /><circle cx="2754" cy="4975" r="5" fill="green" stroke="none" /><circle cx="1408" cy="2127" r="5" fill="green" stroke="none" /><circle cx="2240" cy="323" r="5" fill="green" stroke="none" /><circle cx="5533" cy="1991" r="5" fill="green" stroke="none" /><circle cx="1819" cy="1424" r="5" fill="green" stroke="none" /><circle cx="3180" cy="3987" r="5" fill="green" stroke="none" /><circle cx="3508" cy="3346" r="5" fill="green" stroke="none" /><circle cx="1292" cy="2863" r="5" fill="green" stroke="none" /><circle cx="2805" cy="97" r="5" fill="green" stroke="none" /><circle cx="2534" cy="2330" r="5" fill="green" stroke="none" /><circle cx="4848" cy="1737" r="5" fill="green" stroke="none" /><circle cx="2000" cy="151" r="5" fill="green" stroke="none" /><circle cx="4846" cy="3795" r="5" fill="green" stroke="none" /><circle cx="2258" cy="5576" r="5" fill="green" stroke="none" /><circle cx="6350" cy="3139" r="5" fill="green" stroke="none" /><circle cx="3332" cy="4112" r="5" fill="green" stroke="none" /><circle cx="3197" cy="2595" r="5" fill="green" stroke="none" /><circle cx="2186" cy="676" r="5" fill="green" stroke="none" /><circle cx="7689" cy="4355" r="5" fill="green" stroke="none" /><circle cx="6743" cy="517" r="5" fill="green" stroke="none" /><circle cx="5017" cy="5601" r="5" fill="green" stroke="none" /><circle cx="6798" cy="3838" r="5" fill="green" stroke="none" /><circle cx="878" cy="515" r="5" fill="green" stroke="none" /><circle cx="4467" cy="2236" r="5" fill="green" stroke="none" /><circle cx="5240" cy="4268" r="5" fill="green" stroke="none" /><circle cx="6540" cy="1135" r="5" fill="green" stroke="none" /><circle cx="6934" cy="5079" r="5" fill="green" stroke="none" /><circle cx="7403" cy="5291" r="5" fill="green" stroke="none" /><circle cx="2329" cy="176" r="5" fill="green" stroke="none" /><circle cx="8119" cy="4642" r="5" fill="green" stroke="none" /><circle cx="4950" cy="3857" r="5" fill="green" stroke="none" /><circle cx="8266" cy="1197" r="5" fill="green" stroke="none" /><circle cx="5433" cy="4885" r="5" fill="green" stroke="none" /><circle cx="2939" cy="711" r="5" fill="green" stroke="none" /><circle cx="5802" cy="2038" r="5" fill="green" stroke="none" /><circle cx="3642" cy="1130" r="5" fill="green" stroke="none" /><circle cx="5925" cy="4577" r="5" fill="green" stroke="none" /><circle cx="989" cy="4570" r="5" fill="green" stroke="none" /><circle cx="4211" cy="2876" r="5" fill="green" stroke="none" /><circle cx="552" cy="2873" r="5" fill="green" stroke="none" /><circle cx="8132" cy="1142" r="5" fill="green" stroke="none" /><circle cx="6832" cy="4980" r="5" fill="green" stroke="none" /><circle cx="3194" cy="3681" r="5" fill="green" stroke="none" /><circle cx="6287" cy="2550" r="5" fill="green" stroke="none" /><circle cx="7196" cy="299" r="5" fill="green" stroke="none" /><circle cx="3302" cy="4567" r="5" fill="green" stroke="none" /><circle cx="7288" cy="2770" r="5" fill="green" stroke="none" /><circle cx="1367" cy="883" r="5" fill="green" stroke="none" /><circle cx="8091" cy="4133" r="5" fill="green" stroke="none" /><circle cx="6052" cy="3182" r="5" fill="green" stroke="none" /><circle cx="219" cy="3474" r="5" fill="green" stroke="none" /><circle cx="5462" cy="2198" r="5" fill="green" stroke="none" /><circle cx="2675" cy="818" r="5" fill="green" stroke="none" /><circle cx="7312" cy="5384" r="5" fill="green" stroke="none" /><circle cx="330" cy="764" r="5" fill="green" stroke="none" /><circle cx="1169" cy="1931" r="5" fill="green" stroke="none" /><circle cx="586" cy="5147" r="5" fill="green" stroke="none" /><circle cx="3938" cy="1406" r="5" fill="green" stroke="none" /><circle cx="5640" cy="4297" r="5" fill="green" stroke="none" /><circle cx="1633" cy="904" r="5" fill="green" stroke="none" /><circle cx="705" cy="2189" r="5" fill="green" stroke="none" /><circle cx="4982" cy="283" r="5" fill="green" stroke="none" /><circle cx="2734" cy="249" r="5" fill="green" stroke="none" /><circle cx="7459" cy="5232" r="5" fill="green" stroke="none" /><circle cx="5165" cy="4818" r="5" fill="green" stroke="none" /><circle cx="382" cy="5047" r="5" fill="green" stroke="none" /><circle cx="1513" cy="5076" r="5" fill="green" stroke="none" /><circle cx="4884" cy="3612" r="5" fill="green" stroke="none" /><circle cx="6083" cy="3357" r="5" fill="green" stroke="none" /><circle cx="5409" cy="1547" r="5" fill="green" stroke="none" /><circle cx="7508" cy="3764" r="5" fill="green" stroke="none" /><circle cx="1357" cy="945" r="5" fill="green" stroke="none" /><circle cx="198" cy="429" r="5" fill="green" stroke="none" /><circle cx="7818" cy="2482" r="5" fill="green" stroke="none" /><circle cx="4865" cy="2244" r="5" fill="green" stroke="none" /><circle cx="2066" cy="250" r="5" fill="green" stroke="none" /><circle cx="1071" cy="3586" r="5" fill="green" stroke="none" /><circle cx="1539" cy="3673" r="5" fill="green" stroke="none" /><circle cx="3235" cy="852" r="5" fill="green" stroke="none" /><circle cx="5573" cy="5138" r="5" fill="green" stroke="none" /><circle cx="138" cy="1638" r="5" fill="green" stroke="none" /><circle cx="4183" cy="5557" r="5" fill="green" stroke="none" /><circle cx="5369" cy="2803" r="5" fill="green" stroke="none" /><circle cx="4047" cy="3973" r="5" fill="green" stroke="none" /><circle cx="3635" cy="3922" r="5" fill="green" stroke="none" /><circle cx="6212" cy="3808" r="5" fill="green" stroke="none" /><circle cx="7279" cy="2958" r="5" fill="green" stroke="none" /><circle cx="5858" cy="2298" r="5" fill="green" stroke="none" /><circle cx="1804" cy="1373" r="5" fill="green" stroke="none" /><circle cx="878" cy="2605" r="5" fill="green" stroke="none" /><circle cx="6783" cy="2407" r="5" fill="green" stroke="none" /><circle cx="5679" cy="2285" r="5" fill="green" stroke="none" /><circle cx="3379" cy="3658" r="5" fill="green" stroke="none" /><circle cx="6931" cy="3116" r="5" fill="green" stroke="none" /><circle cx="1046" cy="1497" r="5" fill="green" stroke="none" /><circle cx="7782" cy="5019" r="5" fill="green" stroke="none" /><circle cx="2098" cy="1461" r="5" fill="green" stroke="none" /><circle cx="6291" cy="3355" r="5" fill="green" stroke="none" /><circle cx="385" cy="3766" r="5" fill="green" stroke="none" /><circle cx="5276" cy="5042" r="5" fill="green" stroke="none" /><circle cx="4340" cy="5116" r="5" fill="green" stroke="none" /><circle cx="3992" cy="2754" r="5" fill="green" stroke="none" /><circle cx="7" cy="5169" r="5" fill="green" stroke="none" /><circle cx="1431" cy="2425" r="5" fill="green" stroke="none" /><circle cx="1631" cy="522" r="5" fill="green" stroke="none" /><circle cx="5633" cy="5365" r="5" fill="green" stroke="none" /><circle cx="6214" cy="2416" r="5" fill="green" stroke="none" /><circle cx="3480" cy="61" r="5" fill="green" stroke="none" /><circle cx="2203" cy="484" r="5" fill="green" stroke="none" /><circle cx="8429" cy="1803" r="5" fill="green" stroke="none" /><circle cx="2940" cy="1703" r="5" fill="green" stroke="none" /><circle cx="5975" cy="5156" r="5" fill="green" stroke="none" /><circle cx="8265" cy="1534" r="5" fill="green" stroke="none" /><circle cx="2529" cy="1960" r="5" fill="green" stroke="none" /><circle cx="1122" cy="4137" r="5" fill="green" stroke="none" /><circle cx="4807" cy="5062" r="5" fill="green" stroke="none" /><circle cx="11" cy="3824" r="5" fill="green" stroke="none" /><circle cx="7542" cy="4885" r="5" fill="green" stroke="none" /><circle cx="3210" cy="1628" r="5" fill="green" stroke="none" /><circle cx="8719" cy="334" r="5" fill="green" stroke="none" /><circle cx="1003" cy="460" r="5" fill="green" stroke="none" /><circle cx="4336" cy="4054" r="5" fill="green" stroke="none" /><circle cx="4070" cy="4823" r="5" fill="green" stroke="none" /><circle cx="2952" cy="2263" r="5" fill="green" stroke="none" /><circle cx="7026" cy="3328" r="5" fill="green" stroke="none" /><circle cx="6300" cy="2490" r="5" fill="green" stroke="none" /><circle cx="6480" cy="4510" r="5" fill="green" stroke="none" /><circle cx="4949" cy="3221" r="5" fill="green" stroke="none" /><circle cx="171" cy="4694" r="5" fill="green" stroke="none" /><circle cx="1019" cy="191" r="5" fill="green" stroke="none" /><circle cx="5098" cy="1055" r="5" fill="green" stroke="none" /><circle cx="2004" cy="4600" r="5" fill="green" stroke="none" /><circle cx="8067" cy="2044" r="5" fill="green" stroke="none" /><circle cx="4839" cy="826" r="5" fill="green" stroke="none" /><circle cx="6899" cy="928" r="5" fill="green" stroke="none" /><circle cx="3979" cy="5072" r="5" fill="green" stroke="none" /><circle cx="194" cy="875" r="5" fill="green" stroke="none" /><circle cx="3088" cy="28" r="5" fill="green" stroke="none" /><circle cx="6478" cy="814" r="5" fill="green" stroke="none" /><circle cx="4008" cy="186" r="5" fill="green" stroke="none" /><circle cx="3539" cy="1065" r="5" fill="green" stroke="none" /><circle cx="8779" cy="1686" r="5" fill="green" stroke="none" /><circle cx="932" cy="5037" r="5" fill="green" stroke="none" /><circle cx="7368" cy="982" r="5" fill="green" stroke="none" /><circle cx="428" cy="965" r="5" fill="green" stroke="none" /><circle cx="7011" cy="3944" r="5" fill="green" stroke="none" /><circle cx="884" cy="4209" r="5" fill="green" stroke="none" /><circle cx="7691" cy="5020" r="5" fill="green" stroke="none" /><circle cx="5645" cy="198" r="5" fill="green" stroke="none" /><circle cx="8711" cy="5295" r="5" fill="green" stroke="none" /><circle cx="4989" cy="591" r="5" fill="green" stroke="none" /><circle cx="2436" cy="1712" r="5" fill="green" stroke="none" /><circle cx="3890" cy="2361" r="5" fill="green" stroke="none" /><circle cx="7913" cy="5496" r="5" fill="green" stroke="none" /><circle cx="4013" cy="3840" r="5" fill="green" stroke="none" /><circle cx="444" cy="829" r="5" fill="green" stroke="none" /><circle cx="2628" cy="5330" r="5" fill="green" stroke="none" /><circle cx="1416" cy="4297" r="5" fill="green" stroke="none" /><circle cx="8585" cy="4554" r="5" fill="green" stroke="none" /><circle cx="662" cy="857" r="5" fill="green" stroke="none" /><circle cx="7883" cy="5031" r="5" fill="green" stroke="none" /><circle cx="5648" cy="2964" r="5" fill="green" stroke="none" /><circle cx="7156" cy="2895" r="5" fill="green" stroke="none" /><circle cx="3166" cy="405" r="5" fill="green" stroke="none" /><circle cx="2118" cy="4029" r="5" fill="green" stroke="none" /><circle cx="858" cy="2733" r="5" fill="green" stroke="none" /><circle cx="610" cy="428" r="5" fill="green" stroke="none" /><circle cx="3361" cy="219" r="5" fill="green" stroke="none" /><circle cx="7147" cy="2354" r="5" fill="green" stroke="none" /><circle cx="4463" cy="5063" r="5" fill="green" stroke="none" /><circle cx="7498" cy="2953" r="5" fill="green" stroke="none" /><circle cx="216" cy="2624" r="5" fill="green" stroke="none" /><circle cx="4731" cy="2376" r="5" fill="green" stroke="none" /><circle cx="8204" cy="397" r="5" fill="green" stroke="none" /><circle cx="5899" cy="541" r="5" fill="green" stroke="none" /><circle cx="3264" cy="3329" r="5" fill="green" stroke="none" /><circle cx="2029" cy="5530" r="5" fill="green" stroke="none" /><circle cx="3611" cy="847" r="5" fill="green" stroke="none" /><circle cx="2660" cy="1408" r="5" fill="green" stroke="none" /><circle cx="3726" cy="2590" r="5" fill="green" stroke="none" /><circle cx="3579" cy="3045" r="5" fill="green" stroke="none" /><circle cx="2945" cy="718" r="5" fill="green" stroke="none" /><circle cx="5862" cy="3354" r="5" fill="green" stroke="none" /><circle cx="7263" cy="5435" r="5" fill="green" stroke="none" /><circle cx="365" cy="3697" r="5" fill="green" stroke="none" /><circle cx="6460" cy="2168" r="5" fill="green" stroke="none" /><circle cx="237" cy="1291" r="5" fill="green" stroke="none" /><circle cx="3820" cy="3828" r="5" fill="green" stroke="none" /><circle cx="4351" cy="5347" r="5" fill="green" stroke="none" /><circle cx="8763" cy="4983" r="5" fill="green" stroke="none" /><circle cx="7857" cy="1478" r="5" fill="green" stroke="none" /><circle cx="3007" cy="1732" r="5" fill="green" stroke="none" /><circle cx="6176" cy="4361" r="5" fill="green" stroke="none" /><circle cx="7298" cy="290" r="5" fill="green" stroke="none" /><circle cx="831" cy="3769" r="5" fill="green" stroke="none" /><circle cx="842" cy="3011" r="5" fill="green" stroke="none" /><circle cx="6560" cy="1032" r="5" fill="green" stroke="none" /><circle cx="5341" cy="4488" r="5" fill="green" stroke="none" /><circle cx="4229" cy="4039" r="5" fill="green" stroke="none" /><circle cx="130" cy="3243" r="5" fill="green" stroke="none" /><circle cx="8354" cy="1302" r="5" fill="green" stroke="none" /><circle cx="7473" cy="3144" r="5" fill="green" stroke="none" /><circle cx="6646" cy="1130" r="5" fill="green" stroke="none" /><circle cx="6759" cy="1441" r="5" fill="green" stroke="none" /><circle cx="4828" cy="932" r="5" fill="green" stroke="none" /><circle cx="6063" cy="2137" r="5" fill="green" stroke="none" /><circle cx="5243" cy="3918" r="5" fill="green" stroke="none" /><circle cx="237" cy="5574" r="5" fill="green" stroke="none" /><circle cx="8095" cy="5415" r="5" fill="green" stroke="none" /><circle cx="7339" cy="1253" r="5" fill="green" stroke="none" /><circle cx="6283" cy="3895" r="5" fill="green" stroke="none" /><circle cx="5566" cy="725" r="5" fill="green" stroke="none" /><circle cx="5187" cy="3211" r="5" fill="green" stroke="none" /><circle cx="305" cy="4866" r="5" fill="green" stroke="none" /><circle cx="1577" cy="5419" r="5" fill="green" stroke="none" /><circle cx="7098" cy="4620" r="5" fill="green" stroke="none" /><circle cx="3739" cy="2858" r="5" fill="green" stroke="none" /><circle cx="7336" cy="2492" r="5" fill="green" stroke="none" /><circle cx="6028" cy="4282" r="5" fill="green" stroke="none" /><circle cx="8370" cy="735" r="5" fill="green" stroke="none" /><circle cx="3564" cy="3767" r="5" fill="green" stroke="none" /><circle cx="1504" cy="1030" r="5" fill="green" stroke="none" /><circle cx="8078" cy="748" r="5" fill="green" stroke="none" /><circle cx="8697" cy="1973" r="5" fill="green" stroke="none" /><circle cx="8579" cy="1031" r="5" fill="green" stroke="none" /><circle cx="5763" cy="1735" r="5" fill="green" stroke="none" /><circle cx="5332" cy="1063" r="5" fill="green" stroke="none" /><circle cx="6446" cy="4926" r="5" fill="green" stroke="none" /><circle cx="7189" cy="1495" r="5" fill="green" stroke="none" /><circle cx="4621" cy="4728" r="5" fill="green" stroke="none" /><circle cx="8112" cy="3407" r="5" fill="green" stroke="none" /><circle cx="4324" cy="4728" r="5" fill="green" stroke="none" /><circle cx="7676" cy="2282" r="5" fill="green" stroke="none" /><circle cx="1382" cy="1259" r="5" fill="green" stroke="none" /><circle cx="506" cy="3351" r="5" fill="green" stroke="none" /><circle cx="8630" cy="4106" r="5" fill="green" stroke="none" /><circle cx="5863" cy="172" r="5" fill="green" stroke="none" /><circle cx="6089" cy="3915" r="5" fill="green" stroke="none" /><circle cx="7915" cy="949" r="5" fill="green" stroke="none" /><circle cx="7756" cy="5135" r="5" fill="green" stroke="none" /><circle cx="3948" cy="2358" r="5" fill="green" stroke="none" /><circle cx="3704" cy="3815" r="5" fill="green" stroke="none" /><circle cx="8212" cy="5340" r="5" fill="green" stroke="none" /><circle cx="7499" cy="2649" r="5" fill="green" stroke="none" /><circle cx="5137" cy="3626" r="5" fill="green" stroke="none" /><circle cx="3427" cy="4400" r="5" fill="green" stroke="none" /><circle cx="1560" cy="212" r="5" fill="green" stroke="none" /><circle cx="8261" cy="1443" r="5" fill="green" stroke="none" /><circle cx="6359" cy="3792" r="5" fill="green" stroke="none" /><circle cx="4900" cy="692" r="5" fill="green" stroke="none" /><circle cx="5924" cy="812" r="5" fill="green" stroke="none" /><circle cx="6243" cy="3207" r="5" fill="green" stroke="none" /><circle cx="8365" cy="2853" r="5" fill="green" stroke="none" /><circle cx="1228" cy="2685" r="5" fill="green" stroke="none" /><circle cx="1902" cy="4825" r="5" fill="green" stroke="none" /><circle cx="93" cy="212" r="5" fill="green" stroke="none" /><circle cx="1386" cy="4886" r="5" fill="green" stroke="none" /><circle cx="7097" cy="5543" r="5" fill="green" stroke="none" /><circle cx="7739" cy="3420" r="5" fill="green" stroke="none" /><circle cx="2453" cy="3683" r="5" fill="green" stroke="none" /><circle cx="2383" cy="4777" r="5" fill="green" stroke="none" /><circle cx="3180" cy="2289" r="5" fill="green" stroke="none" /><circle cx="4225" cy="241" r="5" fill="green" stroke="none" /><circle cx="6335" cy="2094" r="5" fill="green" stroke="none" /><circle cx="1466" cy="4627" r="5" fill="green" stroke="none" /><circle cx="7532" cy="3557" r="5" fill="green" stroke="none" /><circle cx="2298" cy="4940" r="5" fill="green" stroke="none" /><circle cx="7997" cy="2141" r="5" fill="green" stroke="none" /><circle cx="2863" cy="5606" r="5" fill="green" stroke="none" /><circle cx="7037" cy="3988" r="5" fill="green" stroke="none" /><circle cx="4179" cy="4483" r="5" fill="green" stroke="none" /><circle cx="500" cy="4163" r="5" fill="green" stroke="none" /><circle cx="1040" cy="3806" r="5" fill="green" stroke="none" /><circle cx="1862" cy="2989" r="5" fill="green" stroke="none" /><circle cx="1555" cy="4526" r="5" fill="green" stroke="none" /><circle cx="3664" cy="4997" r="5" fill="green" stroke="none" /><circle cx="5261" cy="4424" r="5" fill="green" stroke="none" /><circle cx="1715" cy="2750" r="5" fill="green" stroke="none" /><circle cx="2858" cy="3344" r="5" fill="green" stroke="none" /><circle cx="721" cy="3836" r="5" fill="green" stroke="none" /><circle cx="8189" cy="2427" r="5" fill="green" stroke="none" /><circle cx="7707" cy="2464" r="5" fill="green" stroke="none" /><circle cx="6456" cy="4905" r="5" fill="green" stroke="none" /><circle cx="5772" cy="1771" r="5" fill="green" stroke="none" /><circle cx="8871" cy="1918" r="5" fill="green" stroke="none" /><circle cx="6954" cy="975" r="5" fill="green" stroke="none" /><circle cx="5302" cy="75" r="5" fill="green" stroke="none" /><circle cx="7307" cy="4852" r="5" fill="green" stroke="none" /><circle cx="5681" cy="4150" r="5" fill="green" stroke="none" /><circle cx="3978" cy="1991" r="5" fill="green" stroke="none" /><circle cx="2875" cy="3956" r="5" fill="green" stroke="none" /><circle cx="6441" cy="3337" r="5" fill="green" stroke="none" /><circle cx="1442" cy="5113" r="5" fill="green" stroke="none" /><circle cx="3474" cy="4804" r="5" fill="green" stroke="none" /><circle cx="695" cy="1227" r="5" fill="green" stroke="none" /><circle cx="233" cy="5510" r="5" fill="green" stroke="none" /><circle cx="1643" cy="5207" r="5" fill="green" stroke="none" /><circle cx="1049" cy="4903" r="5" fill="green" stroke="none" /><circle cx="7007" cy="4721" r="5" fill="green" stroke="none" /><circle cx="5897" cy="1464" r="5" fill="green" stroke="none" /><circle cx="6773" cy="2476" r="5" fill="green" stroke="none" /><circle cx="6296" cy="3487" r="5" fill="green" stroke="none" /><circle cx="403" cy="1895" r="5" fill="green" stroke="none" /><circle cx="1003" cy="4265" r="5" fill="green" stroke="none" /><circle cx="6956" cy="5447" r="5" fill="green" stroke="none" /><circle cx="2403" cy="3997" r="5" fill="green" stroke="none" /><circle cx="6360" cy="579" r="5" fill="green" stroke="none" /><circle cx="7392" cy="4538" r="5" fill="green" stroke="none" /><circle cx="3336" cy="1607" r="5" fill="green" stroke="none" /><circle cx="8332" cy="656" r="5" fill="green" stroke="none" /><circle cx="1470" cy="3953" r="5" fill="green" stroke="none" /><circle cx="5006" cy="5268" r="5" fill="green" stroke="none" /><circle cx="1273" cy="31" r="5" fill="green" stroke="none" /><circle cx="7690" cy="3707" r="5" fill="green" stroke="none" /><circle cx="2102" cy="2467" r="5" fill="green" stroke="none" /><circle cx="1065" cy="1866" r="5" fill="green" stroke="none" /><circle cx="5648" cy="1332" r="5" fill="green" stroke="none" /><circle cx="5377" cy="565" r="5" fill="green" stroke="none" /><circle cx="1050" cy="855" r="5" fill="green" stroke="none" /><circle cx="220" cy="5410" r="5" fill="green" stroke="none" /><circle cx="2594" cy="3266" r="5" fill="green" stroke="none" /><circle cx="2587" cy="2059" r="5" fill="green" stroke="none" /><circle cx="6863" cy="5030" r="5" fill="green" stroke="none" /><circle cx="7290" cy="2194" r="5" fill="green" stroke="none" /><circle cx="1084" cy="4881" r="5" fill="green" stroke="none" /><circle cx="2796" cy="4336" r="5" fill="green" stroke="none" /><circle cx="1572" cy="434" r="5" fill="green" stroke="none" /><circle cx="8308" cy="3280" r="5" fill="green" stroke="none" /><circle cx="4851" cy="2730" r="5" fill="green" stroke="none" /><circle cx="7580" cy="3845" r="5" fill="green" stroke="none" /><circle cx="258" cy="2256" r="5" fill="green" stroke="none" /><circle cx="6792" cy="3721" r="5" fill="green" stroke="none" /><circle cx="4173" cy="3647" r="5" fill="green" stroke="none" /><circle cx="1238" cy="1487" r="5" fill="green" stroke="none" /><circle cx="1962" cy="3957" r="5" fill="green" stroke="none" /><circle cx="6228" cy="2140" r="5" fill="green" stroke="none" /><circle cx="8844" cy="1180" r="5" fill="green" stroke="none" /><circle cx="7203" cy="109" r="5" fill="green" stroke="none" /><circle cx="1612" cy="1598" r="5" fill="green" stroke="none" /><circle cx="8165" cy="4784" r="5" fill="green" stroke="none" /><circle cx="708" cy="4135" r="5" fill="green" stroke="none" /><circle cx="4041" cy="4809" r="5" fill="green" stroke="none" /><circle cx="6501" cy="1104" r="5" fill="green" stroke="none" /><circle cx="4051" cy="3396" r="5" fill="green" stroke="none" /><circle cx="4768" cy="673" r="5" fill="green" stroke="none" /><circle cx="3545" cy="4695" r="5" fill="green" stroke="none" /><circle cx="4884" cy="4088" r="5" fill="green" stroke="none" /><circle cx="1438" cy="1846" r="5" fill="green" stroke="none" /><circle cx="3446" cy="1646" r="5" fill="green" stroke="none" /><circle cx="1396" cy="3866" r="5" fill="green" stroke="none" /><circle cx="7309" cy="1223" r="5" fill="green" stroke="none" /><circle cx="399" cy="3344" r="5" fill="green" stroke="none" /><circle cx="4204" cy="2231" r="5" fill="green" stroke="none" /><circle cx="1336" cy="3714" r="5" fill="green" stroke="none" /><circle cx="6228" cy="4060" r="5" fill="green" stroke="none" /><circle cx="80" cy="4695" r="5" fill="green" stroke="none" /><circle cx="5010" cy="1769" r="5" fill="green" stroke="none" /><circle cx="7480" cy="3932" r="5" fill="green" stroke="none" /><circle cx="8348" cy="308" r="5" fill="green" stroke="none" /><circle cx="5122" cy="4512" r="5" fill="green" stroke="none" /><circle cx="4317" cy="1652" r="5" fill="green" stroke="none" /><circle cx="6407" cy="2875" r="5" fill="green" stroke="none" /><circle cx="4783" cy="1085" r="5" fill="green" stroke="none" /><circle cx="4105" cy="4443" r="5" fill="green" stroke="none" /><circle cx="4217" cy="3114" r="5" fill="green" stroke="none" /><circle cx="4338" cy="5636" r="5" fill="green" stroke="none" /><circle cx="223" cy="1278" r="5" fill="green" stroke="none" /><circle cx="7797" cy="4507" r="5" fill="green" stroke="none" /><circle cx="2978" cy="4080" r="5" fill="green" stroke="none" /><circle cx="4850" cy="4016" r="5" fill="green" stroke="none" /><circle cx="6940" cy="3417" r="5" fill="green" stroke="none" /><circle cx="4274" cy="3558" r="5" fill="green" stroke="none" /><circle cx="3244" cy="1474" r="5" fill="green" stroke="none" /><circle cx="1864" cy="2518" r="5" fill="green" stroke="none" /><circle cx="4619" cy="72" r="5" fill="green" stroke="none" /><circle cx="853" cy="5113" r="5" fill="green" stroke="none" /><circle cx="1135" cy="1036" r="5" fill="green" stroke="none" /><circle cx="3534" cy="1388" r="5" fill="green" stroke="none" /><circle cx="4307" cy="3605" r="5" fill="green" stroke="none" /><circle cx="2033" cy="2137" r="5" fill="green" stroke="none" /><circle cx="5411" cy="1865" r="5" fill="green" stroke="none" /><circle cx="4872" cy="2966" r="5" fill="green" stroke="none" /><circle cx="5453" cy="3497" r="5" fill="green" stroke="none" /><circle cx="1662" cy="5578" r="5" fill="green" stroke="none" /><circle cx="1201" cy="5394" r="5" fill="green" stroke="none" /><circle cx="1008" cy="1590" r="5" fill="green" stroke="none" /><circle cx="4950" cy="4959" r="5" fill="green" stroke="none" /><circle cx="362" cy="423" r="5" fill="green" stroke="none" /><circle cx="2571" cy="5189" r="5" fill="green" stroke="none" /><circle cx="5340" cy="4406" r="5" fill="green" stroke="none" /><circle cx="5592" cy="3462" r="5" fill="green" stroke="none" /><circle cx="7907" cy="587" r="5" fill="green" stroke="none" /><circle cx="7902" cy="1464" r="5" fill="green" stroke="none" /><circle cx="8449" cy="4434" r="5" fill="green" stroke="none" /><circle cx="7310" cy="1373" r="5" fill="green" stroke="none" /><circle cx="6613" cy="917" r="5" fill="green" stroke="none" /><circle cx="7776" cy="3271" r="5" fill="green" stroke="none" /><circle cx="6546" cy="4987" r="5" fill="green" stroke="none" /><circle cx="3498" cy="4063" r="5" fill="green" stroke="none" /><circle cx="1747" cy="2887" r="5" fill="green" stroke="none" /><circle cx="7415" cy="3446" r="5" fill="green" stroke="none" /><circle cx="4458" cy="2736" r="5" fill="green" stroke="none" /><circle cx="1159" cy="4662" r="5" fill="green" stroke="none" /><circle cx="8580" cy="4790" r="5" fill="green" stroke="none" /><circle cx="765" cy="4354" r="5" fill="green" stroke="none" /><circle cx="8671" cy="3057" r="5" fill="green" stroke="none" /><circle cx="7037" cy="561" r="5" fill="green" stroke="none" /><circle cx="2679" cy="2392" r="5" fill="green" stroke="none" /><circle cx="552" cy="1500" r="5" fill="green" stroke="none" /><circle cx="98" cy="5473" r="5" fill="green" stroke="none" /><circle cx="4029" cy="870" r="5" fill="green" stroke="none" /><circle cx="346" cy="3420" r="5" fill="green" stroke="none" /><circle cx="1507" cy="1250" r="5" fill="green" stroke="none" /><circle cx="685" cy="643" r="5" fill="green" stroke="none" /><circle cx="767" cy="4448" r="5" fill="green" stroke="none" /><circle cx="8189" cy="1787" r="5" fill="green" stroke="none" /><circle cx="5045" cy="710" r="5" fill="green" stroke="none" /><circle cx="5277" cy="4949" r="5" fill="green" stroke="none" /><circle cx="1708" cy="703" r="5" fill="green" stroke="none" /><circle cx="4727" cy="4283" r="5" fill="green" stroke="none" /><circle cx="5926" cy="4408" r="5" fill="green" stroke="none" /><circle cx="4861" cy="687" r="5" fill="green" stroke="none" /><circle cx="8609" cy="224" r="5" fill="green" stroke="none" /><circle cx="1977" cy="3841" r="5" fill="green" stroke="none" /><circle cx="5496" cy="4693" r="5" fill="green" stroke="none" /><circle cx="8864" cy="3595" r="5" fill="green" stroke="none" /><circle cx="8342" cy="4910" r="5" fill="green" stroke="none" /><circle cx="4980" cy="2029" r="5" fill="green" stroke="none" /><circle cx="8479" cy="2382" r="5" fill="green" stroke="none" /><circle cx="1553" cy="1914" r="5" fill="green" stroke="none" /><circle cx="2107" cy="1658" r="5" fill="green" stroke="none" /><circle cx="4429" cy="5441" r="5" fill="green" stroke="none" /><circle cx="2758" cy="4888" r="5" fill="green" stroke="none" /><circle cx="4569" cy="1036" r="5" fill="green" stroke="none" /><circle cx="6051" cy="5289" r="5" fill="green" stroke="none" /><circle cx="4580" cy="1146" r="5" fill="green" stroke="none" /><circle cx="1825" cy="2564" r="5" fill="green" stroke="none" /><circle cx="963" cy="495" r="5" fill="green" stroke="none" /><circle cx="4489" cy="3863" r="5" fill="green" stroke="none" /><circle cx="2515" cy="2704" r="5" fill="green" stroke="none" /><circle cx="184" cy="4090" r="5" fill="green" stroke="none" /><circle cx="2316" cy="3439" r="5" fill="green" stroke="none" /><circle cx="2825" cy="3045" r="5" fill="green" stroke="none" /><circle cx="5710" cy="5049" r="5" fill="green" stroke="none" /><circle cx="3794" cy="2720" r="5" fill="green" stroke="none" /><circle cx="6266" cy="4827" r="5" fill="green" stroke="none" /><circle cx="3097" cy="2252" r="5" fill="green" stroke="none" /><circle cx="3794" cy="3822" r="5" fill="green" stroke="none" /><circle cx="4783" cy="3642" r="5" fill="green" stroke="none" /><circle cx="296" cy="3450" r="5" fill="green" stroke="none" /><circle cx="7208" cy="255" r="5" fill="green" stroke="none" /><circle cx="6962" cy="4039" r="5" fill="green" stroke="none" /><circle cx="7396" cy="2851" r="5" fill="green" stroke="none" /><circle cx="6641" cy="3128" r="5" fill="green" stroke="none" /><circle cx="3538" cy="2094" r="5" fill="green" stroke="none" /><circle cx="165" cy="2574" r="5" fill="green" stroke="none" /><circle cx="4279" cy="1681" r="5" fill="green" stroke="none" /><circle cx="635" cy="1772" r="5" fill="green" stroke="none" /><circle cx="5649" cy="879" r="5" fill="green" stroke="none" /><circle cx="6565" cy="4036" r="5" fill="green" stroke="none" /><circle cx="3574" cy="2904" r="5" fill="green" stroke="none" /><circle cx="5768" cy="1551" r="5" fill="green" stroke="none" /><circle cx="7651" cy="4599" r="5" fill="green" stroke="none" /><circle cx="566" cy="1924" r="5" fill="green" stroke="none" /><circle cx="5799" cy="5554" r="5" fill="green" stroke="none" /><circle cx="1669" cy="513" r="5" fill="green" stroke="none" /><circle cx="5038" cy="3760" r="5" fill="green" stroke="none" /><circle cx="5885" cy="905" r="5" fill="green" stroke="none" /><circle cx="5460" cy="2163" r="5" fill="green" stroke="none" /><circle cx="7756" cy="4996" r="5" fill="green" stroke="none" /><circle cx="1751" cy="1333" r="5" fill="green" stroke="none" /><circle cx="7710" cy="3965" r="5" fill="green" stroke="none" /><circle cx="5765" cy="1780" r="5" fill="green" stroke="none" /><circle cx="6851" cy="2787" r="5" fill="green" stroke="none" /><circle cx="7444" cy="2520" r="5" fill="green" stroke="none" /><circle cx="6326" cy="723" r="5" fill="green" stroke="none" /><circle cx="354" cy="3624" r="5" fill="green" stroke="none" /><circle cx="1517" cy="1734" r="5" fill="green" stroke="none" /><circle cx="6465" cy="5113" r="5" fill="green" stroke="none" /></svg>