<svg viewBox="0 0 8882 5656" xmlns="http://www.w3.org/2000/svg"><rect x="0" y="0" width="8882" height="5656" fill="lightyellow" stroke="none "/><rect x="6609" y="3473" width="1324" height="669" fill="white" stroke="black "/><circle cx="1716" cy="3966" r="5" fill="green" stroke="none" /><circle cx="5709" cy="442" r="5" fill="green" stroke="none" /><circle cx="4652" cy="3867" r="5" fill="green" stroke="none" /><circle cx="135" cy="4523" r="5" fill="green" stroke="none" /><circle cx="5428" cy="5610" r="5" fill="green" stroke="none" /><circle cx="5783" cy="1503" r="5" fill="green" stroke="none" /><circle cx="7845" cy="4909" r="5" fill="green" stroke="none" /><circle cx="1686" cy="3781" r="5" fill="green" stroke="none" /><circle cx="898" cy="3129" r="5" fill="green" stroke="none" /><circle cx="374" cy="5260" r="5" fill="green" stroke="none" /><circle cx="7204" cy="1016" r="5" fill="green" stroke="none" /><circle cx="2788" cy="3351" r="5" fill="green" stroke="none" /><circle cx="1684" cy="137" r="5" fill="green" stroke="none" /><circle cx="4281" cy="267" r="5" fill="green" stroke="none" /><circle cx="418" cy="2271" r="5" fill="green" stroke="none" /><circle cx="1050" cy="683" r="5" fill="green" stroke="none" /><circle cx="5447" cy="1372" r="5" fill="green" stroke="none" /><circle cx="4729" cy="4258" r="5" fill="green" stroke="none" /><circle cx="7494" cy="1054" r="5" fill="green" stroke="none" /><circle cx="1943" cy="366" r="5" fill="green" stroke="none" /><circle cx="3568" cy="701" r="5" fill="green" stroke="none" /><circle cx="2754" cy="681" r="5" fill="green" stroke="none" /><circle cx="1408" cy="3529" r="5" fill="green" stroke="none" /><circle cx="2240" cy="5333" r="5" fill="green" stroke="none" /><circle cx="5533" cy="3665" r="5" fill="green" stroke="none" /><circle cx="1819" cy="4232" r="5" fill="green" stroke="none" /><circle cx="3180" cy="1669" r="5" fill="green" stroke="none" /><circle cx="3508" cy="2310" r="5" fill="green" stroke="none" /><circle cx="1292" cy="2793" r="5" fill="green" stroke="none" /><circle cx="2805" cy="5559" r="5" fill="green" stroke="none" /><circle cx="2534" cy="3326" r="5" fill="green" stroke="none" /><circle cx="4848" cy="3919" r="5" fill="green" stroke="none" /><circle cx="2000" cy="5505" r="5" fill="green" stroke="none" /><circle cx="4846" cy="1861" r="5" fill="green" stroke="none" /><circle cx="2258" cy="80" r="5" fill="green" stroke="none" /><circle cx="6350" cy="2517" r="5" fill="green" stroke="none" /><circle cx="3332" cy="1544" r="5" fill="green" stroke="none" /><circle cx="3197" cy="3061" r="5" fill="green" stroke="none" /><circle cx="2186" cy="4980" r="5" fill="green" stroke="none" /><circle cx="7689" cy="1301" r="5" fill="green" stroke="none" /><circle cx="6743" cy="5139" r="5" fill="green" stroke="none" /><circle cx="5017" cy="55" r="5" fill="green" stroke="none" /><circle cx="6798" cy="1818" r="5" fill="green" stroke="none" /><circle cx="878" cy="5141" r="5" fill="green" stroke="none" /><circle cx="4467" cy="3420" r="5" fill="green" stroke="none" /><circle cx="5240" cy="1388" r="5" fill="green" stroke="none" /><circle cx="6540" cy="4521" r="5" fill="green" stroke="none" /><circle cx="6934" cy="577" r="5" fill="green" stroke="none" /><circle cx="7403" cy="365" r="5" fill="green" stroke="none" /><circle cx="2329" cy="5480" r="5" fill="green" stroke="none" /><circle cx="8119" cy="1014" r="5" fill="green" stroke="none" /><circle cx="4950" cy="1799" r="5" fill="green" stroke="none" /><circle cx="8266" cy="4459" r="5" fill="green" stroke="none" /><circle cx="5433" cy="771" r="5" fill="green" stroke="none" /><circle cx="2939" cy="4945" r="5" fill="green" stroke="none" /><circle cx="5802" cy="3618" r="5" fill="green" stroke="none" /><circle cx="3642" cy="4526" r="5" fill="green" stroke="none" /><circle cx="5925" cy="1079" r="5" fill="green" stroke="none" /><circle cx="989" cy="1086" r="5" fill="green" stroke="none" /><circle cx="4211" cy="2780" r="5" fill="green" stroke="none" /><circle cx="552" cy="2783" r="5" fill="green" stroke="none" /><circle cx="8132" cy="4514" r="5" fill="green" stroke="none" /><circle cx="6832" cy="676" r="5" fill="green" stroke="none" /><circle cx="3194" cy="1975" r="5" fill="green" stroke="none" /><circle cx="6287" cy="3106" r="5" fill="green" stroke="none" /><circle cx="7196" cy="5357" r="5" fill="green" stroke="none" /><circle cx="3302" cy="1089" r="5" fill="green" stroke="none" /><circle cx="7288" cy="2886" r="5" fill="green" stroke="none" /><circle cx="1367" cy="4773" r="5" fill="green" stroke="none" /><circle cx="8091" cy="1523" r="5" fill="green" stroke="none" /><circle cx="6052" cy="2474" r="5" fill="green" stroke="none" /><circle cx="219" cy="2182" r="5" fill="green" stroke="none" /><circle cx="5462" cy="3458" r="5" fill="green" stroke="none" /><circle cx="2675" cy="4838" r="5" fill="green" stroke="none" /><circle cx="7312" cy="272" r="5" fill="green" stroke="none" /><circle cx="330" cy="4892" r="5" fill="green" stroke="none" /><circle cx="1169" cy="3725" r="5" fill="green" stroke="none" /><circle cx="586" cy="509" r="5" fill="green" stroke="none" /><circle cx="3938" cy="4250" r="5" fill="green" stroke="none" /><circle cx="5640" cy="1359" r="5" fill="green" stroke="none" /><circle cx="1633" cy="4752" r="5" fill="green" stroke="none" /><circle cx="705" cy="3467" r="5" fill="green" stroke="none" /><circle cx="4982" cy="5373" r="5" fill="green" stroke="none" /><circle cx="2734" cy="5407" r="5" fill="green" stroke="none" /><circle cx="7459" cy="424" r="5" fill="green" stroke="none" /><circle cx="5165" cy="838" r="5" fill="green" stroke="none" /><circle cx="382" cy="609" r="5" fill="green" stroke="none" /><circle cx="1513" cy="580" r="5" fill="green" stroke="none" /><circle cx="4884" cy="2044" r="5" fill="green" stroke="none" /><circle cx="6083" cy="2299" r="5" fill="green" stroke="none" /><circle cx="5409" cy="4109" r="5" fill="green" stroke="none" /><circle cx="7508" cy="1892" r="5" fill="green" stroke="none" /><circle cx="1357" cy="4711" r="5" fill="green" stroke="none" /><circle cx="198" cy="5227" r="5" fill="green" stroke="none" /><circle cx="7818" cy="3174" r="5" fill="green" stroke="none" /><circle cx="4865" cy="3412" r="5" fill="green" stroke="none" /><circle cx="2066" cy="5406" r="5" fill="green" stroke="none" /><circle cx="1071" cy="2070" r="5" fill="green" stroke="none" /><circle cx="1539" cy="1983" r="5" fill="green" stroke="none" /><circle cx="3235" cy="4804" r="5" fill="green" stroke="none" /><circle cx="5573" cy="518" r="5" fill="green" stroke="none" /><circle cx="138" cy="4018" r="5" fill="green" stroke="none" /><circle cx="4183" cy="99" r="5" fill="green" stroke="none" /><circle cx="5369" cy="2853" r="5" fill="green" stroke="none" /><circle cx="4047" cy="1683" r="5" fill="green" stroke="none" /><circle cx="3635" cy="1734" r="5" fill="green" stroke="none" /><circle cx="6212" cy="1848" r="5" fill="green" stroke="none" /><circle cx="7279" cy="2698" r="5" fill="green" stroke="none" /><circle cx="5858" cy="3358" r="5" fill="green" stroke="none" /><circle cx="1804" cy="4283" r="5" fill="green" stroke="none" /><circle cx="878" cy="3051" r="5" fill="green" stroke="none" /><circle cx="6783" cy="3249" r="5" fill="green" stroke="none" /><circle cx="5679" cy="3371" r="5" fill="green" stroke="none" /><circle cx="3379" cy="1998" r="5" fill="green" stroke="none" /><circle cx="6931" cy="2540" r="5" fill="green" stroke="none" /><circle cx="1046" cy="4159" r="5" fill="green" stroke="none" /><circle cx="7782" cy="637" r="5" fill="green" stroke="none" /><circle cx="2098" cy="4195" r="5" fill="green" stroke="none" /><circle cx="6291" cy="2301" r="5" fill="green" stroke="none" /><circle cx="385" cy="1890" r="5" fill="green" stroke="none" /><circle cx="5276" cy="614" r="5" fill="green" stroke="none" /><circle cx="4340" cy="540" r="5" fill="green" stroke="none" /><circle cx="3992" cy="2902" r="5" fill="green" stroke="none" /><circle cx="7" cy="487" r="5" fill="green" stroke="none" /><circle cx="1431" cy="3231" r="5" fill="green" stroke="none" /><circle cx="1631" cy="5134" r="5" fill="green" stroke="none" /><circle cx="5633" cy="291" r="5" fill="green" stroke="none" /><circle cx="6214" cy="3240" r="5" fill="green" stroke="none" /><circle cx="3480" cy="5595" r="5" fill="green" stroke="none" /><circle cx="2203" cy="5172" r="5" fill="green" stroke="none" /><circle cx="8429" cy="3853" r="5" fill="green" stroke="none" /><circle cx="2940" cy="3953" r="5" fill="green" stroke="none" /><circle cx="5975" cy="500" r="5" fill="green" stroke="none" /><circle cx="8265" cy="4122" r="5" fill="green" stroke="none" /><circle cx="2529" cy="3696" r="5" fill="green" stroke="none" /><circle cx="1122" cy="1519" r="5" fill="green" stroke="none" /><circle cx="4807" cy="594" r="5" fill="green" stroke="none" /><circle cx="11" cy="1832" r="5" fill="green" stroke="none" /><circle cx="7542" cy="771" r="5" fill="green" stroke="none" /><circle cx="3210" cy="4028" r="5" fill="green" stroke="none" /><circle cx="8719" cy="5322" r="5" fill="green" stroke="none" /><circle cx="1003" cy="5196" r="5" fill="green" stroke="none" /><circle cx="4336" cy="1602" r="5" fill="green" stroke="none" /><circle cx="4070" cy="833" r="5" fill="green" stroke="none" /><circle cx="2952" cy="3393" r="5" fill="green" stroke="none" /><circle cx="7026" cy="2328" r="5" fill="green" stroke="none" /><circle cx="6300" cy="3166" r="5" fill="green" stroke="none" /><circle cx="6480" cy="1146" r="5" fill="green" stroke="none" /><circle cx="4949" cy="2435" r="5" fill="green" stroke="none" /><circle cx="171" cy="962" r="5" fill="green" stroke="none" /><circle cx="1019" cy="5465" r="5" fill="green" stroke="none" /><circle cx="5098" cy="4601" r="5" fill="green" stroke="none" /><circle cx="2004" cy="1056" r="5" fill="green" stroke="none" /><circle cx="8067" cy="3612" r="5" fill="green" stroke="none" /><circle cx="4839" cy="4830" r="5" fill="green" stroke="none" /><circle cx="6899" cy="4728" r="5" fill="green" stroke="none" /><circle cx="3979" cy="584" r="5" fill="green" stroke="none" /><circle cx="194" cy="4781" r="5" fill="green" stroke="none" /><circle cx="3088" cy="5628" r="5" fill="green" stroke="none" /><circle cx="6478" cy="4842" r="5" fill="green" stroke="none" /><circle cx="4008" cy="5470" r="5" fill="green" stroke="none" /><circle cx="3539" cy="4591" r="5" fill="green" stroke="none" /><circle cx="8779" cy="3970" r="5" fill="green" stroke="none" /><circle cx="932" cy="619" r="5" fill="green" stroke="none" /><circle cx="7368" cy="4674" r="5" fill="green" stroke="none" /><circle cx="428" cy="4691" r="5" fill="green" stroke="none" /><circle cx="7011" cy="1712" r="5" fill="green" stroke="none" /><circle cx="884" cy="1447" r="5" fill="green" stroke="none" /><circle cx="7691" cy="636" r="5" fill="green" stroke="none" /><circle cx="5645" cy="5458" r="5" fill="green" stroke="none" /><circle cx="8711" cy="361" r="5" fill="green" stroke="none" /><circle cx="4989" cy="5065" r="5" fill="green" stroke="none" /><circle cx="2436" cy="3944" r="5" fill="green" stroke="none" /><circle cx="3890" cy="3295" r="5" fill="green" stroke="none" /><circle cx="7913" cy="160" r="5" fill="green" stroke="none" /><circle cx="4013" cy="1816" r="5" fill="green" stroke="none" /><circle cx="444" cy="4827" r="5" fill="green" stroke="none" /><circle cx="2628" cy="326" r="5" fill="green" stroke="none" /><circle cx="1416" cy="1359" r="5" fill="green" stroke="none" /><circle cx="8585" cy="1102" r="5" fill="green" stroke="none" /><circle cx="662" cy="4799" r="5" fill="green" stroke="none" /><circle cx="7883" cy="625" r="5" fill="green" stroke="none" /><circle cx="5648" cy="2692" r="5" fill="green" stroke="none" /><circle cx="7156" cy="2761" r="5" fill="green" stroke="none" /><circle cx="3166" cy="5251" r="5" fill="green" stroke="none" /><circle cx="2118" cy="1627" r="5" fill="green" stroke="none" /><circle cx="858" cy="2923" r="5" fill="green" stroke="none" /><circle cx="610" cy="5228" r="5" fill="green" stroke="none" /><circle cx="3361" cy="5437" r="5" fill="green" stroke="none" /><circle cx="7147" cy="3302" r="5" fill="green" stroke="none" /><circle cx="4463" cy="593" r="5" fill="green" stroke="none" /><circle cx="7498" cy="2703" r="5" fill="green" stroke="none" /><circle cx="216" cy="3032" r="5" fill="green" stroke="none" /><circle cx="4731" cy="3280" r="5" fill="green" stroke="none" /><circle cx="8204" cy="5259" r="5" fill="green" stroke="none" /><circle cx="5899" cy="5115" r="5" fill="green" stroke="none" /><circle cx="3264" cy="2327" r="5" fill="green" stroke="none" /><circle cx="2029" cy="126" r="5" fill="green" stroke="none" /><circle cx="3611" cy="4809" r="5" fill="green" stroke="none" /><circle cx="2660" cy="4248" r="5" fill="green" stroke="none" /><circle cx="3726" cy="3066" r="5" fill="green" stroke="none" /><circle cx="3579" cy="2611" r="5" fill="green" stroke="none" /><circle cx="2945" cy="4938" r="5" fill="green" stroke="none" /><circle cx="5862" cy="2302" r="5" fill="green" stroke="none" /><circle cx="7263" cy="221" r="5" fill="green" stroke="none" /><circle cx="365" cy="1959" r="5" fill="green" stroke="none" /><circle cx="6460" cy="3488" r="5" fill="green" stroke="none" /><circle cx="237" cy="4365" r="5" fill="green" stroke="none" /><circle cx="3820" cy="1828" r="5" fill="green" stroke="none" /><circle cx="4351" cy="309" r="5" fill="green" stroke="none" /><circle cx="8763" cy="673" r="5" fill="green" stroke="none" /><circle cx="7857" cy="4178" r="5" fill="green" stroke="none" /><circle cx="3007" cy="3924" r="5" fill="green" stroke="none" /><circle cx="6176" cy="1295" r="5" fill="green" stroke="none" /><circle cx="7298" cy="5366" r="5" fill="green" stroke="none" /><circle cx="831" cy="1887" r="5" fill="green" stroke="none" /><circle cx="842" cy="2645" r="5" fill="green" stroke="none" /><circle cx="6560" cy="4624" r="5" fill="green" stroke="none" /><circle cx="5341" cy="1168" r="5" fill="green" stroke="none" /><circle cx="4229" cy="1617" r="5" fill="green" stroke="none" /><circle cx="130" cy="2413" r="5" fill="green" stroke="none" /><circle cx="8354" cy="4354" r="5" fill="green" stroke="none" /><circle cx="7473" cy="2512" r="5" fill="green" stroke="none" /><circle cx="6646" cy="4526" r="5" fill="green" stroke="none" /><circle cx="6759" cy="4215" r="5" fill="green" stroke="none" /><circle cx="4828" cy="4724" r="5" fill="green" stroke="none" /><circle cx="6063" cy="3519" r="5" fill="green" stroke="none" /><circle cx="5243" cy="1738" r="5" fill="green" stroke="none" /><circle cx="237" cy="82" r="5" fill="green" stroke="none" /><circle cx="8095" cy="241" r="5" fill="green" stroke="none" /><circle cx="7339" cy="4403" r="5" fill="green" stroke="none" /><circle cx="6283" cy="1761" r="5" fill="green" stroke="none" /><circle cx="5566" cy="4931" r="5" fill="green" stroke="none" /><circle cx="5187" cy="2445" r="5" fill="green" stroke="none" /><circle cx="305" cy="790" r="5" fill="green" stroke="none" /><circle cx="1577" cy="237" r="5" fill="green" stroke="none" /><circle cx="7098" cy="1036" r="5" fill="green" stroke="none" /><circle cx="3739" cy="2798" r="5" fill="green" stroke="none" /><circle cx="7336" cy="3164" r="5" fill="green" stroke="none" /><circle cx="6028" cy="1374" r="5" fill="green" stroke="none" /><circle cx="8370" cy="4921" r="5" fill="green" stroke="none" /><circle cx="3564" cy="1889" r="5" fill="green" stroke="none" /><circle cx="1504" cy="4626" r="5" fill="green" stroke="none" /><circle cx="8078" cy="4908" r="5" fill="green" stroke="none" /><circle cx="8697" cy="3683" r="5" fill="green" stroke="none" /><circle cx="8579" cy="4625" r="5" fill="green" stroke="none" /><circle cx="5763" cy="3921" r="5" fill="green" stroke="none" /><circle cx="5332" cy="4593" r="5" fill="green" stroke="none" /><circle cx="6446" cy="730" r="5" fill="green" stroke="none" /><circle cx="7189" cy="4161" r="5" fill="green" stroke="none" /><circle cx="4621" cy="928" r="5" fill="green" stroke="none" /><circle cx="8112" cy="2249" r="5" fill="green" stroke="none" /><circle cx="4324" cy="928" r="5" fill="green" stroke="none" /><circle cx="7676" cy="3374" r="5" fill="green" stroke="none" /><circle cx="1382" cy="4397" r="5" fill="green" stroke="none" /><circle cx="506" cy="2305" r="5" fill="green" stroke="none" /><circle cx="8630" cy="1550" r="5" fill="green" stroke="none" /><circle cx="5863" cy="5484" r="5" fill="green" stroke="none" /><circle cx="6089" cy="1741" r="5" fill="green" stroke="none" /><circle cx="7915" cy="4707" r="5" fill="green" stroke="none" /><circle cx="7756" cy="521" r="5" fill="green" stroke="none" /><circle cx="3948" cy="3298" r="5" fill="green" stroke="none" /><circle cx="3704" cy="1841" r="5" fill="green" stroke="none" /><circle cx="8212" cy="316" r="5" fill="green" stroke="none" /><circle cx="7499" cy="3007" r="5" fill="green" stroke="none" /><circle cx="5137" cy="2030" r="5" fill="green" stroke="none" /><circle cx="3427" cy="1256" r="5" fill="green" stroke="none" /><circle cx="1560" cy="5444" r="5" fill="green" stroke="none" /><circle cx="8261" cy="4213" r="5" fill="green" stroke="none" /><circle cx="6359" cy="1864" r="5" fill="green" stroke="none" /><circle cx="4900" cy="4964" r="5" fill="green" stroke="none" /><circle cx="5924" cy="4844" r="5" fill="green" stroke="none" /><circle cx="6243" cy="2449" r="5" fill="green" stroke="none" /><circle cx="8365" cy="2803" r="5" fill="green" stroke="none" /><circle cx="1228" cy="2971" r="5" fill="green" stroke="none" /><circle cx="1902" cy="831" r="5" fill="green" stroke="none" /><circle cx="93" cy="5444" r="5" fill="green" stroke="none" /><circle cx="1386" cy="770" r="5" fill="green" stroke="none" /><circle cx="7097" cy="113" r="5" fill="green" stroke="none" /><circle cx="7739" cy="2236" r="5" fill="green" stroke="none" /><circle cx="2453" cy="1973" r="5" fill="green" stroke="none" /><circle cx="2383" cy="879" r="5" fill="green" stroke="none" /><circle cx="3180" cy="3367" r="5" fill="green" stroke="none" /><circle cx="4225" cy="5415" r="5" fill="green" stroke="none" /><circle cx="6335" cy="3562" r="5" fill="green" stroke="none" /><circle cx="1466" cy="1029" r="5" fill="green" stroke="none" /><circle cx="7532" cy="2099" r="5" fill="green" stroke="none" /><circle cx="2298" cy="716" r="5" fill="green" stroke="none" /><circle cx="7997" cy="3515" r="5" fill="green" stroke="none" /><circle cx="2863" cy="50" r="5" fill="green" stroke="none" /><circle cx="7037" cy="1668" r="5" fill="green" stroke="none" /><circle cx="4179" cy="1173" r="5" fill="green" stroke="none" /><circle cx="500" cy="1493" r="5" fill="green" stroke="none" /><circle cx="1040" cy="1850" r="5" fill="green" stroke="none" /><circle cx="1862" cy="2667" r="5" fill="green" stroke="none" /><circle cx="1555" cy="1130" r="5" fill="green" stroke="none" /><circle cx="3664" cy="659" r="5" fill="green" stroke="none" /><circle cx="5261" cy="1232" r="5" fill="green" stroke="none" /><circle cx="1715" cy="2906" r="5" fill="green" stroke="none" /><circle cx="2858" cy="2312" r="5" fill="green" stroke="none" /><circle cx="721" cy="1820" r="5" fill="green" stroke="none" /><circle cx="8189" cy="3229" r="5" fill="green" stroke="none" /><circle cx="7707" cy="3192" r="5" fill="green" stroke="none" /><circle cx="6456" cy="751" r="5" fill="green" stroke="none" /><circle cx="5772" cy="3885" r="5" fill="green" stroke="none" /><circle cx="8871" cy="3738" r="5" fill="green" stroke="none" /><circle cx="6954" cy="4681" r="5" fill="green" stroke="none" /><circle cx="5302" cy="5581" r="5" fill="green" stroke="none" /><circle cx="7307" cy="804" r="5" fill="green" stroke="none" /><circle cx="5681" cy="1506" r="5" fill="green" stroke="none" /><circle cx="3978" cy="3665" r="5" fill="green" stroke="none" /><circle cx="2875" cy="1700" r="5" fill="green" stroke="none" /><circle cx="6441" cy="2319" r="5" fill="green" stroke="none" /><circle cx="1442" cy="543" r="5" fill="green" stroke="none" /><circle cx="3474" cy="852" r="5" fill="green" stroke="none" /><circle cx="695" cy="4429" r="5" fill="green" stroke="none" /><circle cx="233" cy="146" r="5" fill="green" stroke="none" /><circle cx="1643" cy="449" r="5" fill="green" stroke="none" /><circle cx="1049" cy="753" r="5" fill="green" stroke="none" /><circle cx="7007" cy="935" r="5" fill="green" stroke="none" /><circle cx="5897" cy="4192" r="5" fill="green" stroke="none" /><circle cx="6773" cy="3180" r="5" fill="green" stroke="none" /><circle cx="6296" cy="2169" r="5" fill="green" stroke="none" /><circle cx="403" cy="3761" r="5" fill="green" stroke="none" /><circle cx="1003" cy="1391" r="5" fill="green" stroke="none" /><circle cx="6956" cy="209" r="5" fill="green" stroke="none" /><circle cx="2403" cy="1659" r="5" fill="green" stroke="none" /><circle cx="6360" cy="5077" r="5" fill="green" stroke="none" /><circle cx="7392" cy="1118" r="5" fill="green" stroke="none" /><circle cx="3336" cy="4049" r="5" fill="green" stroke="none" /><circle cx="8332" cy="5000" r="5" fill="green" stroke="none" /><circle cx="1470" cy="1703" r="5" fill="green" stroke="none" /><circle cx="5006" cy="388" r="5" fill="green" stroke="none" /><circle cx="1273" cy="5625" r="5" fill="green" stroke="none" /><circle cx="7690" cy="1949" r="5" fill="green" stroke="none" /><circle cx="2102" cy="3189" r="5" fill="green" stroke="none" /><circle cx="1065" cy="3790" r="5" fill="green" stroke="none" /><circle cx="5648" cy="4324" r="5" fill="green" stroke="none" /><circle cx="5377" cy="5091" r="5" fill="green" stroke="none" /><circle cx="1050" cy="4801" r="5" fill="green" stroke="none" /><circle cx="220" cy="246" r="5" fill="green" stroke="none" /><circle cx="2594" cy="2390" r="5" fill="green" stroke="none" /><circle cx="2587" cy="3597" r="5" fill="green" stroke="none" /><circle cx="6863" cy="626" r="5" fill="green" stroke="none" /><circle cx="7290" cy="3462" r="5" fill="green" stroke="none" /><circle cx="1084" cy="775" r="5" fill="green" stroke="none" /><circle cx="2796" cy="1320" r="5" fill="green" stroke="none" /><circle cx="1572" cy="5222" r="5" fill="green" stroke="none" /><circle cx="8308" cy="2376" r="5" fill="green" stroke="none" /><circle cx="4851" cy="2926" r="5" fill="green" stroke="none" /><circle cx="7580" cy="1811" r="5" fill="green" stroke="none" /><circle cx="258" cy="3400" r="5" fill="green" stroke="none" /><circle cx="6792" cy="1935" r="5" fill="green" stroke="none" /><circle cx="4173" cy="2009" r="5" fill="green" stroke="none" /><circle cx="1238" cy="4169" r="5" fill="green" stroke="none" /><circle cx="1962" cy="1699" r="5" fill="green" stroke="none" /><circle cx="6228" cy="3516" r="5" fill="green" stroke="none" /><circle cx="8844" cy="4476" r="5" fill="green" stroke="none" /><circle cx="7203" cy="5547" r="5" fill="green" stroke="none" /><circle cx="1612" cy="4058" r="5" fill="green" stroke="none" /><circle cx="8165" cy="872" r="5" fill="green" stroke="none" /><circle cx="708" cy="1521" r="5" fill="green" stroke="none" /><circle cx="4041" cy="847" r="5" fill="green" stroke="none" /><circle cx="6501" cy="4552" r="5" fill="green" stroke="none" /><circle cx="4051" cy="2260" r="5" fill="green" stroke="none" /><circle cx="4768" cy="4983" r="5" fill="green" stroke="none" /><circle cx="3545" cy="961" r="5" fill="green" stroke="none" /><circle cx="4884" cy="1568" r="5" fill="green" stroke="none" /><circle cx="1438" cy="3810" r="5" fill="green" stroke="none" /><circle cx="3446" cy="4010" r="5" fill="green" stroke="none" /><circle cx="1396" cy="1790" r="5" fill="green" stroke="none" /><circle cx="7309" cy="4433" r="5" fill="green" stroke="none" /><circle cx="399" cy="2312" r="5" fill="green" stroke="none" /><circle cx="4204" cy="3425" r="5" fill="green" stroke="none" /><circle cx="1336" cy="1942" r="5" fill="green" stroke="none" /><circle cx="6228" cy="1596" r="5" fill="green" stroke="none" /><circle cx="80" cy="961" r="5" fill="green" stroke="none" /><circle cx="5010" cy="3887" r="5" fill="green" stroke="none" /><circle cx="7480" cy="1724" r="5" fill="green" stroke="none" /><circle cx="8348" cy="5348" r="5" fill="green" stroke="none" /><circle cx="5122" cy="1144" r="5" fill="green" stroke="none" /><circle cx="4317" cy="4004" r="5" fill="green" stroke="none" /><circle cx="6407" cy="2781" r="5" fill="green" stroke="none" /><circle cx="4783" cy="4571" r="5" fill="green" stroke="none" /><circle cx="4105" cy="1213" r="5" fill="green" stroke="none" /><circle cx="4217" cy="2542" r="5" fill="green" stroke="none" /><circle cx="4338" cy="20" r="5" fill="green" stroke="none" /><circle cx="223" cy="4378" r="5" fill="green" stroke="none" /><circle cx="7797" cy="1149" r="5" fill="green" stroke="none" /><circle cx="2978" cy="1576" r="5" fill="green" stroke="none" /><circle cx="4850" cy="1640" r="5" fill="green" stroke="none" /><circle cx="6940" cy="2239" r="5" fill="green" stroke="none" /><circle cx="4274" cy="2098" r="5" fill="green" stroke="none" /><circle cx="3244" cy="4182" r="5" fill="green" stroke="none" /><circle cx="1864" cy="3138" r="5" fill="green" stroke="none" /><circle cx="4619" cy="5584" r="5" fill="green" stroke="none" /><circle cx="853" cy="543" r="5" fill="green" stroke="none" /><circle cx="1135" cy="4620" r="5" fill="green" stroke="none" /><circle cx="3534" cy="4268" r="5" fill="green" stroke="none" /><circle cx="4307" cy="2051" r="5" fill="green" stroke="none" /><circle cx="2033" cy="3519" r="5" fill="green" stroke="none" /><circle cx="5411" cy="3791" r="5" fill="green" stroke="none" /><circle cx="4872" cy="2690" r="5" fill="green" stroke="none" /><circle cx="5453" cy="2159" r="5" fill="green" stroke="none" /><circle cx="1662" cy="78" r="5" fill="green" stroke="none" /><circle cx="1201" cy="262" r="5" fill="green" stroke="none" /><circle cx="1008" cy="4066" r="5" fill="green" stroke="none" /><circle cx="4950" cy="697" r="5" fill="green" stroke="none" /><circle cx="362" cy="5233" r="5" fill="green" stroke="none" /><circle cx="2571" cy="467" r="5" fill="green" stroke="none" /><circle cx="5340" cy="1250" r="5" fill="green" stroke="none" /><circle cx="5592" cy="2194" r="5" fill="green" stroke="none" /><circle cx="7907" cy="5069" r="5" fill="green" stroke="none" /><circle cx="7902" cy="4192" r="5" fill="green" stroke="none" /><circle cx="8449" cy="1222" r="5" fill="green" stroke="none" /><circle cx="7310" cy="4283" r="5" fill="green" stroke="none" /><circle cx="6613" cy="4739" r="5" fill="green" stroke="none" /><circle cx="7776" cy="2385" r="5" fill="green" stroke="none" /><circle cx="6546" cy="669" r="5" fill="green" stroke="none" /><circle cx="3498" cy="1593" r="5" fill="green" stroke="none" /><circle cx="1747" cy="2769" r="5" fill="green" stroke="none" /><circle cx="7415" cy="2210" r="5" fill="green" stroke="none" /><circle cx="4458" cy="2920" r="5" fill="green" stroke="none" /><circle cx="1159" cy="994" r="5" fill="green" stroke="none" /><circle cx="8580" cy="866" r="5" fill="green" stroke="none" /><circle cx="765" cy="1302" r="5" fill="green" stroke="none" /><circle cx="8671" cy="2599" r="5" fill="green" stroke="none" /><circle cx="7037" cy="5095" r="5" fill="green" stroke="none" /><circle cx="2679" cy="3264" r="5" fill="green" stroke="none" /><circle cx="552" cy="4156" r="5" fill="green" stroke="none" /><circle cx="98" cy="183" r="5" fill="green" stroke="none" /><circle cx="4029" cy="4786" r="5" fill="green" stroke="none" /><circle cx="346" cy="2236" r="5" fill="green" stroke="none" /><circle cx="1507" cy="4406" r="5" fill="green" stroke="none" /><circle cx="685" cy="5013" r="5" fill="green" stroke="none" /><circle cx="767" cy="1208" r="5" fill="green" stroke="none" /><circle cx="8189" cy="3869" r="5" fill="green" stroke="none" /><circle cx="5045" cy="4946" r="5" fill="green" stroke="none" /><circle cx="5277" cy="707" r="5" fill="green" stroke="none" /><circle cx="1708" cy="4953" r="5" fill="green" stroke="none" /><circle cx="4727" cy="1373" r="5" fill="green" stroke="none" /><circle cx="5926" cy="1248" r="5" fill="green" stroke="none" /><circle cx="4861" cy="4969" r="5" fill="green" stroke="none" /><circle cx="8609" cy="5432" r="5" fill="green" stroke="none" /><circle cx="1977" cy="1815" r="5" fill="green" stroke="none" /><circle cx="5496" cy="963" r="5" fill="green" stroke="none" /><circle cx="8864" cy="2061" r="5" fill="green" stroke="none" /><circle cx="8342" cy="746" r="5" fill="green" stroke="none" /><circle cx="4980" cy="3627" r="5" fill="green" stroke="none" /><circle cx="8479" cy="3274" r="5" fill="green" stroke="none" /><circle cx="1553" cy="3742" r="5" fill="green" stroke="none" /><circle cx="2107" cy="3998" r="5" fill="green" stroke="none" /><circle cx="4429" cy="215" r="5" fill="green" stroke="none" /><circle cx="2758" cy="768" r="5" fill="green" stroke="none" /><circle cx="4569" cy="4620" r="5" fill="green" stroke="none" /><circle cx="6051" cy="367" r="5" fill="green" stroke="none" /><circle cx="4580" cy="4510" r="5" fill="green" stroke="none" /><circle cx="1825" cy="3092" r="5" fill="green" stroke="none" /><circle cx="963" cy="5161" r="5" fill="green" stroke="none" /><circle cx="4489" cy="1793" r="5" fill="green" stroke="none" /><circle cx="2515" cy="2952" r="5" fill="green" stroke="none" /><circle cx="184" cy="1566" r="5" fill="green" stroke="none" /><circle cx="2316" cy="2217" r="5" fill="green" stroke="none" /><circle cx="2825" cy="2611" r="5" fill="green" stroke="none" /><circle cx="5710" cy="607" r="5" fill="green" stroke="none" /><circle cx="3794" cy="2936" r="5" fill="green" stroke="none" /><circle cx="6266" cy="829" r="5" fill="green" stroke="none" /><circle cx="3097" cy="3404" r="5" fill="green" stroke="none" /><circle cx="3794" cy="1834" r="5" fill="green" stroke="none" /><circle cx="4783" cy="2014" r="5" fill="green" stroke="none" /><circle cx="296" cy="2206" r="5" fill="green" stroke="none" /><circle cx="7208" cy="5401" r="5" fill="green" stroke="none" /><circle cx="6962" cy="1617" r="5" fill="green" stroke="none" /><circle cx="7396" cy="2805" r="5" fill="green" stroke="none" /><circle cx="6641" cy="2528" r="5" fill="green" stroke="none" /><circle cx="3538" cy="3562" r="5" fill="green" stroke="none" /><circle cx="165" cy="3082" r="5" fill="green" stroke="none" /><circle cx="4279" cy="3975" r="5" fill="green" stroke="none" /><circle cx="635" cy="3884" r="5" fill="green" stroke="none" /><circle cx="5649" cy="4777" r="5" fill="green" stroke="none" /><circle cx="6565" cy="1620" r="5" fill="green" stroke="none" /><circle cx="3574" cy="2752" r="5" fill="green" stroke="none" /><circle cx="5768" cy="4105" r="5" fill="green" stroke="none" /><circle cx="7651" cy="1057" r="5" fill="green" stroke="none" /><circle cx="566" cy="3732" r="5" fill="green" stroke="none" /><circle cx="5799" cy="102" r="5" fill="green" stroke="none" /><circle cx="1669" cy="5143" r="5" fill="green" stroke="none" /><circle cx="5038" cy="1896" r="5" fill="green" stroke="none" /><circle cx="5885" cy="4751" r="5" fill="green" stroke="none" /><circle cx="5460" cy="3493" r="5" fill="green" stroke="none" /><circle cx="7756" cy="660" r="5" fill="green" stroke="none" /><circle cx="1751" cy="4323" r="5" fill="green" stroke="none" /><circle cx="7710" cy="1691" r="5" fill="green" stroke="none" /><circle cx="5765" cy="3876" r="5" fill="green" stroke="none" /><circle cx="6851" cy="2869" r="5" fill="green" stroke="none" /><circle cx="7444" cy="3136" r="5" fill="green" stroke="none" /><circle cx="6326" cy="4933" r="5" fill="green" stroke="none" /><circle cx="354" cy="2032" r="5" fill="green" stroke="none" /><circle cx="1517" cy="3922" r="5" fill="green" stroke="none" /><circle cx="6465" cy="543" r="5" fill="green" stroke="none" /></svg>