<svg viewBox="0 0 8085 3225" xmlns="http://www.w3.org/2000/svg"><rect x="0" y="0" width="8085" height="3225" fill="lightyellow" stroke="none "/><rect x="6032" y="1349" width="1489" height="596" fill="white" stroke="black "/><circle cx="2889" cy="1752" r="5" fill="green" stroke="none" /><circle cx="4486" cy="2419" r="5" fill="green" stroke="none" /><circle cx="7310" cy="1168" r="5" fill="green" stroke="none" /><circle cx="3159" cy="1809" r="5" fill="green" stroke="none" /><circle cx="5871" cy="3013" r="5" fill="green" stroke="none" /><circle cx="3080" cy="1948" r="5" fill="green" stroke="none" /><circle cx="6855" cy="1178" r="5" fill="green" stroke="none" /><circle cx="2419" cy="1206" r="5" fill="green" stroke="none" /><circle cx="6225" cy="1039" r="5" fill="green" stroke="none" /><circle cx="4353" cy="1361" r="5" fill="green" stroke="none" /><circle cx="6896" cy="2280" r="5" fill="green" stroke="none" /><circle cx="4899" cy="3032" r="5" fill="green" stroke="none" /><circle cx="5980" cy="144" r="5" fill="green" stroke="none" /><circle cx="3760" cy="972" r="5" fill="green" stroke="none" /><circle cx="5925" cy="2849" r="5" fill="green" stroke="none" /><circle cx="1212" cy="540" r="5" fill="green" stroke="none" /><circle cx="1837" cy="1210" r="5" fill="green" stroke="none" /><circle cx="2354" cy="3123" r="5" fill="green" stroke="none" /><circle cx="4777" cy="814" r="5" fill="green" stroke="none" /><circle cx="3978" cy="2230" r="5" fill="green" stroke="none" /><circle cx="5871" cy="2523" r="5" fill="green" stroke="none" /><circle cx="3892" cy="2400" r="5" fill="green" stroke="none" /><circle cx="1740" cy="1608" r="5" fill="green" stroke="none" /><circle cx="6385" cy="282" r="5" fill="green" stroke="none" /><circle cx="7427" cy="2072" r="5" fill="green" stroke="none" /><circle cx="5178" cy="1234" r="5" fill="green" stroke="none" /><circle cx="5207" cy="29" r="5" fill="green" stroke="none" /><circle cx="7299" cy="2764" r="5" fill="green" stroke="none" /><circle cx="5979" cy="1342" r="5" fill="green" stroke="none" /><circle cx="1924" cy="788" r="5" fill="green" stroke="none" /><circle cx="4316" cy="1479" r="5" fill="green" stroke="none" /><circle cx="5310" cy="683" r="5" fill="green" stroke="none" /><circle cx="6133" cy="207" r="5" fill="green" stroke="none" /><circle cx="4661" cy="2160" r="5" fill="green" stroke="none" /><circle cx="2418" cy="2902" r="5" fill="green" stroke="none" /><circle cx="2207" cy="2764" r="5" fill="green" stroke="none" /><circle cx="5107" cy="3131" r="5" fill="green" stroke="none" /><circle cx="5553" cy="2483" r="5" fill="green" stroke="none" /><circle cx="3664" cy="3131" r="5" fill="green" stroke="none" /><circle cx="2618" cy="1390" r="5" fill="green" stroke="none" /><circle cx="5392" cy="2445" r="5" fill="green" stroke="none" /><circle cx="1976" cy="2531" r="5" fill="green" stroke="none" /><circle cx="4575" cy="3149" r="5" fill="green" stroke="none" /><circle cx="1755" cy="1410" r="5" fill="green" stroke="none" /><circle cx="2221" cy="2401" r="5" fill="green" stroke="none" /><circle cx="4644" cy="2440" r="5" fill="green" stroke="none" /><circle cx="4567" cy="145" r="5" fill="green" stroke="none" /><circle cx="1034" cy="3096" r="5" fill="green" stroke="none" /><circle cx="7407" cy="723" r="5" fill="green" stroke="none" /><circle cx="7373" cy="727" r="5" fill="green" stroke="none" /><circle cx="2430" cy="1200" r="5" fill="green" stroke="none" /><circle cx="2580" cy="1193" r="5" fill="green" stroke="none" /><circle cx="1295" cy="1683" r="5" fill="green" stroke="none" /><circle cx="7859" cy="2309" r="5" fill="green" stroke="none" /><circle cx="7500" cy="1268" r="5" fill="green" stroke="none" /><circle cx="8046" cy="325" r="5" fill="green" stroke="none" /><circle cx="2909" cy="2167" r="5" fill="green" stroke="none" /><circle cx="4809" cy="2676" r="5" fill="green" stroke="none" /><circle cx="2487" cy="852" r="5" fill="green" stroke="none" /><circle cx="7552" cy="1364" r="5" fill="green" stroke="none" /><circle cx="8019" cy="2690" r="5" fill="green" stroke="none" /><circle cx="5235" cy="2446" r="5" fill="green" stroke="none" /><circle cx="6855" cy="633" r="5" fill="green" stroke="none" /><circle cx="1961" cy="1363" r="5" fill="green" stroke="none" /><circle cx="6974" cy="1113" r="5" fill="green" stroke="none" /><circle cx="3475" cy="478" r="5" fill="green" stroke="none" /><circle cx="5808" cy="1184" r="5" fill="green" stroke="none" /><circle cx="1680" cy="1085" r="5" fill="green" stroke="none" /><circle cx="2616" cy="908" r="5" fill="green" stroke="none" /><circle cx="2149" cy="1314" r="5" fill="green" stroke="none" /><circle cx="2873" cy="1171" r="5" fill="green" stroke="none" /><circle cx="8079" cy="609" r="5" fill="green" stroke="none" /><circle cx="7443" cy="403" r="5" fill="green" stroke="none" /><circle cx="5" cy="1644" r="5" fill="green" stroke="none" /><circle cx="4745" cy="2037" r="5" fill="green" stroke="none" /><circle cx="7519" cy="2583" r="5" fill="green" stroke="none" /><circle cx="5887" cy="2505" r="5" fill="green" stroke="none" /><circle cx="2312" cy="1212" r="5" fill="green" stroke="none" /><circle cx="2384" cy="2676" r="5" fill="green" stroke="none" /><circle cx="1591" cy="2442" r="5" fill="green" stroke="none" /><circle cx="7645" cy="3038" r="5" fill="green" stroke="none" /><circle cx="3641" cy="219" r="5" fill="green" stroke="none" /><circle cx="6468" cy="1298" r="5" fill="green" stroke="none" /><circle cx="4661" cy="1762" r="5" fill="green" stroke="none" /><circle cx="1038" cy="1604" r="5" fill="green" stroke="none" /><circle cx="5247" cy="1111" r="5" fill="green" stroke="none" /><circle cx="4817" cy="555" r="5" fill="green" stroke="none" /><circle cx="1971" cy="466" r="5" fill="green" stroke="none" /><circle cx="6379" cy="731" r="5" fill="green" stroke="none" /><circle cx="1802" cy="71" r="5" fill="green" stroke="none" /><circle cx="4921" cy="1004" r="5" fill="green" stroke="none" /><circle cx="1260" cy="1933" r="5" fill="green" stroke="none" /><circle cx="4052" cy="3190" r="5" fill="green" stroke="none" /><circle cx="7085" cy="2544" r="5" fill="green" stroke="none" /><circle cx="5509" cy="919" r="5" fill="green" stroke="none" /><circle cx="5359" cy="2417" r="5" fill="green" stroke="none" /><circle cx="2931" cy="2013" r="5" fill="green" stroke="none" /><circle cx="7997" cy="402" r="5" fill="green" stroke="none" /><circle cx="7523" cy="1693" r="5" fill="green" stroke="none" /><circle cx="955" cy="119" r="5" fill="green" stroke="none" /><circle cx="6858" cy="2407" r="5" fill="green" stroke="none" /><circle cx="4649" cy="2674" r="5" fill="green" stroke="none" /><circle cx="2642" cy="842" r="5" fill="green" stroke="none" /><circle cx="2548" cy="16" r="5" fill="green" stroke="none" /><circle cx="3423" cy="2661" r="5" fill="green" stroke="none" /><circle cx="4382" cy="1437" r="5" fill="green" stroke="none" /><circle cx="3268" cy="469" r="5" fill="green" stroke="none" /><circle cx="7940" cy="3117" r="5" fill="green" stroke="none" /><circle cx="6018" cy="2321" r="5" fill="green" stroke="none" /><circle cx="1643" cy="942" r="5" fill="green" stroke="none" /><circle cx="2911" cy="1781" r="5" fill="green" stroke="none" /><circle cx="3744" cy="2343" r="5" fill="green" stroke="none" /><circle cx="1991" cy="1604" r="5" fill="green" stroke="none" /><circle cx="2911" cy="2270" r="5" fill="green" stroke="none" /><circle cx="4373" cy="2859" r="5" fill="green" stroke="none" /><circle cx="1101" cy="486" r="5" fill="green" stroke="none" /><circle cx="817" cy="2534" r="5" fill="green" stroke="none" /><circle cx="1216" cy="2912" r="5" fill="green" stroke="none" /><circle cx="6887" cy="1030" r="5" fill="green" stroke="none" /><circle cx="8069" cy="2273" r="5" fill="green" stroke="none" /><circle cx="3503" cy="42" r="5" fill="green" stroke="none" /><circle cx="3515" cy="465" r="5" fill="green" stroke="none" /><circle cx="69" cy="2291" r="5" fill="green" stroke="none" /><circle cx="1839" cy="1037" r="5" fill="green" stroke="none" /><circle cx="1076" cy="2722" r="5" fill="green" stroke="none" /><circle cx="5721" cy="2154" r="5" fill="green" stroke="none" /><circle cx="6647" cy="1001" r="5" fill="green" stroke="none" /><circle cx="3099" cy="1376" r="5" fill="green" stroke="none" /><circle cx="4692" cy="3187" r="5" fill="green" stroke="none" /><circle cx="7802" cy="3158" r="5" fill="green" stroke="none" /><circle cx="862" cy="2607" r="5" fill="green" stroke="none" /><circle cx="1534" cy="413" r="5" fill="green" stroke="none" /><circle cx="3188" cy="799" r="5" fill="green" stroke="none" /><circle cx="8014" cy="1634" r="5" fill="green" stroke="none" /><circle cx="4952" cy="1336" r="5" fill="green" stroke="none" /><circle cx="1411" cy="2777" r="5" fill="green" stroke="none" /><circle cx="7432" cy="448" r="5" fill="green" stroke="none" /><circle cx="7502" cy="2573" r="5" fill="green" stroke="none" /><circle cx="1790" cy="1977" r="5" fill="green" stroke="none" /><circle cx="4576" cy="1904" r="5" fill="green" stroke="none" /><circle cx="5098" cy="735" r="5" fill="green" stroke="none" /><circle cx="110" cy="1613" r="5" fill="green" stroke="none" /><circle cx="4983" cy="2933" r="5" fill="green" stroke="none" /><circle cx="5245" cy="2056" r="5" fill="green" stroke="none" /><circle cx="5569" cy="3131" r="5" fill="green" stroke="none" /><circle cx="6309" cy="2261" r="5" fill="green" stroke="none" /><circle cx="4915" cy="3210" r="5" fill="green" stroke="none" /><circle cx="1299" cy="3001" r="5" fill="green" stroke="none" /><circle cx="547" cy="2832" r="5" fill="green" stroke="none" /><circle cx="1852" cy="2236" r="5" fill="green" stroke="none" /><circle cx="7538" cy="869" r="5" fill="green" stroke="none" /><circle cx="1956" cy="2359" r="5" fill="green" stroke="none" /><circle cx="724" cy="399" r="5" fill="green" stroke="none" /><circle cx="2439" cy="12" r="5" fill="green" stroke="none" /><circle cx="777" cy="350" r="5" fill="green" stroke="none" /><circle cx="7706" cy="360" r="5" fill="green" stroke="none" /><circle cx="6733" cy="757" r="5" fill="green" stroke="none" /><circle cx="3628" cy="2927" r="5" fill="green" stroke="none" /><circle cx="2956" cy="2292" r="5" fill="green" stroke="none" /><circle cx="7568" cy="1888" r="5" fill="green" stroke="none" /><circle cx="2389" cy="1861" r="5" fill="green" stroke="none" /><circle cx="7042" cy="3119" r="5" fill="green" stroke="none" /><circle cx="5101" cy="2078" r="5" fill="green" stroke="none" /><circle cx="4871" cy="620" r="5" fill="green" stroke="none" /><circle cx="7088" cy="62" r="5" fill="green" stroke="none" /><circle cx="7533" cy="2385" r="5" fill="green" stroke="none" /><circle cx="6170" cy="672" r="5" fill="green" stroke="none" /><circle cx="4273" cy="3110" r="5" fill="green" stroke="none" /><circle cx="6365" cy="2355" r="5" fill="green" stroke="none" /><circle cx="2321" cy="2945" r="5" fill="green" stroke="none" /><circle cx="2526" cy="2017" r="5" fill="green" stroke="none" /><circle cx="5231" cy="2208" r="5" fill="green" stroke="none" /><circle cx="3386" cy="883" r="5" fill="green" stroke="none" /><circle cx="3343" cy="2647" r="5" fill="green" stroke="none" /><circle cx="7301" cy="2694" r="5" fill="green" stroke="none" /><circle cx="5338" cy="297" r="5" fill="green" stroke="none" /><circle cx="6413" cy="2199" r="5" fill="green" stroke="none" /><circle cx="4618" cy="3138" r="5" fill="green" stroke="none" /><circle cx="2744" cy="912" r="5" fill="green" stroke="none" /><circle cx="4681" cy="724" r="5" fill="green" stroke="none" /><circle cx="5701" cy="3110" r="5" fill="green" stroke="none" /><circle cx="6048" cy="2298" r="5" fill="green" stroke="none" /><circle cx="387" cy="3176" r="5" fill="green" stroke="none" /><circle cx="2524" cy="547" r="5" fill="green" stroke="none" /><circle cx="7288" cy="2302" r="5" fill="green" stroke="none" /><circle cx="4460" cy="1785" r="5" fill="green" stroke="none" /><circle cx="7255" cy="2840" r="5" fill="green" stroke="none" /><circle cx="7708" cy="92" r="5" fill="green" stroke="none" /><circle cx="5518" cy="722" r="5" fill="green" stroke="none" /><circle cx="7261" cy="1009" r="5" fill="green" stroke="none" /><circle cx="3959" cy="741" r="5" fill="green" stroke="none" /><circle cx="7753" cy="193" r="5" fill="green" stroke="none" /><circle cx="1310" cy="771" r="5" fill="green" stroke="none" /><circle cx="5772" cy="2657" r="5" fill="green" stroke="none" /><circle cx="84" cy="2190" r="5" fill="green" stroke="none" /><circle cx="4404" cy="1038" r="5" fill="green" stroke="none" /><circle cx="1181" cy="2823" r="5" fill="green" stroke="none" /><circle cx="2055" cy="1054" r="5" fill="green" stroke="none" /><circle cx="5418" cy="1" r="5" fill="green" stroke="none" /><circle cx="7721" cy="2108" r="5" fill="green" stroke="none" /><circle cx="963" cy="998" r="5" fill="green" stroke="none" /><circle cx="507" cy="2496" r="5" fill="green" stroke="none" /><circle cx="7562" cy="2967" r="5" fill="green" stroke="none" /><circle cx="5634" cy="2081" r="5" fill="green" stroke="none" /><circle cx="5774" cy="2808" r="5" fill="green" stroke="none" /><circle cx="4456" cy="2565" r="5" fill="green" stroke="none" /><circle cx="2666" cy="1281" r="5" fill="green" stroke="none" /><circle cx="7828" cy="1636" r="5" fill="green" stroke="none" /><circle cx="1834" cy="1481" r="5" fill="green" stroke="none" /><circle cx="4181" cy="1120" r="5" fill="green" stroke="none" /><circle cx="3285" cy="3086" r="5" fill="green" stroke="none" /><circle cx="7624" cy="1073" r="5" fill="green" stroke="none" /><circle cx="6340" cy="2019" r="5" fill="green" stroke="none" /><circle cx="2981" cy="2146" r="5" fill="green" stroke="none" /><circle cx="140" cy="2603" r="5" fill="green" stroke="none" /><circle cx="5165" cy="1551" r="5" fill="green" stroke="none" /><circle cx="5587" cy="1087" r="5" fill="green" stroke="none" /><circle cx="6048" cy="2578" r="5" fill="green" stroke="none" /><circle cx="1611" cy="1885" r="5" fill="green" stroke="none" /><circle cx="1817" cy="1810" r="5" fill="green" stroke="none" /><circle cx="1911" cy="828" r="5" fill="green" stroke="none" /><circle cx="2297" cy="444" r="5" fill="green" stroke="none" /><circle cx="4448" cy="279" r="5" fill="green" stroke="none" /><circle cx="7123" cy="428" r="5" fill="green" stroke="none" /><circle cx="2005" cy="394" r="5" fill="green" stroke="none" /><circle cx="5086" cy="802" r="5" fill="green" stroke="none" /><circle cx="4764" cy="2577" r="5" fill="green" stroke="none" /><circle cx="2797" cy="291" r="5" fill="green" stroke="none" /><circle cx="22" cy="258" r="5" fill="green" stroke="none" /><circle cx="1178" cy="3040" r="5" fill="green" stroke="none" /><circle cx="3769" cy="3099" r="5" fill="green" stroke="none" /><circle cx="7279" cy="647" r="5" fill="green" stroke="none" /><circle cx="2485" cy="1176" r="5" fill="green" stroke="none" /><circle cx="3937" cy="1309" r="5" fill="green" stroke="none" /><circle cx="1212" cy="915" r="5" fill="green" stroke="none" /><circle cx="7374" cy="388" r="5" fill="green" stroke="none" /><circle cx="626" cy="549" r="5" fill="green" stroke="none" /><circle cx="3118" cy="2894" r="5" fill="green" stroke="none" /><circle cx="3662" cy="941" r="5" fill="green" stroke="none" /><circle cx="3594" cy="3171" r="5" fill="green" stroke="none" /><circle cx="2928" cy="2461" r="5" fill="green" stroke="none" /><circle cx="6014" cy="1353" r="5" fill="green" stroke="none" /><circle cx="2187" cy="2833" r="5" fill="green" stroke="none" /><circle cx="1937" cy="1065" r="5" fill="green" stroke="none" /><circle cx="2945" cy="971" r="5" fill="green" stroke="none" /><circle cx="1425" cy="2627" r="5" fill="green" stroke="none" /><circle cx="5811" cy="2889" r="5" fill="green" stroke="none" /><circle cx="1569" cy="2770" r="5" fill="green" stroke="none" /><circle cx="4580" cy="1416" r="5" fill="green" stroke="none" /><circle cx="5784" cy="91" r="5" fill="green" stroke="none" /><circle cx="1370" cy="991" r="5" fill="green" stroke="none" /><circle cx="239" cy="2134" r="5" fill="green" stroke="none" /><circle cx="1702" cy="2085" r="5" fill="green" stroke="none" /><circle cx="5540" cy="1136" r="5" fill="green" stroke="none" /><circle cx="6197" cy="271" r="5" fill="green" stroke="none" /><circle cx="1234" cy="66" r="5" fill="green" stroke="none" /><circle cx="2275" cy="756" r="5" fill="green" stroke="none" /><circle cx="2900" cy="1945" r="5" fill="green" stroke="none" /><circle cx="1396" cy="3098" r="5" fill="green" stroke="none" /><circle cx="726" cy="2011" r="5" fill="green" stroke="none" /><circle cx="3066" cy="2260" r="5" fill="green" stroke="none" /><circle cx="7556" cy="2951" r="5" fill="green" stroke="none" /><circle cx="4704" cy="80" r="5" fill="green" stroke="none" /><circle cx="7014" cy="589" r="5" fill="green" stroke="none" /><circle cx="5579" cy="2185" r="5" fill="green" stroke="none" /><circle cx="2275" cy="1401" r="5" fill="green" stroke="none" /><circle cx="196" cy="1965" r="5" fill="green" stroke="none" /><circle cx="6448" cy="694" r="5" fill="green" stroke="none" /><circle cx="7290" cy="770" r="5" fill="green" stroke="none" /><circle cx="5448" cy="2868" r="5" fill="green" stroke="none" /><circle cx="5526" cy="963" r="5" fill="green" stroke="none" /><circle cx="231" cy="2673" r="5" fill="green" stroke="none" /><circle cx="3361" cy="1824" r="5" fill="green" stroke="none" /><circle cx="5958" cy="1209" r="5" fill="green" stroke="none" /><circle cx="5284" cy="1386" r="5" fill="green" stroke="none" /><circle cx="5285" cy="737" r="5" fill="green" stroke="none" /><circle cx="3454" cy="355" r="5" fill="green" stroke="none" /><circle cx="5491" cy="583" r="5" fill="green" stroke="none" /><circle cx="5665" cy="2388" r="5" fill="green" stroke="none" /><circle cx="1838" cy="1821" r="5" fill="green" stroke="none" /><circle cx="2155" cy="3079" r="5" fill="green" stroke="none" /><circle cx="1442" cy="1592" r="5" fill="green" stroke="none" /><circle cx="985" cy="1312" r="5" fill="green" stroke="none" /><circle cx="6077" cy="672" r="5" fill="green" stroke="none" /><circle cx="3999" cy="1219" r="5" fill="green" stroke="none" /><circle cx="62" cy="1437" r="5" fill="green" stroke="none" /><circle cx="7080" cy="2672" r="5" fill="green" stroke="none" /><circle cx="4626" cy="2659" r="5" fill="green" stroke="none" /><circle cx="2874" cy="709" r="5" fill="green" stroke="none" /><circle cx="1269" cy="1312" r="5" fill="green" stroke="none" /><circle cx="2336" cy="1855" r="5" fill="green" stroke="none" /><circle cx="3449" cy="3225" r="5" fill="green" stroke="none" /><circle cx="4805" cy="1538" r="5" fill="green" stroke="none" /><circle cx="1376" cy="1407" r="5" fill="green" stroke="none" /><circle cx="6119" cy="3071" r="5" fill="green" stroke="none" /><circle cx="4588" cy="2928" r="5" fill="green" stroke="none" /><circle cx="3084" cy="496" r="5" fill="green" stroke="none" /><circle cx="1482" cy="2863" r="5" fill="green" stroke="none" /><circle cx="2472" cy="2341" r="5" fill="green" stroke="none" /><circle cx="7487" cy="886" r="5" fill="green" stroke="none" /><circle cx="744" cy="367" r="5" fill="green" stroke="none" /><circle cx="3645" cy="1539" r="5" fill="green" stroke="none" /><circle cx="4302" cy="2360" r="5" fill="green" stroke="none" /><circle cx="2511" cy="3101" r="5" fill="green" stroke="none" /><circle cx="2509" cy="215" r="5" fill="green" stroke="none" /><circle cx="6694" cy="702" r="5" fill="green" stroke="none" /><circle cx="230" cy="2687" r="5" fill="green" stroke="none" /><circle cx="2927" cy="2283" r="5" fill="green" stroke="none" /><circle cx="3746" cy="152" r="5" fill="green" stroke="none" /><circle cx="3604" cy="947" r="5" fill="green" stroke="none" /><circle cx="3358" cy="2063" r="5" fill="green" stroke="none" /><circle cx="1103" cy="971" r="5" fill="green" stroke="none" /><circle cx="773" cy="1158" r="5" fill="green" stroke="none" /><circle cx="5033" cy="2702" r="5" fill="green" stroke="none" /><circle cx="4796" cy="155" r="5" fill="green" stroke="none" /><circle cx="2836" cy="1862" r="5" fill="green" stroke="none" /><circle cx="2721" cy="2760" r="5" fill="green" stroke="none" /><circle cx="4890" cy="2937" r="5" fill="green" stroke="none" /><circle cx="2362" cy="2380" r="5" fill="green" stroke="none" /><circle cx="7866" cy="118" r="5" fill="green" stroke="none" /><circle cx="3909" cy="725" r="5" fill="green" stroke="none" /><circle cx="469" cy="1048" r="5" fill="green" stroke="none" /><circle cx="1721" cy="2533" r="5" fill="green" stroke="none" /><circle cx="5175" cy="2457" r="5" fill="green" stroke="none" /><circle cx="4747" cy="3105" r="5" fill="green" stroke="none" /><circle cx="2348" cy="567" r="5" fill="green" stroke="none" /><circle cx="6850" cy="932" r="5" fill="green" stroke="none" /><circle cx="6692" cy="669" r="5" fill="green" stroke="none" /><circle cx="4337" cy="771" r="5" fill="green" stroke="none" /><circle cx="5452" cy="1519" r="5" fill="green" stroke="none" /><circle cx="7821" cy="232" r="5" fill="green" stroke="none" /><circle cx="5908" cy="1940" r="5" fill="green" stroke="none" /><circle cx="4429" cy="2795" r="5" fill="green" stroke="none" /><circle cx="5691" cy="1248" r="5" fill="green" stroke="none" /><circle cx="2474" cy="1310" r="5" fill="green" stroke="none" /><circle cx="5282" cy="2642" r="5" fill="green" stroke="none" /><circle cx="2949" cy="2993" r="5" fill="green" stroke="none" /><circle cx="2098" cy="812" r="5" fill="green" stroke="none" /><circle cx="5409" cy="1549" r="5" fill="green" stroke="none" /><circle cx="650" cy="1126" r="5" fill="green" stroke="none" /><circle cx="7807" cy="586" r="5" fill="green" stroke="none" /><circle cx="2375" cy="218" r="5" fill="green" stroke="none" /><circle cx="471" cy="1017" r="5" fill="green" stroke="none" /><circle cx="7906" cy="120" r="5" fill="green" stroke="none" /><circle cx="7204" cy="663" r="5" fill="green" stroke="none" /><circle cx="7215" cy="550" r="5" fill="green" stroke="none" /><circle cx="1179" cy="1909" r="5" fill="green" stroke="none" /><circle cx="3646" cy="2906" r="5" fill="green" stroke="none" /><circle cx="4241" cy="2779" r="5" fill="green" stroke="none" /><circle cx="4112" cy="731" r="5" fill="green" stroke="none" /><circle cx="424" cy="737" r="5" fill="green" stroke="none" /><circle cx="300" cy="1661" r="5" fill="green" stroke="none" /><circle cx="6827" cy="468" r="5" fill="green" stroke="none" /><circle cx="5254" cy="1836" r="5" fill="green" stroke="none" /><circle cx="4886" cy="461" r="5" fill="green" stroke="none" /><circle cx="6322" cy="2960" r="5" fill="green" stroke="none" /><circle cx="6482" cy="2612" r="5" fill="green" stroke="none" /><circle cx="1849" cy="2371" r="5" fill="green" stroke="none" /><circle cx="2715" cy="1075" r="5" fill="green" stroke="none" /><circle cx="3903" cy="629" r="5" fill="green" stroke="none" /><circle cx="1747" cy="110" r="5" fill="green" stroke="none" /><circle cx="7541" cy="884" r="5" fill="green" stroke="none" /><circle cx="21" cy="1021" r="5" fill="green" stroke="none" /><circle cx="226" cy="373" r="5" fill="green" stroke="none" /><circle cx="2605" cy="1234" r="5" fill="green" stroke="none" /><circle cx="2722" cy="1100" r="5" fill="green" stroke="none" /><circle cx="7105" cy="2038" r="5" fill="green" stroke="none" /><circle cx="18" cy="1171" r="5" fill="green" stroke="none" /><circle cx="5318" cy="533" r="5" fill="green" stroke="none" /><circle cx="4483" cy="2962" r="5" fill="green" stroke="none" /><circle cx="2565" cy="2786" r="5" fill="green" stroke="none" /><circle cx="1137" cy="1452" r="5" fill="green" stroke="none" /><circle cx="6375" cy="2892" r="5" fill="green" stroke="none" /><circle cx="7458" cy="2506" r="5" fill="green" stroke="none" /><circle cx="7750" cy="1030" r="5" fill="green" stroke="none" /><circle cx="3014" cy="2074" r="5" fill="green" stroke="none" /><circle cx="5903" cy="158" r="5" fill="green" stroke="none" /><circle cx="3386" cy="1251" r="5" fill="green" stroke="none" /><circle cx="1075" cy="684" r="5" fill="green" stroke="none" /><circle cx="3510" cy="2657" r="5" fill="green" stroke="none" /><circle cx="3981" cy="1726" r="5" fill="green" stroke="none" /><circle cx="6075" cy="2466" r="5" fill="green" stroke="none" /><circle cx="3568" cy="1820" r="5" fill="green" stroke="none" /><circle cx="2993" cy="2690" r="5" fill="green" stroke="none" /><circle cx="984" cy="1319" r="5" fill="green" stroke="none" /><circle cx="4542" cy="156" r="5" fill="green" stroke="none" /><circle cx="4988" cy="3222" r="5" fill="green" stroke="none" /><circle cx="5982" cy="1209" r="5" fill="green" stroke="none" /><circle cx="6578" cy="1068" r="5" fill="green" stroke="none" /><circle cx="7878" cy="80" r="5" fill="green" stroke="none" /><circle cx="2158" cy="556" r="5" fill="green" stroke="none" /><circle cx="1017" cy="1691" r="5" fill="green" stroke="none" /><circle cx="2096" cy="1069" r="5" fill="green" stroke="none" /><circle cx="4546" cy="1595" r="5" fill="green" stroke="none" /><circle cx="465" cy="2035" r="5" fill="green" stroke="none" /><circle cx="4441" cy="3187" r="5" fill="green" stroke="none" /><circle cx="2258" cy="2328" r="5" fill="green" stroke="none" /><circle cx="2613" cy="25" r="5" fill="green" stroke="none" /><circle cx="2883" cy="1993" r="5" fill="green" stroke="none" /><circle cx="1406" cy="2476" r="5" fill="green" stroke="none" /><circle cx="5702" cy="306" r="5" fill="green" stroke="none" /><circle cx="4042" cy="837" r="5" fill="green" stroke="none" /><circle cx="2261" cy="103" r="5" fill="green" stroke="none" /><circle cx="3679" cy="374" r="5" fill="green" stroke="none" /><circle cx="8078" cy="1131" r="5" fill="green" stroke="none" /><circle cx="1944" cy="1650" r="5" fill="green" stroke="none" /><circle cx="1923" cy="2916" r="5" fill="green" stroke="none" /><circle cx="6196" cy="1086" r="5" fill="green" stroke="none" /><circle cx="5351" cy="3034" r="5" fill="green" stroke="none" /><circle cx="7951" cy="1968" r="5" fill="green" stroke="none" /><circle cx="3132" cy="2343" r="5" fill="green" stroke="none" /><circle cx="4467" cy="923" r="5" fill="green" stroke="none" /><circle cx="2716" cy="83" r="5" fill="green" stroke="none" /><circle cx="3213" cy="2433" r="5" fill="green" stroke="none" /><circle cx="6025" cy="762" r="5" fill="green" stroke="none" /><circle cx="5330" cy="3100" r="5" fill="green" stroke="none" /><circle cx="5950" cy="1408" r="5" fill="green" stroke="none" /><circle cx="1494" cy="454" r="5" fill="green" stroke="none" /><circle cx="7730" cy="2524" r="5" fill="green" stroke="none" /><circle cx="4140" cy="152" r="5" fill="green" stroke="none" /><circle cx="5494" cy="1780" r="5" fill="green" stroke="none" /><circle cx="1550" cy="598" r="5" fill="green" stroke="none" /><circle cx="7416" cy="2736" r="5" fill="green" stroke="none" /><circle cx="5030" cy="2427" r="5" fill="green" stroke="none" /><circle cx="4870" cy="2170" r="5" fill="green" stroke="none" /><circle cx="708" cy="907" r="5" fill="green" stroke="none" /><circle cx="1222" cy="453" r="5" fill="green" stroke="none" /><circle cx="3828" cy="1074" r="5" fill="green" stroke="none" /><circle cx="4710" cy="1402" r="5" fill="green" stroke="none" /><circle cx="3694" cy="1856" r="5" fill="green" stroke="none" /><circle cx="2929" cy="3079" r="5" fill="green" stroke="none" /><circle cx="6516" cy="1197" r="5" fill="green" stroke="none" /><circle cx="7490" cy="1200" r="5" fill="green" stroke="none" /><circle cx="3808" cy="24" r="5" fill="green" stroke="none" /><circle cx="6236" cy="2224" r="5" fill="green" stroke="none" /><circle cx="896" cy="3076" r="5" fill="green" stroke="none" /><circle cx="2675" cy="1644" r="5" fill="green" stroke="none" /><circle cx="754" cy="136" r="5" fill="green" stroke="none" /><circle cx="6141" cy="2975" r="5" fill="green" stroke="none" /><circle cx="3920" cy="2346" r="5" fill="green" stroke="none" /><circle cx="5423" cy="27" r="5" fill="green" stroke="none" /><circle cx="7069" cy="1004" r="5" fill="green" stroke="none" /><circle cx="1515" cy="2768" r="5" fill="green" stroke="none" /><circle cx="199" cy="2560" r="5" fill="green" stroke="none" /><circle cx="4378" cy="2260" r="5" fill="green" stroke="none" /><circle cx="5865" cy="3128" r="5" fill="green" stroke="none" /><circle cx="5617" cy="2635" r="5" fill="green" stroke="none" /><circle cx="5540" cy="1841" r="5" fill="green" stroke="none" /><circle cx="2834" cy="767" r="5" fill="green" stroke="none" /><circle cx="6314" cy="2232" r="5" fill="green" stroke="none" /><circle cx="4848" cy="2199" r="5" fill="green" stroke="none" /><circle cx="6588" cy="39" r="5" fill="green" stroke="none" /><circle cx="3116" cy="436" r="5" fill="green" stroke="none" /><circle cx="2209" cy="770" r="5" fill="green" stroke="none" /><circle cx="3702" cy="602" r="5" fill="green" stroke="none" /><circle cx="6689" cy="164" r="5" fill="green" stroke="none" /><circle cx="141" cy="1329" r="5" fill="green" stroke="none" /><circle cx="5031" cy="1252" r="5" fill="green" stroke="none" /><circle cx="2426" cy="2554" r="5" fill="green" stroke="none" /><circle cx="3513" cy="2001" r="5" fill="green" stroke="none" /><circle cx="645" cy="1917" r="5" fill="green" stroke="none" /><circle cx="2110" cy="2953" r="5" fill="green" stroke="none" /><circle cx="3802" cy="2863" r="5" fill="green" stroke="none" /><circle cx="1329" cy="1668" r="5" fill="green" stroke="none" /><circle cx="7999" cy="2397" r="5" fill="green" stroke="none" /><circle cx="2441" cy="1620" r="5" fill="green" stroke="none" /><circle cx="3631" cy="28" r="5" fill="green" stroke="none" /><circle cx="2447" cy="2889" r="5" fill="green" stroke="none" /><circle cx="3178" cy="2831" r="5" fill="green" stroke="none" /><circle cx="1353" cy="1307" r="5" fill="green" stroke="none" /><circle cx="1193" cy="1716" r="5" fill="green" stroke="none" /><circle cx="6422" cy="1068" r="5" fill="green" stroke="none" /><circle cx="3880" cy="582" r="5" fill="green" stroke="none" /><circle cx="6320" cy="3072" r="5" fill="green" stroke="none" /><circle cx="2268" cy="1013" r="5" fill="green" stroke="none" /><circle cx="4240" cy="2851" r="5" fill="green" stroke="none" /><circle cx="5437" cy="76" r="5" fill="green" stroke="none" /><circle cx="1322" cy="497" r="5" fill="green" stroke="none" /><circle cx="1867" cy="1984" r="5" fill="green" stroke="none" /><circle cx="4905" cy="2559" r="5" fill="green" stroke="none" /><circle cx="5485" cy="791" r="5" fill="green" stroke="none" /><circle cx="7576" cy="1361" r="5" fill="green" stroke="none" /><circle cx="5292" cy="1926" r="5" fill="green" stroke="none" /><circle cx="471" cy="3225" r="5" fill="green" stroke="none" /><circle cx="5197" cy="243" r="5" fill="green" stroke="none" /><circle cx="7967" cy="2508" r="5" fill="green" stroke="none" /><circle cx="2488" cy="2113" r="5" fill="green" stroke="none" /><circle cx="255" cy="1516" r="5" fill="green" stroke="none" /><circle cx="4042" cy="1061" r="5" fill="green" stroke="none" /><circle cx="2898" cy="2641" r="5" fill="green" stroke="none" /><circle cx="4313" cy="2724" r="5" fill="green" stroke="none" /><circle cx="551" cy="2017" r="5" fill="green" stroke="none" /><circle cx="7194" cy="1174" r="5" fill="green" stroke="none" /><circle cx="1069" cy="1218" r="5" fill="green" stroke="none" /><circle cx="7955" cy="688" r="5" fill="green" stroke="none" /><circle cx="1790" cy="3054" r="5" fill="green" stroke="none" /><circle cx="1976" cy="77" r="5" fill="green" stroke="none" /><circle cx="3845" cy="2799" r="5" fill="green" stroke="none" /><circle cx="4304" cy="1348" r="5" fill="green" stroke="none" /><circle cx="1011" cy="2541" r="5" fill="green" stroke="none" /></svg>