<svg viewBox="0 0 1000 1000" xmlns="http://www.w3.org/2000/svg"><rect x="0" y="0" width="1000" height="1000" fill="lightyellow" stroke="none "/><rect x="392" y="75" width="256" height="330" fill="white" stroke="black "/><circle cx="873" cy="891" r="5" fill="green" stroke="none" /><circle cx="920" cy="791" r="5" fill="green" stroke="none" /><circle cx="227" cy="306" r="5" fill="green" stroke="none" /><circle cx="955" cy="849" r="5" fill="green" stroke="none" /><circle cx="734" cy="619" r="5" fill="green" stroke="none" /><circle cx="276" cy="543" r="5" fill="green" stroke="none" /><circle cx="561" cy="985" r="5" fill="green" stroke="none" /><circle cx="707" cy="480" r="5" fill="green" stroke="none" /><circle cx="331" cy="273" r="5" fill="green" stroke="none" /><circle cx="560" cy="860" r="5" fill="green" stroke="none" /><circle cx="241" cy="896" r="5" fill="green" stroke="none" /><circle cx="783" cy="397" r="5" fill="green" stroke="none" /><circle cx="179" cy="755" r="5" fill="green" stroke="none" /><circle cx="152" cy="559" r="5" fill="green" stroke="none" /><circle cx="374" cy="254" r="5" fill="green" stroke="none" /><circle cx="73" cy="782" r="5" fill="green" stroke="none" /><circle cx="635" cy="517" r="5" fill="green" stroke="none" /><circle cx="81" cy="845" r="5" fill="green" stroke="none" /><circle cx="77" cy="187" r="5" fill="green" stroke="none" /><circle cx="339" cy="860" r="5" fill="green" stroke="none" /><circle cx="586" cy="621" r="5" fill="green" stroke="none" /><circle cx="169" cy="664" r="5" fill="green" stroke="none" /><circle cx="31" cy="731" r="5" fill="green" stroke="none" /><circle cx="804" cy="381" r="5" fill="green" stroke="none" /><circle cx="129" cy="639" r="5" fill="green" stroke="none" /><circle cx="397" cy="861" r="5" fill="green" stroke="none" /><circle cx="327" cy="555" r="5" fill="green" stroke="none" /><circle cx="525" cy="940" r="5" fill="green" stroke="none" /><circle cx="68" cy="772" r="5" fill="green" stroke="none" /><circle cx="733" cy="566" r="5" fill="green" stroke="none" /><circle cx="943" cy="359" r="5" fill="green" stroke="none" /><circle cx="523" cy="444" r="5" fill="green" stroke="none" /><circle cx="7" cy="974" r="5" fill="green" stroke="none" /><circle cx="890" cy="999" r="5" fill="green" stroke="none" /><circle cx="980" cy="564" r="5" fill="green" stroke="none" /><circle cx="108" cy="772" r="5" fill="green" stroke="none" /><circle cx="711" cy="403" r="5" fill="green" stroke="none" /><circle cx="477" cy="971" r="5" fill="green" stroke="none" /><circle cx="2" cy="549" r="5" fill="green" stroke="none" /><circle cx="301" cy="205" r="5" fill="green" stroke="none" /><circle cx="357" cy="3" r="5" fill="green" stroke="none" /><circle cx="325" cy="133" r="5" fill="green" stroke="none" /><circle cx="576" cy="862" r="5" fill="green" stroke="none" /><circle cx="580" cy="597" r="5" fill="green" stroke="none" /><circle cx="190" cy="225" r="5" fill="green" stroke="none" /><circle cx="480" cy="584" r="5" fill="green" stroke="none" /><circle cx="85" cy="462" r="5" fill="green" stroke="none" /><circle cx="565" cy="879" r="5" fill="green" stroke="none" /><circle cx="830" cy="484" r="5" fill="green" stroke="none" /><circle cx="749" cy="987" r="5" fill="green" stroke="none" /><circle cx="136" cy="523" r="5" fill="green" stroke="none" /><circle cx="52" cy="641" r="5" fill="green" stroke="none" /><circle cx="121" cy="670" r="5" fill="green" stroke="none" /><circle cx="565" cy="750" r="5" fill="green" stroke="none" /><circle cx="757" cy="967" r="5" fill="green" stroke="none" /><circle cx="30" cy="877" r="5" fill="green" stroke="none" /><circle cx="345" cy="764" r="5" fill="green" stroke="none" /><circle cx="889" cy="908" r="5" fill="green" stroke="none" /><circle cx="495" cy="748" r="5" fill="green" stroke="none" /><circle cx="688" cy="306" r="5" fill="green" stroke="none" /><circle cx="958" cy="449" r="5" fill="green" stroke="none" /><circle cx="606" cy="441" r="5" fill="green" stroke="none" /><circle cx="21" cy="238" r="5" fill="green" stroke="none" /><circle cx="734" cy="722" r="5" fill="green" stroke="none" /><circle cx="938" cy="691" r="5" fill="green" stroke="none" /><circle cx="997" cy="725" r="5" fill="green" stroke="none" /><circle cx="447" cy="908" r="5" fill="green" stroke="none" /><circle cx="13" cy="431" r="5" fill="green" stroke="none" /><circle cx="863" cy="215" r="5" fill="green" stroke="none" /><circle cx="33" cy="356" r="5" fill="green" stroke="none" /><circle cx="532" cy="963" r="5" fill="green" stroke="none" /><circle cx="43" cy="952" r="5" fill="green" stroke="none" /><circle cx="57" cy="611" r="5" fill="green" stroke="none" /><circle cx="937" cy="737" r="5" fill="green" stroke="none" /><circle cx="807" cy="672" r="5" fill="green" stroke="none" /><circle cx="829" cy="839" r="5" fill="green" stroke="none" /><circle cx="43" cy="994" r="5" fill="green" stroke="none" /><circle cx="297" cy="608" r="5" fill="green" stroke="none" /><circle cx="383" cy="668" r="5" fill="green" stroke="none" /><circle cx="842" cy="611" r="5" fill="green" stroke="none" /><circle cx="871" cy="58" r="5" fill="green" stroke="none" /><circle cx="849" cy="994" r="5" fill="green" stroke="none" /><circle cx="871" cy="996" r="5" fill="green" stroke="none" /><circle cx="111" cy="181" r="5" fill="green" stroke="none" /><circle cx="47" cy="313" r="5" fill="green" stroke="none" /><circle cx="339" cy="965" r="5" fill="green" stroke="none" /><circle cx="929" cy="788" r="5" fill="green" stroke="none" /><circle cx="338" cy="344" r="5" fill="green" stroke="none" /><circle cx="203" cy="952" r="5" fill="green" stroke="none" /><circle cx="21" cy="191" r="5" fill="green" stroke="none" /><circle cx="185" cy="432" r="5" fill="green" stroke="none" /><circle cx="541" cy="689" r="5" fill="green" stroke="none" /><circle cx="251" cy="515" r="5" fill="green" stroke="none" /><circle cx="204" cy="897" r="5" fill="green" stroke="none" /><circle cx="200" cy="274" r="5" fill="green" stroke="none" /><circle cx="992" cy="624" r="5" fill="green" stroke="none" /><circle cx="198" cy="468" r="5" fill="green" stroke="none" /><circle cx="807" cy="213" r="5" fill="green" stroke="none" /><circle cx="765" cy="233" r="5" fill="green" stroke="none" /><circle cx="347" cy="899" r="5" fill="green" stroke="none" /><circle cx="122" cy="923" r="5" fill="green" stroke="none" /><circle cx="509" cy="972" r="5" fill="green" stroke="none" /><circle cx="143" cy="208" r="5" fill="green" stroke="none" /><circle cx="799" cy="349" r="5" fill="green" stroke="none" /><circle cx="28" cy="80" r="5" fill="green" stroke="none" /><circle cx="985" cy="551" r="5" fill="green" stroke="none" /><circle cx="48" cy="466" r="5" fill="green" stroke="none" /><circle cx="741" cy="545" r="5" fill="green" stroke="none" /><circle cx="965" cy="879" r="5" fill="green" stroke="none" /><circle cx="399" cy="667" r="5" fill="green" stroke="none" /><circle cx="187" cy="171" r="5" fill="green" stroke="none" /><circle cx="381" cy="943" r="5" fill="green" stroke="none" /><circle cx="568" cy="944" r="5" fill="green" stroke="none" /><circle cx="26" cy="925" r="5" fill="green" stroke="none" /><circle cx="276" cy="255" r="5" fill="green" stroke="none" /><circle cx="351" cy="163" r="5" fill="green" stroke="none" /><circle cx="579" cy="799" r="5" fill="green" stroke="none" /><circle cx="903" cy="776" r="5" fill="green" stroke="none" /><circle cx="791" cy="882" r="5" fill="green" stroke="none" /><circle cx="903" cy="269" r="5" fill="green" stroke="none" /><circle cx="457" cy="431" r="5" fill="green" stroke="none" /><circle cx="151" cy="706" r="5" fill="green" stroke="none" /><circle cx="956" cy="346" r="5" fill="green" stroke="none" /><circle cx="919" cy="749" r="5" fill="green" stroke="none" /><circle cx="968" cy="885" r="5" fill="green" stroke="none" /><circle cx="994" cy="14" r="5" fill="green" stroke="none" /><circle cx="984" cy="9" r="5" fill="green" stroke="none" /><circle cx="248" cy="700" r="5" fill="green" stroke="none" /><circle cx="252" cy="270" r="5" fill="green" stroke="none" /><circle cx="166" cy="489" r="5" fill="green" stroke="none" /><circle cx="86" cy="479" r="5" fill="green" stroke="none" /><circle cx="622" cy="844" r="5" fill="green" stroke="none" /><circle cx="884" cy="971" r="5" fill="green" stroke="none" /><circle cx="500" cy="739" r="5" fill="green" stroke="none" /><circle cx="833" cy="268" r="5" fill="green" stroke="none" /><circle cx="59" cy="325" r="5" fill="green" stroke="none" /><circle cx="511" cy="454" r="5" fill="green" stroke="none" /><circle cx="784" cy="260" r="5" fill="green" stroke="none" /><circle cx="44" cy="148" r="5" fill="green" stroke="none" /><circle cx="703" cy="292" r="5" fill="green" stroke="none" /><circle cx="808" cy="116" r="5" fill="green" stroke="none" /><circle cx="466" cy="732" r="5" fill="green" stroke="none" /><circle cx="22" cy="227" r="5" fill="green" stroke="none" /><circle cx="726" cy="314" r="5" fill="green" stroke="none" /><circle cx="147" cy="17" r="5" fill="green" stroke="none" /><circle cx="48" cy="494" r="5" fill="green" stroke="none" /><circle cx="476" cy="562" r="5" fill="green" stroke="none" /><circle cx="692" cy="95" r="5" fill="green" stroke="none" /><circle cx="876" cy="671" r="5" fill="green" stroke="none" /><circle cx="728" cy="654" r="5" fill="green" stroke="none" /><circle cx="847" cy="939" r="5" fill="green" stroke="none" /><circle cx="940" cy="180" r="5" fill="green" stroke="none" /><circle cx="78" cy="307" r="5" fill="green" stroke="none" /><circle cx="36" cy="54" r="5" fill="green" stroke="none" /><circle cx="335" cy="85" r="5" fill="green" stroke="none" /><circle cx="660" cy="464" r="5" fill="green" stroke="none" /><circle cx="852" cy="122" r="5" fill="green" stroke="none" /><circle cx="208" cy="313" r="5" fill="green" stroke="none" /><circle cx="715" cy="538" r="5" fill="green" stroke="none" /><circle cx="612" cy="751" r="5" fill="green" stroke="none" /><circle cx="672" cy="601" r="5" fill="green" stroke="none" /><circle cx="991" cy="337" r="5" fill="green" stroke="none" /><circle cx="389" cy="334" r="5" fill="green" stroke="none" /><circle cx="980" cy="20" r="5" fill="green" stroke="none" /><circle cx="136" cy="462" r="5" fill="green" stroke="none" /><circle cx="607" cy="676" r="5" fill="green" stroke="none" /><circle cx="936" cy="621" r="5" fill="green" stroke="none" /><circle cx="731" cy="771" r="5" fill="green" stroke="none" /><circle cx="173" cy="282" r="5" fill="green" stroke="none" /><circle cx="711" cy="341" r="5" fill="green" stroke="none" /><circle cx="457" cy="545" r="5" fill="green" stroke="none" /><circle cx="933" cy="465" r="5" fill="green" stroke="none" /><circle cx="44" cy="385" r="5" fill="green" stroke="none" /><circle cx="207" cy="286" r="5" fill="green" stroke="none" /><circle cx="831" cy="782" r="5" fill="green" stroke="none" /><circle cx="143" cy="505" r="5" fill="green" stroke="none" /><circle cx="836" cy="669" r="5" fill="green" stroke="none" /><circle cx="202" cy="673" r="5" fill="green" stroke="none" /><circle cx="554" cy="468" r="5" fill="green" stroke="none" /><circle cx="343" cy="895" r="5" fill="green" stroke="none" /><circle cx="823" cy="600" r="5" fill="green" stroke="none" /><circle cx="1" cy="608" r="5" fill="green" stroke="none" /><circle cx="189" cy="178" r="5" fill="green" stroke="none" /><circle cx="606" cy="938" r="5" fill="green" stroke="none" /><circle cx="721" cy="775" r="5" fill="green" stroke="none" /><circle cx="81" cy="152" r="5" fill="green" stroke="none" /><circle cx="952" cy="938" r="5" fill="green" stroke="none" /><circle cx="569" cy="441" r="5" fill="green" stroke="none" /><circle cx="500" cy="49" r="5" fill="green" stroke="none" /><circle cx="272" cy="496" r="5" fill="green" stroke="none" /><circle cx="121" cy="723" r="5" fill="green" stroke="none" /><circle cx="147" cy="574" r="5" fill="green" stroke="none" /><circle cx="203" cy="241" r="5" fill="green" stroke="none" /><circle cx="781" cy="357" r="5" fill="green" stroke="none" /><circle cx="828" cy="542" r="5" fill="green" stroke="none" /><circle cx="576" cy="526" r="5" fill="green" stroke="none" /><circle cx="278" cy="719" r="5" fill="green" stroke="none" /><circle cx="937" cy="577" r="5" fill="green" stroke="none" /><circle cx="44" cy="443" r="5" fill="green" stroke="none" /><circle cx="224" cy="555" r="5" fill="green" stroke="none" /><circle cx="928" cy="721" r="5" fill="green" stroke="none" /><circle cx="52" cy="583" r="5" fill="green" stroke="none" /><circle cx="32" cy="864" r="5" fill="green" stroke="none" /><circle cx="732" cy="715" r="5" fill="green" stroke="none" /><circle cx="857" cy="38" r="5" fill="green" stroke="none" /><circle cx="973" cy="120" r="5" fill="green" stroke="none" /><circle cx="764" cy="900" r="5" fill="green" stroke="none" /><circle cx="547" cy="977" r="5" fill="green" stroke="none" /><circle cx="385" cy="893" r="5" fill="green" stroke="none" /><circle cx="637" cy="417" r="5" fill="green" stroke="none" /><circle cx="724" cy="574" r="5" fill="green" stroke="none" /><circle cx="995" cy="344" r="5" fill="green" stroke="none" /><circle cx="666" cy="679" r="5" fill="green" stroke="none" /><circle cx="313" cy="412" r="5" fill="green" stroke="none" /><circle cx="677" cy="441" r="5" fill="green" stroke="none" /><circle cx="944" cy="818" r="5" fill="green" stroke="none" /><circle cx="61" cy="482" r="5" fill="green" stroke="none" /><circle cx="186" cy="618" r="5" fill="green" stroke="none" /><circle cx="236" cy="144" r="5" fill="green" stroke="none" /><circle cx="672" cy="922" r="5" fill="green" stroke="none" /><circle cx="82" cy="720" r="5" fill="green" stroke="none" /><circle cx="949" cy="408" r="5" fill="green" stroke="none" /><circle cx="21" cy="929" r="5" fill="green" stroke="none" /><circle cx="773" cy="482" r="5" fill="green" stroke="none" /><circle cx="843" cy="653" r="5" fill="green" stroke="none" /><circle cx="33" cy="710" r="5" fill="green" stroke="none" /><circle cx="851" cy="196" r="5" fill="green" stroke="none" /><circle cx="249" cy="399" r="5" fill="green" stroke="none" /><circle cx="99" cy="665" r="5" fill="green" stroke="none" /><circle cx="221" cy="965" r="5" fill="green" stroke="none" /><circle cx="853" cy="575" r="5" fill="green" stroke="none" /><circle cx="333" cy="829" r="5" fill="green" stroke="none" /><circle cx="877" cy="332" r="5" fill="green" stroke="none" /><circle cx="390" cy="929" r="5" fill="green" stroke="none" /><circle cx="956" cy="199" r="5" fill="green" stroke="none" /><circle cx="945" cy="862" r="5" fill="green" stroke="none" /><circle cx="698" cy="673" r="5" fill="green" stroke="none" /><circle cx="98" cy="603" r="5" fill="green" stroke="none" /><circle cx="799" cy="981" r="5" fill="green" stroke="none" /><circle cx="817" cy="361" r="5" fill="green" stroke="none" /><circle cx="381" cy="810" r="5" fill="green" stroke="none" /><circle cx="201" cy="808" r="5" fill="green" stroke="none" /><circle cx="331" cy="290" r="5" fill="green" stroke="none" /><circle cx="966" cy="951" r="5" fill="green" stroke="none" /><circle cx="777" cy="26" r="5" fill="green" stroke="none" /><circle cx="366" cy="127" r="5" fill="green" stroke="none" /><circle cx="307" cy="616" r="5" fill="green" stroke="none" /><circle cx="672" cy="492" r="5" fill="green" stroke="none" /><circle cx="825" cy="825" r="5" fill="green" stroke="none" /><circle cx="384" cy="760" r="5" fill="green" stroke="none" /><circle cx="509" cy="779" r="5" fill="green" stroke="none" /><circle cx="788" cy="354" r="5" fill="green" stroke="none" /><circle cx="700" cy="480" r="5" fill="green" stroke="none" /><circle cx="815" cy="886" r="5" fill="green" stroke="none" /><circle cx="726" cy="965" r="5" fill="green" stroke="none" /><circle cx="988" cy="981" r="5" fill="green" stroke="none" /><circle cx="929" cy="243" r="5" fill="green" stroke="none" /><circle cx="347" cy="951" r="5" fill="green" stroke="none" /><circle cx="686" cy="633" r="5" fill="green" stroke="none" /><circle cx="703" cy="188" r="5" fill="green" stroke="none" /><circle cx="873" cy="36" r="5" fill="green" stroke="none" /><circle cx="83" cy="587" r="5" fill="green" stroke="none" /><circle cx="382" cy="175" r="5" fill="green" stroke="none" /><circle cx="592" cy="742" r="5" fill="green" stroke="none" /><circle cx="164" cy="3" r="5" fill="green" stroke="none" /><circle cx="771" cy="428" r="5" fill="green" stroke="none" /><circle cx="809" cy="875" r="5" fill="green" stroke="none" /><circle cx="382" cy="967" r="5" fill="green" stroke="none" /><circle cx="597" cy="636" r="5" fill="green" stroke="none" /><circle cx="243" cy="114" r="5" fill="green" stroke="none" /><circle cx="80" cy="647" r="5" fill="green" stroke="none" /><circle cx="668" cy="461" r="5" fill="green" stroke="none" /><circle cx="865" cy="502" r="5" fill="green" stroke="none" /><circle cx="50" cy="545" r="5" fill="green" stroke="none" /><circle cx="331" cy="811" r="5" fill="green" stroke="none" /><circle cx="314" cy="691" r="5" fill="green" stroke="none" /><circle cx="367" cy="560" r="5" fill="green" stroke="none" /><circle cx="624" cy="425" r="5" fill="green" stroke="none" /><circle cx="130" cy="458" r="5" fill="green" stroke="none" /><circle cx="994" cy="374" r="5" fill="green" stroke="none" /><circle cx="73" cy="659" r="5" fill="green" stroke="none" /><circle cx="761" cy="160" r="5" fill="green" stroke="none" /><circle cx="16" cy="367" r="5" fill="green" stroke="none" /><circle cx="230" cy="437" r="5" fill="green" stroke="none" /><circle cx="72" cy="207" r="5" fill="green" stroke="none" /><circle cx="578" cy="673" r="5" fill="green" stroke="none" /><circle cx="266" cy="265" r="5" fill="green" stroke="none" /><circle cx="896" cy="574" r="5" fill="green" stroke="none" /><circle cx="822" cy="150" r="5" fill="green" stroke="none" /><circle cx="959" cy="958" r="5" fill="green" stroke="none" /><circle cx="297" cy="921" r="5" fill="green" stroke="none" /><circle cx="384" cy="359" r="5" fill="green" stroke="none" /><circle cx="324" cy="340" r="5" fill="green" stroke="none" /><circle cx="938" cy="182" r="5" fill="green" stroke="none" /><circle cx="516" cy="434" r="5" fill="green" stroke="none" /><circle cx="656" cy="834" r="5" fill="green" stroke="none" /><circle cx="852" cy="175" r="5" fill="green" stroke="none" /><circle cx="898" cy="10" r="5" fill="green" stroke="none" /><circle cx="200" cy="545" r="5" fill="green" stroke="none" /><circle cx="830" cy="187" r="5" fill="green" stroke="none" /><circle cx="648" cy="988" r="5" fill="green" stroke="none" /><circle cx="1" cy="476" r="5" fill="green" stroke="none" /><circle cx="867" cy="875" r="5" fill="green" stroke="none" /><circle cx="716" cy="591" r="5" fill="green" stroke="none" /><circle cx="458" cy="31" r="5" fill="green" stroke="none" /><circle cx="411" cy="66" r="5" fill="green" stroke="none" /><circle cx="816" cy="856" r="5" fill="green" stroke="none" /><circle cx="132" cy="184" r="5" fill="green" stroke="none" /><circle cx="663" cy="948" r="5" fill="green" stroke="none" /><circle cx="40" cy="680" r="5" fill="green" stroke="none" /><circle cx="556" cy="525" r="5" fill="green" stroke="none" /><circle cx="972" cy="641" r="5" fill="green" stroke="none" /><circle cx="983" cy="421" r="5" fill="green" stroke="none" /><circle cx="660" cy="531" r="5" fill="green" stroke="none" /><circle cx="997" cy="865" r="5" fill="green" stroke="none" /><circle cx="585" cy="828" r="5" fill="green" stroke="none" /><circle cx="379" cy="853" r="5" fill="green" stroke="none" /><circle cx="139" cy="932" r="5" fill="green" stroke="none" /><circle cx="572" cy="574" r="5" fill="green" stroke="none" /><circle cx="525" cy="733" r="5" fill="green" stroke="none" /><circle cx="559" cy="10" r="5" fill="green" stroke="none" /><circle cx="946" cy="948" r="5" fill="green" stroke="none" /><circle cx="750" cy="307" r="5" fill="green" stroke="none" /><circle cx="335" cy="283" r="5" fill="green" stroke="none" /><circle cx="39" cy="210" r="5" fill="green" stroke="none" /><circle cx="299" cy="990" r="5" fill="green" stroke="none" /><circle cx="640" cy="650" r="5" fill="green" stroke="none" /><circle cx="489" cy="705" r="5" fill="green" stroke="none" /><circle cx="507" cy="649" r="5" fill="green" stroke="none" /><circle cx="715" cy="319" r="5" fill="green" stroke="none" /><circle cx="266" cy="601" r="5" fill="green" stroke="none" /><circle cx="258" cy="998" r="5" fill="green" stroke="none" /><circle cx="352" cy="970" r="5" fill="green" stroke="none" /><circle cx="48" cy="211" r="5" fill="green" stroke="none" /><circle cx="839" cy="130" r="5" fill="green" stroke="none" /><circle cx="544" cy="45" r="5" fill="green" stroke="none" /><circle cx="713" cy="111" r="5" fill="green" stroke="none" /><circle cx="182" cy="655" r="5" fill="green" stroke="none" /><circle cx="30" cy="160" r="5" fill="green" stroke="none" /><circle cx="151" cy="251" r="5" fill="green" stroke="none" /><circle cx="695" cy="473" r="5" fill="green" stroke="none" /><circle cx="410" cy="47" r="5" fill="green" stroke="none" /><circle cx="995" cy="579" r="5" fill="green" stroke="none" /><circle cx="632" cy="12" r="5" fill="green" stroke="none" /><circle cx="864" cy="305" r="5" fill="green" stroke="none" /><circle cx="962" cy="803" r="5" fill="green" stroke="none" /><circle cx="166" cy="867" r="5" fill="green" stroke="none" /><circle cx="511" cy="681" r="5" fill="green" stroke="none" /><circle cx="804" cy="268" r="5" fill="green" stroke="none" /><circle cx="798" cy="887" r="5" fill="green" stroke="none" /><circle cx="124" cy="456" r="5" fill="green" stroke="none" /><circle cx="192" cy="83" r="5" fill="green" stroke="none" /><circle cx="909" cy="153" r="5" fill="green" stroke="none" /><circle cx="402" cy="54" r="5" fill="green" stroke="none" /><circle cx="846" cy="545" r="5" fill="green" stroke="none" /><circle cx="826" cy="958" r="5" fill="green" stroke="none" /><circle cx="754" cy="926" r="5" fill="green" stroke="none" /><circle cx="253" cy="467" r="5" fill="green" stroke="none" /><circle cx="221" cy="131" r="5" fill="green" stroke="none" /><circle cx="671" cy="16" r="5" fill="green" stroke="none" /><circle cx="231" cy="446" r="5" fill="green" stroke="none" /><circle cx="236" cy="443" r="5" fill="green" stroke="none" /><circle cx="956" cy="997" r="5" fill="green" stroke="none" /><circle cx="263" cy="66" r="5" fill="green" stroke="none" /><circle cx="707" cy="95" r="5" fill="green" stroke="none" /><circle cx="880" cy="513" r="5" fill="green" stroke="none" /><circle cx="150" cy="524" r="5" fill="green" stroke="none" /><circle cx="488" cy="988" r="5" fill="green" stroke="none" /><circle cx="462" cy="694" r="5" fill="green" stroke="none" /><circle cx="650" cy="292" r="5" fill="green" stroke="none" /><circle cx="411" cy="578" r="5" fill="green" stroke="none" /><circle cx="922" cy="133" r="5" fill="green" stroke="none" /><circle cx="970" cy="147" r="5" fill="green" stroke="none" /><circle cx="165" cy="772" r="5" fill="green" stroke="none" /><circle cx="602" cy="877" r="5" fill="green" stroke="none" /><circle cx="763" cy="831" r="5" fill="green" stroke="none" /><circle cx="238" cy="781" r="5" fill="green" stroke="none" /><circle cx="982" cy="404" r="5" fill="green" stroke="none" /><circle cx="694" cy="352" r="5" fill="green" stroke="none" /><circle cx="987" cy="480" r="5" fill="green" stroke="none" /><circle cx="97" cy="429" r="5" fill="green" stroke="none" /><circle cx="54" cy="630" r="5" fill="green" stroke="none" /><circle cx="123" cy="910" r="5" fill="green" stroke="none" /><circle cx="784" cy="654" r="5" fill="green" stroke="none" /><circle cx="111" cy="923" r="5" fill="green" stroke="none" /><circle cx="915" cy="735" r="5" fill="green" stroke="none" /><circle cx="996" cy="969" r="5" fill="green" stroke="none" /><circle cx="771" cy="149" r="5" fill="green" stroke="none" /><circle cx="450" cy="416" r="5" fill="green" stroke="none" /><circle cx="354" cy="658" r="5" fill="green" stroke="none" /><circle cx="386" cy="26" r="5" fill="green" stroke="none" /><circle cx="928" cy="845" r="5" fill="green" stroke="none" /><circle cx="41" cy="630" r="5" fill="green" stroke="none" /><circle cx="887" cy="427" r="5" fill="green" stroke="none" /><circle cx="549" cy="434" r="5" fill="green" stroke="none" /><circle cx="876" cy="280" r="5" fill="green" stroke="none" /><circle cx="588" cy="950" r="5" fill="green" stroke="none" /><circle cx="349" cy="378" r="5" fill="green" stroke="none" /><circle cx="7" cy="197" r="5" fill="green" stroke="none" /><circle cx="409" cy="815" r="5" fill="green" stroke="none" /></svg>