<svg viewBox="0 0 7396 2367" xmlns="http://www.w3.org/2000/svg"><rect x="0" y="0" width="7396" height="2367" fill="lightyellow" stroke="none "/><rect x="5195" y="415" width="1423" height="389" fill="white" stroke="black "/><circle cx="3193" cy="1555" r="5" fill="green" stroke="none" /><circle cx="6651" cy="886" r="5" fill="green" stroke="none" /><circle cx="5031" cy="2300" r="5" fill="green" stroke="none" /><circle cx="3816" cy="490" r="5" fill="green" stroke="none" /><circle cx="5203" cy="1802" r="5" fill="green" stroke="none" /><circle cx="5573" cy="1280" r="5" fill="green" stroke="none" /><circle cx="2520" cy="661" r="5" fill="green" stroke="none" /><circle cx="3975" cy="1364" r="5" fill="green" stroke="none" /><circle cx="3323" cy="1443" r="5" fill="green" stroke="none" /><circle cx="4876" cy="1942" r="5" fill="green" stroke="none" /><circle cx="446" cy="1839" r="5" fill="green" stroke="none" /><circle cx="6528" cy="2249" r="5" fill="green" stroke="none" /><circle cx="979" cy="830" r="5" fill="green" stroke="none" /><circle cx="2003" cy="982" r="5" fill="green" stroke="none" /><circle cx="3334" cy="854" r="5" fill="green" stroke="none" /><circle cx="651" cy="588" r="5" fill="green" stroke="none" /><circle cx="369" cy="263" r="5" fill="green" stroke="none" /><circle cx="821" cy="110" r="5" fill="green" stroke="none" /><circle cx="4864" cy="670" r="5" fill="green" stroke="none" /><circle cx="7018" cy="326" r="5" fill="green" stroke="none" /><circle cx="93" cy="2231" r="5" fill="green" stroke="none" /><circle cx="1597" cy="95" r="5" fill="green" stroke="none" /><circle cx="4267" cy="1128" r="5" fill="green" stroke="none" /><circle cx="7314" cy="592" r="5" fill="green" stroke="none" /><circle cx="3265" cy="325" r="5" fill="green" stroke="none" /><circle cx="2769" cy="81" r="5" fill="green" stroke="none" /><circle cx="6180" cy="1635" r="5" fill="green" stroke="none" /><circle cx="6405" cy="826" r="5" fill="green" stroke="none" /><circle cx="4580" cy="1097" r="5" fill="green" stroke="none" /><circle cx="2134" cy="1013" r="5" fill="green" stroke="none" /><circle cx="3898" cy="1209" r="5" fill="green" stroke="none" /><circle cx="1961" cy="906" r="5" fill="green" stroke="none" /><circle cx="4596" cy="580" r="5" fill="green" stroke="none" /><circle cx="3934" cy="1464" r="5" fill="green" stroke="none" /><circle cx="5882" cy="2302" r="5" fill="green" stroke="none" /><circle cx="3497" cy="2367" r="5" fill="green" stroke="none" /><circle cx="6859" cy="1779" r="5" fill="green" stroke="none" /><circle cx="1849" cy="1902" r="5" fill="green" stroke="none" /><circle cx="6822" cy="1561" r="5" fill="green" stroke="none" /><circle cx="7022" cy="905" r="5" fill="green" stroke="none" /><circle cx="1360" cy="1963" r="5" fill="green" stroke="none" /><circle cx="1286" cy="1617" r="5" fill="green" stroke="none" /><circle cx="389" cy="1666" r="5" fill="green" stroke="none" /><circle cx="439" cy="1673" r="5" fill="green" stroke="none" /><circle cx="1269" cy="2139" r="5" fill="green" stroke="none" /><circle cx="6464" cy="1533" r="5" fill="green" stroke="none" /><circle cx="519" cy="911" r="5" fill="green" stroke="none" /><circle cx="6493" cy="333" r="5" fill="green" stroke="none" /><circle cx="2358" cy="1850" r="5" fill="green" stroke="none" /><circle cx="465" cy="687" r="5" fill="green" stroke="none" /><circle cx="591" cy="449" r="5" fill="green" stroke="none" /><circle cx="1751" cy="2285" r="5" fill="green" stroke="none" /><circle cx="4241" cy="1395" r="5" fill="green" stroke="none" /><circle cx="2808" cy="1543" r="5" fill="green" stroke="none" /><circle cx="480" cy="247" r="5" fill="green" stroke="none" /><circle cx="3116" cy="1690" r="5" fill="green" stroke="none" /><circle cx="5829" cy="1270" r="5" fill="green" stroke="none" /><circle cx="2535" cy="1285" r="5" fill="green" stroke="none" /><circle cx="1590" cy="51" r="5" fill="green" stroke="none" /><circle cx="1666" cy="1143" r="5" fill="green" stroke="none" /><circle cx="1185" cy="1266" r="5" fill="green" stroke="none" /><circle cx="3346" cy="1627" r="5" fill="green" stroke="none" /><circle cx="1006" cy="1973" r="5" fill="green" stroke="none" /><circle cx="7086" cy="2233" r="5" fill="green" stroke="none" /><circle cx="2140" cy="328" r="5" fill="green" stroke="none" /><circle cx="5802" cy="40" r="5" fill="green" stroke="none" /><circle cx="7093" cy="1320" r="5" fill="green" stroke="none" /><circle cx="3189" cy="1293" r="5" fill="green" stroke="none" /><circle cx="1185" cy="1167" r="5" fill="green" stroke="none" /><circle cx="253" cy="932" r="5" fill="green" stroke="none" /><circle cx="7041" cy="133" r="5" fill="green" stroke="none" /><circle cx="5701" cy="2262" r="5" fill="green" stroke="none" /><circle cx="653" cy="487" r="5" fill="green" stroke="none" /><circle cx="4996" cy="629" r="5" fill="green" stroke="none" /><circle cx="3964" cy="50" r="5" fill="green" stroke="none" /><circle cx="6112" cy="1821" r="5" fill="green" stroke="none" /><circle cx="332" cy="479" r="5" fill="green" stroke="none" /><circle cx="2893" cy="1417" r="5" fill="green" stroke="none" /><circle cx="39" cy="1232" r="5" fill="green" stroke="none" /><circle cx="6648" cy="2319" r="5" fill="green" stroke="none" /><circle cx="5812" cy="2107" r="5" fill="green" stroke="none" /><circle cx="3549" cy="153" r="5" fill="green" stroke="none" /><circle cx="7032" cy="245" r="5" fill="green" stroke="none" /><circle cx="989" cy="527" r="5" fill="green" stroke="none" /><circle cx="6237" cy="237" r="5" fill="green" stroke="none" /><circle cx="4702" cy="2366" r="5" fill="green" stroke="none" /><circle cx="793" cy="1001" r="5" fill="green" stroke="none" /><circle cx="7120" cy="1627" r="5" fill="green" stroke="none" /><circle cx="1173" cy="2000" r="5" fill="green" stroke="none" /><circle cx="7100" cy="1741" r="5" fill="green" stroke="none" /><circle cx="3573" cy="1528" r="5" fill="green" stroke="none" /><circle cx="4526" cy="2101" r="5" fill="green" stroke="none" /><circle cx="385" cy="1023" r="5" fill="green" stroke="none" /><circle cx="4540" cy="9" r="5" fill="green" stroke="none" /><circle cx="4029" cy="139" r="5" fill="green" stroke="none" /><circle cx="2395" cy="760" r="5" fill="green" stroke="none" /><circle cx="3692" cy="973" r="5" fill="green" stroke="none" /><circle cx="2592" cy="995" r="5" fill="green" stroke="none" /><circle cx="256" cy="227" r="5" fill="green" stroke="none" /><circle cx="2991" cy="2301" r="5" fill="green" stroke="none" /><circle cx="5119" cy="2305" r="5" fill="green" stroke="none" /><circle cx="3023" cy="2126" r="5" fill="green" stroke="none" /><circle cx="7123" cy="773" r="5" fill="green" stroke="none" /><circle cx="6215" cy="1419" r="5" fill="green" stroke="none" /><circle cx="2170" cy="517" r="5" fill="green" stroke="none" /><circle cx="1239" cy="1840" r="5" fill="green" stroke="none" /><circle cx="3932" cy="2359" r="5" fill="green" stroke="none" /><circle cx="875" cy="528" r="5" fill="green" stroke="none" /><circle cx="2015" cy="800" r="5" fill="green" stroke="none" /><circle cx="5615" cy="303" r="5" fill="green" stroke="none" /><circle cx="5388" cy="1746" r="5" fill="green" stroke="none" /><circle cx="4327" cy="977" r="5" fill="green" stroke="none" /><circle cx="2071" cy="658" r="5" fill="green" stroke="none" /><circle cx="5243" cy="1302" r="5" fill="green" stroke="none" /><circle cx="2680" cy="811" r="5" fill="green" stroke="none" /><circle cx="3554" cy="804" r="5" fill="green" stroke="none" /><circle cx="1798" cy="1741" r="5" fill="green" stroke="none" /><circle cx="3524" cy="928" r="5" fill="green" stroke="none" /><circle cx="778" cy="1370" r="5" fill="green" stroke="none" /><circle cx="440" cy="949" r="5" fill="green" stroke="none" /><circle cx="276" cy="1724" r="5" fill="green" stroke="none" /><circle cx="6954" cy="730" r="5" fill="green" stroke="none" /><circle cx="2947" cy="2020" r="5" fill="green" stroke="none" /><circle cx="7061" cy="1353" r="5" fill="green" stroke="none" /><circle cx="6699" cy="1193" r="5" fill="green" stroke="none" /><circle cx="351" cy="155" r="5" fill="green" stroke="none" /><circle cx="2663" cy="723" r="5" fill="green" stroke="none" /><circle cx="4337" cy="938" r="5" fill="green" stroke="none" /><circle cx="2022" cy="1580" r="5" fill="green" stroke="none" /><circle cx="5688" cy="2007" r="5" fill="green" stroke="none" /><circle cx="6115" cy="1519" r="5" fill="green" stroke="none" /><circle cx="4782" cy="741" r="5" fill="green" stroke="none" /><circle cx="5223" cy="1201" r="5" fill="green" stroke="none" /><circle cx="2167" cy="1827" r="5" fill="green" stroke="none" /><circle cx="2086" cy="76" r="5" fill="green" stroke="none" /><circle cx="2999" cy="1783" r="5" fill="green" stroke="none" /><circle cx="6062" cy="981" r="5" fill="green" stroke="none" /><circle cx="6133" cy="1816" r="5" fill="green" stroke="none" /><circle cx="5060" cy="2163" r="5" fill="green" stroke="none" /><circle cx="618" cy="273" r="5" fill="green" stroke="none" /><circle cx="1664" cy="2234" r="5" fill="green" stroke="none" /><circle cx="391" cy="1563" r="5" fill="green" stroke="none" /><circle cx="5286" cy="44" r="5" fill="green" stroke="none" /><circle cx="1138" cy="863" r="5" fill="green" stroke="none" /><circle cx="4279" cy="1040" r="5" fill="green" stroke="none" /><circle cx="6777" cy="290" r="5" fill="green" stroke="none" /><circle cx="396" cy="1288" r="5" fill="green" stroke="none" /><circle cx="3173" cy="807" r="5" fill="green" stroke="none" /><circle cx="4977" cy="227" r="5" fill="green" stroke="none" /><circle cx="939" cy="1710" r="5" fill="green" stroke="none" /><circle cx="2599" cy="991" r="5" fill="green" stroke="none" /><circle cx="3986" cy="2286" r="5" fill="green" stroke="none" /><circle cx="7334" cy="2231" r="5" fill="green" stroke="none" /><circle cx="5372" cy="311" r="5" fill="green" stroke="none" /><circle cx="7159" cy="805" r="5" fill="green" stroke="none" /><circle cx="4749" cy="1875" r="5" fill="green" stroke="none" /><circle cx="1707" cy="1859" r="5" fill="green" stroke="none" /><circle cx="799" cy="285" r="5" fill="green" stroke="none" /><circle cx="3228" cy="1679" r="5" fill="green" stroke="none" /><circle cx="127" cy="581" r="5" fill="green" stroke="none" /><circle cx="6867" cy="1241" r="5" fill="green" stroke="none" /><circle cx="6233" cy="2313" r="5" fill="green" stroke="none" /><circle cx="6331" cy="2357" r="5" fill="green" stroke="none" /><circle cx="14" cy="8" r="5" fill="green" stroke="none" /><circle cx="1005" cy="243" r="5" fill="green" stroke="none" /><circle cx="3502" cy="840" r="5" fill="green" stroke="none" /><circle cx="4080" cy="1509" r="5" fill="green" stroke="none" /><circle cx="4143" cy="882" r="5" fill="green" stroke="none" /><circle cx="1667" cy="924" r="5" fill="green" stroke="none" /><circle cx="1336" cy="716" r="5" fill="green" stroke="none" /><circle cx="3308" cy="288" r="5" fill="green" stroke="none" /><circle cx="4741" cy="1176" r="5" fill="green" stroke="none" /><circle cx="1337" cy="465" r="5" fill="green" stroke="none" /><circle cx="1828" cy="83" r="5" fill="green" stroke="none" /><circle cx="1532" cy="2364" r="5" fill="green" stroke="none" /><circle cx="3765" cy="944" r="5" fill="green" stroke="none" /><circle cx="5630" cy="1840" r="5" fill="green" stroke="none" /><circle cx="3579" cy="1702" r="5" fill="green" stroke="none" /><circle cx="3421" cy="114" r="5" fill="green" stroke="none" /><circle cx="5481" cy="1654" r="5" fill="green" stroke="none" /><circle cx="4247" cy="2116" r="5" fill="green" stroke="none" /><circle cx="2826" cy="718" r="5" fill="green" stroke="none" /><circle cx="1734" cy="1520" r="5" fill="green" stroke="none" /><circle cx="6760" cy="1360" r="5" fill="green" stroke="none" /><circle cx="5227" cy="2195" r="5" fill="green" stroke="none" /><circle cx="4558" cy="1388" r="5" fill="green" stroke="none" /><circle cx="3998" cy="394" r="5" fill="green" stroke="none" /><circle cx="2725" cy="2270" r="5" fill="green" stroke="none" /><circle cx="3813" cy="856" r="5" fill="green" stroke="none" /><circle cx="1291" cy="2246" r="5" fill="green" stroke="none" /><circle cx="2416" cy="1671" r="5" fill="green" stroke="none" /><circle cx="2155" cy="1453" r="5" fill="green" stroke="none" /><circle cx="2409" cy="315" r="5" fill="green" stroke="none" /><circle cx="4394" cy="11" r="5" fill="green" stroke="none" /><circle cx="1026" cy="91" r="5" fill="green" stroke="none" /><circle cx="4988" cy="1186" r="5" fill="green" stroke="none" /><circle cx="6797" cy="39" r="5" fill="green" stroke="none" /><circle cx="4078" cy="2176" r="5" fill="green" stroke="none" /><circle cx="62" cy="1243" r="5" fill="green" stroke="none" /><circle cx="99" cy="2202" r="5" fill="green" stroke="none" /><circle cx="3540" cy="1367" r="5" fill="green" stroke="none" /><circle cx="4536" cy="1952" r="5" fill="green" stroke="none" /><circle cx="5604" cy="381" r="5" fill="green" stroke="none" /><circle cx="946" cy="2231" r="5" fill="green" stroke="none" /><circle cx="4707" cy="2063" r="5" fill="green" stroke="none" /><circle cx="742" cy="767" r="5" fill="green" stroke="none" /><circle cx="460" cy="2076" r="5" fill="green" stroke="none" /><circle cx="5637" cy="1060" r="5" fill="green" stroke="none" /><circle cx="2182" cy="1630" r="5" fill="green" stroke="none" /><circle cx="782" cy="1079" r="5" fill="green" stroke="none" /><circle cx="4412" cy="1152" r="5" fill="green" stroke="none" /><circle cx="4909" cy="503" r="5" fill="green" stroke="none" /><circle cx="5459" cy="920" r="5" fill="green" stroke="none" /><circle cx="3092" cy="1036" r="5" fill="green" stroke="none" /><circle cx="607" cy="310" r="5" fill="green" stroke="none" /><circle cx="6166" cy="826" r="5" fill="green" stroke="none" /><circle cx="3530" cy="228" r="5" fill="green" stroke="none" /><circle cx="3042" cy="1040" r="5" fill="green" stroke="none" /><circle cx="2407" cy="2006" r="5" fill="green" stroke="none" /><circle cx="3526" cy="1426" r="5" fill="green" stroke="none" /><circle cx="6041" cy="2072" r="5" fill="green" stroke="none" /><circle cx="6861" cy="2200" r="5" fill="green" stroke="none" /><circle cx="2234" cy="900" r="5" fill="green" stroke="none" /><circle cx="7379" cy="1826" r="5" fill="green" stroke="none" /><circle cx="1976" cy="537" r="5" fill="green" stroke="none" /><circle cx="4813" cy="736" r="5" fill="green" stroke="none" /><circle cx="1035" cy="965" r="5" fill="green" stroke="none" /><circle cx="6320" cy="2221" r="5" fill="green" stroke="none" /><circle cx="2841" cy="465" r="5" fill="green" stroke="none" /><circle cx="1653" cy="230" r="5" fill="green" stroke="none" /><circle cx="1686" cy="2234" r="5" fill="green" stroke="none" /><circle cx="5333" cy="2165" r="5" fill="green" stroke="none" /><circle cx="3839" cy="1279" r="5" fill="green" stroke="none" /><circle cx="7071" cy="1850" r="5" fill="green" stroke="none" /><circle cx="662" cy="1598" r="5" fill="green" stroke="none" /><circle cx="738" cy="2246" r="5" fill="green" stroke="none" /><circle cx="3286" cy="435" r="5" fill="green" stroke="none" /><circle cx="7102" cy="1351" r="5" fill="green" stroke="none" /><circle cx="3753" cy="2006" r="5" fill="green" stroke="none" /><circle cx="4128" cy="462" r="5" fill="green" stroke="none" /><circle cx="1146" cy="2164" r="5" fill="green" stroke="none" /><circle cx="3983" cy="1679" r="5" fill="green" stroke="none" /><circle cx="6467" cy="1121" r="5" fill="green" stroke="none" /><circle cx="3532" cy="979" r="5" fill="green" stroke="none" /><circle cx="1766" cy="1316" r="5" fill="green" stroke="none" /><circle cx="5782" cy="2067" r="5" fill="green" stroke="none" /><circle cx="1485" cy="1051" r="5" fill="green" stroke="none" /><circle cx="3766" cy="1933" r="5" fill="green" stroke="none" /><circle cx="4371" cy="537" r="5" fill="green" stroke="none" /><circle cx="3238" cy="1415" r="5" fill="green" stroke="none" /><circle cx="1790" cy="508" r="5" fill="green" stroke="none" /><circle cx="1102" cy="605" r="5" fill="green" stroke="none" /><circle cx="4743" cy="208" r="5" fill="green" stroke="none" /><circle cx="6358" cy="1259" r="5" fill="green" stroke="none" /><circle cx="1452" cy="1531" r="5" fill="green" stroke="none" /><circle cx="2411" cy="2014" r="5" fill="green" stroke="none" /><circle cx="4637" cy="3" r="5" fill="green" stroke="none" /><circle cx="2902" cy="2206" r="5" fill="green" stroke="none" /><circle cx="1627" cy="571" r="5" fill="green" stroke="none" /><circle cx="6493" cy="28" r="5" fill="green" stroke="none" /><circle cx="3462" cy="1074" r="5" fill="green" stroke="none" /><circle cx="6829" cy="1579" r="5" fill="green" stroke="none" /><circle cx="3764" cy="1893" r="5" fill="green" stroke="none" /><circle cx="6902" cy="1752" r="5" fill="green" stroke="none" /><circle cx="891" cy="134" r="5" fill="green" stroke="none" /><circle cx="3929" cy="2302" r="5" fill="green" stroke="none" /><circle cx="750" cy="2303" r="5" fill="green" stroke="none" /><circle cx="4643" cy="127" r="5" fill="green" stroke="none" /><circle cx="1234" cy="122" r="5" fill="green" stroke="none" /><circle cx="4655" cy="1948" r="5" fill="green" stroke="none" /><circle cx="4832" cy="1341" r="5" fill="green" stroke="none" /><circle cx="3062" cy="1562" r="5" fill="green" stroke="none" /><circle cx="3104" cy="56" r="5" fill="green" stroke="none" /><circle cx="6133" cy="1117" r="5" fill="green" stroke="none" /><circle cx="3058" cy="386" r="5" fill="green" stroke="none" /><circle cx="5606" cy="883" r="5" fill="green" stroke="none" /><circle cx="5868" cy="1500" r="5" fill="green" stroke="none" /><circle cx="1793" cy="1770" r="5" fill="green" stroke="none" /><circle cx="3451" cy="633" r="5" fill="green" stroke="none" /><circle cx="3801" cy="869" r="5" fill="green" stroke="none" /><circle cx="3976" cy="1933" r="5" fill="green" stroke="none" /><circle cx="6390" cy="1761" r="5" fill="green" stroke="none" /><circle cx="5782" cy="1139" r="5" fill="green" stroke="none" /><circle cx="5122" cy="430" r="5" fill="green" stroke="none" /><circle cx="2198" cy="671" r="5" fill="green" stroke="none" /><circle cx="7148" cy="384" r="5" fill="green" stroke="none" /><circle cx="1476" cy="727" r="5" fill="green" stroke="none" /><circle cx="3250" cy="1871" r="5" fill="green" stroke="none" /><circle cx="2643" cy="1245" r="5" fill="green" stroke="none" /><circle cx="6191" cy="1949" r="5" fill="green" stroke="none" /><circle cx="6450" cy="274" r="5" fill="green" stroke="none" /><circle cx="2243" cy="682" r="5" fill="green" stroke="none" /><circle cx="5887" cy="1508" r="5" fill="green" stroke="none" /><circle cx="296" cy="2297" r="5" fill="green" stroke="none" /><circle cx="901" cy="2098" r="5" fill="green" stroke="none" /><circle cx="3206" cy="1830" r="5" fill="green" stroke="none" /><circle cx="743" cy="626" r="5" fill="green" stroke="none" /><circle cx="428" cy="1513" r="5" fill="green" stroke="none" /><circle cx="6703" cy="24" r="5" fill="green" stroke="none" /><circle cx="4092" cy="1029" r="5" fill="green" stroke="none" /><circle cx="1840" cy="240" r="5" fill="green" stroke="none" /><circle cx="7150" cy="1168" r="5" fill="green" stroke="none" /><circle cx="1741" cy="1505" r="5" fill="green" stroke="none" /><circle cx="694" cy="2186" r="5" fill="green" stroke="none" /><circle cx="4177" cy="1932" r="5" fill="green" stroke="none" /><circle cx="4824" cy="24" r="5" fill="green" stroke="none" /><circle cx="791" cy="615" r="5" fill="green" stroke="none" /><circle cx="1936" cy="2176" r="5" fill="green" stroke="none" /><circle cx="3225" cy="1418" r="5" fill="green" stroke="none" /><circle cx="5871" cy="2165" r="5" fill="green" stroke="none" /><circle cx="4496" cy="443" r="5" fill="green" stroke="none" /><circle cx="6941" cy="368" r="5" fill="green" stroke="none" /><circle cx="3333" cy="489" r="5" fill="green" stroke="none" /><circle cx="1434" cy="924" r="5" fill="green" stroke="none" /><circle cx="3276" cy="311" r="5" fill="green" stroke="none" /><circle cx="1459" cy="1129" r="5" fill="green" stroke="none" /><circle cx="301" cy="892" r="5" fill="green" stroke="none" /><circle cx="4192" cy="2083" r="5" fill="green" stroke="none" /><circle cx="2753" cy="781" r="5" fill="green" stroke="none" /><circle cx="2524" cy="637" r="5" fill="green" stroke="none" /><circle cx="4480" cy="819" r="5" fill="green" stroke="none" /><circle cx="5371" cy="1312" r="5" fill="green" stroke="none" /><circle cx="5498" cy="2031" r="5" fill="green" stroke="none" /><circle cx="3545" cy="648" r="5" fill="green" stroke="none" /><circle cx="62" cy="332" r="5" fill="green" stroke="none" /><circle cx="33" cy="1648" r="5" fill="green" stroke="none" /><circle cx="2918" cy="301" r="5" fill="green" stroke="none" /><circle cx="3742" cy="715" r="5" fill="green" stroke="none" /><circle cx="6466" cy="272" r="5" fill="green" stroke="none" /><circle cx="1313" cy="2155" r="5" fill="green" stroke="none" /><circle cx="2794" cy="1907" r="5" fill="green" stroke="none" /><circle cx="4309" cy="258" r="5" fill="green" stroke="none" /><circle cx="2967" cy="12" r="5" fill="green" stroke="none" /><circle cx="2558" cy="922" r="5" fill="green" stroke="none" /><circle cx="3953" cy="1354" r="5" fill="green" stroke="none" /><circle cx="3156" cy="396" r="5" fill="green" stroke="none" /><circle cx="4509" cy="1225" r="5" fill="green" stroke="none" /><circle cx="7364" cy="919" r="5" fill="green" stroke="none" /><circle cx="5770" cy="967" r="5" fill="green" stroke="none" /><circle cx="1396" cy="2027" r="5" fill="green" stroke="none" /><circle cx="3457" cy="1034" r="5" fill="green" stroke="none" /><circle cx="2605" cy="1970" r="5" fill="green" stroke="none" /><circle cx="5314" cy="135" r="5" fill="green" stroke="none" /><circle cx="7309" cy="1377" r="5" fill="green" stroke="none" /><circle cx="7135" cy="2353" r="5" fill="green" stroke="none" /><circle cx="2782" cy="1604" r="5" fill="green" stroke="none" /><circle cx="896" cy="770" r="5" fill="green" stroke="none" /><circle cx="1061" cy="1732" r="5" fill="green" stroke="none" /><circle cx="1841" cy="1923" r="5" fill="green" stroke="none" /><circle cx="4126" cy="282" r="5" fill="green" stroke="none" /><circle cx="1840" cy="1901" r="5" fill="green" stroke="none" /><circle cx="5912" cy="897" r="5" fill="green" stroke="none" /><circle cx="3877" cy="965" r="5" fill="green" stroke="none" /><circle cx="578" cy="2122" r="5" fill="green" stroke="none" /><circle cx="5218" cy="1235" r="5" fill="green" stroke="none" /><circle cx="2416" cy="1792" r="5" fill="green" stroke="none" /><circle cx="7208" cy="1937" r="5" fill="green" stroke="none" /><circle cx="5786" cy="1729" r="5" fill="green" stroke="none" /><circle cx="1001" cy="2240" r="5" fill="green" stroke="none" /><circle cx="298" cy="53" r="5" fill="green" stroke="none" /><circle cx="7242" cy="2175" r="5" fill="green" stroke="none" /><circle cx="620" cy="589" r="5" fill="green" stroke="none" /><circle cx="5688" cy="395" r="5" fill="green" stroke="none" /><circle cx="6867" cy="1367" r="5" fill="green" stroke="none" /><circle cx="3235" cy="272" r="5" fill="green" stroke="none" /><circle cx="2597" cy="575" r="5" fill="green" stroke="none" /><circle cx="2266" cy="2086" r="5" fill="green" stroke="none" /><circle cx="899" cy="2286" r="5" fill="green" stroke="none" /><circle cx="70" cy="793" r="5" fill="green" stroke="none" /><circle cx="1928" cy="943" r="5" fill="green" stroke="none" /><circle cx="6357" cy="2311" r="5" fill="green" stroke="none" /><circle cx="7017" cy="961" r="5" fill="green" stroke="none" /><circle cx="3336" cy="52" r="5" fill="green" stroke="none" /><circle cx="322" cy="755" r="5" fill="green" stroke="none" /><circle cx="1362" cy="470" r="5" fill="green" stroke="none" /><circle cx="6789" cy="226" r="5" fill="green" stroke="none" /><circle cx="2545" cy="628" r="5" fill="green" stroke="none" /><circle cx="6638" cy="1580" r="5" fill="green" stroke="none" /><circle cx="6648" cy="878" r="5" fill="green" stroke="none" /><circle cx="7336" cy="918" r="5" fill="green" stroke="none" /><circle cx="5956" cy="2169" r="5" fill="green" stroke="none" /><circle cx="2943" cy="1830" r="5" fill="green" stroke="none" /><circle cx="1353" cy="1493" r="5" fill="green" stroke="none" /><circle cx="1471" cy="2052" r="5" fill="green" stroke="none" /><circle cx="5664" cy="2058" r="5" fill="green" stroke="none" /><circle cx="1567" cy="1685" r="5" fill="green" stroke="none" /><circle cx="3951" cy="1118" r="5" fill="green" stroke="none" /><circle cx="3914" cy="560" r="5" fill="green" stroke="none" /><circle cx="7091" cy="972" r="5" fill="green" stroke="none" /><circle cx="2440" cy="1952" r="5" fill="green" stroke="none" /><circle cx="1462" cy="1271" r="5" fill="green" stroke="none" /><circle cx="6227" cy="1086" r="5" fill="green" stroke="none" /><circle cx="2845" cy="1349" r="5" fill="green" stroke="none" /><circle cx="656" cy="90" r="5" fill="green" stroke="none" /><circle cx="5236" cy="2264" r="5" fill="green" stroke="none" /><circle cx="5779" cy="2099" r="5" fill="green" stroke="none" /><circle cx="4855" cy="2147" r="5" fill="green" stroke="none" /><circle cx="3089" cy="2039" r="5" fill="green" stroke="none" /><circle cx="909" cy="1711" r="5" fill="green" stroke="none" /><circle cx="5132" cy="12" r="5" fill="green" stroke="none" /></svg>