<svg viewBox="0 0 4200 6234" xmlns="http://www.w3.org/2000/svg"><rect x="0" y="0" width="4200" height="6234" fill="lightyellow" stroke="none "/><rect x="1076" y="2930" width="198" height="909" fill="white" stroke="black "/><circle cx="1582" cy="150" r="5" fill="green" stroke="none" /><circle cx="3814" cy="2004" r="5" fill="green" stroke="none" /><circle cx="3392" cy="5462" r="5" fill="green" stroke="none" /><circle cx="2032" cy="487" r="5" fill="green" stroke="none" /><circle cx="2483" cy="4550" r="5" fill="green" stroke="none" /><circle cx="282" cy="3882" r="5" fill="green" stroke="none" /><circle cx="1638" cy="1958" r="5" fill="green" stroke="none" /><circle cx="1806" cy="3848" r="5" fill="green" stroke="none" /><circle cx="4094" cy="4493" r="5" fill="green" stroke="none" /><circle cx="2678" cy="1020" r="5" fill="green" stroke="none" /><circle cx="1361" cy="5292" r="5" fill="green" stroke="none" /><circle cx="3001" cy="2822" r="5" fill="green" stroke="none" /><circle cx="2924" cy="4828" r="5" fill="green" stroke="none" /><circle cx="2726" cy="4014" r="5" fill="green" stroke="none" /><circle cx="2583" cy="2677" r="5" fill="green" stroke="none" /><circle cx="3931" cy="2117" r="5" fill="green" stroke="none" /><circle cx="2323" cy="2096" r="5" fill="green" stroke="none" /><circle cx="2771" cy="861" r="5" fill="green" stroke="none" /><circle cx="2092" cy="915" r="5" fill="green" stroke="none" /><circle cx="3894" cy="6229" r="5" fill="green" stroke="none" /><circle cx="4025" cy="3569" r="5" fill="green" stroke="none" /><circle cx="410" cy="6084" r="5" fill="green" stroke="none" /><circle cx="1633" cy="5848" r="5" fill="green" stroke="none" /><circle cx="2596" cy="3585" r="5" fill="green" stroke="none" /><circle cx="1621" cy="4320" r="5" fill="green" stroke="none" /><circle cx="1120" cy="4262" r="5" fill="green" stroke="none" /><circle cx="2296" cy="1439" r="5" fill="green" stroke="none" /><circle cx="2855" cy="22" r="5" fill="green" stroke="none" /><circle cx="2503" cy="971" r="5" fill="green" stroke="none" /><circle cx="1499" cy="4762" r="5" fill="green" stroke="none" /><circle cx="3436" cy="2364" r="5" fill="green" stroke="none" /><circle cx="1872" cy="5418" r="5" fill="green" stroke="none" /><circle cx="2272" cy="4101" r="5" fill="green" stroke="none" /><circle cx="333" cy="694" r="5" fill="green" stroke="none" /><circle cx="1146" cy="4307" r="5" fill="green" stroke="none" /><circle cx="2154" cy="1834" r="5" fill="green" stroke="none" /><circle cx="2467" cy="4831" r="5" fill="green" stroke="none" /><circle cx="2777" cy="1465" r="5" fill="green" stroke="none" /><circle cx="1645" cy="1990" r="5" fill="green" stroke="none" /><circle cx="3674" cy="1838" r="5" fill="green" stroke="none" /><circle cx="1554" cy="5149" r="5" fill="green" stroke="none" /><circle cx="1841" cy="3140" r="5" fill="green" stroke="none" /><circle cx="1230" cy="1661" r="5" fill="green" stroke="none" /><circle cx="1527" cy="5785" r="5" fill="green" stroke="none" /><circle cx="4189" cy="3429" r="5" fill="green" stroke="none" /><circle cx="3934" cy="4855" r="5" fill="green" stroke="none" /><circle cx="505" cy="1716" r="5" fill="green" stroke="none" /><circle cx="3841" cy="4903" r="5" fill="green" stroke="none" /><circle cx="409" cy="6153" r="5" fill="green" stroke="none" /><circle cx="1258" cy="5089" r="5" fill="green" stroke="none" /><circle cx="1907" cy="1775" r="5" fill="green" stroke="none" /><circle cx="2192" cy="739" r="5" fill="green" stroke="none" /><circle cx="404" cy="3425" r="5" fill="green" stroke="none" /><circle cx="2417" cy="4267" r="5" fill="green" stroke="none" /><circle cx="421" cy="3590" r="5" fill="green" stroke="none" /><circle cx="4196" cy="5252" r="5" fill="green" stroke="none" /><circle cx="2642" cy="4538" r="5" fill="green" stroke="none" /><circle cx="4097" cy="4127" r="5" fill="green" stroke="none" /><circle cx="3008" cy="2015" r="5" fill="green" stroke="none" /><circle cx="1258" cy="4546" r="5" fill="green" stroke="none" /><circle cx="42" cy="104" r="5" fill="green" stroke="none" /><circle cx="1342" cy="4150" r="5" fill="green" stroke="none" /><circle cx="1661" cy="2182" r="5" fill="green" stroke="none" /><circle cx="647" cy="2357" r="5" fill="green" stroke="none" /><circle cx="764" cy="2298" r="5" fill="green" stroke="none" /><circle cx="2380" cy="2783" r="5" fill="green" stroke="none" /><circle cx="740" cy="2450" r="5" fill="green" stroke="none" /><circle cx="3796" cy="4405" r="5" fill="green" stroke="none" /><circle cx="1953" cy="4815" r="5" fill="green" stroke="none" /><circle cx="3108" cy="3759" r="5" fill="green" stroke="none" /><circle cx="3932" cy="3730" r="5" fill="green" stroke="none" /><circle cx="3895" cy="3830" r="5" fill="green" stroke="none" /><circle cx="872" cy="1931" r="5" fill="green" stroke="none" /><circle cx="3164" cy="277" r="5" fill="green" stroke="none" /><circle cx="917" cy="4447" r="5" fill="green" stroke="none" /><circle cx="4056" cy="1190" r="5" fill="green" stroke="none" /><circle cx="3675" cy="3888" r="5" fill="green" stroke="none" /><circle cx="2317" cy="3504" r="5" fill="green" stroke="none" /><circle cx="525" cy="5750" r="5" fill="green" stroke="none" /><circle cx="2904" cy="5163" r="5" fill="green" stroke="none" /><circle cx="2802" cy="6209" r="5" fill="green" stroke="none" /><circle cx="4096" cy="5598" r="5" fill="green" stroke="none" /><circle cx="655" cy="658" r="5" fill="green" stroke="none" /><circle cx="1854" cy="1192" r="5" fill="green" stroke="none" /><circle cx="868" cy="3670" r="5" fill="green" stroke="none" /><circle cx="2541" cy="2117" r="5" fill="green" stroke="none" /><circle cx="1320" cy="3000" r="5" fill="green" stroke="none" /><circle cx="2172" cy="2439" r="5" fill="green" stroke="none" /><circle cx="814" cy="2829" r="5" fill="green" stroke="none" /><circle cx="3289" cy="567" r="5" fill="green" stroke="none" /><circle cx="3648" cy="2730" r="5" fill="green" stroke="none" /><circle cx="155" cy="1127" r="5" fill="green" stroke="none" /><circle cx="930" cy="185" r="5" fill="green" stroke="none" /><circle cx="3616" cy="1618" r="5" fill="green" stroke="none" /><circle cx="1338" cy="3273" r="5" fill="green" stroke="none" /><circle cx="2066" cy="5428" r="5" fill="green" stroke="none" /><circle cx="2996" cy="4993" r="5" fill="green" stroke="none" /><circle cx="3248" cy="4257" r="5" fill="green" stroke="none" /><circle cx="4139" cy="5079" r="5" fill="green" stroke="none" /><circle cx="1118" cy="473" r="5" fill="green" stroke="none" /><circle cx="1236" cy="4111" r="5" fill="green" stroke="none" /><circle cx="1371" cy="3505" r="5" fill="green" stroke="none" /><circle cx="2716" cy="45" r="5" fill="green" stroke="none" /><circle cx="3642" cy="1000" r="5" fill="green" stroke="none" /><circle cx="2665" cy="1758" r="5" fill="green" stroke="none" /><circle cx="408" cy="703" r="5" fill="green" stroke="none" /><circle cx="704" cy="458" r="5" fill="green" stroke="none" /><circle cx="3468" cy="5704" r="5" fill="green" stroke="none" /><circle cx="1316" cy="5553" r="5" fill="green" stroke="none" /><circle cx="1605" cy="5756" r="5" fill="green" stroke="none" /><circle cx="3361" cy="1630" r="5" fill="green" stroke="none" /><circle cx="4075" cy="1823" r="5" fill="green" stroke="none" /><circle cx="368" cy="222" r="5" fill="green" stroke="none" /><circle cx="3236" cy="3847" r="5" fill="green" stroke="none" /><circle cx="2420" cy="1948" r="5" fill="green" stroke="none" /><circle cx="302" cy="5686" r="5" fill="green" stroke="none" /><circle cx="959" cy="4176" r="5" fill="green" stroke="none" /><circle cx="1771" cy="3760" r="5" fill="green" stroke="none" /><circle cx="2414" cy="6122" r="5" fill="green" stroke="none" /><circle cx="1796" cy="5940" r="5" fill="green" stroke="none" /><circle cx="68" cy="3481" r="5" fill="green" stroke="none" /><circle cx="2721" cy="4284" r="5" fill="green" stroke="none" /><circle cx="1204" cy="4626" r="5" fill="green" stroke="none" /><circle cx="2500" cy="5611" r="5" fill="green" stroke="none" /><circle cx="659" cy="6057" r="5" fill="green" stroke="none" /><circle cx="318" cy="4864" r="5" fill="green" stroke="none" /><circle cx="734" cy="3534" r="5" fill="green" stroke="none" /><circle cx="3944" cy="599" r="5" fill="green" stroke="none" /><circle cx="1107" cy="1507" r="5" fill="green" stroke="none" /><circle cx="3013" cy="3166" r="5" fill="green" stroke="none" /><circle cx="1337" cy="3746" r="5" fill="green" stroke="none" /><circle cx="3717" cy="3141" r="5" fill="green" stroke="none" /><circle cx="533" cy="4551" r="5" fill="green" stroke="none" /><circle cx="1139" cy="6001" r="5" fill="green" stroke="none" /><circle cx="3979" cy="3598" r="5" fill="green" stroke="none" /><circle cx="2653" cy="2782" r="5" fill="green" stroke="none" /><circle cx="2532" cy="3917" r="5" fill="green" stroke="none" /><circle cx="118" cy="4289" r="5" fill="green" stroke="none" /><circle cx="2586" cy="719" r="5" fill="green" stroke="none" /><circle cx="1361" cy="2416" r="5" fill="green" stroke="none" /><circle cx="662" cy="5550" r="5" fill="green" stroke="none" /><circle cx="758" cy="3171" r="5" fill="green" stroke="none" /><circle cx="1994" cy="2321" r="5" fill="green" stroke="none" /><circle cx="821" cy="355" r="5" fill="green" stroke="none" /><circle cx="247" cy="1507" r="5" fill="green" stroke="none" /><circle cx="589" cy="2088" r="5" fill="green" stroke="none" /><circle cx="2925" cy="570" r="5" fill="green" stroke="none" /><circle cx="1321" cy="1923" r="5" fill="green" stroke="none" /><circle cx="4138" cy="4490" r="5" fill="green" stroke="none" /><circle cx="1343" cy="5660" r="5" fill="green" stroke="none" /><circle cx="948" cy="2295" r="5" fill="green" stroke="none" /><circle cx="522" cy="3033" r="5" fill="green" stroke="none" /><circle cx="555" cy="3243" r="5" fill="green" stroke="none" /><circle cx="2191" cy="2388" r="5" fill="green" stroke="none" /><circle cx="577" cy="3760" r="5" fill="green" stroke="none" /><circle cx="3949" cy="121" r="5" fill="green" stroke="none" /><circle cx="3407" cy="667" r="5" fill="green" stroke="none" /><circle cx="3732" cy="6071" r="5" fill="green" stroke="none" /><circle cx="2927" cy="3207" r="5" fill="green" stroke="none" /><circle cx="778" cy="1213" r="5" fill="green" stroke="none" /><circle cx="2869" cy="390" r="5" fill="green" stroke="none" /><circle cx="3421" cy="578" r="5" fill="green" stroke="none" /><circle cx="1217" cy="4910" r="5" fill="green" stroke="none" /><circle cx="3829" cy="4327" r="5" fill="green" stroke="none" /><circle cx="2574" cy="2358" r="5" fill="green" stroke="none" /><circle cx="3262" cy="1113" r="5" fill="green" stroke="none" /><circle cx="1585" cy="2747" r="5" fill="green" stroke="none" /><circle cx="2037" cy="4027" r="5" fill="green" stroke="none" /><circle cx="1549" cy="1872" r="5" fill="green" stroke="none" /><circle cx="3565" cy="6127" r="5" fill="green" stroke="none" /><circle cx="3943" cy="3224" r="5" fill="green" stroke="none" /><circle cx="3064" cy="3339" r="5" fill="green" stroke="none" /><circle cx="450" cy="3554" r="5" fill="green" stroke="none" /><circle cx="2006" cy="4321" r="5" fill="green" stroke="none" /><circle cx="3398" cy="1374" r="5" fill="green" stroke="none" /><circle cx="1413" cy="3971" r="5" fill="green" stroke="none" /><circle cx="1440" cy="5740" r="5" fill="green" stroke="none" /><circle cx="2315" cy="5124" r="5" fill="green" stroke="none" /><circle cx="3416" cy="2595" r="5" fill="green" stroke="none" /><circle cx="2998" cy="1688" r="5" fill="green" stroke="none" /><circle cx="2795" cy="112" r="5" fill="green" stroke="none" /><circle cx="1987" cy="5264" r="5" fill="green" stroke="none" /><circle cx="2597" cy="5741" r="5" fill="green" stroke="none" /><circle cx="2418" cy="2753" r="5" fill="green" stroke="none" /><circle cx="1206" cy="4773" r="5" fill="green" stroke="none" /><circle cx="3043" cy="3300" r="5" fill="green" stroke="none" /><circle cx="1406" cy="5900" r="5" fill="green" stroke="none" /><circle cx="49" cy="5657" r="5" fill="green" stroke="none" /><circle cx="614" cy="121" r="5" fill="green" stroke="none" /><circle cx="3464" cy="35" r="5" fill="green" stroke="none" /><circle cx="1137" cy="5692" r="5" fill="green" stroke="none" /><circle cx="32" cy="278" r="5" fill="green" stroke="none" /><circle cx="954" cy="905" r="5" fill="green" stroke="none" /><circle cx="4034" cy="3624" r="5" fill="green" stroke="none" /><circle cx="2941" cy="2533" r="5" fill="green" stroke="none" /><circle cx="1884" cy="2095" r="5" fill="green" stroke="none" /><circle cx="4160" cy="1349" r="5" fill="green" stroke="none" /><circle cx="1992" cy="4023" r="5" fill="green" stroke="none" /><circle cx="1783" cy="5793" r="5" fill="green" stroke="none" /><circle cx="3404" cy="4275" r="5" fill="green" stroke="none" /><circle cx="1244" cy="6131" r="5" fill="green" stroke="none" /><circle cx="307" cy="4400" r="5" fill="green" stroke="none" /><circle cx="3067" cy="202" r="5" fill="green" stroke="none" /><circle cx="878" cy="1151" r="5" fill="green" stroke="none" /><circle cx="4171" cy="4545" r="5" fill="green" stroke="none" /><circle cx="587" cy="5227" r="5" fill="green" stroke="none" /><circle cx="2362" cy="3391" r="5" fill="green" stroke="none" /><circle cx="1655" cy="3041" r="5" fill="green" stroke="none" /><circle cx="1001" cy="1980" r="5" fill="green" stroke="none" /><circle cx="22" cy="921" r="5" fill="green" stroke="none" /><circle cx="4101" cy="4404" r="5" fill="green" stroke="none" /><circle cx="3023" cy="1895" r="5" fill="green" stroke="none" /><circle cx="3186" cy="453" r="5" fill="green" stroke="none" /><circle cx="3324" cy="1837" r="5" fill="green" stroke="none" /><circle cx="571" cy="3450" r="5" fill="green" stroke="none" /><circle cx="2207" cy="5887" r="5" fill="green" stroke="none" /><circle cx="1215" cy="1916" r="5" fill="green" stroke="none" /><circle cx="2481" cy="895" r="5" fill="green" stroke="none" /><circle cx="4114" cy="1728" r="5" fill="green" stroke="none" /><circle cx="3592" cy="2678" r="5" fill="green" stroke="none" /><circle cx="659" cy="6073" r="5" fill="green" stroke="none" /><circle cx="3938" cy="6096" r="5" fill="green" stroke="none" /><circle cx="791" cy="3643" r="5" fill="green" stroke="none" /><circle cx="3065" cy="5547" r="5" fill="green" stroke="none" /><circle cx="2848" cy="4294" r="5" fill="green" stroke="none" /><circle cx="3174" cy="4538" r="5" fill="green" stroke="none" /><circle cx="2352" cy="3099" r="5" fill="green" stroke="none" /><circle cx="772" cy="1110" r="5" fill="green" stroke="none" /><circle cx="3538" cy="2566" r="5" fill="green" stroke="none" /><circle cx="3331" cy="1306" r="5" fill="green" stroke="none" /><circle cx="935" cy="1798" r="5" fill="green" stroke="none" /><circle cx="3919" cy="3368" r="5" fill="green" stroke="none" /><circle cx="3116" cy="2185" r="5" fill="green" stroke="none" /><circle cx="3347" cy="4806" r="5" fill="green" stroke="none" /><circle cx="3163" cy="4941" r="5" fill="green" stroke="none" /><circle cx="3736" cy="4417" r="5" fill="green" stroke="none" /><circle cx="342" cy="4879" r="5" fill="green" stroke="none" /><circle cx="1069" cy="5725" r="5" fill="green" stroke="none" /><circle cx="1519" cy="2106" r="5" fill="green" stroke="none" /><circle cx="3567" cy="2872" r="5" fill="green" stroke="none" /><circle cx="2398" cy="6098" r="5" fill="green" stroke="none" /><circle cx="1704" cy="2234" r="5" fill="green" stroke="none" /><circle cx="480" cy="1722" r="5" fill="green" stroke="none" /><circle cx="2140" cy="1348" r="5" fill="green" stroke="none" /><circle cx="247" cy="970" r="5" fill="green" stroke="none" /><circle cx="699" cy="6174" r="5" fill="green" stroke="none" /><circle cx="2533" cy="2739" r="5" fill="green" stroke="none" /><circle cx="2474" cy="1967" r="5" fill="green" stroke="none" /><circle cx="420" cy="861" r="5" fill="green" stroke="none" /><circle cx="636" cy="2964" r="5" fill="green" stroke="none" /><circle cx="2035" cy="2430" r="5" fill="green" stroke="none" /><circle cx="1805" cy="2961" r="5" fill="green" stroke="none" /><circle cx="373" cy="750" r="5" fill="green" stroke="none" /><circle cx="2152" cy="2986" r="5" fill="green" stroke="none" /><circle cx="2479" cy="84" r="5" fill="green" stroke="none" /><circle cx="148" cy="6140" r="5" fill="green" stroke="none" /><circle cx="1335" cy="4685" r="5" fill="green" stroke="none" /><circle cx="1846" cy="1955" r="5" fill="green" stroke="none" /><circle cx="3962" cy="5552" r="5" fill="green" stroke="none" /><circle cx="1528" cy="725" r="5" fill="green" stroke="none" /><circle cx="4068" cy="5736" r="5" fill="green" stroke="none" /><circle cx="113" cy="2257" r="5" fill="green" stroke="none" /><circle cx="841" cy="2583" r="5" fill="green" stroke="none" /><circle cx="3049" cy="4151" r="5" fill="green" stroke="none" /><circle cx="3502" cy="6038" r="5" fill="green" stroke="none" /><circle cx="321" cy="90" r="5" fill="green" stroke="none" /><circle cx="3997" cy="812" r="5" fill="green" stroke="none" /><circle cx="2916" cy="5068" r="5" fill="green" stroke="none" /><circle cx="1160" cy="2517" r="5" fill="green" stroke="none" /><circle cx="3932" cy="4569" r="5" fill="green" stroke="none" /><circle cx="3790" cy="5988" r="5" fill="green" stroke="none" /><circle cx="2143" cy="6159" r="5" fill="green" stroke="none" /><circle cx="2771" cy="5901" r="5" fill="green" stroke="none" /><circle cx="1468" cy="60" r="5" fill="green" stroke="none" /><circle cx="3205" cy="3298" r="5" fill="green" stroke="none" /><circle cx="1683" cy="963" r="5" fill="green" stroke="none" /><circle cx="2427" cy="5345" r="5" fill="green" stroke="none" /><circle cx="2234" cy="6231" r="5" fill="green" stroke="none" /><circle cx="3847" cy="1112" r="5" fill="green" stroke="none" /><circle cx="3870" cy="1887" r="5" fill="green" stroke="none" /><circle cx="3013" cy="4824" r="5" fill="green" stroke="none" /><circle cx="3361" cy="4381" r="5" fill="green" stroke="none" /><circle cx="1143" cy="2882" r="5" fill="green" stroke="none" /><circle cx="1138" cy="598" r="5" fill="green" stroke="none" /><circle cx="1645" cy="2156" r="5" fill="green" stroke="none" /><circle cx="497" cy="4152" r="5" fill="green" stroke="none" /><circle cx="822" cy="829" r="5" fill="green" stroke="none" /><circle cx="1329" cy="1630" r="5" fill="green" stroke="none" /><circle cx="2704" cy="3348" r="5" fill="green" stroke="none" /><circle cx="1749" cy="5593" r="5" fill="green" stroke="none" /><circle cx="2237" cy="5424" r="5" fill="green" stroke="none" /><circle cx="1499" cy="3927" r="5" fill="green" stroke="none" /><circle cx="773" cy="3525" r="5" fill="green" stroke="none" /><circle cx="2310" cy="3821" r="5" fill="green" stroke="none" /><circle cx="1542" cy="1402" r="5" fill="green" stroke="none" /><circle cx="4124" cy="192" r="5" fill="green" stroke="none" /><circle cx="580" cy="1439" r="5" fill="green" stroke="none" /><circle cx="309" cy="4771" r="5" fill="green" stroke="none" /><circle cx="505" cy="4977" r="5" fill="green" stroke="none" /><circle cx="133" cy="2397" r="5" fill="green" stroke="none" /></svg>