<svg viewBox="0 0 6168 1514" xmlns="http://www.w3.org/2000/svg"><rect x="0" y="0" width="6168" height="1514" fill="lightyellow" stroke="none "/><rect x="443" y="1122" width="1231" height="326" fill="white" stroke="black "/><circle cx="3011" cy="523" r="5" fill="green" stroke="none" /><circle cx="2126" cy="786" r="5" fill="green" stroke="none" /><circle cx="1790" cy="519" r="5" fill="green" stroke="none" /><circle cx="1196" cy="1092" r="5" fill="green" stroke="none" /><circle cx="1810" cy="1162" r="5" fill="green" stroke="none" /><circle cx="2582" cy="27" r="5" fill="green" stroke="none" /><circle cx="401" cy="137" r="5" fill="green" stroke="none" /><circle cx="419" cy="640" r="5" fill="green" stroke="none" /><circle cx="1713" cy="1339" r="5" fill="green" stroke="none" /><circle cx="3054" cy="562" r="5" fill="green" stroke="none" /><circle cx="175" cy="952" r="5" fill="green" stroke="none" /><circle cx="3262" cy="916" r="5" fill="green" stroke="none" /><circle cx="1750" cy="751" r="5" fill="green" stroke="none" /><circle cx="1947" cy="1329" r="5" fill="green" stroke="none" /><circle cx="1422" cy="287" r="5" fill="green" stroke="none" /><circle cx="387" cy="149" r="5" fill="green" stroke="none" /><circle cx="1106" cy="512" r="5" fill="green" stroke="none" /><circle cx="1206" cy="947" r="5" fill="green" stroke="none" /><circle cx="2359" cy="670" r="5" fill="green" stroke="none" /><circle cx="1493" cy="899" r="5" fill="green" stroke="none" /><circle cx="2195" cy="1139" r="5" fill="green" stroke="none" /><circle cx="149" cy="507" r="5" fill="green" stroke="none" /><circle cx="191" cy="1154" r="5" fill="green" stroke="none" /><circle cx="1888" cy="504" r="5" fill="green" stroke="none" /><circle cx="1296" cy="472" r="5" fill="green" stroke="none" /><circle cx="2863" cy="507" r="5" fill="green" stroke="none" /><circle cx="1901" cy="1155" r="5" fill="green" stroke="none" /><circle cx="2263" cy="615" r="5" fill="green" stroke="none" /><circle cx="2438" cy="947" r="5" fill="green" stroke="none" /><circle cx="1152" cy="954" r="5" fill="green" stroke="none" /><circle cx="262" cy="1415" r="5" fill="green" stroke="none" /><circle cx="1614" cy="467" r="5" fill="green" stroke="none" /><circle cx="63" cy="1355" r="5" fill="green" stroke="none" /><circle cx="2221" cy="97" r="5" fill="green" stroke="none" /><circle cx="1615" cy="896" r="5" fill="green" stroke="none" /><circle cx="1294" cy="1106" r="5" fill="green" stroke="none" /><circle cx="190" cy="78" r="5" fill="green" stroke="none" /><circle cx="1883" cy="267" r="5" fill="green" stroke="none" /><circle cx="3208" cy="906" r="5" fill="green" stroke="none" /><circle cx="2442" cy="1072" r="5" fill="green" stroke="none" /><circle cx="1991" cy="649" r="5" fill="green" stroke="none" /><circle cx="3265" cy="680" r="5" fill="green" stroke="none" /><circle cx="2184" cy="298" r="5" fill="green" stroke="none" /><circle cx="2109" cy="946" r="5" fill="green" stroke="none" /><circle cx="962" cy="786" r="5" fill="green" stroke="none" /><circle cx="687" cy="788" r="5" fill="green" stroke="none" /><circle cx="1039" cy="498" r="5" fill="green" stroke="none" /><circle cx="1048" cy="1088" r="5" fill="green" stroke="none" /><circle cx="431" cy="1334" r="5" fill="green" stroke="none" /><circle cx="3233" cy="886" r="5" fill="green" stroke="none" /><circle cx="664" cy="177" r="5" fill="green" stroke="none" /><circle cx="33" cy="1177" r="5" fill="green" stroke="none" /><circle cx="2262" cy="529" r="5" fill="green" stroke="none" /><circle cx="168" cy="1375" r="5" fill="green" stroke="none" /><circle cx="728" cy="775" r="5" fill="green" stroke="none" /><circle cx="2022" cy="1213" r="5" fill="green" stroke="none" /><circle cx="325" cy="99" r="5" fill="green" stroke="none" /><circle cx="2667" cy="1478" r="5" fill="green" stroke="none" /><circle cx="998" cy="979" r="5" fill="green" stroke="none" /><circle cx="275" cy="681" r="5" fill="green" stroke="none" /><circle cx="420" cy="1162" r="5" fill="green" stroke="none" /><circle cx="1978" cy="177" r="5" fill="green" stroke="none" /><circle cx="2860" cy="1260" r="5" fill="green" stroke="none" /><circle cx="2084" cy="1461" r="5" fill="green" stroke="none" /><circle cx="1662" cy="599" r="5" fill="green" stroke="none" /><circle cx="2748" cy="567" r="5" fill="green" stroke="none" /><circle cx="1811" cy="828" r="5" fill="green" stroke="none" /><circle cx="80" cy="37" r="5" fill="green" stroke="none" /><circle cx="1804" cy="839" r="5" fill="green" stroke="none" /><circle cx="2570" cy="536" r="5" fill="green" stroke="none" /><circle cx="51" cy="1157" r="5" fill="green" stroke="none" /><circle cx="2212" cy="169" r="5" fill="green" stroke="none" /><circle cx="3294" cy="660" r="5" fill="green" stroke="none" /><circle cx="2008" cy="1435" r="5" fill="green" stroke="none" /><circle cx="369" cy="236" r="5" fill="green" stroke="none" /><circle cx="1143" cy="304" r="5" fill="green" stroke="none" /><circle cx="1958" cy="721" r="5" fill="green" stroke="none" /><circle cx="2355" cy="781" r="5" fill="green" stroke="none" /><circle cx="136" cy="389" r="5" fill="green" stroke="none" /><circle cx="636" cy="1000" r="5" fill="green" stroke="none" /><circle cx="684" cy="479" r="5" fill="green" stroke="none" /><circle cx="3330" cy="1443" r="5" fill="green" stroke="none" /><circle cx="2046" cy="1279" r="5" fill="green" stroke="none" /><circle cx="3228" cy="637" r="5" fill="green" stroke="none" /><circle cx="643" cy="340" r="5" fill="green" stroke="none" /><circle cx="1630" cy="816" r="5" fill="green" stroke="none" /><circle cx="392" cy="1162" r="5" fill="green" stroke="none" /><circle cx="2658" cy="1347" r="5" fill="green" stroke="none" /><circle cx="2236" cy="1278" r="5" fill="green" stroke="none" /><circle cx="2503" cy="896" r="5" fill="green" stroke="none" /><circle cx="176" cy="1065" r="5" fill="green" stroke="none" /><circle cx="146" cy="230" r="5" fill="green" stroke="none" /><circle cx="244" cy="1437" r="5" fill="green" stroke="none" /><circle cx="1775" cy="546" r="5" fill="green" stroke="none" /><circle cx="3015" cy="502" r="5" fill="green" stroke="none" /><circle cx="490" cy="1457" r="5" fill="green" stroke="none" /><circle cx="1020" cy="53" r="5" fill="green" stroke="none" /><circle cx="3683" cy="320" r="5" fill="green" stroke="none" /><circle cx="312" cy="1171" r="5" fill="green" stroke="none" /><circle cx="1795" cy="61" r="5" fill="green" stroke="none" /><circle cx="698" cy="1075" r="5" fill="green" stroke="none" /><circle cx="2429" cy="744" r="5" fill="green" stroke="none" /><circle cx="1733" cy="1119" r="5" fill="green" stroke="none" /><circle cx="2197" cy="1091" r="5" fill="green" stroke="none" /><circle cx="1972" cy="809" r="5" fill="green" stroke="none" /><circle cx="2806" cy="1321" r="5" fill="green" stroke="none" /><circle cx="3522" cy="978" r="5" fill="green" stroke="none" /><circle cx="2483" cy="230" r="5" fill="green" stroke="none" /><circle cx="121" cy="351" r="5" fill="green" stroke="none" /><circle cx="2828" cy="1074" r="5" fill="green" stroke="none" /><circle cx="115" cy="1476" r="5" fill="green" stroke="none" /><circle cx="2302" cy="156" r="5" fill="green" stroke="none" /><circle cx="2768" cy="1055" r="5" fill="green" stroke="none" /><circle cx="840" cy="982" r="5" fill="green" stroke="none" /><circle cx="2792" cy="1319" r="5" fill="green" stroke="none" /><circle cx="1573" cy="265" r="5" fill="green" stroke="none" /><circle cx="1653" cy="645" r="5" fill="green" stroke="none" /><circle cx="1201" cy="17" r="5" fill="green" stroke="none" /><circle cx="2746" cy="1465" r="5" fill="green" stroke="none" /><circle cx="2557" cy="574" r="5" fill="green" stroke="none" /><circle cx="1365" cy="947" r="5" fill="green" stroke="none" /><circle cx="976" cy="1503" r="5" fill="green" stroke="none" /><circle cx="2719" cy="750" r="5" fill="green" stroke="none" /><circle cx="981" cy="1090" r="5" fill="green" stroke="none" /><circle cx="1748" cy="57" r="5" fill="green" stroke="none" /><circle cx="3207" cy="433" r="5" fill="green" stroke="none" /><circle cx="242" cy="259" r="5" fill="green" stroke="none" /><circle cx="577" cy="1048" r="5" fill="green" stroke="none" /><circle cx="54" cy="972" r="5" fill="green" stroke="none" /><circle cx="2133" cy="1444" r="5" fill="green" stroke="none" /><circle cx="1388" cy="92" r="5" fill="green" stroke="none" /><circle cx="933" cy="86" r="5" fill="green" stroke="none" /><circle cx="1531" cy="627" r="5" fill="green" stroke="none" /><circle cx="1851" cy="1091" r="5" fill="green" stroke="none" /><circle cx="738" cy="22" r="5" fill="green" stroke="none" /><circle cx="513" cy="882" r="5" fill="green" stroke="none" /><circle cx="2306" cy="1476" r="5" fill="green" stroke="none" /><circle cx="200" cy="801" r="5" fill="green" stroke="none" /><circle cx="3210" cy="1502" r="5" fill="green" stroke="none" /><circle cx="163" cy="898" r="5" fill="green" stroke="none" /><circle cx="2159" cy="622" r="5" fill="green" stroke="none" /><circle cx="1122" cy="737" r="5" fill="green" stroke="none" /><circle cx="55" cy="259" r="5" fill="green" stroke="none" /><circle cx="2542" cy="627" r="5" fill="green" stroke="none" /><circle cx="925" cy="1105" r="5" fill="green" stroke="none" /><circle cx="1784" cy="1392" r="5" fill="green" stroke="none" /><circle cx="1914" cy="811" r="5" fill="green" stroke="none" /><circle cx="1082" cy="1065" r="5" fill="green" stroke="none" /><circle cx="2212" cy="673" r="5" fill="green" stroke="none" /><circle cx="453" cy="490" r="5" fill="green" stroke="none" /><circle cx="1590" cy="154" r="5" fill="green" stroke="none" /><circle cx="123" cy="318" r="5" fill="green" stroke="none" /><circle cx="2590" cy="1060" r="5" fill="green" stroke="none" /><circle cx="760" cy="1462" r="5" fill="green" stroke="none" /><circle cx="3955" cy="942" r="5" fill="green" stroke="none" /><circle cx="907" cy="678" r="5" fill="green" stroke="none" /><circle cx="2091" cy="769" r="5" fill="green" stroke="none" /><circle cx="864" cy="815" r="5" fill="green" stroke="none" /><circle cx="2587" cy="1209" r="5" fill="green" stroke="none" /><circle cx="1239" cy="371" r="5" fill="green" stroke="none" /><circle cx="2813" cy="1181" r="5" fill="green" stroke="none" /><circle cx="1801" cy="1486" r="5" fill="green" stroke="none" /><circle cx="1089" cy="1059" r="5" fill="green" stroke="none" /><circle cx="1838" cy="61" r="5" fill="green" stroke="none" /><circle cx="288" cy="1053" r="5" fill="green" stroke="none" /><circle cx="661" cy="944" r="5" fill="green" stroke="none" /><circle cx="3421" cy="745" r="5" fill="green" stroke="none" /><circle cx="2691" cy="878" r="5" fill="green" stroke="none" /><circle cx="33" cy="1357" r="5" fill="green" stroke="none" /><circle cx="3036" cy="1101" r="5" fill="green" stroke="none" /><circle cx="967" cy="93" r="5" fill="green" stroke="none" /><circle cx="3249" cy="1502" r="5" fill="green" stroke="none" /><circle cx="2000" cy="1496" r="5" fill="green" stroke="none" /><circle cx="1825" cy="1145" r="5" fill="green" stroke="none" /><circle cx="703" cy="986" r="5" fill="green" stroke="none" /><circle cx="279" cy="1389" r="5" fill="green" stroke="none" /><circle cx="3566" cy="366" r="5" fill="green" stroke="none" /><circle cx="1308" cy="574" r="5" fill="green" stroke="none" /><circle cx="920" cy="73" r="5" fill="green" stroke="none" /><circle cx="1766" cy="1243" r="5" fill="green" stroke="none" /><circle cx="1623" cy="346" r="5" fill="green" stroke="none" /><circle cx="2487" cy="1157" r="5" fill="green" stroke="none" /><circle cx="3646" cy="683" r="35" fill="red" stroke="none" /><circle cx="5819" cy="710" r="38" fill="red" stroke="none" /><circle cx="1731" cy="1231" r="5" fill="red" stroke="none" /><circle cx="1693" cy="479" r="77" fill="red" stroke="none" /><circle cx="2073" cy="174" r="73" fill="red" stroke="none" /><circle cx="1159" cy="30" r="10" fill="red" stroke="none" /><circle cx="5410" cy="1051" r="32" fill="red" stroke="none" /><circle cx="4324" cy="837" r="50" fill="red" stroke="none" /><circle cx="1455" cy="531" r="16" fill="red" stroke="none" /><circle cx="4391" cy="1171" r="15" fill="red" stroke="none" /><circle cx="2006" cy="1075" r="56" fill="red" stroke="none" /><circle cx="4097" cy="656" r="83" fill="red" stroke="none" /><circle cx="71" cy="591" r="22" fill="red" stroke="none" /><circle cx="4554" cy="802" r="33" fill="red" stroke="none" /><circle cx="1862" cy="1226" r="70" fill="red" stroke="none" /><circle cx="4760" cy="1349" r="74" fill="red" stroke="none" /><circle cx="2982" cy="81" r="60" fill="red" stroke="none" /><circle cx="315" cy="933" r="66" fill="red" stroke="none" /><circle cx="4477" cy="898" r="40" fill="red" stroke="none" /><circle cx="5964" cy="356" r="73" fill="red" stroke="none" /><circle cx="2517" cy="49" r="8" fill="red" stroke="none" /><circle cx="2756" cy="927" r="76" fill="red" stroke="none" /><circle cx="2714" cy="467" r="71" fill="red" stroke="none" /><circle cx="387" cy="197" r="16" fill="red" stroke="none" /><circle cx="5985" cy="523" r="37" fill="red" stroke="none" /><circle cx="3909" cy="1051" r="82" fill="red" stroke="none" /><circle cx="2075" cy="472" r="23" fill="red" stroke="none" /><circle cx="5250" cy="265" r="63" fill="red" stroke="none" /><circle cx="1458" cy="370" r="21" fill="red" stroke="none" /><circle cx="4729" cy="1281" r="27" fill="red" stroke="none" /><circle cx="3436" cy="103" r="62" fill="red" stroke="none" /><circle cx="3746" cy="227" r="82" fill="red" stroke="none" /><circle cx="4434" cy="1105" r="49" fill="red" stroke="none" /><circle cx="1672" cy="193" r="21" fill="red" stroke="none" /><circle cx="5876" cy="1312" r="25" fill="red" stroke="none" /><circle cx="188" cy="296" r="32" fill="red" stroke="none" /><circle cx="228" cy="512" r="12" fill="red" stroke="none" /><circle cx="4372" cy="825" r="56" fill="red" stroke="none" /><circle cx="1948" cy="88" r="83" fill="red" stroke="none" /><circle cx="1836" cy="653" r="21" fill="red" stroke="none" /><circle cx="5653" cy="855" r="13" fill="red" stroke="none" /><circle cx="736" cy="183" r="18" fill="red" stroke="none" /><circle cx="2756" cy="258" r="34" fill="red" stroke="none" /><circle cx="4920" cy="673" r="29" fill="red" stroke="none" /><circle cx="3424" cy="223" r="77" fill="red" stroke="none" /><circle cx="3467" cy="549" r="21" fill="red" stroke="none" /><circle cx="4820" cy="1376" r="79" fill="red" stroke="none" /><circle cx="4987" cy="1381" r="33" fill="red" stroke="none" /><circle cx="984" cy="335" r="19" fill="red" stroke="none" /><circle cx="4700" cy="445" r="39" fill="red" stroke="none" /><circle cx="2559" cy="1181" r="21" fill="red" stroke="none" /><circle cx="3140" cy="581" r="72" fill="red" stroke="none" /><circle cx="5647" cy="955" r="77" fill="red" stroke="none" /><circle cx="4147" cy="823" r="78" fill="red" stroke="none" /><circle cx="3996" cy="213" r="82" fill="red" stroke="none" /><circle cx="5966" cy="608" r="36" fill="red" stroke="none" /><circle cx="2270" cy="123" r="8" fill="red" stroke="none" /><circle cx="49" cy="336" r="22" fill="red" stroke="none" /><circle cx="1276" cy="684" r="76" fill="red" stroke="none" /><circle cx="5594" cy="1404" r="69" fill="red" stroke="none" /><circle cx="106" cy="924" r="8" fill="red" stroke="none" /><circle cx="3348" cy="881" r="70" fill="red" stroke="none" /><circle cx="5908" cy="238" r="36" fill="red" stroke="none" /><circle cx="147" cy="1271" r="65" fill="red" stroke="none" /><circle cx="1998" cy="907" r="25" fill="red" stroke="none" /><circle cx="3757" cy="1339" r="12" fill="red" stroke="none" /><circle cx="4693" cy="1158" r="11" fill="red" stroke="none" /><circle cx="5352" cy="549" r="79" fill="red" stroke="none" /><circle cx="3080" cy="1354" r="62" fill="red" stroke="none" /><circle cx="5896" cy="41" r="12" fill="red" stroke="none" /><circle cx="4471" cy="982" r="44" fill="red" stroke="none" /><circle cx="2690" cy="1428" r="23" fill="red" stroke="none" /><circle cx="42" cy="307" r="40" fill="red" stroke="none" /><circle cx="5800" cy="261" r="53" fill="red" stroke="none" /><circle cx="1233" cy="758" r="56" fill="red" stroke="none" /><circle cx="4379" cy="279" r="25" fill="red" stroke="none" /><circle cx="2054" cy="478" r="40" fill="red" stroke="none" /><circle cx="576" cy="63" r="12" fill="red" stroke="none" /><circle cx="16" cy="932" r="12" fill="red" stroke="none" /><circle cx="3628" cy="1253" r="11" fill="red" stroke="none" /><circle cx="5110" cy="690" r="72" fill="red" stroke="none" /><circle cx="1520" cy="805" r="24" fill="red" stroke="none" /><circle cx="1728" cy="540" r="43" fill="red" stroke="none" /><circle cx="69" cy="333" r="7" fill="red" stroke="none" /><circle cx="5098" cy="590" r="84" fill="red" stroke="none" /><circle cx="2212" cy="235" r="17" fill="red" stroke="none" /><circle cx="4993" cy="1034" r="28" fill="red" stroke="none" /><circle cx="5292" cy="356" r="23" fill="red" stroke="none" /><circle cx="3784" cy="1033" r="65" fill="red" stroke="none" /><circle cx="3633" cy="1095" r="75" fill="red" stroke="none" /><circle cx="774" cy="1006" r="28" fill="red" stroke="none" /><circle cx="5007" cy="1368" r="76" fill="red" stroke="none" /><circle cx="6059" cy="54" r="44" fill="red" stroke="none" /><circle cx="4715" cy="558" r="70" fill="red" stroke="none" /><circle cx="5776" cy="1322" r="9" fill="red" stroke="none" /><circle cx="700" cy="685" r="7" fill="red" stroke="none" /><circle cx="2130" cy="1212" r="53" fill="red" stroke="none" /><circle cx="385" cy="330" r="40" fill="red" stroke="none" /><circle cx="785" cy="364" r="50" fill="red" stroke="none" /><circle cx="3413" cy="889" r="17" fill="red" stroke="none" /><circle cx="5024" cy="187" r="5" fill="red" stroke="none" /><circle cx="6004" cy="1323" r="26" fill="red" stroke="none" /><circle cx="4947" cy="764" r="11" fill="red" stroke="none" /><circle cx="2248" cy="679" r="13" fill="red" stroke="none" /><circle cx="2345" cy="126" r="30" fill="red" stroke="none" /><circle cx="873" cy="328" r="71" fill="red" stroke="none" /><circle cx="3806" cy="1321" r="40" fill="red" stroke="none" /><circle cx="5181" cy="1218" r="75" fill="red" stroke="none" /><circle cx="4241" cy="1037" r="34" fill="red" stroke="none" /><circle cx="6029" cy="1387" r="30" fill="red" stroke="none" /><circle cx="4402" cy="204" r="43" fill="red" stroke="none" /><circle cx="4819" cy="1368" r="50" fill="red" stroke="none" /><circle cx="3895" cy="1261" r="68" fill="red" stroke="none" /><circle cx="2845" cy="1458" r="31" fill="red" stroke="none" /><circle cx="4389" cy="175" r="66" fill="red" stroke="none" /><circle cx="3426" cy="343" r="8" fill="red" stroke="none" /><circle cx="1850" cy="1029" r="46" fill="red" stroke="none" /><circle cx="3863" cy="134" r="52" fill="red" stroke="none" /><circle cx="5558" cy="135" r="36" fill="red" stroke="none" /><circle cx="2469" cy="351" r="44" fill="red" stroke="none" /><circle cx="5795" cy="1168" r="16" fill="red" stroke="none" /><circle cx="6151" cy="1072" r="7" fill="red" stroke="none" /><circle cx="1948" cy="474" r="25" fill="red" stroke="none" /><circle cx="3589" cy="15" r="9" fill="red" stroke="none" /><circle cx="6133" cy="219" r="32" fill="red" stroke="none" /><circle cx="1536" cy="399" r="22" fill="red" stroke="none" /><circle cx="2473" cy="722" r="44" fill="red" stroke="none" /><circle cx="5765" cy="907" r="23" fill="red" stroke="none" /><circle cx="3841" cy="328" r="76" fill="red" stroke="none" /><circle cx="3852" cy="51" r="12" fill="red" stroke="none" /><circle cx="294" cy="108" r="28" fill="red" stroke="none" /><circle cx="2981" cy="58" r="30" fill="red" stroke="none" /><circle cx="958" cy="312" r="47" fill="red" stroke="none" /><circle cx="4807" cy="1363" r="64" fill="red" stroke="none" /><circle cx="1776" cy="1124" r="28" fill="red" stroke="none" /><circle cx="364" cy="1293" r="44" fill="red" stroke="none" /><circle cx="2954" cy="1314" r="75" fill="red" stroke="none" /><circle cx="5311" cy="1127" r="45" fill="red" stroke="none" /><circle cx="1110" cy="114" r="39" fill="red" stroke="none" /><circle cx="551" cy="318" r="81" fill="red" stroke="none" /><circle cx="3327" cy="354" r="62" fill="red" stroke="none" /><circle cx="5245" cy="715" r="48" fill="red" stroke="none" /><circle cx="697" cy="719" r="27" fill="red" stroke="none" /><circle cx="5670" cy="913" r="30" fill="red" stroke="none" /><circle cx="4460" cy="776" r="48" fill="red" stroke="none" /><circle cx="3672" cy="1123" r="62" fill="red" stroke="none" /><circle cx="4081" cy="354" r="6" fill="red" stroke="none" /><circle cx="68" cy="609" r="64" fill="red" stroke="none" /><circle cx="3007" cy="1179" r="61" fill="red" stroke="none" /><circle cx="2987" cy="772" r="22" fill="red" stroke="none" /><circle cx="3764" cy="1457" r="56" fill="red" stroke="none" /><circle cx="2853" cy="269" r="74" fill="red" stroke="none" /><circle cx="1028" cy="252" r="35" fill="red" stroke="none" /><circle cx="2512" cy="1396" r="33" fill="red" stroke="none" /><circle cx="2409" cy="431" r="40" fill="red" stroke="none" /><circle cx="5296" cy="1288" r="35" fill="red" stroke="none" /><circle cx="3125" cy="377" r="36" fill="red" stroke="none" /><circle cx="4646" cy="664" r="83" fill="red" stroke="none" /><circle cx="2123" cy="1392" r="43" fill="red" stroke="none" /><circle cx="3448" cy="294" r="61" fill="red" stroke="none" /><circle cx="1650" cy="85" r="61" fill="red" stroke="none" /><circle cx="3791" cy="1148" r="22" fill="red" stroke="none" /><circle cx="3035" cy="1284" r="10" fill="red" stroke="none" /><circle cx="3334" cy="55" r="19" fill="red" stroke="none" /><circle cx="1265" cy="206" r="78" fill="red" stroke="none" /><circle cx="4889" cy="1160" r="11" fill="red" stroke="none" /><circle cx="3445" cy="1435" r="15" fill="red" stroke="none" /><circle cx="1969" cy="402" r="33" fill="red" stroke="none" /><circle cx="2003" cy="848" r="21" fill="red" stroke="none" /><circle cx="5102" cy="252" r="21" fill="red" stroke="none" /><circle cx="3318" cy="229" r="69" fill="red" stroke="none" /><circle cx="3557" cy="183" r="7" fill="red" stroke="none" /><circle cx="4966" cy="432" r="35" fill="red" stroke="none" /><circle cx="3105" cy="1180" r="49" fill="red" stroke="none" /><circle cx="4017" cy="753" r="73" fill="red" stroke="none" /><circle cx="1685" cy="830" r="52" fill="red" stroke="none" /><circle cx="4221" cy="282" r="23" fill="red" stroke="none" /><circle cx="3661" cy="563" r="80" fill="red" stroke="none" /><circle cx="326" cy="559" r="79" fill="red" stroke="none" /><circle cx="5117" cy="227" r="35" fill="red" stroke="none" /><circle cx="4893" cy="1473" r="36" fill="red" stroke="none" /><circle cx="5567" cy="528" r="72" fill="red" stroke="none" /><circle cx="5277" cy="589" r="76" fill="red" stroke="none" /><circle cx="3839" cy="1295" r="36" fill="red" stroke="none" /><circle cx="3399" cy="638" r="22" fill="red" stroke="none" /><circle cx="5164" cy="1009" r="71" fill="red" stroke="none" /><circle cx="2430" cy="988" r="24" fill="red" stroke="none" /><circle cx="4692" cy="1267" r="52" fill="red" stroke="none" /><circle cx="2756" cy="852" r="14" fill="red" stroke="none" /><circle cx="3166" cy="1351" r="10" fill="red" stroke="none" /><circle cx="3172" cy="1061" r="40" fill="red" stroke="none" /><circle cx="5865" cy="982" r="20" fill="red" stroke="none" /><circle cx="4592" cy="721" r="7" fill="red" stroke="none" /><circle cx="5130" cy="887" r="13" fill="red" stroke="none" /></svg>