<svg viewBox="0 0 3303 2620" xmlns="http://www.w3.org/2000/svg"><rect x="0" y="0" width="3303" height="2620" fill="lightyellow" stroke="none "/><rect x="195" y="125" width="636" height="668" fill="white" stroke="black "/><circle cx="2846" cy="1402" r="5" fill="green" stroke="none" /><circle cx="1601" cy="2091" r="5" fill="green" stroke="none" /><circle cx="1590" cy="1259" r="5" fill="green" stroke="none" /><circle cx="374" cy="928" r="5" fill="green" stroke="none" /><circle cx="1648" cy="593" r="5" fill="green" stroke="none" /><circle cx="1439" cy="1054" r="5" fill="green" stroke="none" /><circle cx="1436" cy="795" r="5" fill="green" stroke="none" /><circle cx="2054" cy="2224" r="5" fill="green" stroke="none" /><circle cx="1991" cy="2564" r="5" fill="green" stroke="none" /><circle cx="201" cy="2108" r="5" fill="green" stroke="none" /><circle cx="1836" cy="1395" r="5" fill="green" stroke="none" /><circle cx="2807" cy="654" r="5" fill="green" stroke="none" /><circle cx="621" cy="1239" r="5" fill="green" stroke="none" /><circle cx="2972" cy="746" r="5" fill="green" stroke="none" /><circle cx="411" cy="2332" r="5" fill="green" stroke="none" /><circle cx="258" cy="1090" r="5" fill="green" stroke="none" /><circle cx="1210" cy="2036" r="5" fill="green" stroke="none" /><circle cx="1183" cy="1856" r="5" fill="green" stroke="none" /><circle cx="1793" cy="799" r="5" fill="green" stroke="none" /><circle cx="1796" cy="1631" r="5" fill="green" stroke="none" /><circle cx="325" cy="1190" r="5" fill="green" stroke="none" /><circle cx="1930" cy="2327" r="5" fill="green" stroke="none" /><circle cx="1133" cy="712" r="5" fill="green" stroke="none" /><circle cx="2238" cy="148" r="5" fill="green" stroke="none" /><circle cx="853" cy="1220" r="5" fill="green" stroke="none" /><circle cx="263" cy="1797" r="5" fill="green" stroke="none" /><circle cx="2696" cy="952" r="5" fill="green" stroke="none" /><circle cx="263" cy="2213" r="5" fill="green" stroke="none" /><circle cx="1406" cy="395" r="5" fill="green" stroke="none" /><circle cx="948" cy="410" r="5" fill="green" stroke="none" /><circle cx="1442" cy="526" r="5" fill="green" stroke="none" /><circle cx="706" cy="1312" r="5" fill="green" stroke="none" /><circle cx="1088" cy="2323" r="5" fill="green" stroke="none" /><circle cx="513" cy="1965" r="5" fill="green" stroke="none" /><circle cx="2968" cy="2337" r="5" fill="green" stroke="none" /><circle cx="2014" cy="520" r="5" fill="green" stroke="none" /><circle cx="1798" cy="2256" r="5" fill="green" stroke="none" /><circle cx="2641" cy="2146" r="5" fill="green" stroke="none" /><circle cx="15" cy="994" r="5" fill="green" stroke="none" /><circle cx="2845" cy="2603" r="5" fill="green" stroke="none" /><circle cx="3220" cy="1311" r="5" fill="green" stroke="none" /><circle cx="2472" cy="1787" r="5" fill="green" stroke="none" /><circle cx="1677" cy="2071" r="5" fill="green" stroke="none" /><circle cx="2383" cy="1372" r="5" fill="green" stroke="none" /><circle cx="825" cy="2394" r="5" fill="green" stroke="none" /><circle cx="2528" cy="801" r="5" fill="green" stroke="none" /><circle cx="211" cy="45" r="5" fill="green" stroke="none" /><circle cx="2006" cy="1578" r="5" fill="green" stroke="none" /><circle cx="2280" cy="1599" r="5" fill="green" stroke="none" /><circle cx="2438" cy="377" r="5" fill="green" stroke="none" /><circle cx="183" cy="1258" r="5" fill="green" stroke="none" /><circle cx="3122" cy="816" r="5" fill="green" stroke="none" /><circle cx="900" cy="2508" r="5" fill="green" stroke="none" /><circle cx="2344" cy="695" r="5" fill="green" stroke="none" /><circle cx="884" cy="2306" r="5" fill="green" stroke="none" /><circle cx="602" cy="1450" r="5" fill="green" stroke="none" /><circle cx="3075" cy="430" r="5" fill="green" stroke="none" /><circle cx="2760" cy="2486" r="5" fill="green" stroke="none" /><circle cx="2573" cy="739" r="5" fill="green" stroke="none" /><circle cx="2871" cy="859" r="5" fill="green" stroke="none" /><circle cx="420" cy="2477" r="5" fill="green" stroke="none" /><circle cx="532" cy="2093" r="5" fill="green" stroke="none" /><circle cx="2905" cy="989" r="5" fill="green" stroke="none" /><circle cx="2222" cy="2480" r="5" fill="green" stroke="none" /><circle cx="255" cy="1200" r="5" fill="green" stroke="none" /><circle cx="341" cy="2216" r="5" fill="green" stroke="none" /><circle cx="3219" cy="232" r="5" fill="green" stroke="none" /><circle cx="1171" cy="2063" r="5" fill="green" stroke="none" /><circle cx="777" cy="1949" r="5" fill="green" stroke="none" /><circle cx="2496" cy="599" r="5" fill="green" stroke="none" /><circle cx="826" cy="2062" r="5" fill="green" stroke="none" /><circle cx="2982" cy="1435" r="5" fill="green" stroke="none" /><circle cx="1438" cy="439" r="5" fill="green" stroke="none" /><circle cx="1568" cy="1280" r="5" fill="green" stroke="none" /><circle cx="1308" cy="565" r="5" fill="green" stroke="none" /><circle cx="1303" cy="2535" r="5" fill="green" stroke="none" /><circle cx="1313" cy="685" r="5" fill="green" stroke="none" /><circle cx="1052" cy="1480" r="5" fill="green" stroke="none" /><circle cx="1379" cy="1982" r="5" fill="green" stroke="none" /><circle cx="2831" cy="172" r="5" fill="green" stroke="none" /><circle cx="2870" cy="1780" r="5" fill="green" stroke="none" /><circle cx="1942" cy="64" r="5" fill="green" stroke="none" /><circle cx="275" cy="2589" r="5" fill="green" stroke="none" /><circle cx="1019" cy="1758" r="5" fill="green" stroke="none" /><circle cx="2665" cy="716" r="5" fill="green" stroke="none" /><circle cx="582" cy="2535" r="5" fill="green" stroke="none" /><circle cx="115" cy="268" r="5" fill="green" stroke="none" /><circle cx="1342" cy="92" r="5" fill="green" stroke="none" /><circle cx="518" cy="2364" r="5" fill="green" stroke="none" /><circle cx="895" cy="2548" r="5" fill="green" stroke="none" /><circle cx="2228" cy="405" r="5" fill="green" stroke="none" /><circle cx="383" cy="1238" r="5" fill="green" stroke="none" /><circle cx="769" cy="1324" r="5" fill="green" stroke="none" /><circle cx="2214" cy="93" r="5" fill="green" stroke="none" /><circle cx="581" cy="1871" r="5" fill="green" stroke="none" /><circle cx="339" cy="2067" r="5" fill="green" stroke="none" /><circle cx="2576" cy="609" r="5" fill="green" stroke="none" /><circle cx="437" cy="2327" r="5" fill="green" stroke="none" /><circle cx="543" cy="1489" r="5" fill="green" stroke="none" /><circle cx="26" cy="247" r="5" fill="green" stroke="none" /><circle cx="1871" cy="2186" r="5" fill="green" stroke="none" /><circle cx="1602" cy="1437" r="5" fill="green" stroke="none" /><circle cx="1222" cy="1149" r="5" fill="green" stroke="none" /><circle cx="2920" cy="1128" r="5" fill="green" stroke="none" /><circle cx="1929" cy="1586" r="5" fill="green" stroke="none" /><circle cx="101" cy="2198" r="5" fill="green" stroke="none" /><circle cx="1773" cy="765" r="5" fill="green" stroke="none" /><circle cx="605" cy="1244" r="5" fill="green" stroke="none" /><circle cx="2723" cy="1283" r="5" fill="green" stroke="none" /><circle cx="3211" cy="1037" r="5" fill="green" stroke="none" /><circle cx="1920" cy="448" r="5" fill="green" stroke="none" /><circle cx="2787" cy="1547" r="5" fill="green" stroke="none" /><circle cx="310" cy="1094" r="5" fill="green" stroke="none" /><circle cx="2163" cy="1719" r="5" fill="green" stroke="none" /><circle cx="3094" cy="1983" r="5" fill="green" stroke="none" /><circle cx="1171" cy="144" r="5" fill="green" stroke="none" /><circle cx="2148" cy="2269" r="5" fill="green" stroke="none" /><circle cx="1299" cy="1744" r="5" fill="green" stroke="none" /><circle cx="3289" cy="2093" r="5" fill="green" stroke="none" /><circle cx="2384" cy="1107" r="5" fill="green" stroke="none" /><circle cx="696" cy="2369" r="5" fill="green" stroke="none" /><circle cx="2785" cy="692" r="5" fill="green" stroke="none" /><circle cx="3015" cy="579" r="5" fill="green" stroke="none" /><circle cx="684" cy="1195" r="5" fill="green" stroke="none" /><circle cx="1233" cy="1612" r="5" fill="green" stroke="none" /><circle cx="721" cy="1039" r="5" fill="green" stroke="none" /><circle cx="1552" cy="309" r="5" fill="green" stroke="none" /><circle cx="324" cy="1636" r="5" fill="green" stroke="none" /><circle cx="2971" cy="1925" r="5" fill="green" stroke="none" /><circle cx="1625" cy="647" r="5" fill="green" stroke="none" /><circle cx="2738" cy="815" r="5" fill="green" stroke="none" /><circle cx="2365" cy="1274" r="5" fill="green" stroke="none" /><circle cx="426" cy="2314" r="5" fill="green" stroke="none" /><circle cx="3228" cy="662" r="5" fill="green" stroke="none" /><circle cx="1255" cy="571" r="5" fill="green" stroke="none" /><circle cx="367" cy="1133" r="5" fill="green" stroke="none" /><circle cx="1789" cy="1944" r="5" fill="green" stroke="none" /><circle cx="2033" cy="414" r="5" fill="green" stroke="none" /><circle cx="1804" cy="644" r="5" fill="green" stroke="none" /><circle cx="2765" cy="352" r="5" fill="green" stroke="none" /><circle cx="369" cy="55" r="5" fill="green" stroke="none" /><circle cx="1842" cy="501" r="5" fill="green" stroke="none" /><circle cx="2419" cy="533" r="5" fill="green" stroke="none" /><circle cx="1355" cy="374" r="5" fill="green" stroke="none" /><circle cx="3091" cy="207" r="5" fill="green" stroke="none" /><circle cx="3083" cy="1821" r="5" fill="green" stroke="none" /><circle cx="172" cy="81" r="5" fill="green" stroke="none" /><circle cx="1983" cy="619" r="5" fill="green" stroke="none" /><circle cx="2804" cy="86" r="5" fill="green" stroke="none" /><circle cx="1323" cy="2049" r="5" fill="green" stroke="none" /><circle cx="2092" cy="1372" r="5" fill="green" stroke="none" /><circle cx="243" cy="2484" r="5" fill="green" stroke="none" /><circle cx="1525" cy="1579" r="5" fill="green" stroke="none" /><circle cx="1026" cy="358" r="5" fill="green" stroke="none" /><circle cx="2232" cy="1559" r="5" fill="green" stroke="none" /><circle cx="2869" cy="1111" r="5" fill="green" stroke="none" /><circle cx="882" cy="1525" r="5" fill="green" stroke="none" /><circle cx="888" cy="1546" r="5" fill="green" stroke="none" /><circle cx="1223" cy="1958" r="5" fill="green" stroke="none" /><circle cx="307" cy="2477" r="5" fill="green" stroke="none" /><circle cx="946" cy="540" r="5" fill="green" stroke="none" /><circle cx="2383" cy="2024" r="5" fill="green" stroke="none" /><circle cx="1664" cy="2163" r="5" fill="green" stroke="none" /><circle cx="1700" cy="2392" r="5" fill="green" stroke="none" /><circle cx="2131" cy="404" r="5" fill="green" stroke="none" /><circle cx="2432" cy="109" r="5" fill="green" stroke="none" /><circle cx="410" cy="45" r="5" fill="green" stroke="none" /><circle cx="3132" cy="999" r="5" fill="green" stroke="none" /><circle cx="3083" cy="1163" r="5" fill="green" stroke="none" /><circle cx="1108" cy="2283" r="5" fill="green" stroke="none" /><circle cx="1626" cy="557" r="5" fill="green" stroke="none" /><circle cx="2633" cy="875" r="5" fill="green" stroke="none" /><circle cx="1190" cy="405" r="5" fill="green" stroke="none" /><circle cx="16" cy="929" r="5" fill="green" stroke="none" /><circle cx="2233" cy="827" r="5" fill="green" stroke="none" /><circle cx="871" cy="2269" r="5" fill="green" stroke="none" /><circle cx="2456" cy="791" r="5" fill="green" stroke="none" /><circle cx="232" cy="2023" r="5" fill="green" stroke="none" /><circle cx="2209" cy="1004" r="5" fill="green" stroke="none" /><circle cx="617" cy="2196" r="5" fill="green" stroke="none" /><circle cx="330" cy="1648" r="5" fill="green" stroke="none" /><circle cx="81" cy="413" r="5" fill="green" stroke="none" /><circle cx="1540" cy="514" r="5" fill="green" stroke="none" /><circle cx="57" cy="1073" r="5" fill="green" stroke="none" /><circle cx="24" cy="2250" r="5" fill="green" stroke="none" /><circle cx="2098" cy="353" r="5" fill="green" stroke="none" /><circle cx="994" cy="1213" r="5" fill="green" stroke="none" /><circle cx="776" cy="2524" r="5" fill="green" stroke="none" /><circle cx="643" cy="2096" r="5" fill="green" stroke="none" /><circle cx="1021" cy="2006" r="5" fill="green" stroke="none" /><circle cx="1773" cy="2158" r="5" fill="green" stroke="none" /><circle cx="1407" cy="948" r="5" fill="green" stroke="none" /><circle cx="2667" cy="481" r="5" fill="green" stroke="none" /><circle cx="1740" cy="1376" r="5" fill="green" stroke="none" /><circle cx="1056" cy="1988" r="5" fill="green" stroke="none" /><circle cx="2861" cy="1808" r="5" fill="green" stroke="none" /><circle cx="323" cy="1508" r="5" fill="green" stroke="none" /><circle cx="1758" cy="1076" r="5" fill="green" stroke="none" /><circle cx="2741" cy="801" r="5" fill="green" stroke="none" /><circle cx="2402" cy="1356" r="5" fill="green" stroke="none" /><circle cx="2924" cy="8" r="5" fill="green" stroke="none" /><circle cx="2073" cy="965" r="5" fill="green" stroke="none" /><circle cx="1670" cy="41" r="5" fill="green" stroke="none" /><circle cx="1752" cy="2613" r="5" fill="green" stroke="none" /><circle cx="1785" cy="18" r="5" fill="green" stroke="none" /><circle cx="2498" cy="2564" r="5" fill="green" stroke="none" /><circle cx="1864" cy="1324" r="5" fill="green" stroke="none" /><circle cx="1438" cy="54" r="5" fill="green" stroke="none" /><circle cx="2380" cy="1034" r="5" fill="green" stroke="none" /><circle cx="2584" cy="1448" r="5" fill="green" stroke="none" /><circle cx="1208" cy="685" r="5" fill="green" stroke="none" /><circle cx="1575" cy="1712" r="5" fill="green" stroke="none" /><circle cx="2554" cy="1916" r="5" fill="green" stroke="none" /><circle cx="3098" cy="821" r="5" fill="green" stroke="none" /><circle cx="3171" cy="1461" r="5" fill="green" stroke="none" /><circle cx="918" cy="662" r="5" fill="green" stroke="none" /><circle cx="631" cy="2201" r="5" fill="green" stroke="none" /><circle cx="1434" cy="2207" r="5" fill="green" stroke="none" /><circle cx="3251" cy="835" r="5" fill="green" stroke="none" /><circle cx="1004" cy="594" r="5" fill="green" stroke="none" /><circle cx="648" cy="1233" r="5" fill="green" stroke="none" /><circle cx="1174" cy="1619" r="5" fill="green" stroke="none" /><circle cx="1414" cy="417" r="5" fill="green" stroke="none" /><circle cx="1967" cy="1113" r="5" fill="green" stroke="none" /><circle cx="439" cy="1425" r="5" fill="green" stroke="none" /><circle cx="1712" cy="872" r="5" fill="green" stroke="none" /><circle cx="1895" cy="1995" r="5" fill="green" stroke="none" /><circle cx="1663" cy="1736" r="5" fill="green" stroke="none" /><circle cx="2038" cy="1747" r="5" fill="green" stroke="none" /><circle cx="699" cy="871" r="5" fill="green" stroke="none" /><circle cx="1731" cy="2301" r="5" fill="green" stroke="none" /><circle cx="694" cy="1963" r="5" fill="green" stroke="none" /><circle cx="1236" cy="728" r="5" fill="green" stroke="none" /><circle cx="1789" cy="883" r="5" fill="green" stroke="none" /><circle cx="1953" cy="973" r="5" fill="green" stroke="none" /><circle cx="518" cy="2544" r="5" fill="green" stroke="none" /><circle cx="2278" cy="322" r="5" fill="green" stroke="none" /><circle cx="1673" cy="544" r="5" fill="green" stroke="none" /><circle cx="2939" cy="52" r="5" fill="green" stroke="none" /><circle cx="1418" cy="404" r="5" fill="green" stroke="none" /><circle cx="1476" cy="815" r="5" fill="green" stroke="none" /><circle cx="897" cy="2427" r="5" fill="green" stroke="none" /><circle cx="202" cy="1247" r="5" fill="green" stroke="none" /><circle cx="184" cy="1590" r="5" fill="green" stroke="none" /><circle cx="889" cy="2491" r="5" fill="green" stroke="none" /><circle cx="199" cy="845" r="5" fill="green" stroke="none" /><circle cx="1835" cy="905" r="5" fill="green" stroke="none" /><circle cx="852" cy="1549" r="5" fill="green" stroke="none" /><circle cx="3096" cy="420" r="5" fill="green" stroke="none" /><circle cx="1375" cy="320" r="5" fill="green" stroke="none" /><circle cx="2409" cy="1406" r="5" fill="green" stroke="none" /><circle cx="1097" cy="1115" r="5" fill="green" stroke="none" /><circle cx="2485" cy="132" r="5" fill="green" stroke="none" /><circle cx="266" cy="1922" r="5" fill="green" stroke="none" /><circle cx="1992" cy="780" r="5" fill="green" stroke="none" /><circle cx="2910" cy="1317" r="5" fill="green" stroke="none" /><circle cx="1306" cy="822" r="5" fill="green" stroke="none" /><circle cx="1310" cy="930" r="5" fill="green" stroke="none" /><circle cx="1161" cy="218" r="5" fill="green" stroke="none" /><circle cx="2807" cy="701" r="5" fill="green" stroke="none" /><circle cx="2476" cy="2575" r="5" fill="green" stroke="none" /><circle cx="2093" cy="2568" r="5" fill="green" stroke="none" /><circle cx="1845" cy="769" r="5" fill="green" stroke="none" /><circle cx="2093" cy="559" r="5" fill="green" stroke="none" /><circle cx="697" cy="2352" r="5" fill="green" stroke="none" /><circle cx="193" cy="1771" r="5" fill="green" stroke="none" /><circle cx="729" cy="69" r="5" fill="green" stroke="none" /><circle cx="1554" cy="1756" r="5" fill="green" stroke="none" /><circle cx="2883" cy="2038" r="5" fill="green" stroke="none" /><circle cx="2470" cy="148" r="5" fill="green" stroke="none" /><circle cx="1697" cy="2390" r="5" fill="green" stroke="none" /><circle cx="2250" cy="1476" r="5" fill="green" stroke="none" /><circle cx="317" cy="2041" r="5" fill="green" stroke="none" /><circle cx="2654" cy="1116" r="5" fill="green" stroke="none" /><circle cx="2310" cy="1933" r="5" fill="green" stroke="none" /><circle cx="835" cy="1646" r="5" fill="green" stroke="none" /><circle cx="1551" cy="2457" r="5" fill="green" stroke="none" /><circle cx="1370" cy="1997" r="5" fill="green" stroke="none" /><circle cx="1979" cy="2405" r="5" fill="green" stroke="none" /><circle cx="562" cy="1442" r="5" fill="green" stroke="none" /><circle cx="135" cy="1144" r="5" fill="green" stroke="none" /><circle cx="1281" cy="705" r="5" fill="green" stroke="none" /><circle cx="287" cy="1048" r="5" fill="green" stroke="none" /><circle cx="1214" cy="1724" r="5" fill="green" stroke="none" /><circle cx="1404" cy="1063" r="5" fill="green" stroke="none" /><circle cx="19" cy="439" r="5" fill="green" stroke="none" /><circle cx="413" cy="2411" r="5" fill="green" stroke="none" /><circle cx="261" cy="2493" r="5" fill="green" stroke="none" /><circle cx="2151" cy="827" r="5" fill="green" stroke="none" /><circle cx="2046" cy="1236" r="5" fill="green" stroke="none" /><circle cx="2810" cy="1106" r="5" fill="green" stroke="none" /><circle cx="3294" cy="2294" r="5" fill="green" stroke="none" /><circle cx="734" cy="2065" r="5" fill="green" stroke="none" /><circle cx="174" cy="2165" r="5" fill="green" stroke="none" /><circle cx="2252" cy="150" r="5" fill="green" stroke="none" /><circle cx="2254" cy="1037" r="5" fill="green" stroke="none" /><circle cx="215" cy="2487" r="5" fill="green" stroke="none" /><circle cx="1610" cy="2259" r="5" fill="green" stroke="none" /><circle cx="1339" cy="2062" r="5" fill="green" stroke="none" /><circle cx="285" cy="1256" r="5" fill="green" stroke="none" /><circle cx="3093" cy="79" r="5" fill="green" stroke="none" /><circle cx="2957" cy="48" r="5" fill="green" stroke="none" /><circle cx="2792" cy="1093" r="5" fill="green" stroke="none" /><circle cx="43" cy="1026" r="5" fill="green" stroke="none" /><circle cx="1470" cy="997" r="5" fill="green" stroke="none" /><circle cx="2484" cy="1326" r="5" fill="green" stroke="none" /><circle cx="2570" cy="2382" r="5" fill="green" stroke="none" /><circle cx="2563" cy="1510" r="5" fill="green" stroke="none" /><circle cx="1321" cy="1558" r="5" fill="green" stroke="none" /><circle cx="3006" cy="1323" r="5" fill="green" stroke="none" /><circle cx="1811" cy="1850" r="5" fill="green" stroke="none" /><circle cx="3161" cy="1052" r="5" fill="green" stroke="none" /><circle cx="1556" cy="120" r="5" fill="green" stroke="none" /><circle cx="1107" cy="466" r="5" fill="green" stroke="none" /><circle cx="1940" cy="542" r="5" fill="green" stroke="none" /><circle cx="1801" cy="1548" r="5" fill="green" stroke="none" /><circle cx="2386" cy="2565" r="5" fill="green" stroke="none" /><circle cx="3104" cy="436" r="5" fill="green" stroke="none" /><circle cx="408" cy="1622" r="5" fill="green" stroke="none" /><circle cx="210" cy="1469" r="5" fill="green" stroke="none" /><circle cx="554" cy="2413" r="5" fill="green" stroke="none" /><circle cx="1818" cy="1143" r="5" fill="green" stroke="none" /><circle cx="2964" cy="2044" r="5" fill="green" stroke="none" /><circle cx="2605" cy="1462" r="5" fill="green" stroke="none" /><circle cx="351" cy="1394" r="5" fill="green" stroke="none" /><circle cx="1722" cy="241" r="5" fill="green" stroke="none" /><circle cx="336" cy="1054" r="5" fill="green" stroke="none" /><circle cx="1615" cy="282" r="5" fill="green" stroke="none" /><circle cx="192" cy="98" r="5" fill="green" stroke="none" /><circle cx="1250" cy="808" r="5" fill="green" stroke="none" /><circle cx="1522" cy="266" r="5" fill="green" stroke="none" /><circle cx="2492" cy="1483" r="5" fill="green" stroke="none" /><circle cx="81" cy="2135" r="5" fill="green" stroke="none" /><circle cx="1004" cy="2167" r="5" fill="green" stroke="none" /><circle cx="1659" cy="1110" r="5" fill="green" stroke="none" /><circle cx="701" cy="2471" r="5" fill="green" stroke="none" /><circle cx="1155" cy="1046" r="5" fill="green" stroke="none" /><circle cx="1109" cy="2480" r="5" fill="green" stroke="none" /><circle cx="3211" cy="1029" r="5" fill="green" stroke="none" /><circle cx="1332" cy="600" r="5" fill="green" stroke="none" /><circle cx="3034" cy="98" r="5" fill="green" stroke="none" /><circle cx="1169" cy="312" r="5" fill="green" stroke="none" /><circle cx="1872" cy="1366" r="5" fill="green" stroke="none" /><circle cx="828" cy="2203" r="5" fill="green" stroke="none" /><circle cx="1248" cy="2195" r="5" fill="green" stroke="none" /><circle cx="93" cy="177" r="5" fill="green" stroke="none" /><circle cx="414" cy="2324" r="5" fill="green" stroke="none" /><circle cx="102" cy="1583" r="5" fill="green" stroke="none" /><circle cx="1103" cy="285" r="5" fill="green" stroke="none" /><circle cx="651" cy="2556" r="5" fill="green" stroke="none" /><circle cx="2303" cy="115" r="5" fill="green" stroke="none" /><circle cx="2510" cy="634" r="5" fill="green" stroke="none" /><circle cx="2872" cy="2557" r="5" fill="green" stroke="none" /><circle cx="642" cy="2220" r="5" fill="green" stroke="none" /><circle cx="3281" cy="216" r="5" fill="green" stroke="none" /><circle cx="1683" cy="946" r="5" fill="green" stroke="none" /><circle cx="2754" cy="1155" r="5" fill="green" stroke="none" /><circle cx="3262" cy="1036" r="5" fill="green" stroke="none" /><circle cx="1729" cy="1570" r="5" fill="green" stroke="none" /><circle cx="3028" cy="2303" r="5" fill="green" stroke="none" /><circle cx="2346" cy="345" r="5" fill="green" stroke="none" /><circle cx="1633" cy="1281" r="5" fill="green" stroke="none" /><circle cx="2904" cy="864" r="5" fill="green" stroke="none" /><circle cx="118" cy="527" r="5" fill="green" stroke="none" /><circle cx="254" cy="882" r="5" fill="green" stroke="none" /><circle cx="2725" cy="86" r="5" fill="green" stroke="none" /><circle cx="2923" cy="1688" r="5" fill="green" stroke="none" /><circle cx="2838" cy="377" r="5" fill="green" stroke="none" /><circle cx="309" cy="1520" r="5" fill="green" stroke="none" /><circle cx="1674" cy="165" r="5" fill="green" stroke="none" /><circle cx="2036" cy="1437" r="5" fill="green" stroke="none" /><circle cx="918" cy="670" r="5" fill="green" stroke="none" /><circle cx="1295" cy="116" r="5" fill="green" stroke="none" /><circle cx="1083" cy="609" r="5" fill="green" stroke="none" /><circle cx="1494" cy="1048" r="5" fill="green" stroke="none" /><circle cx="2895" cy="396" r="5" fill="green" stroke="none" /><circle cx="149" cy="2478" r="5" fill="green" stroke="none" /><circle cx="2148" cy="1906" r="5" fill="green" stroke="none" /><circle cx="499" cy="2238" r="5" fill="green" stroke="none" /><circle cx="1728" cy="1471" r="5" fill="green" stroke="none" /><circle cx="2972" cy="615" r="5" fill="green" stroke="none" /><circle cx="441" cy="38" r="5" fill="green" stroke="none" /><circle cx="1012" cy="1241" r="33" fill="red" stroke="none" /><circle cx="671" cy="1741" r="63" fill="red" stroke="none" /><circle cx="768" cy="1158" r="56" fill="red" stroke="none" /><circle cx="2505" cy="427" r="33" fill="red" stroke="none" /><circle cx="1258" cy="2304" r="8" fill="red" stroke="none" /><circle cx="1408" cy="2373" r="32" fill="red" stroke="none" /><circle cx="2561" cy="2552" r="48" fill="red" stroke="none" /><circle cx="1905" cy="30" r="30" fill="red" stroke="none" /><circle cx="2462" cy="1571" r="62" fill="red" stroke="none" /><circle cx="2919" cy="295" r="56" fill="red" stroke="none" /><circle cx="2833" cy="2296" r="66" fill="red" stroke="none" /><circle cx="1881" cy="245" r="46" fill="red" stroke="none" /><circle cx="2167" cy="590" r="67" fill="red" stroke="none" /><circle cx="1941" cy="889" r="34" fill="red" stroke="none" /><circle cx="1650" cy="1195" r="30" fill="red" stroke="none" /><circle cx="3281" cy="2334" r="21" fill="red" stroke="none" /><circle cx="2255" cy="731" r="49" fill="red" stroke="none" /><circle cx="829" cy="1325" r="58" fill="red" stroke="none" /><circle cx="365" cy="1405" r="12" fill="red" stroke="none" /><circle cx="1234" cy="1384" r="75" fill="red" stroke="none" /><circle cx="1940" cy="1774" r="67" fill="red" stroke="none" /><circle cx="1028" cy="1521" r="37" fill="red" stroke="none" /><circle cx="1043" cy="1086" r="34" fill="red" stroke="none" /><circle cx="431" cy="1846" r="76" fill="red" stroke="none" /><circle cx="2742" cy="2071" r="29" fill="red" stroke="none" /><circle cx="901" cy="943" r="72" fill="red" stroke="none" /><circle cx="2750" cy="1407" r="32" fill="red" stroke="none" /><circle cx="2462" cy="1090" r="68" fill="red" stroke="none" /><circle cx="2167" cy="1399" r="21" fill="red" stroke="none" /><circle cx="1389" cy="824" r="25" fill="red" stroke="none" /><circle cx="860" cy="1454" r="32" fill="red" stroke="none" /><circle cx="1025" cy="2153" r="14" fill="red" stroke="none" /></svg>