<svg viewBox="0 0 8642 7123" xmlns="http://www.w3.org/2000/svg"><rect x="0" y="0" width="8642" height="7123" fill="lightyellow" stroke="none "/><rect x="4348" y="3172" width="1875" height="250" fill="white" stroke="black "/><circle cx="3652" cy="4523" r="5" fill="green" stroke="none" /><circle cx="4779" cy="4526" r="5" fill="green" stroke="none" /><circle cx="4300" cy="629" r="5" fill="green" stroke="none" /><circle cx="4208" cy="5174" r="5" fill="green" stroke="none" /><circle cx="5618" cy="3972" r="5" fill="green" stroke="none" /><circle cx="1512" cy="5550" r="5" fill="green" stroke="none" /><circle cx="5358" cy="216" r="5" fill="green" stroke="none" /><circle cx="7276" cy="5392" r="5" fill="green" stroke="none" /><circle cx="7861" cy="5791" r="5" fill="green" stroke="none" /><circle cx="4066" cy="6504" r="5" fill="green" stroke="none" /><circle cx="7345" cy="5162" r="5" fill="green" stroke="none" /><circle cx="4737" cy="4546" r="5" fill="green" stroke="none" /><circle cx="2849" cy="3011" r="5" fill="green" stroke="none" /><circle cx="8520" cy="1276" r="5" fill="green" stroke="none" /><circle cx="602" cy="537" r="5" fill="green" stroke="none" /><circle cx="7210" cy="7117" r="5" fill="green" stroke="none" /><circle cx="5151" cy="694" r="5" fill="green" stroke="none" /><circle cx="6449" cy="1703" r="5" fill="green" stroke="none" /><circle cx="3990" cy="1164" r="5" fill="green" stroke="none" /><circle cx="437" cy="6989" r="5" fill="green" stroke="none" /><circle cx="6955" cy="6222" r="5" fill="green" stroke="none" /><circle cx="6159" cy="5926" r="5" fill="green" stroke="none" /><circle cx="2821" cy="831" r="5" fill="green" stroke="none" /><circle cx="3623" cy="5512" r="5" fill="green" stroke="none" /><circle cx="7102" cy="1942" r="5" fill="green" stroke="none" /><circle cx="3219" cy="828" r="5" fill="green" stroke="none" /><circle cx="4801" cy="2047" r="5" fill="green" stroke="none" /><circle cx="4513" cy="1819" r="5" fill="green" stroke="none" /><circle cx="4686" cy="946" r="5" fill="green" stroke="none" /><circle cx="2570" cy="1174" r="5" fill="green" stroke="none" /><circle cx="4718" cy="1516" r="5" fill="green" stroke="none" /><circle cx="7621" cy="260" r="5" fill="green" stroke="none" /><circle cx="1616" cy="2988" r="5" fill="green" stroke="none" /><circle cx="329" cy="3915" r="5" fill="green" stroke="none" /><circle cx="84" cy="4662" r="5" fill="green" stroke="none" /><circle cx="4911" cy="644" r="5" fill="green" stroke="none" /><circle cx="7058" cy="2099" r="5" fill="green" stroke="none" /><circle cx="5328" cy="6656" r="5" fill="green" stroke="none" /><circle cx="8511" cy="2594" r="5" fill="green" stroke="none" /><circle cx="6858" cy="4853" r="5" fill="green" stroke="none" /><circle cx="8624" cy="2564" r="5" fill="green" stroke="none" /><circle cx="3544" cy="3519" r="5" fill="green" stroke="none" /><circle cx="7559" cy="944" r="5" fill="green" stroke="none" /><circle cx="84" cy="456" r="5" fill="green" stroke="none" /><circle cx="6527" cy="4867" r="5" fill="green" stroke="none" /><circle cx="5331" cy="2713" r="5" fill="green" stroke="none" /><circle cx="1993" cy="1036" r="5" fill="green" stroke="none" /><circle cx="6562" cy="7068" r="5" fill="green" stroke="none" /><circle cx="1365" cy="1423" r="5" fill="green" stroke="none" /><circle cx="7973" cy="205" r="5" fill="green" stroke="none" /><circle cx="3961" cy="316" r="5" fill="green" stroke="none" /><circle cx="3428" cy="6374" r="5" fill="green" stroke="none" /><circle cx="7609" cy="6363" r="5" fill="green" stroke="none" /><circle cx="2371" cy="5329" r="5" fill="green" stroke="none" /><circle cx="2264" cy="1016" r="5" fill="green" stroke="none" /><circle cx="4863" cy="1447" r="5" fill="green" stroke="none" /><circle cx="6491" cy="5922" r="5" fill="green" stroke="none" /><circle cx="4915" cy="6927" r="5" fill="green" stroke="none" /><circle cx="4895" cy="5992" r="5" fill="green" stroke="none" /><circle cx="5928" cy="3979" r="5" fill="green" stroke="none" /><circle cx="4004" cy="3745" r="5" fill="green" stroke="none" /><circle cx="6669" cy="3971" r="5" fill="green" stroke="none" /><circle cx="4329" cy="1494" r="5" fill="green" stroke="none" /><circle cx="591" cy="2819" r="5" fill="green" stroke="none" /><circle cx="6742" cy="1999" r="5" fill="green" stroke="none" /><circle cx="2429" cy="2277" r="5" fill="green" stroke="none" /><circle cx="2942" cy="1615" r="5" fill="green" stroke="none" /><circle cx="3274" cy="45" r="5" fill="green" stroke="none" /><circle cx="7189" cy="1988" r="5" fill="green" stroke="none" /><circle cx="3789" cy="1686" r="5" fill="green" stroke="none" /><circle cx="2860" cy="6347" r="5" fill="green" stroke="none" /><circle cx="4173" cy="1848" r="5" fill="green" stroke="none" /><circle cx="7745" cy="5033" r="5" fill="green" stroke="none" /><circle cx="724" cy="6917" r="5" fill="green" stroke="none" /><circle cx="1507" cy="6491" r="5" fill="green" stroke="none" /><circle cx="7601" cy="834" r="5" fill="green" stroke="none" /><circle cx="1535" cy="4924" r="5" fill="green" stroke="none" /><circle cx="4425" cy="6670" r="5" fill="green" stroke="none" /><circle cx="764" cy="1713" r="5" fill="green" stroke="none" /><circle cx="980" cy="2154" r="5" fill="green" stroke="none" /><circle cx="2376" cy="2037" r="5" fill="green" stroke="none" /><circle cx="93" cy="1221" r="5" fill="green" stroke="none" /><circle cx="1812" cy="7102" r="5" fill="green" stroke="none" /><circle cx="5988" cy="4810" r="5" fill="green" stroke="none" /><circle cx="7393" cy="3778" r="5" fill="green" stroke="none" /><circle cx="5341" cy="6061" r="5" fill="green" stroke="none" /><circle cx="894" cy="4243" r="5" fill="green" stroke="none" /><circle cx="2769" cy="5229" r="5" fill="green" stroke="none" /><circle cx="1456" cy="5546" r="5" fill="green" stroke="none" /><circle cx="6294" cy="6533" r="5" fill="green" stroke="none" /><circle cx="1835" cy="6426" r="5" fill="green" stroke="none" /><circle cx="5167" cy="2238" r="5" fill="green" stroke="none" /><circle cx="1514" cy="6359" r="5" fill="green" stroke="none" /><circle cx="6621" cy="2893" r="5" fill="green" stroke="none" /><circle cx="2069" cy="1919" r="5" fill="green" stroke="none" /><circle cx="6537" cy="3698" r="5" fill="green" stroke="none" /><circle cx="2079" cy="2125" r="5" fill="green" stroke="none" /><circle cx="5165" cy="3822" r="5" fill="green" stroke="none" /><circle cx="6373" cy="3248" r="5" fill="green" stroke="none" /><circle cx="648" cy="4139" r="5" fill="green" stroke="none" /><circle cx="1209" cy="794" r="5" fill="green" stroke="none" /><circle cx="2137" cy="459" r="5" fill="green" stroke="none" /><circle cx="5574" cy="2914" r="5" fill="green" stroke="none" /><circle cx="6627" cy="6337" r="5" fill="green" stroke="none" /><circle cx="6307" cy="6435" r="5" fill="green" stroke="none" /><circle cx="2890" cy="3651" r="5" fill="green" stroke="none" /><circle cx="73" cy="849" r="5" fill="green" stroke="none" /><circle cx="5695" cy="566" r="5" fill="green" stroke="none" /><circle cx="4780" cy="2251" r="5" fill="green" stroke="none" /><circle cx="4630" cy="1632" r="5" fill="green" stroke="none" /><circle cx="6252" cy="1273" r="5" fill="green" stroke="none" /><circle cx="5377" cy="1497" r="5" fill="green" stroke="none" /><circle cx="897" cy="574" r="5" fill="green" stroke="none" /><circle cx="1302" cy="3545" r="5" fill="green" stroke="none" /><circle cx="2235" cy="6463" r="5" fill="green" stroke="none" /><circle cx="7010" cy="6470" r="5" fill="green" stroke="none" /><circle cx="942" cy="649" r="5" fill="green" stroke="none" /><circle cx="5621" cy="1034" r="5" fill="green" stroke="none" /><circle cx="6062" cy="384" r="5" fill="green" stroke="none" /><circle cx="5178" cy="6224" r="5" fill="green" stroke="none" /><circle cx="3590" cy="194" r="5" fill="green" stroke="none" /><circle cx="3432" cy="4173" r="5" fill="green" stroke="none" /><circle cx="6719" cy="3171" r="5" fill="green" stroke="none" /><circle cx="7300" cy="4717" r="5" fill="green" stroke="none" /><circle cx="7068" cy="1948" r="5" fill="green" stroke="none" /><circle cx="3678" cy="3208" r="5" fill="green" stroke="none" /><circle cx="8405" cy="5896" r="5" fill="green" stroke="none" /><circle cx="5325" cy="6169" r="5" fill="green" stroke="none" /><circle cx="654" cy="6955" r="5" fill="green" stroke="none" /><circle cx="4169" cy="5395" r="5" fill="green" stroke="none" /><circle cx="8609" cy="245" r="5" fill="green" stroke="none" /><circle cx="6572" cy="4565" r="5" fill="green" stroke="none" /><circle cx="4175" cy="836" r="5" fill="green" stroke="none" /><circle cx="4830" cy="1897" r="5" fill="green" stroke="none" /><circle cx="5678" cy="671" r="5" fill="green" stroke="none" /><circle cx="4134" cy="2335" r="5" fill="green" stroke="none" /><circle cx="5245" cy="5150" r="5" fill="green" stroke="none" /><circle cx="1290" cy="4375" r="5" fill="green" stroke="none" /><circle cx="7392" cy="3092" r="5" fill="green" stroke="none" /><circle cx="7506" cy="4862" r="5" fill="green" stroke="none" /><circle cx="1819" cy="645" r="5" fill="green" stroke="none" /><circle cx="1237" cy="1981" r="5" fill="green" stroke="none" /><circle cx="1775" cy="3414" r="5" fill="green" stroke="none" /><circle cx="5163" cy="1631" r="5" fill="green" stroke="none" /><circle cx="4201" cy="5300" r="5" fill="green" stroke="none" /><circle cx="1912" cy="1095" r="5" fill="green" stroke="none" /><circle cx="3761" cy="5086" r="5" fill="green" stroke="none" /><circle cx="1994" cy="5822" r="5" fill="green" stroke="none" /><circle cx="4998" cy="2947" r="5" fill="green" stroke="none" /><circle cx="5378" cy="5193" r="5" fill="green" stroke="none" /><circle cx="3506" cy="6116" r="5" fill="green" stroke="none" /><circle cx="8332" cy="6539" r="5" fill="green" stroke="none" /><circle cx="4525" cy="4340" r="5" fill="green" stroke="none" /><circle cx="323" cy="4334" r="5" fill="green" stroke="none" /><circle cx="3064" cy="6565" r="5" fill="green" stroke="none" /><circle cx="458" cy="6110" r="5" fill="green" stroke="none" /><circle cx="2358" cy="5911" r="5" fill="green" stroke="none" /><circle cx="3648" cy="6933" r="5" fill="green" stroke="none" /><circle cx="3797" cy="1752" r="5" fill="green" stroke="none" /><circle cx="2938" cy="5943" r="5" fill="green" stroke="none" /><circle cx="8438" cy="6657" r="5" fill="green" stroke="none" /><circle cx="2812" cy="784" r="5" fill="green" stroke="none" /><circle cx="2769" cy="4816" r="5" fill="green" stroke="none" /><circle cx="3780" cy="6549" r="5" fill="green" stroke="none" /><circle cx="7110" cy="5550" r="5" fill="green" stroke="none" /><circle cx="3092" cy="632" r="5" fill="green" stroke="none" /><circle cx="884" cy="1495" r="5" fill="green" stroke="none" /><circle cx="4152" cy="4249" r="5" fill="green" stroke="none" /><circle cx="4" cy="6196" r="5" fill="green" stroke="none" /><circle cx="8421" cy="5765" r="5" fill="green" stroke="none" /><circle cx="6382" cy="509" r="5" fill="green" stroke="none" /><circle cx="3916" cy="3363" r="5" fill="green" stroke="none" /><circle cx="615" cy="3380" r="5" fill="green" stroke="none" /><circle cx="8481" cy="1846" r="5" fill="green" stroke="none" /><circle cx="4148" cy="4791" r="5" fill="green" stroke="none" /><circle cx="3574" cy="6619" r="5" fill="green" stroke="none" /><circle cx="4411" cy="2575" r="5" fill="green" stroke="none" /><circle cx="399" cy="2716" r="5" fill="green" stroke="none" /><circle cx="227" cy="2569" r="5" fill="green" stroke="none" /><circle cx="942" cy="5311" r="5" fill="green" stroke="none" /><circle cx="3317" cy="3007" r="5" fill="green" stroke="none" /><circle cx="2403" cy="1442" r="5" fill="green" stroke="none" /><circle cx="6104" cy="4577" r="5" fill="green" stroke="none" /><circle cx="3653" cy="5218" r="5" fill="green" stroke="none" /><circle cx="4966" cy="6293" r="5" fill="green" stroke="none" /><circle cx="8189" cy="1894" r="5" fill="green" stroke="none" /><circle cx="2647" cy="2219" r="5" fill="green" stroke="none" /><circle cx="4100" cy="3995" r="5" fill="green" stroke="none" /><circle cx="8597" cy="5955" r="5" fill="green" stroke="none" /><circle cx="6955" cy="1802" r="5" fill="green" stroke="none" /><circle cx="2708" cy="5774" r="5" fill="green" stroke="none" /><circle cx="3763" cy="3817" r="5" fill="green" stroke="none" /><circle cx="5586" cy="5139" r="5" fill="green" stroke="none" /><circle cx="282" cy="3419" r="5" fill="green" stroke="none" /><circle cx="2754" cy="5756" r="5" fill="green" stroke="none" /><circle cx="6772" cy="3634" r="5" fill="green" stroke="none" /><circle cx="8090" cy="5962" r="5" fill="green" stroke="none" /><circle cx="7603" cy="3171" r="5" fill="green" stroke="none" /><circle cx="6625" cy="152" r="5" fill="green" stroke="none" /><circle cx="3845" cy="3320" r="5" fill="green" stroke="none" /><circle cx="7390" cy="6492" r="5" fill="green" stroke="none" /><circle cx="7738" cy="719" r="5" fill="green" stroke="none" /><circle cx="188" cy="6126" r="5" fill="green" stroke="none" /><circle cx="4041" cy="6222" r="5" fill="green" stroke="none" /><circle cx="2169" cy="3152" r="5" fill="green" stroke="none" /><circle cx="5231" cy="5817" r="5" fill="green" stroke="none" /><circle cx="1884" cy="3575" r="5" fill="green" stroke="none" /><circle cx="3385" cy="6746" r="5" fill="green" stroke="none" /><circle cx="8073" cy="28" r="5" fill="green" stroke="none" /><circle cx="2822" cy="5284" r="5" fill="green" stroke="none" /><circle cx="1954" cy="4271" r="5" fill="green" stroke="none" /><circle cx="6524" cy="6981" r="5" fill="green" stroke="none" /><circle cx="794" cy="7101" r="5" fill="green" stroke="none" /><circle cx="6667" cy="3987" r="5" fill="green" stroke="none" /><circle cx="2250" cy="6755" r="5" fill="green" stroke="none" /><circle cx="7851" cy="4100" r="5" fill="green" stroke="none" /><circle cx="4818" cy="257" r="5" fill="green" stroke="none" /><circle cx="359" cy="5841" r="5" fill="green" stroke="none" /><circle cx="4586" cy="1168" r="5" fill="green" stroke="none" /><circle cx="3722" cy="388" r="5" fill="green" stroke="none" /><circle cx="990" cy="5848" r="5" fill="green" stroke="none" /><circle cx="6976" cy="2241" r="5" fill="green" stroke="none" /><circle cx="139" cy="2067" r="5" fill="green" stroke="none" /><circle cx="4345" cy="2886" r="5" fill="green" stroke="none" /><circle cx="7648" cy="2195" r="5" fill="green" stroke="none" /><circle cx="777" cy="1999" r="5" fill="green" stroke="none" /><circle cx="5322" cy="5287" r="5" fill="green" stroke="none" /><circle cx="121" cy="4178" r="5" fill="green" stroke="none" /><circle cx="7373" cy="6665" r="5" fill="green" stroke="none" /><circle cx="5754" cy="5516" r="5" fill="green" stroke="none" /><circle cx="2798" cy="848" r="5" fill="green" stroke="none" /><circle cx="7149" cy="1892" r="5" fill="green" stroke="none" /><circle cx="6850" cy="3253" r="5" fill="green" stroke="none" /><circle cx="4982" cy="5337" r="5" fill="green" stroke="none" /><circle cx="6273" cy="4659" r="5" fill="green" stroke="none" /><circle cx="5033" cy="1401" r="5" fill="green" stroke="none" /><circle cx="1711" cy="835" r="5" fill="green" stroke="none" /><circle cx="3876" cy="1966" r="5" fill="green" stroke="none" /><circle cx="7403" cy="3626" r="5" fill="green" stroke="none" /><circle cx="5101" cy="2764" r="5" fill="green" stroke="none" /><circle cx="3256" cy="2234" r="5" fill="green" stroke="none" /><circle cx="5165" cy="4572" r="5" fill="green" stroke="none" /><circle cx="6992" cy="5121" r="5" fill="green" stroke="none" /><circle cx="6039" cy="2631" r="5" fill="green" stroke="none" /><circle cx="7877" cy="2365" r="5" fill="green" stroke="none" /><circle cx="1903" cy="6087" r="5" fill="green" stroke="none" /><circle cx="3396" cy="5132" r="5" fill="green" stroke="none" /><circle cx="7110" cy="3314" r="5" fill="green" stroke="none" /><circle cx="3623" cy="3745" r="5" fill="green" stroke="none" /><circle cx="429" cy="3223" r="5" fill="green" stroke="none" /><circle cx="3851" cy="6877" r="5" fill="green" stroke="none" /><circle cx="2137" cy="231" r="5" fill="green" stroke="none" /><circle cx="4324" cy="5984" r="5" fill="green" stroke="none" /><circle cx="4888" cy="6914" r="5" fill="green" stroke="none" /><circle cx="3729" cy="3850" r="5" fill="green" stroke="none" /><circle cx="7811" cy="3799" r="5" fill="green" stroke="none" /><circle cx="2025" cy="2125" r="5" fill="green" stroke="none" /><circle cx="3330" cy="1035" r="5" fill="green" stroke="none" /><circle cx="1324" cy="1689" r="5" fill="green" stroke="none" /><circle cx="8145" cy="2380" r="5" fill="green" stroke="none" /><circle cx="361" cy="5891" r="5" fill="green" stroke="none" /><circle cx="756" cy="2067" r="5" fill="green" stroke="none" /><circle cx="1115" cy="2627" r="5" fill="green" stroke="none" /><circle cx="8017" cy="6272" r="5" fill="green" stroke="none" /><circle cx="6707" cy="5968" r="5" fill="green" stroke="none" /><circle cx="1424" cy="1031" r="5" fill="green" stroke="none" /><circle cx="6267" cy="4731" r="5" fill="green" stroke="none" /><circle cx="6667" cy="4760" r="5" fill="green" stroke="none" /><circle cx="567" cy="3049" r="5" fill="green" stroke="none" /><circle cx="4834" cy="5674" r="5" fill="green" stroke="none" /><circle cx="3" cy="5598" r="5" fill="green" stroke="none" /><circle cx="7318" cy="7032" r="5" fill="green" stroke="none" /><circle cx="627" cy="1994" r="5" fill="green" stroke="none" /><circle cx="2533" cy="6280" r="5" fill="green" stroke="none" /><circle cx="6063" cy="3088" r="5" fill="green" stroke="none" /><circle cx="7752" cy="2555" r="5" fill="green" stroke="none" /><circle cx="678" cy="6334" r="5" fill="green" stroke="none" /><circle cx="4084" cy="2750" r="5" fill="green" stroke="none" /><circle cx="6139" cy="4287" r="5" fill="green" stroke="none" /><circle cx="4025" cy="818" r="5" fill="green" stroke="none" /><circle cx="2403" cy="6147" r="5" fill="green" stroke="none" /><circle cx="804" cy="6390" r="5" fill="green" stroke="none" /><circle cx="3550" cy="5036" r="5" fill="green" stroke="none" /><circle cx="8040" cy="4137" r="5" fill="green" stroke="none" /><circle cx="3692" cy="4674" r="5" fill="green" stroke="none" /><circle cx="4179" cy="3218" r="5" fill="green" stroke="none" /><circle cx="758" cy="3168" r="5" fill="green" stroke="none" /><circle cx="347" cy="6439" r="5" fill="green" stroke="none" /><circle cx="2077" cy="3801" r="5" fill="green" stroke="none" /><circle cx="598" cy="4663" r="5" fill="green" stroke="none" /><circle cx="2538" cy="82" r="5" fill="green" stroke="none" /><circle cx="7473" cy="4913" r="5" fill="green" stroke="none" /><circle cx="1775" cy="6048" r="5" fill="green" stroke="none" /><circle cx="7731" cy="6423" r="5" fill="green" stroke="none" /><circle cx="4324" cy="6280" r="5" fill="green" stroke="none" /><circle cx="8218" cy="251" r="5" fill="green" stroke="none" /><circle cx="6451" cy="4236" r="5" fill="green" stroke="none" /><circle cx="5000" cy="5398" r="5" fill="green" stroke="none" /><circle cx="6255" cy="1897" r="5" fill="green" stroke="none" /><circle cx="2008" cy="7016" r="5" fill="green" stroke="none" /><circle cx="4842" cy="5818" r="5" fill="green" stroke="none" /><circle cx="137" cy="7107" r="5" fill="green" stroke="none" /><circle cx="3732" cy="868" r="5" fill="green" stroke="none" /><circle cx="2343" cy="960" r="5" fill="green" stroke="none" /><circle cx="5882" cy="5261" r="5" fill="green" stroke="none" /><circle cx="4774" cy="6751" r="5" fill="green" stroke="none" /><circle cx="581" cy="1899" r="5" fill="green" stroke="none" /><circle cx="7105" cy="1684" r="5" fill="green" stroke="none" /><circle cx="2155" cy="5193" r="5" fill="green" stroke="none" /><circle cx="1884" cy="4496" r="5" fill="green" stroke="none" /><circle cx="6177" cy="154" r="5" fill="green" stroke="none" /><circle cx="4846" cy="1384" r="5" fill="green" stroke="none" /><circle cx="6577" cy="581" r="5" fill="green" stroke="none" /><circle cx="3841" cy="2069" r="5" fill="green" stroke="none" /><circle cx="874" cy="5600" r="5" fill="green" stroke="none" /><circle cx="5669" cy="6959" r="5" fill="green" stroke="none" /><circle cx="5418" cy="5565" r="5" fill="green" stroke="none" /><circle cx="4788" cy="3626" r="5" fill="green" stroke="none" /><circle cx="805" cy="1134" r="5" fill="green" stroke="none" /><circle cx="1566" cy="242" r="5" fill="green" stroke="none" /><circle cx="1049" cy="6852" r="5" fill="green" stroke="none" /><circle cx="1163" cy="5277" r="5" fill="green" stroke="none" /><circle cx="5706" cy="1254" r="5" fill="green" stroke="none" /><circle cx="7816" cy="6310" r="5" fill="green" stroke="none" /><circle cx="1043" cy="626" r="5" fill="green" stroke="none" /><circle cx="2129" cy="1911" r="5" fill="green" stroke="none" /><circle cx="1318" cy="4221" r="5" fill="green" stroke="none" /><circle cx="5849" cy="1838" r="5" fill="green" stroke="none" /><circle cx="8275" cy="4582" r="5" fill="green" stroke="none" /><circle cx="7748" cy="5980" r="5" fill="green" stroke="none" /><circle cx="7778" cy="3849" r="5" fill="green" stroke="none" /><circle cx="1349" cy="4085" r="5" fill="green" stroke="none" /><circle cx="6490" cy="5470" r="5" fill="green" stroke="none" /><circle cx="1834" cy="1084" r="5" fill="green" stroke="none" /><circle cx="6334" cy="1915" r="5" fill="green" stroke="none" /><circle cx="4577" cy="1242" r="5" fill="green" stroke="none" /><circle cx="5499" cy="5012" r="5" fill="green" stroke="none" /><circle cx="824" cy="1192" r="5" fill="green" stroke="none" /><circle cx="2086" cy="3987" r="5" fill="green" stroke="none" /><circle cx="8361" cy="229" r="5" fill="green" stroke="none" /><circle cx="2012" cy="5852" r="5" fill="green" stroke="none" /><circle cx="2230" cy="5281" r="5" fill="green" stroke="none" /><circle cx="7396" cy="2631" r="5" fill="green" stroke="none" /><circle cx="1895" cy="2920" r="5" fill="green" stroke="none" /><circle cx="4447" cy="1100" r="5" fill="green" stroke="none" /><circle cx="1045" cy="4158" r="5" fill="green" stroke="none" /><circle cx="7596" cy="6329" r="5" fill="green" stroke="none" /><circle cx="7182" cy="6751" r="5" fill="green" stroke="none" /><circle cx="7805" cy="630" r="5" fill="green" stroke="none" /><circle cx="2441" cy="3929" r="5" fill="green" stroke="none" /><circle cx="5142" cy="2028" r="5" fill="green" stroke="none" /><circle cx="4670" cy="3801" r="5" fill="green" stroke="none" /><circle cx="903" cy="102" r="5" fill="green" stroke="none" /><circle cx="3240" cy="1383" r="5" fill="green" stroke="none" /><circle cx="1159" cy="215" r="5" fill="green" stroke="none" /><circle cx="5595" cy="2868" r="5" fill="green" stroke="none" /><circle cx="3427" cy="2479" r="5" fill="green" stroke="none" /><circle cx="6825" cy="2614" r="5" fill="green" stroke="none" /><circle cx="3731" cy="4147" r="5" fill="green" stroke="none" /><circle cx="7154" cy="2462" r="5" fill="green" stroke="none" /><circle cx="4851" cy="2219" r="5" fill="green" stroke="none" /><circle cx="4356" cy="2133" r="5" fill="green" stroke="none" /><circle cx="2745" cy="813" r="5" fill="green" stroke="none" /><circle cx="2217" cy="3206" r="5" fill="green" stroke="none" /><circle cx="7086" cy="6954" r="5" fill="green" stroke="none" /><circle cx="3847" cy="960" r="5" fill="green" stroke="none" /><circle cx="4805" cy="728" r="5" fill="green" stroke="none" /><circle cx="6872" cy="1517" r="5" fill="green" stroke="none" /><circle cx="1420" cy="3547" r="5" fill="green" stroke="none" /><circle cx="2539" cy="6841" r="5" fill="green" stroke="none" /><circle cx="3298" cy="2225" r="5" fill="green" stroke="none" /><circle cx="7534" cy="2833" r="5" fill="green" stroke="none" /><circle cx="296" cy="6889" r="5" fill="green" stroke="none" /><circle cx="5343" cy="63" r="5" fill="green" stroke="none" /><circle cx="3284" cy="5901" r="5" fill="green" stroke="none" /><circle cx="3719" cy="1645" r="5" fill="green" stroke="none" /><circle cx="1814" cy="7079" r="5" fill="green" stroke="none" /><circle cx="6143" cy="881" r="5" fill="green" stroke="none" /><circle cx="1791" cy="6697" r="5" fill="green" stroke="none" /><circle cx="903" cy="4691" r="5" fill="green" stroke="none" /><circle cx="5805" cy="2359" r="5" fill="green" stroke="none" /><circle cx="3879" cy="4604" r="5" fill="green" stroke="none" /><circle cx="7539" cy="4361" r="5" fill="green" stroke="none" /><circle cx="6590" cy="5029" r="5" fill="green" stroke="none" /><circle cx="4076" cy="4258" r="5" fill="green" stroke="none" /><circle cx="1557" cy="2102" r="5" fill="green" stroke="none" /><circle cx="1061" cy="1224" r="5" fill="green" stroke="none" /><circle cx="6692" cy="2127" r="5" fill="green" stroke="none" /><circle cx="6235" cy="5822" r="5" fill="green" stroke="none" /><circle cx="534" cy="791" r="5" fill="green" stroke="none" /><circle cx="3247" cy="105" r="5" fill="green" stroke="none" /><circle cx="1226" cy="3962" r="5" fill="green" stroke="none" /><circle cx="4595" cy="361" r="5" fill="green" stroke="none" /><circle cx="6484" cy="889" r="5" fill="green" stroke="none" /><circle cx="5774" cy="416" r="5" fill="green" stroke="none" /><circle cx="1766" cy="5252" r="5" fill="green" stroke="none" /><circle cx="6713" cy="2945" r="36" fill="red" stroke="none" /><circle cx="3542" cy="5271" r="74" fill="red" stroke="none" /><circle cx="5553" cy="6029" r="63" fill="red" stroke="none" /><circle cx="1540" cy="858" r="29" fill="red" stroke="none" /><circle cx="4173" cy="728" r="18" fill="red" stroke="none" /><circle cx="755" cy="1213" r="42" fill="red" stroke="none" /><circle cx="460" cy="7074" r="35" fill="red" stroke="none" /><circle cx="4580" cy="547" r="82" fill="red" stroke="none" /><circle cx="2769" cy="710" r="76" fill="red" stroke="none" /><circle cx="7270" cy="6285" r="27" fill="red" stroke="none" /><circle cx="2214" cy="6641" r="73" fill="red" stroke="none" /><circle cx="5688" cy="6426" r="72" fill="red" stroke="none" /><circle cx="1685" cy="2129" r="11" fill="red" stroke="none" /><circle cx="6334" cy="793" r="26" fill="red" stroke="none" /><circle cx="3520" cy="5186" r="79" fill="red" stroke="none" /><circle cx="6270" cy="6960" r="24" fill="red" stroke="none" /><circle cx="1145" cy="1139" r="79" fill="red" stroke="none" /><circle cx="1824" cy="4285" r="56" fill="red" stroke="none" /><circle cx="2366" cy="1351" r="68" fill="red" stroke="none" /><circle cx="8264" cy="525" r="45" fill="red" stroke="none" /><circle cx="6437" cy="1649" r="44" fill="red" stroke="none" /><circle cx="2255" cy="4408" r="81" fill="red" stroke="none" /><circle cx="1083" cy="5339" r="54" fill="red" stroke="none" /><circle cx="2200" cy="800" r="48" fill="red" stroke="none" /><circle cx="769" cy="6100" r="62" fill="red" stroke="none" /><circle cx="4857" cy="3599" r="34" fill="red" stroke="none" /><circle cx="5673" cy="4604" r="12" fill="red" stroke="none" /><circle cx="832" cy="5535" r="34" fill="red" stroke="none" /><circle cx="4248" cy="442" r="10" fill="red" stroke="none" /><circle cx="309" cy="3178" r="59" fill="red" stroke="none" /><circle cx="6076" cy="2471" r="68" fill="red" stroke="none" /><circle cx="5272" cy="6279" r="64" fill="red" stroke="none" /><circle cx="3256" cy="2067" r="39" fill="red" stroke="none" /><circle cx="2842" cy="2127" r="19" fill="red" stroke="none" /><circle cx="6613" cy="3859" r="76" fill="red" stroke="none" /><circle cx="6350" cy="5988" r="35" fill="red" stroke="none" /><circle cx="1527" cy="3971" r="27" fill="red" stroke="none" /><circle cx="1197" cy="906" r="60" fill="red" stroke="none" /><circle cx="8017" cy="3744" r="30" fill="red" stroke="none" /><circle cx="1476" cy="3052" r="32" fill="red" stroke="none" /><circle cx="5883" cy="5146" r="43" fill="red" stroke="none" /><circle cx="8583" cy="6999" r="41" fill="red" stroke="none" /><circle cx="6334" cy="4447" r="54" fill="red" stroke="none" /><circle cx="1654" cy="1887" r="13" fill="red" stroke="none" /><circle cx="2379" cy="824" r="42" fill="red" stroke="none" /><circle cx="3066" cy="957" r="9" fill="red" stroke="none" /><circle cx="5285" cy="3844" r="18" fill="red" stroke="none" /></svg>