<svg viewBox="0 0 5135 8578" xmlns="http://www.w3.org/2000/svg"><rect x="0" y="0" width="5135" height="8578" fill="lightyellow" stroke="none "/><rect x="1792" y="2383" width="1263" height="720" fill="white" stroke="black "/><circle cx="1186" cy="3470" r="5" fill="green" stroke="none" /><circle cx="105" cy="7254" r="5" fill="green" stroke="none" /><circle cx="2702" cy="7961" r="5" fill="green" stroke="none" /><circle cx="3650" cy="6428" r="5" fill="green" stroke="none" /><circle cx="2190" cy="6469" r="5" fill="green" stroke="none" /><circle cx="2054" cy="7353" r="5" fill="green" stroke="none" /><circle cx="4286" cy="1464" r="5" fill="green" stroke="none" /><circle cx="2651" cy="4410" r="5" fill="green" stroke="none" /><circle cx="2545" cy="5470" r="5" fill="green" stroke="none" /><circle cx="892" cy="8421" r="5" fill="green" stroke="none" /><circle cx="2262" cy="1890" r="5" fill="green" stroke="none" /><circle cx="483" cy="1367" r="5" fill="green" stroke="none" /><circle cx="3887" cy="2340" r="5" fill="green" stroke="none" /><circle cx="4136" cy="8276" r="5" fill="green" stroke="none" /><circle cx="2872" cy="6681" r="5" fill="green" stroke="none" /><circle cx="1257" cy="7515" r="5" fill="green" stroke="none" /><circle cx="1544" cy="3685" r="5" fill="green" stroke="none" /><circle cx="2811" cy="8032" r="5" fill="green" stroke="none" /><circle cx="744" cy="2150" r="5" fill="green" stroke="none" /><circle cx="387" cy="4160" r="5" fill="green" stroke="none" /><circle cx="3084" cy="4333" r="5" fill="green" stroke="none" /><circle cx="2765" cy="3658" r="5" fill="green" stroke="none" /><circle cx="521" cy="7100" r="5" fill="green" stroke="none" /><circle cx="1213" cy="2694" r="5" fill="green" stroke="none" /><circle cx="114" cy="6494" r="5" fill="green" stroke="none" /><circle cx="4418" cy="6018" r="5" fill="green" stroke="none" /><circle cx="717" cy="6100" r="5" fill="green" stroke="none" /><circle cx="4339" cy="7840" r="5" fill="green" stroke="none" /><circle cx="4645" cy="8296" r="5" fill="green" stroke="none" /><circle cx="4783" cy="623" r="5" fill="green" stroke="none" /><circle cx="2460" cy="1427" r="5" fill="green" stroke="none" /><circle cx="3457" cy="7969" r="5" fill="green" stroke="none" /><circle cx="4292" cy="6542" r="5" fill="green" stroke="none" /><circle cx="3630" cy="5929" r="5" fill="green" stroke="none" /><circle cx="2877" cy="86" r="5" fill="green" stroke="none" /><circle cx="432" cy="6412" r="5" fill="green" stroke="none" /><circle cx="2601" cy="5875" r="5" fill="green" stroke="none" /><circle cx="1010" cy="2017" r="5" fill="green" stroke="none" /><circle cx="1494" cy="1000" r="5" fill="green" stroke="none" /><circle cx="2431" cy="3389" r="5" fill="green" stroke="none" /><circle cx="4958" cy="502" r="5" fill="green" stroke="none" /><circle cx="2823" cy="3942" r="5" fill="green" stroke="none" /><circle cx="3584" cy="1631" r="5" fill="green" stroke="none" /><circle cx="463" cy="8003" r="5" fill="green" stroke="none" /><circle cx="2081" cy="5924" r="5" fill="green" stroke="none" /><circle cx="153" cy="3623" r="5" fill="green" stroke="none" /><circle cx="1063" cy="6812" r="5" fill="green" stroke="none" /><circle cx="3305" cy="2048" r="5" fill="green" stroke="none" /><circle cx="4945" cy="1072" r="5" fill="green" stroke="none" /><circle cx="3848" cy="3019" r="5" fill="green" stroke="none" /><circle cx="3933" cy="8282" r="5" fill="green" stroke="none" /><circle cx="990" cy="1301" r="5" fill="green" stroke="none" /><circle cx="2252" cy="7766" r="5" fill="green" stroke="none" /><circle cx="318" cy="2707" r="5" fill="green" stroke="none" /><circle cx="3252" cy="1884" r="5" fill="green" stroke="none" /><circle cx="521" cy="1315" r="5" fill="green" stroke="none" /><circle cx="1458" cy="4835" r="5" fill="green" stroke="none" /><circle cx="1982" cy="4574" r="5" fill="green" stroke="none" /><circle cx="3418" cy="6043" r="5" fill="green" stroke="none" /><circle cx="4442" cy="7071" r="5" fill="green" stroke="none" /><circle cx="5101" cy="653" r="5" fill="green" stroke="none" /><circle cx="4557" cy="8113" r="5" fill="green" stroke="none" /><circle cx="583" cy="1792" r="5" fill="green" stroke="none" /><circle cx="5073" cy="6544" r="5" fill="green" stroke="none" /><circle cx="2883" cy="5972" r="5" fill="green" stroke="none" /><circle cx="4602" cy="2066" r="5" fill="green" stroke="none" /><circle cx="1511" cy="2631" r="5" fill="green" stroke="none" /><circle cx="1074" cy="904" r="5" fill="green" stroke="none" /><circle cx="671" cy="3570" r="5" fill="green" stroke="none" /><circle cx="1061" cy="3260" r="5" fill="green" stroke="none" /><circle cx="3892" cy="6863" r="5" fill="green" stroke="none" /><circle cx="897" cy="3447" r="5" fill="green" stroke="none" /><circle cx="2594" cy="4939" r="5" fill="green" stroke="none" /><circle cx="4262" cy="4274" r="5" fill="green" stroke="none" /><circle cx="2462" cy="6313" r="5" fill="green" stroke="none" /><circle cx="4464" cy="3710" r="5" fill="green" stroke="none" /><circle cx="1760" cy="7058" r="5" fill="green" stroke="none" /><circle cx="2519" cy="1600" r="5" fill="green" stroke="none" /><circle cx="4539" cy="1284" r="5" fill="green" stroke="none" /><circle cx="5122" cy="2250" r="5" fill="green" stroke="none" /><circle cx="3790" cy="5799" r="5" fill="green" stroke="none" /><circle cx="2865" cy="6003" r="5" fill="green" stroke="none" /><circle cx="451" cy="4862" r="5" fill="green" stroke="none" /><circle cx="486" cy="1180" r="5" fill="green" stroke="none" /><circle cx="4493" cy="2316" r="5" fill="green" stroke="none" /><circle cx="1814" cy="918" r="5" fill="green" stroke="none" /><circle cx="4096" cy="7958" r="5" fill="green" stroke="none" /><circle cx="2938" cy="1075" r="5" fill="green" stroke="none" /><circle cx="3061" cy="8401" r="5" fill="green" stroke="none" /><circle cx="1905" cy="7272" r="5" fill="green" stroke="none" /><circle cx="4043" cy="471" r="5" fill="green" stroke="none" /><circle cx="5118" cy="5008" r="5" fill="green" stroke="none" /><circle cx="4778" cy="7594" r="5" fill="green" stroke="none" /><circle cx="1687" cy="8045" r="5" fill="green" stroke="none" /><circle cx="3076" cy="3121" r="5" fill="green" stroke="none" /><circle cx="2754" cy="4561" r="5" fill="green" stroke="none" /><circle cx="2215" cy="2319" r="5" fill="green" stroke="none" /><circle cx="4514" cy="2148" r="5" fill="green" stroke="none" /><circle cx="801" cy="8534" r="5" fill="green" stroke="none" /><circle cx="3023" cy="602" r="5" fill="green" stroke="none" /><circle cx="906" cy="6832" r="5" fill="green" stroke="none" /><circle cx="1963" cy="8022" r="5" fill="green" stroke="none" /><circle cx="613" cy="3806" r="5" fill="green" stroke="none" /><circle cx="2060" cy="4504" r="5" fill="green" stroke="none" /><circle cx="3551" cy="6596" r="5" fill="green" stroke="none" /><circle cx="1798" cy="7353" r="5" fill="green" stroke="none" /><circle cx="1392" cy="1739" r="5" fill="green" stroke="none" /><circle cx="3250" cy="2026" r="5" fill="green" stroke="none" /><circle cx="1272" cy="1869" r="5" fill="green" stroke="none" /><circle cx="1225" cy="3909" r="5" fill="green" stroke="none" /><circle cx="4364" cy="6664" r="5" fill="green" stroke="none" /><circle cx="281" cy="4547" r="5" fill="green" stroke="none" /><circle cx="3103" cy="8225" r="5" fill="green" stroke="none" /><circle cx="3823" cy="8254" r="5" fill="green" stroke="none" /><circle cx="4791" cy="4702" r="5" fill="green" stroke="none" /><circle cx="168" cy="5914" r="5" fill="green" stroke="none" /><circle cx="2359" cy="4531" r="5" fill="green" stroke="none" /><circle cx="2852" cy="7818" r="5" fill="green" stroke="none" /><circle cx="3196" cy="5606" r="5" fill="green" stroke="none" /><circle cx="3972" cy="8235" r="5" fill="green" stroke="none" /><circle cx="5047" cy="4637" r="5" fill="green" stroke="none" /><circle cx="2118" cy="8256" r="5" fill="green" stroke="none" /><circle cx="4444" cy="4433" r="5" fill="green" stroke="none" /><circle cx="3693" cy="6601" r="5" fill="green" stroke="none" /><circle cx="1224" cy="1843" r="5" fill="green" stroke="none" /><circle cx="3136" cy="3785" r="5" fill="green" stroke="none" /><circle cx="954" cy="6143" r="5" fill="green" stroke="none" /><circle cx="42" cy="4354" r="5" fill="green" stroke="none" /><circle cx="3614" cy="3053" r="5" fill="green" stroke="none" /><circle cx="368" cy="739" r="5" fill="green" stroke="none" /><circle cx="1955" cy="4651" r="5" fill="green" stroke="none" /><circle cx="2254" cy="554" r="5" fill="green" stroke="none" /><circle cx="83" cy="4807" r="5" fill="green" stroke="none" /><circle cx="4875" cy="241" r="5" fill="green" stroke="none" /><circle cx="2696" cy="4301" r="5" fill="green" stroke="none" /><circle cx="1913" cy="127" r="5" fill="green" stroke="none" /><circle cx="3741" cy="7383" r="5" fill="green" stroke="none" /><circle cx="3426" cy="7397" r="5" fill="green" stroke="none" /><circle cx="1499" cy="7001" r="5" fill="green" stroke="none" /><circle cx="536" cy="8359" r="5" fill="green" stroke="none" /><circle cx="421" cy="2611" r="5" fill="green" stroke="none" /><circle cx="5009" cy="3525" r="5" fill="green" stroke="none" /><circle cx="3491" cy="932" r="5" fill="green" stroke="none" /><circle cx="3785" cy="5999" r="5" fill="green" stroke="none" /><circle cx="2677" cy="6426" r="5" fill="green" stroke="none" /><circle cx="1512" cy="5288" r="5" fill="green" stroke="none" /><circle cx="1290" cy="2805" r="5" fill="green" stroke="none" /><circle cx="1120" cy="4172" r="5" fill="green" stroke="none" /><circle cx="3435" cy="6214" r="5" fill="green" stroke="none" /><circle cx="1450" cy="3562" r="5" fill="green" stroke="none" /><circle cx="5041" cy="7403" r="5" fill="green" stroke="none" /><circle cx="3062" cy="211" r="5" fill="green" stroke="none" /><circle cx="713" cy="2152" r="5" fill="green" stroke="none" /><circle cx="4839" cy="6507" r="5" fill="green" stroke="none" /><circle cx="1119" cy="813" r="5" fill="green" stroke="none" /><circle cx="1745" cy="5175" r="5" fill="green" stroke="none" /><circle cx="3295" cy="4178" r="5" fill="green" stroke="none" /><circle cx="2073" cy="3615" r="5" fill="green" stroke="none" /><circle cx="2066" cy="2041" r="5" fill="green" stroke="none" /><circle cx="3792" cy="110" r="5" fill="green" stroke="none" /><circle cx="1543" cy="1097" r="5" fill="green" stroke="none" /><circle cx="3930" cy="707" r="5" fill="green" stroke="none" /><circle cx="4465" cy="2568" r="5" fill="green" stroke="none" /><circle cx="1466" cy="4038" r="5" fill="green" stroke="none" /><circle cx="2364" cy="1528" r="5" fill="green" stroke="none" /><circle cx="4575" cy="4232" r="5" fill="green" stroke="none" /><circle cx="3232" cy="2973" r="5" fill="green" stroke="none" /><circle cx="3808" cy="4573" r="5" fill="green" stroke="none" /><circle cx="294" cy="5597" r="5" fill="green" stroke="none" /><circle cx="1907" cy="8509" r="5" fill="green" stroke="none" /><circle cx="1676" cy="492" r="5" fill="green" stroke="none" /><circle cx="1792" cy="1089" r="5" fill="green" stroke="none" /><circle cx="3718" cy="2543" r="5" fill="green" stroke="none" /><circle cx="2282" cy="4514" r="5" fill="green" stroke="none" /><circle cx="3957" cy="5901" r="5" fill="green" stroke="none" /><circle cx="1934" cy="4983" r="5" fill="green" stroke="none" /><circle cx="4226" cy="2428" r="5" fill="green" stroke="none" /><circle cx="1653" cy="326" r="5" fill="green" stroke="none" /><circle cx="3300" cy="1659" r="5" fill="green" stroke="none" /><circle cx="2163" cy="6961" r="5" fill="green" stroke="none" /><circle cx="4564" cy="603" r="5" fill="green" stroke="none" /><circle cx="1013" cy="4749" r="5" fill="green" stroke="none" /><circle cx="3188" cy="4645" r="5" fill="green" stroke="none" /><circle cx="1344" cy="7837" r="5" fill="green" stroke="none" /><circle cx="4163" cy="4988" r="5" fill="green" stroke="none" /><circle cx="188" cy="554" r="5" fill="green" stroke="none" /><circle cx="1297" cy="2808" r="5" fill="green" stroke="none" /><circle cx="3779" cy="3980" r="5" fill="green" stroke="none" /><circle cx="2999" cy="7423" r="5" fill="green" stroke="none" /><circle cx="1816" cy="4628" r="5" fill="green" stroke="none" /><circle cx="2487" cy="5272" r="5" fill="green" stroke="none" /><circle cx="371" cy="786" r="5" fill="green" stroke="none" /><circle cx="4062" cy="4078" r="5" fill="green" stroke="none" /><circle cx="3880" cy="2223" r="5" fill="green" stroke="none" /><circle cx="1160" cy="2131" r="5" fill="green" stroke="none" /><circle cx="5043" cy="5507" r="5" fill="green" stroke="none" /><circle cx="2322" cy="176" r="5" fill="green" stroke="none" /><circle cx="4061" cy="3881" r="5" fill="green" stroke="none" /><circle cx="1201" cy="526" r="5" fill="green" stroke="none" /><circle cx="2538" cy="4416" r="5" fill="green" stroke="none" /><circle cx="4772" cy="4157" r="5" fill="green" stroke="none" /><circle cx="4183" cy="6118" r="5" fill="green" stroke="none" /><circle cx="521" cy="254" r="5" fill="green" stroke="none" /><circle cx="2750" cy="8071" r="5" fill="green" stroke="none" /><circle cx="598" cy="1042" r="5" fill="green" stroke="none" /><circle cx="4364" cy="3364" r="5" fill="green" stroke="none" /><circle cx="3331" cy="7787" r="5" fill="green" stroke="none" /><circle cx="1573" cy="1716" r="5" fill="green" stroke="none" /><circle cx="3140" cy="1224" r="5" fill="green" stroke="none" /><circle cx="2713" cy="2280" r="5" fill="green" stroke="none" /><circle cx="2566" cy="2313" r="5" fill="green" stroke="none" /><circle cx="2418" cy="6670" r="5" fill="green" stroke="none" /><circle cx="5041" cy="7258" r="5" fill="green" stroke="none" /><circle cx="2438" cy="1546" r="5" fill="green" stroke="none" /><circle cx="4169" cy="3776" r="5" fill="green" stroke="none" /><circle cx="1388" cy="318" r="5" fill="green" stroke="none" /><circle cx="2816" cy="7582" r="5" fill="green" stroke="none" /><circle cx="1677" cy="717" r="5" fill="green" stroke="none" /><circle cx="1020" cy="6826" r="5" fill="green" stroke="none" /><circle cx="2730" cy="2251" r="5" fill="green" stroke="none" /><circle cx="3275" cy="8450" r="5" fill="green" stroke="none" /><circle cx="1954" cy="6544" r="5" fill="green" stroke="none" /><circle cx="4174" cy="7691" r="5" fill="green" stroke="none" /><circle cx="619" cy="808" r="5" fill="green" stroke="none" /><circle cx="2420" cy="8449" r="5" fill="green" stroke="none" /><circle cx="1807" cy="49" r="5" fill="green" stroke="none" /><circle cx="2264" cy="2355" r="5" fill="green" stroke="none" /><circle cx="4583" cy="6915" r="5" fill="green" stroke="none" /><circle cx="4339" cy="7479" r="5" fill="green" stroke="none" /><circle cx="2111" cy="1997" r="5" fill="green" stroke="none" /><circle cx="1180" cy="3924" r="5" fill="green" stroke="none" /><circle cx="2203" cy="551" r="5" fill="green" stroke="none" /><circle cx="591" cy="3991" r="5" fill="green" stroke="none" /><circle cx="4969" cy="7919" r="5" fill="green" stroke="none" /><circle cx="4031" cy="99" r="5" fill="green" stroke="none" /><circle cx="2515" cy="4459" r="5" fill="green" stroke="none" /><circle cx="3908" cy="2541" r="5" fill="green" stroke="none" /><circle cx="3835" cy="3028" r="5" fill="green" stroke="none" /><circle cx="3025" cy="6530" r="5" fill="green" stroke="none" /><circle cx="4532" cy="1021" r="5" fill="green" stroke="none" /><circle cx="320" cy="2681" r="5" fill="green" stroke="none" /><circle cx="13" cy="1594" r="5" fill="green" stroke="none" /><circle cx="585" cy="6838" r="5" fill="green" stroke="none" /><circle cx="4788" cy="2386" r="5" fill="green" stroke="none" /><circle cx="4206" cy="7273" r="5" fill="green" stroke="none" /><circle cx="4948" cy="2275" r="5" fill="green" stroke="none" /><circle cx="3173" cy="7355" r="5" fill="green" stroke="none" /><circle cx="1717" cy="5999" r="5" fill="green" stroke="none" /><circle cx="4399" cy="4719" r="5" fill="green" stroke="none" /><circle cx="4800" cy="5428" r="5" fill="green" stroke="none" /><circle cx="5028" cy="5846" r="5" fill="green" stroke="none" /><circle cx="1456" cy="7641" r="5" fill="green" stroke="none" /><circle cx="1784" cy="787" r="5" fill="green" stroke="none" /><circle cx="4413" cy="8548" r="5" fill="green" stroke="none" /><circle cx="2617" cy="1131" r="5" fill="green" stroke="none" /><circle cx="849" cy="1245" r="5" fill="green" stroke="none" /><circle cx="3876" cy="5536" r="5" fill="green" stroke="none" /><circle cx="4667" cy="3370" r="5" fill="green" stroke="none" /><circle cx="2444" cy="3133" r="5" fill="green" stroke="none" /><circle cx="592" cy="3097" r="5" fill="green" stroke="none" /><circle cx="433" cy="3068" r="5" fill="green" stroke="none" /><circle cx="3317" cy="1940" r="5" fill="green" stroke="none" /><circle cx="2265" cy="516" r="5" fill="green" stroke="none" /><circle cx="2153" cy="5855" r="5" fill="green" stroke="none" /><circle cx="1039" cy="1482" r="5" fill="green" stroke="none" /><circle cx="1123" cy="1464" r="5" fill="green" stroke="none" /><circle cx="1736" cy="2412" r="5" fill="green" stroke="none" /><circle cx="4576" cy="6851" r="5" fill="green" stroke="none" /><circle cx="3397" cy="8541" r="5" fill="green" stroke="none" /><circle cx="381" cy="1115" r="5" fill="green" stroke="none" /><circle cx="1135" cy="7275" r="5" fill="green" stroke="none" /><circle cx="4559" cy="2463" r="5" fill="green" stroke="none" /><circle cx="4956" cy="4112" r="5" fill="green" stroke="none" /><circle cx="3946" cy="4504" r="5" fill="green" stroke="none" /><circle cx="2063" cy="1266" r="5" fill="green" stroke="none" /><circle cx="2885" cy="4895" r="5" fill="green" stroke="none" /><circle cx="1891" cy="8189" r="5" fill="green" stroke="none" /><circle cx="1716" cy="3332" r="5" fill="green" stroke="none" /><circle cx="2081" cy="840" r="5" fill="green" stroke="none" /><circle cx="1827" cy="6720" r="5" fill="green" stroke="none" /><circle cx="1045" cy="1923" r="5" fill="green" stroke="none" /><circle cx="4075" cy="4539" r="5" fill="green" stroke="none" /><circle cx="141" cy="4306" r="5" fill="green" stroke="none" /><circle cx="1351" cy="4553" r="5" fill="green" stroke="none" /><circle cx="4716" cy="4770" r="5" fill="green" stroke="none" /><circle cx="500" cy="8315" r="5" fill="green" stroke="none" /><circle cx="3073" cy="6778" r="5" fill="green" stroke="none" /><circle cx="3346" cy="3837" r="5" fill="green" stroke="none" /><circle cx="3085" cy="6482" r="5" fill="green" stroke="none" /><circle cx="2565" cy="3665" r="5" fill="green" stroke="none" /><circle cx="263" cy="36" r="5" fill="green" stroke="none" /><circle cx="2113" cy="7326" r="5" fill="green" stroke="none" /><circle cx="4389" cy="1218" r="5" fill="green" stroke="none" /><circle cx="3499" cy="4167" r="5" fill="green" stroke="none" /><circle cx="4256" cy="278" r="5" fill="green" stroke="none" /><circle cx="4697" cy="723" r="5" fill="green" stroke="none" /><circle cx="2973" cy="6676" r="5" fill="green" stroke="none" /><circle cx="46" cy="849" r="5" fill="green" stroke="none" /><circle cx="126" cy="488" r="5" fill="green" stroke="none" /><circle cx="2196" cy="5872" r="5" fill="green" stroke="none" /><circle cx="3516" cy="8154" r="5" fill="green" stroke="none" /><circle cx="1013" cy="2337" r="5" fill="green" stroke="none" /><circle cx="3091" cy="7550" r="5" fill="green" stroke="none" /><circle cx="4112" cy="5995" r="5" fill="green" stroke="none" /><circle cx="1851" cy="2173" r="5" fill="green" stroke="none" /><circle cx="5106" cy="6685" r="5" fill="green" stroke="none" /><circle cx="581" cy="686" r="5" fill="green" stroke="none" /><circle cx="915" cy="1669" r="5" fill="green" stroke="none" /><circle cx="2352" cy="7431" r="5" fill="green" stroke="none" /><circle cx="3931" cy="3384" r="5" fill="green" stroke="none" /><circle cx="1887" cy="3143" r="5" fill="green" stroke="none" /><circle cx="1491" cy="3859" r="5" fill="green" stroke="none" /><circle cx="909" cy="6431" r="5" fill="green" stroke="none" /><circle cx="3308" cy="8273" r="5" fill="green" stroke="none" /><circle cx="3759" cy="4758" r="5" fill="green" stroke="none" /><circle cx="2922" cy="7208" r="5" fill="green" stroke="none" /><circle cx="2754" cy="1964" r="5" fill="green" stroke="none" /><circle cx="5039" cy="5986" r="5" fill="green" stroke="none" /><circle cx="1990" cy="6423" r="5" fill="green" stroke="none" /><circle cx="2313" cy="5405" r="5" fill="green" stroke="none" /><circle cx="3163" cy="8402" r="5" fill="green" stroke="none" /><circle cx="4346" cy="8308" r="5" fill="green" stroke="none" /><circle cx="5117" cy="6108" r="5" fill="green" stroke="none" /><circle cx="1155" cy="7801" r="5" fill="green" stroke="none" /><circle cx="4842" cy="3098" r="5" fill="green" stroke="none" /><circle cx="1348" cy="1000" r="5" fill="green" stroke="none" /><circle cx="2192" cy="7427" r="5" fill="green" stroke="none" /><circle cx="4992" cy="3155" r="5" fill="green" stroke="none" /><circle cx="491" cy="869" r="5" fill="green" stroke="none" /><circle cx="837" cy="962" r="5" fill="green" stroke="none" /><circle cx="1135" cy="5682" r="5" fill="green" stroke="none" /><circle cx="429" cy="6126" r="5" fill="green" stroke="none" /><circle cx="1186" cy="6867" r="5" fill="green" stroke="none" /><circle cx="4466" cy="108" r="5" fill="green" stroke="none" /><circle cx="3302" cy="4598" r="5" fill="green" stroke="none" /><circle cx="4335" cy="4820" r="5" fill="green" stroke="none" /><circle cx="2826" cy="8571" r="5" fill="green" stroke="none" /><circle cx="2371" cy="5581" r="5" fill="green" stroke="none" /><circle cx="2324" cy="6108" r="5" fill="green" stroke="none" /><circle cx="4297" cy="485" r="5" fill="green" stroke="none" /><circle cx="1611" cy="4515" r="5" fill="green" stroke="none" /><circle cx="298" cy="1678" r="5" fill="green" stroke="none" /><circle cx="4151" cy="7333" r="5" fill="green" stroke="none" /><circle cx="4851" cy="2307" r="5" fill="green" stroke="none" /><circle cx="5127" cy="415" r="5" fill="green" stroke="none" /><circle cx="233" cy="1937" r="5" fill="green" stroke="none" /><circle cx="3225" cy="4468" r="5" fill="green" stroke="none" /><circle cx="3777" cy="7689" r="5" fill="green" stroke="none" /><circle cx="3494" cy="7253" r="5" fill="green" stroke="none" /><circle cx="4815" cy="2033" r="5" fill="green" stroke="none" /><circle cx="4478" cy="6684" r="5" fill="green" stroke="none" /><circle cx="1769" cy="4488" r="5" fill="green" stroke="none" /><circle cx="2454" cy="8271" r="5" fill="green" stroke="none" /><circle cx="3330" cy="8396" r="5" fill="green" stroke="none" /><circle cx="2604" cy="6334" r="5" fill="green" stroke="none" /><circle cx="1165" cy="3958" r="5" fill="green" stroke="none" /><circle cx="949" cy="345" r="5" fill="green" stroke="none" /><circle cx="2882" cy="3943" r="5" fill="green" stroke="none" /><circle cx="4218" cy="6027" r="5" fill="green" stroke="none" /><circle cx="1097" cy="6109" r="5" fill="green" stroke="none" /><circle cx="2651" cy="6399" r="5" fill="green" stroke="none" /><circle cx="1236" cy="1617" r="5" fill="green" stroke="none" /><circle cx="4365" cy="1686" r="5" fill="green" stroke="none" /><circle cx="4196" cy="1980" r="5" fill="green" stroke="none" /><circle cx="4368" cy="7936" r="5" fill="green" stroke="none" /><circle cx="1617" cy="6987" r="5" fill="green" stroke="none" /><circle cx="2149" cy="3408" r="5" fill="green" stroke="none" /><circle cx="1869" cy="4561" r="5" fill="green" stroke="none" /><circle cx="4989" cy="2342" r="5" fill="green" stroke="none" /><circle cx="3678" cy="965" r="5" fill="green" stroke="none" /><circle cx="2297" cy="1053" r="5" fill="green" stroke="none" /><circle cx="3291" cy="4779" r="5" fill="green" stroke="none" /><circle cx="744" cy="3146" r="5" fill="green" stroke="none" /><circle cx="3891" cy="4181" r="5" fill="green" stroke="none" /><circle cx="4786" cy="7818" r="5" fill="green" stroke="none" /><circle cx="808" cy="7496" r="5" fill="green" stroke="none" /><circle cx="4005" cy="2825" r="5" fill="green" stroke="none" /><circle cx="2411" cy="6812" r="5" fill="green" stroke="none" /><circle cx="836" cy="2450" r="5" fill="green" stroke="none" /><circle cx="1858" cy="6604" r="5" fill="green" stroke="none" /><circle cx="3895" cy="2580" r="5" fill="green" stroke="none" /><circle cx="784" cy="1877" r="5" fill="green" stroke="none" /><circle cx="3719" cy="7683" r="5" fill="green" stroke="none" /><circle cx="1347" cy="2798" r="5" fill="green" stroke="none" /><circle cx="118" cy="6889" r="5" fill="green" stroke="none" /><circle cx="526" cy="4933" r="5" fill="green" stroke="none" /><circle cx="886" cy="1546" r="5" fill="green" stroke="none" /><circle cx="2946" cy="108" r="5" fill="green" stroke="none" /><circle cx="4904" cy="5374" r="5" fill="green" stroke="none" /><circle cx="1412" cy="524" r="5" fill="green" stroke="none" /><circle cx="4823" cy="6387" r="5" fill="green" stroke="none" /><circle cx="1726" cy="7336" r="5" fill="green" stroke="none" /><circle cx="2260" cy="4726" r="5" fill="green" stroke="none" /><circle cx="4927" cy="4973" r="5" fill="green" stroke="none" /><circle cx="2316" cy="8186" r="5" fill="green" stroke="none" /><circle cx="2429" cy="8165" r="5" fill="green" stroke="none" /><circle cx="2286" cy="768" r="5" fill="green" stroke="none" /><circle cx="4948" cy="5386" r="5" fill="green" stroke="none" /><circle cx="3152" cy="3467" r="5" fill="green" stroke="none" /><circle cx="4657" cy="4322" r="5" fill="green" stroke="none" /><circle cx="4712" cy="4431" r="83" fill="red" stroke="none" /><circle cx="3318" cy="3940" r="51" fill="red" stroke="none" /><circle cx="2385" cy="1094" r="79" fill="red" stroke="none" /><circle cx="1294" cy="2213" r="7" fill="red" stroke="none" /><circle cx="2919" cy="4015" r="72" fill="red" stroke="none" /><circle cx="3978" cy="7577" r="37" fill="red" stroke="none" /><circle cx="4066" cy="5344" r="44" fill="red" stroke="none" /><circle cx="4500" cy="3189" r="83" fill="red" stroke="none" /><circle cx="4365" cy="2649" r="27" fill="red" stroke="none" /><circle cx="2420" cy="4332" r="43" fill="red" stroke="none" /><circle cx="3873" cy="1241" r="37" fill="red" stroke="none" /><circle cx="2134" cy="3556" r="59" fill="red" stroke="none" /><circle cx="4104" cy="3554" r="57" fill="red" stroke="none" /><circle cx="1706" cy="1729" r="81" fill="red" stroke="none" /><circle cx="264" cy="6382" r="52" fill="red" stroke="none" /><circle cx="4215" cy="1574" r="43" fill="red" stroke="none" /><circle cx="4405" cy="5730" r="62" fill="red" stroke="none" /><circle cx="3273" cy="4941" r="32" fill="red" stroke="none" /><circle cx="757" cy="6172" r="68" fill="red" stroke="none" /><circle cx="3972" cy="3562" r="23" fill="red" stroke="none" /><circle cx="4193" cy="3884" r="8" fill="red" stroke="none" /><circle cx="440" cy="3781" r="14" fill="red" stroke="none" /><circle cx="4229" cy="4920" r="14" fill="red" stroke="none" /><circle cx="1397" cy="3209" r="52" fill="red" stroke="none" /><circle cx="1275" cy="6626" r="64" fill="red" stroke="none" /><circle cx="1870" cy="6508" r="14" fill="red" stroke="none" /><circle cx="333" cy="401" r="19" fill="red" stroke="none" /><circle cx="1128" cy="5178" r="55" fill="red" stroke="none" /><circle cx="3951" cy="7896" r="76" fill="red" stroke="none" /><circle cx="2452" cy="861" r="13" fill="red" stroke="none" /><circle cx="742" cy="339" r="26" fill="red" stroke="none" /><circle cx="4763" cy="8503" r="52" fill="red" stroke="none" /><circle cx="2767" cy="880" r="62" fill="red" stroke="none" /><circle cx="4439" cy="7956" r="36" fill="red" stroke="none" /><circle cx="5000" cy="7337" r="56" fill="red" stroke="none" /><circle cx="3036" cy="714" r="75" fill="red" stroke="none" /><circle cx="1750" cy="6334" r="44" fill="red" stroke="none" /><circle cx="4199" cy="1635" r="77" fill="red" stroke="none" /><circle cx="570" cy="4868" r="10" fill="red" stroke="none" /><circle cx="1756" cy="5820" r="71" fill="red" stroke="none" /><circle cx="1901" cy="3922" r="77" fill="red" stroke="none" /><circle cx="4972" cy="1799" r="80" fill="red" stroke="none" /><circle cx="4768" cy="8352" r="61" fill="red" stroke="none" /><circle cx="574" cy="5202" r="43" fill="red" stroke="none" /><circle cx="4898" cy="1721" r="54" fill="red" stroke="none" /><circle cx="4564" cy="3445" r="7" fill="red" stroke="none" /><circle cx="1598" cy="558" r="49" fill="red" stroke="none" /><circle cx="4678" cy="7726" r="24" fill="red" stroke="none" /><circle cx="1190" cy="8361" r="62" fill="red" stroke="none" /><circle cx="3267" cy="6939" r="32" fill="red" stroke="none" /><circle cx="745" cy="5443" r="32" fill="red" stroke="none" /><circle cx="585" cy="2365" r="21" fill="red" stroke="none" /><circle cx="4062" cy="5162" r="75" fill="red" stroke="none" /><circle cx="2029" cy="7785" r="29" fill="red" stroke="none" /><circle cx="3799" cy="2514" r="59" fill="red" stroke="none" /><circle cx="1368" cy="3365" r="38" fill="red" stroke="none" /><circle cx="3604" cy="6045" r="43" fill="red" stroke="none" /><circle cx="341" cy="2093" r="51" fill="red" stroke="none" /><circle cx="2086" cy="4093" r="43" fill="red" stroke="none" /><circle cx="3607" cy="2079" r="61" fill="red" stroke="none" /><circle cx="47" cy="8454" r="24" fill="red" stroke="none" /><circle cx="1500" cy="4865" r="20" fill="red" stroke="none" /><circle cx="3965" cy="2083" r="29" fill="red" stroke="none" /><circle cx="632" cy="3364" r="72" fill="red" stroke="none" /><circle cx="2697" cy="2028" r="12" fill="red" stroke="none" /><circle cx="4412" cy="6579" r="23" fill="red" stroke="none" /><circle cx="2014" cy="5182" r="34" fill="red" stroke="none" /><circle cx="4548" cy="5522" r="40" fill="red" stroke="none" /><circle cx="1205" cy="1502" r="43" fill="red" stroke="none" /><circle cx="2935" cy="4142" r="59" fill="red" stroke="none" /><circle cx="2167" cy="4671" r="13" fill="red" stroke="none" /><circle cx="173" cy="5619" r="23" fill="red" stroke="none" /><circle cx="3188" cy="4241" r="17" fill="red" stroke="none" /><circle cx="4047" cy="216" r="37" fill="red" stroke="none" /><circle cx="3156" cy="921" r="56" fill="red" stroke="none" /><circle cx="2109" cy="1376" r="57" fill="red" stroke="none" /><circle cx="596" cy="4637" r="44" fill="red" stroke="none" /><circle cx="3728" cy="6379" r="50" fill="red" stroke="none" /><circle cx="1308" cy="5066" r="9" fill="red" stroke="none" /><circle cx="1320" cy="612" r="47" fill="red" stroke="none" /><circle cx="81" cy="2969" r="40" fill="red" stroke="none" /><circle cx="4925" cy="8311" r="22" fill="red" stroke="none" /><circle cx="2943" cy="8142" r="44" fill="red" stroke="none" /><circle cx="3552" cy="2995" r="70" fill="red" stroke="none" /><circle cx="2042" cy="3679" r="71" fill="red" stroke="none" /><circle cx="345" cy="5052" r="11" fill="red" stroke="none" /><circle cx="2494" cy="7325" r="75" fill="red" stroke="none" /><circle cx="460" cy="1796" r="15" fill="red" stroke="none" /><circle cx="3580" cy="3558" r="83" fill="red" stroke="none" /><circle cx="410" cy="2392" r="68" fill="red" stroke="none" /><circle cx="4038" cy="7422" r="58" fill="red" stroke="none" /><circle cx="1422" cy="885" r="73" fill="red" stroke="none" /><circle cx="3744" cy="480" r="56" fill="red" stroke="none" /><circle cx="4533" cy="5081" r="55" fill="red" stroke="none" /><circle cx="3855" cy="3119" r="13" fill="red" stroke="none" /><circle cx="284" cy="8498" r="65" fill="red" stroke="none" /><circle cx="5075" cy="5400" r="57" fill="red" stroke="none" /><circle cx="1033" cy="6257" r="5" fill="red" stroke="none" /><circle cx="1901" cy="724" r="53" fill="red" stroke="none" /><circle cx="4260" cy="6276" r="17" fill="red" stroke="none" /><circle cx="1886" cy="4965" r="25" fill="red" stroke="none" /><circle cx="1554" cy="5010" r="39" fill="red" stroke="none" /><circle cx="3737" cy="1539" r="78" fill="red" stroke="none" /><circle cx="4709" cy="1725" r="77" fill="red" stroke="none" /><circle cx="2394" cy="7723" r="16" fill="red" stroke="none" /><circle cx="4619" cy="3814" r="29" fill="red" stroke="none" /><circle cx="2453" cy="3802" r="36" fill="red" stroke="none" /><circle cx="1419" cy="7422" r="29" fill="red" stroke="none" /><circle cx="1565" cy="2081" r="48" fill="red" stroke="none" /><circle cx="1336" cy="5794" r="23" fill="red" stroke="none" /><circle cx="4274" cy="5482" r="29" fill="red" stroke="none" /><circle cx="4970" cy="4669" r="49" fill="red" stroke="none" /><circle cx="1046" cy="5341" r="47" fill="red" stroke="none" /><circle cx="3833" cy="2178" r="32" fill="red" stroke="none" /><circle cx="2789" cy="3600" r="22" fill="red" stroke="none" /><circle cx="4136" cy="5692" r="43" fill="red" stroke="none" /><circle cx="1466" cy="6366" r="7" fill="red" stroke="none" /><circle cx="4858" cy="724" r="5" fill="red" stroke="none" /><circle cx="1576" cy="7684" r="10" fill="red" stroke="none" /><circle cx="4281" cy="6258" r="10" fill="red" stroke="none" /><circle cx="3150" cy="5908" r="47" fill="red" stroke="none" /><circle cx="3936" cy="5850" r="35" fill="red" stroke="none" /><circle cx="4648" cy="2874" r="61" fill="red" stroke="none" /><circle cx="4740" cy="7671" r="18" fill="red" stroke="none" /><circle cx="2573" cy="7906" r="12" fill="red" stroke="none" /><circle cx="4855" cy="551" r="46" fill="red" stroke="none" /><circle cx="690" cy="2035" r="42" fill="red" stroke="none" /><circle cx="421" cy="2540" r="41" fill="red" stroke="none" /><circle cx="3957" cy="8464" r="11" fill="red" stroke="none" /><circle cx="3472" cy="3406" r="77" fill="red" stroke="none" /><circle cx="4651" cy="6000" r="22" fill="red" stroke="none" /><circle cx="2672" cy="2189" r="9" fill="red" stroke="none" /><circle cx="2138" cy="5927" r="37" fill="red" stroke="none" /><circle cx="1761" cy="7458" r="61" fill="red" stroke="none" /><circle cx="3729" cy="761" r="41" fill="red" stroke="none" /><circle cx="2784" cy="7742" r="17" fill="red" stroke="none" /><circle cx="4694" cy="4672" r="36" fill="red" stroke="none" /><circle cx="4103" cy="3402" r="53" fill="red" stroke="none" /><circle cx="4638" cy="6110" r="46" fill="red" stroke="none" /><circle cx="1026" cy="8110" r="41" fill="red" stroke="none" /><circle cx="946" cy="556" r="84" fill="red" stroke="none" /><circle cx="3428" cy="1007" r="83" fill="red" stroke="none" /><circle cx="1808" cy="5310" r="39" fill="red" stroke="none" /><circle cx="1589" cy="3746" r="9" fill="red" stroke="none" /><circle cx="3137" cy="3289" r="78" fill="red" stroke="none" /><circle cx="1210" cy="8564" r="11" fill="red" stroke="none" /><circle cx="4865" cy="3154" r="17" fill="red" stroke="none" /><circle cx="4021" cy="3905" r="41" fill="red" stroke="none" /><circle cx="2714" cy="2169" r="36" fill="red" stroke="none" /></svg>