<svg viewBox="0 0 8701 7942" xmlns="http://www.w3.org/2000/svg"><rect x="0" y="0" width="8701" height="7942" fill="lightyellow" stroke="none "/><rect x="3961" y="1878" width="866" height="2301" fill="white" stroke="black "/><circle cx="6947" cy="7830" r="5" fill="green" stroke="none" /><circle cx="6950" cy="1760" r="5" fill="green" stroke="none" /><circle cx="1774" cy="4134" r="5" fill="green" stroke="none" /><circle cx="8643" cy="5460" r="5" fill="green" stroke="none" /><circle cx="5967" cy="5688" r="5" fill="green" stroke="none" /><circle cx="1404" cy="6474" r="5" fill="green" stroke="none" /><circle cx="993" cy="3615" r="5" fill="green" stroke="none" /><circle cx="6543" cy="4177" r="5" fill="green" stroke="none" /><circle cx="7379" cy="5511" r="5" fill="green" stroke="none" /><circle cx="1246" cy="968" r="5" fill="green" stroke="none" /><circle cx="125" cy="4538" r="5" fill="green" stroke="none" /><circle cx="2169" cy="703" r="5" fill="green" stroke="none" /><circle cx="2553" cy="3709" r="5" fill="green" stroke="none" /><circle cx="516" cy="5217" r="5" fill="green" stroke="none" /><circle cx="8598" cy="6754" r="5" fill="green" stroke="none" /><circle cx="6380" cy="148" r="5" fill="green" stroke="none" /><circle cx="5765" cy="5257" r="5" fill="green" stroke="none" /><circle cx="3440" cy="2130" r="5" fill="green" stroke="none" /><circle cx="2009" cy="3853" r="5" fill="green" stroke="none" /><circle cx="106" cy="4807" r="5" fill="green" stroke="none" /><circle cx="7653" cy="4419" r="5" fill="green" stroke="none" /><circle cx="3447" cy="2812" r="5" fill="green" stroke="none" /><circle cx="1807" cy="66" r="5" fill="green" stroke="none" /><circle cx="3148" cy="6746" r="5" fill="green" stroke="none" /><circle cx="8586" cy="3925" r="5" fill="green" stroke="none" /><circle cx="4856" cy="1306" r="5" fill="green" stroke="none" /><circle cx="2171" cy="4020" r="5" fill="green" stroke="none" /><circle cx="6397" cy="5713" r="5" fill="green" stroke="none" /><circle cx="8" cy="2407" r="5" fill="green" stroke="none" /><circle cx="7591" cy="6210" r="5" fill="green" stroke="none" /><circle cx="2238" cy="6437" r="5" fill="green" stroke="none" /><circle cx="4691" cy="1260" r="5" fill="green" stroke="none" /><circle cx="8283" cy="3310" r="5" fill="green" stroke="none" /><circle cx="5805" cy="2281" r="5" fill="green" stroke="none" /><circle cx="2490" cy="7824" r="5" fill="green" stroke="none" /><circle cx="2310" cy="2314" r="5" fill="green" stroke="none" /><circle cx="1578" cy="1906" r="5" fill="green" stroke="none" /><circle cx="4351" cy="5829" r="5" fill="green" stroke="none" /><circle cx="6513" cy="4049" r="5" fill="green" stroke="none" /><circle cx="8227" cy="6759" r="5" fill="green" stroke="none" /><circle cx="3553" cy="1085" r="5" fill="green" stroke="none" /><circle cx="460" cy="5939" r="5" fill="green" stroke="none" /><circle cx="1077" cy="1382" r="5" fill="green" stroke="none" /><circle cx="7174" cy="7856" r="5" fill="green" stroke="none" /><circle cx="8037" cy="4889" r="5" fill="green" stroke="none" /><circle cx="4193" cy="5273" r="5" fill="green" stroke="none" /><circle cx="3513" cy="7416" r="5" fill="green" stroke="none" /><circle cx="519" cy="4267" r="5" fill="green" stroke="none" /><circle cx="5276" cy="1674" r="5" fill="green" stroke="none" /><circle cx="5584" cy="3110" r="5" fill="green" stroke="none" /><circle cx="2722" cy="2115" r="5" fill="green" stroke="none" /><circle cx="5502" cy="6015" r="5" fill="green" stroke="none" /><circle cx="5968" cy="4133" r="5" fill="green" stroke="none" /><circle cx="3144" cy="1284" r="5" fill="green" stroke="none" /><circle cx="3239" cy="7767" r="5" fill="green" stroke="none" /><circle cx="1144" cy="4776" r="5" fill="green" stroke="none" /><circle cx="2597" cy="1137" r="5" fill="green" stroke="none" /><circle cx="1193" cy="7362" r="5" fill="green" stroke="none" /><circle cx="2534" cy="5263" r="5" fill="green" stroke="none" /><circle cx="6905" cy="764" r="5" fill="green" stroke="none" /><circle cx="7136" cy="3690" r="5" fill="green" stroke="none" /><circle cx="2914" cy="6059" r="5" fill="green" stroke="none" /><circle cx="3971" cy="367" r="5" fill="green" stroke="none" /><circle cx="2518" cy="2455" r="5" fill="green" stroke="none" /><circle cx="3386" cy="7603" r="5" fill="green" stroke="none" /><circle cx="4477" cy="6430" r="5" fill="green" stroke="none" /><circle cx="6415" cy="6204" r="5" fill="green" stroke="none" /><circle cx="7079" cy="7214" r="5" fill="green" stroke="none" /><circle cx="5464" cy="575" r="5" fill="green" stroke="none" /><circle cx="3605" cy="1615" r="5" fill="green" stroke="none" /><circle cx="4582" cy="1234" r="5" fill="green" stroke="none" /><circle cx="5847" cy="2702" r="5" fill="green" stroke="none" /><circle cx="1217" cy="6449" r="5" fill="green" stroke="none" /><circle cx="8460" cy="5721" r="5" fill="green" stroke="none" /><circle cx="7488" cy="6324" r="5" fill="green" stroke="none" /><circle cx="37" cy="5184" r="5" fill="green" stroke="none" /><circle cx="3466" cy="5762" r="5" fill="green" stroke="none" /><circle cx="389" cy="6058" r="5" fill="green" stroke="none" /><circle cx="4445" cy="509" r="5" fill="green" stroke="none" /><circle cx="4906" cy="6358" r="5" fill="green" stroke="none" /><circle cx="576" cy="7928" r="5" fill="green" stroke="none" /><circle cx="3845" cy="1151" r="5" fill="green" stroke="none" /><circle cx="1388" cy="964" r="5" fill="green" stroke="none" /><circle cx="700" cy="7827" r="5" fill="green" stroke="none" /><circle cx="3350" cy="1322" r="5" fill="green" stroke="none" /><circle cx="3793" cy="7179" r="5" fill="green" stroke="none" /><circle cx="3785" cy="2003" r="5" fill="green" stroke="none" /><circle cx="855" cy="6484" r="5" fill="green" stroke="none" /><circle cx="3124" cy="1415" r="5" fill="green" stroke="none" /><circle cx="1029" cy="1073" r="5" fill="green" stroke="none" /><circle cx="7668" cy="3677" r="5" fill="green" stroke="none" /><circle cx="1836" cy="478" r="5" fill="green" stroke="none" /><circle cx="315" cy="4144" r="5" fill="green" stroke="none" /><circle cx="3320" cy="1218" r="5" fill="green" stroke="none" /><circle cx="7991" cy="5689" r="5" fill="green" stroke="none" /><circle cx="4672" cy="6906" r="5" fill="green" stroke="none" /><circle cx="7401" cy="3055" r="5" fill="green" stroke="none" /><circle cx="8637" cy="3284" r="5" fill="green" stroke="none" /><circle cx="1711" cy="2652" r="5" fill="green" stroke="none" /><circle cx="5213" cy="7915" r="5" fill="green" stroke="none" /><circle cx="4295" cy="7221" r="5" fill="green" stroke="none" /><circle cx="5705" cy="3327" r="5" fill="green" stroke="none" /><circle cx="1204" cy="7592" r="5" fill="green" stroke="none" /><circle cx="3163" cy="4647" r="5" fill="green" stroke="none" /><circle cx="5986" cy="1156" r="5" fill="green" stroke="none" /><circle cx="4049" cy="5834" r="5" fill="green" stroke="none" /><circle cx="8345" cy="3799" r="5" fill="green" stroke="none" /><circle cx="3283" cy="7672" r="5" fill="green" stroke="none" /><circle cx="6947" cy="4832" r="5" fill="green" stroke="none" /><circle cx="6369" cy="7355" r="5" fill="green" stroke="none" /><circle cx="8624" cy="3023" r="5" fill="green" stroke="none" /><circle cx="6714" cy="2496" r="5" fill="green" stroke="none" /><circle cx="5377" cy="1339" r="5" fill="green" stroke="none" /><circle cx="2336" cy="2873" r="5" fill="green" stroke="none" /><circle cx="959" cy="1450" r="5" fill="green" stroke="none" /><circle cx="8191" cy="7143" r="5" fill="green" stroke="none" /><circle cx="5195" cy="4387" r="5" fill="green" stroke="none" /><circle cx="7590" cy="422" r="5" fill="green" stroke="none" /><circle cx="2188" cy="5761" r="5" fill="green" stroke="none" /><circle cx="4217" cy="5063" r="5" fill="green" stroke="none" /><circle cx="2662" cy="4449" r="5" fill="green" stroke="none" /><circle cx="7856" cy="7741" r="5" fill="green" stroke="none" /><circle cx="5142" cy="6556" r="5" fill="green" stroke="none" /><circle cx="8632" cy="6837" r="5" fill="green" stroke="none" /><circle cx="5539" cy="3511" r="5" fill="green" stroke="none" /><circle cx="4961" cy="2752" r="5" fill="green" stroke="none" /><circle cx="3299" cy="3851" r="5" fill="green" stroke="none" /><circle cx="8024" cy="4344" r="5" fill="green" stroke="none" /><circle cx="5465" cy="2366" r="5" fill="green" stroke="none" /><circle cx="2654" cy="5295" r="5" fill="green" stroke="none" /><circle cx="6120" cy="5924" r="5" fill="green" stroke="none" /><circle cx="3774" cy="4543" r="5" fill="green" stroke="none" /><circle cx="6059" cy="4527" r="5" fill="green" stroke="none" /><circle cx="173" cy="3827" r="5" fill="green" stroke="none" /><circle cx="3351" cy="5" r="5" fill="green" stroke="none" /><circle cx="6659" cy="2038" r="5" fill="green" stroke="none" /><circle cx="3921" cy="6774" r="5" fill="green" stroke="none" /><circle cx="1014" cy="6289" r="5" fill="green" stroke="none" /><circle cx="373" cy="6084" r="5" fill="green" stroke="none" /><circle cx="7339" cy="7769" r="5" fill="green" stroke="none" /><circle cx="6366" cy="5487" r="5" fill="green" stroke="none" /><circle cx="8066" cy="1119" r="5" fill="green" stroke="none" /><circle cx="7379" cy="1903" r="5" fill="green" stroke="none" /><circle cx="3322" cy="602" r="5" fill="green" stroke="none" /><circle cx="6976" cy="4490" r="5" fill="green" stroke="none" /><circle cx="3" cy="4969" r="5" fill="green" stroke="none" /><circle cx="5535" cy="4030" r="5" fill="green" stroke="none" /><circle cx="8475" cy="5093" r="5" fill="green" stroke="none" /><circle cx="2640" cy="2539" r="5" fill="green" stroke="none" /><circle cx="7883" cy="3262" r="5" fill="green" stroke="none" /><circle cx="3303" cy="2858" r="5" fill="green" stroke="none" /><circle cx="5202" cy="5378" r="5" fill="green" stroke="none" /><circle cx="6711" cy="6130" r="5" fill="green" stroke="none" /><circle cx="3068" cy="6441" r="5" fill="green" stroke="none" /><circle cx="1306" cy="3488" r="5" fill="green" stroke="none" /><circle cx="7365" cy="788" r="5" fill="green" stroke="none" /><circle cx="3358" cy="7412" r="5" fill="green" stroke="none" /><circle cx="2853" cy="409" r="5" fill="green" stroke="none" /><circle cx="1193" cy="3430" r="5" fill="green" stroke="none" /><circle cx="1471" cy="6895" r="5" fill="green" stroke="none" /><circle cx="4233" cy="5238" r="5" fill="green" stroke="none" /><circle cx="8186" cy="900" r="5" fill="green" stroke="none" /><circle cx="7046" cy="825" r="5" fill="green" stroke="none" /><circle cx="7658" cy="842" r="5" fill="green" stroke="none" /><circle cx="5037" cy="6564" r="5" fill="green" stroke="none" /><circle cx="6995" cy="3059" r="5" fill="green" stroke="none" /><circle cx="1695" cy="546" r="5" fill="green" stroke="none" /><circle cx="657" cy="873" r="5" fill="green" stroke="none" /><circle cx="641" cy="1391" r="5" fill="green" stroke="none" /><circle cx="2417" cy="4078" r="5" fill="green" stroke="none" /><circle cx="1526" cy="2543" r="5" fill="green" stroke="none" /><circle cx="2232" cy="7386" r="5" fill="green" stroke="none" /><circle cx="3817" cy="7002" r="5" fill="green" stroke="none" /><circle cx="2671" cy="158" r="5" fill="green" stroke="none" /><circle cx="6307" cy="7371" r="5" fill="green" stroke="none" /><circle cx="7053" cy="7321" r="5" fill="green" stroke="none" /><circle cx="5817" cy="1133" r="5" fill="green" stroke="none" /><circle cx="5094" cy="860" r="5" fill="green" stroke="none" /><circle cx="6444" cy="7218" r="5" fill="green" stroke="none" /><circle cx="798" cy="3586" r="5" fill="green" stroke="none" /><circle cx="6680" cy="3489" r="5" fill="green" stroke="none" /><circle cx="5719" cy="5972" r="5" fill="green" stroke="none" /><circle cx="7884" cy="6966" r="5" fill="green" stroke="none" /><circle cx="894" cy="54" r="5" fill="green" stroke="none" /><circle cx="4195" cy="7554" r="5" fill="green" stroke="none" /><circle cx="8095" cy="7332" r="5" fill="green" stroke="none" /><circle cx="6305" cy="5237" r="5" fill="green" stroke="none" /><circle cx="869" cy="2392" r="5" fill="green" stroke="none" /><circle cx="5351" cy="2560" r="5" fill="green" stroke="none" /><circle cx="4059" cy="6205" r="5" fill="green" stroke="none" /><circle cx="7253" cy="6123" r="5" fill="green" stroke="none" /><circle cx="7516" cy="498" r="5" fill="green" stroke="none" /><circle cx="1009" cy="3877" r="5" fill="green" stroke="none" /><circle cx="2" cy="7346" r="5" fill="green" stroke="none" /><circle cx="6240" cy="6106" r="5" fill="green" stroke="none" /><circle cx="5731" cy="663" r="5" fill="green" stroke="none" /><circle cx="5809" cy="7789" r="5" fill="green" stroke="none" /><circle cx="7208" cy="2975" r="5" fill="green" stroke="none" /><circle cx="621" cy="502" r="5" fill="green" stroke="none" /><circle cx="662" cy="5081" r="5" fill="green" stroke="none" /><circle cx="3371" cy="6589" r="5" fill="green" stroke="none" /><circle cx="4933" cy="3871" r="5" fill="green" stroke="none" /><circle cx="1599" cy="368" r="5" fill="green" stroke="none" /><circle cx="264" cy="4904" r="5" fill="green" stroke="none" /><circle cx="2000" cy="3784" r="5" fill="green" stroke="none" /><circle cx="7739" cy="570" r="5" fill="green" stroke="none" /><circle cx="3245" cy="4859" r="5" fill="green" stroke="none" /><circle cx="2463" cy="7859" r="5" fill="green" stroke="none" /><circle cx="2281" cy="1538" r="5" fill="green" stroke="none" /><circle cx="6514" cy="506" r="5" fill="green" stroke="none" /><circle cx="8167" cy="1828" r="5" fill="green" stroke="none" /><circle cx="7024" cy="1290" r="5" fill="green" stroke="none" /><circle cx="5489" cy="6777" r="5" fill="green" stroke="none" /><circle cx="100" cy="7088" r="5" fill="green" stroke="none" /><circle cx="7335" cy="7466" r="5" fill="green" stroke="none" /><circle cx="3827" cy="2687" r="5" fill="green" stroke="none" /><circle cx="3434" cy="5446" r="5" fill="green" stroke="none" /><circle cx="1479" cy="6161" r="5" fill="green" stroke="none" /><circle cx="6044" cy="6318" r="5" fill="green" stroke="none" /><circle cx="812" cy="4149" r="5" fill="green" stroke="none" /><circle cx="4735" cy="7680" r="5" fill="green" stroke="none" /><circle cx="6571" cy="1988" r="5" fill="green" stroke="none" /><circle cx="1093" cy="5080" r="5" fill="green" stroke="none" /><circle cx="2189" cy="4025" r="5" fill="green" stroke="none" /><circle cx="2452" cy="6278" r="5" fill="green" stroke="none" /><circle cx="1622" cy="7787" r="5" fill="green" stroke="none" /><circle cx="4858" cy="2749" r="5" fill="green" stroke="none" /><circle cx="1783" cy="7773" r="5" fill="green" stroke="none" /><circle cx="1558" cy="4094" r="5" fill="green" stroke="none" /><circle cx="3906" cy="3053" r="5" fill="green" stroke="none" /><circle cx="2764" cy="7748" r="5" fill="green" stroke="none" /><circle cx="549" cy="5570" r="5" fill="green" stroke="none" /><circle cx="2942" cy="7445" r="5" fill="green" stroke="none" /><circle cx="520" cy="2610" r="5" fill="green" stroke="none" /><circle cx="7652" cy="3856" r="5" fill="green" stroke="none" /><circle cx="880" cy="6353" r="5" fill="green" stroke="none" /><circle cx="4853" cy="1940" r="5" fill="green" stroke="none" /><circle cx="691" cy="1628" r="5" fill="green" stroke="none" /><circle cx="3618" cy="4775" r="5" fill="green" stroke="none" /><circle cx="581" cy="3916" r="5" fill="green" stroke="none" /><circle cx="3381" cy="7526" r="5" fill="green" stroke="none" /><circle cx="3410" cy="1388" r="5" fill="green" stroke="none" /><circle cx="498" cy="3566" r="5" fill="green" stroke="none" /><circle cx="2959" cy="176" r="5" fill="green" stroke="none" /><circle cx="2390" cy="7820" r="5" fill="green" stroke="none" /><circle cx="6493" cy="674" r="5" fill="green" stroke="none" /><circle cx="5171" cy="29" r="5" fill="green" stroke="none" /><circle cx="5877" cy="6716" r="5" fill="green" stroke="none" /><circle cx="3615" cy="4324" r="5" fill="green" stroke="none" /><circle cx="8580" cy="6335" r="5" fill="green" stroke="none" /><circle cx="5109" cy="7049" r="5" fill="green" stroke="none" /><circle cx="142" cy="7543" r="5" fill="green" stroke="none" /><circle cx="3294" cy="3511" r="5" fill="green" stroke="none" /><circle cx="4990" cy="4684" r="5" fill="green" stroke="none" /><circle cx="6334" cy="2130" r="5" fill="green" stroke="none" /><circle cx="6230" cy="3523" r="5" fill="green" stroke="none" /><circle cx="3782" cy="5771" r="5" fill="green" stroke="none" /><circle cx="2232" cy="1789" r="5" fill="green" stroke="none" /><circle cx="2433" cy="7408" r="5" fill="green" stroke="none" /><circle cx="8192" cy="4392" r="5" fill="green" stroke="none" /><circle cx="817" cy="5425" r="5" fill="green" stroke="none" /><circle cx="4516" cy="4370" r="5" fill="green" stroke="none" /><circle cx="173" cy="4844" r="5" fill="green" stroke="none" /><circle cx="8191" cy="4240" r="5" fill="green" stroke="none" /><circle cx="2034" cy="1553" r="5" fill="green" stroke="none" /><circle cx="4387" cy="7105" r="5" fill="green" stroke="none" /><circle cx="2392" cy="7752" r="5" fill="green" stroke="none" /><circle cx="5127" cy="451" r="5" fill="green" stroke="none" /><circle cx="7575" cy="2284" r="5" fill="green" stroke="none" /><circle cx="3503" cy="997" r="5" fill="green" stroke="none" /><circle cx="7901" cy="4649" r="5" fill="green" stroke="none" /><circle cx="4236" cy="7251" r="5" fill="green" stroke="none" /><circle cx="6393" cy="7017" r="5" fill="green" stroke="none" /><circle cx="6861" cy="3115" r="5" fill="green" stroke="none" /><circle cx="4461" cy="6281" r="5" fill="green" stroke="none" /><circle cx="3313" cy="1022" r="5" fill="green" stroke="none" /><circle cx="6603" cy="7572" r="5" fill="green" stroke="none" /><circle cx="8697" cy="3994" r="5" fill="green" stroke="none" /><circle cx="3742" cy="2150" r="5" fill="green" stroke="none" /><circle cx="5513" cy="6449" r="5" fill="green" stroke="none" /><circle cx="1196" cy="5556" r="5" fill="green" stroke="none" /><circle cx="5911" cy="759" r="5" fill="green" stroke="none" /><circle cx="8312" cy="4252" r="5" fill="green" stroke="none" /><circle cx="7362" cy="3421" r="5" fill="green" stroke="none" /><circle cx="686" cy="7728" r="5" fill="green" stroke="none" /><circle cx="7077" cy="2011" r="5" fill="green" stroke="none" /><circle cx="233" cy="753" r="5" fill="green" stroke="none" /><circle cx="8558" cy="4920" r="5" fill="green" stroke="none" /><circle cx="7204" cy="7088" r="5" fill="green" stroke="none" /><circle cx="6965" cy="6940" r="5" fill="green" stroke="none" /><circle cx="5499" cy="2153" r="5" fill="green" stroke="none" /><circle cx="536" cy="2426" r="5" fill="green" stroke="none" /><circle cx="6651" cy="419" r="5" fill="green" stroke="none" /><circle cx="2283" cy="7097" r="5" fill="green" stroke="none" /><circle cx="3521" cy="4548" r="5" fill="green" stroke="none" /><circle cx="3315" cy="1828" r="5" fill="green" stroke="none" /><circle cx="5470" cy="7611" r="5" fill="green" stroke="none" /><circle cx="543" cy="2390" r="5" fill="green" stroke="none" /><circle cx="1665" cy="33" r="5" fill="green" stroke="none" /><circle cx="698" cy="481" r="5" fill="green" stroke="none" /><circle cx="6646" cy="528" r="5" fill="green" stroke="none" /><circle cx="3007" cy="560" r="5" fill="green" stroke="none" /><circle cx="1330" cy="7778" r="5" fill="green" stroke="none" /><circle cx="1473" cy="7607" r="5" fill="green" stroke="none" /><circle cx="413" cy="5246" r="5" fill="green" stroke="none" /><circle cx="3697" cy="2216" r="5" fill="green" stroke="none" /><circle cx="7518" cy="2074" r="5" fill="green" stroke="none" /><circle cx="1609" cy="6814" r="5" fill="green" stroke="none" /><circle cx="3225" cy="4425" r="5" fill="green" stroke="none" /><circle cx="4270" cy="5164" r="5" fill="green" stroke="none" /><circle cx="8340" cy="6850" r="5" fill="green" stroke="none" /><circle cx="7823" cy="3112" r="5" fill="green" stroke="none" /><circle cx="940" cy="3098" r="5" fill="green" stroke="none" /><circle cx="6188" cy="1784" r="5" fill="green" stroke="none" /><circle cx="3258" cy="3916" r="5" fill="green" stroke="none" /><circle cx="8133" cy="4338" r="5" fill="green" stroke="none" /><circle cx="8262" cy="440" r="5" fill="green" stroke="none" /><circle cx="1637" cy="5945" r="5" fill="green" stroke="none" /><circle cx="7066" cy="6115" r="5" fill="green" stroke="none" /><circle cx="7447" cy="7216" r="5" fill="green" stroke="none" /><circle cx="5191" cy="178" r="5" fill="green" stroke="none" /><circle cx="3101" cy="6099" r="5" fill="green" stroke="none" /><circle cx="6257" cy="3227" r="5" fill="green" stroke="none" /><circle cx="3252" cy="5889" r="5" fill="green" stroke="none" /><circle cx="6710" cy="6304" r="5" fill="green" stroke="none" /><circle cx="1393" cy="6464" r="5" fill="green" stroke="none" /><circle cx="3895" cy="961" r="5" fill="green" stroke="none" /><circle cx="4800" cy="7632" r="5" fill="green" stroke="none" /><circle cx="7727" cy="7425" r="5" fill="green" stroke="none" /><circle cx="5569" cy="7449" r="5" fill="green" stroke="none" /><circle cx="3488" cy="716" r="5" fill="green" stroke="none" /><circle cx="110" cy="1036" r="5" fill="green" stroke="none" /><circle cx="6723" cy="2056" r="5" fill="green" stroke="none" /><circle cx="4135" cy="5278" r="5" fill="green" stroke="none" /><circle cx="987" cy="7736" r="5" fill="green" stroke="none" /><circle cx="5628" cy="6650" r="5" fill="green" stroke="none" /><circle cx="7538" cy="4912" r="5" fill="green" stroke="none" /><circle cx="2805" cy="2793" r="5" fill="green" stroke="none" /><circle cx="5263" cy="3667" r="5" fill="green" stroke="none" /><circle cx="7870" cy="1311" r="5" fill="green" stroke="none" /><circle cx="5270" cy="4452" r="5" fill="green" stroke="none" /><circle cx="663" cy="5614" r="5" fill="green" stroke="none" /><circle cx="7829" cy="6658" r="5" fill="green" stroke="none" /><circle cx="4328" cy="1459" r="5" fill="green" stroke="none" /><circle cx="8267" cy="760" r="5" fill="green" stroke="none" /><circle cx="5943" cy="3866" r="5" fill="green" stroke="none" /><circle cx="2403" cy="1318" r="5" fill="green" stroke="none" /><circle cx="517" cy="1261" r="5" fill="green" stroke="none" /><circle cx="8600" cy="2670" r="5" fill="green" stroke="none" /><circle cx="3756" cy="5163" r="5" fill="green" stroke="none" /><circle cx="6608" cy="6396" r="5" fill="green" stroke="none" /><circle cx="880" cy="5347" r="5" fill="green" stroke="none" /><circle cx="6955" cy="2527" r="5" fill="green" stroke="none" /><circle cx="62" cy="4068" r="5" fill="green" stroke="none" /><circle cx="356" cy="3590" r="5" fill="green" stroke="none" /><circle cx="1500" cy="215" r="5" fill="green" stroke="none" /><circle cx="6756" cy="6941" r="5" fill="green" stroke="none" /><circle cx="3808" cy="1627" r="5" fill="green" stroke="none" /><circle cx="8436" cy="6538" r="5" fill="green" stroke="none" /><circle cx="8244" cy="1044" r="5" fill="green" stroke="none" /><circle cx="4188" cy="6009" r="5" fill="green" stroke="none" /><circle cx="3539" cy="391" r="5" fill="green" stroke="none" /><circle cx="7665" cy="7354" r="5" fill="green" stroke="none" /><circle cx="8517" cy="6672" r="5" fill="green" stroke="none" /><circle cx="857" cy="3422" r="5" fill="green" stroke="none" /><circle cx="7157" cy="875" r="5" fill="green" stroke="none" /><circle cx="1611" cy="5215" r="5" fill="green" stroke="none" /><circle cx="3288" cy="6743" r="5" fill="green" stroke="none" /><circle cx="5944" cy="3125" r="5" fill="green" stroke="none" /><circle cx="6072" cy="769" r="5" fill="green" stroke="none" /><circle cx="2895" cy="16" r="5" fill="green" stroke="none" /><circle cx="106" cy="4347" r="5" fill="green" stroke="none" /><circle cx="4672" cy="7028" r="5" fill="green" stroke="none" /><circle cx="5468" cy="337" r="5" fill="green" stroke="none" /><circle cx="90" cy="5120" r="5" fill="green" stroke="none" /><circle cx="2103" cy="1907" r="5" fill="green" stroke="none" /><circle cx="732" cy="572" r="5" fill="green" stroke="none" /><circle cx="3930" cy="4556" r="5" fill="green" stroke="none" /><circle cx="4629" cy="6652" r="5" fill="green" stroke="none" /><circle cx="7985" cy="1525" r="5" fill="green" stroke="none" /><circle cx="1438" cy="496" r="5" fill="green" stroke="none" /><circle cx="2886" cy="7903" r="5" fill="green" stroke="none" /><circle cx="1475" cy="102" r="5" fill="green" stroke="none" /><circle cx="5328" cy="6963" r="5" fill="green" stroke="none" /><circle cx="443" cy="3003" r="5" fill="green" stroke="none" /><circle cx="6903" cy="1483" r="5" fill="green" stroke="none" /><circle cx="4934" cy="152" r="5" fill="green" stroke="none" /><circle cx="6580" cy="1030" r="5" fill="green" stroke="none" /><circle cx="8248" cy="5367" r="5" fill="green" stroke="none" /><circle cx="6034" cy="860" r="5" fill="green" stroke="none" /><circle cx="5824" cy="7198" r="5" fill="green" stroke="none" /><circle cx="496" cy="3068" r="5" fill="green" stroke="none" /><circle cx="1645" cy="4235" r="5" fill="green" stroke="none" /><circle cx="5" cy="2651" r="5" fill="green" stroke="none" /><circle cx="1544" cy="7226" r="5" fill="green" stroke="none" /><circle cx="7950" cy="3510" r="5" fill="green" stroke="none" /><circle cx="3998" cy="4715" r="5" fill="green" stroke="none" /><circle cx="5188" cy="4602" r="5" fill="green" stroke="none" /><circle cx="2600" cy="5488" r="5" fill="green" stroke="none" /><circle cx="2727" cy="2724" r="5" fill="green" stroke="none" /><circle cx="2528" cy="3125" r="44" fill="red" stroke="none" /><circle cx="5591" cy="1401" r="80" fill="red" stroke="none" /><circle cx="1741" cy="2128" r="10" fill="red" stroke="none" /><circle cx="5869" cy="6888" r="66" fill="red" stroke="none" /><circle cx="5118" cy="7694" r="35" fill="red" stroke="none" /><circle cx="5855" cy="3501" r="84" fill="red" stroke="none" /><circle cx="8092" cy="5778" r="57" fill="red" stroke="none" /><circle cx="2899" cy="3293" r="56" fill="red" stroke="none" /><circle cx="4309" cy="5745" r="74" fill="red" stroke="none" /><circle cx="5248" cy="5593" r="80" fill="red" stroke="none" /><circle cx="2208" cy="3014" r="60" fill="red" stroke="none" /><circle cx="5768" cy="5489" r="67" fill="red" stroke="none" /><circle cx="8436" cy="7597" r="77" fill="red" stroke="none" /><circle cx="2089" cy="3118" r="75" fill="red" stroke="none" /><circle cx="1763" cy="6790" r="84" fill="red" stroke="none" /><circle cx="6303" cy="2214" r="45" fill="red" stroke="none" /><circle cx="3412" cy="5272" r="84" fill="red" stroke="none" /><circle cx="3433" cy="6895" r="37" fill="red" stroke="none" /><circle cx="7073" cy="7670" r="62" fill="red" stroke="none" /><circle cx="2691" cy="3598" r="63" fill="red" stroke="none" /><circle cx="8269" cy="2067" r="5" fill="red" stroke="none" /><circle cx="5326" cy="1580" r="25" fill="red" stroke="none" /><circle cx="6834" cy="4611" r="58" fill="red" stroke="none" /><circle cx="2068" cy="5753" r="7" fill="red" stroke="none" /><circle cx="8208" cy="102" r="75" fill="red" stroke="none" /><circle cx="5476" cy="2739" r="58" fill="red" stroke="none" /><circle cx="3260" cy="2351" r="49" fill="red" stroke="none" /><circle cx="4916" cy="5726" r="46" fill="red" stroke="none" /><circle cx="1215" cy="1762" r="27" fill="red" stroke="none" /><circle cx="2509" cy="5847" r="39" fill="red" stroke="none" /><circle cx="1679" cy="893" r="40" fill="red" stroke="none" /><circle cx="2288" cy="5503" r="82" fill="red" stroke="none" /><circle cx="4684" cy="6204" r="76" fill="red" stroke="none" /><circle cx="8569" cy="1492" r="29" fill="red" stroke="none" /><circle cx="6844" cy="7718" r="5" fill="red" stroke="none" /><circle cx="2048" cy="421" r="43" fill="red" stroke="none" /><circle cx="117" cy="676" r="23" fill="red" stroke="none" /><circle cx="6664" cy="2133" r="52" fill="red" stroke="none" /><circle cx="7197" cy="3985" r="69" fill="red" stroke="none" /><circle cx="7605" cy="3905" r="6" fill="red" stroke="none" /><circle cx="6417" cy="1243" r="29" fill="red" stroke="none" /><circle cx="4472" cy="629" r="30" fill="red" stroke="none" /><circle cx="5488" cy="3437" r="79" fill="red" stroke="none" /><circle cx="6175" cy="4183" r="20" fill="red" stroke="none" /><circle cx="1226" cy="323" r="84" fill="red" stroke="none" /><circle cx="1035" cy="2628" r="44" fill="red" stroke="none" /><circle cx="3002" cy="6829" r="66" fill="red" stroke="none" /><circle cx="1690" cy="2734" r="23" fill="red" stroke="none" /><circle cx="7100" cy="5198" r="84" fill="red" stroke="none" /><circle cx="8379" cy="1538" r="49" fill="red" stroke="none" /><circle cx="5375" cy="3755" r="9" fill="red" stroke="none" /><circle cx="6418" cy="4271" r="65" fill="red" stroke="none" /><circle cx="1348" cy="7458" r="24" fill="red" stroke="none" /><circle cx="939" cy="6149" r="37" fill="red" stroke="none" /><circle cx="2883" cy="7552" r="42" fill="red" stroke="none" /><circle cx="4536" cy="94" r="27" fill="red" stroke="none" /><circle cx="7112" cy="7594" r="32" fill="red" stroke="none" /><circle cx="6480" cy="5190" r="71" fill="red" stroke="none" /><circle cx="7758" cy="777" r="64" fill="red" stroke="none" /><circle cx="5156" cy="6567" r="11" fill="red" stroke="none" /><circle cx="1239" cy="1314" r="66" fill="red" stroke="none" /><circle cx="7851" cy="605" r="11" fill="red" stroke="none" /><circle cx="1922" cy="6107" r="66" fill="red" stroke="none" /><circle cx="6689" cy="1448" r="48" fill="red" stroke="none" /><circle cx="8643" cy="2105" r="32" fill="red" stroke="none" /><circle cx="285" cy="4535" r="23" fill="red" stroke="none" /><circle cx="3633" cy="4578" r="60" fill="red" stroke="none" /><circle cx="263" cy="4237" r="6" fill="red" stroke="none" /><circle cx="1243" cy="738" r="82" fill="red" stroke="none" /><circle cx="3981" cy="1426" r="36" fill="red" stroke="none" /><circle cx="3461" cy="3215" r="68" fill="red" stroke="none" /><circle cx="4424" cy="7572" r="6" fill="red" stroke="none" /><circle cx="7591" cy="2807" r="57" fill="red" stroke="none" /><circle cx="5791" cy="6501" r="76" fill="red" stroke="none" /><circle cx="7710" cy="2608" r="23" fill="red" stroke="none" /><circle cx="1073" cy="4784" r="62" fill="red" stroke="none" /><circle cx="4597" cy="5407" r="57" fill="red" stroke="none" /><circle cx="3549" cy="2289" r="15" fill="red" stroke="none" /><circle cx="5495" cy="1942" r="43" fill="red" stroke="none" /><circle cx="2828" cy="1341" r="66" fill="red" stroke="none" /><circle cx="477" cy="7629" r="45" fill="red" stroke="none" /></svg>