<svg viewBox="0 0 9997 9776" xmlns="http://www.w3.org/2000/svg"><rect x="0" y="0" width="9997" height="9776" fill="lightyellow" stroke="none "/><rect x="6207" y="475" width="2584" height="2013" fill="white" stroke="black "/><circle cx="6256" cy="5905" r="5" fill="green" stroke="none" /><circle cx="8286" cy="6631" r="5" fill="green" stroke="none" /><circle cx="1526" cy="60" r="5" fill="green" stroke="none" /><circle cx="9365" cy="2554" r="5" fill="green" stroke="none" /><circle cx="2816" cy="1629" r="5" fill="green" stroke="none" /><circle cx="911" cy="2263" r="5" fill="green" stroke="none" /><circle cx="7627" cy="8160" r="5" fill="green" stroke="none" /><circle cx="294" cy="8922" r="5" fill="green" stroke="none" /><circle cx="9271" cy="6593" r="5" fill="green" stroke="none" /><circle cx="7766" cy="8319" r="5" fill="green" stroke="none" /><circle cx="1503" cy="5828" r="5" fill="green" stroke="none" /><circle cx="389" cy="3703" r="5" fill="green" stroke="none" /><circle cx="4174" cy="7797" r="5" fill="green" stroke="none" /><circle cx="4563" cy="44" r="5" fill="green" stroke="none" /><circle cx="8082" cy="7440" r="5" fill="green" stroke="none" /><circle cx="4652" cy="9663" r="5" fill="green" stroke="none" /><circle cx="4800" cy="8094" r="5" fill="green" stroke="none" /><circle cx="9849" cy="1894" r="5" fill="green" stroke="none" /><circle cx="6393" cy="8093" r="5" fill="green" stroke="none" /><circle cx="2709" cy="290" r="5" fill="green" stroke="none" /><circle cx="5099" cy="6952" r="5" fill="green" stroke="none" /><circle cx="1292" cy="5498" r="5" fill="green" stroke="none" /><circle cx="8809" cy="3783" r="5" fill="green" stroke="none" /><circle cx="8854" cy="2274" r="5" fill="green" stroke="none" /><circle cx="3374" cy="524" r="5" fill="green" stroke="none" /><circle cx="3996" cy="2876" r="5" fill="green" stroke="none" /><circle cx="8087" cy="6530" r="5" fill="green" stroke="none" /><circle cx="8042" cy="245" r="5" fill="green" stroke="none" /><circle cx="7748" cy="3669" r="5" fill="green" stroke="none" /><circle cx="790" cy="2777" r="5" fill="green" stroke="none" /><circle cx="8276" cy="6879" r="5" fill="green" stroke="none" /><circle cx="1136" cy="7195" r="5" fill="green" stroke="none" /><circle cx="6910" cy="8758" r="5" fill="green" stroke="none" /><circle cx="3354" cy="3979" r="5" fill="green" stroke="none" /><circle cx="1611" cy="5697" r="5" fill="green" stroke="none" /><circle cx="2103" cy="2853" r="5" fill="green" stroke="none" /><circle cx="9419" cy="4218" r="5" fill="green" stroke="none" /><circle cx="128" cy="8902" r="5" fill="green" stroke="none" /><circle cx="141" cy="2494" r="5" fill="green" stroke="none" /><circle cx="6586" cy="6019" r="5" fill="green" stroke="none" /><circle cx="5208" cy="5613" r="5" fill="green" stroke="none" /><circle cx="6203" cy="477" r="5" fill="green" stroke="none" /><circle cx="9227" cy="3471" r="5" fill="green" stroke="none" /><circle cx="6493" cy="9461" r="5" fill="green" stroke="none" /><circle cx="3514" cy="3575" r="5" fill="green" stroke="none" /><circle cx="5640" cy="8771" r="5" fill="green" stroke="none" /><circle cx="8038" cy="2958" r="5" fill="green" stroke="none" /><circle cx="7863" cy="7823" r="5" fill="green" stroke="none" /><circle cx="4164" cy="3799" r="5" fill="green" stroke="none" /><circle cx="6667" cy="4003" r="5" fill="green" stroke="none" /><circle cx="7373" cy="7075" r="5" fill="green" stroke="none" /><circle cx="6192" cy="2979" r="5" fill="green" stroke="none" /><circle cx="4277" cy="4519" r="5" fill="green" stroke="none" /><circle cx="4131" cy="8204" r="5" fill="green" stroke="none" /><circle cx="1759" cy="9492" r="5" fill="green" stroke="none" /><circle cx="2984" cy="7795" r="5" fill="green" stroke="none" /><circle cx="8598" cy="2576" r="5" fill="green" stroke="none" /><circle cx="9389" cy="8073" r="5" fill="green" stroke="none" /><circle cx="2345" cy="1686" r="5" fill="green" stroke="none" /><circle cx="4171" cy="6634" r="5" fill="green" stroke="none" /><circle cx="4584" cy="6683" r="5" fill="green" stroke="none" /><circle cx="4411" cy="3370" r="5" fill="green" stroke="none" /><circle cx="9072" cy="9648" r="5" fill="green" stroke="none" /><circle cx="487" cy="1882" r="5" fill="green" stroke="none" /><circle cx="9192" cy="1549" r="5" fill="green" stroke="none" /><circle cx="3137" cy="8938" r="5" fill="green" stroke="none" /><circle cx="9493" cy="7716" r="5" fill="green" stroke="none" /><circle cx="7629" cy="7432" r="5" fill="green" stroke="none" /><circle cx="7104" cy="7764" r="5" fill="green" stroke="none" /><circle cx="6710" cy="5453" r="5" fill="green" stroke="none" /><circle cx="2840" cy="3736" r="5" fill="green" stroke="none" /><circle cx="7979" cy="7802" r="5" fill="green" stroke="none" /><circle cx="9377" cy="1430" r="5" fill="green" stroke="none" /><circle cx="154" cy="2408" r="5" fill="green" stroke="none" /><circle cx="9321" cy="6103" r="5" fill="green" stroke="none" /><circle cx="1565" cy="7084" r="5" fill="green" stroke="none" /><circle cx="3745" cy="8959" r="5" fill="green" stroke="none" /><circle cx="5135" cy="7588" r="5" fill="green" stroke="none" /><circle cx="5846" cy="9121" r="5" fill="green" stroke="none" /><circle cx="2190" cy="4650" r="5" fill="green" stroke="none" /><circle cx="8341" cy="8688" r="5" fill="green" stroke="none" /><circle cx="6813" cy="3495" r="5" fill="green" stroke="none" /><circle cx="4047" cy="7618" r="5" fill="green" stroke="none" /><circle cx="2759" cy="613" r="5" fill="green" stroke="none" /><circle cx="3622" cy="327" r="5" fill="green" stroke="none" /><circle cx="543" cy="5412" r="5" fill="green" stroke="none" /><circle cx="2283" cy="7491" r="5" fill="green" stroke="none" /><circle cx="2357" cy="7710" r="5" fill="green" stroke="none" /><circle cx="3394" cy="7310" r="5" fill="green" stroke="none" /><circle cx="9927" cy="2361" r="5" fill="green" stroke="none" /><circle cx="519" cy="4156" r="5" fill="green" stroke="none" /><circle cx="4546" cy="3409" r="5" fill="green" stroke="none" /><circle cx="7139" cy="4476" r="5" fill="green" stroke="none" /><circle cx="5374" cy="2297" r="5" fill="green" stroke="none" /><circle cx="5387" cy="1977" r="5" fill="green" stroke="none" /><circle cx="1233" cy="3254" r="5" fill="green" stroke="none" /><circle cx="5605" cy="7989" r="5" fill="green" stroke="none" /><circle cx="9054" cy="5443" r="5" fill="green" stroke="none" /><circle cx="530" cy="9044" r="5" fill="green" stroke="none" /><circle cx="3530" cy="8242" r="5" fill="green" stroke="none" /><circle cx="7603" cy="2667" r="5" fill="green" stroke="none" /><circle cx="5955" cy="7554" r="5" fill="green" stroke="none" /><circle cx="1892" cy="1256" r="5" fill="green" stroke="none" /><circle cx="7845" cy="3365" r="5" fill="green" stroke="none" /><circle cx="8690" cy="9559" r="5" fill="green" stroke="none" /><circle cx="7975" cy="4277" r="5" fill="green" stroke="none" /><circle cx="8226" cy="5232" r="5" fill="green" stroke="none" /><circle cx="4394" cy="7134" r="5" fill="green" stroke="none" /><circle cx="5221" cy="8677" r="5" fill="green" stroke="none" /><circle cx="2005" cy="13" r="5" fill="green" stroke="none" /><circle cx="7103" cy="6748" r="5" fill="green" stroke="none" /><circle cx="6595" cy="8868" r="5" fill="green" stroke="none" /><circle cx="4257" cy="1240" r="5" fill="green" stroke="none" /><circle cx="8087" cy="3076" r="5" fill="green" stroke="none" /><circle cx="5461" cy="7453" r="5" fill="green" stroke="none" /><circle cx="812" cy="109" r="5" fill="green" stroke="none" /><circle cx="4471" cy="1864" r="5" fill="green" stroke="none" /><circle cx="1496" cy="7227" r="5" fill="green" stroke="none" /><circle cx="6167" cy="5222" r="5" fill="green" stroke="none" /><circle cx="5804" cy="1206" r="5" fill="green" stroke="none" /><circle cx="1429" cy="3554" r="5" fill="green" stroke="none" /><circle cx="5112" cy="1845" r="5" fill="green" stroke="none" /><circle cx="2759" cy="8183" r="5" fill="green" stroke="none" /><circle cx="7593" cy="3358" r="5" fill="green" stroke="none" /><circle cx="7721" cy="5392" r="5" fill="green" stroke="none" /><circle cx="8797" cy="4721" r="5" fill="green" stroke="none" /><circle cx="4446" cy="4663" r="5" fill="green" stroke="none" /><circle cx="5824" cy="7099" r="5" fill="green" stroke="none" /><circle cx="6308" cy="4360" r="5" fill="green" stroke="none" /><circle cx="1218" cy="9107" r="5" fill="green" stroke="none" /><circle cx="7218" cy="2859" r="5" fill="green" stroke="none" /><circle cx="5379" cy="2126" r="5" fill="green" stroke="none" /><circle cx="8665" cy="5869" r="5" fill="green" stroke="none" /><circle cx="9489" cy="2398" r="5" fill="green" stroke="none" /><circle cx="6227" cy="8583" r="5" fill="green" stroke="none" /><circle cx="5278" cy="1814" r="5" fill="green" stroke="none" /><circle cx="2964" cy="3860" r="5" fill="green" stroke="none" /><circle cx="6010" cy="3536" r="5" fill="green" stroke="none" /><circle cx="7094" cy="7686" r="5" fill="green" stroke="none" /><circle cx="7247" cy="101" r="5" fill="green" stroke="none" /><circle cx="9172" cy="1760" r="5" fill="green" stroke="none" /><circle cx="5280" cy="8528" r="5" fill="green" stroke="none" /><circle cx="5916" cy="9094" r="5" fill="green" stroke="none" /><circle cx="752" cy="2912" r="5" fill="green" stroke="none" /><circle cx="2305" cy="9309" r="5" fill="green" stroke="none" /><circle cx="5954" cy="1435" r="5" fill="green" stroke="none" /><circle cx="4350" cy="7314" r="5" fill="green" stroke="none" /><circle cx="5528" cy="2778" r="5" fill="green" stroke="none" /><circle cx="5687" cy="7182" r="5" fill="green" stroke="none" /><circle cx="4484" cy="4008" r="5" fill="green" stroke="none" /><circle cx="4542" cy="2772" r="5" fill="green" stroke="none" /><circle cx="6880" cy="2553" r="5" fill="green" stroke="none" /><circle cx="4854" cy="1615" r="5" fill="green" stroke="none" /><circle cx="5614" cy="1330" r="5" fill="green" stroke="none" /><circle cx="3633" cy="3009" r="5" fill="green" stroke="none" /><circle cx="5300" cy="3662" r="5" fill="green" stroke="none" /><circle cx="3616" cy="6782" r="5" fill="green" stroke="none" /><circle cx="1170" cy="5108" r="5" fill="green" stroke="none" /><circle cx="5760" cy="9500" r="5" fill="green" stroke="none" /><circle cx="3679" cy="7247" r="5" fill="green" stroke="none" /><circle cx="9508" cy="6577" r="5" fill="green" stroke="none" /><circle cx="7687" cy="4018" r="5" fill="green" stroke="none" /><circle cx="5964" cy="367" r="5" fill="green" stroke="none" /><circle cx="6440" cy="7251" r="5" fill="green" stroke="none" /><circle cx="9574" cy="3035" r="5" fill="green" stroke="none" /><circle cx="5806" cy="2695" r="5" fill="green" stroke="none" /><circle cx="9844" cy="5216" r="5" fill="green" stroke="none" /><circle cx="1832" cy="6819" r="5" fill="green" stroke="none" /><circle cx="470" cy="712" r="5" fill="green" stroke="none" /><circle cx="3370" cy="5179" r="5" fill="green" stroke="none" /><circle cx="2510" cy="5731" r="5" fill="green" stroke="none" /><circle cx="8074" cy="4257" r="5" fill="green" stroke="none" /><circle cx="1313" cy="1145" r="5" fill="green" stroke="none" /><circle cx="3866" cy="6546" r="5" fill="green" stroke="none" /><circle cx="4871" cy="2994" r="5" fill="green" stroke="none" /><circle cx="9859" cy="2169" r="5" fill="green" stroke="none" /><circle cx="2718" cy="8209" r="5" fill="green" stroke="none" /><circle cx="7937" cy="8602" r="5" fill="green" stroke="none" /><circle cx="3361" cy="1740" r="5" fill="green" stroke="none" /><circle cx="5106" cy="9773" r="5" fill="green" stroke="none" /><circle cx="4454" cy="5510" r="5" fill="green" stroke="none" /><circle cx="8913" cy="1679" r="5" fill="green" stroke="none" /><circle cx="4217" cy="92" r="5" fill="green" stroke="none" /><circle cx="2064" cy="1884" r="5" fill="green" stroke="none" /><circle cx="7000" cy="6191" r="5" fill="green" stroke="none" /><circle cx="9358" cy="2324" r="5" fill="green" stroke="none" /><circle cx="28" cy="1213" r="5" fill="green" stroke="none" /><circle cx="2368" cy="1775" r="5" fill="green" stroke="none" /><circle cx="5721" cy="6846" r="5" fill="green" stroke="none" /><circle cx="9083" cy="2550" r="5" fill="green" stroke="none" /><circle cx="1055" cy="4927" r="5" fill="green" stroke="none" /><circle cx="5936" cy="1669" r="5" fill="green" stroke="none" /><circle cx="5248" cy="5072" r="5" fill="green" stroke="none" /><circle cx="1060" cy="2474" r="5" fill="green" stroke="none" /><circle cx="1845" cy="8373" r="5" fill="green" stroke="none" /><circle cx="6965" cy="8944" r="5" fill="green" stroke="none" /><circle cx="5126" cy="1201" r="5" fill="green" stroke="none" /><circle cx="8013" cy="9280" r="5" fill="green" stroke="none" /><circle cx="7996" cy="8978" r="5" fill="green" stroke="none" /><circle cx="7129" cy="5517" r="5" fill="green" stroke="none" /><circle cx="7345" cy="5286" r="5" fill="green" stroke="none" /><circle cx="9689" cy="2724" r="5" fill="green" stroke="none" /><circle cx="1976" cy="4352" r="5" fill="green" stroke="none" /><circle cx="7272" cy="9277" r="5" fill="green" stroke="none" /><circle cx="8737" cy="4168" r="5" fill="green" stroke="none" /><circle cx="3691" cy="4960" r="5" fill="green" stroke="none" /><circle cx="1765" cy="8114" r="5" fill="green" stroke="none" /><circle cx="635" cy="1653" r="5" fill="green" stroke="none" /><circle cx="4190" cy="1993" r="5" fill="green" stroke="none" /><circle cx="5465" cy="1170" r="5" fill="green" stroke="none" /><circle cx="3173" cy="2665" r="5" fill="green" stroke="none" /><circle cx="8032" cy="6634" r="5" fill="green" stroke="none" /><circle cx="8928" cy="9215" r="5" fill="green" stroke="none" /><circle cx="5790" cy="7093" r="5" fill="green" stroke="none" /><circle cx="8819" cy="3442" r="5" fill="green" stroke="none" /><circle cx="6590" cy="6479" r="5" fill="green" stroke="none" /><circle cx="9268" cy="9470" r="5" fill="green" stroke="none" /><circle cx="4256" cy="997" r="5" fill="green" stroke="none" /><circle cx="4964" cy="719" r="5" fill="green" stroke="none" /><circle cx="355" cy="4023" r="5" fill="green" stroke="none" /><circle cx="594" cy="8345" r="5" fill="green" stroke="none" /><circle cx="2559" cy="4289" r="5" fill="green" stroke="none" /><circle cx="2016" cy="7079" r="5" fill="green" stroke="none" /><circle cx="6349" cy="9250" r="5" fill="green" stroke="none" /><circle cx="2874" cy="6645" r="5" fill="green" stroke="none" /><circle cx="9256" cy="6472" r="5" fill="green" stroke="none" /><circle cx="7271" cy="4681" r="5" fill="green" stroke="none" /><circle cx="3879" cy="6302" r="5" fill="green" stroke="none" /><circle cx="566" cy="2460" r="5" fill="green" stroke="none" /><circle cx="8307" cy="3611" r="5" fill="green" stroke="none" /><circle cx="5912" cy="4938" r="5" fill="green" stroke="none" /><circle cx="4588" cy="3769" r="5" fill="green" stroke="none" /><circle cx="4216" cy="2717" r="5" fill="green" stroke="none" /><circle cx="8994" cy="4153" r="5" fill="green" stroke="none" /><circle cx="5442" cy="5692" r="5" fill="green" stroke="none" /><circle cx="292" cy="1564" r="5" fill="green" stroke="none" /><circle cx="3141" cy="5126" r="5" fill="green" stroke="none" /><circle cx="7549" cy="6966" r="5" fill="green" stroke="none" /><circle cx="1467" cy="8858" r="5" fill="green" stroke="none" /><circle cx="15" cy="8733" r="5" fill="green" stroke="none" /><circle cx="4080" cy="4546" r="5" fill="green" stroke="none" /><circle cx="6137" cy="9619" r="5" fill="green" stroke="none" /><circle cx="6748" cy="3356" r="5" fill="green" stroke="none" /><circle cx="4012" cy="8519" r="5" fill="green" stroke="none" /><circle cx="881" cy="92" r="5" fill="green" stroke="none" /><circle cx="2444" cy="7512" r="5" fill="green" stroke="none" /><circle cx="1792" cy="8994" r="5" fill="green" stroke="none" /><circle cx="7514" cy="7097" r="5" fill="green" stroke="none" /><circle cx="8268" cy="5173" r="5" fill="green" stroke="none" /><circle cx="1140" cy="5867" r="5" fill="green" stroke="none" /><circle cx="6461" cy="2592" r="5" fill="green" stroke="none" /><circle cx="6187" cy="3010" r="5" fill="green" stroke="none" /><circle cx="1115" cy="2111" r="5" fill="green" stroke="none" /><circle cx="273" cy="2866" r="5" fill="green" stroke="none" /><circle cx="4066" cy="9211" r="5" fill="green" stroke="none" /><circle cx="4170" cy="9018" r="5" fill="green" stroke="none" /><circle cx="8801" cy="7671" r="5" fill="green" stroke="none" /><circle cx="1302" cy="3867" r="5" fill="green" stroke="none" /><circle cx="3089" cy="7092" r="5" fill="green" stroke="none" /><circle cx="7082" cy="4205" r="5" fill="green" stroke="none" /><circle cx="9954" cy="7154" r="5" fill="green" stroke="none" /><circle cx="5370" cy="9737" r="5" fill="green" stroke="none" /><circle cx="6680" cy="4500" r="5" fill="green" stroke="none" /><circle cx="8961" cy="9215" r="5" fill="green" stroke="none" /><circle cx="671" cy="3708" r="5" fill="green" stroke="none" /><circle cx="2639" cy="5679" r="5" fill="green" stroke="none" /><circle cx="4707" cy="7936" r="5" fill="green" stroke="none" /><circle cx="9586" cy="9245" r="5" fill="green" stroke="none" /><circle cx="5712" cy="7547" r="5" fill="green" stroke="none" /><circle cx="4454" cy="8201" r="5" fill="green" stroke="none" /><circle cx="2950" cy="359" r="5" fill="green" stroke="none" /><circle cx="2967" cy="7764" r="5" fill="green" stroke="none" /><circle cx="5228" cy="6402" r="5" fill="green" stroke="none" /><circle cx="6877" cy="9260" r="5" fill="green" stroke="none" /><circle cx="1690" cy="69" r="5" fill="green" stroke="none" /><circle cx="1001" cy="8132" r="5" fill="green" stroke="none" /><circle cx="6906" cy="6782" r="5" fill="green" stroke="none" /><circle cx="1067" cy="1016" r="5" fill="green" stroke="none" /><circle cx="9144" cy="7509" r="5" fill="green" stroke="none" /><circle cx="2970" cy="4287" r="5" fill="green" stroke="none" /><circle cx="5968" cy="4202" r="5" fill="green" stroke="none" /><circle cx="7026" cy="5604" r="5" fill="green" stroke="none" /><circle cx="9239" cy="5123" r="5" fill="green" stroke="none" /><circle cx="4384" cy="1490" r="5" fill="green" stroke="none" /><circle cx="8215" cy="3584" r="5" fill="green" stroke="none" /><circle cx="2453" cy="7674" r="5" fill="green" stroke="none" /><circle cx="5013" cy="7086" r="5" fill="green" stroke="none" /><circle cx="1186" cy="7618" r="5" fill="green" stroke="none" /><circle cx="1446" cy="2898" r="5" fill="green" stroke="none" /><circle cx="3898" cy="8298" r="5" fill="green" stroke="none" /><circle cx="2111" cy="6565" r="5" fill="green" stroke="none" /><circle cx="3861" cy="269" r="5" fill="green" stroke="none" /><circle cx="1195" cy="1918" r="5" fill="green" stroke="none" /><circle cx="7789" cy="9328" r="5" fill="green" stroke="none" /><circle cx="5355" cy="3525" r="5" fill="green" stroke="none" /><circle cx="5862" cy="2154" r="5" fill="green" stroke="none" /><circle cx="1962" cy="6403" r="5" fill="green" stroke="none" /><circle cx="4745" cy="3548" r="5" fill="green" stroke="none" /><circle cx="9811" cy="3994" r="5" fill="green" stroke="none" /><circle cx="7746" cy="9220" r="5" fill="green" stroke="none" /><circle cx="1382" cy="1193" r="5" fill="green" stroke="none" /><circle cx="6583" cy="6759" r="5" fill="green" stroke="none" /><circle cx="4234" cy="5690" r="5" fill="green" stroke="none" /><circle cx="5925" cy="8406" r="5" fill="green" stroke="none" /><circle cx="555" cy="8818" r="5" fill="green" stroke="none" /><circle cx="6376" cy="4929" r="5" fill="green" stroke="none" /><circle cx="315" cy="8718" r="5" fill="green" stroke="none" /><circle cx="1755" cy="7921" r="5" fill="green" stroke="none" /><circle cx="8320" cy="8601" r="5" fill="green" stroke="none" /><circle cx="6790" cy="3701" r="5" fill="green" stroke="none" /><circle cx="2335" cy="3100" r="5" fill="green" stroke="none" /><circle cx="2750" cy="6664" r="5" fill="green" stroke="none" /><circle cx="8597" cy="5062" r="5" fill="green" stroke="none" /><circle cx="3265" cy="9425" r="5" fill="green" stroke="none" /><circle cx="3139" cy="7364" r="5" fill="green" stroke="none" /><circle cx="4309" cy="7101" r="5" fill="green" stroke="none" /><circle cx="7718" cy="2517" r="5" fill="green" stroke="none" /><circle cx="8446" cy="8500" r="5" fill="green" stroke="none" /><circle cx="6867" cy="5570" r="5" fill="green" stroke="none" /><circle cx="1731" cy="5390" r="5" fill="green" stroke="none" /><circle cx="6221" cy="3311" r="5" fill="green" stroke="none" /><circle cx="5288" cy="5181" r="5" fill="green" stroke="none" /><circle cx="5206" cy="3423" r="5" fill="green" stroke="none" /><circle cx="800" cy="3100" r="5" fill="green" stroke="none" /><circle cx="4053" cy="2242" r="5" fill="green" stroke="none" /><circle cx="3460" cy="8319" r="5" fill="green" stroke="none" /><circle cx="9182" cy="1211" r="5" fill="green" stroke="none" /><circle cx="3716" cy="5880" r="5" fill="green" stroke="none" /><circle cx="1457" cy="3342" r="5" fill="green" stroke="none" /><circle cx="5061" cy="6230" r="5" fill="green" stroke="none" /><circle cx="261" cy="8292" r="5" fill="green" stroke="none" /><circle cx="2454" cy="2806" r="5" fill="green" stroke="none" /><circle cx="9660" cy="4225" r="5" fill="green" stroke="none" /><circle cx="8221" cy="4993" r="5" fill="green" stroke="none" /><circle cx="8800" cy="6593" r="5" fill="green" stroke="none" /><circle cx="8951" cy="8135" r="5" fill="green" stroke="none" /><circle cx="8381" cy="9568" r="5" fill="green" stroke="none" /><circle cx="2619" cy="7979" r="5" fill="green" stroke="none" /><circle cx="3319" cy="4488" r="5" fill="green" stroke="none" /><circle cx="3215" cy="8233" r="5" fill="green" stroke="none" /><circle cx="7523" cy="8439" r="5" fill="green" stroke="none" /><circle cx="3288" cy="5238" r="5" fill="green" stroke="none" /><circle cx="2124" cy="2958" r="5" fill="green" stroke="none" /><circle cx="9975" cy="1546" r="5" fill="green" stroke="none" /><circle cx="7127" cy="3586" r="5" fill="green" stroke="none" /><circle cx="9714" cy="4798" r="5" fill="green" stroke="none" /><circle cx="1228" cy="7133" r="5" fill="green" stroke="none" /><circle cx="6903" cy="3947" r="5" fill="green" stroke="none" /><circle cx="9537" cy="1278" r="5" fill="green" stroke="none" /><circle cx="9921" cy="894" r="5" fill="green" stroke="none" /><circle cx="687" cy="8867" r="5" fill="green" stroke="none" /><circle cx="3513" cy="3619" r="5" fill="green" stroke="none" /><circle cx="4065" cy="2478" r="5" fill="green" stroke="none" /><circle cx="6617" cy="4866" r="5" fill="green" stroke="none" /><circle cx="9814" cy="7365" r="5" fill="green" stroke="none" /><circle cx="4886" cy="4567" r="5" fill="green" stroke="none" /><circle cx="7375" cy="8465" r="5" fill="green" stroke="none" /><circle cx="1674" cy="4113" r="5" fill="green" stroke="none" /><circle cx="2623" cy="5078" r="5" fill="green" stroke="none" /><circle cx="4967" cy="5441" r="5" fill="green" stroke="none" /><circle cx="4537" cy="5987" r="5" fill="green" stroke="none" /><circle cx="2059" cy="9491" r="5" fill="green" stroke="none" /><circle cx="2206" cy="3509" r="5" fill="green" stroke="none" /><circle cx="4073" cy="6305" r="5" fill="green" stroke="none" /><circle cx="262" cy="7557" r="5" fill="green" stroke="none" /><circle cx="4808" cy="5475" r="5" fill="green" stroke="none" /><circle cx="6956" cy="9044" r="5" fill="green" stroke="none" /><circle cx="6758" cy="4492" r="5" fill="green" stroke="none" /><circle cx="4861" cy="8628" r="5" fill="green" stroke="none" /><circle cx="6128" cy="4792" r="5" fill="green" stroke="none" /><circle cx="2399" cy="9285" r="5" fill="green" stroke="none" /><circle cx="2842" cy="5896" r="5" fill="green" stroke="none" /><circle cx="4429" cy="3258" r="5" fill="green" stroke="none" /><circle cx="808" cy="576" r="5" fill="green" stroke="none" /><circle cx="4138" cy="4908" r="5" fill="green" stroke="none" /><circle cx="9526" cy="1995" r="5" fill="green" stroke="none" /><circle cx="5011" cy="5783" r="5" fill="green" stroke="none" /><circle cx="7585" cy="8636" r="5" fill="green" stroke="none" /><circle cx="5716" cy="1851" r="5" fill="green" stroke="none" /><circle cx="3632" cy="3250" r="5" fill="green" stroke="none" /><circle cx="2622" cy="1824" r="5" fill="green" stroke="none" /><circle cx="2091" cy="1856" r="5" fill="green" stroke="none" /><circle cx="4521" cy="7287" r="5" fill="green" stroke="none" /><circle cx="3504" cy="1398" r="5" fill="green" stroke="none" /><circle cx="3761" cy="7329" r="5" fill="green" stroke="none" /><circle cx="9214" cy="9645" r="5" fill="green" stroke="none" /><circle cx="5142" cy="6426" r="5" fill="green" stroke="none" /><circle cx="7463" cy="6638" r="5" fill="green" stroke="none" /><circle cx="5190" cy="1678" r="5" fill="green" stroke="none" /><circle cx="7738" cy="7461" r="5" fill="green" stroke="none" /><circle cx="361" cy="6921" r="5" fill="green" stroke="none" /><circle cx="6226" cy="4542" r="5" fill="green" stroke="none" /><circle cx="6034" cy="5604" r="5" fill="green" stroke="none" /><circle cx="2213" cy="9402" r="5" fill="green" stroke="none" /><circle cx="1889" cy="1848" r="5" fill="green" stroke="none" /><circle cx="6959" cy="7049" r="5" fill="green" stroke="none" /><circle cx="5867" cy="7958" r="5" fill="green" stroke="none" /><circle cx="88" cy="7571" r="5" fill="green" stroke="none" /><circle cx="7266" cy="7886" r="5" fill="green" stroke="none" /><circle cx="4248" cy="8559" r="5" fill="green" stroke="none" /><circle cx="4538" cy="6859" r="5" fill="green" stroke="none" /><circle cx="2000" cy="3701" r="5" fill="green" stroke="none" /><circle cx="8183" cy="220" r="5" fill="green" stroke="none" /><circle cx="970" cy="9279" r="5" fill="green" stroke="none" /><circle cx="2512" cy="6229" r="5" fill="green" stroke="none" /><circle cx="5965" cy="5911" r="5" fill="green" stroke="none" /><circle cx="6205" cy="1027" r="5" fill="green" stroke="none" /><circle cx="2618" cy="5893" r="5" fill="green" stroke="none" /><circle cx="7037" cy="4168" r="5" fill="green" stroke="none" /><circle cx="2764" cy="7461" r="5" fill="green" stroke="none" /><circle cx="444" cy="6204" r="5" fill="green" stroke="none" /><circle cx="5172" cy="842" r="5" fill="green" stroke="none" /><circle cx="7719" cy="2957" r="5" fill="green" stroke="none" /><circle cx="6287" cy="5653" r="5" fill="green" stroke="none" /><circle cx="559" cy="2756" r="5" fill="green" stroke="none" /><circle cx="6244" cy="2979" r="5" fill="green" stroke="none" /><circle cx="8481" cy="7694" r="5" fill="green" stroke="none" /><circle cx="3330" cy="9742" r="5" fill="green" stroke="none" /><circle cx="7483" cy="2849" r="5" fill="green" stroke="none" /><circle cx="9883" cy="2753" r="5" fill="green" stroke="none" /><circle cx="3033" cy="5021" r="5" fill="green" stroke="none" /><circle cx="3698" cy="8156" r="5" fill="green" stroke="none" /><circle cx="8221" cy="8680" r="5" fill="green" stroke="none" /><circle cx="6934" cy="9716" r="5" fill="green" stroke="none" /><circle cx="8010" cy="248" r="5" fill="green" stroke="none" /><circle cx="1399" cy="9364" r="5" fill="green" stroke="none" /><circle cx="1468" cy="307" r="5" fill="green" stroke="none" /><circle cx="3310" cy="2238" r="5" fill="green" stroke="none" /><circle cx="377" cy="4409" r="5" fill="green" stroke="none" /><circle cx="2768" cy="6725" r="5" fill="green" stroke="none" /><circle cx="142" cy="8773" r="5" fill="green" stroke="none" /><circle cx="8481" cy="8102" r="5" fill="green" stroke="none" /><circle cx="1739" cy="9461" r="5" fill="green" stroke="none" /><circle cx="6199" cy="6812" r="5" fill="green" stroke="none" /><circle cx="9180" cy="4171" r="5" fill="green" stroke="none" /><circle cx="3093" cy="7061" r="5" fill="green" stroke="none" /><circle cx="1099" cy="3360" r="5" fill="green" stroke="none" /><circle cx="9020" cy="498" r="5" fill="green" stroke="none" /><circle cx="3964" cy="3981" r="5" fill="green" stroke="none" /><circle cx="6964" cy="5704" r="5" fill="green" stroke="none" /><circle cx="7680" cy="5190" r="5" fill="green" stroke="none" /><circle cx="2529" cy="6673" r="5" fill="green" stroke="none" /><circle cx="1206" cy="8480" r="5" fill="green" stroke="none" /><circle cx="9313" cy="1090" r="5" fill="green" stroke="none" /><circle cx="8393" cy="5499" r="5" fill="green" stroke="none" /><circle cx="74" cy="5465" r="5" fill="green" stroke="none" /><circle cx="7922" cy="7907" r="5" fill="green" stroke="none" /><circle cx="9440" cy="7673" r="5" fill="green" stroke="none" /><circle cx="5431" cy="6768" r="5" fill="green" stroke="none" /><circle cx="521" cy="6017" r="5" fill="green" stroke="none" /><circle cx="7190" cy="5987" r="5" fill="green" stroke="none" /><circle cx="6926" cy="4646" r="5" fill="green" stroke="none" /><circle cx="3370" cy="7343" r="5" fill="green" stroke="none" /><circle cx="8854" cy="2527" r="5" fill="green" stroke="none" /><circle cx="9643" cy="2773" r="5" fill="green" stroke="none" /><circle cx="3292" cy="3591" r="5" fill="green" stroke="none" /><circle cx="3689" cy="5977" r="5" fill="green" stroke="none" /><circle cx="3701" cy="6301" r="5" fill="green" stroke="none" /><circle cx="6156" cy="7019" r="5" fill="green" stroke="none" /><circle cx="5282" cy="8603" r="5" fill="green" stroke="none" /><circle cx="7791" cy="2787" r="5" fill="green" stroke="none" /><circle cx="7542" cy="6475" r="5" fill="green" stroke="none" /><circle cx="2636" cy="3448" r="5" fill="green" stroke="none" /><circle cx="9005" cy="2307" r="5" fill="green" stroke="none" /><circle cx="2829" cy="5339" r="5" fill="green" stroke="none" /><circle cx="7786" cy="8677" r="5" fill="green" stroke="none" /><circle cx="2466" cy="2363" r="5" fill="green" stroke="none" /><circle cx="1951" cy="7104" r="5" fill="green" stroke="none" /><circle cx="4561" cy="3638" r="5" fill="green" stroke="none" /><circle cx="8770" cy="5524" r="5" fill="green" stroke="none" /><circle cx="429" cy="2067" r="5" fill="green" stroke="none" /><circle cx="55" cy="854" r="5" fill="green" stroke="none" /><circle cx="1726" cy="6282" r="5" fill="green" stroke="none" /><circle cx="7671" cy="8644" r="5" fill="green" stroke="none" /><circle cx="3767" cy="9252" r="5" fill="green" stroke="none" /><circle cx="4826" cy="318" r="5" fill="green" stroke="none" /><circle cx="3042" cy="2247" r="5" fill="green" stroke="none" /><circle cx="3163" cy="2230" r="5" fill="green" stroke="none" /><circle cx="4365" cy="4492" r="5" fill="green" stroke="none" /><circle cx="5764" cy="743" r="5" fill="green" stroke="none" /><circle cx="7886" cy="4958" r="5" fill="green" stroke="none" /><circle cx="2844" cy="6738" r="5" fill="green" stroke="none" /><circle cx="6566" cy="4841" r="5" fill="green" stroke="none" /><circle cx="5427" cy="1029" r="5" fill="green" stroke="none" /><circle cx="2108" cy="7955" r="5" fill="green" stroke="none" /><circle cx="2171" cy="90" r="5" fill="green" stroke="none" /><circle cx="9744" cy="9648" r="5" fill="green" stroke="none" /><circle cx="8416" cy="8972" r="5" fill="green" stroke="none" /><circle cx="7426" cy="6904" r="5" fill="green" stroke="none" /><circle cx="1655" cy="5433" r="5" fill="green" stroke="none" /><circle cx="2778" cy="4946" r="5" fill="green" stroke="none" /><circle cx="6871" cy="3042" r="5" fill="green" stroke="none" /><circle cx="3727" cy="7473" r="5" fill="green" stroke="none" /><circle cx="2848" cy="5179" r="5" fill="green" stroke="none" /><circle cx="2094" cy="6776" r="5" fill="green" stroke="none" /><circle cx="7315" cy="77" r="5" fill="green" stroke="none" /><circle cx="7858" cy="3667" r="5" fill="green" stroke="none" /><circle cx="2011" cy="1995" r="5" fill="green" stroke="none" /><circle cx="9243" cy="5260" r="5" fill="green" stroke="none" /><circle cx="1560" cy="8157" r="5" fill="green" stroke="none" /><circle cx="5952" cy="2625" r="5" fill="green" stroke="none" /><circle cx="5791" cy="2752" r="5" fill="green" stroke="none" /><circle cx="7648" cy="8146" r="5" fill="green" stroke="none" /><circle cx="9065" cy="6875" r="5" fill="green" stroke="none" /><circle cx="9550" cy="7461" r="5" fill="green" stroke="none" /><circle cx="5915" cy="2805" r="5" fill="green" stroke="none" /><circle cx="5960" cy="5508" r="5" fill="green" stroke="none" /><circle cx="1146" cy="5195" r="5" fill="green" stroke="none" /><circle cx="1756" cy="6613" r="5" fill="green" stroke="none" /><circle cx="7031" cy="7912" r="5" fill="green" stroke="none" /><circle cx="1525" cy="1235" r="5" fill="green" stroke="none" /><circle cx="6563" cy="5121" r="5" fill="green" stroke="none" /><circle cx="700" cy="3363" r="5" fill="green" stroke="none" /><circle cx="9536" cy="3597" r="5" fill="green" stroke="none" /><circle cx="789" cy="801" r="5" fill="green" stroke="none" /><circle cx="7542" cy="4250" r="5" fill="green" stroke="none" /><circle cx="3594" cy="5773" r="5" fill="green" stroke="none" /><circle cx="9223" cy="4230" r="5" fill="green" stroke="none" /><circle cx="9400" cy="7027" r="5" fill="green" stroke="none" /><circle cx="1558" cy="1845" r="5" fill="green" stroke="none" /><circle cx="8005" cy="3539" r="5" fill="green" stroke="none" /><circle cx="1187" cy="7539" r="5" fill="green" stroke="none" /><circle cx="6156" cy="4483" r="5" fill="green" stroke="none" /><circle cx="3016" cy="1621" r="5" fill="green" stroke="none" /><circle cx="3630" cy="3274" r="5" fill="green" stroke="none" /><circle cx="3834" cy="9641" r="5" fill="green" stroke="none" /><circle cx="7795" cy="9583" r="5" fill="green" stroke="none" /><circle cx="2049" cy="3114" r="5" fill="green" stroke="none" /><circle cx="5249" cy="8312" r="5" fill="green" stroke="none" /><circle cx="1721" cy="6682" r="5" fill="green" stroke="none" /><circle cx="5799" cy="4427" r="5" fill="green" stroke="none" /><circle cx="2122" cy="8679" r="5" fill="green" stroke="none" /><circle cx="9166" cy="5815" r="5" fill="green" stroke="none" /><circle cx="5767" cy="2204" r="5" fill="green" stroke="none" /><circle cx="2813" cy="8428" r="5" fill="green" stroke="none" /><circle cx="5836" cy="2997" r="5" fill="green" stroke="none" /><circle cx="9245" cy="2625" r="5" fill="green" stroke="none" /><circle cx="5617" cy="5727" r="5" fill="green" stroke="none" /><circle cx="597" cy="4558" r="5" fill="green" stroke="none" /><circle cx="7195" cy="320" r="5" fill="green" stroke="none" /><circle cx="5246" cy="6615" r="5" fill="green" stroke="none" /><circle cx="3096" cy="6930" r="5" fill="green" stroke="none" /><circle cx="4541" cy="3318" r="5" fill="green" stroke="none" /><circle cx="8037" cy="6831" r="5" fill="green" stroke="none" /><circle cx="3984" cy="5748" r="5" fill="green" stroke="none" /><circle cx="8937" cy="728" r="5" fill="green" stroke="none" /><circle cx="383" cy="1917" r="5" fill="green" stroke="none" /><circle cx="7683" cy="5108" r="5" fill="green" stroke="none" /><circle cx="8622" cy="3223" r="5" fill="green" stroke="none" /><circle cx="9298" cy="9617" r="5" fill="green" stroke="none" /><circle cx="5954" cy="9004" r="5" fill="green" stroke="none" /><circle cx="6041" cy="5687" r="5" fill="green" stroke="none" /><circle cx="8554" cy="5938" r="5" fill="green" stroke="none" /><circle cx="4213" cy="5364" r="5" fill="green" stroke="none" /><circle cx="1635" cy="6712" r="5" fill="green" stroke="none" /><circle cx="6671" cy="5414" r="5" fill="green" stroke="none" /><circle cx="6052" cy="7949" r="5" fill="green" stroke="none" /><circle cx="6950" cy="4147" r="5" fill="green" stroke="none" /><circle cx="9737" cy="6457" r="5" fill="green" stroke="none" /><circle cx="2190" cy="7745" r="5" fill="green" stroke="none" /><circle cx="1297" cy="5906" r="5" fill="green" stroke="none" /><circle cx="7420" cy="8156" r="5" fill="green" stroke="none" /><circle cx="3283" cy="3587" r="5" fill="green" stroke="none" /><circle cx="1718" cy="6339" r="5" fill="green" stroke="none" /><circle cx="1351" cy="5765" r="5" fill="green" stroke="none" /><circle cx="9023" cy="169" r="5" fill="green" stroke="none" /><circle cx="3532" cy="4041" r="5" fill="green" stroke="none" /><circle cx="14" cy="2180" r="5" fill="green" stroke="none" /><circle cx="7711" cy="6043" r="5" fill="green" stroke="none" /><circle cx="2747" cy="8769" r="5" fill="green" stroke="none" /><circle cx="9759" cy="7893" r="5" fill="green" stroke="none" /><circle cx="2840" cy="4561" r="5" fill="green" stroke="none" /><circle cx="1491" cy="9031" r="5" fill="green" stroke="none" /><circle cx="4652" cy="7211" r="5" fill="green" stroke="none" /><circle cx="1936" cy="813" r="5" fill="green" stroke="none" /><circle cx="814" cy="5725" r="5" fill="green" stroke="none" /><circle cx="1755" cy="7431" r="5" fill="green" stroke="none" /><circle cx="7580" cy="2591" r="5" fill="green" stroke="none" /><circle cx="7683" cy="3920" r="5" fill="green" stroke="none" /><circle cx="4207" cy="2356" r="5" fill="green" stroke="none" /><circle cx="2004" cy="4687" r="5" fill="green" stroke="none" /><circle cx="568" cy="5028" r="5" fill="green" stroke="none" /><circle cx="8255" cy="7310" r="5" fill="green" stroke="none" /><circle cx="7840" cy="5068" r="5" fill="green" stroke="none" /><circle cx="9924" cy="2116" r="5" fill="green" stroke="none" /><circle cx="1137" cy="8401" r="5" fill="green" stroke="none" /><circle cx="4218" cy="5694" r="5" fill="green" stroke="none" /><circle cx="7598" cy="59" r="5" fill="green" stroke="none" /><circle cx="3277" cy="2906" r="5" fill="green" stroke="none" /><circle cx="3253" cy="5857" r="5" fill="green" stroke="none" /><circle cx="1783" cy="2705" r="5" fill="green" stroke="none" /><circle cx="2308" cy="2495" r="5" fill="green" stroke="none" /><circle cx="3456" cy="5692" r="5" fill="green" stroke="none" /><circle cx="3052" cy="585" r="5" fill="green" stroke="none" /><circle cx="1645" cy="3545" r="5" fill="green" stroke="none" /><circle cx="7749" cy="6160" r="5" fill="green" stroke="none" /><circle cx="6296" cy="4210" r="5" fill="green" stroke="none" /><circle cx="3444" cy="2273" r="5" fill="green" stroke="none" /><circle cx="1373" cy="217" r="5" fill="green" stroke="none" /><circle cx="9404" cy="6559" r="5" fill="green" stroke="none" /><circle cx="1893" cy="4415" r="5" fill="green" stroke="none" /><circle cx="9314" cy="3305" r="5" fill="green" stroke="none" /><circle cx="6750" cy="5564" r="5" fill="green" stroke="none" /><circle cx="896" cy="7133" r="5" fill="green" stroke="none" /><circle cx="4654" cy="7917" r="5" fill="green" stroke="none" /><circle cx="5455" cy="5784" r="5" fill="green" stroke="none" /><circle cx="2445" cy="8196" r="5" fill="green" stroke="none" /><circle cx="664" cy="3668" r="5" fill="green" stroke="none" /><circle cx="2456" cy="9500" r="5" fill="green" stroke="none" /><circle cx="3177" cy="1311" r="5" fill="green" stroke="none" /><circle cx="3945" cy="3145" r="5" fill="green" stroke="none" /><circle cx="7093" cy="2820" r="5" fill="green" stroke="none" /><circle cx="7123" cy="9022" r="5" fill="green" stroke="none" /><circle cx="9385" cy="1172" r="5" fill="green" stroke="none" /><circle cx="712" cy="963" r="5" fill="green" stroke="none" /><circle cx="9428" cy="9029" r="5" fill="green" stroke="none" /><circle cx="3188" cy="2694" r="5" fill="green" stroke="none" /><circle cx="6617" cy="5934" r="5" fill="green" stroke="none" /><circle cx="8931" cy="4146" r="5" fill="green" stroke="none" /><circle cx="3826" cy="2976" r="5" fill="green" stroke="none" /><circle cx="6051" cy="2149" r="5" fill="green" stroke="none" /><circle cx="506" cy="3797" r="5" fill="green" stroke="none" /><circle cx="449" cy="1229" r="5" fill="green" stroke="none" /><circle cx="7593" cy="6729" r="5" fill="green" stroke="none" /><circle cx="3861" cy="4318" r="5" fill="green" stroke="none" /><circle cx="2909" cy="8419" r="5" fill="green" stroke="none" /><circle cx="3625" cy="644" r="5" fill="green" stroke="none" /><circle cx="2877" cy="1852" r="5" fill="green" stroke="none" /><circle cx="7911" cy="8967" r="5" fill="green" stroke="none" /><circle cx="8851" cy="2813" r="5" fill="green" stroke="none" /><circle cx="9721" cy="4116" r="5" fill="green" stroke="none" /><circle cx="5003" cy="8017" r="5" fill="green" stroke="none" /><circle cx="2838" cy="3025" r="5" fill="green" stroke="none" /><circle cx="7285" cy="4135" r="5" fill="green" stroke="none" /><circle cx="1780" cy="8073" r="5" fill="green" stroke="none" /><circle cx="4716" cy="7453" r="5" fill="green" stroke="none" /><circle cx="237" cy="6935" r="5" fill="green" stroke="none" /><circle cx="3358" cy="1194" r="5" fill="green" stroke="none" /><circle cx="6841" cy="7135" r="5" fill="green" stroke="none" /><circle cx="2549" cy="5693" r="5" fill="green" stroke="none" /><circle cx="236" cy="1417" r="5" fill="green" stroke="none" /><circle cx="9690" cy="3942" r="5" fill="green" stroke="none" /><circle cx="2985" cy="9047" r="5" fill="green" stroke="none" /><circle cx="8840" cy="6145" r="5" fill="green" stroke="none" /><circle cx="46" cy="9093" r="5" fill="green" stroke="none" /><circle cx="3744" cy="5389" r="5" fill="green" stroke="none" /><circle cx="8510" cy="6100" r="5" fill="green" stroke="none" /><circle cx="8912" cy="4721" r="5" fill="green" stroke="none" /><circle cx="3016" cy="1071" r="5" fill="green" stroke="none" /><circle cx="1321" cy="9112" r="5" fill="green" stroke="none" /><circle cx="5452" cy="3741" r="5" fill="green" stroke="none" /><circle cx="4136" cy="5694" r="5" fill="green" stroke="none" /><circle cx="309" cy="6737" r="5" fill="green" stroke="none" /><circle cx="557" cy="303" r="5" fill="green" stroke="none" /><circle cx="762" cy="9081" r="5" fill="green" stroke="none" /><circle cx="8403" cy="4183" r="5" fill="green" stroke="none" /><circle cx="7250" cy="6640" r="5" fill="green" stroke="none" /><circle cx="1098" cy="2701" r="5" fill="green" stroke="none" /><circle cx="9309" cy="5753" r="5" fill="green" stroke="none" /><circle cx="4480" cy="3794" r="5" fill="green" stroke="none" /><circle cx="7358" cy="4965" r="5" fill="green" stroke="none" /><circle cx="941" cy="8393" r="5" fill="green" stroke="none" /><circle cx="7044" cy="3862" r="5" fill="green" stroke="none" /><circle cx="3872" cy="3722" r="5" fill="green" stroke="none" /><circle cx="1498" cy="8104" r="5" fill="green" stroke="none" /><circle cx="1773" cy="2789" r="5" fill="green" stroke="none" /><circle cx="3011" cy="2158" r="5" fill="green" stroke="none" /><circle cx="2203" cy="2678" r="5" fill="green" stroke="none" /><circle cx="2876" cy="2595" r="5" fill="green" stroke="none" /><circle cx="23" cy="334" r="5" fill="green" stroke="none" /><circle cx="1413" cy="1856" r="5" fill="green" stroke="none" /><circle cx="5387" cy="4195" r="5" fill="green" stroke="none" /><circle cx="5089" cy="7686" r="5" fill="green" stroke="none" /><circle cx="7540" cy="5558" r="5" fill="green" stroke="none" /><circle cx="2820" cy="9699" r="5" fill="green" stroke="none" /><circle cx="6412" cy="3360" r="5" fill="green" stroke="none" /><circle cx="2174" cy="6074" r="5" fill="green" stroke="none" /><circle cx="9138" cy="4094" r="5" fill="green" stroke="none" /><circle cx="7941" cy="4253" r="5" fill="green" stroke="none" /><circle cx="9009" cy="8264" r="5" fill="green" stroke="none" /><circle cx="4407" cy="653" r="5" fill="green" stroke="none" /><circle cx="7270" cy="2746" r="5" fill="green" stroke="none" /><circle cx="7108" cy="428" r="5" fill="green" stroke="none" /><circle cx="5335" cy="9024" r="5" fill="green" stroke="none" /><circle cx="4659" cy="625" r="5" fill="green" stroke="none" /><circle cx="5366" cy="9335" r="5" fill="green" stroke="none" /><circle cx="1195" cy="3990" r="5" fill="green" stroke="none" /><circle cx="176" cy="5776" r="5" fill="green" stroke="none" /><circle cx="1000" cy="5445" r="5" fill="green" stroke="none" /><circle cx="9137" cy="4284" r="5" fill="green" stroke="none" /><circle cx="9817" cy="5557" r="5" fill="green" stroke="none" /><circle cx="4718" cy="897" r="5" fill="green" stroke="none" /><circle cx="8299" cy="8485" r="5" fill="green" stroke="none" /><circle cx="2871" cy="7785" r="80" fill="red" stroke="none" /><circle cx="3202" cy="1002" r="7" fill="red" stroke="none" /><circle cx="9226" cy="2545" r="48" fill="red" stroke="none" /><circle cx="2562" cy="1181" r="28" fill="red" stroke="none" /><circle cx="9313" cy="8608" r="80" fill="red" stroke="none" /><circle cx="4472" cy="4087" r="62" fill="red" stroke="none" /><circle cx="413" cy="8241" r="17" fill="red" stroke="none" /><circle cx="8769" cy="7799" r="55" fill="red" stroke="none" /><circle cx="1410" cy="7992" r="59" fill="red" stroke="none" /><circle cx="6531" cy="7175" r="29" fill="red" stroke="none" /><circle cx="724" cy="6962" r="9" fill="red" stroke="none" /><circle cx="248" cy="6273" r="47" fill="red" stroke="none" /><circle cx="2474" cy="1847" r="60" fill="red" stroke="none" /><circle cx="5791" cy="3906" r="44" fill="red" stroke="none" /><circle cx="6339" cy="8058" r="48" fill="red" stroke="none" /><circle cx="720" cy="8294" r="41" fill="red" stroke="none" /><circle cx="6970" cy="7490" r="76" fill="red" stroke="none" /><circle cx="5308" cy="3959" r="61" fill="red" stroke="none" /><circle cx="3587" cy="8336" r="74" fill="red" stroke="none" /><circle cx="4511" cy="5022" r="44" fill="red" stroke="none" /><circle cx="2005" cy="7997" r="80" fill="red" stroke="none" /><circle cx="286" cy="9740" r="13" fill="red" stroke="none" /><circle cx="4367" cy="822" r="50" fill="red" stroke="none" /><circle cx="2638" cy="912" r="84" fill="red" stroke="none" /><circle cx="8800" cy="6796" r="52" fill="red" stroke="none" /><circle cx="3704" cy="425" r="62" fill="red" stroke="none" /><circle cx="2893" cy="5356" r="43" fill="red" stroke="none" /><circle cx="7095" cy="7249" r="72" fill="red" stroke="none" /><circle cx="3828" cy="6641" r="51" fill="red" stroke="none" /><circle cx="3024" cy="9553" r="30" fill="red" stroke="none" /><circle cx="2670" cy="9385" r="81" fill="red" stroke="none" /><circle cx="4739" cy="313" r="16" fill="red" stroke="none" /><circle cx="2878" cy="842" r="42" fill="red" stroke="none" /><circle cx="9548" cy="9325" r="76" fill="red" stroke="none" /><circle cx="1498" cy="605" r="84" fill="red" stroke="none" /><circle cx="1494" cy="7575" r="48" fill="red" stroke="none" /><circle cx="4275" cy="9452" r="19" fill="red" stroke="none" /><circle cx="6130" cy="1068" r="32" fill="red" stroke="none" /><circle cx="6082" cy="5738" r="59" fill="red" stroke="none" /><circle cx="7612" cy="4316" r="12" fill="red" stroke="none" /><circle cx="6837" cy="8787" r="36" fill="red" stroke="none" /><circle cx="937" cy="2050" r="11" fill="red" stroke="none" /><circle cx="8995" cy="4829" r="74" fill="red" stroke="none" /><circle cx="7592" cy="4800" r="6" fill="red" stroke="none" /><circle cx="4407" cy="792" r="48" fill="red" stroke="none" /><circle cx="4687" cy="4770" r="78" fill="red" stroke="none" /><circle cx="99" cy="8006" r="43" fill="red" stroke="none" /><circle cx="5495" cy="1962" r="84" fill="red" stroke="none" /><circle cx="6306" cy="8482" r="26" fill="red" stroke="none" /><circle cx="2679" cy="3833" r="74" fill="red" stroke="none" /><circle cx="1920" cy="2348" r="72" fill="red" stroke="none" /><circle cx="5128" cy="1531" r="27" fill="red" stroke="none" /><circle cx="8685" cy="4770" r="6" fill="red" stroke="none" /><circle cx="3497" cy="4724" r="61" fill="red" stroke="none" /><circle cx="6946" cy="9299" r="58" fill="red" stroke="none" /><circle cx="3425" cy="4696" r="80" fill="red" stroke="none" /><circle cx="892" cy="1834" r="58" fill="red" stroke="none" /><circle cx="2300" cy="3056" r="28" fill="red" stroke="none" /><circle cx="1585" cy="4844" r="43" fill="red" stroke="none" /><circle cx="1922" cy="6856" r="39" fill="red" stroke="none" /><circle cx="140" cy="2114" r="43" fill="red" stroke="none" /><circle cx="8249" cy="7829" r="38" fill="red" stroke="none" /><circle cx="4468" cy="2393" r="80" fill="red" stroke="none" /><circle cx="6716" cy="4586" r="34" fill="red" stroke="none" /><circle cx="8957" cy="4561" r="63" fill="red" stroke="none" /><circle cx="2774" cy="1792" r="48" fill="red" stroke="none" /><circle cx="957" cy="9129" r="21" fill="red" stroke="none" /><circle cx="1841" cy="1960" r="35" fill="red" stroke="none" /><circle cx="3359" cy="5090" r="72" fill="red" stroke="none" /><circle cx="2381" cy="866" r="83" fill="red" stroke="none" /><circle cx="6524" cy="7000" r="41" fill="red" stroke="none" /><circle cx="6071" cy="8289" r="79" fill="red" stroke="none" /><circle cx="4126" cy="3669" r="56" fill="red" stroke="none" /><circle cx="9547" cy="1584" r="36" fill="red" stroke="none" /><circle cx="9281" cy="7168" r="67" fill="red" stroke="none" /><circle cx="2956" cy="2585" r="19" fill="red" stroke="none" /><circle cx="4300" cy="5458" r="15" fill="red" stroke="none" /><circle cx="2494" cy="1218" r="32" fill="red" stroke="none" /><circle cx="5160" cy="7809" r="36" fill="red" stroke="none" /><circle cx="3298" cy="7523" r="80" fill="red" stroke="none" /><circle cx="9618" cy="5985" r="16" fill="red" stroke="none" /><circle cx="3237" cy="1390" r="15" fill="red" stroke="none" /><circle cx="9687" cy="7177" r="8" fill="red" stroke="none" /><circle cx="7900" cy="4789" r="76" fill="red" stroke="none" /><circle cx="1987" cy="8848" r="7" fill="red" stroke="none" /><circle cx="2709" cy="1227" r="61" fill="red" stroke="none" /></svg>