<svg viewBox="0 0 5590 6364" xmlns="http://www.w3.org/2000/svg"><rect x="0" y="0" width="5590" height="6364" fill="lightyellow" stroke="none "/><rect x="1114" y="4868" width="1741" height="1142" fill="white" stroke="black "/><circle cx="4017" cy="1265" r="5" fill="green" stroke="none" /><circle cx="3157" cy="5994" r="5" fill="green" stroke="none" /><circle cx="3519" cy="5477" r="5" fill="green" stroke="none" /><circle cx="4492" cy="2321" r="5" fill="green" stroke="none" /><circle cx="548" cy="1645" r="5" fill="green" stroke="none" /><circle cx="4854" cy="190" r="5" fill="green" stroke="none" /><circle cx="4807" cy="2670" r="5" fill="green" stroke="none" /><circle cx="4871" cy="3491" r="5" fill="green" stroke="none" /><circle cx="4309" cy="5567" r="5" fill="green" stroke="none" /><circle cx="1466" cy="515" r="5" fill="green" stroke="none" /><circle cx="1785" cy="717" r="5" fill="green" stroke="none" /><circle cx="471" cy="554" r="5" fill="green" stroke="none" /><circle cx="5343" cy="104" r="5" fill="green" stroke="none" /><circle cx="5549" cy="5538" r="5" fill="green" stroke="none" /><circle cx="1508" cy="847" r="5" fill="green" stroke="none" /><circle cx="3850" cy="2660" r="5" fill="green" stroke="none" /><circle cx="484" cy="2566" r="5" fill="green" stroke="none" /><circle cx="4744" cy="1767" r="5" fill="green" stroke="none" /><circle cx="4541" cy="4062" r="5" fill="green" stroke="none" /><circle cx="2245" cy="4051" r="5" fill="green" stroke="none" /><circle cx="5296" cy="4748" r="5" fill="green" stroke="none" /><circle cx="3551" cy="2523" r="5" fill="green" stroke="none" /><circle cx="931" cy="5386" r="5" fill="green" stroke="none" /><circle cx="2750" cy="31" r="5" fill="green" stroke="none" /><circle cx="4651" cy="3765" r="5" fill="green" stroke="none" /><circle cx="1499" cy="6303" r="5" fill="green" stroke="none" /><circle cx="363" cy="4262" r="5" fill="green" stroke="none" /><circle cx="999" cy="4974" r="5" fill="green" stroke="none" /><circle cx="1809" cy="2632" r="5" fill="green" stroke="none" /><circle cx="290" cy="4838" r="5" fill="green" stroke="none" /><circle cx="28" cy="4414" r="5" fill="green" stroke="none" /><circle cx="1108" cy="3019" r="5" fill="green" stroke="none" /><circle cx="4457" cy="5977" r="5" fill="green" stroke="none" /><circle cx="5158" cy="4403" r="5" fill="green" stroke="none" /><circle cx="4013" cy="1059" r="5" fill="green" stroke="none" /><circle cx="4959" cy="4636" r="5" fill="green" stroke="none" /><circle cx="4311" cy="4873" r="5" fill="green" stroke="none" /><circle cx="5392" cy="4522" r="5" fill="green" stroke="none" /><circle cx="3129" cy="119" r="5" fill="green" stroke="none" /><circle cx="1458" cy="2989" r="5" fill="green" stroke="none" /><circle cx="3120" cy="1646" r="5" fill="green" stroke="none" /><circle cx="3688" cy="2393" r="5" fill="green" stroke="none" /><circle cx="3892" cy="5017" r="5" fill="green" stroke="none" /><circle cx="2330" cy="1147" r="5" fill="green" stroke="none" /><circle cx="4535" cy="5844" r="5" fill="green" stroke="none" /><circle cx="5575" cy="1642" r="5" fill="green" stroke="none" /><circle cx="2510" cy="3198" r="5" fill="green" stroke="none" /><circle cx="1747" cy="1579" r="5" fill="green" stroke="none" /><circle cx="5111" cy="4266" r="5" fill="green" stroke="none" /><circle cx="5305" cy="5080" r="5" fill="green" stroke="none" /><circle cx="4480" cy="1035" r="5" fill="green" stroke="none" /><circle cx="416" cy="2437" r="5" fill="green" stroke="none" /><circle cx="3836" cy="255" r="5" fill="green" stroke="none" /><circle cx="3716" cy="5378" r="5" fill="green" stroke="none" /><circle cx="5049" cy="2815" r="5" fill="green" stroke="none" /><circle cx="4699" cy="2577" r="5" fill="green" stroke="none" /><circle cx="714" cy="5361" r="5" fill="green" stroke="none" /><circle cx="1762" cy="352" r="5" fill="green" stroke="none" /><circle cx="350" cy="101" r="5" fill="green" stroke="none" /><circle cx="3771" cy="3249" r="5" fill="green" stroke="none" /><circle cx="4073" cy="5028" r="5" fill="green" stroke="none" /><circle cx="4320" cy="526" r="5" fill="green" stroke="none" /><circle cx="5400" cy="4036" r="5" fill="green" stroke="none" /><circle cx="5028" cy="2777" r="5" fill="green" stroke="none" /><circle cx="613" cy="2102" r="5" fill="green" stroke="none" /><circle cx="125" cy="1572" r="5" fill="green" stroke="none" /><circle cx="3020" cy="5297" r="5" fill="green" stroke="none" /><circle cx="4138" cy="4916" r="5" fill="green" stroke="none" /><circle cx="5096" cy="2613" r="5" fill="green" stroke="none" /><circle cx="3814" cy="582" r="5" fill="green" stroke="none" /><circle cx="5057" cy="4645" r="5" fill="green" stroke="none" /><circle cx="4873" cy="734" r="5" fill="green" stroke="none" /><circle cx="565" cy="1328" r="5" fill="green" stroke="none" /><circle cx="4188" cy="4338" r="5" fill="green" stroke="none" /><circle cx="5178" cy="2016" r="5" fill="green" stroke="none" /><circle cx="5148" cy="5469" r="5" fill="green" stroke="none" /><circle cx="3958" cy="5312" r="5" fill="green" stroke="none" /><circle cx="489" cy="5688" r="5" fill="green" stroke="none" /><circle cx="4712" cy="6184" r="5" fill="green" stroke="none" /><circle cx="137" cy="3402" r="5" fill="green" stroke="none" /><circle cx="3931" cy="2348" r="5" fill="green" stroke="none" /><circle cx="5045" cy="1510" r="5" fill="green" stroke="none" /><circle cx="5361" cy="1368" r="5" fill="green" stroke="none" /><circle cx="732" cy="340" r="5" fill="green" stroke="none" /><circle cx="4329" cy="4837" r="5" fill="green" stroke="none" /><circle cx="5271" cy="4073" r="5" fill="green" stroke="none" /><circle cx="236" cy="4148" r="5" fill="green" stroke="none" /><circle cx="4311" cy="3352" r="5" fill="green" stroke="none" /><circle cx="4372" cy="4451" r="5" fill="green" stroke="none" /><circle cx="1038" cy="3028" r="5" fill="green" stroke="none" /><circle cx="3200" cy="2655" r="5" fill="green" stroke="none" /><circle cx="4658" cy="3608" r="5" fill="green" stroke="none" /><circle cx="1131" cy="4242" r="5" fill="green" stroke="none" /><circle cx="632" cy="3925" r="5" fill="green" stroke="none" /><circle cx="2235" cy="110" r="5" fill="green" stroke="none" /><circle cx="909" cy="2770" r="5" fill="green" stroke="none" /><circle cx="1375" cy="6104" r="5" fill="green" stroke="none" /><circle cx="2735" cy="2503" r="5" fill="green" stroke="none" /><circle cx="1765" cy="4193" r="5" fill="green" stroke="none" /><circle cx="5370" cy="3619" r="5" fill="green" stroke="none" /><circle cx="3902" cy="4536" r="5" fill="green" stroke="none" /><circle cx="1672" cy="3917" r="5" fill="green" stroke="none" /><circle cx="1428" cy="3976" r="5" fill="green" stroke="none" /><circle cx="4089" cy="3368" r="5" fill="green" stroke="none" /><circle cx="664" cy="951" r="5" fill="green" stroke="none" /><circle cx="1177" cy="3994" r="5" fill="green" stroke="none" /><circle cx="1379" cy="4775" r="5" fill="green" stroke="none" /><circle cx="2894" cy="5355" r="5" fill="green" stroke="none" /><circle cx="453" cy="2287" r="5" fill="green" stroke="none" /><circle cx="1221" cy="3618" r="5" fill="green" stroke="none" /><circle cx="4414" cy="1265" r="5" fill="green" stroke="none" /><circle cx="5457" cy="4384" r="5" fill="green" stroke="none" /><circle cx="3514" cy="1767" r="5" fill="green" stroke="none" /><circle cx="1987" cy="4796" r="5" fill="green" stroke="none" /><circle cx="864" cy="524" r="5" fill="green" stroke="none" /><circle cx="254" cy="1584" r="5" fill="green" stroke="none" /><circle cx="3064" cy="141" r="5" fill="green" stroke="none" /><circle cx="1349" cy="153" r="5" fill="green" stroke="none" /><circle cx="1446" cy="1571" r="5" fill="green" stroke="none" /><circle cx="3217" cy="3631" r="5" fill="green" stroke="none" /><circle cx="4183" cy="6255" r="5" fill="green" stroke="none" /><circle cx="3979" cy="2453" r="5" fill="green" stroke="none" /><circle cx="1286" cy="2313" r="5" fill="green" stroke="none" /><circle cx="5056" cy="605" r="5" fill="green" stroke="none" /><circle cx="1132" cy="2730" r="5" fill="green" stroke="none" /><circle cx="2832" cy="700" r="5" fill="green" stroke="none" /><circle cx="1556" cy="864" r="5" fill="green" stroke="none" /><circle cx="4691" cy="258" r="5" fill="green" stroke="none" /><circle cx="1115" cy="3624" r="5" fill="green" stroke="none" /><circle cx="777" cy="3786" r="5" fill="green" stroke="none" /><circle cx="4178" cy="2688" r="5" fill="green" stroke="none" /><circle cx="2989" cy="1441" r="5" fill="green" stroke="none" /><circle cx="2830" cy="3659" r="5" fill="green" stroke="none" /><circle cx="4776" cy="4595" r="5" fill="green" stroke="none" /><circle cx="4931" cy="3821" r="5" fill="green" stroke="none" /><circle cx="5273" cy="4089" r="5" fill="green" stroke="none" /><circle cx="4518" cy="2175" r="5" fill="green" stroke="none" /><circle cx="2880" cy="90" r="5" fill="green" stroke="none" /><circle cx="171" cy="747" r="5" fill="green" stroke="none" /><circle cx="2281" cy="3473" r="5" fill="green" stroke="none" /><circle cx="4017" cy="5737" r="5" fill="green" stroke="none" /><circle cx="3215" cy="3988" r="5" fill="green" stroke="none" /><circle cx="1148" cy="2617" r="5" fill="green" stroke="none" /><circle cx="3929" cy="3550" r="5" fill="green" stroke="none" /><circle cx="2149" cy="4084" r="5" fill="green" stroke="none" /><circle cx="1352" cy="2160" r="5" fill="green" stroke="none" /><circle cx="1984" cy="4188" r="5" fill="green" stroke="none" /><circle cx="3168" cy="5069" r="5" fill="green" stroke="none" /><circle cx="1798" cy="4714" r="5" fill="green" stroke="none" /><circle cx="442" cy="3155" r="5" fill="green" stroke="none" /><circle cx="1929" cy="512" r="5" fill="green" stroke="none" /><circle cx="4120" cy="2349" r="5" fill="green" stroke="none" /><circle cx="2166" cy="781" r="5" fill="green" stroke="none" /><circle cx="318" cy="1964" r="5" fill="green" stroke="none" /><circle cx="1905" cy="3161" r="5" fill="green" stroke="none" /><circle cx="125" cy="1163" r="5" fill="green" stroke="none" /><circle cx="218" cy="3006" r="5" fill="green" stroke="none" /><circle cx="953" cy="4536" r="5" fill="green" stroke="none" /><circle cx="762" cy="4612" r="5" fill="green" stroke="none" /><circle cx="4427" cy="5528" r="5" fill="green" stroke="none" /><circle cx="3928" cy="4722" r="5" fill="green" stroke="none" /><circle cx="3189" cy="330" r="5" fill="green" stroke="none" /><circle cx="3792" cy="5144" r="5" fill="green" stroke="none" /><circle cx="1028" cy="1857" r="5" fill="green" stroke="none" /><circle cx="1502" cy="3154" r="5" fill="green" stroke="none" /><circle cx="4542" cy="2717" r="5" fill="green" stroke="none" /><circle cx="2044" cy="1187" r="5" fill="green" stroke="none" /><circle cx="1932" cy="1151" r="5" fill="green" stroke="none" /><circle cx="3886" cy="6272" r="5" fill="green" stroke="none" /><circle cx="1382" cy="76" r="5" fill="green" stroke="none" /><circle cx="5006" cy="1365" r="5" fill="green" stroke="none" /><circle cx="3562" cy="1130" r="5" fill="green" stroke="none" /><circle cx="1655" cy="1402" r="5" fill="green" stroke="none" /><circle cx="3706" cy="4579" r="5" fill="green" stroke="none" /><circle cx="312" cy="4640" r="5" fill="green" stroke="none" /><circle cx="4070" cy="4301" r="5" fill="green" stroke="none" /><circle cx="4196" cy="2948" r="5" fill="green" stroke="none" /><circle cx="1408" cy="135" r="5" fill="green" stroke="none" /><circle cx="3579" cy="4484" r="5" fill="green" stroke="none" /><circle cx="2700" cy="1987" r="5" fill="green" stroke="none" /><circle cx="3636" cy="213" r="5" fill="green" stroke="none" /><circle cx="3866" cy="3820" r="5" fill="green" stroke="none" /><circle cx="2524" cy="1081" r="5" fill="green" stroke="none" /><circle cx="1900" cy="3018" r="5" fill="green" stroke="none" /><circle cx="4263" cy="4686" r="5" fill="green" stroke="none" /><circle cx="3856" cy="3351" r="5" fill="green" stroke="none" /><circle cx="1231" cy="215" r="5" fill="green" stroke="none" /><circle cx="1540" cy="771" r="5" fill="green" stroke="none" /><circle cx="3940" cy="5369" r="5" fill="green" stroke="none" /><circle cx="4708" cy="711" r="5" fill="green" stroke="none" /><circle cx="3430" cy="2242" r="5" fill="green" stroke="none" /><circle cx="5549" cy="2020" r="5" fill="green" stroke="none" /><circle cx="530" cy="2085" r="5" fill="green" stroke="none" /><circle cx="2327" cy="3142" r="5" fill="green" stroke="none" /><circle cx="3688" cy="4424" r="5" fill="green" stroke="none" /><circle cx="93" cy="1574" r="5" fill="green" stroke="none" /><circle cx="715" cy="4478" r="5" fill="green" stroke="none" /><circle cx="995" cy="5946" r="5" fill="green" stroke="none" /><circle cx="3557" cy="5632" r="5" fill="green" stroke="none" /><circle cx="2600" cy="4715" r="5" fill="green" stroke="none" /><circle cx="3943" cy="5490" r="5" fill="green" stroke="none" /><circle cx="4827" cy="4232" r="5" fill="green" stroke="none" /><circle cx="3848" cy="4604" r="5" fill="green" stroke="none" /><circle cx="1817" cy="1144" r="5" fill="green" stroke="none" /><circle cx="3057" cy="3846" r="5" fill="green" stroke="none" /><circle cx="2836" cy="4720" r="5" fill="green" stroke="none" /><circle cx="5117" cy="3136" r="5" fill="green" stroke="none" /><circle cx="1952" cy="1855" r="5" fill="green" stroke="none" /><circle cx="371" cy="405" r="5" fill="green" stroke="none" /><circle cx="5533" cy="3605" r="5" fill="green" stroke="none" /><circle cx="788" cy="228" r="5" fill="green" stroke="none" /><circle cx="1510" cy="67" r="5" fill="green" stroke="none" /><circle cx="3855" cy="2978" r="5" fill="green" stroke="none" /><circle cx="4933" cy="143" r="5" fill="green" stroke="none" /><circle cx="420" cy="4960" r="5" fill="green" stroke="none" /><circle cx="1144" cy="6322" r="5" fill="green" stroke="none" /><circle cx="2222" cy="4279" r="5" fill="green" stroke="none" /><circle cx="4772" cy="1312" r="5" fill="green" stroke="none" /><circle cx="2539" cy="2735" r="5" fill="green" stroke="none" /><circle cx="1846" cy="4279" r="5" fill="green" stroke="none" /><circle cx="1963" cy="2817" r="5" fill="green" stroke="none" /><circle cx="4477" cy="5701" r="5" fill="green" stroke="none" /><circle cx="3909" cy="3787" r="5" fill="green" stroke="none" /><circle cx="3176" cy="1592" r="5" fill="green" stroke="none" /><circle cx="4362" cy="5191" r="5" fill="green" stroke="none" /><circle cx="5554" cy="578" r="5" fill="green" stroke="none" /><circle cx="4352" cy="2443" r="5" fill="green" stroke="none" /><circle cx="3181" cy="995" r="5" fill="green" stroke="none" /><circle cx="1042" cy="3420" r="5" fill="green" stroke="none" /><circle cx="2420" cy="11" r="5" fill="green" stroke="none" /><circle cx="531" cy="4668" r="5" fill="green" stroke="none" /><circle cx="4390" cy="5681" r="5" fill="green" stroke="none" /><circle cx="48" cy="5860" r="5" fill="green" stroke="none" /><circle cx="2015" cy="6184" r="5" fill="green" stroke="none" /><circle cx="2676" cy="3455" r="5" fill="green" stroke="none" /><circle cx="473" cy="63" r="5" fill="green" stroke="none" /><circle cx="4349" cy="1164" r="5" fill="green" stroke="none" /><circle cx="5514" cy="3171" r="5" fill="green" stroke="none" /><circle cx="2773" cy="4825" r="5" fill="green" stroke="none" /><circle cx="5580" cy="1824" r="5" fill="green" stroke="none" /><circle cx="5181" cy="4331" r="5" fill="green" stroke="none" /><circle cx="412" cy="2269" r="5" fill="green" stroke="none" /><circle cx="1489" cy="3833" r="5" fill="green" stroke="none" /><circle cx="3054" cy="6013" r="5" fill="green" stroke="none" /><circle cx="2989" cy="3074" r="5" fill="green" stroke="none" /><circle cx="1074" cy="5403" r="5" fill="green" stroke="none" /><circle cx="1652" cy="328" r="5" fill="green" stroke="none" /><circle cx="87" cy="2941" r="5" fill="green" stroke="none" /><circle cx="2459" cy="353" r="5" fill="green" stroke="none" /><circle cx="5251" cy="3702" r="5" fill="green" stroke="none" /><circle cx="5208" cy="840" r="5" fill="green" stroke="none" /><circle cx="5145" cy="490" r="5" fill="green" stroke="none" /><circle cx="4619" cy="518" r="5" fill="green" stroke="none" /><circle cx="5006" cy="3844" r="5" fill="green" stroke="none" /><circle cx="2249" cy="1771" r="5" fill="green" stroke="none" /><circle cx="5572" cy="4191" r="5" fill="green" stroke="none" /><circle cx="3986" cy="5057" r="5" fill="green" stroke="none" /><circle cx="2494" cy="6123" r="5" fill="green" stroke="none" /><circle cx="5519" cy="5460" r="5" fill="green" stroke="none" /><circle cx="129" cy="3111" r="5" fill="green" stroke="none" /><circle cx="4117" cy="4732" r="5" fill="green" stroke="none" /><circle cx="2141" cy="1354" r="5" fill="green" stroke="none" /><circle cx="5182" cy="6135" r="5" fill="green" stroke="none" /><circle cx="401" cy="3226" r="5" fill="green" stroke="none" /><circle cx="355" cy="309" r="5" fill="green" stroke="none" /><circle cx="5441" cy="2766" r="5" fill="green" stroke="none" /><circle cx="4127" cy="5678" r="5" fill="green" stroke="none" /><circle cx="1233" cy="4776" r="5" fill="green" stroke="none" /><circle cx="4372" cy="3337" r="5" fill="green" stroke="none" /><circle cx="3747" cy="615" r="5" fill="green" stroke="none" /><circle cx="1383" cy="1951" r="5" fill="green" stroke="none" /><circle cx="1095" cy="1976" r="5" fill="green" stroke="none" /><circle cx="1625" cy="117" r="5" fill="green" stroke="none" /><circle cx="4933" cy="1128" r="5" fill="green" stroke="none" /><circle cx="5156" cy="1990" r="5" fill="green" stroke="none" /><circle cx="5217" cy="2444" r="5" fill="green" stroke="none" /><circle cx="1011" cy="2168" r="5" fill="green" stroke="none" /><circle cx="237" cy="182" r="5" fill="green" stroke="none" /><circle cx="2910" cy="5579" r="5" fill="green" stroke="none" /><circle cx="238" cy="2163" r="5" fill="green" stroke="none" /><circle cx="4420" cy="6236" r="5" fill="green" stroke="none" /><circle cx="3522" cy="2682" r="5" fill="green" stroke="none" /><circle cx="5274" cy="208" r="5" fill="green" stroke="none" /><circle cx="821" cy="6317" r="5" fill="green" stroke="none" /><circle cx="3650" cy="4435" r="5" fill="green" stroke="none" /><circle cx="883" cy="5287" r="5" fill="green" stroke="none" /><circle cx="4583" cy="412" r="5" fill="green" stroke="none" /><circle cx="3356" cy="6053" r="5" fill="green" stroke="none" /><circle cx="2461" cy="2337" r="5" fill="green" stroke="none" /><circle cx="4371" cy="1210" r="5" fill="green" stroke="none" /><circle cx="3877" cy="3280" r="5" fill="green" stroke="none" /><circle cx="5249" cy="2088" r="5" fill="green" stroke="none" /><circle cx="625" cy="5659" r="5" fill="green" stroke="none" /><circle cx="1110" cy="5088" r="5" fill="green" stroke="none" /><circle cx="4615" cy="455" r="5" fill="green" stroke="none" /><circle cx="408" cy="2909" r="5" fill="green" stroke="none" /><circle cx="3765" cy="3308" r="5" fill="green" stroke="none" /><circle cx="5110" cy="3206" r="5" fill="green" stroke="none" /><circle cx="2124" cy="4103" r="5" fill="green" stroke="none" /><circle cx="717" cy="1102" r="5" fill="green" stroke="none" /><circle cx="3618" cy="4548" r="5" fill="green" stroke="none" /><circle cx="4005" cy="502" r="5" fill="green" stroke="none" /><circle cx="3292" cy="5617" r="5" fill="green" stroke="none" /><circle cx="3094" cy="4321" r="5" fill="green" stroke="none" /><circle cx="4882" cy="3218" r="5" fill="green" stroke="none" /><circle cx="521" cy="1812" r="5" fill="green" stroke="none" /><circle cx="2350" cy="3156" r="5" fill="green" stroke="none" /><circle cx="2790" cy="4458" r="5" fill="green" stroke="none" /><circle cx="2360" cy="1875" r="5" fill="green" stroke="none" /><circle cx="4233" cy="1794" r="5" fill="green" stroke="none" /><circle cx="3035" cy="1916" r="5" fill="green" stroke="none" /><circle cx="751" cy="2605" r="5" fill="green" stroke="none" /><circle cx="1820" cy="2792" r="5" fill="green" stroke="none" /><circle cx="4589" cy="2012" r="5" fill="green" stroke="none" /><circle cx="843" cy="5585" r="5" fill="green" stroke="none" /><circle cx="3185" cy="409" r="5" fill="green" stroke="none" /><circle cx="2923" cy="1772" r="5" fill="green" stroke="none" /><circle cx="3757" cy="5203" r="5" fill="green" stroke="none" /><circle cx="262" cy="4717" r="5" fill="green" stroke="none" /><circle cx="1438" cy="6317" r="5" fill="green" stroke="none" /><circle cx="5011" cy="2035" r="5" fill="green" stroke="none" /><circle cx="2270" cy="3850" r="5" fill="green" stroke="none" /><circle cx="180" cy="2572" r="5" fill="green" stroke="none" /><circle cx="3464" cy="4865" r="5" fill="green" stroke="none" /><circle cx="136" cy="5732" r="5" fill="green" stroke="none" /><circle cx="4195" cy="5397" r="5" fill="green" stroke="none" /><circle cx="2195" cy="6073" r="5" fill="green" stroke="none" /><circle cx="3110" cy="1780" r="5" fill="green" stroke="none" /><circle cx="222" cy="6113" r="5" fill="green" stroke="none" /><circle cx="4785" cy="4461" r="5" fill="green" stroke="none" /><circle cx="132" cy="1845" r="5" fill="green" stroke="none" /><circle cx="291" cy="356" r="5" fill="green" stroke="none" /><circle cx="5045" cy="1176" r="5" fill="green" stroke="none" /><circle cx="2998" cy="198" r="5" fill="green" stroke="none" /><circle cx="4461" cy="6154" r="5" fill="green" stroke="none" /><circle cx="5372" cy="4652" r="5" fill="green" stroke="none" /><circle cx="5087" cy="1033" r="5" fill="green" stroke="none" /><circle cx="884" cy="3460" r="5" fill="green" stroke="none" /><circle cx="3610" cy="5291" r="5" fill="green" stroke="none" /><circle cx="1042" cy="1932" r="5" fill="green" stroke="none" /><circle cx="685" cy="170" r="5" fill="green" stroke="none" /><circle cx="5222" cy="3156" r="5" fill="green" stroke="none" /><circle cx="4515" cy="4538" r="5" fill="green" stroke="none" /><circle cx="3855" cy="1745" r="5" fill="green" stroke="none" /><circle cx="4327" cy="3367" r="5" fill="green" stroke="none" /><circle cx="5031" cy="5645" r="5" fill="green" stroke="none" /><circle cx="2808" cy="3015" r="5" fill="green" stroke="none" /><circle cx="1765" cy="4772" r="5" fill="green" stroke="none" /><circle cx="4476" cy="3259" r="5" fill="green" stroke="none" /><circle cx="3344" cy="6094" r="5" fill="green" stroke="none" /><circle cx="559" cy="452" r="5" fill="green" stroke="none" /><circle cx="4044" cy="3770" r="5" fill="green" stroke="none" /><circle cx="2208" cy="2972" r="5" fill="green" stroke="none" /><circle cx="4887" cy="4496" r="5" fill="green" stroke="none" /><circle cx="2397" cy="2402" r="5" fill="green" stroke="none" /><circle cx="3928" cy="253" r="5" fill="green" stroke="none" /><circle cx="730" cy="4880" r="5" fill="green" stroke="none" /><circle cx="2911" cy="5369" r="5" fill="green" stroke="none" /><circle cx="510" cy="5090" r="5" fill="green" stroke="none" /><circle cx="4937" cy="3911" r="5" fill="green" stroke="none" /><circle cx="815" cy="2534" r="5" fill="green" stroke="none" /><circle cx="3931" cy="302" r="5" fill="green" stroke="none" /><circle cx="3863" cy="3015" r="5" fill="green" stroke="none" /><circle cx="2616" cy="1024" r="5" fill="green" stroke="none" /><circle cx="1287" cy="635" r="5" fill="green" stroke="none" /><circle cx="4717" cy="4891" r="5" fill="green" stroke="none" /><circle cx="3223" cy="5880" r="5" fill="green" stroke="none" /><circle cx="216" cy="5101" r="5" fill="green" stroke="none" /><circle cx="3783" cy="5560" r="5" fill="green" stroke="none" /><circle cx="5007" cy="3799" r="5" fill="green" stroke="none" /><circle cx="4022" cy="3131" r="5" fill="green" stroke="none" /><circle cx="5575" cy="2606" r="5" fill="green" stroke="none" /><circle cx="3022" cy="2833" r="5" fill="green" stroke="none" /><circle cx="1230" cy="4454" r="5" fill="green" stroke="none" /><circle cx="5309" cy="3739" r="5" fill="green" stroke="none" /><circle cx="1512" cy="2777" r="5" fill="green" stroke="none" /><circle cx="4494" cy="808" r="5" fill="green" stroke="none" /><circle cx="2136" cy="2623" r="5" fill="green" stroke="none" /><circle cx="1716" cy="2337" r="5" fill="green" stroke="none" /><circle cx="239" cy="5957" r="5" fill="green" stroke="none" /><circle cx="3753" cy="5254" r="5" fill="green" stroke="none" /><circle cx="1297" cy="2502" r="5" fill="green" stroke="none" /><circle cx="5549" cy="918" r="5" fill="green" stroke="none" /><circle cx="3899" cy="4453" r="5" fill="green" stroke="none" /><circle cx="4940" cy="517" r="5" fill="green" stroke="none" /><circle cx="1537" cy="3721" r="5" fill="green" stroke="none" /><circle cx="2836" cy="2080" r="5" fill="green" stroke="none" /><circle cx="1422" cy="4199" r="5" fill="green" stroke="none" /><circle cx="2863" cy="2808" r="5" fill="green" stroke="none" /><circle cx="1159" cy="328" r="5" fill="green" stroke="none" /><circle cx="3080" cy="1760" r="5" fill="green" stroke="none" /><circle cx="753" cy="3062" r="5" fill="green" stroke="none" /><circle cx="1914" cy="1439" r="5" fill="green" stroke="none" /><circle cx="3174" cy="1239" r="5" fill="green" stroke="none" /><circle cx="998" cy="6271" r="5" fill="green" stroke="none" /><circle cx="4622" cy="6107" r="5" fill="green" stroke="none" /><circle cx="969" cy="1385" r="5" fill="green" stroke="none" /><circle cx="1979" cy="871" r="5" fill="green" stroke="none" /><circle cx="1644" cy="1946" r="5" fill="green" stroke="none" /><circle cx="2877" cy="6201" r="5" fill="green" stroke="none" /><circle cx="1651" cy="1110" r="5" fill="green" stroke="none" /><circle cx="4437" cy="1929" r="5" fill="green" stroke="none" /><circle cx="4933" cy="2774" r="5" fill="green" stroke="none" /><circle cx="716" cy="2938" r="5" fill="green" stroke="none" /><circle cx="1849" cy="3487" r="5" fill="green" stroke="none" /><circle cx="4207" cy="538" r="5" fill="green" stroke="none" /><circle cx="88" cy="3435" r="5" fill="green" stroke="none" /><circle cx="4911" cy="2219" r="5" fill="green" stroke="none" /><circle cx="4394" cy="5240" r="5" fill="green" stroke="none" /><circle cx="3282" cy="5298" r="5" fill="green" stroke="none" /><circle cx="4226" cy="4056" r="5" fill="green" stroke="none" /><circle cx="5497" cy="6242" r="5" fill="green" stroke="none" /><circle cx="3949" cy="3830" r="5" fill="green" stroke="none" /><circle cx="2759" cy="115" r="5" fill="green" stroke="none" /><circle cx="5475" cy="744" r="5" fill="green" stroke="none" /><circle cx="101" cy="2829" r="5" fill="green" stroke="none" /><circle cx="2324" cy="3339" r="5" fill="green" stroke="none" /><circle cx="393" cy="3660" r="5" fill="green" stroke="none" /><circle cx="413" cy="2336" r="5" fill="green" stroke="none" /><circle cx="3567" cy="434" r="5" fill="green" stroke="none" /><circle cx="1920" cy="2706" r="5" fill="green" stroke="none" /><circle cx="127" cy="5320" r="5" fill="green" stroke="none" /><circle cx="5043" cy="6165" r="5" fill="green" stroke="none" /><circle cx="4389" cy="4289" r="5" fill="green" stroke="none" /><circle cx="3061" cy="5845" r="5" fill="green" stroke="none" /><circle cx="1694" cy="4473" r="5" fill="green" stroke="none" /><circle cx="2552" cy="3130" r="5" fill="green" stroke="none" /><circle cx="3610" cy="5184" r="5" fill="green" stroke="none" /><circle cx="2442" cy="623" r="5" fill="green" stroke="none" /><circle cx="2323" cy="4130" r="5" fill="green" stroke="none" /><circle cx="3468" cy="4327" r="5" fill="green" stroke="none" /><circle cx="4197" cy="2726" r="5" fill="green" stroke="none" /><circle cx="2537" cy="2418" r="5" fill="green" stroke="none" /><circle cx="5073" cy="1832" r="5" fill="green" stroke="none" /><circle cx="2901" cy="2525" r="5" fill="green" stroke="none" /><circle cx="909" cy="3422" r="5" fill="green" stroke="none" /><circle cx="1985" cy="4617" r="5" fill="green" stroke="none" /><circle cx="3682" cy="2878" r="5" fill="green" stroke="none" /><circle cx="776" cy="1889" r="5" fill="green" stroke="none" /><circle cx="2635" cy="4373" r="5" fill="green" stroke="none" /><circle cx="680" cy="6028" r="5" fill="green" stroke="none" /><circle cx="3241" cy="5917" r="5" fill="green" stroke="none" /><circle cx="3528" cy="1031" r="5" fill="green" stroke="none" /><circle cx="2111" cy="3386" r="5" fill="green" stroke="none" /><circle cx="204" cy="3060" r="5" fill="green" stroke="none" /><circle cx="3411" cy="1882" r="5" fill="green" stroke="none" /><circle cx="4755" cy="4354" r="5" fill="green" stroke="none" /><circle cx="4658" cy="5941" r="5" fill="green" stroke="none" /><circle cx="3756" cy="1357" r="5" fill="green" stroke="none" /><circle cx="5227" cy="1417" r="5" fill="green" stroke="none" /><circle cx="5494" cy="1123" r="5" fill="green" stroke="none" /><circle cx="4905" cy="3617" r="5" fill="green" stroke="none" /><circle cx="3659" cy="5856" r="5" fill="green" stroke="none" /><circle cx="1176" cy="6184" r="5" fill="green" stroke="none" /><circle cx="3917" cy="5343" r="5" fill="green" stroke="none" /><circle cx="1186" cy="2297" r="5" fill="green" stroke="none" /><circle cx="4363" cy="1011" r="5" fill="green" stroke="none" /><circle cx="2465" cy="3961" r="5" fill="green" stroke="none" /><circle cx="3653" cy="2379" r="5" fill="green" stroke="none" /><circle cx="4001" cy="3922" r="5" fill="green" stroke="none" /><circle cx="406" cy="600" r="5" fill="green" stroke="none" /><circle cx="1211" cy="1769" r="5" fill="green" stroke="none" /><circle cx="1529" cy="1136" r="5" fill="green" stroke="none" /><circle cx="3039" cy="511" r="5" fill="green" stroke="none" /><circle cx="5243" cy="2926" r="5" fill="green" stroke="none" /><circle cx="5242" cy="5804" r="5" fill="green" stroke="none" /><circle cx="659" cy="945" r="5" fill="green" stroke="none" /><circle cx="623" cy="2401" r="5" fill="green" stroke="none" /><circle cx="4551" cy="1917" r="5" fill="green" stroke="none" /><circle cx="4138" cy="2272" r="5" fill="green" stroke="none" /><circle cx="1321" cy="3324" r="5" fill="green" stroke="none" /><circle cx="1946" cy="3860" r="5" fill="green" stroke="none" /><circle cx="1211" cy="6133" r="5" fill="green" stroke="none" /><circle cx="216" cy="3497" r="5" fill="green" stroke="none" /><circle cx="908" cy="4531" r="5" fill="green" stroke="none" /><circle cx="4001" cy="6046" r="5" fill="green" stroke="none" /><circle cx="783" cy="183" r="5" fill="green" stroke="none" /><circle cx="460" cy="526" r="5" fill="green" stroke="none" /><circle cx="3884" cy="1731" r="5" fill="green" stroke="none" /><circle cx="5212" cy="3365" r="5" fill="green" stroke="none" /><circle cx="3090" cy="4244" r="5" fill="green" stroke="none" /><circle cx="1718" cy="2220" r="5" fill="green" stroke="none" /><circle cx="3306" cy="3575" r="5" fill="green" stroke="none" /><circle cx="1095" cy="5613" r="5" fill="green" stroke="none" /><circle cx="963" cy="1630" r="5" fill="green" stroke="none" /><circle cx="997" cy="1687" r="5" fill="green" stroke="none" /><circle cx="5444" cy="6191" r="5" fill="green" stroke="none" /><circle cx="492" cy="1270" r="5" fill="green" stroke="none" /><circle cx="3799" cy="6014" r="5" fill="green" stroke="none" /><circle cx="2430" cy="6354" r="5" fill="green" stroke="none" /><circle cx="4801" cy="1094" r="5" fill="green" stroke="none" /><circle cx="1600" cy="138" r="5" fill="green" stroke="none" /><circle cx="4461" cy="1013" r="5" fill="green" stroke="none" /><circle cx="1518" cy="1944" r="5" fill="green" stroke="none" /><circle cx="3915" cy="2835" r="5" fill="green" stroke="none" /><circle cx="5225" cy="461" r="5" fill="green" stroke="none" /><circle cx="4423" cy="2136" r="5" fill="green" stroke="none" /><circle cx="5415" cy="15" r="5" fill="green" stroke="none" /><circle cx="4674" cy="3938" r="5" fill="green" stroke="none" /><circle cx="1262" cy="1064" r="5" fill="green" stroke="none" /><circle cx="2614" cy="277" r="5" fill="green" stroke="none" /><circle cx="4650" cy="5765" r="5" fill="green" stroke="none" /><circle cx="5021" cy="372" r="5" fill="green" stroke="none" /><circle cx="4926" cy="1211" r="5" fill="green" stroke="none" /><circle cx="1976" cy="6351" r="5" fill="green" stroke="none" /><circle cx="4307" cy="611" r="5" fill="green" stroke="none" /><circle cx="4692" cy="2272" r="5" fill="green" stroke="none" /><circle cx="4317" cy="4549" r="5" fill="green" stroke="none" /><circle cx="4441" cy="3298" r="5" fill="green" stroke="none" /><circle cx="884" cy="4354" r="5" fill="green" stroke="none" /><circle cx="4460" cy="1661" r="5" fill="green" stroke="none" /><circle cx="859" cy="2086" r="5" fill="green" stroke="none" /><circle cx="1833" cy="149" r="5" fill="green" stroke="none" /><circle cx="714" cy="191" r="5" fill="green" stroke="none" /><circle cx="5409" cy="3565" r="5" fill="green" stroke="none" /><circle cx="1098" cy="4714" r="5" fill="green" stroke="none" /><circle cx="2991" cy="1376" r="5" fill="green" stroke="none" /><circle cx="3995" cy="3018" r="5" fill="green" stroke="none" /><circle cx="4430" cy="3320" r="5" fill="green" stroke="none" /><circle cx="1049" cy="5808" r="5" fill="green" stroke="none" /><circle cx="3224" cy="5580" r="5" fill="green" stroke="none" /><circle cx="5308" cy="1126" r="5" fill="green" stroke="none" /><circle cx="3510" cy="2638" r="5" fill="green" stroke="none" /><circle cx="1194" cy="2023" r="5" fill="green" stroke="none" /><circle cx="4935" cy="2702" r="5" fill="green" stroke="none" /><circle cx="1562" cy="2557" r="5" fill="green" stroke="none" /><circle cx="497" cy="3009" r="5" fill="green" stroke="none" /><circle cx="1844" cy="2333" r="5" fill="green" stroke="none" /><circle cx="5552" cy="1214" r="5" fill="green" stroke="none" /><circle cx="2150" cy="4640" r="5" fill="green" stroke="none" /><circle cx="1014" cy="3859" r="5" fill="green" stroke="none" /><circle cx="1673" cy="780" r="5" fill="green" stroke="none" /><circle cx="1898" cy="4123" r="5" fill="green" stroke="none" /><circle cx="1835" cy="1636" r="5" fill="green" stroke="none" /><circle cx="1338" cy="372" r="5" fill="green" stroke="none" /><circle cx="5346" cy="131" r="5" fill="green" stroke="none" /><circle cx="3973" cy="4788" r="5" fill="green" stroke="none" /><circle cx="3530" cy="5874" r="5" fill="green" stroke="none" /><circle cx="179" cy="317" r="5" fill="green" stroke="none" /><circle cx="1693" cy="1550" r="5" fill="green" stroke="none" /><circle cx="1752" cy="234" r="5" fill="green" stroke="none" /><circle cx="245" cy="1785" r="5" fill="green" stroke="none" /><circle cx="5280" cy="3672" r="5" fill="green" stroke="none" /><circle cx="1370" cy="3972" r="5" fill="green" stroke="none" /><circle cx="1598" cy="1006" r="5" fill="green" stroke="none" /><circle cx="3483" cy="4962" r="5" fill="green" stroke="none" /><circle cx="1642" cy="180" r="5" fill="green" stroke="none" /><circle cx="2212" cy="757" r="5" fill="green" stroke="none" /><circle cx="5481" cy="4789" r="5" fill="green" stroke="none" /><circle cx="360" cy="4240" r="5" fill="green" stroke="none" /><circle cx="3319" cy="1452" r="5" fill="green" stroke="none" /><circle cx="2418" cy="3740" r="5" fill="green" stroke="none" /><circle cx="3661" cy="6150" r="5" fill="green" stroke="none" /><circle cx="2877" cy="3461" r="5" fill="green" stroke="none" /><circle cx="1303" cy="2911" r="5" fill="green" stroke="none" /><circle cx="4724" cy="2475" r="5" fill="green" stroke="none" /><circle cx="216" cy="6012" r="5" fill="green" stroke="none" /><circle cx="3595" cy="4185" r="5" fill="green" stroke="none" /><circle cx="1817" cy="1016" r="5" fill="green" stroke="none" /><circle cx="2547" cy="608" r="5" fill="green" stroke="none" /><circle cx="2236" cy="2487" r="5" fill="green" stroke="none" /><circle cx="4659" cy="800" r="5" fill="green" stroke="none" /><circle cx="4381" cy="1125" r="5" fill="green" stroke="none" /><circle cx="5358" cy="1450" r="5" fill="green" stroke="none" /><circle cx="2404" cy="1895" r="5" fill="green" stroke="none" /><circle cx="5314" cy="3192" r="5" fill="green" stroke="none" /><circle cx="5161" cy="4773" r="5" fill="green" stroke="none" /><circle cx="3163" cy="947" r="5" fill="green" stroke="none" /><circle cx="612" cy="941" r="5" fill="green" stroke="none" /><circle cx="395" cy="2883" r="5" fill="green" stroke="none" /><circle cx="133" cy="2557" r="5" fill="green" stroke="none" /><circle cx="3526" cy="5080" r="5" fill="green" stroke="none" /><circle cx="855" cy="2510" r="5" fill="green" stroke="none" /><circle cx="1174" cy="194" r="5" fill="green" stroke="none" /><circle cx="5430" cy="4294" r="5" fill="green" stroke="none" /><circle cx="4168" cy="6090" r="5" fill="green" stroke="none" /><circle cx="5376" cy="3577" r="5" fill="green" stroke="none" /><circle cx="415" cy="5382" r="5" fill="green" stroke="none" /><circle cx="3288" cy="2079" r="5" fill="green" stroke="none" /><circle cx="2804" cy="188" r="5" fill="green" stroke="none" /><circle cx="2267" cy="3174" r="5" fill="green" stroke="none" /><circle cx="1265" cy="743" r="5" fill="green" stroke="none" /><circle cx="4529" cy="3185" r="5" fill="green" stroke="none" /><circle cx="1400" cy="3596" r="5" fill="green" stroke="none" /><circle cx="3580" cy="1488" r="5" fill="green" stroke="none" /><circle cx="4285" cy="3413" r="5" fill="green" stroke="none" /><circle cx="1647" cy="4292" r="5" fill="green" stroke="none" /><circle cx="4441" cy="5009" r="5" fill="green" stroke="none" /><circle cx="4929" cy="1410" r="5" fill="green" stroke="none" /><circle cx="2933" cy="770" r="5" fill="green" stroke="none" /><circle cx="3805" cy="3178" r="5" fill="green" stroke="none" /><circle cx="5282" cy="5727" r="5" fill="green" stroke="none" /><circle cx="251" cy="4202" r="5" fill="green" stroke="none" /><circle cx="509" cy="3426" r="5" fill="green" stroke="none" /><circle cx="4956" cy="4094" r="5" fill="green" stroke="none" /><circle cx="1352" cy="2710" r="5" fill="green" stroke="none" /><circle cx="4756" cy="3136" r="5" fill="green" stroke="none" /><circle cx="1528" cy="14" r="5" fill="green" stroke="none" /><circle cx="3496" cy="4993" r="5" fill="green" stroke="none" /><circle cx="4319" cy="2676" r="5" fill="green" stroke="none" /><circle cx="540" cy="2433" r="5" fill="green" stroke="none" /><circle cx="3132" cy="5285" r="5" fill="green" stroke="none" /><circle cx="2678" cy="394" r="5" fill="green" stroke="none" /><circle cx="4669" cy="985" r="5" fill="green" stroke="none" /><circle cx="1400" cy="1022" r="5" fill="green" stroke="none" /><circle cx="683" cy="3962" r="5" fill="green" stroke="none" /><circle cx="3186" cy="4218" r="5" fill="green" stroke="none" /><circle cx="4338" cy="4806" r="5" fill="green" stroke="none" /><circle cx="5119" cy="4354" r="5" fill="green" stroke="none" /><circle cx="2337" cy="2256" r="5" fill="green" stroke="none" /><circle cx="3542" cy="2115" r="5" fill="green" stroke="none" /><circle cx="1197" cy="678" r="5" fill="green" stroke="none" /><circle cx="2408" cy="6197" r="5" fill="green" stroke="none" /><circle cx="4868" cy="5306" r="5" fill="green" stroke="none" /><circle cx="3085" cy="3938" r="5" fill="green" stroke="none" /><circle cx="4621" cy="4842" r="5" fill="green" stroke="none" /><circle cx="3605" cy="4159" r="5" fill="green" stroke="none" /><circle cx="3856" cy="700" r="5" fill="green" stroke="none" /><circle cx="456" cy="3302" r="5" fill="green" stroke="none" /><circle cx="1178" cy="3566" r="5" fill="green" stroke="none" /><circle cx="356" cy="4960" r="5" fill="green" stroke="none" /><circle cx="5128" cy="60" r="5" fill="green" stroke="none" /><circle cx="1816" cy="1615" r="5" fill="green" stroke="none" /><circle cx="3992" cy="4273" r="5" fill="green" stroke="none" /><circle cx="5511" cy="496" r="5" fill="green" stroke="none" /><circle cx="5194" cy="5950" r="5" fill="green" stroke="none" /><circle cx="2352" cy="4504" r="5" fill="green" stroke="none" /><circle cx="1121" cy="4498" r="5" fill="green" stroke="none" /><circle cx="2104" cy="4815" r="5" fill="green" stroke="none" /><circle cx="1475" cy="4790" r="5" fill="green" stroke="none" /><circle cx="3620" cy="4727" r="5" fill="green" stroke="none" /><circle cx="2675" cy="3224" r="5" fill="green" stroke="none" /><circle cx="741" cy="1031" r="5" fill="green" stroke="none" /><circle cx="2319" cy="3704" r="5" fill="green" stroke="none" /><circle cx="343" cy="2090" r="5" fill="green" stroke="none" /><circle cx="2867" cy="735" r="5" fill="green" stroke="none" /><circle cx="969" cy="1151" r="5" fill="green" stroke="none" /><circle cx="2305" cy="4011" r="5" fill="green" stroke="none" /><circle cx="296" cy="388" r="5" fill="green" stroke="none" /><circle cx="173" cy="5417" r="5" fill="green" stroke="none" /><circle cx="2250" cy="3902" r="5" fill="green" stroke="none" /><circle cx="3469" cy="4409" r="5" fill="green" stroke="none" /><circle cx="4158" cy="3283" r="5" fill="green" stroke="none" /><circle cx="4352" cy="4041" r="5" fill="green" stroke="none" /><circle cx="4688" cy="3776" r="5" fill="green" stroke="none" /><circle cx="5019" cy="1182" r="5" fill="green" stroke="none" /><circle cx="2773" cy="4688" r="5" fill="green" stroke="none" /><circle cx="1407" cy="1920" r="5" fill="green" stroke="none" /><circle cx="686" cy="2751" r="5" fill="green" stroke="none" /><circle cx="5180" cy="3190" r="5" fill="green" stroke="none" /><circle cx="848" cy="2005" r="5" fill="green" stroke="none" /><circle cx="1267" cy="4415" r="5" fill="green" stroke="none" /><circle cx="3083" cy="6161" r="5" fill="green" stroke="none" /><circle cx="2117" cy="2692" r="5" fill="green" stroke="none" /><circle cx="2268" cy="1856" r="5" fill="green" stroke="none" /><circle cx="5352" cy="5147" r="5" fill="green" stroke="none" /><circle cx="2375" cy="4567" r="5" fill="green" stroke="none" /><circle cx="2084" cy="4634" r="5" fill="green" stroke="none" /><circle cx="3828" cy="4800" r="5" fill="green" stroke="none" /><circle cx="1150" cy="3945" r="5" fill="green" stroke="none" /><circle cx="1911" cy="6136" r="5" fill="green" stroke="none" /><circle cx="3650" cy="5098" r="5" fill="green" stroke="none" /><circle cx="3508" cy="2494" r="5" fill="green" stroke="none" /><circle cx="3109" cy="4003" r="5" fill="green" stroke="none" /><circle cx="3628" cy="1067" r="5" fill="green" stroke="none" /><circle cx="4213" cy="3762" r="5" fill="green" stroke="none" /><circle cx="906" cy="4175" r="5" fill="green" stroke="none" /><circle cx="80" cy="1926" r="5" fill="green" stroke="none" /><circle cx="218" cy="1104" r="5" fill="green" stroke="none" /><circle cx="174" cy="646" r="5" fill="green" stroke="none" /><circle cx="3593" cy="1907" r="5" fill="green" stroke="none" /><circle cx="742" cy="1887" r="5" fill="green" stroke="none" /><circle cx="3263" cy="5758" r="5" fill="green" stroke="none" /><circle cx="1907" cy="1491" r="5" fill="green" stroke="none" /><circle cx="4100" cy="2230" r="5" fill="green" stroke="none" /><circle cx="929" cy="2742" r="5" fill="green" stroke="none" /><circle cx="145" cy="2866" r="5" fill="green" stroke="none" /><circle cx="4140" cy="5350" r="5" fill="green" stroke="none" /><circle cx="236" cy="3963" r="5" fill="green" stroke="none" /><circle cx="487" cy="3730" r="5" fill="green" stroke="none" /><circle cx="3320" cy="4860" r="5" fill="green" stroke="none" /><circle cx="2417" cy="3732" r="5" fill="green" stroke="none" /><circle cx="3868" cy="5499" r="5" fill="green" stroke="none" /><circle cx="2429" cy="1333" r="5" fill="green" stroke="none" /><circle cx="5451" cy="2378" r="5" fill="green" stroke="none" /><circle cx="4181" cy="1268" r="5" fill="green" stroke="none" /><circle cx="3446" cy="5697" r="5" fill="green" stroke="none" /><circle cx="4100" cy="3127" r="5" fill="green" stroke="none" /><circle cx="982" cy="5907" r="5" fill="green" stroke="none" /><circle cx="414" cy="4877" r="5" fill="green" stroke="none" /><circle cx="5448" cy="4601" r="5" fill="green" stroke="none" /><circle cx="715" cy="3458" r="5" fill="green" stroke="none" /><circle cx="534" cy="6219" r="5" fill="green" stroke="none" /><circle cx="5545" cy="6007" r="5" fill="green" stroke="none" /><circle cx="4529" cy="1211" r="5" fill="green" stroke="none" /><circle cx="711" cy="1573" r="5" fill="green" stroke="none" /><circle cx="189" cy="401" r="5" fill="green" stroke="none" /><circle cx="501" cy="5665" r="5" fill="green" stroke="none" /><circle cx="3253" cy="6187" r="5" fill="green" stroke="none" /><circle cx="15" cy="5266" r="5" fill="green" stroke="none" /><circle cx="4627" cy="4775" r="6" fill="red" stroke="none" /><circle cx="3098" cy="2234" r="78" fill="red" stroke="none" /><circle cx="3048" cy="2001" r="77" fill="red" stroke="none" /><circle cx="1852" cy="3627" r="25" fill="red" stroke="none" /><circle cx="291" cy="2094" r="30" fill="red" stroke="none" /><circle cx="3954" cy="5420" r="47" fill="red" stroke="none" /><circle cx="1615" cy="3244" r="57" fill="red" stroke="none" /><circle cx="4215" cy="3366" r="79" fill="red" stroke="none" /><circle cx="2857" cy="3868" r="51" fill="red" stroke="none" /><circle cx="5433" cy="6254" r="16" fill="red" stroke="none" /><circle cx="860" cy="1315" r="76" fill="red" stroke="none" /><circle cx="3281" cy="5076" r="61" fill="red" stroke="none" /><circle cx="875" cy="5188" r="11" fill="red" stroke="none" /><circle cx="3738" cy="2219" r="42" fill="red" stroke="none" /><circle cx="1553" cy="39" r="7" fill="red" stroke="none" /><circle cx="3545" cy="1979" r="80" fill="red" stroke="none" /><circle cx="3548" cy="3530" r="77" fill="red" stroke="none" /><circle cx="1971" cy="1744" r="60" fill="red" stroke="none" /><circle cx="647" cy="604" r="69" fill="red" stroke="none" /><circle cx="3819" cy="5238" r="33" fill="red" stroke="none" /><circle cx="5505" cy="1420" r="72" fill="red" stroke="none" /><circle cx="1466" cy="3380" r="55" fill="red" stroke="none" /><circle cx="3995" cy="2895" r="57" fill="red" stroke="none" /><circle cx="2385" cy="541" r="16" fill="red" stroke="none" /><circle cx="1949" cy="408" r="45" fill="red" stroke="none" /><circle cx="2288" cy="2202" r="51" fill="red" stroke="none" /><circle cx="4664" cy="5423" r="46" fill="red" stroke="none" /><circle cx="488" cy="317" r="34" fill="red" stroke="none" /><circle cx="2473" cy="1609" r="84" fill="red" stroke="none" /><circle cx="2987" cy="4281" r="32" fill="red" stroke="none" /><circle cx="360" cy="1930" r="23" fill="red" stroke="none" /><circle cx="2662" cy="2177" r="22" fill="red" stroke="none" /><circle cx="3265" cy="3361" r="11" fill="red" stroke="none" /><circle cx="230" cy="5318" r="5" fill="red" stroke="none" /><circle cx="1459" cy="1754" r="80" fill="red" stroke="none" /><circle cx="1552" cy="2731" r="23" fill="red" stroke="none" /><circle cx="3240" cy="6240" r="44" fill="red" stroke="none" /><circle cx="2827" cy="196" r="6" fill="red" stroke="none" /><circle cx="1069" cy="1219" r="53" fill="red" stroke="none" /><circle cx="4037" cy="4529" r="62" fill="red" stroke="none" /><circle cx="4774" cy="193" r="68" fill="red" stroke="none" /><circle cx="3210" cy="4428" r="38" fill="red" stroke="none" /><circle cx="4130" cy="5230" r="20" fill="red" stroke="none" /><circle cx="4431" cy="750" r="81" fill="red" stroke="none" /><circle cx="1333" cy="4226" r="24" fill="red" stroke="none" /><circle cx="3479" cy="5404" r="8" fill="red" stroke="none" /><circle cx="2256" cy="2875" r="17" fill="red" stroke="none" /><circle cx="3924" cy="968" r="79" fill="red" stroke="none" /><circle cx="4758" cy="3775" r="45" fill="red" stroke="none" /><circle cx="1543" cy="6239" r="76" fill="red" stroke="none" /><circle cx="3545" cy="3578" r="36" fill="red" stroke="none" /><circle cx="3665" cy="66" r="35" fill="red" stroke="none" /><circle cx="2998" cy="599" r="53" fill="red" stroke="none" /><circle cx="1278" cy="2581" r="39" fill="red" stroke="none" /><circle cx="3602" cy="1769" r="40" fill="red" stroke="none" /><circle cx="3809" cy="1404" r="8" fill="red" stroke="none" /><circle cx="2852" cy="921" r="83" fill="red" stroke="none" /><circle cx="4014" cy="41" r="16" fill="red" stroke="none" /><circle cx="3972" cy="5172" r="44" fill="red" stroke="none" /><circle cx="1263" cy="501" r="48" fill="red" stroke="none" /><circle cx="4427" cy="2201" r="59" fill="red" stroke="none" /><circle cx="529" cy="6088" r="17" fill="red" stroke="none" /><circle cx="2379" cy="3906" r="49" fill="red" stroke="none" /><circle cx="3016" cy="4703" r="66" fill="red" stroke="none" /><circle cx="4524" cy="951" r="35" fill="red" stroke="none" /><circle cx="711" cy="2017" r="24" fill="red" stroke="none" /><circle cx="5388" cy="985" r="49" fill="red" stroke="none" /><circle cx="3913" cy="6313" r="39" fill="red" stroke="none" /><circle cx="5513" cy="2715" r="59" fill="red" stroke="none" /><circle cx="949" cy="5463" r="9" fill="red" stroke="none" /><circle cx="2663" cy="690" r="71" fill="red" stroke="none" /><circle cx="3831" cy="3472" r="37" fill="red" stroke="none" /><circle cx="5450" cy="2176" r="51" fill="red" stroke="none" /><circle cx="3668" cy="1370" r="9" fill="red" stroke="none" /><circle cx="3506" cy="4122" r="15" fill="red" stroke="none" /><circle cx="3575" cy="2806" r="72" fill="red" stroke="none" /><circle cx="4105" cy="3660" r="68" fill="red" stroke="none" /><circle cx="1015" cy="331" r="5" fill="red" stroke="none" /></svg>