<svg viewBox="0 0 7244 9899" xmlns="http://www.w3.org/2000/svg"><rect x="0" y="0" width="7244" height="9899" fill="lightyellow" stroke="none "/><rect x="4878" y="2143" width="2172" height="2203" fill="white" stroke="black "/><circle cx="4125" cy="3219" r="5" fill="green" stroke="none" /><circle cx="5021" cy="2004" r="5" fill="green" stroke="none" /><circle cx="1988" cy="1949" r="5" fill="green" stroke="none" /><circle cx="1761" cy="3863" r="5" fill="green" stroke="none" /><circle cx="4284" cy="3043" r="5" fill="green" stroke="none" /><circle cx="1740" cy="6250" r="5" fill="green" stroke="none" /><circle cx="5768" cy="9117" r="5" fill="green" stroke="none" /><circle cx="3498" cy="1794" r="5" fill="green" stroke="none" /><circle cx="4992" cy="4495" r="5" fill="green" stroke="none" /><circle cx="254" cy="9458" r="5" fill="green" stroke="none" /><circle cx="4309" cy="861" r="5" fill="green" stroke="none" /><circle cx="3431" cy="462" r="5" fill="green" stroke="none" /><circle cx="6639" cy="8319" r="5" fill="green" stroke="none" /><circle cx="6888" cy="9549" r="5" fill="green" stroke="none" /><circle cx="2267" cy="8238" r="5" fill="green" stroke="none" /><circle cx="2707" cy="9147" r="5" fill="green" stroke="none" /><circle cx="2380" cy="4195" r="5" fill="green" stroke="none" /><circle cx="483" cy="3994" r="5" fill="green" stroke="none" /><circle cx="2681" cy="3521" r="5" fill="green" stroke="none" /><circle cx="3148" cy="7998" r="5" fill="green" stroke="none" /><circle cx="6572" cy="9766" r="5" fill="green" stroke="none" /><circle cx="124" cy="3890" r="5" fill="green" stroke="none" /><circle cx="2194" cy="3742" r="5" fill="green" stroke="none" /><circle cx="798" cy="5121" r="5" fill="green" stroke="none" /><circle cx="3485" cy="791" r="5" fill="green" stroke="none" /><circle cx="4478" cy="5826" r="5" fill="green" stroke="none" /><circle cx="2259" cy="2788" r="5" fill="green" stroke="none" /><circle cx="1607" cy="1436" r="5" fill="green" stroke="none" /><circle cx="1958" cy="2465" r="5" fill="green" stroke="none" /><circle cx="921" cy="3179" r="5" fill="green" stroke="none" /><circle cx="6444" cy="620" r="5" fill="green" stroke="none" /><circle cx="1451" cy="1609" r="5" fill="green" stroke="none" /><circle cx="3418" cy="8734" r="5" fill="green" stroke="none" /><circle cx="2495" cy="441" r="5" fill="green" stroke="none" /><circle cx="2426" cy="295" r="5" fill="green" stroke="none" /><circle cx="1543" cy="6530" r="5" fill="green" stroke="none" /><circle cx="6163" cy="8634" r="5" fill="green" stroke="none" /><circle cx="5505" cy="5704" r="5" fill="green" stroke="none" /><circle cx="5196" cy="1646" r="5" fill="green" stroke="none" /><circle cx="6257" cy="972" r="5" fill="green" stroke="none" /><circle cx="6863" cy="8960" r="5" fill="green" stroke="none" /><circle cx="1836" cy="1837" r="5" fill="green" stroke="none" /><circle cx="72" cy="3627" r="5" fill="green" stroke="none" /><circle cx="2210" cy="7524" r="5" fill="green" stroke="none" /><circle cx="1283" cy="4824" r="5" fill="green" stroke="none" /><circle cx="6104" cy="7766" r="5" fill="green" stroke="none" /><circle cx="6197" cy="4561" r="5" fill="green" stroke="none" /><circle cx="1483" cy="2414" r="5" fill="green" stroke="none" /><circle cx="5837" cy="4756" r="5" fill="green" stroke="none" /><circle cx="1277" cy="5936" r="5" fill="green" stroke="none" /><circle cx="4706" cy="5181" r="5" fill="green" stroke="none" /><circle cx="3990" cy="6041" r="5" fill="green" stroke="none" /><circle cx="176" cy="6762" r="5" fill="green" stroke="none" /><circle cx="232" cy="1832" r="5" fill="green" stroke="none" /><circle cx="3994" cy="4471" r="5" fill="green" stroke="none" /><circle cx="1845" cy="6070" r="5" fill="green" stroke="none" /><circle cx="7099" cy="8219" r="5" fill="green" stroke="none" /><circle cx="147" cy="2143" r="5" fill="green" stroke="none" /><circle cx="358" cy="8837" r="5" fill="green" stroke="none" /><circle cx="1435" cy="5046" r="5" fill="green" stroke="none" /><circle cx="5901" cy="930" r="5" fill="green" stroke="none" /><circle cx="3145" cy="368" r="5" fill="green" stroke="none" /><circle cx="4485" cy="3336" r="5" fill="green" stroke="none" /><circle cx="4693" cy="2740" r="5" fill="green" stroke="none" /><circle cx="3430" cy="6502" r="5" fill="green" stroke="none" /><circle cx="3835" cy="9006" r="5" fill="green" stroke="none" /><circle cx="4739" cy="58" r="5" fill="green" stroke="none" /><circle cx="5557" cy="337" r="5" fill="green" stroke="none" /><circle cx="5388" cy="5439" r="5" fill="green" stroke="none" /><circle cx="2743" cy="6100" r="5" fill="green" stroke="none" /><circle cx="55" cy="479" r="5" fill="green" stroke="none" /><circle cx="157" cy="1617" r="5" fill="green" stroke="none" /><circle cx="2430" cy="1302" r="5" fill="green" stroke="none" /><circle cx="2192" cy="2269" r="5" fill="green" stroke="none" /><circle cx="222" cy="2255" r="5" fill="green" stroke="none" /><circle cx="6795" cy="5762" r="5" fill="green" stroke="none" /><circle cx="1455" cy="1315" r="5" fill="green" stroke="none" /><circle cx="5832" cy="1661" r="5" fill="green" stroke="none" /><circle cx="4534" cy="6237" r="5" fill="green" stroke="none" /><circle cx="7071" cy="3040" r="5" fill="green" stroke="none" /><circle cx="1672" cy="14" r="5" fill="green" stroke="none" /><circle cx="4635" cy="992" r="5" fill="green" stroke="none" /><circle cx="1202" cy="8991" r="5" fill="green" stroke="none" /><circle cx="1595" cy="2257" r="5" fill="green" stroke="none" /><circle cx="4730" cy="8445" r="5" fill="green" stroke="none" /><circle cx="7098" cy="3026" r="5" fill="green" stroke="none" /><circle cx="3951" cy="5158" r="5" fill="green" stroke="none" /><circle cx="7220" cy="7490" r="5" fill="green" stroke="none" /><circle cx="743" cy="1104" r="5" fill="green" stroke="none" /><circle cx="2299" cy="4042" r="5" fill="green" stroke="none" /><circle cx="130" cy="7" r="5" fill="green" stroke="none" /><circle cx="4960" cy="7918" r="5" fill="green" stroke="none" /><circle cx="7188" cy="3107" r="5" fill="green" stroke="none" /><circle cx="2463" cy="3265" r="5" fill="green" stroke="none" /><circle cx="5248" cy="8759" r="5" fill="green" stroke="none" /><circle cx="3674" cy="9199" r="5" fill="green" stroke="none" /><circle cx="2769" cy="919" r="5" fill="green" stroke="none" /><circle cx="2700" cy="29" r="5" fill="green" stroke="none" /><circle cx="1838" cy="7411" r="5" fill="green" stroke="none" /><circle cx="4353" cy="5724" r="5" fill="green" stroke="none" /><circle cx="890" cy="7457" r="5" fill="green" stroke="none" /><circle cx="1746" cy="6320" r="5" fill="green" stroke="none" /><circle cx="6834" cy="9602" r="5" fill="green" stroke="none" /><circle cx="6864" cy="153" r="5" fill="green" stroke="none" /><circle cx="6478" cy="4430" r="5" fill="green" stroke="none" /><circle cx="6214" cy="913" r="5" fill="green" stroke="none" /><circle cx="3178" cy="7729" r="5" fill="green" stroke="none" /><circle cx="5645" cy="8461" r="5" fill="green" stroke="none" /><circle cx="1708" cy="1723" r="5" fill="green" stroke="none" /><circle cx="3842" cy="908" r="5" fill="green" stroke="none" /><circle cx="1952" cy="8263" r="5" fill="green" stroke="none" /><circle cx="3459" cy="6513" r="5" fill="green" stroke="none" /><circle cx="1260" cy="339" r="5" fill="green" stroke="none" /><circle cx="2478" cy="7068" r="5" fill="green" stroke="none" /><circle cx="6981" cy="1076" r="5" fill="green" stroke="none" /><circle cx="1095" cy="4765" r="5" fill="green" stroke="none" /><circle cx="4234" cy="9098" r="5" fill="green" stroke="none" /><circle cx="6115" cy="8760" r="5" fill="green" stroke="none" /><circle cx="1023" cy="6730" r="5" fill="green" stroke="none" /><circle cx="1947" cy="4673" r="5" fill="green" stroke="none" /><circle cx="390" cy="159" r="5" fill="green" stroke="none" /><circle cx="5690" cy="9115" r="5" fill="green" stroke="none" /><circle cx="1731" cy="5234" r="5" fill="green" stroke="none" /><circle cx="3974" cy="9721" r="5" fill="green" stroke="none" /><circle cx="3234" cy="3725" r="5" fill="green" stroke="none" /><circle cx="3077" cy="8081" r="5" fill="green" stroke="none" /><circle cx="2497" cy="8373" r="5" fill="green" stroke="none" /><circle cx="2965" cy="962" r="5" fill="green" stroke="none" /><circle cx="2719" cy="8731" r="5" fill="green" stroke="none" /><circle cx="6954" cy="6052" r="5" fill="green" stroke="none" /><circle cx="6359" cy="411" r="5" fill="green" stroke="none" /><circle cx="5566" cy="8902" r="5" fill="green" stroke="none" /><circle cx="1661" cy="207" r="5" fill="green" stroke="none" /><circle cx="273" cy="7776" r="5" fill="green" stroke="none" /><circle cx="1748" cy="332" r="5" fill="green" stroke="none" /><circle cx="1211" cy="3476" r="5" fill="green" stroke="none" /><circle cx="4071" cy="9087" r="5" fill="green" stroke="none" /><circle cx="5662" cy="211" r="5" fill="green" stroke="none" /><circle cx="1154" cy="2178" r="5" fill="green" stroke="none" /><circle cx="1999" cy="8992" r="5" fill="green" stroke="none" /><circle cx="592" cy="930" r="5" fill="green" stroke="none" /><circle cx="3952" cy="5744" r="5" fill="green" stroke="none" /><circle cx="353" cy="2127" r="5" fill="green" stroke="none" /><circle cx="6535" cy="8692" r="5" fill="green" stroke="none" /><circle cx="1031" cy="5792" r="5" fill="green" stroke="none" /><circle cx="634" cy="1368" r="5" fill="green" stroke="none" /><circle cx="820" cy="910" r="5" fill="green" stroke="none" /><circle cx="3861" cy="179" r="5" fill="green" stroke="none" /><circle cx="3660" cy="9320" r="5" fill="green" stroke="none" /><circle cx="4194" cy="7004" r="5" fill="green" stroke="none" /><circle cx="5067" cy="8248" r="5" fill="green" stroke="none" /><circle cx="2432" cy="3433" r="5" fill="green" stroke="none" /><circle cx="2203" cy="4770" r="5" fill="green" stroke="none" /><circle cx="2223" cy="4209" r="5" fill="green" stroke="none" /><circle cx="2716" cy="7297" r="5" fill="green" stroke="none" /><circle cx="4353" cy="8584" r="5" fill="green" stroke="none" /><circle cx="3139" cy="4459" r="5" fill="green" stroke="none" /><circle cx="4815" cy="2728" r="5" fill="green" stroke="none" /><circle cx="2906" cy="3440" r="5" fill="green" stroke="none" /><circle cx="3324" cy="3773" r="5" fill="green" stroke="none" /><circle cx="5618" cy="1483" r="5" fill="green" stroke="none" /><circle cx="587" cy="8883" r="5" fill="green" stroke="none" /><circle cx="535" cy="2023" r="5" fill="green" stroke="none" /><circle cx="4928" cy="568" r="5" fill="green" stroke="none" /><circle cx="4427" cy="2410" r="5" fill="green" stroke="none" /><circle cx="3560" cy="8597" r="5" fill="green" stroke="none" /><circle cx="2611" cy="1700" r="5" fill="green" stroke="none" /><circle cx="4549" cy="7870" r="5" fill="green" stroke="none" /><circle cx="3686" cy="230" r="5" fill="green" stroke="none" /><circle cx="3323" cy="3583" r="5" fill="green" stroke="none" /><circle cx="4101" cy="8554" r="5" fill="green" stroke="none" /><circle cx="5476" cy="6104" r="5" fill="green" stroke="none" /><circle cx="3077" cy="5064" r="5" fill="green" stroke="none" /><circle cx="912" cy="6352" r="5" fill="green" stroke="none" /><circle cx="1663" cy="2525" r="5" fill="green" stroke="none" /><circle cx="872" cy="8996" r="5" fill="green" stroke="none" /><circle cx="3766" cy="7274" r="5" fill="green" stroke="none" /><circle cx="6226" cy="5748" r="5" fill="green" stroke="none" /><circle cx="844" cy="2953" r="5" fill="green" stroke="none" /><circle cx="6065" cy="1143" r="5" fill="green" stroke="none" /><circle cx="6958" cy="955" r="5" fill="green" stroke="none" /><circle cx="4255" cy="6500" r="5" fill="green" stroke="none" /><circle cx="1683" cy="5802" r="5" fill="green" stroke="none" /><circle cx="2114" cy="9874" r="5" fill="green" stroke="none" /><circle cx="7178" cy="728" r="5" fill="green" stroke="none" /><circle cx="2461" cy="6733" r="5" fill="green" stroke="none" /><circle cx="4047" cy="2851" r="5" fill="green" stroke="none" /><circle cx="5780" cy="8497" r="5" fill="green" stroke="none" /><circle cx="4921" cy="4474" r="5" fill="green" stroke="none" /><circle cx="4449" cy="907" r="5" fill="green" stroke="none" /><circle cx="36" cy="4287" r="5" fill="green" stroke="none" /><circle cx="6110" cy="4946" r="5" fill="green" stroke="none" /><circle cx="1558" cy="6773" r="5" fill="green" stroke="none" /><circle cx="2112" cy="6341" r="5" fill="green" stroke="none" /><circle cx="3774" cy="3533" r="5" fill="green" stroke="none" /><circle cx="4052" cy="810" r="5" fill="green" stroke="none" /><circle cx="6612" cy="6803" r="5" fill="green" stroke="none" /><circle cx="1847" cy="8171" r="5" fill="green" stroke="none" /><circle cx="4249" cy="6363" r="5" fill="green" stroke="none" /><circle cx="6258" cy="1364" r="5" fill="green" stroke="none" /><circle cx="331" cy="3212" r="5" fill="green" stroke="none" /><circle cx="7093" cy="4034" r="5" fill="green" stroke="none" /><circle cx="142" cy="7350" r="5" fill="green" stroke="none" /><circle cx="3" cy="9637" r="5" fill="green" stroke="none" /><circle cx="3799" cy="5716" r="5" fill="green" stroke="none" /><circle cx="533" cy="5462" r="5" fill="green" stroke="none" /><circle cx="5276" cy="1647" r="5" fill="green" stroke="none" /><circle cx="4177" cy="1188" r="5" fill="green" stroke="none" /><circle cx="4248" cy="971" r="5" fill="green" stroke="none" /><circle cx="2287" cy="3367" r="5" fill="green" stroke="none" /><circle cx="3748" cy="9151" r="5" fill="green" stroke="none" /><circle cx="3167" cy="4771" r="5" fill="green" stroke="none" /><circle cx="4028" cy="5387" r="5" fill="green" stroke="none" /><circle cx="3172" cy="5533" r="5" fill="green" stroke="none" /><circle cx="3505" cy="2726" r="5" fill="green" stroke="none" /><circle cx="2201" cy="8515" r="5" fill="green" stroke="none" /><circle cx="771" cy="8307" r="5" fill="green" stroke="none" /><circle cx="2845" cy="6308" r="5" fill="green" stroke="none" /><circle cx="5984" cy="8685" r="5" fill="green" stroke="none" /><circle cx="6171" cy="8617" r="5" fill="green" stroke="none" /><circle cx="1349" cy="8838" r="5" fill="green" stroke="none" /><circle cx="1581" cy="9200" r="5" fill="green" stroke="none" /><circle cx="3740" cy="2331" r="5" fill="green" stroke="none" /><circle cx="5336" cy="9304" r="5" fill="green" stroke="none" /><circle cx="2736" cy="436" r="5" fill="green" stroke="none" /><circle cx="50" cy="9141" r="5" fill="green" stroke="none" /><circle cx="3959" cy="9323" r="5" fill="green" stroke="none" /><circle cx="6233" cy="6425" r="5" fill="green" stroke="none" /><circle cx="875" cy="1979" r="5" fill="green" stroke="none" /><circle cx="3660" cy="8412" r="5" fill="green" stroke="none" /><circle cx="5095" cy="1462" r="5" fill="green" stroke="none" /><circle cx="2986" cy="8028" r="5" fill="green" stroke="none" /><circle cx="4425" cy="9468" r="5" fill="green" stroke="none" /><circle cx="2100" cy="3666" r="5" fill="green" stroke="none" /><circle cx="4615" cy="9301" r="5" fill="green" stroke="none" /><circle cx="2974" cy="743" r="5" fill="green" stroke="none" /><circle cx="142" cy="9804" r="5" fill="green" stroke="none" /><circle cx="3413" cy="6420" r="5" fill="green" stroke="none" /><circle cx="6911" cy="8441" r="5" fill="green" stroke="none" /><circle cx="2668" cy="2588" r="5" fill="green" stroke="none" /><circle cx="1402" cy="9599" r="5" fill="green" stroke="none" /><circle cx="2736" cy="8009" r="5" fill="green" stroke="none" /><circle cx="2841" cy="9791" r="5" fill="green" stroke="none" /><circle cx="1153" cy="1223" r="5" fill="green" stroke="none" /><circle cx="1295" cy="23" r="5" fill="green" stroke="none" /><circle cx="2414" cy="3099" r="5" fill="green" stroke="none" /><circle cx="3543" cy="5522" r="5" fill="green" stroke="none" /><circle cx="6189" cy="6519" r="5" fill="green" stroke="none" /><circle cx="5280" cy="4989" r="5" fill="green" stroke="none" /><circle cx="4656" cy="6717" r="5" fill="green" stroke="none" /><circle cx="2927" cy="5618" r="5" fill="green" stroke="none" /><circle cx="6119" cy="8756" r="5" fill="green" stroke="none" /><circle cx="2791" cy="3090" r="5" fill="green" stroke="none" /><circle cx="788" cy="3222" r="5" fill="green" stroke="none" /><circle cx="3835" cy="247" r="5" fill="green" stroke="none" /><circle cx="1733" cy="1253" r="5" fill="green" stroke="none" /><circle cx="2218" cy="5725" r="5" fill="green" stroke="none" /><circle cx="6728" cy="7916" r="5" fill="green" stroke="none" /><circle cx="1655" cy="6194" r="5" fill="green" stroke="none" /><circle cx="696" cy="3696" r="5" fill="green" stroke="none" /><circle cx="2140" cy="971" r="5" fill="green" stroke="none" /><circle cx="2188" cy="1541" r="5" fill="green" stroke="none" /><circle cx="2649" cy="3545" r="5" fill="green" stroke="none" /><circle cx="1439" cy="9740" r="5" fill="green" stroke="none" /><circle cx="4450" cy="3720" r="5" fill="green" stroke="none" /><circle cx="6581" cy="174" r="5" fill="green" stroke="none" /><circle cx="2129" cy="1677" r="5" fill="green" stroke="none" /><circle cx="7196" cy="1824" r="5" fill="green" stroke="none" /><circle cx="6" cy="9836" r="5" fill="green" stroke="none" /><circle cx="2960" cy="1484" r="5" fill="green" stroke="none" /><circle cx="4526" cy="3355" r="5" fill="green" stroke="none" /><circle cx="3720" cy="6771" r="5" fill="green" stroke="none" /><circle cx="5454" cy="7106" r="5" fill="green" stroke="none" /><circle cx="3932" cy="4682" r="5" fill="green" stroke="none" /><circle cx="2812" cy="7917" r="5" fill="green" stroke="none" /><circle cx="4768" cy="1966" r="5" fill="green" stroke="none" /><circle cx="2477" cy="2231" r="5" fill="green" stroke="none" /><circle cx="3647" cy="6600" r="5" fill="green" stroke="none" /><circle cx="5594" cy="4588" r="5" fill="green" stroke="none" /><circle cx="4687" cy="8686" r="5" fill="green" stroke="none" /><circle cx="6956" cy="239" r="5" fill="green" stroke="none" /><circle cx="3160" cy="5939" r="5" fill="green" stroke="none" /><circle cx="3340" cy="2888" r="5" fill="green" stroke="none" /><circle cx="3992" cy="6176" r="5" fill="green" stroke="none" /><circle cx="5849" cy="7818" r="5" fill="green" stroke="none" /><circle cx="722" cy="3934" r="5" fill="green" stroke="none" /><circle cx="1536" cy="9585" r="5" fill="green" stroke="none" /><circle cx="4429" cy="8248" r="5" fill="green" stroke="none" /><circle cx="4743" cy="2819" r="5" fill="green" stroke="none" /><circle cx="1927" cy="4343" r="5" fill="green" stroke="none" /><circle cx="1689" cy="6157" r="5" fill="green" stroke="none" /><circle cx="2466" cy="4114" r="5" fill="green" stroke="none" /><circle cx="4908" cy="88" r="5" fill="green" stroke="none" /><circle cx="1445" cy="7526" r="5" fill="green" stroke="none" /><circle cx="4083" cy="2565" r="5" fill="green" stroke="none" /><circle cx="128" cy="4991" r="5" fill="green" stroke="none" /><circle cx="2502" cy="3576" r="5" fill="green" stroke="none" /><circle cx="2850" cy="4376" r="5" fill="green" stroke="none" /><circle cx="3192" cy="6878" r="5" fill="green" stroke="none" /><circle cx="1900" cy="9604" r="5" fill="green" stroke="none" /><circle cx="1556" cy="6325" r="5" fill="green" stroke="none" /><circle cx="3748" cy="948" r="5" fill="green" stroke="none" /><circle cx="4567" cy="3133" r="5" fill="green" stroke="none" /><circle cx="3140" cy="4890" r="5" fill="green" stroke="none" /><circle cx="2702" cy="7166" r="5" fill="green" stroke="none" /><circle cx="1841" cy="4613" r="5" fill="green" stroke="none" /><circle cx="4996" cy="7966" r="5" fill="green" stroke="none" /><circle cx="1016" cy="8639" r="5" fill="green" stroke="none" /><circle cx="3021" cy="7482" r="5" fill="green" stroke="none" /><circle cx="5686" cy="7045" r="5" fill="green" stroke="none" /><circle cx="1430" cy="7659" r="5" fill="green" stroke="none" /><circle cx="5898" cy="8514" r="5" fill="green" stroke="none" /><circle cx="5484" cy="2010" r="5" fill="green" stroke="none" /><circle cx="3925" cy="6202" r="5" fill="green" stroke="none" /><circle cx="5584" cy="9584" r="5" fill="green" stroke="none" /><circle cx="4008" cy="2753" r="5" fill="green" stroke="none" /><circle cx="2285" cy="5155" r="5" fill="green" stroke="none" /><circle cx="7112" cy="7129" r="5" fill="green" stroke="none" /><circle cx="4314" cy="9554" r="5" fill="green" stroke="none" /><circle cx="1316" cy="6445" r="5" fill="green" stroke="none" /><circle cx="2390" cy="8873" r="5" fill="green" stroke="none" /><circle cx="5847" cy="6320" r="5" fill="green" stroke="none" /><circle cx="2406" cy="6805" r="5" fill="green" stroke="none" /><circle cx="4615" cy="6424" r="5" fill="green" stroke="none" /><circle cx="2290" cy="419" r="5" fill="green" stroke="none" /><circle cx="98" cy="3721" r="5" fill="green" stroke="none" /><circle cx="1765" cy="9399" r="5" fill="green" stroke="none" /><circle cx="6217" cy="6886" r="5" fill="green" stroke="none" /><circle cx="5203" cy="1324" r="5" fill="green" stroke="none" /><circle cx="5306" cy="8942" r="5" fill="green" stroke="none" /><circle cx="4004" cy="9814" r="5" fill="green" stroke="none" /><circle cx="702" cy="4189" r="5" fill="green" stroke="none" /><circle cx="1021" cy="5884" r="5" fill="green" stroke="none" /><circle cx="932" cy="2487" r="5" fill="green" stroke="none" /><circle cx="1338" cy="2718" r="5" fill="green" stroke="none" /><circle cx="2489" cy="5366" r="5" fill="green" stroke="none" /><circle cx="1996" cy="6335" r="5" fill="green" stroke="none" /><circle cx="5247" cy="8957" r="5" fill="green" stroke="none" /><circle cx="1038" cy="1528" r="5" fill="green" stroke="none" /><circle cx="5723" cy="9441" r="5" fill="green" stroke="none" /><circle cx="2967" cy="4650" r="5" fill="green" stroke="none" /><circle cx="394" cy="9511" r="5" fill="green" stroke="none" /><circle cx="1557" cy="3319" r="5" fill="green" stroke="none" /><circle cx="6131" cy="5534" r="5" fill="green" stroke="none" /><circle cx="3911" cy="6484" r="5" fill="green" stroke="none" /><circle cx="5591" cy="4636" r="5" fill="green" stroke="none" /><circle cx="5495" cy="9184" r="5" fill="green" stroke="none" /><circle cx="3195" cy="4780" r="5" fill="green" stroke="none" /><circle cx="6516" cy="7200" r="5" fill="green" stroke="none" /><circle cx="4898" cy="6657" r="5" fill="green" stroke="none" /><circle cx="4276" cy="842" r="5" fill="green" stroke="none" /><circle cx="4476" cy="1530" r="5" fill="green" stroke="none" /><circle cx="3181" cy="9464" r="5" fill="green" stroke="none" /><circle cx="3894" cy="7170" r="5" fill="green" stroke="none" /><circle cx="6713" cy="1693" r="5" fill="green" stroke="none" /><circle cx="6766" cy="8471" r="5" fill="green" stroke="none" /><circle cx="6110" cy="1226" r="5" fill="green" stroke="none" /><circle cx="5957" cy="7119" r="5" fill="green" stroke="none" /><circle cx="3655" cy="8366" r="5" fill="green" stroke="none" /><circle cx="4085" cy="9269" r="5" fill="green" stroke="none" /><circle cx="1233" cy="4740" r="5" fill="green" stroke="none" /><circle cx="4758" cy="636" r="5" fill="green" stroke="none" /><circle cx="1996" cy="6916" r="5" fill="green" stroke="none" /><circle cx="6469" cy="5740" r="5" fill="green" stroke="none" /><circle cx="1945" cy="2968" r="5" fill="green" stroke="none" /><circle cx="444" cy="6297" r="5" fill="green" stroke="none" /><circle cx="2186" cy="9826" r="5" fill="green" stroke="none" /><circle cx="4901" cy="6279" r="5" fill="green" stroke="none" /><circle cx="5778" cy="5915" r="5" fill="green" stroke="none" /><circle cx="2121" cy="2011" r="5" fill="green" stroke="none" /><circle cx="3562" cy="7418" r="5" fill="green" stroke="none" /><circle cx="1434" cy="2537" r="5" fill="green" stroke="none" /><circle cx="2004" cy="3874" r="5" fill="green" stroke="none" /><circle cx="5730" cy="361" r="5" fill="green" stroke="none" /><circle cx="5446" cy="1440" r="5" fill="green" stroke="none" /><circle cx="1265" cy="2618" r="5" fill="green" stroke="none" /><circle cx="3788" cy="937" r="5" fill="green" stroke="none" /><circle cx="388" cy="1489" r="5" fill="green" stroke="none" /><circle cx="4675" cy="7415" r="5" fill="green" stroke="none" /><circle cx="3838" cy="4674" r="5" fill="green" stroke="none" /><circle cx="6638" cy="5820" r="5" fill="green" stroke="none" /><circle cx="3278" cy="3949" r="5" fill="green" stroke="none" /><circle cx="6142" cy="6204" r="5" fill="green" stroke="none" /><circle cx="5445" cy="1932" r="5" fill="green" stroke="none" /><circle cx="3673" cy="1905" r="5" fill="green" stroke="none" /><circle cx="6367" cy="38" r="5" fill="green" stroke="none" /><circle cx="5218" cy="2020" r="5" fill="green" stroke="none" /><circle cx="2429" cy="7685" r="5" fill="green" stroke="none" /><circle cx="3499" cy="6204" r="5" fill="green" stroke="none" /><circle cx="4193" cy="5201" r="5" fill="green" stroke="none" /><circle cx="1095" cy="2536" r="5" fill="green" stroke="none" /><circle cx="2684" cy="8401" r="5" fill="green" stroke="none" /><circle cx="1744" cy="2339" r="5" fill="green" stroke="none" /><circle cx="5046" cy="9065" r="5" fill="green" stroke="none" /><circle cx="6623" cy="9143" r="5" fill="green" stroke="none" /><circle cx="655" cy="6268" r="5" fill="green" stroke="none" /><circle cx="4431" cy="7640" r="5" fill="green" stroke="none" /><circle cx="158" cy="3562" r="5" fill="green" stroke="none" /><circle cx="7221" cy="2131" r="5" fill="green" stroke="none" /><circle cx="5017" cy="7616" r="5" fill="green" stroke="none" /><circle cx="2831" cy="924" r="5" fill="green" stroke="none" /><circle cx="6400" cy="451" r="5" fill="green" stroke="none" /><circle cx="7157" cy="434" r="5" fill="green" stroke="none" /><circle cx="3910" cy="5599" r="5" fill="green" stroke="none" /><circle cx="1562" cy="9539" r="5" fill="green" stroke="none" /><circle cx="1119" cy="2022" r="5" fill="green" stroke="none" /><circle cx="7121" cy="8571" r="5" fill="green" stroke="none" /><circle cx="3210" cy="9369" r="5" fill="green" stroke="none" /><circle cx="5477" cy="9073" r="5" fill="green" stroke="none" /><circle cx="814" cy="3308" r="5" fill="green" stroke="none" /><circle cx="1891" cy="2468" r="5" fill="green" stroke="none" /><circle cx="5753" cy="9350" r="5" fill="green" stroke="none" /><circle cx="6472" cy="1632" r="5" fill="green" stroke="none" /><circle cx="1794" cy="6109" r="5" fill="green" stroke="none" /><circle cx="3436" cy="8390" r="5" fill="green" stroke="none" /><circle cx="67" cy="2453" r="5" fill="green" stroke="none" /><circle cx="1318" cy="3191" r="5" fill="green" stroke="none" /><circle cx="2000" cy="9620" r="5" fill="green" stroke="none" /><circle cx="27" cy="2937" r="5" fill="green" stroke="none" /><circle cx="955" cy="4589" r="5" fill="green" stroke="none" /><circle cx="7208" cy="4772" r="5" fill="green" stroke="none" /><circle cx="2811" cy="220" r="5" fill="green" stroke="none" /><circle cx="3920" cy="9859" r="5" fill="green" stroke="none" /><circle cx="6592" cy="4987" r="5" fill="green" stroke="none" /><circle cx="1865" cy="4768" r="5" fill="green" stroke="none" /><circle cx="4174" cy="527" r="5" fill="green" stroke="none" /><circle cx="4339" cy="5813" r="5" fill="green" stroke="none" /><circle cx="6765" cy="1270" r="5" fill="green" stroke="none" /><circle cx="2021" cy="4494" r="5" fill="green" stroke="none" /><circle cx="4134" cy="9272" r="5" fill="green" stroke="none" /><circle cx="4312" cy="8031" r="5" fill="green" stroke="none" /><circle cx="1753" cy="2080" r="5" fill="green" stroke="none" /><circle cx="6462" cy="8964" r="5" fill="green" stroke="none" /><circle cx="7197" cy="6290" r="5" fill="green" stroke="none" /><circle cx="1906" cy="1256" r="5" fill="green" stroke="none" /><circle cx="2957" cy="3318" r="5" fill="green" stroke="none" /><circle cx="477" cy="3261" r="5" fill="green" stroke="none" /><circle cx="917" cy="4935" r="5" fill="green" stroke="none" /><circle cx="5932" cy="8975" r="5" fill="green" stroke="none" /><circle cx="7053" cy="9099" r="5" fill="green" stroke="none" /><circle cx="83" cy="5295" r="5" fill="green" stroke="none" /><circle cx="4742" cy="5566" r="5" fill="green" stroke="none" /><circle cx="2587" cy="6467" r="5" fill="green" stroke="none" /><circle cx="3264" cy="9380" r="5" fill="green" stroke="none" /><circle cx="735" cy="7720" r="5" fill="green" stroke="none" /><circle cx="4787" cy="3284" r="5" fill="green" stroke="none" /><circle cx="4772" cy="6047" r="5" fill="green" stroke="none" /><circle cx="5290" cy="9521" r="5" fill="green" stroke="none" /><circle cx="1549" cy="6684" r="5" fill="green" stroke="none" /><circle cx="4501" cy="3352" r="5" fill="green" stroke="none" /><circle cx="4297" cy="7262" r="5" fill="green" stroke="none" /><circle cx="5694" cy="9379" r="5" fill="green" stroke="none" /><circle cx="5025" cy="1386" r="5" fill="green" stroke="none" /><circle cx="6517" cy="6219" r="5" fill="green" stroke="none" /><circle cx="6216" cy="622" r="5" fill="green" stroke="none" /><circle cx="3523" cy="5844" r="5" fill="green" stroke="none" /><circle cx="3394" cy="651" r="5" fill="green" stroke="none" /><circle cx="1357" cy="9476" r="5" fill="green" stroke="none" /><circle cx="5590" cy="814" r="5" fill="green" stroke="none" /><circle cx="5707" cy="253" r="5" fill="green" stroke="none" /><circle cx="6613" cy="8173" r="5" fill="green" stroke="none" /><circle cx="4667" cy="8634" r="5" fill="green" stroke="none" /><circle cx="794" cy="8053" r="5" fill="green" stroke="none" /><circle cx="3262" cy="9207" r="5" fill="green" stroke="none" /><circle cx="6608" cy="6786" r="5" fill="green" stroke="none" /><circle cx="1425" cy="8446" r="5" fill="green" stroke="none" /><circle cx="5051" cy="887" r="5" fill="green" stroke="none" /><circle cx="4255" cy="523" r="5" fill="green" stroke="none" /><circle cx="1115" cy="5659" r="5" fill="green" stroke="none" /><circle cx="2184" cy="4980" r="5" fill="green" stroke="none" /><circle cx="3940" cy="8792" r="5" fill="green" stroke="none" /><circle cx="60" cy="2396" r="5" fill="green" stroke="none" /><circle cx="5644" cy="7853" r="5" fill="green" stroke="none" /><circle cx="1025" cy="6609" r="5" fill="green" stroke="none" /><circle cx="541" cy="468" r="5" fill="green" stroke="none" /><circle cx="5085" cy="5084" r="5" fill="green" stroke="none" /><circle cx="7178" cy="6810" r="5" fill="green" stroke="none" /><circle cx="4876" cy="6105" r="5" fill="green" stroke="none" /><circle cx="3766" cy="684" r="5" fill="green" stroke="none" /><circle cx="1434" cy="9632" r="5" fill="green" stroke="none" /><circle cx="2138" cy="6185" r="5" fill="green" stroke="none" /><circle cx="1934" cy="9281" r="5" fill="green" stroke="none" /><circle cx="1554" cy="2409" r="5" fill="green" stroke="none" /><circle cx="5886" cy="1721" r="5" fill="green" stroke="none" /><circle cx="399" cy="127" r="5" fill="green" stroke="none" /><circle cx="6117" cy="6113" r="5" fill="green" stroke="none" /><circle cx="2585" cy="5882" r="5" fill="green" stroke="none" /><circle cx="6765" cy="1587" r="5" fill="green" stroke="none" /><circle cx="36" cy="3219" r="5" fill="green" stroke="none" /><circle cx="5312" cy="6128" r="5" fill="green" stroke="none" /><circle cx="2450" cy="5106" r="5" fill="green" stroke="none" /><circle cx="5817" cy="6021" r="5" fill="green" stroke="none" /><circle cx="1908" cy="9744" r="5" fill="green" stroke="none" /><circle cx="4888" cy="5967" r="5" fill="green" stroke="none" /><circle cx="1540" cy="4803" r="5" fill="green" stroke="none" /><circle cx="434" cy="5340" r="5" fill="green" stroke="none" /><circle cx="825" cy="1207" r="5" fill="green" stroke="none" /><circle cx="425" cy="3279" r="5" fill="green" stroke="none" /><circle cx="2616" cy="2711" r="5" fill="green" stroke="none" /><circle cx="7213" cy="6632" r="5" fill="green" stroke="none" /><circle cx="1304" cy="7881" r="5" fill="green" stroke="none" /><circle cx="62" cy="620" r="5" fill="green" stroke="none" /><circle cx="4669" cy="5471" r="5" fill="green" stroke="none" /><circle cx="3904" cy="8930" r="5" fill="green" stroke="none" /><circle cx="6704" cy="7155" r="5" fill="green" stroke="none" /><circle cx="4173" cy="5865" r="5" fill="green" stroke="none" /><circle cx="6943" cy="6544" r="5" fill="green" stroke="none" /><circle cx="6470" cy="7419" r="5" fill="green" stroke="none" /><circle cx="1561" cy="2442" r="5" fill="green" stroke="none" /><circle cx="1193" cy="5591" r="5" fill="green" stroke="none" /><circle cx="7064" cy="7778" r="5" fill="green" stroke="none" /><circle cx="4002" cy="7500" r="5" fill="green" stroke="none" /><circle cx="4556" cy="5282" r="5" fill="green" stroke="none" /><circle cx="2405" cy="6637" r="5" fill="green" stroke="none" /><circle cx="5424" cy="1632" r="5" fill="green" stroke="none" /><circle cx="1051" cy="4182" r="5" fill="green" stroke="none" /><circle cx="2877" cy="8185" r="5" fill="green" stroke="none" /><circle cx="4686" cy="4000" r="5" fill="green" stroke="none" /><circle cx="349" cy="6820" r="5" fill="green" stroke="none" /><circle cx="6891" cy="7341" r="5" fill="green" stroke="none" /><circle cx="6244" cy="8250" r="5" fill="green" stroke="none" /><circle cx="2587" cy="529" r="5" fill="green" stroke="none" /><circle cx="2983" cy="7110" r="5" fill="green" stroke="none" /><circle cx="2420" cy="2375" r="5" fill="green" stroke="none" /><circle cx="6011" cy="1439" r="5" fill="green" stroke="none" /><circle cx="5052" cy="182" r="5" fill="green" stroke="none" /><circle cx="5825" cy="6370" r="5" fill="green" stroke="none" /><circle cx="6916" cy="8079" r="5" fill="green" stroke="none" /><circle cx="2235" cy="3850" r="5" fill="green" stroke="none" /><circle cx="798" cy="4656" r="5" fill="green" stroke="none" /><circle cx="6374" cy="1376" r="5" fill="green" stroke="none" /><circle cx="4172" cy="7629" r="5" fill="green" stroke="none" /><circle cx="1016" cy="3199" r="5" fill="green" stroke="none" /><circle cx="1509" cy="9216" r="5" fill="green" stroke="none" /><circle cx="1683" cy="9484" r="5" fill="green" stroke="none" /><circle cx="2859" cy="690" r="5" fill="green" stroke="none" /><circle cx="2070" cy="5159" r="5" fill="green" stroke="none" /><circle cx="1912" cy="7650" r="5" fill="green" stroke="none" /><circle cx="2239" cy="8386" r="5" fill="green" stroke="none" /><circle cx="5176" cy="6392" r="5" fill="green" stroke="none" /><circle cx="3576" cy="1231" r="5" fill="green" stroke="none" /><circle cx="853" cy="3058" r="5" fill="green" stroke="none" /><circle cx="7009" cy="5013" r="5" fill="green" stroke="none" /><circle cx="5830" cy="4599" r="5" fill="green" stroke="none" /><circle cx="6865" cy="6837" r="5" fill="green" stroke="none" /><circle cx="1164" cy="993" r="5" fill="green" stroke="none" /><circle cx="5801" cy="1195" r="5" fill="green" stroke="none" /><circle cx="4992" cy="8649" r="5" fill="green" stroke="none" /><circle cx="4639" cy="8825" r="5" fill="green" stroke="none" /><circle cx="818" cy="9399" r="5" fill="green" stroke="none" /><circle cx="6291" cy="6952" r="5" fill="green" stroke="none" /><circle cx="4181" cy="3303" r="5" fill="green" stroke="none" /><circle cx="2512" cy="8303" r="5" fill="green" stroke="none" /><circle cx="4007" cy="8539" r="5" fill="green" stroke="none" /><circle cx="2328" cy="3971" r="5" fill="green" stroke="none" /><circle cx="4155" cy="1184" r="5" fill="green" stroke="none" /><circle cx="5339" cy="840" r="5" fill="green" stroke="none" /><circle cx="947" cy="427" r="5" fill="green" stroke="none" /><circle cx="7063" cy="5254" r="5" fill="green" stroke="none" /><circle cx="5488" cy="5435" r="5" fill="green" stroke="none" /><circle cx="6446" cy="9480" r="5" fill="green" stroke="none" /><circle cx="6853" cy="6100" r="5" fill="green" stroke="none" /><circle cx="6520" cy="7261" r="5" fill="green" stroke="none" /><circle cx="1356" cy="1806" r="5" fill="green" stroke="none" /><circle cx="2145" cy="5909" r="5" fill="green" stroke="none" /><circle cx="6320" cy="9425" r="5" fill="green" stroke="none" /><circle cx="4275" cy="6846" r="5" fill="green" stroke="none" /><circle cx="2964" cy="8983" r="5" fill="green" stroke="none" /><circle cx="3228" cy="5911" r="5" fill="green" stroke="none" /><circle cx="2394" cy="7184" r="5" fill="green" stroke="none" /><circle cx="1989" cy="8992" r="5" fill="green" stroke="none" /><circle cx="6131" cy="6137" r="5" fill="green" stroke="none" /><circle cx="157" cy="6889" r="5" fill="green" stroke="none" /><circle cx="834" cy="58" r="5" fill="green" stroke="none" /><circle cx="1757" cy="3349" r="5" fill="green" stroke="none" /><circle cx="2367" cy="7537" r="5" fill="green" stroke="none" /><circle cx="1278" cy="7783" r="5" fill="green" stroke="none" /><circle cx="3275" cy="9342" r="5" fill="green" stroke="none" /><circle cx="1551" cy="4513" r="5" fill="green" stroke="none" /><circle cx="3468" cy="6591" r="5" fill="green" stroke="none" /><circle cx="3463" cy="9426" r="5" fill="green" stroke="none" /><circle cx="3368" cy="8880" r="5" fill="green" stroke="none" /><circle cx="6737" cy="18" r="5" fill="green" stroke="none" /><circle cx="3073" cy="753" r="5" fill="green" stroke="none" /><circle cx="7100" cy="971" r="5" fill="green" stroke="none" /><circle cx="6093" cy="9831" r="5" fill="green" stroke="none" /><circle cx="2788" cy="1595" r="5" fill="green" stroke="none" /><circle cx="744" cy="614" r="5" fill="green" stroke="none" /><circle cx="2503" cy="2959" r="5" fill="green" stroke="none" /><circle cx="957" cy="1083" r="5" fill="green" stroke="none" /><circle cx="4963" cy="5774" r="5" fill="green" stroke="none" /><circle cx="6831" cy="1205" r="5" fill="green" stroke="none" /><circle cx="3812" cy="3997" r="5" fill="green" stroke="none" /><circle cx="2917" cy="3401" r="5" fill="green" stroke="none" /><circle cx="6884" cy="6218" r="5" fill="green" stroke="none" /><circle cx="1665" cy="3949" r="5" fill="green" stroke="none" /><circle cx="3831" cy="9636" r="5" fill="green" stroke="none" /><circle cx="2444" cy="7659" r="5" fill="green" stroke="none" /><circle cx="2212" cy="3285" r="5" fill="green" stroke="none" /><circle cx="6218" cy="1928" r="5" fill="green" stroke="none" /><circle cx="4873" cy="8700" r="5" fill="green" stroke="none" /><circle cx="5856" cy="8944" r="5" fill="green" stroke="none" /><circle cx="6792" cy="121" r="5" fill="green" stroke="none" /><circle cx="4067" cy="5009" r="5" fill="green" stroke="none" /><circle cx="1690" cy="1924" r="5" fill="green" stroke="none" /><circle cx="5414" cy="6926" r="5" fill="green" stroke="none" /><circle cx="6796" cy="6502" r="5" fill="green" stroke="none" /><circle cx="6871" cy="2131" r="5" fill="green" stroke="none" /><circle cx="63" cy="3219" r="5" fill="green" stroke="none" /><circle cx="2839" cy="2876" r="5" fill="green" stroke="none" /><circle cx="5134" cy="9844" r="5" fill="green" stroke="none" /><circle cx="23" cy="7309" r="5" fill="green" stroke="none" /><circle cx="3932" cy="6328" r="5" fill="green" stroke="none" /><circle cx="228" cy="1509" r="5" fill="green" stroke="none" /><circle cx="4702" cy="9179" r="5" fill="green" stroke="none" /><circle cx="5181" cy="9475" r="5" fill="green" stroke="none" /><circle cx="642" cy="9500" r="5" fill="green" stroke="none" /><circle cx="1523" cy="1191" r="5" fill="green" stroke="none" /><circle cx="5656" cy="7342" r="5" fill="green" stroke="none" /><circle cx="3263" cy="2914" r="5" fill="green" stroke="none" /><circle cx="867" cy="5633" r="5" fill="green" stroke="none" /><circle cx="5979" cy="1555" r="5" fill="green" stroke="none" /><circle cx="3957" cy="7917" r="5" fill="green" stroke="none" /><circle cx="4915" cy="9698" r="5" fill="green" stroke="none" /><circle cx="4589" cy="3798" r="5" fill="green" stroke="none" /><circle cx="479" cy="915" r="5" fill="green" stroke="none" /><circle cx="4156" cy="408" r="5" fill="green" stroke="none" /><circle cx="11" cy="880" r="5" fill="green" stroke="none" /><circle cx="6060" cy="5945" r="5" fill="green" stroke="none" /><circle cx="223" cy="5712" r="5" fill="green" stroke="none" /><circle cx="103" cy="7367" r="5" fill="green" stroke="none" /><circle cx="1211" cy="8329" r="5" fill="green" stroke="none" /><circle cx="4456" cy="2927" r="5" fill="green" stroke="none" /><circle cx="4960" cy="8341" r="5" fill="green" stroke="none" /><circle cx="1244" cy="1199" r="5" fill="green" stroke="none" /><circle cx="3130" cy="8754" r="5" fill="green" stroke="none" /><circle cx="1014" cy="6013" r="5" fill="green" stroke="none" /><circle cx="3183" cy="9182" r="5" fill="green" stroke="none" /><circle cx="5648" cy="8964" r="5" fill="green" stroke="none" /><circle cx="4963" cy="8325" r="5" fill="green" stroke="none" /><circle cx="540" cy="2487" r="5" fill="green" stroke="none" /><circle cx="3701" cy="6389" r="5" fill="green" stroke="none" /><circle cx="1899" cy="702" r="5" fill="green" stroke="none" /><circle cx="1136" cy="5110" r="5" fill="green" stroke="none" /><circle cx="3147" cy="861" r="5" fill="green" stroke="none" /><circle cx="4065" cy="318" r="5" fill="green" stroke="none" /><circle cx="621" cy="7857" r="5" fill="green" stroke="none" /><circle cx="6290" cy="6508" r="5" fill="green" stroke="none" /><circle cx="6462" cy="7849" r="5" fill="green" stroke="none" /><circle cx="2988" cy="9899" r="5" fill="green" stroke="none" /><circle cx="1336" cy="3934" r="5" fill="green" stroke="none" /><circle cx="1189" cy="3715" r="5" fill="green" stroke="none" /><circle cx="589" cy="9529" r="5" fill="green" stroke="none" /><circle cx="3842" cy="4050" r="5" fill="green" stroke="none" /><circle cx="266" cy="6576" r="5" fill="green" stroke="none" /><circle cx="6034" cy="1700" r="5" fill="green" stroke="none" /><circle cx="2410" cy="8818" r="5" fill="green" stroke="none" /><circle cx="657" cy="594" r="5" fill="green" stroke="none" /><circle cx="2271" cy="4828" r="5" fill="green" stroke="none" /><circle cx="2957" cy="2510" r="5" fill="green" stroke="none" /><circle cx="4187" cy="3613" r="5" fill="green" stroke="none" /><circle cx="745" cy="633" r="5" fill="green" stroke="none" /><circle cx="2920" cy="3561" r="5" fill="green" stroke="none" /><circle cx="5799" cy="8253" r="5" fill="green" stroke="none" /><circle cx="6620" cy="967" r="5" fill="green" stroke="none" /><circle cx="1266" cy="3425" r="5" fill="green" stroke="none" /><circle cx="4161" cy="1131" r="5" fill="green" stroke="none" /><circle cx="4005" cy="6753" r="5" fill="green" stroke="none" /><circle cx="5250" cy="1673" r="5" fill="green" stroke="none" /><circle cx="6656" cy="8801" r="5" fill="green" stroke="none" /><circle cx="918" cy="7422" r="5" fill="green" stroke="none" /><circle cx="6075" cy="5143" r="5" fill="green" stroke="none" /><circle cx="1913" cy="3986" r="5" fill="green" stroke="none" /><circle cx="5920" cy="6702" r="5" fill="green" stroke="none" /><circle cx="1022" cy="2040" r="5" fill="green" stroke="none" /><circle cx="6481" cy="4539" r="5" fill="green" stroke="none" /><circle cx="2137" cy="4824" r="5" fill="green" stroke="none" /><circle cx="5013" cy="6446" r="5" fill="green" stroke="none" /><circle cx="3166" cy="8613" r="5" fill="green" stroke="none" /><circle cx="2413" cy="298" r="5" fill="green" stroke="none" /><circle cx="1660" cy="8074" r="5" fill="green" stroke="none" /><circle cx="1273" cy="4501" r="5" fill="green" stroke="none" /><circle cx="911" cy="1254" r="5" fill="green" stroke="none" /><circle cx="1009" cy="6456" r="5" fill="green" stroke="none" /><circle cx="4672" cy="1975" r="5" fill="green" stroke="none" /><circle cx="643" cy="4161" r="5" fill="green" stroke="none" /><circle cx="1908" cy="7049" r="5" fill="green" stroke="none" /><circle cx="1395" cy="8266" r="5" fill="green" stroke="none" /><circle cx="1898" cy="4250" r="5" fill="green" stroke="none" /><circle cx="1621" cy="3035" r="5" fill="green" stroke="none" /><circle cx="6053" cy="4573" r="5" fill="green" stroke="none" /><circle cx="3003" cy="3872" r="5" fill="green" stroke="none" /><circle cx="3804" cy="8596" r="5" fill="green" stroke="none" /><circle cx="2180" cy="5108" r="5" fill="green" stroke="none" /><circle cx="5479" cy="454" r="5" fill="green" stroke="none" /><circle cx="6831" cy="4869" r="5" fill="green" stroke="none" /><circle cx="2963" cy="8271" r="5" fill="green" stroke="none" /><circle cx="492" cy="7304" r="5" fill="green" stroke="none" /><circle cx="3499" cy="6606" r="5" fill="green" stroke="none" /><circle cx="2476" cy="2584" r="5" fill="green" stroke="none" /><circle cx="2519" cy="2412" r="73" fill="red" stroke="none" /><circle cx="1142" cy="6676" r="58" fill="red" stroke="none" /><circle cx="2146" cy="3987" r="20" fill="red" stroke="none" /><circle cx="1754" cy="2898" r="46" fill="red" stroke="none" /><circle cx="347" cy="6350" r="42" fill="red" stroke="none" /><circle cx="3180" cy="1491" r="43" fill="red" stroke="none" /><circle cx="3232" cy="5035" r="24" fill="red" stroke="none" /><circle cx="2042" cy="573" r="29" fill="red" stroke="none" /><circle cx="1719" cy="1566" r="32" fill="red" stroke="none" /><circle cx="3395" cy="8968" r="34" fill="red" stroke="none" /><circle cx="7050" cy="5293" r="32" fill="red" stroke="none" /><circle cx="5350" cy="7806" r="69" fill="red" stroke="none" /><circle cx="141" cy="5076" r="82" fill="red" stroke="none" /><circle cx="4522" cy="4356" r="67" fill="red" stroke="none" /><circle cx="614" cy="6308" r="40" fill="red" stroke="none" /><circle cx="6903" cy="8767" r="5" fill="red" stroke="none" /><circle cx="2207" cy="4369" r="53" fill="red" stroke="none" /><circle cx="3819" cy="8679" r="44" fill="red" stroke="none" /><circle cx="6141" cy="4779" r="36" fill="red" stroke="none" /><circle cx="6279" cy="5009" r="6" fill="red" stroke="none" /><circle cx="2770" cy="4266" r="69" fill="red" stroke="none" /><circle cx="5519" cy="7669" r="76" fill="red" stroke="none" /><circle cx="4130" cy="79" r="50" fill="red" stroke="none" /><circle cx="2107" cy="7687" r="12" fill="red" stroke="none" /><circle cx="3728" cy="2723" r="78" fill="red" stroke="none" /><circle cx="398" cy="1838" r="59" fill="red" stroke="none" /><circle cx="1280" cy="7530" r="77" fill="red" stroke="none" /><circle cx="4529" cy="7491" r="18" fill="red" stroke="none" /><circle cx="245" cy="9552" r="45" fill="red" stroke="none" /><circle cx="4319" cy="7342" r="62" fill="red" stroke="none" /><circle cx="2487" cy="6166" r="64" fill="red" stroke="none" /><circle cx="4670" cy="8979" r="17" fill="red" stroke="none" /><circle cx="5076" cy="6702" r="58" fill="red" stroke="none" /><circle cx="7046" cy="666" r="9" fill="red" stroke="none" /><circle cx="6750" cy="9858" r="20" fill="red" stroke="none" /><circle cx="3613" cy="1157" r="34" fill="red" stroke="none" /><circle cx="1752" cy="4137" r="74" fill="red" stroke="none" /><circle cx="5214" cy="8655" r="76" fill="red" stroke="none" /><circle cx="4029" cy="2990" r="79" fill="red" stroke="none" /><circle cx="4268" cy="5508" r="31" fill="red" stroke="none" /><circle cx="7010" cy="8389" r="14" fill="red" stroke="none" /><circle cx="4633" cy="1100" r="72" fill="red" stroke="none" /><circle cx="113" cy="2058" r="70" fill="red" stroke="none" /><circle cx="7051" cy="8196" r="31" fill="red" stroke="none" /><circle cx="6021" cy="8897" r="63" fill="red" stroke="none" /><circle cx="4179" cy="9709" r="54" fill="red" stroke="none" /><circle cx="3178" cy="4847" r="43" fill="red" stroke="none" /><circle cx="455" cy="8539" r="66" fill="red" stroke="none" /><circle cx="4967" cy="662" r="48" fill="red" stroke="none" /><circle cx="2495" cy="6241" r="18" fill="red" stroke="none" /><circle cx="4754" cy="3382" r="30" fill="red" stroke="none" /><circle cx="3211" cy="1521" r="40" fill="red" stroke="none" /><circle cx="5501" cy="5205" r="71" fill="red" stroke="none" /><circle cx="6632" cy="7143" r="41" fill="red" stroke="none" /><circle cx="380" cy="4846" r="32" fill="red" stroke="none" /><circle cx="4371" cy="4965" r="44" fill="red" stroke="none" /><circle cx="6383" cy="9867" r="7" fill="red" stroke="none" /><circle cx="1518" cy="7727" r="81" fill="red" stroke="none" /><circle cx="2602" cy="3613" r="60" fill="red" stroke="none" /><circle cx="3840" cy="840" r="64" fill="red" stroke="none" /><circle cx="4270" cy="9308" r="66" fill="red" stroke="none" /><circle cx="3526" cy="4469" r="71" fill="red" stroke="none" /><circle cx="4785" cy="9481" r="44" fill="red" stroke="none" /><circle cx="5305" cy="6920" r="73" fill="red" stroke="none" /><circle cx="5645" cy="6896" r="74" fill="red" stroke="none" /><circle cx="109" cy="533" r="52" fill="red" stroke="none" /><circle cx="1076" cy="3968" r="67" fill="red" stroke="none" /><circle cx="6466" cy="5062" r="20" fill="red" stroke="none" /><circle cx="192" cy="9106" r="75" fill="red" stroke="none" /><circle cx="2855" cy="3969" r="38" fill="red" stroke="none" /><circle cx="6765" cy="4910" r="56" fill="red" stroke="none" /><circle cx="2070" cy="6523" r="30" fill="red" stroke="none" /><circle cx="1513" cy="8517" r="44" fill="red" stroke="none" /><circle cx="1742" cy="8509" r="31" fill="red" stroke="none" /><circle cx="615" cy="8251" r="83" fill="red" stroke="none" /><circle cx="2260" cy="5073" r="71" fill="red" stroke="none" /><circle cx="5326" cy="6219" r="19" fill="red" stroke="none" /><circle cx="757" cy="9347" r="59" fill="red" stroke="none" /><circle cx="1635" cy="8032" r="39" fill="red" stroke="none" /><circle cx="2034" cy="2513" r="22" fill="red" stroke="none" /><circle cx="4957" cy="6096" r="41" fill="red" stroke="none" /><circle cx="3715" cy="3707" r="60" fill="red" stroke="none" /><circle cx="416" cy="684" r="66" fill="red" stroke="none" /><circle cx="3112" cy="6575" r="84" fill="red" stroke="none" /><circle cx="3121" cy="3908" r="28" fill="red" stroke="none" /><circle cx="1817" cy="5701" r="63" fill="red" stroke="none" /></svg>