<svg viewBox="0 0 6079 1663" xmlns="http://www.w3.org/2000/svg"><rect x="0" y="0" width="6079" height="1663" fill="lightyellow" stroke="none "/><rect x="873" y="863" width="1578" height="530" fill="white" stroke="black "/><circle cx="4219" cy="1594" r="5" fill="green" stroke="none" /><circle cx="6051" cy="171" r="5" fill="green" stroke="none" /><circle cx="136" cy="310" r="5" fill="green" stroke="none" /><circle cx="634" cy="1552" r="5" fill="green" stroke="none" /><circle cx="118" cy="1657" r="5" fill="green" stroke="none" /><circle cx="781" cy="249" r="5" fill="green" stroke="none" /><circle cx="3156" cy="833" r="5" fill="green" stroke="none" /><circle cx="4004" cy="1014" r="5" fill="green" stroke="none" /><circle cx="95" cy="534" r="5" fill="green" stroke="none" /><circle cx="984" cy="1531" r="5" fill="green" stroke="none" /><circle cx="4174" cy="905" r="5" fill="green" stroke="none" /><circle cx="4861" cy="1029" r="5" fill="green" stroke="none" /><circle cx="1864" cy="458" r="5" fill="green" stroke="none" /><circle cx="3101" cy="335" r="5" fill="green" stroke="none" /><circle cx="1132" cy="306" r="5" fill="green" stroke="none" /><circle cx="1595" cy="800" r="5" fill="green" stroke="none" /><circle cx="5532" cy="746" r="5" fill="green" stroke="none" /><circle cx="3703" cy="1056" r="5" fill="green" stroke="none" /><circle cx="6011" cy="154" r="5" fill="green" stroke="none" /><circle cx="3002" cy="966" r="5" fill="green" stroke="none" /><circle cx="3142" cy="1212" r="5" fill="green" stroke="none" /><circle cx="1024" cy="1395" r="5" fill="green" stroke="none" /><circle cx="4853" cy="481" r="5" fill="green" stroke="none" /><circle cx="4208" cy="1356" r="5" fill="green" stroke="none" /><circle cx="3968" cy="386" r="5" fill="green" stroke="none" /><circle cx="5887" cy="469" r="5" fill="green" stroke="none" /><circle cx="271" cy="1630" r="5" fill="green" stroke="none" /><circle cx="2630" cy="605" r="5" fill="green" stroke="none" /><circle cx="4310" cy="368" r="5" fill="green" stroke="none" /><circle cx="3791" cy="1281" r="5" fill="green" stroke="none" /><circle cx="351" cy="1428" r="5" fill="green" stroke="none" /><circle cx="141" cy="1350" r="5" fill="green" stroke="none" /><circle cx="2309" cy="1526" r="5" fill="green" stroke="none" /><circle cx="627" cy="755" r="5" fill="green" stroke="none" /><circle cx="1474" cy="594" r="5" fill="green" stroke="none" /><circle cx="2961" cy="1161" r="5" fill="green" stroke="none" /><circle cx="928" cy="657" r="5" fill="green" stroke="none" /><circle cx="3457" cy="1338" r="5" fill="green" stroke="none" /><circle cx="1980" cy="420" r="5" fill="green" stroke="none" /><circle cx="2238" cy="465" r="5" fill="green" stroke="none" /><circle cx="754" cy="266" r="5" fill="green" stroke="none" /><circle cx="4112" cy="519" r="5" fill="green" stroke="none" /><circle cx="4650" cy="987" r="5" fill="green" stroke="none" /><circle cx="5064" cy="753" r="5" fill="green" stroke="none" /><circle cx="2536" cy="1520" r="5" fill="green" stroke="none" /><circle cx="741" cy="1172" r="5" fill="green" stroke="none" /><circle cx="4159" cy="905" r="5" fill="green" stroke="none" /><circle cx="2072" cy="1497" r="5" fill="green" stroke="none" /><circle cx="5040" cy="188" r="5" fill="green" stroke="none" /><circle cx="3267" cy="1054" r="5" fill="green" stroke="none" /><circle cx="2245" cy="1476" r="5" fill="green" stroke="none" /><circle cx="3912" cy="592" r="5" fill="green" stroke="none" /><circle cx="4898" cy="806" r="5" fill="green" stroke="none" /><circle cx="799" cy="766" r="5" fill="green" stroke="none" /><circle cx="3613" cy="1291" r="5" fill="green" stroke="none" /><circle cx="2504" cy="276" r="5" fill="green" stroke="none" /><circle cx="4619" cy="291" r="5" fill="green" stroke="none" /><circle cx="3364" cy="1418" r="5" fill="green" stroke="none" /><circle cx="2031" cy="564" r="5" fill="green" stroke="none" /><circle cx="4026" cy="1634" r="5" fill="green" stroke="none" /><circle cx="375" cy="1005" r="5" fill="green" stroke="none" /><circle cx="2593" cy="796" r="5" fill="green" stroke="none" /><circle cx="3169" cy="833" r="5" fill="green" stroke="none" /><circle cx="3597" cy="1479" r="5" fill="green" stroke="none" /><circle cx="41" cy="133" r="5" fill="green" stroke="none" /><circle cx="2928" cy="1512" r="5" fill="green" stroke="none" /><circle cx="1216" cy="1415" r="5" fill="green" stroke="none" /><circle cx="1874" cy="193" r="5" fill="green" stroke="none" /><circle cx="2065" cy="1627" r="5" fill="green" stroke="none" /><circle cx="2837" cy="863" r="5" fill="green" stroke="none" /><circle cx="3404" cy="1041" r="5" fill="green" stroke="none" /><circle cx="3965" cy="1618" r="5" fill="green" stroke="none" /><circle cx="3627" cy="69" r="5" fill="green" stroke="none" /><circle cx="578" cy="1426" r="5" fill="green" stroke="none" /><circle cx="3733" cy="493" r="5" fill="green" stroke="none" /><circle cx="751" cy="894" r="5" fill="green" stroke="none" /><circle cx="2613" cy="725" r="5" fill="green" stroke="none" /><circle cx="4775" cy="557" r="5" fill="green" stroke="none" /><circle cx="701" cy="1204" r="5" fill="green" stroke="none" /><circle cx="796" cy="321" r="5" fill="green" stroke="none" /><circle cx="3629" cy="1537" r="5" fill="green" stroke="none" /><circle cx="2546" cy="1056" r="5" fill="green" stroke="none" /><circle cx="2789" cy="33" r="5" fill="green" stroke="none" /><circle cx="2349" cy="645" r="5" fill="green" stroke="none" /><circle cx="3060" cy="1112" r="5" fill="green" stroke="none" /><circle cx="1243" cy="1593" r="5" fill="green" stroke="none" /><circle cx="3699" cy="681" r="5" fill="green" stroke="none" /><circle cx="728" cy="1149" r="5" fill="green" stroke="none" /><circle cx="2401" cy="269" r="5" fill="green" stroke="none" /><circle cx="4620" cy="1062" r="5" fill="green" stroke="none" /><circle cx="289" cy="1602" r="5" fill="green" stroke="none" /><circle cx="3666" cy="664" r="5" fill="green" stroke="none" /><circle cx="2528" cy="1076" r="5" fill="green" stroke="none" /><circle cx="4074" cy="189" r="5" fill="green" stroke="none" /><circle cx="1679" cy="717" r="5" fill="green" stroke="none" /><circle cx="4514" cy="1322" r="5" fill="green" stroke="none" /><circle cx="3851" cy="380" r="5" fill="green" stroke="none" /><circle cx="255" cy="31" r="5" fill="green" stroke="none" /><circle cx="3695" cy="1604" r="5" fill="green" stroke="none" /><circle cx="5424" cy="58" r="5" fill="green" stroke="none" /><circle cx="669" cy="659" r="5" fill="green" stroke="none" /><circle cx="374" cy="1022" r="5" fill="green" stroke="none" /><circle cx="3026" cy="1599" r="5" fill="green" stroke="none" /><circle cx="3126" cy="367" r="5" fill="green" stroke="none" /><circle cx="1839" cy="165" r="5" fill="green" stroke="none" /><circle cx="3285" cy="398" r="5" fill="green" stroke="none" /><circle cx="470" cy="443" r="5" fill="green" stroke="none" /><circle cx="726" cy="701" r="5" fill="green" stroke="none" /><circle cx="228" cy="176" r="5" fill="green" stroke="none" /><circle cx="2887" cy="1477" r="5" fill="green" stroke="none" /><circle cx="2865" cy="1287" r="5" fill="green" stroke="none" /><circle cx="2357" cy="759" r="5" fill="green" stroke="none" /><circle cx="314" cy="25" r="5" fill="green" stroke="none" /><circle cx="1066" cy="763" r="5" fill="green" stroke="none" /><circle cx="768" cy="1245" r="5" fill="green" stroke="none" /><circle cx="3429" cy="1049" r="5" fill="green" stroke="none" /><circle cx="4530" cy="191" r="5" fill="green" stroke="none" /><circle cx="147" cy="1548" r="5" fill="green" stroke="none" /><circle cx="2143" cy="1415" r="5" fill="green" stroke="none" /><circle cx="1816" cy="112" r="5" fill="green" stroke="none" /><circle cx="2246" cy="80" r="5" fill="green" stroke="none" /><circle cx="215" cy="202" r="5" fill="green" stroke="none" /><circle cx="1737" cy="422" r="5" fill="green" stroke="none" /><circle cx="131" cy="1394" r="5" fill="green" stroke="none" /><circle cx="2495" cy="210" r="5" fill="green" stroke="none" /><circle cx="2193" cy="674" r="5" fill="green" stroke="none" /><circle cx="1784" cy="1618" r="5" fill="green" stroke="none" /><circle cx="5135" cy="203" r="5" fill="green" stroke="none" /><circle cx="231" cy="358" r="5" fill="green" stroke="none" /><circle cx="454" cy="742" r="5" fill="green" stroke="none" /><circle cx="2057" cy="156" r="5" fill="green" stroke="none" /><circle cx="3292" cy="1113" r="5" fill="green" stroke="none" /><circle cx="2848" cy="649" r="5" fill="green" stroke="none" /><circle cx="3556" cy="1470" r="5" fill="green" stroke="none" /><circle cx="4262" cy="219" r="5" fill="green" stroke="none" /><circle cx="4583" cy="334" r="5" fill="green" stroke="none" /><circle cx="2000" cy="81" r="5" fill="green" stroke="none" /><circle cx="1970" cy="474" r="5" fill="green" stroke="none" /><circle cx="4462" cy="538" r="5" fill="green" stroke="none" /><circle cx="2195" cy="65" r="5" fill="green" stroke="none" /><circle cx="1777" cy="723" r="5" fill="green" stroke="none" /><circle cx="1811" cy="120" r="5" fill="green" stroke="none" /><circle cx="3852" cy="115" r="5" fill="green" stroke="none" /><circle cx="1154" cy="518" r="5" fill="green" stroke="none" /><circle cx="840" cy="649" r="5" fill="green" stroke="none" /><circle cx="1569" cy="325" r="5" fill="green" stroke="none" /><circle cx="5195" cy="160" r="5" fill="green" stroke="none" /><circle cx="3250" cy="987" r="5" fill="green" stroke="none" /><circle cx="869" cy="458" r="5" fill="green" stroke="none" /><circle cx="4312" cy="1079" r="5" fill="green" stroke="none" /><circle cx="2369" cy="30" r="5" fill="green" stroke="none" /><circle cx="3983" cy="438" r="5" fill="green" stroke="none" /><circle cx="348" cy="1421" r="5" fill="green" stroke="none" /><circle cx="739" cy="286" r="5" fill="green" stroke="none" /><circle cx="2775" cy="807" r="5" fill="green" stroke="none" /><circle cx="2760" cy="1428" r="5" fill="green" stroke="none" /><circle cx="2815" cy="731" r="5" fill="green" stroke="none" /><circle cx="2204" cy="1559" r="5" fill="green" stroke="none" /><circle cx="1773" cy="58" r="5" fill="green" stroke="none" /><circle cx="109" cy="263" r="5" fill="green" stroke="none" /><circle cx="2498" cy="1471" r="5" fill="green" stroke="none" /><circle cx="5152" cy="104" r="5" fill="green" stroke="none" /><circle cx="2846" cy="719" r="5" fill="green" stroke="none" /><circle cx="983" cy="269" r="5" fill="green" stroke="none" /><circle cx="1278" cy="178" r="5" fill="green" stroke="none" /><circle cx="1913" cy="470" r="5" fill="green" stroke="none" /><circle cx="4713" cy="854" r="5" fill="green" stroke="none" /><circle cx="880" cy="344" r="5" fill="green" stroke="none" /><circle cx="313" cy="813" r="5" fill="green" stroke="none" /><circle cx="2833" cy="1545" r="5" fill="green" stroke="none" /><circle cx="1476" cy="13" r="5" fill="green" stroke="none" /><circle cx="3030" cy="781" r="5" fill="green" stroke="none" /><circle cx="2513" cy="836" r="5" fill="green" stroke="none" /><circle cx="791" cy="1293" r="5" fill="green" stroke="none" /><circle cx="482" cy="509" r="5" fill="green" stroke="none" /><circle cx="2538" cy="239" r="5" fill="green" stroke="none" /><circle cx="1350" cy="103" r="5" fill="green" stroke="none" /><circle cx="1679" cy="1617" r="5" fill="green" stroke="none" /><circle cx="801" cy="861" r="5" fill="green" stroke="none" /><circle cx="4146" cy="1586" r="5" fill="green" stroke="none" /><circle cx="1153" cy="831" r="5" fill="green" stroke="none" /><circle cx="1635" cy="568" r="5" fill="green" stroke="none" /><circle cx="4667" cy="7" r="5" fill="green" stroke="none" /><circle cx="1163" cy="466" r="5" fill="green" stroke="none" /><circle cx="4247" cy="990" r="5" fill="green" stroke="none" /><circle cx="730" cy="1290" r="5" fill="green" stroke="none" /><circle cx="1889" cy="126" r="5" fill="green" stroke="none" /><circle cx="615" cy="291" r="5" fill="green" stroke="none" /><circle cx="5048" cy="535" r="5" fill="green" stroke="none" /><circle cx="2469" cy="759" r="5" fill="green" stroke="none" /><circle cx="5240" cy="769" r="5" fill="green" stroke="none" /><circle cx="998" cy="2" r="5" fill="green" stroke="none" /><circle cx="1666" cy="1542" r="5" fill="green" stroke="none" /><circle cx="960" cy="848" r="5" fill="green" stroke="none" /><circle cx="2813" cy="507" r="5" fill="green" stroke="none" /><circle cx="1452" cy="658" r="5" fill="green" stroke="none" /><circle cx="5112" cy="1044" r="5" fill="green" stroke="none" /><circle cx="1957" cy="834" r="5" fill="green" stroke="none" /><circle cx="4799" cy="61" r="5" fill="green" stroke="none" /><circle cx="3123" cy="1241" r="5" fill="green" stroke="none" /><circle cx="2717" cy="739" r="5" fill="green" stroke="none" /><circle cx="1967" cy="575" r="5" fill="green" stroke="none" /><circle cx="1920" cy="1627" r="5" fill="green" stroke="none" /><circle cx="3135" cy="1227" r="5" fill="green" stroke="none" /><circle cx="5047" cy="1044" r="5" fill="green" stroke="none" /><circle cx="4678" cy="303" r="5" fill="green" stroke="none" /><circle cx="674" cy="1378" r="5" fill="green" stroke="none" /><circle cx="4823" cy="493" r="5" fill="green" stroke="none" /><circle cx="5968" cy="667" r="5" fill="green" stroke="none" /><circle cx="3355" cy="624" r="5" fill="green" stroke="none" /><circle cx="4270" cy="1011" r="5" fill="green" stroke="none" /><circle cx="2591" cy="935" r="5" fill="green" stroke="none" /><circle cx="1545" cy="73" r="5" fill="green" stroke="none" /><circle cx="3702" cy="448" r="5" fill="green" stroke="none" /><circle cx="1787" cy="190" r="5" fill="green" stroke="none" /><circle cx="3210" cy="589" r="5" fill="green" stroke="none" /><circle cx="3369" cy="715" r="5" fill="green" stroke="none" /><circle cx="3287" cy="559" r="5" fill="green" stroke="none" /><circle cx="902" cy="794" r="5" fill="green" stroke="none" /><circle cx="3391" cy="979" r="5" fill="green" stroke="none" /><circle cx="1443" cy="105" r="5" fill="green" stroke="none" /><circle cx="4394" cy="164" r="5" fill="green" stroke="none" /><circle cx="2621" cy="684" r="5" fill="green" stroke="none" /><circle cx="2990" cy="1435" r="5" fill="green" stroke="none" /><circle cx="2228" cy="685" r="5" fill="green" stroke="none" /><circle cx="2956" cy="1380" r="5" fill="green" stroke="none" /><circle cx="2333" cy="794" r="5" fill="green" stroke="none" /><circle cx="3769" cy="505" r="5" fill="green" stroke="none" /><circle cx="1807" cy="337" r="5" fill="green" stroke="none" /><circle cx="83" cy="479" r="5" fill="green" stroke="none" /><circle cx="4292" cy="355" r="5" fill="green" stroke="none" /><circle cx="3068" cy="752" r="5" fill="green" stroke="none" /><circle cx="4211" cy="1035" r="5" fill="green" stroke="none" /><circle cx="2768" cy="473" r="5" fill="green" stroke="none" /><circle cx="3887" cy="1137" r="5" fill="green" stroke="none" /><circle cx="493" cy="635" r="5" fill="green" stroke="none" /><circle cx="4177" cy="1070" r="5" fill="green" stroke="none" /><circle cx="1182" cy="753" r="5" fill="green" stroke="none" /><circle cx="1038" cy="1431" r="5" fill="green" stroke="none" /><circle cx="338" cy="25" r="5" fill="green" stroke="none" /><circle cx="4123" cy="995" r="5" fill="green" stroke="none" /><circle cx="3782" cy="793" r="5" fill="green" stroke="none" /><circle cx="661" cy="1089" r="5" fill="green" stroke="none" /><circle cx="3692" cy="1573" r="5" fill="green" stroke="none" /><circle cx="3803" cy="676" r="5" fill="green" stroke="none" /><circle cx="3742" cy="443" r="5" fill="green" stroke="none" /><circle cx="2925" cy="959" r="5" fill="green" stroke="none" /><circle cx="3863" cy="583" r="5" fill="green" stroke="none" /><circle cx="5161" cy="936" r="5" fill="green" stroke="none" /><circle cx="2096" cy="381" r="5" fill="green" stroke="none" /><circle cx="3050" cy="862" r="5" fill="green" stroke="none" /><circle cx="4555" cy="452" r="5" fill="green" stroke="none" /><circle cx="648" cy="1320" r="5" fill="green" stroke="none" /><circle cx="4491" cy="1659" r="5" fill="green" stroke="none" /><circle cx="3595" cy="69" r="5" fill="green" stroke="none" /><circle cx="1709" cy="1403" r="5" fill="green" stroke="none" /><circle cx="256" cy="820" r="5" fill="green" stroke="none" /><circle cx="4655" cy="86" r="5" fill="green" stroke="none" /><circle cx="3320" cy="1645" r="5" fill="green" stroke="none" /><circle cx="153" cy="1480" r="5" fill="green" stroke="none" /><circle cx="4562" cy="550" r="5" fill="green" stroke="none" /><circle cx="5057" cy="790" r="5" fill="green" stroke="none" /><circle cx="1882" cy="522" r="5" fill="green" stroke="none" /><circle cx="4914" cy="263" r="5" fill="green" stroke="none" /><circle cx="909" cy="1577" r="5" fill="green" stroke="none" /><circle cx="309" cy="1616" r="5" fill="green" stroke="none" /><circle cx="2942" cy="617" r="5" fill="green" stroke="none" /><circle cx="5142" cy="178" r="5" fill="green" stroke="none" /><circle cx="864" cy="316" r="5" fill="green" stroke="none" /><circle cx="840" cy="236" r="5" fill="green" stroke="none" /><circle cx="1762" cy="591" r="5" fill="green" stroke="none" /><circle cx="1187" cy="372" r="5" fill="green" stroke="none" /><circle cx="3752" cy="1101" r="5" fill="green" stroke="none" /><circle cx="5388" cy="520" r="5" fill="green" stroke="none" /><circle cx="2850" cy="693" r="5" fill="green" stroke="none" /><circle cx="4582" cy="1093" r="5" fill="green" stroke="none" /><circle cx="781" cy="461" r="5" fill="green" stroke="none" /><circle cx="2196" cy="857" r="5" fill="green" stroke="none" /><circle cx="3040" cy="798" r="5" fill="green" stroke="none" /><circle cx="3966" cy="281" r="5" fill="green" stroke="none" /><circle cx="4141" cy="347" r="5" fill="green" stroke="none" /><circle cx="927" cy="1435" r="5" fill="green" stroke="none" /><circle cx="4199" cy="1073" r="5" fill="green" stroke="none" /><circle cx="2640" cy="1432" r="5" fill="green" stroke="none" /><circle cx="3707" cy="1054" r="5" fill="green" stroke="none" /><circle cx="1891" cy="1436" r="5" fill="green" stroke="none" /><circle cx="424" cy="435" r="5" fill="green" stroke="none" /><circle cx="4678" cy="437" r="5" fill="green" stroke="none" /><circle cx="4190" cy="1291" r="5" fill="green" stroke="none" /><circle cx="4069" cy="508" r="5" fill="green" stroke="none" /><circle cx="1490" cy="765" r="5" fill="green" stroke="none" /><circle cx="3336" cy="27" r="5" fill="green" stroke="none" /><circle cx="3708" cy="452" r="5" fill="green" stroke="none" /><circle cx="54" cy="794" r="5" fill="green" stroke="none" /><circle cx="1529" cy="6" r="5" fill="green" stroke="none" /><circle cx="56" cy="1376" r="5" fill="green" stroke="none" /><circle cx="4522" cy="117" r="5" fill="green" stroke="none" /><circle cx="2065" cy="1559" r="5" fill="green" stroke="none" /><circle cx="3767" cy="1489" r="5" fill="green" stroke="none" /><circle cx="3483" cy="1295" r="5" fill="green" stroke="none" /><circle cx="1052" cy="675" r="5" fill="green" stroke="none" /><circle cx="320" cy="172" r="5" fill="green" stroke="none" /><circle cx="543" cy="313" r="5" fill="green" stroke="none" /><circle cx="1029" cy="529" r="5" fill="green" stroke="none" /><circle cx="4852" cy="24" r="5" fill="green" stroke="none" /><circle cx="56" cy="1617" r="5" fill="green" stroke="none" /><circle cx="2952" cy="857" r="5" fill="green" stroke="none" /><circle cx="2954" cy="1592" r="5" fill="green" stroke="none" /><circle cx="3392" cy="1565" r="5" fill="green" stroke="none" /><circle cx="4019" cy="6" r="5" fill="green" stroke="none" /><circle cx="4612" cy="1099" r="5" fill="green" stroke="none" /><circle cx="3762" cy="3" r="5" fill="green" stroke="none" /><circle cx="4250" cy="1144" r="5" fill="green" stroke="none" /><circle cx="4703" cy="992" r="5" fill="green" stroke="none" /><circle cx="738" cy="1348" r="5" fill="green" stroke="none" /><circle cx="1821" cy="72" r="5" fill="green" stroke="none" /><circle cx="1134" cy="622" r="5" fill="green" stroke="none" /><circle cx="480" cy="1497" r="5" fill="green" stroke="none" /><circle cx="2463" cy="1563" r="5" fill="green" stroke="none" /><circle cx="1037" cy="487" r="5" fill="green" stroke="none" /><circle cx="1146" cy="611" r="5" fill="green" stroke="none" /><circle cx="2087" cy="1620" r="5" fill="green" stroke="none" /><circle cx="5592" cy="729" r="5" fill="green" stroke="none" /><circle cx="3160" cy="436" r="5" fill="green" stroke="none" /><circle cx="131" cy="1638" r="5" fill="green" stroke="none" /><circle cx="1726" cy="691" r="5" fill="green" stroke="none" /><circle cx="1075" cy="379" r="5" fill="green" stroke="none" /><circle cx="2623" cy="578" r="5" fill="green" stroke="none" /><circle cx="3510" cy="727" r="5" fill="green" stroke="none" /><circle cx="4541" cy="335" r="5" fill="green" stroke="none" /><circle cx="1162" cy="311" r="5" fill="green" stroke="none" /><circle cx="3595" cy="1627" r="5" fill="green" stroke="none" /><circle cx="5498" cy="126" r="5" fill="green" stroke="none" /><circle cx="409" cy="107" r="5" fill="green" stroke="none" /><circle cx="4148" cy="74" r="5" fill="green" stroke="none" /><circle cx="134" cy="529" r="5" fill="green" stroke="none" /><circle cx="3258" cy="1466" r="5" fill="green" stroke="none" /><circle cx="5465" cy="272" r="5" fill="green" stroke="none" /><circle cx="4240" cy="1295" r="5" fill="green" stroke="none" /><circle cx="3854" cy="530" r="5" fill="green" stroke="none" /><circle cx="2482" cy="509" r="5" fill="green" stroke="none" /><circle cx="3437" cy="331" r="5" fill="green" stroke="none" /><circle cx="1790" cy="77" r="5" fill="green" stroke="none" /><circle cx="1841" cy="103" r="5" fill="green" stroke="none" /><circle cx="3923" cy="473" r="5" fill="green" stroke="none" /><circle cx="1441" cy="1660" r="5" fill="green" stroke="none" /><circle cx="1397" cy="399" r="5" fill="green" stroke="none" /><circle cx="3731" cy="1661" r="5" fill="green" stroke="none" /><circle cx="1061" cy="724" r="5" fill="green" stroke="none" /><circle cx="2651" cy="1611" r="5" fill="green" stroke="none" /><circle cx="830" cy="542" r="5" fill="green" stroke="none" /><circle cx="3220" cy="953" r="5" fill="green" stroke="none" /><circle cx="3818" cy="606" r="5" fill="green" stroke="none" /><circle cx="2878" cy="506" r="5" fill="green" stroke="none" /><circle cx="99" cy="823" r="5" fill="green" stroke="none" /><circle cx="3279" cy="1361" r="5" fill="green" stroke="none" /><circle cx="1974" cy="127" r="5" fill="green" stroke="none" /><circle cx="3609" cy="1251" r="5" fill="green" stroke="none" /><circle cx="2337" cy="763" r="5" fill="green" stroke="none" /><circle cx="4361" cy="1123" r="5" fill="green" stroke="none" /><circle cx="4877" cy="291" r="5" fill="green" stroke="none" /><circle cx="5406" cy="965" r="5" fill="green" stroke="none" /><circle cx="5660" cy="972" r="5" fill="green" stroke="none" /><circle cx="4993" cy="226" r="5" fill="green" stroke="none" /><circle cx="3110" cy="1574" r="5" fill="green" stroke="none" /><circle cx="1791" cy="374" r="5" fill="green" stroke="none" /><circle cx="431" cy="418" r="5" fill="green" stroke="none" /><circle cx="4699" cy="332" r="5" fill="green" stroke="none" /><circle cx="5112" cy="1071" r="5" fill="green" stroke="none" /><circle cx="5353" cy="153" r="5" fill="green" stroke="none" /><circle cx="4582" cy="1117" r="5" fill="green" stroke="none" /><circle cx="2143" cy="1603" r="5" fill="green" stroke="none" /><circle cx="2006" cy="354" r="5" fill="green" stroke="none" /><circle cx="1796" cy="389" r="5" fill="green" stroke="none" /><circle cx="3445" cy="616" r="5" fill="green" stroke="none" /><circle cx="1194" cy="515" r="5" fill="green" stroke="none" /><circle cx="3774" cy="1524" r="5" fill="green" stroke="none" /><circle cx="1274" cy="233" r="5" fill="green" stroke="none" /><circle cx="968" cy="3" r="5" fill="green" stroke="none" /><circle cx="2693" cy="1075" r="5" fill="green" stroke="none" /><circle cx="6000" cy="168" r="5" fill="green" stroke="none" /><circle cx="1501" cy="267" r="5" fill="green" stroke="none" /><circle cx="1071" cy="30" r="5" fill="green" stroke="none" /><circle cx="1669" cy="748" r="5" fill="green" stroke="none" /><circle cx="449" cy="1436" r="5" fill="green" stroke="none" /><circle cx="612" cy="566" r="5" fill="green" stroke="none" /><circle cx="1106" cy="1560" r="5" fill="green" stroke="none" /><circle cx="721" cy="1441" r="5" fill="green" stroke="none" /><circle cx="2479" cy="256" r="5" fill="green" stroke="none" /><circle cx="4270" cy="240" r="5" fill="green" stroke="none" /><circle cx="3463" cy="423" r="5" fill="green" stroke="none" /><circle cx="3628" cy="763" r="5" fill="green" stroke="none" /><circle cx="3842" cy="1161" r="5" fill="green" stroke="none" /><circle cx="2707" cy="1113" r="5" fill="green" stroke="none" /><circle cx="2918" cy="1612" r="5" fill="green" stroke="none" /><circle cx="1067" cy="1424" r="5" fill="green" stroke="none" /><circle cx="2450" cy="810" r="5" fill="green" stroke="none" /><circle cx="5602" cy="501" r="5" fill="green" stroke="none" /><circle cx="5110" cy="167" r="5" fill="green" stroke="none" /><circle cx="839" cy="610" r="5" fill="green" stroke="none" /><circle cx="76" cy="1610" r="5" fill="green" stroke="none" /><circle cx="4863" cy="992" r="5" fill="green" stroke="none" /><circle cx="599" cy="1221" r="5" fill="green" stroke="none" /><circle cx="3126" cy="1181" r="5" fill="green" stroke="none" /><circle cx="2681" cy="1499" r="5" fill="green" stroke="none" /><circle cx="650" cy="1526" r="5" fill="green" stroke="none" /><circle cx="4139" cy="925" r="5" fill="green" stroke="none" /><circle cx="1483" cy="271" r="5" fill="green" stroke="none" /><circle cx="1933" cy="1414" r="5" fill="green" stroke="none" /><circle cx="3005" cy="1594" r="5" fill="green" stroke="none" /><circle cx="3397" cy="514" r="5" fill="green" stroke="none" /><circle cx="782" cy="1558" r="5" fill="green" stroke="none" /><circle cx="1874" cy="804" r="5" fill="green" stroke="none" /><circle cx="3370" cy="1167" r="5" fill="green" stroke="none" /><circle cx="4756" cy="8" r="5" fill="green" stroke="none" /><circle cx="2744" cy="122" r="5" fill="green" stroke="none" /><circle cx="1361" cy="548" r="5" fill="green" stroke="none" /><circle cx="3417" cy="965" r="5" fill="green" stroke="none" /><circle cx="910" cy="694" r="5" fill="green" stroke="none" /><circle cx="2802" cy="663" r="5" fill="green" stroke="none" /><circle cx="2482" cy="1464" r="5" fill="green" stroke="none" /><circle cx="1563" cy="290" r="5" fill="green" stroke="none" /><circle cx="5319" cy="445" r="5" fill="green" stroke="none" /><circle cx="1288" cy="560" r="5" fill="green" stroke="none" /><circle cx="341" cy="27" r="5" fill="green" stroke="none" /><circle cx="1844" cy="411" r="5" fill="green" stroke="none" /><circle cx="4128" cy="1625" r="5" fill="green" stroke="none" /><circle cx="1867" cy="187" r="5" fill="green" stroke="none" /><circle cx="1653" cy="1576" r="5" fill="green" stroke="none" /><circle cx="5435" cy="61" r="5" fill="green" stroke="none" /><circle cx="2640" cy="26" r="5" fill="green" stroke="none" /><circle cx="621" cy="81" r="5" fill="green" stroke="none" /><circle cx="995" cy="165" r="5" fill="green" stroke="none" /><circle cx="4706" cy="577" r="5" fill="green" stroke="none" /><circle cx="575" cy="175" r="5" fill="green" stroke="none" /><circle cx="4179" cy="1008" r="5" fill="green" stroke="none" /><circle cx="4740" cy="834" r="5" fill="green" stroke="none" /><circle cx="3250" cy="547" r="5" fill="green" stroke="none" /><circle cx="2094" cy="478" r="5" fill="green" stroke="none" /><circle cx="5131" cy="953" r="5" fill="green" stroke="none" /><circle cx="2525" cy="1457" r="5" fill="green" stroke="none" /><circle cx="4197" cy="586" r="5" fill="green" stroke="none" /><circle cx="3213" cy="626" r="5" fill="green" stroke="none" /><circle cx="4242" cy="446" r="5" fill="green" stroke="none" /><circle cx="4130" cy="1636" r="5" fill="green" stroke="none" /><circle cx="2562" cy="1003" r="5" fill="green" stroke="none" /><circle cx="596" cy="18" r="5" fill="green" stroke="none" /><circle cx="1800" cy="405" r="5" fill="green" stroke="none" /><circle cx="2102" cy="755" r="5" fill="green" stroke="none" /><circle cx="3797" cy="137" r="5" fill="green" stroke="none" /><circle cx="21" cy="401" r="5" fill="green" stroke="none" /><circle cx="2820" cy="1418" r="5" fill="green" stroke="none" /><circle cx="2628" cy="776" r="5" fill="green" stroke="none" /><circle cx="2433" cy="529" r="5" fill="green" stroke="none" /><circle cx="1529" cy="1603" r="5" fill="green" stroke="none" /><circle cx="3555" cy="1175" r="5" fill="green" stroke="none" /><circle cx="3023" cy="1272" r="5" fill="green" stroke="none" /><circle cx="2138" cy="19" r="5" fill="green" stroke="none" /><circle cx="2280" cy="549" r="5" fill="green" stroke="none" /><circle cx="3145" cy="98" r="5" fill="green" stroke="none" /><circle cx="0" cy="107" r="5" fill="green" stroke="none" /><circle cx="24" cy="276" r="5" fill="green" stroke="none" /><circle cx="3942" cy="609" r="5" fill="green" stroke="none" /><circle cx="2877" cy="131" r="5" fill="green" stroke="none" /><circle cx="1434" cy="42" r="5" fill="green" stroke="none" /><circle cx="720" cy="906" r="5" fill="green" stroke="none" /><circle cx="2889" cy="141" r="5" fill="green" stroke="none" /><circle cx="366" cy="805" r="5" fill="green" stroke="none" /><circle cx="3547" cy="1653" r="5" fill="green" stroke="none" /><circle cx="3695" cy="754" r="5" fill="green" stroke="none" /><circle cx="2721" cy="581" r="5" fill="green" stroke="none" /><circle cx="4216" cy="319" r="5" fill="green" stroke="none" /><circle cx="846" cy="804" r="5" fill="green" stroke="none" /><circle cx="1337" cy="256" r="5" fill="green" stroke="none" /><circle cx="783" cy="180" r="5" fill="green" stroke="none" /><circle cx="1389" cy="1517" r="5" fill="green" stroke="none" /><circle cx="1245" cy="651" r="5" fill="green" stroke="none" /><circle cx="2849" cy="662" r="5" fill="green" stroke="none" /><circle cx="1732" cy="565" r="5" fill="green" stroke="none" /><circle cx="1196" cy="1487" r="5" fill="green" stroke="none" /><circle cx="441" cy="1433" r="5" fill="green" stroke="none" /><circle cx="1304" cy="818" r="5" fill="green" stroke="none" /><circle cx="2697" cy="1349" r="5" fill="green" stroke="none" /><circle cx="2787" cy="1324" r="5" fill="green" stroke="none" /><circle cx="1708" cy="561" r="5" fill="green" stroke="none" /><circle cx="1612" cy="511" r="5" fill="green" stroke="none" /><circle cx="679" cy="1554" r="5" fill="green" stroke="none" /><circle cx="2230" cy="854" r="5" fill="green" stroke="none" /><circle cx="3346" cy="1477" r="5" fill="green" stroke="none" /><circle cx="85" cy="1089" r="5" fill="green" stroke="none" /><circle cx="1767" cy="148" r="5" fill="green" stroke="none" /><circle cx="4657" cy="407" r="5" fill="green" stroke="none" /><circle cx="1078" cy="158" r="69" fill="red" stroke="none" /><circle cx="4738" cy="1093" r="8" fill="red" stroke="none" /><circle cx="2584" cy="374" r="59" fill="red" stroke="none" /><circle cx="5115" cy="767" r="29" fill="red" stroke="none" /><circle cx="1034" cy="65" r="33" fill="red" stroke="none" /><circle cx="5249" cy="1504" r="50" fill="red" stroke="none" /><circle cx="761" cy="583" r="77" fill="red" stroke="none" /><circle cx="2672" cy="881" r="59" fill="red" stroke="none" /><circle cx="3642" cy="928" r="47" fill="red" stroke="none" /><circle cx="3593" cy="956" r="21" fill="red" stroke="none" /><circle cx="5587" cy="73" r="71" fill="red" stroke="none" /><circle cx="5454" cy="1159" r="61" fill="red" stroke="none" /><circle cx="5178" cy="73" r="27" fill="red" stroke="none" /><circle cx="3504" cy="1408" r="41" fill="red" stroke="none" /><circle cx="4863" cy="1496" r="12" fill="red" stroke="none" /><circle cx="997" cy="655" r="40" fill="red" stroke="none" /><circle cx="911" cy="88" r="73" fill="red" stroke="none" /><circle cx="3220" cy="870" r="24" fill="red" stroke="none" /><circle cx="5253" cy="875" r="75" fill="red" stroke="none" /><circle cx="308" cy="663" r="84" fill="red" stroke="none" /><circle cx="2703" cy="1549" r="28" fill="red" stroke="none" /><circle cx="32" cy="1201" r="8" fill="red" stroke="none" /><circle cx="4391" cy="831" r="55" fill="red" stroke="none" /><circle cx="1247" cy="313" r="36" fill="red" stroke="none" /><circle cx="2829" cy="146" r="36" fill="red" stroke="none" /><circle cx="4227" cy="524" r="24" fill="red" stroke="none" /><circle cx="3054" cy="252" r="60" fill="red" stroke="none" /><circle cx="5355" cy="735" r="11" fill="red" stroke="none" /><circle cx="3193" cy="238" r="78" fill="red" stroke="none" /><circle cx="509" cy="1302" r="30" fill="red" stroke="none" /><circle cx="3133" cy="1053" r="35" fill="red" stroke="none" /><circle cx="5946" cy="1177" r="7" fill="red" stroke="none" /><circle cx="2726" cy="1174" r="59" fill="red" stroke="none" /><circle cx="4915" cy="1170" r="23" fill="red" stroke="none" /><circle cx="2980" cy="700" r="13" fill="red" stroke="none" /><circle cx="4362" cy="312" r="61" fill="red" stroke="none" /><circle cx="3506" cy="781" r="7" fill="red" stroke="none" /><circle cx="942" cy="1502" r="49" fill="red" stroke="none" /><circle cx="5685" cy="1342" r="65" fill="red" stroke="none" /><circle cx="3387" cy="1505" r="38" fill="red" stroke="none" /><circle cx="4037" cy="655" r="14" fill="red" stroke="none" /><circle cx="370" cy="268" r="51" fill="red" stroke="none" /><circle cx="692" cy="363" r="37" fill="red" stroke="none" /><circle cx="2719" cy="338" r="32" fill="red" stroke="none" /><circle cx="914" cy="116" r="62" fill="red" stroke="none" /><circle cx="5152" cy="277" r="39" fill="red" stroke="none" /><circle cx="1197" cy="1575" r="17" fill="red" stroke="none" /><circle cx="3070" cy="910" r="34" fill="red" stroke="none" /><circle cx="827" cy="96" r="81" fill="red" stroke="none" /><circle cx="581" cy="1368" r="54" fill="red" stroke="none" /><circle cx="4581" cy="1436" r="70" fill="red" stroke="none" /><circle cx="2907" cy="247" r="33" fill="red" stroke="none" /><circle cx="5360" cy="1496" r="68" fill="red" stroke="none" /><circle cx="3561" cy="356" r="81" fill="red" stroke="none" /><circle cx="189" cy="1162" r="82" fill="red" stroke="none" /><circle cx="3563" cy="1008" r="55" fill="red" stroke="none" /><circle cx="228" cy="1265" r="61" fill="red" stroke="none" /><circle cx="5555" cy="412" r="78" fill="red" stroke="none" /><circle cx="199" cy="1192" r="20" fill="red" stroke="none" /><circle cx="5243" cy="62" r="46" fill="red" stroke="none" /><circle cx="6015" cy="1168" r="44" fill="red" stroke="none" /><circle cx="24" cy="820" r="19" fill="red" stroke="none" /><circle cx="2564" cy="531" r="42" fill="red" stroke="none" /><circle cx="2765" cy="184" r="30" fill="red" stroke="none" /><circle cx="119" cy="83" r="83" fill="red" stroke="none" /><circle cx="4597" cy="1358" r="72" fill="red" stroke="none" /><circle cx="639" cy="1355" r="30" fill="red" stroke="none" /><circle cx="2583" cy="675" r="17" fill="red" stroke="none" /><circle cx="1724" cy="1593" r="15" fill="red" stroke="none" /><circle cx="3808" cy="830" r="33" fill="red" stroke="none" /><circle cx="4854" cy="1441" r="41" fill="red" stroke="none" /><circle cx="3735" cy="1238" r="34" fill="red" stroke="none" /><circle cx="4589" cy="1483" r="8" fill="red" stroke="none" /><circle cx="3892" cy="708" r="61" fill="red" stroke="none" /><circle cx="5423" cy="1608" r="35" fill="red" stroke="none" /><circle cx="3770" cy="836" r="20" fill="red" stroke="none" /><circle cx="2495" cy="389" r="47" fill="red" stroke="none" /><circle cx="3477" cy="976" r="54" fill="red" stroke="none" /><circle cx="4652" cy="734" r="12" fill="red" stroke="none" /><circle cx="3495" cy="482" r="34" fill="red" stroke="none" /><circle cx="4812" cy="907" r="27" fill="red" stroke="none" /><circle cx="3951" cy="127" r="46" fill="red" stroke="none" /><circle cx="3490" cy="1495" r="16" fill="red" stroke="none" /><circle cx="4939" cy="407" r="42" fill="red" stroke="none" /><circle cx="5344" cy="204" r="42" fill="red" stroke="none" /><circle cx="1611" cy="549" r="18" fill="red" stroke="none" /><circle cx="2465" cy="607" r="75" fill="red" stroke="none" /><circle cx="2907" cy="334" r="72" fill="red" stroke="none" /><circle cx="5587" cy="1441" r="46" fill="red" stroke="none" /><circle cx="4288" cy="706" r="25" fill="red" stroke="none" /><circle cx="414" cy="669" r="52" fill="red" stroke="none" /><circle cx="492" cy="672" r="31" fill="red" stroke="none" /><circle cx="3103" cy="1435" r="43" fill="red" stroke="none" /><circle cx="2620" cy="1250" r="18" fill="red" stroke="none" /><circle cx="2107" cy="292" r="62" fill="red" stroke="none" /><circle cx="2287" cy="1593" r="66" fill="red" stroke="none" /><circle cx="3841" cy="750" r="40" fill="red" stroke="none" /><circle cx="1843" cy="1439" r="25" fill="red" stroke="none" /><circle cx="1550" cy="719" r="72" fill="red" stroke="none" /><circle cx="4480" cy="716" r="81" fill="red" stroke="none" /><circle cx="2426" cy="174" r="42" fill="red" stroke="none" /><circle cx="3258" cy="910" r="43" fill="red" stroke="none" /><circle cx="3389" cy="129" r="21" fill="red" stroke="none" /><circle cx="4697" cy="678" r="69" fill="red" stroke="none" /><circle cx="80" cy="729" r="22" fill="red" stroke="none" /><circle cx="3797" cy="1392" r="62" fill="red" stroke="none" /><circle cx="3175" cy="369" r="33" fill="red" stroke="none" /><circle cx="544" cy="587" r="6" fill="red" stroke="none" /><circle cx="4686" cy="1519" r="5" fill="red" stroke="none" /><circle cx="5551" cy="1249" r="81" fill="red" stroke="none" /><circle cx="5415" cy="1295" r="67" fill="red" stroke="none" /><circle cx="436" cy="1609" r="52" fill="red" stroke="none" /><circle cx="543" cy="834" r="7" fill="red" stroke="none" /><circle cx="4692" cy="816" r="20" fill="red" stroke="none" /><circle cx="3001" cy="909" r="24" fill="red" stroke="none" /><circle cx="3041" cy="574" r="69" fill="red" stroke="none" /><circle cx="1230" cy="450" r="22" fill="red" stroke="none" /><circle cx="728" cy="750" r="35" fill="red" stroke="none" /><circle cx="2980" cy="1391" r="17" fill="red" stroke="none" /><circle cx="5504" cy="921" r="54" fill="red" stroke="none" /><circle cx="2102" cy="633" r="76" fill="red" stroke="none" /><circle cx="621" cy="466" r="80" fill="red" stroke="none" /><circle cx="854" cy="154" r="41" fill="red" stroke="none" /><circle cx="1806" cy="293" r="14" fill="red" stroke="none" /><circle cx="4419" cy="1368" r="18" fill="red" stroke="none" /><circle cx="5412" cy="1052" r="47" fill="red" stroke="none" /><circle cx="1114" cy="1602" r="37" fill="red" stroke="none" /><circle cx="3991" cy="1220" r="57" fill="red" stroke="none" /><circle cx="681" cy="188" r="56" fill="red" stroke="none" /><circle cx="2838" cy="1075" r="75" fill="red" stroke="none" /><circle cx="5419" cy="435" r="72" fill="red" stroke="none" /><circle cx="5634" cy="1262" r="9" fill="red" stroke="none" /><circle cx="2401" cy="1526" r="18" fill="red" stroke="none" /><circle cx="3026" cy="617" r="7" fill="red" stroke="none" /><circle cx="525" cy="834" r="45" fill="red" stroke="none" /><circle cx="5723" cy="930" r="42" fill="red" stroke="none" /><circle cx="3070" cy="296" r="38" fill="red" stroke="none" /><circle cx="453" cy="268" r="22" fill="red" stroke="none" /><circle cx="151" cy="670" r="66" fill="red" stroke="none" /><circle cx="4466" cy="1234" r="73" fill="red" stroke="none" /><circle cx="728" cy="775" r="60" fill="red" stroke="none" /><circle cx="192" cy="1179" r="82" fill="red" stroke="none" /><circle cx="520" cy="479" r="17" fill="red" stroke="none" /><circle cx="4113" cy="226" r="43" fill="red" stroke="none" /><circle cx="4873" cy="1176" r="16" fill="red" stroke="none" /></svg>