<svg viewBox="0 0 3016 4070" xmlns="http://www.w3.org/2000/svg"><rect x="0" y="0" width="3016" height="4070" fill="lightyellow" stroke="none "/><rect x="636" y="1274" width="642" height="1140" fill="white" stroke="black "/><circle cx="2864" cy="1770" r="5" fill="green" stroke="none" /><circle cx="3006" cy="3668" r="5" fill="green" stroke="none" /><circle cx="1572" cy="1448" r="5" fill="green" stroke="none" /><circle cx="208" cy="2522" r="5" fill="green" stroke="none" /><circle cx="444" cy="220" r="5" fill="green" stroke="none" /><circle cx="756" cy="208" r="5" fill="green" stroke="none" /><circle cx="1362" cy="4031" r="5" fill="green" stroke="none" /><circle cx="2625" cy="1857" r="5" fill="green" stroke="none" /><circle cx="1114" cy="767" r="5" fill="green" stroke="none" /><circle cx="2745" cy="2660" r="5" fill="green" stroke="none" /><circle cx="3001" cy="1680" r="5" fill="green" stroke="none" /><circle cx="743" cy="2567" r="5" fill="green" stroke="none" /><circle cx="2593" cy="2465" r="5" fill="green" stroke="none" /><circle cx="821" cy="3594" r="5" fill="green" stroke="none" /><circle cx="1988" cy="2106" r="5" fill="green" stroke="none" /><circle cx="2499" cy="1224" r="5" fill="green" stroke="none" /><circle cx="1585" cy="2796" r="5" fill="green" stroke="none" /><circle cx="23" cy="3929" r="5" fill="green" stroke="none" /><circle cx="2462" cy="1121" r="5" fill="green" stroke="none" /><circle cx="760" cy="835" r="5" fill="green" stroke="none" /><circle cx="1836" cy="779" r="5" fill="green" stroke="none" /><circle cx="1904" cy="2058" r="5" fill="green" stroke="none" /><circle cx="2280" cy="3184" r="5" fill="green" stroke="none" /><circle cx="1714" cy="1409" r="5" fill="green" stroke="none" /><circle cx="538" cy="1422" r="5" fill="green" stroke="none" /><circle cx="2296" cy="2279" r="5" fill="green" stroke="none" /><circle cx="1381" cy="1064" r="5" fill="green" stroke="none" /><circle cx="848" cy="3751" r="5" fill="green" stroke="none" /><circle cx="23" cy="4001" r="5" fill="green" stroke="none" /><circle cx="1620" cy="444" r="5" fill="green" stroke="none" /><circle cx="488" cy="983" r="5" fill="green" stroke="none" /><circle cx="349" cy="1557" r="5" fill="green" stroke="none" /><circle cx="2304" cy="3160" r="5" fill="green" stroke="none" /><circle cx="1243" cy="1179" r="5" fill="green" stroke="none" /><circle cx="1508" cy="1778" r="5" fill="green" stroke="none" /><circle cx="1820" cy="2881" r="5" fill="green" stroke="none" /><circle cx="1403" cy="2163" r="5" fill="green" stroke="none" /><circle cx="748" cy="2751" r="5" fill="green" stroke="none" /><circle cx="1054" cy="3806" r="5" fill="green" stroke="none" /><circle cx="2545" cy="1634" r="5" fill="green" stroke="none" /><circle cx="1115" cy="2985" r="5" fill="green" stroke="none" /><circle cx="816" cy="320" r="5" fill="green" stroke="none" /><circle cx="2512" cy="1579" r="5" fill="green" stroke="none" /><circle cx="2717" cy="3391" r="5" fill="green" stroke="none" /><circle cx="1900" cy="2165" r="5" fill="green" stroke="none" /><circle cx="250" cy="1940" r="5" fill="green" stroke="none" /><circle cx="1677" cy="2479" r="5" fill="green" stroke="none" /><circle cx="1362" cy="1941" r="5" fill="green" stroke="none" /><circle cx="2834" cy="2071" r="5" fill="green" stroke="none" /><circle cx="406" cy="1740" r="5" fill="green" stroke="none" /><circle cx="154" cy="2600" r="5" fill="green" stroke="none" /><circle cx="627" cy="3969" r="5" fill="green" stroke="none" /><circle cx="508" cy="3684" r="5" fill="green" stroke="none" /><circle cx="1315" cy="90" r="5" fill="green" stroke="none" /><circle cx="397" cy="1385" r="5" fill="green" stroke="none" /><circle cx="1418" cy="991" r="5" fill="green" stroke="none" /><circle cx="93" cy="1599" r="5" fill="green" stroke="none" /><circle cx="2261" cy="1465" r="5" fill="green" stroke="none" /><circle cx="1373" cy="3014" r="5" fill="green" stroke="none" /><circle cx="2465" cy="1902" r="5" fill="green" stroke="none" /><circle cx="469" cy="4069" r="5" fill="green" stroke="none" /><circle cx="614" cy="143" r="5" fill="green" stroke="none" /><circle cx="1845" cy="2700" r="5" fill="green" stroke="none" /><circle cx="2148" cy="2666" r="5" fill="green" stroke="none" /><circle cx="1539" cy="121" r="5" fill="green" stroke="none" /><circle cx="708" cy="525" r="5" fill="green" stroke="none" /><circle cx="2440" cy="2026" r="5" fill="green" stroke="none" /><circle cx="503" cy="3548" r="5" fill="green" stroke="none" /><circle cx="2493" cy="2759" r="5" fill="green" stroke="none" /><circle cx="1411" cy="800" r="5" fill="green" stroke="none" /><circle cx="86" cy="2917" r="5" fill="green" stroke="none" /><circle cx="391" cy="1673" r="5" fill="green" stroke="none" /><circle cx="2323" cy="1674" r="5" fill="green" stroke="none" /><circle cx="2000" cy="3309" r="5" fill="green" stroke="none" /><circle cx="1431" cy="2677" r="5" fill="green" stroke="none" /><circle cx="1133" cy="2679" r="5" fill="green" stroke="none" /><circle cx="526" cy="3056" r="5" fill="green" stroke="none" /><circle cx="288" cy="3084" r="5" fill="green" stroke="none" /><circle cx="2198" cy="1222" r="5" fill="green" stroke="none" /><circle cx="875" cy="2822" r="5" fill="green" stroke="none" /><circle cx="2028" cy="2173" r="5" fill="green" stroke="none" /><circle cx="1833" cy="438" r="5" fill="green" stroke="none" /><circle cx="1229" cy="3216" r="5" fill="green" stroke="none" /><circle cx="2198" cy="1200" r="5" fill="green" stroke="none" /><circle cx="653" cy="2484" r="5" fill="green" stroke="none" /><circle cx="2323" cy="2062" r="5" fill="green" stroke="none" /><circle cx="784" cy="2512" r="5" fill="green" stroke="none" /><circle cx="54" cy="3484" r="5" fill="green" stroke="none" /><circle cx="1734" cy="309" r="5" fill="green" stroke="none" /><circle cx="2352" cy="2074" r="5" fill="green" stroke="none" /><circle cx="1886" cy="693" r="5" fill="green" stroke="none" /><circle cx="1710" cy="3604" r="5" fill="green" stroke="none" /><circle cx="556" cy="3846" r="5" fill="green" stroke="none" /><circle cx="1701" cy="1043" r="5" fill="green" stroke="none" /><circle cx="1660" cy="701" r="5" fill="green" stroke="none" /><circle cx="2593" cy="2468" r="5" fill="green" stroke="none" /><circle cx="1260" cy="2930" r="5" fill="green" stroke="none" /><circle cx="2639" cy="3653" r="5" fill="green" stroke="none" /><circle cx="1649" cy="153" r="5" fill="green" stroke="none" /><circle cx="2578" cy="700" r="5" fill="green" stroke="none" /><circle cx="2714" cy="1669" r="5" fill="green" stroke="none" /><circle cx="2162" cy="1945" r="5" fill="green" stroke="none" /><circle cx="2999" cy="2956" r="5" fill="green" stroke="none" /><circle cx="2437" cy="3184" r="5" fill="green" stroke="none" /><circle cx="1491" cy="2167" r="5" fill="green" stroke="none" /><circle cx="2969" cy="3310" r="5" fill="green" stroke="none" /><circle cx="272" cy="1936" r="5" fill="green" stroke="none" /><circle cx="1555" cy="756" r="5" fill="green" stroke="none" /><circle cx="1733" cy="3143" r="5" fill="green" stroke="none" /><circle cx="12" cy="2624" r="5" fill="green" stroke="none" /><circle cx="2500" cy="1396" r="5" fill="green" stroke="none" /><circle cx="1688" cy="2990" r="5" fill="green" stroke="none" /><circle cx="1066" cy="2444" r="5" fill="green" stroke="none" /><circle cx="1726" cy="2521" r="5" fill="green" stroke="none" /><circle cx="1779" cy="345" r="5" fill="green" stroke="none" /><circle cx="3013" cy="2773" r="5" fill="green" stroke="none" /><circle cx="840" cy="515" r="5" fill="green" stroke="none" /><circle cx="884" cy="3155" r="5" fill="green" stroke="none" /><circle cx="2160" cy="3512" r="5" fill="green" stroke="none" /><circle cx="28" cy="2348" r="5" fill="green" stroke="none" /><circle cx="109" cy="2927" r="5" fill="green" stroke="none" /><circle cx="662" cy="2782" r="5" fill="green" stroke="none" /><circle cx="1741" cy="2074" r="5" fill="green" stroke="none" /><circle cx="2954" cy="3705" r="5" fill="green" stroke="none" /><circle cx="2815" cy="2514" r="5" fill="green" stroke="none" /><circle cx="2196" cy="3528" r="5" fill="green" stroke="none" /><circle cx="2607" cy="507" r="5" fill="green" stroke="none" /><circle cx="2619" cy="2619" r="5" fill="green" stroke="none" /><circle cx="954" cy="3165" r="5" fill="green" stroke="none" /><circle cx="466" cy="2016" r="5" fill="green" stroke="none" /><circle cx="297" cy="2245" r="5" fill="green" stroke="none" /><circle cx="1346" cy="956" r="5" fill="green" stroke="none" /><circle cx="2435" cy="238" r="5" fill="green" stroke="none" /><circle cx="632" cy="1843" r="5" fill="green" stroke="none" /><circle cx="2675" cy="583" r="5" fill="green" stroke="none" /><circle cx="2243" cy="1738" r="5" fill="green" stroke="none" /><circle cx="964" cy="2436" r="5" fill="green" stroke="none" /><circle cx="1423" cy="3577" r="5" fill="green" stroke="none" /><circle cx="2283" cy="2599" r="5" fill="green" stroke="none" /><circle cx="1593" cy="306" r="5" fill="green" stroke="none" /><circle cx="23" cy="709" r="5" fill="green" stroke="none" /><circle cx="1456" cy="682" r="5" fill="green" stroke="none" /><circle cx="1109" cy="3632" r="5" fill="green" stroke="none" /><circle cx="5" cy="1237" r="5" fill="green" stroke="none" /><circle cx="673" cy="3494" r="5" fill="green" stroke="none" /><circle cx="361" cy="1114" r="5" fill="green" stroke="none" /><circle cx="1516" cy="482" r="5" fill="green" stroke="none" /><circle cx="2115" cy="1825" r="5" fill="green" stroke="none" /><circle cx="548" cy="2234" r="5" fill="green" stroke="none" /><circle cx="1177" cy="2783" r="5" fill="green" stroke="none" /><circle cx="340" cy="1719" r="5" fill="green" stroke="none" /><circle cx="890" cy="3183" r="5" fill="green" stroke="none" /><circle cx="1467" cy="3266" r="5" fill="green" stroke="none" /><circle cx="339" cy="1609" r="5" fill="green" stroke="none" /><circle cx="2648" cy="1012" r="5" fill="green" stroke="none" /><circle cx="1734" cy="1354" r="5" fill="green" stroke="none" /><circle cx="2750" cy="1904" r="5" fill="green" stroke="none" /><circle cx="2145" cy="1910" r="5" fill="green" stroke="none" /><circle cx="2096" cy="3832" r="5" fill="green" stroke="none" /><circle cx="86" cy="236" r="5" fill="green" stroke="none" /><circle cx="793" cy="92" r="5" fill="green" stroke="none" /><circle cx="587" cy="2053" r="5" fill="green" stroke="none" /><circle cx="604" cy="1219" r="5" fill="green" stroke="none" /><circle cx="2318" cy="2044" r="5" fill="green" stroke="none" /><circle cx="1749" cy="2916" r="5" fill="green" stroke="none" /><circle cx="1492" cy="62" r="5" fill="green" stroke="none" /><circle cx="1860" cy="2135" r="5" fill="green" stroke="none" /><circle cx="1028" cy="1037" r="5" fill="green" stroke="none" /><circle cx="322" cy="2423" r="5" fill="green" stroke="none" /><circle cx="688" cy="3033" r="5" fill="green" stroke="none" /><circle cx="2050" cy="1161" r="5" fill="green" stroke="none" /><circle cx="672" cy="83" r="5" fill="green" stroke="none" /><circle cx="372" cy="2669" r="5" fill="green" stroke="none" /><circle cx="521" cy="3562" r="5" fill="green" stroke="none" /><circle cx="1096" cy="2500" r="5" fill="green" stroke="none" /><circle cx="1739" cy="1448" r="5" fill="green" stroke="none" /><circle cx="1885" cy="1904" r="5" fill="green" stroke="none" /><circle cx="279" cy="2985" r="5" fill="green" stroke="none" /><circle cx="1022" cy="3673" r="5" fill="green" stroke="none" /><circle cx="913" cy="3495" r="5" fill="green" stroke="none" /><circle cx="629" cy="3077" r="5" fill="green" stroke="none" /><circle cx="771" cy="214" r="5" fill="green" stroke="none" /><circle cx="2544" cy="3801" r="5" fill="green" stroke="none" /><circle cx="818" cy="373" r="5" fill="green" stroke="none" /><circle cx="1753" cy="1537" r="5" fill="green" stroke="none" /><circle cx="770" cy="826" r="5" fill="green" stroke="none" /><circle cx="418" cy="2000" r="5" fill="green" stroke="none" /><circle cx="2693" cy="2120" r="5" fill="green" stroke="none" /><circle cx="353" cy="3662" r="5" fill="green" stroke="none" /><circle cx="495" cy="940" r="5" fill="green" stroke="none" /><circle cx="2014" cy="1431" r="5" fill="green" stroke="none" /><circle cx="1689" cy="920" r="5" fill="green" stroke="none" /><circle cx="1976" cy="1180" r="5" fill="green" stroke="none" /><circle cx="1402" cy="1480" r="5" fill="green" stroke="none" /><circle cx="1624" cy="2485" r="5" fill="green" stroke="none" /><circle cx="1284" cy="2945" r="5" fill="green" stroke="none" /><circle cx="527" cy="4020" r="5" fill="green" stroke="none" /><circle cx="208" cy="1898" r="5" fill="green" stroke="none" /><circle cx="1857" cy="234" r="5" fill="green" stroke="none" /><circle cx="1835" cy="817" r="5" fill="green" stroke="none" /><circle cx="2508" cy="2681" r="5" fill="green" stroke="none" /><circle cx="2129" cy="4046" r="5" fill="green" stroke="none" /><circle cx="1489" cy="3229" r="5" fill="green" stroke="none" /><circle cx="1748" cy="2038" r="5" fill="green" stroke="none" /><circle cx="1493" cy="1479" r="5" fill="green" stroke="none" /><circle cx="316" cy="2404" r="5" fill="green" stroke="none" /><circle cx="458" cy="2366" r="5" fill="green" stroke="none" /><circle cx="584" cy="919" r="5" fill="green" stroke="none" /><circle cx="2948" cy="2755" r="5" fill="green" stroke="none" /><circle cx="2623" cy="452" r="5" fill="green" stroke="none" /><circle cx="2369" cy="118" r="5" fill="green" stroke="none" /><circle cx="2547" cy="535" r="5" fill="green" stroke="none" /><circle cx="950" cy="3504" r="5" fill="green" stroke="none" /><circle cx="2440" cy="1075" r="5" fill="green" stroke="none" /><circle cx="417" cy="2712" r="5" fill="green" stroke="none" /><circle cx="26" cy="2540" r="5" fill="green" stroke="none" /><circle cx="428" cy="2257" r="5" fill="green" stroke="none" /><circle cx="2127" cy="1494" r="5" fill="green" stroke="none" /><circle cx="409" cy="2262" r="5" fill="green" stroke="none" /><circle cx="1799" cy="384" r="5" fill="green" stroke="none" /><circle cx="188" cy="2625" r="5" fill="green" stroke="none" /><circle cx="2957" cy="1293" r="5" fill="green" stroke="none" /><circle cx="1863" cy="1140" r="5" fill="green" stroke="none" /><circle cx="1996" cy="826" r="5" fill="green" stroke="none" /><circle cx="1936" cy="1000" r="5" fill="green" stroke="none" /><circle cx="422" cy="2030" r="5" fill="green" stroke="none" /><circle cx="2135" cy="2741" r="5" fill="green" stroke="none" /><circle cx="560" cy="3165" r="5" fill="green" stroke="none" /><circle cx="1569" cy="2026" r="5" fill="green" stroke="none" /><circle cx="2240" cy="1946" r="5" fill="green" stroke="none" /><circle cx="2075" cy="3900" r="5" fill="green" stroke="none" /><circle cx="1158" cy="3862" r="5" fill="green" stroke="none" /><circle cx="2099" cy="1992" r="5" fill="green" stroke="none" /><circle cx="578" cy="408" r="5" fill="green" stroke="none" /><circle cx="725" cy="3377" r="5" fill="green" stroke="none" /><circle cx="2250" cy="1472" r="5" fill="green" stroke="none" /><circle cx="1973" cy="475" r="5" fill="green" stroke="none" /><circle cx="2173" cy="1795" r="5" fill="green" stroke="none" /><circle cx="144" cy="930" r="5" fill="green" stroke="none" /><circle cx="1316" cy="1957" r="5" fill="green" stroke="none" /><circle cx="1569" cy="1743" r="5" fill="green" stroke="none" /><circle cx="2263" cy="1968" r="5" fill="green" stroke="none" /><circle cx="565" cy="3529" r="5" fill="green" stroke="none" /><circle cx="358" cy="1225" r="5" fill="green" stroke="none" /><circle cx="367" cy="26" r="5" fill="green" stroke="none" /><circle cx="82" cy="102" r="5" fill="green" stroke="none" /><circle cx="1973" cy="250" r="5" fill="green" stroke="none" /><circle cx="1744" cy="2329" r="5" fill="green" stroke="none" /><circle cx="2022" cy="2301" r="5" fill="green" stroke="none" /><circle cx="1875" cy="117" r="5" fill="green" stroke="none" /><circle cx="1508" cy="2695" r="5" fill="green" stroke="none" /><circle cx="1674" cy="1829" r="5" fill="green" stroke="none" /><circle cx="690" cy="3294" r="5" fill="green" stroke="none" /><circle cx="478" cy="853" r="5" fill="green" stroke="none" /><circle cx="228" cy="3393" r="5" fill="green" stroke="none" /><circle cx="2839" cy="1701" r="5" fill="green" stroke="none" /><circle cx="1193" cy="756" r="5" fill="green" stroke="none" /><circle cx="2270" cy="400" r="5" fill="green" stroke="none" /><circle cx="2371" cy="2519" r="5" fill="green" stroke="none" /><circle cx="1677" cy="1330" r="5" fill="green" stroke="none" /><circle cx="2021" cy="75" r="5" fill="green" stroke="none" /><circle cx="1548" cy="3019" r="5" fill="green" stroke="none" /><circle cx="2529" cy="3990" r="5" fill="green" stroke="none" /><circle cx="768" cy="3425" r="5" fill="green" stroke="none" /><circle cx="1675" cy="2822" r="5" fill="green" stroke="none" /><circle cx="720" cy="2436" r="5" fill="green" stroke="none" /><circle cx="220" cy="2509" r="5" fill="green" stroke="none" /><circle cx="592" cy="3475" r="5" fill="green" stroke="none" /><circle cx="1841" cy="1330" r="5" fill="green" stroke="none" /><circle cx="1940" cy="2125" r="5" fill="green" stroke="none" /><circle cx="752" cy="3487" r="5" fill="green" stroke="none" /><circle cx="2416" cy="1187" r="5" fill="green" stroke="none" /><circle cx="385" cy="1713" r="5" fill="green" stroke="none" /><circle cx="1773" cy="1057" r="5" fill="green" stroke="none" /><circle cx="2403" cy="3322" r="5" fill="green" stroke="none" /><circle cx="1365" cy="3351" r="5" fill="green" stroke="none" /><circle cx="490" cy="3562" r="5" fill="green" stroke="none" /><circle cx="2577" cy="3352" r="5" fill="green" stroke="none" /><circle cx="2443" cy="2493" r="5" fill="green" stroke="none" /><circle cx="1097" cy="2463" r="5" fill="green" stroke="none" /><circle cx="82" cy="2100" r="5" fill="green" stroke="none" /><circle cx="1530" cy="737" r="5" fill="green" stroke="none" /><circle cx="1396" cy="2252" r="5" fill="green" stroke="none" /><circle cx="2557" cy="51" r="5" fill="green" stroke="none" /><circle cx="988" cy="1149" r="5" fill="green" stroke="none" /><circle cx="35" cy="838" r="5" fill="green" stroke="none" /><circle cx="1834" cy="110" r="5" fill="green" stroke="none" /><circle cx="507" cy="276" r="5" fill="green" stroke="none" /><circle cx="1448" cy="1131" r="5" fill="green" stroke="none" /><circle cx="2666" cy="2195" r="5" fill="green" stroke="none" /><circle cx="90" cy="1890" r="5" fill="green" stroke="none" /><circle cx="2346" cy="1018" r="5" fill="green" stroke="none" /><circle cx="2321" cy="2203" r="5" fill="green" stroke="none" /><circle cx="162" cy="2835" r="5" fill="green" stroke="none" /><circle cx="443" cy="3915" r="5" fill="green" stroke="none" /><circle cx="437" cy="1895" r="5" fill="green" stroke="none" /><circle cx="361" cy="346" r="5" fill="green" stroke="none" /><circle cx="1436" cy="1511" r="5" fill="green" stroke="none" /><circle cx="1951" cy="3601" r="5" fill="green" stroke="none" /><circle cx="1220" cy="983" r="5" fill="green" stroke="none" /><circle cx="1630" cy="2684" r="5" fill="green" stroke="none" /><circle cx="284" cy="790" r="5" fill="green" stroke="none" /><circle cx="913" cy="1242" r="5" fill="green" stroke="none" /><circle cx="1621" cy="2443" r="5" fill="green" stroke="none" /><circle cx="2418" cy="637" r="5" fill="green" stroke="none" /><circle cx="1319" cy="529" r="5" fill="green" stroke="none" /><circle cx="1335" cy="2303" r="5" fill="green" stroke="none" /><circle cx="1798" cy="331" r="5" fill="green" stroke="none" /><circle cx="102" cy="1701" r="5" fill="green" stroke="none" /><circle cx="2492" cy="3247" r="5" fill="green" stroke="none" /><circle cx="2659" cy="598" r="5" fill="green" stroke="none" /><circle cx="2041" cy="2494" r="5" fill="green" stroke="none" /><circle cx="2155" cy="2435" r="5" fill="green" stroke="none" /><circle cx="464" cy="3032" r="5" fill="green" stroke="none" /><circle cx="2420" cy="556" r="5" fill="green" stroke="none" /><circle cx="915" cy="3352" r="5" fill="green" stroke="none" /><circle cx="164" cy="72" r="5" fill="green" stroke="none" /><circle cx="2816" cy="392" r="5" fill="green" stroke="none" /><circle cx="1512" cy="196" r="5" fill="green" stroke="none" /><circle cx="940" cy="978" r="5" fill="green" stroke="none" /><circle cx="210" cy="2536" r="5" fill="green" stroke="none" /><circle cx="149" cy="1849" r="5" fill="green" stroke="none" /><circle cx="1734" cy="43" r="5" fill="green" stroke="none" /><circle cx="1164" cy="3472" r="5" fill="green" stroke="none" /><circle cx="791" cy="2731" r="5" fill="green" stroke="none" /><circle cx="1548" cy="2334" r="5" fill="green" stroke="none" /><circle cx="2185" cy="723" r="5" fill="green" stroke="none" /><circle cx="2603" cy="609" r="5" fill="green" stroke="none" /><circle cx="271" cy="879" r="5" fill="green" stroke="none" /><circle cx="806" cy="3882" r="5" fill="green" stroke="none" /><circle cx="2065" cy="2736" r="5" fill="green" stroke="none" /><circle cx="1762" cy="443" r="5" fill="green" stroke="none" /><circle cx="2301" cy="1945" r="5" fill="green" stroke="none" /><circle cx="585" cy="16" r="5" fill="green" stroke="none" /><circle cx="268" cy="1598" r="5" fill="green" stroke="none" /><circle cx="2118" cy="2348" r="5" fill="green" stroke="none" /><circle cx="947" cy="1148" r="5" fill="green" stroke="none" /><circle cx="2881" cy="369" r="5" fill="green" stroke="none" /><circle cx="2285" cy="367" r="5" fill="green" stroke="none" /><circle cx="100" cy="262" r="5" fill="green" stroke="none" /><circle cx="1363" cy="2770" r="5" fill="green" stroke="none" /><circle cx="2469" cy="1894" r="5" fill="green" stroke="none" /><circle cx="2545" cy="3441" r="5" fill="green" stroke="none" /><circle cx="474" cy="1189" r="5" fill="green" stroke="none" /><circle cx="1845" cy="365" r="5" fill="green" stroke="none" /><circle cx="1477" cy="1394" r="5" fill="green" stroke="none" /><circle cx="2889" cy="130" r="5" fill="green" stroke="none" /><circle cx="2270" cy="495" r="5" fill="green" stroke="none" /><circle cx="578" cy="3588" r="5" fill="green" stroke="none" /><circle cx="2539" cy="1385" r="5" fill="green" stroke="none" /><circle cx="2331" cy="2622" r="5" fill="green" stroke="none" /><circle cx="608" cy="3083" r="5" fill="green" stroke="none" /><circle cx="470" cy="2425" r="5" fill="green" stroke="none" /><circle cx="1970" cy="597" r="5" fill="green" stroke="none" /><circle cx="113" cy="2220" r="5" fill="green" stroke="none" /><circle cx="1818" cy="856" r="5" fill="green" stroke="none" /><circle cx="1993" cy="2163" r="5" fill="green" stroke="none" /><circle cx="228" cy="2485" r="5" fill="green" stroke="none" /><circle cx="1649" cy="3268" r="5" fill="green" stroke="none" /><circle cx="2227" cy="2489" r="5" fill="green" stroke="none" /><circle cx="1326" cy="64" r="5" fill="green" stroke="none" /><circle cx="819" cy="302" r="5" fill="green" stroke="none" /><circle cx="1465" cy="3607" r="5" fill="green" stroke="none" /><circle cx="119" cy="2793" r="5" fill="green" stroke="none" /><circle cx="18" cy="2584" r="5" fill="green" stroke="none" /><circle cx="271" cy="3061" r="5" fill="green" stroke="none" /><circle cx="2148" cy="952" r="5" fill="green" stroke="none" /><circle cx="2465" cy="2111" r="5" fill="green" stroke="none" /><circle cx="655" cy="237" r="5" fill="green" stroke="none" /><circle cx="1495" cy="1518" r="5" fill="green" stroke="none" /><circle cx="2346" cy="1535" r="5" fill="green" stroke="none" /><circle cx="897" cy="1022" r="5" fill="green" stroke="none" /><circle cx="206" cy="864" r="5" fill="green" stroke="none" /><circle cx="2822" cy="3398" r="5" fill="green" stroke="none" /><circle cx="246" cy="248" r="5" fill="green" stroke="none" /><circle cx="1948" cy="1456" r="5" fill="green" stroke="none" /><circle cx="2519" cy="2549" r="5" fill="green" stroke="none" /><circle cx="2862" cy="2137" r="5" fill="green" stroke="none" /><circle cx="2805" cy="1008" r="5" fill="green" stroke="none" /><circle cx="1387" cy="2790" r="5" fill="green" stroke="none" /><circle cx="196" cy="3594" r="5" fill="green" stroke="none" /><circle cx="2976" cy="1586" r="5" fill="green" stroke="none" /><circle cx="2394" cy="692" r="5" fill="green" stroke="none" /><circle cx="500" cy="2307" r="5" fill="green" stroke="none" /><circle cx="1691" cy="20" r="5" fill="green" stroke="none" /><circle cx="1808" cy="2561" r="5" fill="green" stroke="none" /><circle cx="2384" cy="1313" r="5" fill="green" stroke="none" /><circle cx="2375" cy="166" r="5" fill="green" stroke="none" /><circle cx="1477" cy="1090" r="5" fill="green" stroke="none" /><circle cx="1733" cy="2070" r="5" fill="green" stroke="none" /><circle cx="2658" cy="2864" r="5" fill="green" stroke="none" /><circle cx="2180" cy="1762" r="5" fill="green" stroke="none" /><circle cx="563" cy="2315" r="5" fill="green" stroke="none" /><circle cx="2580" cy="146" r="5" fill="green" stroke="none" /><circle cx="412" cy="1353" r="5" fill="green" stroke="none" /><circle cx="341" cy="475" r="5" fill="green" stroke="none" /><circle cx="1209" cy="3004" r="5" fill="green" stroke="none" /><circle cx="2834" cy="1842" r="5" fill="green" stroke="none" /><circle cx="1349" cy="1194" r="5" fill="green" stroke="none" /><circle cx="222" cy="846" r="5" fill="green" stroke="none" /><circle cx="347" cy="996" r="5" fill="green" stroke="none" /><circle cx="2856" cy="2886" r="5" fill="green" stroke="none" /><circle cx="2858" cy="59" r="5" fill="green" stroke="none" /><circle cx="2637" cy="2206" r="5" fill="green" stroke="none" /><circle cx="1328" cy="2648" r="5" fill="green" stroke="none" /><circle cx="1796" cy="2083" r="5" fill="green" stroke="none" /><circle cx="534" cy="3581" r="5" fill="green" stroke="none" /><circle cx="2605" cy="407" r="5" fill="green" stroke="none" /><circle cx="1884" cy="2534" r="5" fill="green" stroke="none" /><circle cx="35" cy="2916" r="5" fill="green" stroke="none" /><circle cx="66" cy="2501" r="5" fill="green" stroke="none" /><circle cx="1715" cy="1750" r="5" fill="green" stroke="none" /><circle cx="693" cy="521" r="5" fill="green" stroke="none" /><circle cx="399" cy="2278" r="5" fill="green" stroke="none" /><circle cx="2851" cy="1329" r="5" fill="green" stroke="none" /><circle cx="2675" cy="1022" r="5" fill="green" stroke="none" /><circle cx="959" cy="509" r="5" fill="green" stroke="none" /><circle cx="2562" cy="2233" r="5" fill="green" stroke="none" /><circle cx="2633" cy="1356" r="5" fill="green" stroke="none" /><circle cx="839" cy="3221" r="5" fill="green" stroke="none" /><circle cx="1616" cy="3355" r="5" fill="green" stroke="none" /><circle cx="190" cy="2507" r="5" fill="green" stroke="none" /><circle cx="1879" cy="3332" r="5" fill="green" stroke="none" /><circle cx="2731" cy="2633" r="5" fill="green" stroke="none" /><circle cx="431" cy="1914" r="5" fill="green" stroke="none" /><circle cx="1739" cy="666" r="5" fill="green" stroke="none" /><circle cx="1358" cy="2723" r="5" fill="green" stroke="none" /><circle cx="1873" cy="2591" r="5" fill="green" stroke="none" /><circle cx="599" cy="2881" r="5" fill="green" stroke="none" /><circle cx="2406" cy="379" r="5" fill="green" stroke="none" /><circle cx="138" cy="3881" r="5" fill="green" stroke="none" /><circle cx="277" cy="199" r="5" fill="green" stroke="none" /><circle cx="2955" cy="2280" r="5" fill="green" stroke="none" /><circle cx="337" cy="1385" r="5" fill="green" stroke="none" /><circle cx="2101" cy="1151" r="5" fill="green" stroke="none" /><circle cx="2092" cy="2393" r="5" fill="green" stroke="none" /><circle cx="2959" cy="2477" r="5" fill="green" stroke="none" /><circle cx="2647" cy="3500" r="5" fill="green" stroke="none" /><circle cx="436" cy="1020" r="5" fill="green" stroke="none" /><circle cx="1620" cy="2339" r="5" fill="green" stroke="none" /><circle cx="2662" cy="781" r="5" fill="green" stroke="none" /><circle cx="1099" cy="2808" r="5" fill="green" stroke="none" /><circle cx="1515" cy="2802" r="5" fill="green" stroke="none" /><circle cx="1002" cy="3948" r="5" fill="green" stroke="none" /><circle cx="888" cy="2748" r="5" fill="green" stroke="none" /><circle cx="1984" cy="395" r="5" fill="green" stroke="none" /><circle cx="367" cy="2256" r="5" fill="green" stroke="none" /><circle cx="2057" cy="485" r="5" fill="green" stroke="none" /><circle cx="2397" cy="2699" r="5" fill="green" stroke="none" /><circle cx="340" cy="841" r="5" fill="green" stroke="none" /><circle cx="2597" cy="1141" r="5" fill="green" stroke="none" /><circle cx="434" cy="2553" r="5" fill="green" stroke="none" /><circle cx="508" cy="3094" r="5" fill="green" stroke="none" /><circle cx="1237" cy="2501" r="5" fill="green" stroke="none" /><circle cx="2514" cy="1140" r="5" fill="green" stroke="none" /><circle cx="1452" cy="2223" r="5" fill="green" stroke="none" /><circle cx="1548" cy="3282" r="5" fill="green" stroke="none" /><circle cx="399" cy="516" r="5" fill="green" stroke="none" /><circle cx="1382" cy="1732" r="5" fill="green" stroke="none" /><circle cx="1540" cy="1039" r="5" fill="green" stroke="none" /><circle cx="2240" cy="2272" r="5" fill="green" stroke="none" /><circle cx="2498" cy="2441" r="5" fill="green" stroke="none" /><circle cx="2518" cy="2915" r="5" fill="green" stroke="none" /><circle cx="2750" cy="3409" r="5" fill="green" stroke="none" /><circle cx="2786" cy="3298" r="5" fill="green" stroke="none" /><circle cx="734" cy="2741" r="5" fill="green" stroke="none" /><circle cx="2299" cy="3294" r="5" fill="green" stroke="none" /><circle cx="1257" cy="634" r="5" fill="green" stroke="none" /><circle cx="2346" cy="1556" r="5" fill="green" stroke="none" /><circle cx="599" cy="2977" r="5" fill="green" stroke="none" /><circle cx="1053" cy="778" r="5" fill="green" stroke="none" /><circle cx="1578" cy="2964" r="5" fill="green" stroke="none" /><circle cx="1088" cy="954" r="5" fill="green" stroke="none" /><circle cx="2113" cy="3800" r="5" fill="green" stroke="none" /><circle cx="300" cy="315" r="5" fill="green" stroke="none" /><circle cx="1722" cy="2152" r="5" fill="green" stroke="none" /><circle cx="623" cy="2719" r="5" fill="green" stroke="none" /><circle cx="2890" cy="1910" r="5" fill="green" stroke="none" /><circle cx="138" cy="2711" r="5" fill="green" stroke="none" /><circle cx="393" cy="875" r="5" fill="green" stroke="none" /><circle cx="2771" cy="960" r="5" fill="green" stroke="none" /><circle cx="1017" cy="586" r="5" fill="green" stroke="none" /><circle cx="1683" cy="2035" r="5" fill="green" stroke="none" /><circle cx="2404" cy="957" r="5" fill="green" stroke="none" /><circle cx="128" cy="2534" r="5" fill="green" stroke="none" /><circle cx="935" cy="1003" r="5" fill="green" stroke="none" /><circle cx="2838" cy="2640" r="5" fill="green" stroke="none" /><circle cx="911" cy="3472" r="5" fill="green" stroke="none" /><circle cx="32" cy="949" r="5" fill="green" stroke="none" /><circle cx="1537" cy="1858" r="5" fill="green" stroke="none" /><circle cx="1656" cy="1350" r="5" fill="green" stroke="none" /><circle cx="43" cy="1962" r="5" fill="green" stroke="none" /><circle cx="385" cy="3577" r="5" fill="green" stroke="none" /><circle cx="2180" cy="2861" r="5" fill="green" stroke="none" /><circle cx="243" cy="2200" r="5" fill="green" stroke="none" /><circle cx="1555" cy="2078" r="5" fill="green" stroke="none" /><circle cx="1747" cy="1471" r="5" fill="green" stroke="none" /><circle cx="511" cy="697" r="5" fill="green" stroke="none" /><circle cx="1398" cy="3094" r="5" fill="green" stroke="none" /><circle cx="363" cy="2622" r="5" fill="green" stroke="none" /><circle cx="321" cy="3846" r="5" fill="green" stroke="none" /><circle cx="2527" cy="956" r="5" fill="green" stroke="none" /><circle cx="265" cy="1755" r="5" fill="green" stroke="none" /><circle cx="3011" cy="3425" r="5" fill="green" stroke="none" /><circle cx="672" cy="4028" r="5" fill="green" stroke="none" /><circle cx="835" cy="763" r="5" fill="green" stroke="none" /><circle cx="2522" cy="553" r="5" fill="green" stroke="none" /><circle cx="2906" cy="1225" r="5" fill="green" stroke="none" /><circle cx="577" cy="790" r="5" fill="green" stroke="none" /><circle cx="809" cy="2901" r="5" fill="green" stroke="none" /><circle cx="2444" cy="669" r="5" fill="green" stroke="none" /><circle cx="1795" cy="949" r="5" fill="green" stroke="none" /><circle cx="1239" cy="2421" r="5" fill="green" stroke="none" /><circle cx="63" cy="1951" r="5" fill="green" stroke="none" /><circle cx="2109" cy="3635" r="5" fill="green" stroke="none" /><circle cx="2331" cy="780" r="5" fill="green" stroke="none" /><circle cx="1457" cy="720" r="5" fill="green" stroke="none" /><circle cx="2868" cy="1699" r="5" fill="green" stroke="none" /><circle cx="2025" cy="2900" r="5" fill="green" stroke="none" /><circle cx="2416" cy="163" r="5" fill="green" stroke="none" /><circle cx="119" cy="1454" r="5" fill="green" stroke="none" /><circle cx="2006" cy="543" r="5" fill="green" stroke="none" /><circle cx="309" cy="1535" r="5" fill="green" stroke="none" /><circle cx="116" cy="1259" r="5" fill="green" stroke="none" /><circle cx="911" cy="3894" r="5" fill="green" stroke="none" /><circle cx="1826" cy="2570" r="5" fill="green" stroke="none" /><circle cx="332" cy="2155" r="5" fill="green" stroke="none" /><circle cx="986" cy="3666" r="5" fill="green" stroke="none" /><circle cx="1736" cy="619" r="5" fill="green" stroke="none" /><circle cx="666" cy="3476" r="5" fill="green" stroke="none" /><circle cx="2051" cy="2529" r="5" fill="green" stroke="none" /><circle cx="1752" cy="782" r="5" fill="green" stroke="none" /><circle cx="1406" cy="254" r="5" fill="green" stroke="none" /><circle cx="2831" cy="2200" r="5" fill="green" stroke="none" /><circle cx="2694" cy="3975" r="5" fill="green" stroke="none" /><circle cx="622" cy="1986" r="5" fill="green" stroke="none" /><circle cx="131" cy="1753" r="5" fill="green" stroke="none" /><circle cx="53" cy="3063" r="5" fill="green" stroke="none" /><circle cx="2370" cy="2618" r="5" fill="green" stroke="none" /><circle cx="1356" cy="2435" r="5" fill="green" stroke="none" /><circle cx="989" cy="3234" r="5" fill="green" stroke="none" /><circle cx="2333" cy="706" r="5" fill="green" stroke="none" /><circle cx="941" cy="1243" r="5" fill="green" stroke="none" /><circle cx="922" cy="1219" r="5" fill="green" stroke="none" /><circle cx="948" cy="2800" r="5" fill="green" stroke="none" /><circle cx="127" cy="2611" r="5" fill="green" stroke="none" /><circle cx="1331" cy="2084" r="5" fill="green" stroke="none" /><circle cx="1726" cy="3044" r="5" fill="green" stroke="none" /><circle cx="145" cy="1597" r="5" fill="green" stroke="none" /><circle cx="1160" cy="4023" r="5" fill="green" stroke="none" /><circle cx="1243" cy="466" r="5" fill="green" stroke="none" /><circle cx="121" cy="3296" r="5" fill="green" stroke="none" /><circle cx="78" cy="1772" r="5" fill="green" stroke="none" /><circle cx="155" cy="3616" r="5" fill="green" stroke="none" /><circle cx="1184" cy="285" r="5" fill="green" stroke="none" /><circle cx="125" cy="2534" r="5" fill="green" stroke="none" /><circle cx="818" cy="3980" r="5" fill="green" stroke="none" /><circle cx="467" cy="201" r="5" fill="green" stroke="none" /><circle cx="1507" cy="2425" r="5" fill="green" stroke="none" /><circle cx="661" cy="910" r="5" fill="green" stroke="none" /><circle cx="2915" cy="626" r="5" fill="green" stroke="none" /><circle cx="1995" cy="3581" r="5" fill="green" stroke="none" /><circle cx="89" cy="3547" r="5" fill="green" stroke="none" /><circle cx="2101" cy="1336" r="5" fill="green" stroke="none" /><circle cx="934" cy="850" r="5" fill="green" stroke="none" /><circle cx="1570" cy="3133" r="5" fill="green" stroke="none" /><circle cx="188" cy="4014" r="5" fill="green" stroke="none" /><circle cx="2339" cy="2836" r="5" fill="green" stroke="none" /><circle cx="1889" cy="480" r="5" fill="green" stroke="none" /><circle cx="1401" cy="613" r="5" fill="green" stroke="none" /><circle cx="148" cy="4038" r="5" fill="green" stroke="none" /><circle cx="2184" cy="2957" r="5" fill="green" stroke="none" /><circle cx="2735" cy="1785" r="5" fill="green" stroke="none" /><circle cx="1572" cy="583" r="5" fill="green" stroke="none" /><circle cx="343" cy="994" r="5" fill="green" stroke="none" /><circle cx="317" cy="3027" r="5" fill="green" stroke="none" /><circle cx="1692" cy="1222" r="5" fill="green" stroke="none" /><circle cx="505" cy="3707" r="5" fill="green" stroke="none" /><circle cx="1897" cy="2169" r="5" fill="green" stroke="none" /><circle cx="1098" cy="3575" r="5" fill="green" stroke="none" /><circle cx="1001" cy="3840" r="5" fill="green" stroke="none" /><circle cx="2412" cy="3158" r="5" fill="green" stroke="none" /><circle cx="2838" cy="2036" r="5" fill="green" stroke="none" /><circle cx="88" cy="3552" r="5" fill="green" stroke="none" /><circle cx="1903" cy="1053" r="5" fill="green" stroke="none" /><circle cx="328" cy="1576" r="5" fill="green" stroke="none" /><circle cx="2119" cy="342" r="5" fill="green" stroke="none" /><circle cx="316" cy="2037" r="5" fill="green" stroke="none" /><circle cx="2684" cy="2857" r="5" fill="green" stroke="none" /><circle cx="59" cy="899" r="42" fill="red" stroke="none" /><circle cx="957" cy="252" r="75" fill="red" stroke="none" /><circle cx="1699" cy="3908" r="13" fill="red" stroke="none" /><circle cx="160" cy="711" r="84" fill="red" stroke="none" /><circle cx="1478" cy="36" r="10" fill="red" stroke="none" /><circle cx="2576" cy="1225" r="37" fill="red" stroke="none" /><circle cx="123" cy="1389" r="13" fill="red" stroke="none" /><circle cx="1546" cy="1664" r="24" fill="red" stroke="none" /><circle cx="58" cy="2248" r="23" fill="red" stroke="none" /><circle cx="1344" cy="648" r="37" fill="red" stroke="none" /><circle cx="2186" cy="186" r="53" fill="red" stroke="none" /><circle cx="95" cy="2426" r="42" fill="red" stroke="none" /><circle cx="1255" cy="2788" r="69" fill="red" stroke="none" /><circle cx="2570" cy="2748" r="67" fill="red" stroke="none" /><circle cx="1406" cy="1569" r="8" fill="red" stroke="none" /><circle cx="1462" cy="3751" r="32" fill="red" stroke="none" /><circle cx="1297" cy="2061" r="9" fill="red" stroke="none" /><circle cx="2412" cy="2267" r="66" fill="red" stroke="none" /><circle cx="135" cy="3159" r="82" fill="red" stroke="none" /><circle cx="2477" cy="3839" r="23" fill="red" stroke="none" /><circle cx="1880" cy="1567" r="83" fill="red" stroke="none" /><circle cx="2462" cy="353" r="39" fill="red" stroke="none" /><circle cx="2744" cy="533" r="66" fill="red" stroke="none" /><circle cx="2229" cy="3650" r="55" fill="red" stroke="none" /><circle cx="2652" cy="1126" r="40" fill="red" stroke="none" /><circle cx="1012" cy="306" r="79" fill="red" stroke="none" /><circle cx="1886" cy="3489" r="15" fill="red" stroke="none" /><circle cx="137" cy="569" r="81" fill="red" stroke="none" /><circle cx="1345" cy="3178" r="82" fill="red" stroke="none" /><circle cx="1782" cy="2793" r="54" fill="red" stroke="none" /><circle cx="2356" cy="2386" r="37" fill="red" stroke="none" /><circle cx="2783" cy="1176" r="28" fill="red" stroke="none" /><circle cx="44" cy="2754" r="24" fill="red" stroke="none" /><circle cx="2637" cy="2023" r="16" fill="red" stroke="none" /><circle cx="117" cy="2174" r="27" fill="red" stroke="none" /><circle cx="455" cy="3353" r="70" fill="red" stroke="none" /><circle cx="2147" cy="3596" r="52" fill="red" stroke="none" /><circle cx="2691" cy="2231" r="24" fill="red" stroke="none" /><circle cx="1183" cy="3153" r="28" fill="red" stroke="none" /><circle cx="1978" cy="1237" r="46" fill="red" stroke="none" /><circle cx="98" cy="1141" r="79" fill="red" stroke="none" /><circle cx="400" cy="684" r="39" fill="red" stroke="none" /><circle cx="2458" cy="95" r="52" fill="red" stroke="none" /><circle cx="2816" cy="1394" r="45" fill="red" stroke="none" /><circle cx="1352" cy="1322" r="35" fill="red" stroke="none" /><circle cx="162" cy="2320" r="12" fill="red" stroke="none" /><circle cx="260" cy="3933" r="21" fill="red" stroke="none" /><circle cx="574" cy="208" r="50" fill="red" stroke="none" /><circle cx="1182" cy="2524" r="37" fill="red" stroke="none" /><circle cx="434" cy="2190" r="37" fill="red" stroke="none" /><circle cx="222" cy="1479" r="70" fill="red" stroke="none" /><circle cx="2172" cy="1676" r="24" fill="red" stroke="none" /><circle cx="1586" cy="3579" r="81" fill="red" stroke="none" /><circle cx="348" cy="3312" r="74" fill="red" stroke="none" /><circle cx="2595" cy="1567" r="76" fill="red" stroke="none" /><circle cx="237" cy="1375" r="41" fill="red" stroke="none" /><circle cx="556" cy="1329" r="77" fill="red" stroke="none" /><circle cx="2952" cy="835" r="44" fill="red" stroke="none" /><circle cx="2163" cy="625" r="28" fill="red" stroke="none" /><circle cx="2306" cy="2922" r="49" fill="red" stroke="none" /><circle cx="1135" cy="683" r="75" fill="red" stroke="none" /><circle cx="208" cy="2926" r="41" fill="red" stroke="none" /><circle cx="552" cy="2474" r="72" fill="red" stroke="none" /><circle cx="2686" cy="826" r="29" fill="red" stroke="none" /><circle cx="115" cy="897" r="14" fill="red" stroke="none" /><circle cx="66" cy="1025" r="36" fill="red" stroke="none" /><circle cx="1657" cy="2246" r="60" fill="red" stroke="none" /><circle cx="1489" cy="1612" r="38" fill="red" stroke="none" /><circle cx="1785" cy="3023" r="61" fill="red" stroke="none" /><circle cx="979" cy="1106" r="42" fill="red" stroke="none" /><circle cx="290" cy="414" r="72" fill="red" stroke="none" /><circle cx="2554" cy="2875" r="19" fill="red" stroke="none" /><circle cx="1296" cy="307" r="73" fill="red" stroke="none" /><circle cx="557" cy="2147" r="26" fill="red" stroke="none" /><circle cx="2898" cy="3153" r="63" fill="red" stroke="none" /><circle cx="1858" cy="2349" r="50" fill="red" stroke="none" /><circle cx="1830" cy="2936" r="54" fill="red" stroke="none" /><circle cx="2144" cy="3947" r="19" fill="red" stroke="none" /><circle cx="2877" cy="2299" r="50" fill="red" stroke="none" /><circle cx="2149" cy="1195" r="20" fill="red" stroke="none" /><circle cx="740" cy="2910" r="5" fill="red" stroke="none" /><circle cx="813" cy="3716" r="30" fill="red" stroke="none" /><circle cx="503" cy="1700" r="84" fill="red" stroke="none" /><circle cx="2357" cy="560" r="37" fill="red" stroke="none" /><circle cx="2425" cy="2649" r="21" fill="red" stroke="none" /><circle cx="1420" cy="905" r="28" fill="red" stroke="none" /><circle cx="2204" cy="772" r="18" fill="red" stroke="none" /><circle cx="84" cy="584" r="60" fill="red" stroke="none" /><circle cx="1429" cy="3597" r="9" fill="red" stroke="none" /><circle cx="176" cy="2329" r="63" fill="red" stroke="none" /><circle cx="2640" cy="2284" r="47" fill="red" stroke="none" /><circle cx="2888" cy="1155" r="67" fill="red" stroke="none" /><circle cx="667" cy="1245" r="23" fill="red" stroke="none" /><circle cx="2534" cy="1474" r="75" fill="red" stroke="none" /><circle cx="2248" cy="1111" r="60" fill="red" stroke="none" /><circle cx="2072" cy="2175" r="29" fill="red" stroke="none" /><circle cx="2725" cy="3095" r="63" fill="red" stroke="none" /><circle cx="2317" cy="3251" r="34" fill="red" stroke="none" /><circle cx="2759" cy="3609" r="73" fill="red" stroke="none" /><circle cx="2461" cy="2000" r="21" fill="red" stroke="none" /><circle cx="1139" cy="976" r="42" fill="red" stroke="none" /><circle cx="1396" cy="180" r="50" fill="red" stroke="none" /><circle cx="2912" cy="3218" r="8" fill="red" stroke="none" /><circle cx="2342" cy="3061" r="34" fill="red" stroke="none" /><circle cx="2354" cy="837" r="37" fill="red" stroke="none" /><circle cx="1391" cy="1852" r="57" fill="red" stroke="none" /><circle cx="2050" cy="2966" r="46" fill="red" stroke="none" /><circle cx="2649" cy="2920" r="6" fill="red" stroke="none" /><circle cx="28" cy="2304" r="22" fill="red" stroke="none" /><circle cx="2465" cy="1703" r="76" fill="red" stroke="none" /><circle cx="1962" cy="762" r="23" fill="red" stroke="none" /><circle cx="47" cy="1588" r="14" fill="red" stroke="none" /><circle cx="847" cy="1187" r="41" fill="red" stroke="none" /><circle cx="766" cy="3652" r="57" fill="red" stroke="none" /><circle cx="544" cy="610" r="15" fill="red" stroke="none" /><circle cx="2414" cy="3502" r="5" fill="red" stroke="none" /><circle cx="2109" cy="69" r="49" fill="red" stroke="none" /><circle cx="2161" cy="2184" r="27" fill="red" stroke="none" /><circle cx="442" cy="2177" r="55" fill="red" stroke="none" /><circle cx="1433" cy="2003" r="84" fill="red" stroke="none" /><circle cx="2173" cy="3885" r="56" fill="red" stroke="none" /><circle cx="2692" cy="348" r="54" fill="red" stroke="none" /><circle cx="2732" cy="3779" r="43" fill="red" stroke="none" /><circle cx="803" cy="1004" r="75" fill="red" stroke="none" /><circle cx="2246" cy="1831" r="28" fill="red" stroke="none" /><circle cx="2953" cy="3196" r="11" fill="red" stroke="none" /><circle cx="1292" cy="3485" r="77" fill="red" stroke="none" /><circle cx="2677" cy="900" r="43" fill="red" stroke="none" /><circle cx="274" cy="2910" r="6" fill="red" stroke="none" /><circle cx="1598" cy="89" r="52" fill="red" stroke="none" /><circle cx="1452" cy="4013" r="57" fill="red" stroke="none" /><circle cx="1136" cy="3282" r="52" fill="red" stroke="none" /><circle cx="2275" cy="943" r="40" fill="red" stroke="none" /><circle cx="623" cy="423" r="31" fill="red" stroke="none" /><circle cx="1572" cy="3640" r="61" fill="red" stroke="none" /><circle cx="81" cy="590" r="28" fill="red" stroke="none" /><circle cx="2235" cy="3428" r="81" fill="red" stroke="none" /><circle cx="2309" cy="3426" r="79" fill="red" stroke="none" /><circle cx="1725" cy="1581" r="17" fill="red" stroke="none" /><circle cx="1476" cy="1613" r="61" fill="red" stroke="none" /><circle cx="914" cy="2569" r="47" fill="red" stroke="none" /><circle cx="1840" cy="3494" r="62" fill="red" stroke="none" /><circle cx="1592" cy="2402" r="30" fill="red" stroke="none" /><circle cx="1257" cy="1032" r="54" fill="red" stroke="none" /><circle cx="2831" cy="1060" r="17" fill="red" stroke="none" /><circle cx="206" cy="1357" r="10" fill="red" stroke="none" /><circle cx="858" cy="3925" r="21" fill="red" stroke="none" /><circle cx="2730" cy="2480" r="22" fill="red" stroke="none" /><circle cx="257" cy="2768" r="18" fill="red" stroke="none" /><circle cx="1862" cy="3022" r="78" fill="red" stroke="none" /><circle cx="171" cy="2045" r="79" fill="red" stroke="none" /><circle cx="1690" cy="3396" r="45" fill="red" stroke="none" /><circle cx="2729" cy="2448" r="12" fill="red" stroke="none" /><circle cx="2920" cy="3784" r="10" fill="red" stroke="none" /><circle cx="1801" cy="3693" r="83" fill="red" stroke="none" /><circle cx="1423" cy="2499" r="17" fill="red" stroke="none" /><circle cx="1166" cy="637" r="54" fill="red" stroke="none" /></svg>