<svg viewBox="0 0 9745 1634" xmlns="http://www.w3.org/2000/svg"><rect x="0" y="0" width="9745" height="1634" fill="lightyellow" stroke="none "/><rect x="3248" y="252" width="2382" height="382" fill="white" stroke="black "/><circle cx="1295" cy="235" r="5" fill="green" stroke="none" /><circle cx="2608" cy="1559" r="5" fill="green" stroke="none" /><circle cx="7138" cy="122" r="5" fill="green" stroke="none" /><circle cx="1675" cy="75" r="5" fill="green" stroke="none" /><circle cx="1117" cy="187" r="5" fill="green" stroke="none" /><circle cx="4317" cy="1206" r="5" fill="green" stroke="none" /><circle cx="902" cy="732" r="5" fill="green" stroke="none" /><circle cx="5352" cy="854" r="5" fill="green" stroke="none" /><circle cx="6552" cy="364" r="5" fill="green" stroke="none" /><circle cx="825" cy="122" r="5" fill="green" stroke="none" /><circle cx="9267" cy="793" r="5" fill="green" stroke="none" /><circle cx="1721" cy="202" r="5" fill="green" stroke="none" /><circle cx="1874" cy="1171" r="5" fill="green" stroke="none" /><circle cx="6105" cy="863" r="5" fill="green" stroke="none" /><circle cx="1655" cy="390" r="5" fill="green" stroke="none" /><circle cx="4960" cy="1231" r="5" fill="green" stroke="none" /><circle cx="9188" cy="929" r="5" fill="green" stroke="none" /><circle cx="6042" cy="1447" r="5" fill="green" stroke="none" /><circle cx="6785" cy="766" r="5" fill="green" stroke="none" /><circle cx="9303" cy="93" r="5" fill="green" stroke="none" /><circle cx="3908" cy="1552" r="5" fill="green" stroke="none" /><circle cx="3639" cy="1296" r="5" fill="green" stroke="none" /><circle cx="310" cy="1207" r="5" fill="green" stroke="none" /><circle cx="485" cy="808" r="5" fill="green" stroke="none" /><circle cx="7058" cy="877" r="5" fill="green" stroke="none" /><circle cx="6680" cy="332" r="5" fill="green" stroke="none" /><circle cx="3532" cy="1378" r="5" fill="green" stroke="none" /><circle cx="8435" cy="1570" r="5" fill="green" stroke="none" /><circle cx="7791" cy="1152" r="5" fill="green" stroke="none" /><circle cx="9384" cy="600" r="5" fill="green" stroke="none" /><circle cx="3059" cy="252" r="5" fill="green" stroke="none" /><circle cx="9687" cy="244" r="5" fill="green" stroke="none" /><circle cx="2664" cy="1461" r="5" fill="green" stroke="none" /><circle cx="3406" cy="644" r="5" fill="green" stroke="none" /><circle cx="5711" cy="647" r="5" fill="green" stroke="none" /><circle cx="212" cy="376" r="5" fill="green" stroke="none" /><circle cx="5608" cy="1559" r="5" fill="green" stroke="none" /><circle cx="4880" cy="1545" r="5" fill="green" stroke="none" /><circle cx="4536" cy="221" r="5" fill="green" stroke="none" /><circle cx="7799" cy="1463" r="5" fill="green" stroke="none" /><circle cx="589" cy="309" r="5" fill="green" stroke="none" /><circle cx="6313" cy="393" r="5" fill="green" stroke="none" /><circle cx="2275" cy="1258" r="5" fill="green" stroke="none" /><circle cx="7746" cy="528" r="5" fill="green" stroke="none" /><circle cx="792" cy="734" r="5" fill="green" stroke="none" /><circle cx="7075" cy="1209" r="5" fill="green" stroke="none" /><circle cx="7176" cy="387" r="5" fill="green" stroke="none" /><circle cx="9341" cy="1421" r="5" fill="green" stroke="none" /><circle cx="7042" cy="342" r="5" fill="green" stroke="none" /><circle cx="9711" cy="721" r="5" fill="green" stroke="none" /><circle cx="8620" cy="1409" r="5" fill="green" stroke="none" /><circle cx="28" cy="521" r="5" fill="green" stroke="none" /><circle cx="4577" cy="1426" r="5" fill="green" stroke="none" /><circle cx="9393" cy="1283" r="5" fill="green" stroke="none" /><circle cx="4570" cy="901" r="5" fill="green" stroke="none" /><circle cx="8532" cy="93" r="5" fill="green" stroke="none" /><circle cx="9461" cy="1308" r="5" fill="green" stroke="none" /><circle cx="9327" cy="128" r="5" fill="green" stroke="none" /><circle cx="4449" cy="1529" r="5" fill="green" stroke="none" /><circle cx="2113" cy="1614" r="5" fill="green" stroke="none" /><circle cx="3091" cy="264" r="5" fill="green" stroke="none" /><circle cx="2108" cy="1609" r="5" fill="green" stroke="none" /><circle cx="7289" cy="350" r="5" fill="green" stroke="none" /><circle cx="9170" cy="142" r="5" fill="green" stroke="none" /><circle cx="8928" cy="77" r="5" fill="green" stroke="none" /><circle cx="7319" cy="749" r="5" fill="green" stroke="none" /><circle cx="2595" cy="70" r="5" fill="green" stroke="none" /><circle cx="930" cy="964" r="5" fill="green" stroke="none" /><circle cx="9252" cy="693" r="5" fill="green" stroke="none" /><circle cx="4402" cy="645" r="5" fill="green" stroke="none" /><circle cx="2734" cy="446" r="5" fill="green" stroke="none" /><circle cx="5948" cy="1630" r="5" fill="green" stroke="none" /><circle cx="2420" cy="496" r="5" fill="green" stroke="none" /><circle cx="8003" cy="350" r="5" fill="green" stroke="none" /><circle cx="2821" cy="1610" r="5" fill="green" stroke="none" /><circle cx="7306" cy="1185" r="5" fill="green" stroke="none" /><circle cx="6837" cy="945" r="5" fill="green" stroke="none" /><circle cx="417" cy="849" r="5" fill="green" stroke="none" /><circle cx="2399" cy="1025" r="5" fill="green" stroke="none" /><circle cx="426" cy="175" r="5" fill="green" stroke="none" /><circle cx="1016" cy="903" r="5" fill="green" stroke="none" /><circle cx="113" cy="560" r="5" fill="green" stroke="none" /><circle cx="3890" cy="188" r="5" fill="green" stroke="none" /><circle cx="37" cy="368" r="5" fill="green" stroke="none" /><circle cx="5167" cy="1598" r="5" fill="green" stroke="none" /><circle cx="8760" cy="624" r="5" fill="green" stroke="none" /><circle cx="4502" cy="1421" r="5" fill="green" stroke="none" /><circle cx="2197" cy="800" r="5" fill="green" stroke="none" /><circle cx="5107" cy="943" r="5" fill="green" stroke="none" /><circle cx="631" cy="738" r="5" fill="green" stroke="none" /><circle cx="7376" cy="1576" r="5" fill="green" stroke="none" /><circle cx="5983" cy="618" r="5" fill="green" stroke="none" /><circle cx="4426" cy="1304" r="5" fill="green" stroke="none" /><circle cx="2214" cy="1364" r="5" fill="green" stroke="none" /><circle cx="6306" cy="579" r="5" fill="green" stroke="none" /><circle cx="4259" cy="1340" r="5" fill="green" stroke="none" /><circle cx="948" cy="1418" r="5" fill="green" stroke="none" /><circle cx="8486" cy="581" r="5" fill="green" stroke="none" /><circle cx="867" cy="148" r="5" fill="green" stroke="none" /><circle cx="8925" cy="324" r="5" fill="green" stroke="none" /><circle cx="5119" cy="217" r="5" fill="green" stroke="none" /><circle cx="6319" cy="321" r="5" fill="green" stroke="none" /><circle cx="927" cy="120" r="5" fill="green" stroke="none" /><circle cx="1151" cy="1149" r="5" fill="green" stroke="none" /><circle cx="9503" cy="1284" r="5" fill="green" stroke="none" /><circle cx="691" cy="128" r="5" fill="green" stroke="none" /><circle cx="5692" cy="248" r="5" fill="green" stroke="none" /><circle cx="3951" cy="171" r="5" fill="green" stroke="none" /><circle cx="8695" cy="932" r="5" fill="green" stroke="none" /><circle cx="2104" cy="220" r="5" fill="green" stroke="none" /><circle cx="1891" cy="1219" r="5" fill="green" stroke="none" /><circle cx="6832" cy="327" r="5" fill="green" stroke="none" /><circle cx="2722" cy="468" r="5" fill="green" stroke="none" /><circle cx="5746" cy="803" r="5" fill="green" stroke="none" /><circle cx="8009" cy="940" r="5" fill="green" stroke="none" /><circle cx="4760" cy="934" r="5" fill="green" stroke="none" /><circle cx="733" cy="402" r="5" fill="green" stroke="none" /><circle cx="8057" cy="1416" r="5" fill="green" stroke="none" /><circle cx="8213" cy="1017" r="5" fill="green" stroke="none" /><circle cx="4798" cy="689" r="5" fill="green" stroke="none" /><circle cx="9359" cy="34" r="5" fill="green" stroke="none" /><circle cx="1947" cy="1065" r="5" fill="green" stroke="none" /><circle cx="8180" cy="934" r="5" fill="green" stroke="none" /><circle cx="8178" cy="284" r="5" fill="green" stroke="none" /><circle cx="7576" cy="694" r="5" fill="green" stroke="none" /><circle cx="6981" cy="122" r="5" fill="green" stroke="none" /><circle cx="7915" cy="1426" r="5" fill="green" stroke="none" /><circle cx="6280" cy="1583" r="5" fill="green" stroke="none" /><circle cx="860" cy="1513" r="5" fill="green" stroke="none" /><circle cx="5807" cy="705" r="5" fill="green" stroke="none" /><circle cx="4093" cy="828" r="5" fill="green" stroke="none" /><circle cx="800" cy="1532" r="5" fill="green" stroke="none" /><circle cx="3759" cy="1423" r="5" fill="green" stroke="none" /><circle cx="6808" cy="795" r="5" fill="green" stroke="none" /><circle cx="2634" cy="1239" r="5" fill="green" stroke="none" /><circle cx="4831" cy="1269" r="5" fill="green" stroke="none" /><circle cx="6327" cy="1209" r="5" fill="green" stroke="none" /><circle cx="4362" cy="1024" r="5" fill="green" stroke="none" /><circle cx="8080" cy="1574" r="5" fill="green" stroke="none" /><circle cx="8115" cy="919" r="5" fill="green" stroke="none" /><circle cx="7660" cy="515" r="5" fill="green" stroke="none" /><circle cx="9496" cy="1119" r="5" fill="green" stroke="none" /><circle cx="5193" cy="1260" r="5" fill="green" stroke="none" /><circle cx="2998" cy="890" r="5" fill="green" stroke="none" /><circle cx="778" cy="9" r="5" fill="green" stroke="none" /><circle cx="4524" cy="902" r="5" fill="green" stroke="none" /><circle cx="1086" cy="1362" r="5" fill="green" stroke="none" /><circle cx="5736" cy="820" r="5" fill="green" stroke="none" /><circle cx="9028" cy="1006" r="5" fill="green" stroke="none" /><circle cx="5345" cy="955" r="5" fill="green" stroke="none" /><circle cx="8214" cy="876" r="5" fill="green" stroke="none" /><circle cx="7233" cy="1400" r="5" fill="green" stroke="none" /><circle cx="7173" cy="1162" r="5" fill="green" stroke="none" /><circle cx="375" cy="856" r="5" fill="green" stroke="none" /><circle cx="9535" cy="674" r="5" fill="green" stroke="none" /><circle cx="8210" cy="217" r="5" fill="green" stroke="none" /><circle cx="277" cy="1610" r="5" fill="green" stroke="none" /><circle cx="6571" cy="478" r="5" fill="green" stroke="none" /><circle cx="6882" cy="249" r="5" fill="green" stroke="none" /><circle cx="8922" cy="875" r="5" fill="green" stroke="none" /><circle cx="796" cy="148" r="5" fill="green" stroke="none" /><circle cx="8728" cy="988" r="5" fill="green" stroke="none" /><circle cx="314" cy="675" r="5" fill="green" stroke="none" /><circle cx="3784" cy="1073" r="5" fill="green" stroke="none" /><circle cx="4993" cy="54" r="5" fill="green" stroke="none" /><circle cx="7120" cy="471" r="5" fill="green" stroke="none" /><circle cx="1734" cy="1" r="5" fill="green" stroke="none" /><circle cx="8816" cy="1171" r="5" fill="green" stroke="none" /><circle cx="6548" cy="971" r="5" fill="green" stroke="none" /><circle cx="590" cy="1171" r="5" fill="green" stroke="none" /><circle cx="9594" cy="1215" r="5" fill="green" stroke="none" /><circle cx="4962" cy="1182" r="5" fill="green" stroke="none" /><circle cx="2752" cy="40" r="5" fill="green" stroke="none" /><circle cx="6368" cy="549" r="5" fill="green" stroke="none" /><circle cx="9731" cy="1473" r="5" fill="green" stroke="none" /><circle cx="1727" cy="867" r="5" fill="green" stroke="none" /><circle cx="9634" cy="148" r="5" fill="green" stroke="none" /><circle cx="3156" cy="1443" r="5" fill="green" stroke="none" /><circle cx="2720" cy="1588" r="5" fill="green" stroke="none" /><circle cx="8144" cy="999" r="5" fill="green" stroke="none" /><circle cx="4113" cy="237" r="5" fill="green" stroke="none" /><circle cx="1451" cy="1265" r="5" fill="green" stroke="none" /><circle cx="6759" cy="618" r="5" fill="green" stroke="none" /><circle cx="8389" cy="1203" r="5" fill="green" stroke="none" /><circle cx="7163" cy="865" r="5" fill="green" stroke="none" /><circle cx="1655" cy="953" r="5" fill="green" stroke="none" /><circle cx="911" cy="323" r="5" fill="green" stroke="none" /><circle cx="9579" cy="706" r="5" fill="green" stroke="none" /><circle cx="6367" cy="467" r="5" fill="green" stroke="none" /><circle cx="1611" cy="44" r="5" fill="green" stroke="none" /><circle cx="6670" cy="338" r="5" fill="green" stroke="none" /><circle cx="8178" cy="743" r="5" fill="green" stroke="none" /><circle cx="1880" cy="475" r="5" fill="green" stroke="none" /><circle cx="3690" cy="1214" r="5" fill="green" stroke="none" /><circle cx="6259" cy="881" r="5" fill="green" stroke="none" /><circle cx="8313" cy="200" r="5" fill="green" stroke="none" /><circle cx="2358" cy="1189" r="5" fill="green" stroke="none" /><circle cx="6726" cy="1519" r="5" fill="green" stroke="none" /><circle cx="9638" cy="204" r="5" fill="green" stroke="none" /><circle cx="1414" cy="1076" r="5" fill="green" stroke="none" /><circle cx="3567" cy="725" r="5" fill="green" stroke="none" /><circle cx="2430" cy="480" r="5" fill="green" stroke="none" /><circle cx="88" cy="884" r="5" fill="green" stroke="none" /><circle cx="4161" cy="197" r="5" fill="green" stroke="none" /><circle cx="4628" cy="1109" r="5" fill="green" stroke="none" /><circle cx="4452" cy="1524" r="5" fill="green" stroke="none" /><circle cx="8211" cy="1377" r="5" fill="green" stroke="none" /><circle cx="8538" cy="532" r="5" fill="green" stroke="none" /><circle cx="9117" cy="1313" r="5" fill="green" stroke="none" /><circle cx="2472" cy="1573" r="5" fill="green" stroke="none" /><circle cx="1001" cy="700" r="5" fill="green" stroke="none" /><circle cx="6500" cy="1423" r="5" fill="green" stroke="none" /><circle cx="2628" cy="1602" r="5" fill="green" stroke="none" /><circle cx="8957" cy="973" r="5" fill="green" stroke="none" /><circle cx="3000" cy="510" r="5" fill="green" stroke="none" /><circle cx="6559" cy="1342" r="5" fill="green" stroke="none" /><circle cx="5487" cy="904" r="5" fill="green" stroke="none" /><circle cx="2742" cy="884" r="5" fill="green" stroke="none" /><circle cx="2777" cy="1255" r="5" fill="green" stroke="none" /><circle cx="6163" cy="224" r="5" fill="green" stroke="none" /><circle cx="5484" cy="684" r="5" fill="green" stroke="none" /><circle cx="6125" cy="2" r="5" fill="green" stroke="none" /><circle cx="9138" cy="1569" r="5" fill="green" stroke="none" /><circle cx="9721" cy="632" r="5" fill="green" stroke="none" /><circle cx="5688" cy="707" r="5" fill="green" stroke="none" /><circle cx="5846" cy="1126" r="5" fill="green" stroke="none" /><circle cx="7002" cy="1365" r="5" fill="green" stroke="none" /><circle cx="7648" cy="1439" r="5" fill="green" stroke="none" /><circle cx="3346" cy="827" r="5" fill="green" stroke="none" /><circle cx="7975" cy="854" r="5" fill="green" stroke="none" /><circle cx="3318" cy="127" r="5" fill="green" stroke="none" /><circle cx="252" cy="1066" r="5" fill="green" stroke="none" /><circle cx="463" cy="830" r="5" fill="green" stroke="none" /><circle cx="9563" cy="1348" r="5" fill="green" stroke="none" /><circle cx="337" cy="774" r="5" fill="green" stroke="none" /><circle cx="4412" cy="1165" r="5" fill="green" stroke="none" /><circle cx="2542" cy="10" r="5" fill="green" stroke="none" /><circle cx="97" cy="122" r="5" fill="green" stroke="none" /><circle cx="751" cy="1171" r="5" fill="green" stroke="none" /><circle cx="2538" cy="1060" r="5" fill="green" stroke="none" /><circle cx="2931" cy="616" r="5" fill="green" stroke="none" /><circle cx="566" cy="1167" r="5" fill="green" stroke="none" /><circle cx="9659" cy="1606" r="5" fill="green" stroke="none" /><circle cx="5215" cy="874" r="5" fill="green" stroke="none" /><circle cx="6074" cy="1002" r="5" fill="green" stroke="none" /><circle cx="1589" cy="990" r="5" fill="green" stroke="none" /><circle cx="7497" cy="1623" r="5" fill="green" stroke="none" /><circle cx="7711" cy="982" r="5" fill="green" stroke="none" /><circle cx="6762" cy="257" r="5" fill="green" stroke="none" /><circle cx="1731" cy="1146" r="5" fill="green" stroke="none" /><circle cx="8137" cy="165" r="5" fill="green" stroke="none" /><circle cx="3738" cy="799" r="5" fill="green" stroke="none" /><circle cx="2552" cy="1086" r="5" fill="green" stroke="none" /><circle cx="3799" cy="972" r="5" fill="green" stroke="none" /><circle cx="9379" cy="1143" r="5" fill="green" stroke="none" /><circle cx="4176" cy="1559" r="5" fill="green" stroke="none" /><circle cx="2175" cy="210" r="5" fill="green" stroke="none" /><circle cx="5544" cy="719" r="5" fill="green" stroke="none" /><circle cx="7601" cy="1160" r="5" fill="green" stroke="none" /><circle cx="8800" cy="1262" r="5" fill="green" stroke="none" /><circle cx="6960" cy="10" r="5" fill="green" stroke="none" /><circle cx="348" cy="779" r="5" fill="green" stroke="none" /><circle cx="4617" cy="142" r="5" fill="green" stroke="none" /><circle cx="6588" cy="1143" r="5" fill="green" stroke="none" /><circle cx="2955" cy="966" r="5" fill="green" stroke="none" /><circle cx="7906" cy="898" r="5" fill="green" stroke="none" /><circle cx="4242" cy="994" r="5" fill="green" stroke="none" /><circle cx="5087" cy="755" r="5" fill="green" stroke="none" /><circle cx="7082" cy="1039" r="5" fill="green" stroke="none" /><circle cx="3022" cy="922" r="5" fill="green" stroke="none" /><circle cx="2337" cy="458" r="5" fill="green" stroke="none" /><circle cx="898" cy="943" r="5" fill="green" stroke="none" /><circle cx="7022" cy="456" r="5" fill="green" stroke="none" /><circle cx="6556" cy="792" r="5" fill="green" stroke="none" /><circle cx="7161" cy="82" r="5" fill="green" stroke="none" /><circle cx="1737" cy="1368" r="5" fill="green" stroke="none" /><circle cx="5502" cy="684" r="5" fill="green" stroke="none" /><circle cx="3580" cy="1501" r="5" fill="green" stroke="none" /><circle cx="7198" cy="307" r="5" fill="green" stroke="none" /><circle cx="1228" cy="471" r="5" fill="green" stroke="none" /><circle cx="251" cy="1440" r="5" fill="green" stroke="none" /><circle cx="8363" cy="963" r="5" fill="green" stroke="none" /><circle cx="1392" cy="256" r="5" fill="green" stroke="none" /><circle cx="8876" cy="1425" r="5" fill="green" stroke="none" /><circle cx="5403" cy="644" r="5" fill="green" stroke="none" /><circle cx="8523" cy="1054" r="5" fill="green" stroke="none" /><circle cx="2793" cy="1148" r="5" fill="green" stroke="none" /><circle cx="7258" cy="214" r="5" fill="green" stroke="none" /><circle cx="6444" cy="1003" r="5" fill="green" stroke="none" /><circle cx="4685" cy="212" r="5" fill="green" stroke="none" /><circle cx="8332" cy="951" r="5" fill="green" stroke="none" /><circle cx="7085" cy="188" r="5" fill="green" stroke="none" /><circle cx="1285" cy="1021" r="5" fill="green" stroke="none" /><circle cx="8164" cy="296" r="5" fill="green" stroke="none" /><circle cx="5278" cy="1471" r="5" fill="green" stroke="none" /><circle cx="785" cy="1182" r="5" fill="green" stroke="none" /><circle cx="4883" cy="127" r="5" fill="green" stroke="none" /><circle cx="7897" cy="404" r="5" fill="green" stroke="none" /><circle cx="487" cy="1399" r="5" fill="green" stroke="none" /><circle cx="6773" cy="942" r="5" fill="green" stroke="none" /><circle cx="1099" cy="1376" r="5" fill="green" stroke="none" /><circle cx="2265" cy="1389" r="5" fill="green" stroke="none" /><circle cx="1317" cy="751" r="5" fill="green" stroke="none" /><circle cx="5975" cy="1256" r="5" fill="green" stroke="none" /><circle cx="3031" cy="419" r="5" fill="green" stroke="none" /><circle cx="5299" cy="1613" r="5" fill="green" stroke="none" /><circle cx="115" cy="1223" r="5" fill="green" stroke="none" /><circle cx="2131" cy="1396" r="5" fill="green" stroke="none" /><circle cx="4799" cy="1401" r="5" fill="green" stroke="none" /><circle cx="2040" cy="1260" r="5" fill="green" stroke="none" /><circle cx="8272" cy="459" r="5" fill="green" stroke="none" /><circle cx="4921" cy="644" r="5" fill="green" stroke="none" /><circle cx="8756" cy="1136" r="5" fill="green" stroke="none" /><circle cx="6796" cy="63" r="5" fill="green" stroke="none" /><circle cx="977" cy="737" r="5" fill="green" stroke="none" /><circle cx="1944" cy="745" r="5" fill="green" stroke="none" /><circle cx="826" cy="491" r="5" fill="green" stroke="none" /><circle cx="7409" cy="162" r="5" fill="green" stroke="none" /><circle cx="2729" cy="1355" r="5" fill="green" stroke="none" /><circle cx="114" cy="269" r="5" fill="green" stroke="none" /><circle cx="1840" cy="1351" r="5" fill="green" stroke="none" /><circle cx="3134" cy="775" r="5" fill="green" stroke="none" /><circle cx="9695" cy="740" r="5" fill="green" stroke="none" /><circle cx="1623" cy="577" r="5" fill="green" stroke="none" /><circle cx="173" cy="523" r="5" fill="green" stroke="none" /><circle cx="1797" cy="1175" r="5" fill="green" stroke="none" /><circle cx="461" cy="678" r="5" fill="green" stroke="none" /><circle cx="4880" cy="1178" r="5" fill="green" stroke="none" /><circle cx="4497" cy="1032" r="5" fill="green" stroke="none" /><circle cx="2818" cy="1545" r="5" fill="green" stroke="none" /><circle cx="889" cy="590" r="5" fill="green" stroke="none" /><circle cx="1740" cy="358" r="5" fill="green" stroke="none" /><circle cx="8514" cy="124" r="5" fill="green" stroke="none" /><circle cx="6881" cy="202" r="5" fill="green" stroke="none" /><circle cx="2941" cy="487" r="5" fill="green" stroke="none" /><circle cx="6268" cy="1251" r="5" fill="green" stroke="none" /><circle cx="9340" cy="36" r="5" fill="green" stroke="none" /><circle cx="4570" cy="968" r="5" fill="green" stroke="none" /><circle cx="5404" cy="1306" r="5" fill="green" stroke="none" /><circle cx="6295" cy="1621" r="5" fill="green" stroke="none" /><circle cx="4476" cy="1315" r="5" fill="green" stroke="none" /><circle cx="1912" cy="694" r="5" fill="green" stroke="none" /><circle cx="6706" cy="900" r="5" fill="green" stroke="none" /><circle cx="8432" cy="927" r="5" fill="green" stroke="none" /><circle cx="8406" cy="568" r="5" fill="green" stroke="none" /><circle cx="1588" cy="108" r="5" fill="green" stroke="none" /><circle cx="4249" cy="18" r="5" fill="green" stroke="none" /><circle cx="6741" cy="1456" r="5" fill="green" stroke="none" /><circle cx="7346" cy="1021" r="5" fill="green" stroke="none" /><circle cx="6114" cy="1286" r="5" fill="green" stroke="none" /><circle cx="3097" cy="1342" r="5" fill="green" stroke="none" /><circle cx="9579" cy="403" r="5" fill="green" stroke="none" /><circle cx="7116" cy="823" r="5" fill="green" stroke="none" /><circle cx="7895" cy="200" r="5" fill="green" stroke="none" /><circle cx="8682" cy="112" r="5" fill="green" stroke="none" /><circle cx="9639" cy="1518" r="5" fill="green" stroke="none" /><circle cx="3314" cy="1448" r="5" fill="green" stroke="none" /><circle cx="5199" cy="1414" r="5" fill="green" stroke="none" /><circle cx="4758" cy="749" r="5" fill="green" stroke="none" /><circle cx="1032" cy="1036" r="5" fill="green" stroke="none" /><circle cx="2556" cy="1278" r="5" fill="green" stroke="none" /><circle cx="1975" cy="587" r="5" fill="green" stroke="none" /><circle cx="1972" cy="1209" r="5" fill="green" stroke="none" /><circle cx="8349" cy="992" r="5" fill="green" stroke="none" /><circle cx="3313" cy="136" r="5" fill="green" stroke="none" /><circle cx="6931" cy="1579" r="5" fill="green" stroke="none" /><circle cx="2324" cy="14" r="5" fill="green" stroke="none" /><circle cx="8922" cy="1567" r="5" fill="green" stroke="none" /><circle cx="8524" cy="497" r="5" fill="green" stroke="none" /><circle cx="5904" cy="1383" r="5" fill="green" stroke="none" /><circle cx="6185" cy="371" r="5" fill="green" stroke="none" /><circle cx="6508" cy="336" r="5" fill="green" stroke="none" /><circle cx="9397" cy="470" r="5" fill="green" stroke="none" /><circle cx="1264" cy="440" r="5" fill="green" stroke="none" /><circle cx="6617" cy="265" r="5" fill="green" stroke="none" /><circle cx="2268" cy="1242" r="5" fill="green" stroke="none" /><circle cx="5013" cy="809" r="5" fill="green" stroke="none" /><circle cx="1630" cy="1037" r="5" fill="green" stroke="none" /><circle cx="7208" cy="389" r="5" fill="green" stroke="none" /><circle cx="6531" cy="726" r="5" fill="green" stroke="none" /><circle cx="9708" cy="127" r="5" fill="green" stroke="none" /><circle cx="8939" cy="981" r="5" fill="green" stroke="none" /><circle cx="9053" cy="1412" r="5" fill="green" stroke="none" /><circle cx="7137" cy="1588" r="5" fill="green" stroke="none" /><circle cx="8205" cy="888" r="5" fill="green" stroke="none" /><circle cx="2336" cy="1046" r="5" fill="green" stroke="none" /><circle cx="7095" cy="124" r="5" fill="green" stroke="none" /><circle cx="4524" cy="31" r="5" fill="green" stroke="none" /><circle cx="6426" cy="886" r="5" fill="green" stroke="none" /><circle cx="6824" cy="1410" r="5" fill="green" stroke="none" /><circle cx="1897" cy="1591" r="5" fill="green" stroke="none" /><circle cx="5961" cy="1284" r="5" fill="green" stroke="none" /><circle cx="3885" cy="927" r="5" fill="green" stroke="none" /><circle cx="7532" cy="864" r="5" fill="green" stroke="none" /><circle cx="1216" cy="691" r="5" fill="green" stroke="none" /><circle cx="1370" cy="1256" r="5" fill="green" stroke="none" /><circle cx="2398" cy="1390" r="5" fill="green" stroke="none" /><circle cx="5568" cy="1023" r="5" fill="green" stroke="none" /><circle cx="6165" cy="472" r="5" fill="green" stroke="none" /><circle cx="2264" cy="876" r="5" fill="green" stroke="none" /><circle cx="3603" cy="25" r="5" fill="green" stroke="none" /><circle cx="2272" cy="1296" r="5" fill="green" stroke="none" /><circle cx="9558" cy="1496" r="5" fill="green" stroke="none" /><circle cx="6993" cy="1333" r="5" fill="green" stroke="none" /><circle cx="7782" cy="1046" r="5" fill="green" stroke="none" /><circle cx="9191" cy="967" r="5" fill="green" stroke="none" /><circle cx="6305" cy="1214" r="5" fill="green" stroke="none" /><circle cx="8320" cy="369" r="5" fill="green" stroke="none" /><circle cx="6824" cy="1320" r="5" fill="green" stroke="none" /><circle cx="3195" cy="700" r="5" fill="green" stroke="none" /><circle cx="1370" cy="621" r="5" fill="green" stroke="none" /><circle cx="9055" cy="1191" r="5" fill="green" stroke="none" /><circle cx="667" cy="1062" r="5" fill="green" stroke="none" /><circle cx="7889" cy="704" r="5" fill="green" stroke="none" /><circle cx="5003" cy="1164" r="5" fill="green" stroke="none" /><circle cx="687" cy="50" r="5" fill="green" stroke="none" /><circle cx="210" cy="1372" r="5" fill="green" stroke="none" /><circle cx="7455" cy="583" r="5" fill="green" stroke="none" /><circle cx="3935" cy="19" r="5" fill="green" stroke="none" /><circle cx="3172" cy="1243" r="5" fill="green" stroke="none" /><circle cx="5171" cy="1086" r="5" fill="green" stroke="none" /><circle cx="5353" cy="1206" r="5" fill="green" stroke="none" /><circle cx="1017" cy="751" r="5" fill="green" stroke="none" /><circle cx="1641" cy="867" r="5" fill="green" stroke="none" /><circle cx="5481" cy="1627" r="5" fill="green" stroke="none" /><circle cx="7861" cy="1204" r="5" fill="green" stroke="none" /><circle cx="7450" cy="294" r="5" fill="green" stroke="none" /><circle cx="2471" cy="682" r="5" fill="green" stroke="none" /><circle cx="2643" cy="1580" r="5" fill="green" stroke="none" /><circle cx="183" cy="1547" r="5" fill="green" stroke="none" /><circle cx="9492" cy="960" r="5" fill="green" stroke="none" /><circle cx="8208" cy="851" r="5" fill="green" stroke="none" /><circle cx="4179" cy="181" r="5" fill="green" stroke="none" /><circle cx="1729" cy="1586" r="5" fill="green" stroke="none" /><circle cx="6988" cy="1317" r="5" fill="green" stroke="none" /><circle cx="5413" cy="1301" r="5" fill="green" stroke="none" /><circle cx="3619" cy="763" r="5" fill="green" stroke="none" /><circle cx="3202" cy="608" r="5" fill="green" stroke="none" /><circle cx="3428" cy="46" r="5" fill="green" stroke="none" /><circle cx="708" cy="280" r="5" fill="green" stroke="none" /><circle cx="6897" cy="1573" r="5" fill="green" stroke="none" /><circle cx="6237" cy="1063" r="5" fill="green" stroke="none" /><circle cx="2594" cy="1314" r="5" fill="green" stroke="none" /><circle cx="1947" cy="813" r="5" fill="green" stroke="none" /><circle cx="7580" cy="504" r="5" fill="green" stroke="none" /><circle cx="7489" cy="470" r="5" fill="green" stroke="none" /><circle cx="208" cy="935" r="5" fill="green" stroke="none" /><circle cx="1671" cy="516" r="5" fill="green" stroke="none" /><circle cx="4211" cy="1164" r="5" fill="green" stroke="none" /><circle cx="2890" cy="670" r="5" fill="green" stroke="none" /><circle cx="1768" cy="904" r="5" fill="green" stroke="none" /><circle cx="9141" cy="279" r="5" fill="green" stroke="none" /><circle cx="3604" cy="695" r="5" fill="green" stroke="none" /><circle cx="6907" cy="1225" r="5" fill="green" stroke="none" /><circle cx="4752" cy="933" r="5" fill="green" stroke="none" /><circle cx="1619" cy="1467" r="5" fill="green" stroke="none" /><circle cx="2277" cy="1280" r="5" fill="green" stroke="none" /><circle cx="8788" cy="1350" r="5" fill="green" stroke="none" /><circle cx="1289" cy="1305" r="5" fill="green" stroke="none" /><circle cx="8365" cy="344" r="5" fill="green" stroke="none" /><circle cx="9247" cy="72" r="5" fill="green" stroke="none" /><circle cx="3938" cy="817" r="5" fill="green" stroke="none" /><circle cx="2333" cy="426" r="5" fill="green" stroke="none" /><circle cx="221" cy="1588" r="5" fill="green" stroke="none" /><circle cx="227" cy="903" r="5" fill="green" stroke="none" /><circle cx="4615" cy="681" r="5" fill="green" stroke="none" /><circle cx="7807" cy="1268" r="5" fill="green" stroke="none" /><circle cx="4694" cy="636" r="5" fill="green" stroke="none" /><circle cx="2393" cy="301" r="5" fill="green" stroke="none" /><circle cx="8025" cy="654" r="5" fill="green" stroke="none" /><circle cx="3956" cy="744" r="5" fill="green" stroke="none" /><circle cx="4484" cy="1003" r="5" fill="green" stroke="none" /><circle cx="1546" cy="869" r="5" fill="green" stroke="none" /><circle cx="8645" cy="776" r="5" fill="green" stroke="none" /><circle cx="8980" cy="714" r="5" fill="green" stroke="none" /><circle cx="2300" cy="1129" r="5" fill="green" stroke="none" /><circle cx="9093" cy="889" r="5" fill="green" stroke="none" /><circle cx="6375" cy="938" r="5" fill="green" stroke="none" /><circle cx="8466" cy="1032" r="5" fill="green" stroke="none" /><circle cx="7272" cy="1372" r="5" fill="green" stroke="none" /><circle cx="3014" cy="25" r="5" fill="green" stroke="none" /><circle cx="4810" cy="1422" r="5" fill="green" stroke="none" /><circle cx="7444" cy="472" r="5" fill="green" stroke="none" /><circle cx="1356" cy="760" r="5" fill="green" stroke="none" /><circle cx="6394" cy="1239" r="5" fill="green" stroke="none" /><circle cx="7255" cy="1358" r="5" fill="green" stroke="none" /><circle cx="6231" cy="1313" r="5" fill="green" stroke="none" /><circle cx="568" cy="1500" r="5" fill="green" stroke="none" /><circle cx="1593" cy="1355" r="5" fill="green" stroke="none" /><circle cx="1336" cy="1390" r="5" fill="green" stroke="none" /><circle cx="9198" cy="1484" r="5" fill="green" stroke="none" /><circle cx="8925" cy="1154" r="5" fill="green" stroke="none" /><circle cx="5733" cy="326" r="5" fill="green" stroke="none" /><circle cx="1597" cy="1016" r="5" fill="green" stroke="none" /><circle cx="9149" cy="878" r="5" fill="green" stroke="none" /><circle cx="2249" cy="1366" r="5" fill="green" stroke="none" /><circle cx="5419" cy="1435" r="5" fill="green" stroke="none" /><circle cx="8211" cy="471" r="5" fill="green" stroke="none" /><circle cx="4066" cy="184" r="5" fill="green" stroke="none" /><circle cx="2138" cy="796" r="5" fill="green" stroke="none" /><circle cx="5352" cy="1336" r="5" fill="green" stroke="none" /><circle cx="9185" cy="1176" r="5" fill="green" stroke="none" /><circle cx="4526" cy="1617" r="5" fill="green" stroke="none" /><circle cx="4838" cy="1092" r="5" fill="green" stroke="none" /><circle cx="6388" cy="172" r="5" fill="green" stroke="none" /><circle cx="2820" cy="305" r="5" fill="green" stroke="none" /><circle cx="6709" cy="286" r="5" fill="green" stroke="none" /><circle cx="9021" cy="58" r="5" fill="green" stroke="none" /><circle cx="5566" cy="1230" r="5" fill="green" stroke="none" /><circle cx="6749" cy="120" r="5" fill="green" stroke="none" /><circle cx="8035" cy="594" r="5" fill="green" stroke="none" /><circle cx="2106" cy="1595" r="5" fill="green" stroke="none" /><circle cx="6810" cy="1568" r="5" fill="green" stroke="none" /><circle cx="7877" cy="600" r="5" fill="green" stroke="none" /><circle cx="2949" cy="36" r="5" fill="green" stroke="none" /><circle cx="192" cy="1210" r="5" fill="green" stroke="none" /><circle cx="7592" cy="1553" r="5" fill="green" stroke="none" /><circle cx="2768" cy="632" r="5" fill="green" stroke="none" /><circle cx="9472" cy="629" r="5" fill="green" stroke="none" /><circle cx="3008" cy="1515" r="5" fill="green" stroke="none" /><circle cx="6138" cy="436" r="5" fill="green" stroke="none" /><circle cx="3122" cy="498" r="5" fill="green" stroke="none" /><circle cx="3902" cy="1558" r="5" fill="green" stroke="none" /><circle cx="1048" cy="706" r="5" fill="green" stroke="none" /><circle cx="2413" cy="1611" r="5" fill="green" stroke="none" /><circle cx="8025" cy="340" r="5" fill="green" stroke="none" /><circle cx="7226" cy="864" r="5" fill="green" stroke="none" /><circle cx="6946" cy="535" r="5" fill="green" stroke="none" /><circle cx="437" cy="1129" r="5" fill="green" stroke="none" /><circle cx="7723" cy="1577" r="5" fill="green" stroke="none" /><circle cx="9083" cy="1045" r="5" fill="green" stroke="none" /><circle cx="9696" cy="1129" r="5" fill="green" stroke="none" /><circle cx="7114" cy="1506" r="5" fill="green" stroke="none" /><circle cx="4382" cy="1108" r="5" fill="green" stroke="none" /><circle cx="8648" cy="1501" r="5" fill="green" stroke="none" /><circle cx="8915" cy="918" r="5" fill="green" stroke="none" /><circle cx="8848" cy="1031" r="5" fill="green" stroke="none" /><circle cx="6766" cy="782" r="5" fill="green" stroke="none" /><circle cx="9499" cy="676" r="5" fill="green" stroke="none" /><circle cx="9081" cy="1325" r="5" fill="green" stroke="none" /><circle cx="3232" cy="105" r="5" fill="green" stroke="none" /><circle cx="9612" cy="686" r="5" fill="green" stroke="none" /><circle cx="3969" cy="1015" r="5" fill="green" stroke="none" /><circle cx="6327" cy="223" r="5" fill="green" stroke="none" /><circle cx="3681" cy="162" r="5" fill="green" stroke="none" /><circle cx="2152" cy="727" r="5" fill="green" stroke="none" /><circle cx="3837" cy="1592" r="5" fill="green" stroke="none" /><circle cx="8918" cy="1035" r="5" fill="green" stroke="none" /><circle cx="98" cy="201" r="5" fill="green" stroke="none" /><circle cx="67" cy="1301" r="5" fill="green" stroke="none" /><circle cx="6071" cy="1584" r="5" fill="green" stroke="none" /><circle cx="2331" cy="948" r="5" fill="green" stroke="none" /><circle cx="7223" cy="1095" r="5" fill="green" stroke="none" /><circle cx="2849" cy="1305" r="5" fill="green" stroke="none" /><circle cx="2473" cy="1476" r="5" fill="green" stroke="none" /><circle cx="7987" cy="419" r="5" fill="green" stroke="none" /><circle cx="3927" cy="158" r="5" fill="green" stroke="none" /><circle cx="5604" cy="641" r="5" fill="green" stroke="none" /><circle cx="3054" cy="789" r="5" fill="green" stroke="none" /><circle cx="5270" cy="209" r="5" fill="green" stroke="none" /><circle cx="6560" cy="931" r="5" fill="green" stroke="none" /><circle cx="1851" cy="795" r="5" fill="green" stroke="none" /><circle cx="3404" cy="1105" r="5" fill="green" stroke="none" /><circle cx="5136" cy="1515" r="5" fill="green" stroke="none" /><circle cx="7054" cy="1176" r="5" fill="green" stroke="none" /><circle cx="2816" cy="1428" r="5" fill="green" stroke="none" /><circle cx="7034" cy="1121" r="5" fill="green" stroke="none" /><circle cx="3840" cy="812" r="5" fill="green" stroke="none" /><circle cx="442" cy="23" r="5" fill="green" stroke="none" /><circle cx="532" cy="1446" r="5" fill="green" stroke="none" /><circle cx="8618" cy="1599" r="5" fill="green" stroke="none" /><circle cx="6693" cy="114" r="5" fill="green" stroke="none" /><circle cx="6225" cy="1088" r="5" fill="green" stroke="none" /><circle cx="2714" cy="952" r="5" fill="green" stroke="none" /><circle cx="5726" cy="1485" r="5" fill="green" stroke="none" /><circle cx="3799" cy="1350" r="5" fill="green" stroke="none" /><circle cx="9442" cy="453" r="5" fill="green" stroke="none" /><circle cx="3049" cy="822" r="5" fill="green" stroke="none" /><circle cx="2202" cy="1187" r="5" fill="green" stroke="none" /><circle cx="8266" cy="1208" r="5" fill="green" stroke="none" /><circle cx="844" cy="610" r="5" fill="green" stroke="none" /><circle cx="1038" cy="851" r="5" fill="green" stroke="none" /><circle cx="9028" cy="1399" r="5" fill="green" stroke="none" /><circle cx="1539" cy="1355" r="5" fill="green" stroke="none" /><circle cx="7577" cy="86" r="5" fill="green" stroke="none" /><circle cx="7808" cy="1585" r="5" fill="green" stroke="none" /><circle cx="2217" cy="125" r="5" fill="green" stroke="none" /><circle cx="4054" cy="696" r="5" fill="green" stroke="none" /><circle cx="872" cy="62" r="5" fill="green" stroke="none" /><circle cx="1615" cy="1484" r="5" fill="green" stroke="none" /><circle cx="2026" cy="1595" r="5" fill="green" stroke="none" /><circle cx="2002" cy="1581" r="5" fill="green" stroke="none" /><circle cx="2819" cy="331" r="5" fill="green" stroke="none" /><circle cx="4732" cy="1179" r="5" fill="green" stroke="none" /><circle cx="2854" cy="721" r="5" fill="green" stroke="none" /><circle cx="3433" cy="1621" r="5" fill="green" stroke="none" /><circle cx="1711" cy="57" r="5" fill="green" stroke="none" /><circle cx="6932" cy="1506" r="5" fill="green" stroke="none" /><circle cx="8179" cy="692" r="5" fill="green" stroke="none" /><circle cx="8871" cy="1510" r="5" fill="green" stroke="none" /><circle cx="829" cy="945" r="5" fill="green" stroke="none" /><circle cx="5873" cy="1197" r="5" fill="green" stroke="none" /><circle cx="8771" cy="1060" r="5" fill="green" stroke="none" /><circle cx="5122" cy="221" r="5" fill="green" stroke="none" /><circle cx="7661" cy="214" r="5" fill="green" stroke="none" /><circle cx="1468" cy="650" r="5" fill="green" stroke="none" /><circle cx="8888" cy="470" r="5" fill="green" stroke="none" /><circle cx="9541" cy="1105" r="5" fill="green" stroke="none" /><circle cx="8171" cy="834" r="5" fill="green" stroke="none" /><circle cx="8554" cy="111" r="5" fill="green" stroke="none" /><circle cx="8700" cy="1344" r="5" fill="green" stroke="none" /><circle cx="6847" cy="1308" r="5" fill="green" stroke="none" /><circle cx="6048" cy="717" r="5" fill="green" stroke="none" /><circle cx="1054" cy="914" r="5" fill="green" stroke="none" /><circle cx="2151" cy="67" r="5" fill="green" stroke="none" /><circle cx="1442" cy="1177" r="5" fill="green" stroke="none" /><circle cx="5366" cy="830" r="5" fill="green" stroke="none" /><circle cx="901" cy="1313" r="5" fill="green" stroke="none" /><circle cx="3649" cy="891" r="5" fill="green" stroke="none" /><circle cx="2057" cy="796" r="5" fill="green" stroke="none" /><circle cx="5453" cy="1215" r="5" fill="green" stroke="none" /><circle cx="1750" cy="1285" r="5" fill="green" stroke="none" /><circle cx="1388" cy="600" r="5" fill="green" stroke="none" /><circle cx="6861" cy="1326" r="5" fill="green" stroke="none" /><circle cx="8697" cy="1430" r="5" fill="green" stroke="none" /><circle cx="6486" cy="698" r="5" fill="green" stroke="none" /><circle cx="4797" cy="1375" r="5" fill="green" stroke="none" /><circle cx="1789" cy="976" r="5" fill="green" stroke="none" /><circle cx="9443" cy="299" r="5" fill="green" stroke="none" /><circle cx="9621" cy="381" r="5" fill="green" stroke="none" /><circle cx="3007" cy="1315" r="5" fill="green" stroke="none" /><circle cx="8138" cy="1404" r="5" fill="green" stroke="none" /><circle cx="6049" cy="1167" r="5" fill="green" stroke="none" /><circle cx="743" cy="1004" r="5" fill="green" stroke="none" /><circle cx="7905" cy="1146" r="5" fill="green" stroke="none" /><circle cx="1771" cy="41" r="5" fill="green" stroke="none" /><circle cx="8199" cy="1070" r="5" fill="green" stroke="none" /><circle cx="6162" cy="34" r="5" fill="green" stroke="none" /><circle cx="1888" cy="1307" r="5" fill="green" stroke="none" /><circle cx="4553" cy="231" r="5" fill="green" stroke="none" /><circle cx="250" cy="248" r="5" fill="green" stroke="none" /><circle cx="6357" cy="776" r="5" fill="green" stroke="none" /><circle cx="4219" cy="1254" r="5" fill="green" stroke="none" /><circle cx="727" cy="1376" r="5" fill="green" stroke="none" /><circle cx="7672" cy="865" r="5" fill="green" stroke="none" /><circle cx="6422" cy="383" r="5" fill="green" stroke="none" /><circle cx="9096" cy="1007" r="5" fill="green" stroke="none" /><circle cx="1702" cy="951" r="5" fill="green" stroke="none" /><circle cx="8689" cy="1001" r="5" fill="green" stroke="none" /><circle cx="5126" cy="683" r="5" fill="green" stroke="none" /><circle cx="8160" cy="814" r="5" fill="green" stroke="none" /><circle cx="7853" cy="769" r="5" fill="green" stroke="none" /><circle cx="4343" cy="1583" r="5" fill="green" stroke="none" /><circle cx="5131" cy="660" r="5" fill="green" stroke="none" /><circle cx="4263" cy="942" r="5" fill="green" stroke="none" /><circle cx="7470" cy="1286" r="5" fill="green" stroke="none" /><circle cx="9401" cy="1552" r="5" fill="green" stroke="none" /><circle cx="8275" cy="131" r="5" fill="green" stroke="none" /><circle cx="9167" cy="228" r="5" fill="green" stroke="none" /><circle cx="6937" cy="1519" r="5" fill="green" stroke="none" /><circle cx="2773" cy="1357" r="5" fill="green" stroke="none" /><circle cx="8598" cy="1485" r="5" fill="green" stroke="none" /><circle cx="8494" cy="1172" r="5" fill="green" stroke="none" /><circle cx="5954" cy="943" r="5" fill="green" stroke="none" /><circle cx="3405" cy="800" r="5" fill="green" stroke="none" /><circle cx="2140" cy="315" r="5" fill="green" stroke="none" /><circle cx="6691" cy="330" r="5" fill="green" stroke="none" /><circle cx="2447" cy="1188" r="5" fill="green" stroke="none" /><circle cx="2277" cy="1155" r="5" fill="green" stroke="none" /><circle cx="4826" cy="1220" r="5" fill="green" stroke="none" /><circle cx="4099" cy="172" r="5" fill="green" stroke="none" /><circle cx="6888" cy="193" r="5" fill="green" stroke="none" /><circle cx="1990" cy="890" r="5" fill="green" stroke="none" /><circle cx="2014" cy="318" r="5" fill="green" stroke="none" /><circle cx="4657" cy="62" r="5" fill="green" stroke="none" /><circle cx="8774" cy="871" r="5" fill="green" stroke="none" /><circle cx="1269" cy="185" r="5" fill="green" stroke="none" /><circle cx="3883" cy="1223" r="5" fill="green" stroke="none" /><circle cx="3866" cy="1547" r="5" fill="green" stroke="none" /><circle cx="7548" cy="464" r="5" fill="green" stroke="none" /><circle cx="878" cy="448" r="5" fill="green" stroke="none" /><circle cx="3410" cy="1291" r="5" fill="green" stroke="none" /><circle cx="7591" cy="951" r="5" fill="green" stroke="none" /><circle cx="2880" cy="1605" r="5" fill="green" stroke="none" /><circle cx="8327" cy="1368" r="5" fill="green" stroke="none" /><circle cx="3201" cy="1097" r="5" fill="green" stroke="none" /><circle cx="2605" cy="470" r="5" fill="green" stroke="none" /><circle cx="8980" cy="9" r="5" fill="green" stroke="none" /><circle cx="185" cy="1017" r="5" fill="green" stroke="none" /><circle cx="1294" cy="1184" r="5" fill="green" stroke="none" /><circle cx="8854" cy="1449" r="5" fill="green" stroke="none" /><circle cx="9738" cy="1400" r="5" fill="green" stroke="none" /><circle cx="9562" cy="1349" r="5" fill="green" stroke="none" /><circle cx="6359" cy="1433" r="5" fill="green" stroke="none" /><circle cx="6183" cy="441" r="5" fill="green" stroke="none" /><circle cx="7460" cy="187" r="5" fill="green" stroke="none" /><circle cx="4122" cy="93" r="5" fill="green" stroke="none" /><circle cx="9210" cy="1167" r="5" fill="green" stroke="none" /><circle cx="3248" cy="1614" r="18" fill="red" stroke="none" /><circle cx="3248" cy="1574" r="18" fill="red" stroke="none" /><circle cx="3248" cy="1534" r="18" fill="red" stroke="none" /><circle cx="3248" cy="1494" r="18" fill="red" stroke="none" /><circle cx="3248" cy="1454" r="18" fill="red" stroke="none" /><circle cx="3248" cy="1414" r="18" fill="red" stroke="none" /><circle cx="3248" cy="1374" r="18" fill="red" stroke="none" /><circle cx="3248" cy="1334" r="18" fill="red" stroke="none" /><circle cx="3248" cy="1294" r="18" fill="red" stroke="none" /><circle cx="3248" cy="1254" r="18" fill="red" stroke="none" /><circle cx="3248" cy="1214" r="18" fill="red" stroke="none" /><circle cx="3248" cy="1174" r="18" fill="red" stroke="none" /><circle cx="3248" cy="1134" r="18" fill="red" stroke="none" /><circle cx="3248" cy="1094" r="18" fill="red" stroke="none" /><circle cx="3248" cy="1054" r="18" fill="red" stroke="none" /><circle cx="3248" cy="1014" r="18" fill="red" stroke="none" /><circle cx="3248" cy="974" r="18" fill="red" stroke="none" /><circle cx="3248" cy="934" r="18" fill="red" stroke="none" /><circle cx="3248" cy="894" r="18" fill="red" stroke="none" /><circle cx="3248" cy="854" r="18" fill="red" stroke="none" /><circle cx="3248" cy="814" r="18" fill="red" stroke="none" /><circle cx="3248" cy="774" r="18" fill="red" stroke="none" /><circle cx="3248" cy="734" r="18" fill="red" stroke="none" /><circle cx="3248" cy="694" r="18" fill="red" stroke="none" /><circle cx="3248" cy="654" r="18" fill="red" stroke="none" /><circle cx="5630" cy="1614" r="18" fill="red" stroke="none" /><circle cx="5630" cy="1574" r="18" fill="red" stroke="none" /><circle cx="5630" cy="1534" r="18" fill="red" stroke="none" /><circle cx="5630" cy="1494" r="18" fill="red" stroke="none" /><circle cx="5630" cy="1454" r="18" fill="red" stroke="none" /><circle cx="5630" cy="1414" r="18" fill="red" stroke="none" /><circle cx="5630" cy="1374" r="18" fill="red" stroke="none" /><circle cx="5630" cy="1334" r="18" fill="red" stroke="none" /><circle cx="5630" cy="1294" r="18" fill="red" stroke="none" /><circle cx="5630" cy="1254" r="18" fill="red" stroke="none" /><circle cx="5630" cy="1214" r="18" fill="red" stroke="none" /><circle cx="5630" cy="1174" r="18" fill="red" stroke="none" /><circle cx="5630" cy="1134" r="18" fill="red" stroke="none" /><circle cx="5630" cy="1094" r="18" fill="red" stroke="none" /><circle cx="5630" cy="1054" r="18" fill="red" stroke="none" /><circle cx="5630" cy="1014" r="18" fill="red" stroke="none" /><circle cx="5630" cy="974" r="18" fill="red" stroke="none" /><circle cx="5630" cy="934" r="18" fill="red" stroke="none" /><circle cx="5630" cy="894" r="18" fill="red" stroke="none" /><circle cx="5630" cy="854" r="18" fill="red" stroke="none" /><circle cx="5630" cy="814" r="18" fill="red" stroke="none" /><circle cx="5630" cy="774" r="18" fill="red" stroke="none" /><circle cx="5630" cy="734" r="18" fill="red" stroke="none" /><circle cx="5630" cy="694" r="18" fill="red" stroke="none" /><circle cx="5630" cy="654" r="18" fill="red" stroke="none" /></svg>