<svg viewBox="0 0 8342 4137" xmlns="http://www.w3.org/2000/svg"><rect x="0" y="0" width="8342" height="4137" fill="lightyellow" stroke="none "/><rect x="3888" y="322" width="718" height="572" fill="white" stroke="black "/><circle cx="1518" cy="3009" r="5" fill="green" stroke="none" /><circle cx="127" cy="2326" r="5" fill="green" stroke="none" /><circle cx="6897" cy="88" r="5" fill="green" stroke="none" /><circle cx="571" cy="2226" r="5" fill="green" stroke="none" /><circle cx="7326" cy="310" r="5" fill="green" stroke="none" /><circle cx="1117" cy="2896" r="5" fill="green" stroke="none" /><circle cx="1492" cy="2955" r="5" fill="green" stroke="none" /><circle cx="3913" cy="1271" r="5" fill="green" stroke="none" /><circle cx="5001" cy="930" r="5" fill="green" stroke="none" /><circle cx="5824" cy="1420" r="5" fill="green" stroke="none" /><circle cx="5101" cy="1502" r="5" fill="green" stroke="none" /><circle cx="7380" cy="3997" r="5" fill="green" stroke="none" /><circle cx="5633" cy="3456" r="5" fill="green" stroke="none" /><circle cx="237" cy="1770" r="5" fill="green" stroke="none" /><circle cx="1039" cy="3098" r="5" fill="green" stroke="none" /><circle cx="7217" cy="1698" r="5" fill="green" stroke="none" /><circle cx="418" cy="3891" r="5" fill="green" stroke="none" /><circle cx="1827" cy="972" r="5" fill="green" stroke="none" /><circle cx="49" cy="935" r="5" fill="green" stroke="none" /><circle cx="5982" cy="2054" r="5" fill="green" stroke="none" /><circle cx="2967" cy="1386" r="5" fill="green" stroke="none" /><circle cx="3911" cy="3489" r="5" fill="green" stroke="none" /><circle cx="7662" cy="3037" r="5" fill="green" stroke="none" /><circle cx="3212" cy="1557" r="5" fill="green" stroke="none" /><circle cx="7927" cy="1876" r="5" fill="green" stroke="none" /><circle cx="3832" cy="3889" r="5" fill="green" stroke="none" /><circle cx="2613" cy="3544" r="5" fill="green" stroke="none" /><circle cx="6047" cy="1556" r="5" fill="green" stroke="none" /><circle cx="7815" cy="1075" r="5" fill="green" stroke="none" /><circle cx="1174" cy="3120" r="5" fill="green" stroke="none" /><circle cx="5950" cy="102" r="5" fill="green" stroke="none" /><circle cx="1280" cy="1858" r="5" fill="green" stroke="none" /><circle cx="6064" cy="905" r="5" fill="green" stroke="none" /><circle cx="5807" cy="3039" r="5" fill="green" stroke="none" /><circle cx="2811" cy="3177" r="5" fill="green" stroke="none" /><circle cx="1528" cy="4083" r="5" fill="green" stroke="none" /><circle cx="3372" cy="2046" r="5" fill="green" stroke="none" /><circle cx="4246" cy="1875" r="5" fill="green" stroke="none" /><circle cx="553" cy="2723" r="5" fill="green" stroke="none" /><circle cx="513" cy="3819" r="5" fill="green" stroke="none" /><circle cx="3509" cy="1909" r="5" fill="green" stroke="none" /><circle cx="6656" cy="1787" r="5" fill="green" stroke="none" /><circle cx="5580" cy="3103" r="5" fill="green" stroke="none" /><circle cx="1555" cy="2887" r="5" fill="green" stroke="none" /><circle cx="1828" cy="2677" r="5" fill="green" stroke="none" /><circle cx="6081" cy="1607" r="5" fill="green" stroke="none" /><circle cx="5344" cy="3196" r="5" fill="green" stroke="none" /><circle cx="4726" cy="2286" r="5" fill="green" stroke="none" /><circle cx="6202" cy="259" r="5" fill="green" stroke="none" /><circle cx="4698" cy="2765" r="5" fill="green" stroke="none" /><circle cx="8124" cy="3891" r="5" fill="green" stroke="none" /><circle cx="6594" cy="1122" r="5" fill="green" stroke="none" /><circle cx="6145" cy="2850" r="5" fill="green" stroke="none" /><circle cx="4742" cy="2813" r="5" fill="green" stroke="none" /><circle cx="2496" cy="2956" r="5" fill="green" stroke="none" /><circle cx="3005" cy="4100" r="5" fill="green" stroke="none" /><circle cx="1829" cy="3709" r="5" fill="green" stroke="none" /><circle cx="4154" cy="926" r="5" fill="green" stroke="none" /><circle cx="5484" cy="99" r="5" fill="green" stroke="none" /><circle cx="4452" cy="1544" r="5" fill="green" stroke="none" /><circle cx="6012" cy="2848" r="5" fill="green" stroke="none" /><circle cx="2450" cy="3662" r="5" fill="green" stroke="none" /><circle cx="1718" cy="2537" r="5" fill="green" stroke="none" /><circle cx="4591" cy="3853" r="5" fill="green" stroke="none" /><circle cx="3781" cy="3580" r="5" fill="green" stroke="none" /><circle cx="6473" cy="208" r="5" fill="green" stroke="none" /><circle cx="6199" cy="1020" r="5" fill="green" stroke="none" /><circle cx="4818" cy="3532" r="5" fill="green" stroke="none" /><circle cx="6229" cy="1023" r="5" fill="green" stroke="none" /><circle cx="6032" cy="1759" r="5" fill="green" stroke="none" /><circle cx="5689" cy="3445" r="5" fill="green" stroke="none" /><circle cx="3141" cy="144" r="5" fill="green" stroke="none" /><circle cx="6072" cy="1762" r="5" fill="green" stroke="none" /><circle cx="655" cy="2555" r="5" fill="green" stroke="none" /><circle cx="3403" cy="1420" r="5" fill="green" stroke="none" /><circle cx="2659" cy="2655" r="5" fill="green" stroke="none" /><circle cx="4672" cy="3429" r="5" fill="green" stroke="none" /><circle cx="806" cy="2110" r="5" fill="green" stroke="none" /><circle cx="2591" cy="1583" r="5" fill="green" stroke="none" /><circle cx="987" cy="76" r="5" fill="green" stroke="none" /><circle cx="7504" cy="3181" r="5" fill="green" stroke="none" /><circle cx="1591" cy="1044" r="5" fill="green" stroke="none" /><circle cx="5117" cy="294" r="5" fill="green" stroke="none" /><circle cx="4067" cy="1255" r="5" fill="green" stroke="none" /><circle cx="5170" cy="3088" r="5" fill="green" stroke="none" /><circle cx="31" cy="3137" r="5" fill="green" stroke="none" /><circle cx="1975" cy="2850" r="5" fill="green" stroke="none" /><circle cx="874" cy="3082" r="5" fill="green" stroke="none" /><circle cx="447" cy="2032" r="5" fill="green" stroke="none" /><circle cx="4726" cy="1493" r="5" fill="green" stroke="none" /><circle cx="6120" cy="2184" r="5" fill="green" stroke="none" /><circle cx="8197" cy="1716" r="5" fill="green" stroke="none" /><circle cx="7676" cy="2083" r="5" fill="green" stroke="none" /><circle cx="5323" cy="3856" r="5" fill="green" stroke="none" /><circle cx="2385" cy="2068" r="5" fill="green" stroke="none" /><circle cx="5785" cy="1999" r="5" fill="green" stroke="none" /><circle cx="3698" cy="3335" r="5" fill="green" stroke="none" /><circle cx="2696" cy="1198" r="5" fill="green" stroke="none" /><circle cx="3921" cy="3886" r="5" fill="green" stroke="none" /><circle cx="5075" cy="237" r="5" fill="green" stroke="none" /><circle cx="5589" cy="1162" r="5" fill="green" stroke="none" /><circle cx="6951" cy="16" r="5" fill="green" stroke="none" /><circle cx="7084" cy="912" r="5" fill="green" stroke="none" /><circle cx="6438" cy="3305" r="5" fill="green" stroke="none" /><circle cx="4652" cy="3514" r="5" fill="green" stroke="none" /><circle cx="7445" cy="3056" r="5" fill="green" stroke="none" /><circle cx="6557" cy="2000" r="5" fill="green" stroke="none" /><circle cx="419" cy="3819" r="5" fill="green" stroke="none" /><circle cx="6171" cy="909" r="5" fill="green" stroke="none" /><circle cx="8104" cy="1637" r="5" fill="green" stroke="none" /><circle cx="1076" cy="2641" r="5" fill="green" stroke="none" /><circle cx="464" cy="2699" r="5" fill="green" stroke="none" /><circle cx="7939" cy="3848" r="5" fill="green" stroke="none" /><circle cx="6864" cy="2700" r="5" fill="green" stroke="none" /><circle cx="8265" cy="3112" r="5" fill="green" stroke="none" /><circle cx="936" cy="3558" r="5" fill="green" stroke="none" /><circle cx="1504" cy="3741" r="5" fill="green" stroke="none" /><circle cx="5109" cy="1806" r="5" fill="green" stroke="none" /><circle cx="2747" cy="4023" r="5" fill="green" stroke="none" /><circle cx="2784" cy="215" r="5" fill="green" stroke="none" /><circle cx="4094" cy="3157" r="5" fill="green" stroke="none" /><circle cx="5928" cy="3667" r="5" fill="green" stroke="none" /><circle cx="2321" cy="3408" r="5" fill="green" stroke="none" /><circle cx="2892" cy="4031" r="5" fill="green" stroke="none" /><circle cx="4938" cy="1870" r="5" fill="green" stroke="none" /><circle cx="5273" cy="2657" r="5" fill="green" stroke="none" /><circle cx="1493" cy="2643" r="5" fill="green" stroke="none" /><circle cx="4381" cy="2796" r="5" fill="green" stroke="none" /><circle cx="6840" cy="3686" r="5" fill="green" stroke="none" /><circle cx="3614" cy="3795" r="5" fill="green" stroke="none" /><circle cx="3589" cy="2821" r="5" fill="green" stroke="none" /><circle cx="1958" cy="2704" r="5" fill="green" stroke="none" /><circle cx="7656" cy="3874" r="5" fill="green" stroke="none" /><circle cx="4969" cy="2595" r="5" fill="green" stroke="none" /><circle cx="6477" cy="1777" r="5" fill="green" stroke="none" /><circle cx="2550" cy="3754" r="5" fill="green" stroke="none" /><circle cx="8221" cy="1198" r="5" fill="green" stroke="none" /><circle cx="1764" cy="3120" r="5" fill="green" stroke="none" /><circle cx="2168" cy="1010" r="5" fill="green" stroke="none" /><circle cx="6400" cy="1348" r="5" fill="green" stroke="none" /><circle cx="94" cy="1532" r="5" fill="green" stroke="none" /><circle cx="4812" cy="3680" r="5" fill="green" stroke="none" /><circle cx="2932" cy="1254" r="5" fill="green" stroke="none" /><circle cx="8003" cy="995" r="5" fill="green" stroke="none" /><circle cx="7813" cy="1246" r="5" fill="green" stroke="none" /><circle cx="2984" cy="2567" r="5" fill="green" stroke="none" /><circle cx="6234" cy="3258" r="5" fill="green" stroke="none" /><circle cx="762" cy="1145" r="5" fill="green" stroke="none" /><circle cx="498" cy="2201" r="5" fill="green" stroke="none" /><circle cx="6257" cy="1543" r="5" fill="green" stroke="none" /><circle cx="5198" cy="291" r="5" fill="green" stroke="none" /><circle cx="373" cy="1541" r="5" fill="green" stroke="none" /><circle cx="1245" cy="2554" r="5" fill="green" stroke="none" /><circle cx="377" cy="98" r="5" fill="green" stroke="none" /><circle cx="2589" cy="4077" r="5" fill="green" stroke="none" /><circle cx="2308" cy="1265" r="5" fill="green" stroke="none" /><circle cx="3011" cy="1285" r="5" fill="green" stroke="none" /><circle cx="5311" cy="946" r="5" fill="green" stroke="none" /><circle cx="2269" cy="3280" r="5" fill="green" stroke="none" /><circle cx="1667" cy="2004" r="5" fill="green" stroke="none" /><circle cx="5220" cy="253" r="5" fill="green" stroke="none" /><circle cx="5543" cy="3167" r="5" fill="green" stroke="none" /><circle cx="7345" cy="2851" r="5" fill="green" stroke="none" /><circle cx="7639" cy="1792" r="5" fill="green" stroke="none" /><circle cx="5941" cy="2178" r="5" fill="green" stroke="none" /><circle cx="3254" cy="280" r="5" fill="green" stroke="none" /><circle cx="2133" cy="907" r="5" fill="green" stroke="none" /><circle cx="2753" cy="3589" r="5" fill="green" stroke="none" /><circle cx="2937" cy="2408" r="5" fill="green" stroke="none" /><circle cx="102" cy="2389" r="5" fill="green" stroke="none" /><circle cx="7046" cy="1401" r="5" fill="green" stroke="none" /><circle cx="429" cy="3362" r="5" fill="green" stroke="none" /><circle cx="6322" cy="3665" r="5" fill="green" stroke="none" /><circle cx="7072" cy="1108" r="5" fill="green" stroke="none" /><circle cx="236" cy="207" r="5" fill="green" stroke="none" /><circle cx="160" cy="2825" r="5" fill="green" stroke="none" /><circle cx="6490" cy="1774" r="5" fill="green" stroke="none" /><circle cx="1337" cy="2427" r="5" fill="green" stroke="none" /><circle cx="7565" cy="3474" r="5" fill="green" stroke="none" /><circle cx="7149" cy="97" r="5" fill="green" stroke="none" /><circle cx="6802" cy="3887" r="5" fill="green" stroke="none" /><circle cx="284" cy="3764" r="5" fill="green" stroke="none" /><circle cx="4243" cy="1463" r="5" fill="green" stroke="none" /><circle cx="4664" cy="2805" r="5" fill="green" stroke="none" /><circle cx="441" cy="122" r="5" fill="green" stroke="none" /><circle cx="7247" cy="1133" r="5" fill="green" stroke="none" /><circle cx="4105" cy="199" r="5" fill="green" stroke="none" /><circle cx="5443" cy="2817" r="5" fill="green" stroke="none" /><circle cx="4395" cy="2544" r="5" fill="green" stroke="none" /><circle cx="7921" cy="2193" r="5" fill="green" stroke="none" /><circle cx="1852" cy="3346" r="5" fill="green" stroke="none" /><circle cx="1015" cy="229" r="5" fill="green" stroke="none" /><circle cx="2333" cy="3140" r="5" fill="green" stroke="none" /><circle cx="3722" cy="4116" r="5" fill="green" stroke="none" /><circle cx="7027" cy="1630" r="5" fill="green" stroke="none" /><circle cx="5903" cy="1286" r="5" fill="green" stroke="none" /><circle cx="934" cy="2454" r="5" fill="green" stroke="none" /><circle cx="5469" cy="1860" r="5" fill="green" stroke="none" /><circle cx="5721" cy="255" r="5" fill="green" stroke="none" /><circle cx="4408" cy="2347" r="5" fill="green" stroke="none" /><circle cx="5893" cy="3507" r="5" fill="green" stroke="none" /><circle cx="39" cy="3893" r="5" fill="green" stroke="none" /><circle cx="2867" cy="3860" r="5" fill="green" stroke="none" /><circle cx="5538" cy="1784" r="5" fill="green" stroke="none" /><circle cx="5018" cy="41" r="5" fill="green" stroke="none" /><circle cx="5186" cy="259" r="5" fill="green" stroke="none" /><circle cx="1858" cy="4048" r="5" fill="green" stroke="none" /><circle cx="8061" cy="2399" r="5" fill="green" stroke="none" /><circle cx="6092" cy="2906" r="5" fill="green" stroke="none" /><circle cx="1916" cy="2380" r="5" fill="green" stroke="none" /><circle cx="4431" cy="2158" r="5" fill="green" stroke="none" /><circle cx="6792" cy="2270" r="5" fill="green" stroke="none" /><circle cx="7256" cy="3576" r="5" fill="green" stroke="none" /><circle cx="1031" cy="3565" r="5" fill="green" stroke="none" /><circle cx="2757" cy="285" r="5" fill="green" stroke="none" /><circle cx="6552" cy="114" r="5" fill="green" stroke="none" /><circle cx="955" cy="2334" r="5" fill="green" stroke="none" /><circle cx="7301" cy="1025" r="5" fill="green" stroke="none" /><circle cx="3783" cy="1321" r="5" fill="green" stroke="none" /><circle cx="4392" cy="2380" r="5" fill="green" stroke="none" /><circle cx="6404" cy="4015" r="5" fill="green" stroke="none" /><circle cx="3546" cy="2401" r="5" fill="green" stroke="none" /><circle cx="596" cy="1247" r="5" fill="green" stroke="none" /><circle cx="410" cy="1844" r="5" fill="green" stroke="none" /><circle cx="1715" cy="996" r="5" fill="green" stroke="none" /><circle cx="1039" cy="2010" r="5" fill="green" stroke="none" /><circle cx="1391" cy="949" r="5" fill="green" stroke="none" /><circle cx="5950" cy="3265" r="5" fill="green" stroke="none" /><circle cx="5904" cy="3559" r="5" fill="green" stroke="none" /><circle cx="7917" cy="3235" r="5" fill="green" stroke="none" /><circle cx="6912" cy="3021" r="5" fill="green" stroke="none" /><circle cx="2728" cy="2393" r="5" fill="green" stroke="none" /><circle cx="4820" cy="970" r="5" fill="green" stroke="none" /><circle cx="5615" cy="1049" r="5" fill="green" stroke="none" /><circle cx="5066" cy="1667" r="5" fill="green" stroke="none" /><circle cx="979" cy="1757" r="5" fill="green" stroke="none" /><circle cx="6285" cy="304" r="5" fill="green" stroke="none" /><circle cx="7401" cy="2606" r="5" fill="green" stroke="none" /><circle cx="3148" cy="1454" r="5" fill="green" stroke="none" /><circle cx="5243" cy="2254" r="5" fill="green" stroke="none" /><circle cx="6039" cy="1498" r="5" fill="green" stroke="none" /><circle cx="3721" cy="2273" r="5" fill="green" stroke="none" /><circle cx="1370" cy="897" r="5" fill="green" stroke="none" /><circle cx="2092" cy="2233" r="5" fill="green" stroke="none" /><circle cx="3747" cy="2809" r="5" fill="green" stroke="none" /><circle cx="3278" cy="2969" r="5" fill="green" stroke="none" /><circle cx="668" cy="1992" r="5" fill="green" stroke="none" /><circle cx="1663" cy="1097" r="5" fill="green" stroke="none" /><circle cx="3046" cy="3205" r="5" fill="green" stroke="none" /><circle cx="3162" cy="3085" r="5" fill="green" stroke="none" /><circle cx="734" cy="1332" r="5" fill="green" stroke="none" /><circle cx="959" cy="2801" r="5" fill="green" stroke="none" /><circle cx="341" cy="1704" r="5" fill="green" stroke="none" /><circle cx="2735" cy="3796" r="5" fill="green" stroke="none" /><circle cx="1303" cy="1127" r="5" fill="green" stroke="none" /><circle cx="6496" cy="2305" r="5" fill="green" stroke="none" /><circle cx="3548" cy="3973" r="5" fill="green" stroke="none" /><circle cx="5225" cy="1780" r="5" fill="green" stroke="none" /><circle cx="1961" cy="2987" r="5" fill="green" stroke="none" /><circle cx="88" cy="2413" r="5" fill="green" stroke="none" /><circle cx="1908" cy="2761" r="5" fill="green" stroke="none" /><circle cx="7989" cy="153" r="5" fill="green" stroke="none" /><circle cx="927" cy="3765" r="5" fill="green" stroke="none" /><circle cx="4361" cy="1082" r="5" fill="green" stroke="none" /><circle cx="5874" cy="1903" r="5" fill="green" stroke="none" /><circle cx="7573" cy="1154" r="5" fill="green" stroke="none" /><circle cx="1909" cy="1839" r="5" fill="green" stroke="none" /><circle cx="4916" cy="3831" r="5" fill="green" stroke="none" /><circle cx="6842" cy="1221" r="5" fill="green" stroke="none" /><circle cx="4935" cy="2781" r="5" fill="green" stroke="none" /><circle cx="704" cy="1147" r="5" fill="green" stroke="none" /><circle cx="5959" cy="101" r="5" fill="green" stroke="none" /><circle cx="2108" cy="1222" r="5" fill="green" stroke="none" /><circle cx="1258" cy="3721" r="5" fill="green" stroke="none" /><circle cx="5375" cy="1750" r="5" fill="green" stroke="none" /><circle cx="6403" cy="2703" r="5" fill="green" stroke="none" /><circle cx="7896" cy="3117" r="5" fill="green" stroke="none" /><circle cx="3610" cy="1959" r="5" fill="green" stroke="none" /><circle cx="3493" cy="2354" r="5" fill="green" stroke="none" /><circle cx="889" cy="2303" r="5" fill="green" stroke="none" /><circle cx="7136" cy="3350" r="5" fill="green" stroke="none" /><circle cx="5687" cy="1889" r="5" fill="green" stroke="none" /><circle cx="1919" cy="4058" r="5" fill="green" stroke="none" /><circle cx="5850" cy="1738" r="5" fill="green" stroke="none" /><circle cx="7816" cy="1143" r="5" fill="green" stroke="none" /><circle cx="7101" cy="3538" r="5" fill="green" stroke="none" /><circle cx="2061" cy="1710" r="5" fill="green" stroke="none" /><circle cx="7854" cy="4032" r="5" fill="green" stroke="none" /><circle cx="8251" cy="3691" r="5" fill="green" stroke="none" /><circle cx="505" cy="2264" r="5" fill="green" stroke="none" /><circle cx="3286" cy="1351" r="5" fill="green" stroke="none" /><circle cx="1670" cy="1136" r="5" fill="green" stroke="none" /><circle cx="6499" cy="3039" r="5" fill="green" stroke="none" /><circle cx="432" cy="4041" r="5" fill="green" stroke="none" /><circle cx="1255" cy="3134" r="5" fill="green" stroke="none" /><circle cx="6409" cy="3064" r="5" fill="green" stroke="none" /><circle cx="1837" cy="3291" r="5" fill="green" stroke="none" /><circle cx="6913" cy="3446" r="5" fill="green" stroke="none" /><circle cx="4783" cy="2701" r="5" fill="green" stroke="none" /><circle cx="2882" cy="1888" r="5" fill="green" stroke="none" /><circle cx="5782" cy="3854" r="5" fill="green" stroke="none" /><circle cx="1714" cy="3053" r="5" fill="green" stroke="none" /><circle cx="1110" cy="2418" r="5" fill="green" stroke="none" /><circle cx="1771" cy="2220" r="5" fill="green" stroke="none" /><circle cx="3660" cy="1003" r="5" fill="green" stroke="none" /><circle cx="8010" cy="3342" r="5" fill="green" stroke="none" /><circle cx="4629" cy="2788" r="5" fill="green" stroke="none" /><circle cx="6969" cy="1136" r="5" fill="green" stroke="none" /><circle cx="6183" cy="2105" r="5" fill="green" stroke="none" /><circle cx="6107" cy="1492" r="5" fill="green" stroke="none" /><circle cx="450" cy="1447" r="5" fill="green" stroke="none" /><circle cx="6843" cy="2314" r="5" fill="green" stroke="none" /><circle cx="3230" cy="4074" r="5" fill="green" stroke="none" /><circle cx="716" cy="1401" r="5" fill="green" stroke="none" /><circle cx="5178" cy="4112" r="5" fill="green" stroke="none" /><circle cx="4" cy="907" r="5" fill="green" stroke="none" /><circle cx="2179" cy="279" r="5" fill="green" stroke="none" /><circle cx="1367" cy="1433" r="5" fill="green" stroke="none" /><circle cx="4142" cy="83" r="5" fill="green" stroke="none" /><circle cx="4775" cy="1238" r="5" fill="green" stroke="none" /><circle cx="5076" cy="1437" r="5" fill="green" stroke="none" /><circle cx="5819" cy="1238" r="5" fill="green" stroke="none" /><circle cx="3050" cy="3739" r="5" fill="green" stroke="none" /><circle cx="6999" cy="2702" r="5" fill="green" stroke="none" /><circle cx="5162" cy="2595" r="5" fill="green" stroke="none" /><circle cx="6895" cy="1248" r="5" fill="green" stroke="none" /><circle cx="7773" cy="3559" r="5" fill="green" stroke="none" /><circle cx="817" cy="3720" r="5" fill="green" stroke="none" /><circle cx="7548" cy="1428" r="5" fill="green" stroke="none" /><circle cx="6847" cy="1218" r="5" fill="green" stroke="none" /><circle cx="4231" cy="2917" r="5" fill="green" stroke="none" /><circle cx="1584" cy="1396" r="5" fill="green" stroke="none" /><circle cx="8286" cy="151" r="5" fill="green" stroke="none" /><circle cx="3536" cy="2191" r="5" fill="green" stroke="none" /><circle cx="973" cy="2198" r="5" fill="green" stroke="none" /><circle cx="186" cy="2044" r="5" fill="green" stroke="none" /><circle cx="7395" cy="2380" r="5" fill="green" stroke="none" /><circle cx="7323" cy="3620" r="5" fill="green" stroke="none" /><circle cx="8036" cy="2498" r="5" fill="green" stroke="none" /><circle cx="2254" cy="4110" r="5" fill="green" stroke="none" /><circle cx="2266" cy="1414" r="5" fill="green" stroke="none" /><circle cx="5581" cy="2378" r="5" fill="green" stroke="none" /><circle cx="3730" cy="3742" r="5" fill="green" stroke="none" /><circle cx="5309" cy="905" r="5" fill="green" stroke="none" /><circle cx="4119" cy="2979" r="5" fill="green" stroke="none" /><circle cx="126" cy="4015" r="5" fill="green" stroke="none" /><circle cx="1316" cy="3081" r="5" fill="green" stroke="none" /><circle cx="603" cy="1312" r="5" fill="green" stroke="none" /><circle cx="6650" cy="2343" r="5" fill="green" stroke="none" /><circle cx="1070" cy="3404" r="5" fill="green" stroke="none" /><circle cx="3066" cy="1833" r="5" fill="green" stroke="none" /><circle cx="4682" cy="3086" r="5" fill="green" stroke="none" /><circle cx="3178" cy="1494" r="5" fill="green" stroke="none" /><circle cx="3672" cy="2280" r="5" fill="green" stroke="none" /><circle cx="5929" cy="3959" r="5" fill="green" stroke="none" /><circle cx="4706" cy="3729" r="5" fill="green" stroke="none" /><circle cx="1507" cy="3206" r="5" fill="green" stroke="none" /><circle cx="7818" cy="2311" r="5" fill="green" stroke="none" /><circle cx="2002" cy="2851" r="5" fill="green" stroke="none" /><circle cx="1013" cy="2784" r="5" fill="green" stroke="none" /><circle cx="1030" cy="2950" r="5" fill="green" stroke="none" /><circle cx="6537" cy="2418" r="5" fill="green" stroke="none" /><circle cx="5224" cy="1970" r="5" fill="green" stroke="none" /><circle cx="599" cy="2723" r="5" fill="green" stroke="none" /><circle cx="7450" cy="2868" r="5" fill="green" stroke="none" /><circle cx="1096" cy="3498" r="5" fill="green" stroke="none" /><circle cx="2655" cy="3112" r="5" fill="green" stroke="none" /><circle cx="778" cy="4044" r="5" fill="green" stroke="none" /><circle cx="2974" cy="2147" r="5" fill="green" stroke="none" /><circle cx="7600" cy="27" r="5" fill="green" stroke="none" /><circle cx="4244" cy="1476" r="5" fill="green" stroke="none" /><circle cx="6624" cy="2971" r="5" fill="green" stroke="none" /><circle cx="2305" cy="300" r="5" fill="green" stroke="none" /><circle cx="7763" cy="1564" r="5" fill="green" stroke="none" /><circle cx="4190" cy="2928" r="5" fill="green" stroke="none" /><circle cx="3425" cy="244" r="5" fill="green" stroke="none" /><circle cx="3253" cy="1939" r="5" fill="green" stroke="none" /><circle cx="1927" cy="2352" r="5" fill="green" stroke="none" /><circle cx="2660" cy="1484" r="5" fill="green" stroke="none" /><circle cx="7037" cy="2965" r="5" fill="green" stroke="none" /><circle cx="3641" cy="3441" r="5" fill="green" stroke="none" /><circle cx="4848" cy="108" r="5" fill="green" stroke="none" /><circle cx="47" cy="1415" r="5" fill="green" stroke="none" /><circle cx="4445" cy="1252" r="5" fill="green" stroke="none" /><circle cx="5464" cy="4082" r="5" fill="green" stroke="none" /><circle cx="3794" cy="139" r="5" fill="green" stroke="none" /><circle cx="5666" cy="2164" r="5" fill="green" stroke="none" /><circle cx="4162" cy="1203" r="5" fill="green" stroke="none" /><circle cx="6335" cy="2725" r="5" fill="green" stroke="none" /><circle cx="2172" cy="1787" r="5" fill="green" stroke="none" /><circle cx="1002" cy="2900" r="5" fill="green" stroke="none" /><circle cx="6260" cy="3024" r="5" fill="green" stroke="none" /><circle cx="3467" cy="2308" r="5" fill="green" stroke="none" /><circle cx="7711" cy="2232" r="5" fill="green" stroke="none" /><circle cx="5142" cy="1163" r="5" fill="green" stroke="none" /><circle cx="2327" cy="1677" r="5" fill="green" stroke="none" /><circle cx="3976" cy="3757" r="5" fill="green" stroke="none" /><circle cx="1080" cy="3409" r="5" fill="green" stroke="none" /><circle cx="7556" cy="1728" r="5" fill="green" stroke="none" /><circle cx="594" cy="1398" r="5" fill="green" stroke="none" /><circle cx="4102" cy="1235" r="5" fill="green" stroke="none" /><circle cx="5163" cy="2056" r="5" fill="green" stroke="none" /><circle cx="7156" cy="1169" r="5" fill="green" stroke="none" /><circle cx="870" cy="1647" r="5" fill="green" stroke="none" /><circle cx="7598" cy="1141" r="5" fill="green" stroke="none" /><circle cx="6742" cy="1662" r="5" fill="green" stroke="none" /><circle cx="3013" cy="1100" r="5" fill="green" stroke="none" /><circle cx="7698" cy="3679" r="5" fill="green" stroke="none" /><circle cx="7748" cy="1787" r="5" fill="green" stroke="none" /><circle cx="7811" cy="1259" r="5" fill="green" stroke="none" /><circle cx="5877" cy="967" r="5" fill="green" stroke="none" /><circle cx="2349" cy="3933" r="5" fill="green" stroke="none" /><circle cx="1719" cy="2397" r="5" fill="green" stroke="none" /><circle cx="2445" cy="3836" r="5" fill="green" stroke="none" /><circle cx="105" cy="202" r="5" fill="green" stroke="none" /><circle cx="3686" cy="1811" r="5" fill="green" stroke="none" /><circle cx="5831" cy="1175" r="5" fill="green" stroke="none" /><circle cx="1900" cy="171" r="5" fill="green" stroke="none" /><circle cx="5494" cy="254" r="5" fill="green" stroke="none" /><circle cx="6477" cy="3176" r="5" fill="green" stroke="none" /><circle cx="5542" cy="1538" r="5" fill="green" stroke="none" /><circle cx="3503" cy="2493" r="5" fill="green" stroke="none" /><circle cx="686" cy="1117" r="5" fill="green" stroke="none" /><circle cx="5267" cy="1693" r="5" fill="green" stroke="none" /><circle cx="2729" cy="2097" r="5" fill="green" stroke="none" /><circle cx="7593" cy="2974" r="5" fill="green" stroke="none" /><circle cx="8238" cy="3184" r="5" fill="green" stroke="none" /><circle cx="6009" cy="3596" r="5" fill="green" stroke="none" /><circle cx="3643" cy="2637" r="5" fill="green" stroke="none" /><circle cx="7271" cy="3699" r="5" fill="green" stroke="none" /><circle cx="3561" cy="1094" r="5" fill="green" stroke="none" /><circle cx="2829" cy="3298" r="5" fill="green" stroke="none" /><circle cx="4894" cy="96" r="5" fill="green" stroke="none" /><circle cx="1359" cy="116" r="5" fill="green" stroke="none" /><circle cx="3695" cy="3017" r="5" fill="green" stroke="none" /><circle cx="3576" cy="2038" r="5" fill="green" stroke="none" /><circle cx="2853" cy="2816" r="5" fill="green" stroke="none" /><circle cx="7289" cy="139" r="5" fill="green" stroke="none" /><circle cx="4757" cy="3652" r="5" fill="green" stroke="none" /><circle cx="5947" cy="3846" r="5" fill="green" stroke="none" /><circle cx="2563" cy="123" r="5" fill="green" stroke="none" /><circle cx="5911" cy="3010" r="5" fill="green" stroke="none" /><circle cx="5822" cy="2826" r="5" fill="green" stroke="none" /><circle cx="6222" cy="103" r="5" fill="green" stroke="none" /><circle cx="6600" cy="3285" r="5" fill="green" stroke="none" /><circle cx="6752" cy="4102" r="5" fill="green" stroke="none" /><circle cx="4965" cy="221" r="5" fill="green" stroke="none" /><circle cx="7497" cy="3776" r="5" fill="green" stroke="none" /><circle cx="7142" cy="3932" r="5" fill="green" stroke="none" /><circle cx="385" cy="2738" r="5" fill="green" stroke="none" /><circle cx="1909" cy="269" r="5" fill="green" stroke="none" /><circle cx="488" cy="3840" r="5" fill="green" stroke="none" /><circle cx="7037" cy="1781" r="5" fill="green" stroke="none" /><circle cx="6622" cy="2634" r="5" fill="green" stroke="none" /><circle cx="978" cy="902" r="5" fill="green" stroke="none" /><circle cx="3860" cy="1702" r="5" fill="green" stroke="none" /><circle cx="6210" cy="3054" r="5" fill="green" stroke="none" /><circle cx="3021" cy="3671" r="5" fill="green" stroke="none" /><circle cx="7503" cy="3305" r="5" fill="green" stroke="none" /><circle cx="2169" cy="1035" r="5" fill="green" stroke="none" /><circle cx="3566" cy="1058" r="5" fill="green" stroke="none" /><circle cx="4489" cy="2322" r="5" fill="green" stroke="none" /><circle cx="5738" cy="3144" r="5" fill="green" stroke="none" /><circle cx="7363" cy="2744" r="5" fill="green" stroke="none" /><circle cx="294" cy="2814" r="5" fill="green" stroke="none" /><circle cx="2107" cy="3769" r="5" fill="green" stroke="none" /><circle cx="1548" cy="3167" r="5" fill="green" stroke="none" /><circle cx="3585" cy="1143" r="5" fill="green" stroke="none" /><circle cx="1104" cy="1968" r="5" fill="green" stroke="none" /><circle cx="5358" cy="3598" r="5" fill="green" stroke="none" /><circle cx="3388" cy="2612" r="5" fill="green" stroke="none" /><circle cx="305" cy="3730" r="5" fill="green" stroke="none" /><circle cx="3076" cy="285" r="5" fill="green" stroke="none" /><circle cx="1665" cy="3971" r="5" fill="green" stroke="none" /><circle cx="6391" cy="3632" r="5" fill="green" stroke="none" /><circle cx="852" cy="3289" r="5" fill="green" stroke="none" /><circle cx="5689" cy="3205" r="5" fill="green" stroke="none" /><circle cx="4839" cy="1658" r="5" fill="green" stroke="none" /><circle cx="8333" cy="3168" r="5" fill="green" stroke="none" /><circle cx="2305" cy="3107" r="5" fill="green" stroke="none" /><circle cx="1892" cy="2940" r="5" fill="green" stroke="none" /><circle cx="4864" cy="271" r="5" fill="green" stroke="none" /><circle cx="4481" cy="1751" r="5" fill="green" stroke="none" /><circle cx="3225" cy="3329" r="5" fill="green" stroke="none" /><circle cx="5381" cy="1368" r="5" fill="green" stroke="none" /><circle cx="439" cy="3570" r="5" fill="green" stroke="none" /><circle cx="6342" cy="3820" r="5" fill="green" stroke="none" /><circle cx="1266" cy="1369" r="5" fill="green" stroke="none" /><circle cx="1894" cy="1980" r="5" fill="green" stroke="none" /><circle cx="939" cy="260" r="5" fill="green" stroke="none" /><circle cx="85" cy="2957" r="5" fill="green" stroke="none" /><circle cx="2286" cy="3715" r="5" fill="green" stroke="none" /><circle cx="5657" cy="3274" r="5" fill="green" stroke="none" /><circle cx="3954" cy="1814" r="5" fill="green" stroke="none" /><circle cx="544" cy="1159" r="5" fill="green" stroke="none" /><circle cx="6646" cy="2434" r="5" fill="green" stroke="none" /><circle cx="1203" cy="2060" r="5" fill="green" stroke="none" /><circle cx="775" cy="2074" r="5" fill="green" stroke="none" /><circle cx="1959" cy="2555" r="5" fill="green" stroke="none" /><circle cx="7012" cy="1892" r="5" fill="green" stroke="none" /><circle cx="5529" cy="2998" r="5" fill="green" stroke="none" /><circle cx="2773" cy="2395" r="5" fill="green" stroke="none" /><circle cx="5381" cy="2014" r="5" fill="green" stroke="none" /><circle cx="4986" cy="1760" r="5" fill="green" stroke="none" /><circle cx="4610" cy="1447" r="5" fill="green" stroke="none" /><circle cx="1520" cy="1052" r="5" fill="green" stroke="none" /><circle cx="3649" cy="1948" r="5" fill="green" stroke="none" /><circle cx="5189" cy="1394" r="5" fill="green" stroke="none" /><circle cx="2553" cy="1568" r="5" fill="green" stroke="none" /><circle cx="1696" cy="1463" r="5" fill="green" stroke="none" /><circle cx="4719" cy="2381" r="5" fill="green" stroke="none" /><circle cx="2649" cy="2454" r="5" fill="green" stroke="none" /><circle cx="2664" cy="270" r="5" fill="green" stroke="none" /><circle cx="4471" cy="2920" r="5" fill="green" stroke="none" /><circle cx="7143" cy="2925" r="5" fill="green" stroke="none" /><circle cx="284" cy="3657" r="5" fill="green" stroke="none" /><circle cx="4469" cy="1215" r="5" fill="green" stroke="none" /><circle cx="204" cy="2672" r="5" fill="green" stroke="none" /><circle cx="4534" cy="1565" r="5" fill="green" stroke="none" /><circle cx="1096" cy="1601" r="5" fill="green" stroke="none" /><circle cx="2183" cy="3275" r="5" fill="green" stroke="none" /><circle cx="244" cy="4111" r="5" fill="green" stroke="none" /><circle cx="792" cy="2899" r="5" fill="green" stroke="none" /><circle cx="6301" cy="76" r="5" fill="green" stroke="none" /><circle cx="4456" cy="3680" r="5" fill="green" stroke="none" /><circle cx="2303" cy="2298" r="5" fill="green" stroke="none" /><circle cx="1422" cy="3716" r="5" fill="green" stroke="none" /><circle cx="2577" cy="3741" r="5" fill="green" stroke="none" /><circle cx="6175" cy="2164" r="5" fill="green" stroke="none" /><circle cx="3745" cy="157" r="5" fill="green" stroke="none" /><circle cx="1367" cy="135" r="5" fill="green" stroke="none" /><circle cx="8087" cy="964" r="5" fill="green" stroke="none" /><circle cx="7666" cy="1347" r="5" fill="green" stroke="none" /><circle cx="5337" cy="4098" r="5" fill="green" stroke="none" /><circle cx="1663" cy="3050" r="5" fill="green" stroke="none" /><circle cx="6217" cy="909" r="5" fill="green" stroke="none" /><circle cx="3980" cy="2632" r="5" fill="green" stroke="none" /><circle cx="6561" cy="2584" r="5" fill="green" stroke="none" /><circle cx="4036" cy="2046" r="5" fill="green" stroke="none" /><circle cx="4441" cy="3815" r="5" fill="green" stroke="none" /><circle cx="4013" cy="1678" r="5" fill="green" stroke="none" /><circle cx="3293" cy="91" r="5" fill="green" stroke="none" /><circle cx="3634" cy="3963" r="5" fill="green" stroke="none" /><circle cx="2180" cy="1347" r="5" fill="green" stroke="none" /><circle cx="5215" cy="2306" r="5" fill="green" stroke="none" /><circle cx="3561" cy="3035" r="5" fill="green" stroke="none" /><circle cx="147" cy="2460" r="5" fill="green" stroke="none" /><circle cx="7372" cy="201" r="5" fill="green" stroke="none" /><circle cx="1092" cy="293" r="5" fill="green" stroke="none" /><circle cx="4464" cy="8" r="5" fill="green" stroke="none" /><circle cx="1945" cy="2497" r="5" fill="green" stroke="none" /><circle cx="1770" cy="2350" r="5" fill="green" stroke="none" /><circle cx="5960" cy="1761" r="5" fill="green" stroke="none" /><circle cx="2630" cy="2102" r="5" fill="green" stroke="none" /><circle cx="6927" cy="2784" r="5" fill="green" stroke="none" /><circle cx="5395" cy="1451" r="5" fill="green" stroke="none" /><circle cx="4489" cy="3468" r="5" fill="green" stroke="none" /><circle cx="3070" cy="1022" r="5" fill="green" stroke="none" /><circle cx="2092" cy="2570" r="5" fill="green" stroke="none" /><circle cx="2934" cy="1064" r="5" fill="green" stroke="none" /><circle cx="8085" cy="1885" r="5" fill="green" stroke="none" /><circle cx="8092" cy="3094" r="5" fill="green" stroke="none" /><circle cx="2422" cy="4091" r="5" fill="green" stroke="none" /><circle cx="6380" cy="2912" r="5" fill="green" stroke="none" /><circle cx="1246" cy="1273" r="5" fill="green" stroke="none" /><circle cx="2249" cy="1142" r="5" fill="green" stroke="none" /><circle cx="5327" cy="3475" r="5" fill="green" stroke="none" /><circle cx="3954" cy="16" r="5" fill="green" stroke="none" /><circle cx="7203" cy="240" r="5" fill="green" stroke="none" /><circle cx="7927" cy="3371" r="5" fill="green" stroke="none" /><circle cx="356" cy="1598" r="5" fill="green" stroke="none" /><circle cx="7776" cy="3451" r="5" fill="green" stroke="none" /><circle cx="1432" cy="3513" r="5" fill="green" stroke="none" /><circle cx="4869" cy="2799" r="5" fill="green" stroke="none" /><circle cx="1054" cy="1747" r="5" fill="green" stroke="none" /><circle cx="3708" cy="3495" r="5" fill="green" stroke="none" /><circle cx="3505" cy="1884" r="5" fill="green" stroke="none" /><circle cx="5973" cy="2533" r="5" fill="green" stroke="none" /><circle cx="2622" cy="1961" r="5" fill="green" stroke="none" /><circle cx="4057" cy="2202" r="5" fill="green" stroke="none" /><circle cx="523" cy="1995" r="5" fill="green" stroke="none" /><circle cx="4570" cy="3954" r="5" fill="green" stroke="none" /><circle cx="6404" cy="1938" r="5" fill="green" stroke="none" /><circle cx="7675" cy="2976" r="5" fill="green" stroke="none" /><circle cx="1123" cy="1577" r="5" fill="green" stroke="none" /><circle cx="1536" cy="2412" r="5" fill="green" stroke="none" /><circle cx="3987" cy="3266" r="5" fill="green" stroke="none" /><circle cx="9" cy="3030" r="5" fill="green" stroke="none" /><circle cx="322" cy="2401" r="5" fill="green" stroke="none" /><circle cx="1167" cy="2343" r="5" fill="green" stroke="none" /><circle cx="6876" cy="2714" r="5" fill="green" stroke="none" /><circle cx="5176" cy="3398" r="5" fill="green" stroke="none" /><circle cx="5140" cy="1101" r="5" fill="green" stroke="none" /><circle cx="2622" cy="1093" r="5" fill="green" stroke="none" /><circle cx="5091" cy="2027" r="5" fill="green" stroke="none" /><circle cx="4684" cy="1587" r="5" fill="green" stroke="none" /><circle cx="2262" cy="1729" r="5" fill="green" stroke="none" /><circle cx="7380" cy="62" r="5" fill="green" stroke="none" /><circle cx="884" cy="247" r="5" fill="green" stroke="none" /><circle cx="6569" cy="989" r="5" fill="green" stroke="none" /><circle cx="2264" cy="1396" r="5" fill="green" stroke="none" /><circle cx="3135" cy="3410" r="5" fill="green" stroke="none" /><circle cx="764" cy="1071" r="5" fill="green" stroke="none" /><circle cx="5862" cy="3412" r="5" fill="green" stroke="none" /><circle cx="429" cy="1295" r="5" fill="green" stroke="none" /><circle cx="6965" cy="4135" r="5" fill="green" stroke="none" /><circle cx="7993" cy="2720" r="5" fill="green" stroke="none" /><circle cx="7147" cy="2817" r="5" fill="green" stroke="none" /><circle cx="7375" cy="1873" r="5" fill="green" stroke="none" /><circle cx="281" cy="3502" r="5" fill="green" stroke="none" /><circle cx="3261" cy="2518" r="5" fill="green" stroke="none" /><circle cx="5525" cy="4106" r="5" fill="green" stroke="none" /><circle cx="5594" cy="3418" r="5" fill="green" stroke="none" /><circle cx="5019" cy="917" r="5" fill="green" stroke="none" /><circle cx="3524" cy="2843" r="5" fill="green" stroke="none" /><circle cx="2208" cy="3652" r="5" fill="green" stroke="none" /><circle cx="2597" cy="4077" r="5" fill="green" stroke="none" /><circle cx="6659" cy="3695" r="5" fill="green" stroke="none" /><circle cx="61" cy="2820" r="5" fill="green" stroke="none" /><circle cx="3260" cy="261" r="5" fill="green" stroke="none" /><circle cx="1736" cy="2522" r="5" fill="green" stroke="none" /><circle cx="111" cy="62" r="5" fill="green" stroke="none" /><circle cx="2672" cy="3140" r="5" fill="green" stroke="none" /><circle cx="8075" cy="1563" r="5" fill="green" stroke="none" /><circle cx="4101" cy="2991" r="5" fill="green" stroke="none" /><circle cx="2930" cy="935" r="5" fill="green" stroke="none" /><circle cx="2711" cy="1494" r="5" fill="green" stroke="none" /><circle cx="7971" cy="3960" r="5" fill="green" stroke="none" /><circle cx="2519" cy="3474" r="5" fill="green" stroke="none" /><circle cx="2449" cy="2873" r="5" fill="green" stroke="none" /><circle cx="480" cy="2679" r="5" fill="green" stroke="none" /><circle cx="4772" cy="1096" r="5" fill="green" stroke="none" /><circle cx="3673" cy="2952" r="5" fill="green" stroke="none" /><circle cx="7196" cy="3638" r="5" fill="green" stroke="none" /><circle cx="4078" cy="1959" r="5" fill="green" stroke="none" /><circle cx="2925" cy="4121" r="5" fill="green" stroke="none" /><circle cx="4777" cy="1898" r="5" fill="green" stroke="none" /><circle cx="2511" cy="2571" r="5" fill="green" stroke="none" /><circle cx="6740" cy="4132" r="5" fill="green" stroke="none" /><circle cx="754" cy="3253" r="5" fill="green" stroke="none" /><circle cx="4806" cy="277" r="5" fill="green" stroke="none" /><circle cx="2788" cy="227" r="5" fill="green" stroke="none" /><circle cx="7092" cy="1123" r="5" fill="green" stroke="none" /><circle cx="5208" cy="3431" r="5" fill="green" stroke="none" /><circle cx="4374" cy="1440" r="5" fill="green" stroke="none" /><circle cx="7207" cy="2530" r="5" fill="green" stroke="none" /><circle cx="1369" cy="269" r="5" fill="green" stroke="none" /><circle cx="3782" cy="3977" r="5" fill="green" stroke="none" /><circle cx="2246" cy="3290" r="5" fill="green" stroke="none" /><circle cx="6591" cy="3955" r="5" fill="green" stroke="none" /><circle cx="8119" cy="3459" r="5" fill="green" stroke="none" /><circle cx="4233" cy="2352" r="5" fill="green" stroke="none" /><circle cx="1488" cy="3646" r="5" fill="green" stroke="none" /><circle cx="4607" cy="3301" r="5" fill="green" stroke="none" /><circle cx="6738" cy="3702" r="5" fill="green" stroke="none" /><circle cx="3627" cy="3958" r="5" fill="green" stroke="none" /><circle cx="1423" cy="1232" r="5" fill="green" stroke="none" /><circle cx="4217" cy="228" r="5" fill="green" stroke="none" /><circle cx="2035" cy="3855" r="5" fill="green" stroke="none" /><circle cx="5906" cy="7" r="5" fill="green" stroke="none" /><circle cx="3992" cy="243" r="5" fill="green" stroke="none" /><circle cx="1047" cy="1771" r="5" fill="green" stroke="none" /><circle cx="2311" cy="2250" r="5" fill="green" stroke="none" /><circle cx="3206" cy="1771" r="5" fill="green" stroke="none" /><circle cx="3876" cy="3951" r="5" fill="green" stroke="none" /><circle cx="7808" cy="1653" r="5" fill="green" stroke="none" /><circle cx="2718" cy="2437" r="5" fill="green" stroke="none" /><circle cx="2735" cy="3933" r="5" fill="green" stroke="none" /><circle cx="6570" cy="2676" r="5" fill="green" stroke="none" /><circle cx="2206" cy="2070" r="5" fill="green" stroke="none" /><circle cx="1175" cy="1600" r="5" fill="green" stroke="none" /><circle cx="1927" cy="2641" r="5" fill="green" stroke="none" /><circle cx="6192" cy="4130" r="5" fill="green" stroke="none" /><circle cx="6108" cy="1530" r="5" fill="green" stroke="none" /><circle cx="6199" cy="1292" r="5" fill="green" stroke="none" /><circle cx="3937" cy="3088" r="5" fill="green" stroke="none" /><circle cx="1991" cy="3280" r="5" fill="green" stroke="none" /><circle cx="4780" cy="2327" r="5" fill="green" stroke="none" /><circle cx="5576" cy="1198" r="5" fill="green" stroke="none" /><circle cx="5360" cy="3233" r="5" fill="green" stroke="none" /><circle cx="5420" cy="1012" r="5" fill="green" stroke="none" /><circle cx="3662" cy="2501" r="5" fill="green" stroke="none" /><circle cx="4049" cy="1887" r="5" fill="green" stroke="none" /><circle cx="1630" cy="3852" r="5" fill="green" stroke="none" /><circle cx="3957" cy="1169" r="5" fill="green" stroke="none" /><circle cx="1701" cy="914" r="5" fill="green" stroke="none" /><circle cx="4918" cy="274" r="5" fill="green" stroke="none" /><circle cx="6953" cy="3453" r="5" fill="green" stroke="none" /><circle cx="3902" cy="917" r="5" fill="green" stroke="none" /><circle cx="4637" cy="1239" r="5" fill="green" stroke="none" /><circle cx="4596" cy="3795" r="5" fill="green" stroke="none" /><circle cx="4148" cy="2429" r="5" fill="green" stroke="none" /><circle cx="2341" cy="4132" r="5" fill="green" stroke="none" /><circle cx="5482" cy="4122" r="5" fill="green" stroke="none" /><circle cx="3592" cy="2376" r="5" fill="green" stroke="none" /><circle cx="4649" cy="3703" r="5" fill="green" stroke="none" /><circle cx="4178" cy="3347" r="5" fill="green" stroke="none" /><circle cx="7287" cy="1291" r="5" fill="green" stroke="none" /><circle cx="2373" cy="2257" r="5" fill="green" stroke="none" /><circle cx="2946" cy="3646" r="5" fill="green" stroke="none" /><circle cx="3888" cy="944" r="10" fill="red" stroke="none" /><circle cx="3908" cy="944" r="10" fill="red" stroke="none" /><circle cx="3928" cy="944" r="10" fill="red" stroke="none" /><circle cx="3948" cy="944" r="10" fill="red" stroke="none" /><circle cx="3968" cy="944" r="10" fill="red" stroke="none" /><circle cx="3988" cy="944" r="10" fill="red" stroke="none" /><circle cx="4008" cy="944" r="10" fill="red" stroke="none" /><circle cx="4028" cy="944" r="10" fill="red" stroke="none" /><circle cx="3888" cy="272" r="10" fill="red" stroke="none" /><circle cx="3908" cy="272" r="10" fill="red" stroke="none" /><circle cx="3928" cy="272" r="10" fill="red" stroke="none" /><circle cx="3948" cy="272" r="10" fill="red" stroke="none" /><circle cx="3968" cy="272" r="10" fill="red" stroke="none" /><circle cx="3988" cy="272" r="10" fill="red" stroke="none" /><circle cx="4008" cy="272" r="10" fill="red" stroke="none" /><circle cx="4028" cy="272" r="10" fill="red" stroke="none" /><circle cx="4048" cy="272" r="10" fill="red" stroke="none" /></svg>