<svg viewBox="0 0 1550 9992" xmlns="http://www.w3.org/2000/svg"><rect x="0" y="0" width="1550" height="9992" fill="lightyellow" stroke="none "/><rect x="793" y="6311" width="511" height="2681" fill="white" stroke="black "/><circle cx="1489" cy="8639" r="5" fill="green" stroke="none" /><circle cx="390" cy="149" r="5" fill="green" stroke="none" /><circle cx="757" cy="7115" r="5" fill="green" stroke="none" /><circle cx="1366" cy="9080" r="5" fill="green" stroke="none" /><circle cx="615" cy="6669" r="5" fill="green" stroke="none" /><circle cx="1183" cy="9444" r="5" fill="green" stroke="none" /><circle cx="1176" cy="3492" r="5" fill="green" stroke="none" /><circle cx="114" cy="4249" r="5" fill="green" stroke="none" /><circle cx="1219" cy="9299" r="5" fill="green" stroke="none" /><circle cx="377" cy="9375" r="5" fill="green" stroke="none" /><circle cx="538" cy="5181" r="5" fill="green" stroke="none" /><circle cx="610" cy="5090" r="5" fill="green" stroke="none" /><circle cx="584" cy="9418" r="5" fill="green" stroke="none" /><circle cx="989" cy="1910" r="5" fill="green" stroke="none" /><circle cx="404" cy="6038" r="5" fill="green" stroke="none" /><circle cx="1344" cy="233" r="5" fill="green" stroke="none" /><circle cx="652" cy="2911" r="5" fill="green" stroke="none" /><circle cx="362" cy="5413" r="5" fill="green" stroke="none" /><circle cx="1490" cy="7062" r="5" fill="green" stroke="none" /><circle cx="384" cy="98" r="5" fill="green" stroke="none" /><circle cx="309" cy="5733" r="5" fill="green" stroke="none" /><circle cx="75" cy="3193" r="5" fill="green" stroke="none" /><circle cx="1299" cy="3620" r="5" fill="green" stroke="none" /><circle cx="497" cy="6666" r="5" fill="green" stroke="none" /><circle cx="1097" cy="4522" r="5" fill="green" stroke="none" /><circle cx="1428" cy="3650" r="5" fill="green" stroke="none" /><circle cx="1225" cy="6252" r="5" fill="green" stroke="none" /><circle cx="1519" cy="6088" r="5" fill="green" stroke="none" /><circle cx="822" cy="2631" r="5" fill="green" stroke="none" /><circle cx="614" cy="4982" r="5" fill="green" stroke="none" /><circle cx="26" cy="3452" r="5" fill="green" stroke="none" /><circle cx="73" cy="2874" r="5" fill="green" stroke="none" /><circle cx="310" cy="8273" r="5" fill="green" stroke="none" /><circle cx="1093" cy="9888" r="5" fill="green" stroke="none" /><circle cx="1154" cy="5892" r="5" fill="green" stroke="none" /><circle cx="1420" cy="6390" r="5" fill="green" stroke="none" /><circle cx="923" cy="4114" r="5" fill="green" stroke="none" /><circle cx="84" cy="571" r="5" fill="green" stroke="none" /><circle cx="1375" cy="9869" r="5" fill="green" stroke="none" /><circle cx="659" cy="1708" r="5" fill="green" stroke="none" /><circle cx="1284" cy="2706" r="5" fill="green" stroke="none" /><circle cx="159" cy="188" r="5" fill="green" stroke="none" /><circle cx="811" cy="535" r="5" fill="green" stroke="none" /><circle cx="437" cy="7985" r="5" fill="green" stroke="none" /><circle cx="1277" cy="1813" r="5" fill="green" stroke="none" /><circle cx="23" cy="9457" r="5" fill="green" stroke="none" /><circle cx="1185" cy="4658" r="5" fill="green" stroke="none" /><circle cx="1268" cy="1913" r="5" fill="green" stroke="none" /><circle cx="326" cy="3634" r="5" fill="green" stroke="none" /><circle cx="906" cy="2457" r="5" fill="green" stroke="none" /><circle cx="791" cy="5739" r="5" fill="green" stroke="none" /><circle cx="794" cy="3719" r="5" fill="green" stroke="none" /><circle cx="779" cy="6965" r="5" fill="green" stroke="none" /><circle cx="1369" cy="9844" r="5" fill="green" stroke="none" /><circle cx="720" cy="1768" r="5" fill="green" stroke="none" /><circle cx="1054" cy="9514" r="5" fill="green" stroke="none" /><circle cx="987" cy="5502" r="5" fill="green" stroke="none" /><circle cx="742" cy="5552" r="5" fill="green" stroke="none" /><circle cx="173" cy="8572" r="5" fill="green" stroke="none" /><circle cx="414" cy="417" r="5" fill="green" stroke="none" /><circle cx="1548" cy="1654" r="5" fill="green" stroke="none" /><circle cx="1372" cy="7439" r="5" fill="green" stroke="none" /><circle cx="1303" cy="2314" r="5" fill="green" stroke="none" /><circle cx="1415" cy="1565" r="5" fill="green" stroke="none" /><circle cx="1274" cy="5170" r="5" fill="green" stroke="none" /><circle cx="421" cy="4957" r="5" fill="green" stroke="none" /><circle cx="849" cy="5088" r="5" fill="green" stroke="none" /><circle cx="44" cy="9668" r="5" fill="green" stroke="none" /><circle cx="1514" cy="9385" r="5" fill="green" stroke="none" /><circle cx="1231" cy="5506" r="5" fill="green" stroke="none" /><circle cx="481" cy="1081" r="5" fill="green" stroke="none" /><circle cx="302" cy="979" r="5" fill="green" stroke="none" /><circle cx="1408" cy="2753" r="5" fill="green" stroke="none" /><circle cx="1525" cy="9223" r="5" fill="green" stroke="none" /><circle cx="563" cy="9647" r="5" fill="green" stroke="none" /><circle cx="550" cy="1777" r="5" fill="green" stroke="none" /><circle cx="1088" cy="5762" r="5" fill="green" stroke="none" /><circle cx="495" cy="1417" r="5" fill="green" stroke="none" /><circle cx="286" cy="2007" r="5" fill="green" stroke="none" /><circle cx="722" cy="8707" r="5" fill="green" stroke="none" /><circle cx="1542" cy="1191" r="5" fill="green" stroke="none" /><circle cx="498" cy="1098" r="5" fill="green" stroke="none" /><circle cx="742" cy="2223" r="5" fill="green" stroke="none" /><circle cx="760" cy="9487" r="5" fill="green" stroke="none" /><circle cx="324" cy="8966" r="5" fill="green" stroke="none" /><circle cx="883" cy="4814" r="5" fill="green" stroke="none" /><circle cx="583" cy="1972" r="5" fill="green" stroke="none" /><circle cx="1375" cy="4284" r="5" fill="green" stroke="none" /><circle cx="957" cy="4196" r="5" fill="green" stroke="none" /><circle cx="1322" cy="6501" r="5" fill="green" stroke="none" /><circle cx="1524" cy="6815" r="5" fill="green" stroke="none" /><circle cx="286" cy="2074" r="5" fill="green" stroke="none" /><circle cx="746" cy="4649" r="5" fill="green" stroke="none" /><circle cx="159" cy="4758" r="5" fill="green" stroke="none" /><circle cx="809" cy="3788" r="5" fill="green" stroke="none" /><circle cx="596" cy="2407" r="5" fill="green" stroke="none" /><circle cx="1193" cy="6050" r="5" fill="green" stroke="none" /><circle cx="120" cy="3692" r="5" fill="green" stroke="none" /><circle cx="946" cy="1197" r="5" fill="green" stroke="none" /><circle cx="96" cy="4867" r="5" fill="green" stroke="none" /><circle cx="863" cy="2441" r="5" fill="green" stroke="none" /><circle cx="700" cy="8089" r="5" fill="green" stroke="none" /><circle cx="483" cy="7120" r="5" fill="green" stroke="none" /><circle cx="686" cy="7480" r="5" fill="green" stroke="none" /><circle cx="1338" cy="6414" r="5" fill="green" stroke="none" /><circle cx="1443" cy="2670" r="5" fill="green" stroke="none" /><circle cx="6" cy="7107" r="5" fill="green" stroke="none" /><circle cx="762" cy="4951" r="5" fill="green" stroke="none" /><circle cx="410" cy="5290" r="5" fill="green" stroke="none" /><circle cx="89" cy="1396" r="5" fill="green" stroke="none" /><circle cx="370" cy="3518" r="5" fill="green" stroke="none" /><circle cx="266" cy="5359" r="5" fill="green" stroke="none" /><circle cx="1224" cy="2856" r="5" fill="green" stroke="none" /><circle cx="39" cy="9761" r="5" fill="green" stroke="none" /><circle cx="1108" cy="4264" r="5" fill="green" stroke="none" /><circle cx="712" cy="5934" r="5" fill="green" stroke="none" /><circle cx="215" cy="7254" r="5" fill="green" stroke="none" /><circle cx="510" cy="7816" r="5" fill="green" stroke="none" /><circle cx="391" cy="8070" r="5" fill="green" stroke="none" /><circle cx="328" cy="5744" r="5" fill="green" stroke="none" /><circle cx="347" cy="5314" r="5" fill="green" stroke="none" /><circle cx="1029" cy="3453" r="5" fill="green" stroke="none" /><circle cx="302" cy="9057" r="5" fill="green" stroke="none" /><circle cx="1488" cy="2" r="5" fill="green" stroke="none" /><circle cx="406" cy="4725" r="5" fill="green" stroke="none" /><circle cx="61" cy="2144" r="5" fill="green" stroke="none" /><circle cx="59" cy="2196" r="5" fill="green" stroke="none" /><circle cx="636" cy="1648" r="5" fill="green" stroke="none" /><circle cx="633" cy="2831" r="5" fill="green" stroke="none" /><circle cx="464" cy="2115" r="5" fill="green" stroke="none" /><circle cx="248" cy="9070" r="5" fill="green" stroke="none" /><circle cx="1006" cy="2211" r="5" fill="green" stroke="none" /><circle cx="689" cy="5650" r="5" fill="green" stroke="none" /><circle cx="364" cy="14" r="5" fill="green" stroke="none" /><circle cx="232" cy="9028" r="5" fill="green" stroke="none" /><circle cx="187" cy="5169" r="5" fill="green" stroke="none" /><circle cx="572" cy="5869" r="5" fill="green" stroke="none" /><circle cx="643" cy="5649" r="5" fill="green" stroke="none" /><circle cx="1245" cy="4969" r="5" fill="green" stroke="none" /><circle cx="86" cy="9312" r="5" fill="green" stroke="none" /><circle cx="747" cy="7940" r="5" fill="green" stroke="none" /><circle cx="1206" cy="5728" r="5" fill="green" stroke="none" /><circle cx="1169" cy="9315" r="5" fill="green" stroke="none" /><circle cx="599" cy="3923" r="5" fill="green" stroke="none" /><circle cx="847" cy="122" r="5" fill="green" stroke="none" /><circle cx="285" cy="9416" r="5" fill="green" stroke="none" /><circle cx="264" cy="5829" r="5" fill="green" stroke="none" /><circle cx="592" cy="7921" r="5" fill="green" stroke="none" /><circle cx="1498" cy="8786" r="5" fill="green" stroke="none" /><circle cx="45" cy="1441" r="5" fill="green" stroke="none" /><circle cx="481" cy="1824" r="5" fill="green" stroke="none" /><circle cx="325" cy="2841" r="5" fill="green" stroke="none" /><circle cx="1356" cy="2676" r="5" fill="green" stroke="none" /><circle cx="335" cy="4581" r="5" fill="green" stroke="none" /><circle cx="1323" cy="3008" r="5" fill="green" stroke="none" /><circle cx="946" cy="797" r="5" fill="green" stroke="none" /><circle cx="14" cy="7104" r="5" fill="green" stroke="none" /><circle cx="565" cy="9027" r="5" fill="green" stroke="none" /><circle cx="397" cy="4081" r="5" fill="green" stroke="none" /><circle cx="214" cy="6095" r="5" fill="green" stroke="none" /><circle cx="499" cy="9208" r="5" fill="green" stroke="none" /><circle cx="186" cy="6457" r="5" fill="green" stroke="none" /><circle cx="635" cy="9085" r="5" fill="green" stroke="none" /><circle cx="686" cy="2101" r="5" fill="green" stroke="none" /><circle cx="383" cy="6605" r="5" fill="green" stroke="none" /><circle cx="503" cy="6823" r="5" fill="green" stroke="none" /><circle cx="776" cy="5996" r="5" fill="green" stroke="none" /><circle cx="489" cy="1386" r="5" fill="green" stroke="none" /><circle cx="386" cy="4355" r="5" fill="green" stroke="none" /><circle cx="1116" cy="3081" r="5" fill="green" stroke="none" /><circle cx="978" cy="5822" r="5" fill="green" stroke="none" /><circle cx="1457" cy="5732" r="5" fill="green" stroke="none" /><circle cx="1438" cy="1663" r="5" fill="green" stroke="none" /><circle cx="53" cy="4292" r="5" fill="green" stroke="none" /><circle cx="1548" cy="8224" r="5" fill="green" stroke="none" /><circle cx="577" cy="1293" r="5" fill="green" stroke="none" /><circle cx="922" cy="5462" r="5" fill="green" stroke="none" /><circle cx="978" cy="9398" r="5" fill="green" stroke="none" /><circle cx="1304" cy="596" r="5" fill="green" stroke="none" /><circle cx="1206" cy="5688" r="5" fill="green" stroke="none" /><circle cx="641" cy="8670" r="5" fill="green" stroke="none" /><circle cx="453" cy="136" r="5" fill="green" stroke="none" /><circle cx="886" cy="5338" r="5" fill="green" stroke="none" /><circle cx="42" cy="2747" r="5" fill="green" stroke="none" /><circle cx="1012" cy="9274" r="5" fill="green" stroke="none" /><circle cx="1152" cy="3657" r="5" fill="green" stroke="none" /><circle cx="204" cy="4771" r="5" fill="green" stroke="none" /><circle cx="874" cy="3152" r="5" fill="green" stroke="none" /><circle cx="521" cy="6539" r="5" fill="green" stroke="none" /><circle cx="17" cy="8036" r="5" fill="green" stroke="none" /><circle cx="1340" cy="4674" r="5" fill="green" stroke="none" /><circle cx="346" cy="3475" r="5" fill="green" stroke="none" /><circle cx="1222" cy="9759" r="5" fill="green" stroke="none" /><circle cx="1040" cy="3978" r="5" fill="green" stroke="none" /><circle cx="1419" cy="7498" r="5" fill="green" stroke="none" /><circle cx="518" cy="6059" r="5" fill="green" stroke="none" /><circle cx="957" cy="267" r="5" fill="green" stroke="none" /><circle cx="71" cy="168" r="5" fill="green" stroke="none" /><circle cx="419" cy="6315" r="5" fill="green" stroke="none" /><circle cx="499" cy="4339" r="5" fill="green" stroke="none" /><circle cx="1508" cy="3240" r="5" fill="green" stroke="none" /><circle cx="329" cy="2804" r="5" fill="green" stroke="none" /><circle cx="731" cy="8286" r="5" fill="green" stroke="none" /><circle cx="211" cy="8055" r="5" fill="green" stroke="none" /><circle cx="118" cy="4262" r="5" fill="green" stroke="none" /><circle cx="1270" cy="1342" r="5" fill="green" stroke="none" /><circle cx="255" cy="4513" r="5" fill="green" stroke="none" /><circle cx="51" cy="7013" r="5" fill="green" stroke="none" /><circle cx="415" cy="7791" r="5" fill="green" stroke="none" /><circle cx="1379" cy="5434" r="5" fill="green" stroke="none" /><circle cx="46" cy="3702" r="5" fill="green" stroke="none" /><circle cx="410" cy="3783" r="5" fill="green" stroke="none" /><circle cx="694" cy="643" r="5" fill="green" stroke="none" /><circle cx="783" cy="1845" r="5" fill="green" stroke="none" /><circle cx="646" cy="5318" r="5" fill="green" stroke="none" /><circle cx="1546" cy="6463" r="5" fill="green" stroke="none" /><circle cx="220" cy="7686" r="5" fill="green" stroke="none" /><circle cx="807" cy="3356" r="5" fill="green" stroke="none" /><circle cx="1331" cy="1695" r="5" fill="green" stroke="none" /><circle cx="463" cy="242" r="5" fill="green" stroke="none" /><circle cx="1086" cy="4525" r="5" fill="green" stroke="none" /><circle cx="613" cy="658" r="5" fill="green" stroke="none" /><circle cx="1092" cy="5532" r="5" fill="green" stroke="none" /><circle cx="1376" cy="3830" r="5" fill="green" stroke="none" /><circle cx="690" cy="5749" r="5" fill="green" stroke="none" /><circle cx="601" cy="2945" r="5" fill="green" stroke="none" /><circle cx="1389" cy="2349" r="5" fill="green" stroke="none" /><circle cx="118" cy="3809" r="5" fill="green" stroke="none" /><circle cx="817" cy="5281" r="5" fill="green" stroke="none" /><circle cx="1283" cy="4003" r="5" fill="green" stroke="none" /><circle cx="483" cy="4815" r="5" fill="green" stroke="none" /><circle cx="586" cy="5070" r="5" fill="green" stroke="none" /><circle cx="430" cy="9000" r="5" fill="green" stroke="none" /><circle cx="304" cy="9150" r="5" fill="green" stroke="none" /><circle cx="129" cy="4990" r="5" fill="green" stroke="none" /><circle cx="412" cy="5149" r="5" fill="green" stroke="none" /><circle cx="437" cy="8350" r="5" fill="green" stroke="none" /><circle cx="245" cy="3691" r="5" fill="green" stroke="none" /><circle cx="672" cy="7897" r="5" fill="green" stroke="none" /><circle cx="931" cy="5095" r="5" fill="green" stroke="none" /><circle cx="1428" cy="1945" r="5" fill="green" stroke="none" /><circle cx="740" cy="3540" r="5" fill="green" stroke="none" /><circle cx="945" cy="3865" r="5" fill="green" stroke="none" /><circle cx="372" cy="1889" r="5" fill="green" stroke="none" /><circle cx="884" cy="2356" r="5" fill="green" stroke="none" /><circle cx="1202" cy="5272" r="5" fill="green" stroke="none" /><circle cx="771" cy="4976" r="5" fill="green" stroke="none" /><circle cx="875" cy="1095" r="5" fill="green" stroke="none" /><circle cx="788" cy="2934" r="5" fill="green" stroke="none" /><circle cx="1540" cy="2816" r="5" fill="green" stroke="none" /><circle cx="1397" cy="5522" r="5" fill="green" stroke="none" /><circle cx="484" cy="5725" r="5" fill="green" stroke="none" /><circle cx="1387" cy="9841" r="5" fill="green" stroke="none" /><circle cx="921" cy="5204" r="5" fill="green" stroke="none" /><circle cx="120" cy="4871" r="5" fill="green" stroke="none" /><circle cx="491" cy="8526" r="5" fill="green" stroke="none" /><circle cx="822" cy="1909" r="5" fill="green" stroke="none" /><circle cx="188" cy="8018" r="5" fill="green" stroke="none" /><circle cx="759" cy="1581" r="5" fill="green" stroke="none" /><circle cx="213" cy="6850" r="5" fill="green" stroke="none" /><circle cx="166" cy="2991" r="5" fill="green" stroke="none" /><circle cx="830" cy="1567" r="5" fill="green" stroke="none" /><circle cx="213" cy="3846" r="5" fill="green" stroke="none" /><circle cx="958" cy="5364" r="5" fill="green" stroke="none" /><circle cx="1543" cy="192" r="5" fill="green" stroke="none" /><circle cx="557" cy="9935" r="5" fill="green" stroke="none" /><circle cx="547" cy="6407" r="5" fill="green" stroke="none" /><circle cx="237" cy="378" r="5" fill="green" stroke="none" /><circle cx="150" cy="609" r="5" fill="green" stroke="none" /><circle cx="417" cy="7531" r="5" fill="green" stroke="none" /><circle cx="1150" cy="9141" r="5" fill="green" stroke="none" /><circle cx="12" cy="5202" r="5" fill="green" stroke="none" /><circle cx="662" cy="7048" r="5" fill="green" stroke="none" /><circle cx="969" cy="4711" r="5" fill="green" stroke="none" /><circle cx="1085" cy="2831" r="5" fill="green" stroke="none" /><circle cx="724" cy="7530" r="5" fill="green" stroke="none" /><circle cx="400" cy="8001" r="5" fill="green" stroke="none" /><circle cx="823" cy="1466" r="5" fill="green" stroke="none" /><circle cx="1465" cy="9245" r="5" fill="green" stroke="none" /><circle cx="23" cy="3080" r="5" fill="green" stroke="none" /><circle cx="838" cy="2062" r="5" fill="green" stroke="none" /><circle cx="1353" cy="2452" r="5" fill="green" stroke="none" /><circle cx="170" cy="9716" r="5" fill="green" stroke="none" /><circle cx="952" cy="3076" r="5" fill="green" stroke="none" /><circle cx="488" cy="3848" r="5" fill="green" stroke="none" /><circle cx="444" cy="1549" r="5" fill="green" stroke="none" /><circle cx="1437" cy="1397" r="5" fill="green" stroke="none" /><circle cx="930" cy="1697" r="5" fill="green" stroke="none" /><circle cx="202" cy="4774" r="5" fill="green" stroke="none" /><circle cx="68" cy="169" r="5" fill="green" stroke="none" /><circle cx="81" cy="5491" r="5" fill="green" stroke="none" /><circle cx="559" cy="1026" r="5" fill="green" stroke="none" /><circle cx="47" cy="9660" r="5" fill="green" stroke="none" /><circle cx="189" cy="3085" r="5" fill="green" stroke="none" /><circle cx="317" cy="1957" r="5" fill="green" stroke="none" /><circle cx="306" cy="6718" r="5" fill="green" stroke="none" /><circle cx="53" cy="1654" r="5" fill="green" stroke="none" /><circle cx="728" cy="6074" r="5" fill="green" stroke="none" /><circle cx="1356" cy="134" r="5" fill="green" stroke="none" /><circle cx="354" cy="6941" r="5" fill="green" stroke="none" /><circle cx="1172" cy="9859" r="5" fill="green" stroke="none" /><circle cx="370" cy="9971" r="5" fill="green" stroke="none" /><circle cx="761" cy="6534" r="5" fill="green" stroke="none" /><circle cx="335" cy="8444" r="5" fill="green" stroke="none" /><circle cx="1183" cy="3854" r="5" fill="green" stroke="none" /><circle cx="1394" cy="3827" r="5" fill="green" stroke="none" /><circle cx="1034" cy="3336" r="5" fill="green" stroke="none" /><circle cx="920" cy="4225" r="5" fill="green" stroke="none" /><circle cx="411" cy="2280" r="5" fill="green" stroke="none" /><circle cx="1020" cy="9849" r="5" fill="green" stroke="none" /><circle cx="593" cy="6357" r="5" fill="green" stroke="none" /><circle cx="639" cy="6235" r="5" fill="green" stroke="none" /><circle cx="1401" cy="4489" r="5" fill="green" stroke="none" /><circle cx="321" cy="4941" r="5" fill="green" stroke="none" /><circle cx="376" cy="2537" r="5" fill="green" stroke="none" /><circle cx="1228" cy="205" r="5" fill="green" stroke="none" /><circle cx="202" cy="3341" r="5" fill="green" stroke="none" /><circle cx="631" cy="6824" r="5" fill="green" stroke="none" /><circle cx="1412" cy="160" r="5" fill="green" stroke="none" /><circle cx="1194" cy="592" r="5" fill="green" stroke="none" /><circle cx="550" cy="3445" r="5" fill="green" stroke="none" /><circle cx="325" cy="7535" r="5" fill="green" stroke="none" /><circle cx="1465" cy="4483" r="5" fill="green" stroke="none" /><circle cx="759" cy="8512" r="5" fill="green" stroke="none" /><circle cx="433" cy="5732" r="5" fill="green" stroke="none" /><circle cx="562" cy="5346" r="5" fill="green" stroke="none" /><circle cx="310" cy="5118" r="5" fill="green" stroke="none" /><circle cx="456" cy="1216" r="5" fill="green" stroke="none" /><circle cx="776" cy="3022" r="5" fill="green" stroke="none" /><circle cx="241" cy="688" r="5" fill="green" stroke="none" /><circle cx="820" cy="3815" r="5" fill="green" stroke="none" /><circle cx="576" cy="8547" r="5" fill="green" stroke="none" /><circle cx="769" cy="2014" r="5" fill="green" stroke="none" /><circle cx="270" cy="6637" r="5" fill="green" stroke="none" /><circle cx="462" cy="7348" r="5" fill="green" stroke="none" /><circle cx="1225" cy="2177" r="5" fill="green" stroke="none" /><circle cx="233" cy="3348" r="5" fill="green" stroke="none" /><circle cx="1061" cy="991" r="5" fill="green" stroke="none" /><circle cx="1325" cy="3724" r="5" fill="green" stroke="none" /><circle cx="752" cy="5269" r="5" fill="green" stroke="none" /><circle cx="703" cy="8337" r="5" fill="green" stroke="none" /><circle cx="113" cy="3806" r="5" fill="green" stroke="none" /><circle cx="899" cy="3617" r="5" fill="green" stroke="none" /><circle cx="735" cy="9879" r="5" fill="green" stroke="none" /><circle cx="316" cy="9670" r="5" fill="green" stroke="none" /><circle cx="632" cy="7557" r="5" fill="green" stroke="none" /><circle cx="820" cy="313" r="5" fill="green" stroke="none" /><circle cx="260" cy="1655" r="5" fill="green" stroke="none" /><circle cx="799" cy="4119" r="5" fill="green" stroke="none" /><circle cx="1525" cy="4717" r="5" fill="green" stroke="none" /><circle cx="703" cy="6806" r="5" fill="green" stroke="none" /><circle cx="11" cy="6241" r="5" fill="green" stroke="none" /><circle cx="217" cy="2284" r="5" fill="green" stroke="none" /><circle cx="849" cy="3093" r="5" fill="green" stroke="none" /><circle cx="422" cy="9298" r="5" fill="green" stroke="none" /><circle cx="333" cy="6434" r="5" fill="green" stroke="none" /><circle cx="314" cy="7309" r="5" fill="green" stroke="none" /><circle cx="14" cy="3172" r="5" fill="green" stroke="none" /><circle cx="543" cy="5954" r="5" fill="green" stroke="none" /><circle cx="1354" cy="60" r="5" fill="green" stroke="none" /><circle cx="24" cy="3471" r="5" fill="green" stroke="none" /><circle cx="1319" cy="7772" r="5" fill="green" stroke="none" /><circle cx="575" cy="3838" r="5" fill="green" stroke="none" /><circle cx="177" cy="4614" r="5" fill="green" stroke="none" /><circle cx="1297" cy="822" r="5" fill="green" stroke="none" /><circle cx="156" cy="3115" r="5" fill="green" stroke="none" /><circle cx="447" cy="8198" r="5" fill="green" stroke="none" /><circle cx="1096" cy="5312" r="5" fill="green" stroke="none" /><circle cx="1462" cy="7086" r="5" fill="green" stroke="none" /><circle cx="100" cy="4398" r="5" fill="green" stroke="none" /><circle cx="21" cy="1785" r="5" fill="green" stroke="none" /><circle cx="1429" cy="4640" r="5" fill="green" stroke="none" /><circle cx="1312" cy="1145" r="5" fill="green" stroke="none" /><circle cx="1101" cy="6012" r="5" fill="green" stroke="none" /><circle cx="1186" cy="5983" r="5" fill="green" stroke="none" /><circle cx="730" cy="4350" r="5" fill="green" stroke="none" /><circle cx="603" cy="5200" r="5" fill="green" stroke="none" /><circle cx="1391" cy="9371" r="5" fill="green" stroke="none" /><circle cx="730" cy="7785" r="5" fill="green" stroke="none" /><circle cx="368" cy="8413" r="5" fill="green" stroke="none" /><circle cx="1092" cy="4226" r="5" fill="green" stroke="none" /><circle cx="162" cy="4153" r="5" fill="green" stroke="none" /><circle cx="38" cy="8303" r="5" fill="green" stroke="none" /><circle cx="235" cy="5742" r="5" fill="green" stroke="none" /><circle cx="1385" cy="8025" r="5" fill="green" stroke="none" /><circle cx="1135" cy="1719" r="5" fill="green" stroke="none" /><circle cx="822" cy="5369" r="5" fill="green" stroke="none" /><circle cx="1328" cy="6567" r="5" fill="green" stroke="none" /><circle cx="1258" cy="4959" r="5" fill="green" stroke="none" /><circle cx="1006" cy="4815" r="5" fill="green" stroke="none" /><circle cx="266" cy="4728" r="5" fill="green" stroke="none" /><circle cx="270" cy="8315" r="5" fill="green" stroke="none" /><circle cx="1143" cy="4333" r="5" fill="green" stroke="none" /><circle cx="67" cy="699" r="5" fill="green" stroke="none" /><circle cx="805" cy="443" r="5" fill="green" stroke="none" /><circle cx="1153" cy="1163" r="5" fill="green" stroke="none" /><circle cx="350" cy="877" r="5" fill="green" stroke="none" /><circle cx="1538" cy="5872" r="5" fill="green" stroke="none" /><circle cx="189" cy="8517" r="5" fill="green" stroke="none" /><circle cx="1542" cy="9862" r="5" fill="green" stroke="none" /><circle cx="919" cy="9724" r="5" fill="green" stroke="none" /><circle cx="918" cy="2834" r="5" fill="green" stroke="none" /><circle cx="509" cy="3642" r="5" fill="green" stroke="none" /><circle cx="872" cy="9349" r="5" fill="green" stroke="none" /><circle cx="1288" cy="1605" r="5" fill="green" stroke="none" /><circle cx="1242" cy="5933" r="5" fill="green" stroke="none" /><circle cx="601" cy="2156" r="5" fill="green" stroke="none" /><circle cx="125" cy="8012" r="5" fill="green" stroke="none" /><circle cx="698" cy="5832" r="5" fill="green" stroke="none" /><circle cx="70" cy="528" r="5" fill="green" stroke="none" /><circle cx="1172" cy="2096" r="5" fill="green" stroke="none" /><circle cx="359" cy="1342" r="5" fill="green" stroke="none" /><circle cx="457" cy="2336" r="5" fill="green" stroke="none" /><circle cx="1306" cy="176" r="5" fill="green" stroke="none" /><circle cx="893" cy="9351" r="5" fill="green" stroke="none" /><circle cx="1544" cy="1144" r="5" fill="green" stroke="none" /><circle cx="50" cy="7860" r="5" fill="green" stroke="none" /><circle cx="1357" cy="9017" r="5" fill="green" stroke="none" /><circle cx="1103" cy="5954" r="5" fill="green" stroke="none" /><circle cx="95" cy="3163" r="5" fill="green" stroke="none" /><circle cx="667" cy="4643" r="5" fill="green" stroke="none" /><circle cx="204" cy="9117" r="5" fill="green" stroke="none" /><circle cx="509" cy="2193" r="5" fill="green" stroke="none" /><circle cx="69" cy="9083" r="5" fill="green" stroke="none" /><circle cx="642" cy="77" r="5" fill="green" stroke="none" /><circle cx="440" cy="3511" r="5" fill="green" stroke="none" /><circle cx="373" cy="9658" r="5" fill="green" stroke="none" /><circle cx="1" cy="4966" r="5" fill="green" stroke="none" /><circle cx="205" cy="4338" r="5" fill="green" stroke="none" /><circle cx="28" cy="6143" r="5" fill="green" stroke="none" /><circle cx="1011" cy="4285" r="5" fill="green" stroke="none" /><circle cx="924" cy="4504" r="5" fill="green" stroke="none" /><circle cx="610" cy="9401" r="5" fill="green" stroke="none" /><circle cx="137" cy="4179" r="5" fill="green" stroke="none" /><circle cx="576" cy="9041" r="5" fill="green" stroke="none" /><circle cx="1427" cy="1877" r="5" fill="green" stroke="none" /><circle cx="114" cy="1951" r="5" fill="green" stroke="none" /><circle cx="41" cy="6238" r="5" fill="green" stroke="none" /><circle cx="92" cy="6428" r="5" fill="green" stroke="none" /><circle cx="34" cy="2654" r="5" fill="green" stroke="none" /><circle cx="1241" cy="2052" r="5" fill="green" stroke="none" /><circle cx="874" cy="1194" r="5" fill="green" stroke="none" /><circle cx="701" cy="4874" r="5" fill="green" stroke="none" /><circle cx="1376" cy="4348" r="5" fill="green" stroke="none" /><circle cx="1329" cy="6592" r="5" fill="green" stroke="none" /><circle cx="838" cy="241" r="5" fill="green" stroke="none" /><circle cx="368" cy="5278" r="5" fill="green" stroke="none" /><circle cx="635" cy="2266" r="5" fill="green" stroke="none" /><circle cx="366" cy="6603" r="5" fill="green" stroke="none" /><circle cx="733" cy="7389" r="5" fill="green" stroke="none" /><circle cx="394" cy="5587" r="5" fill="green" stroke="none" /><circle cx="1507" cy="5512" r="5" fill="green" stroke="none" /><circle cx="172" cy="695" r="5" fill="green" stroke="none" /><circle cx="1497" cy="7550" r="5" fill="green" stroke="none" /><circle cx="116" cy="5124" r="5" fill="green" stroke="none" /><circle cx="1381" cy="1049" r="5" fill="green" stroke="none" /><circle cx="1424" cy="7387" r="5" fill="green" stroke="none" /><circle cx="1295" cy="9396" r="5" fill="green" stroke="none" /><circle cx="1039" cy="9742" r="5" fill="green" stroke="none" /><circle cx="1323" cy="5455" r="5" fill="green" stroke="none" /><circle cx="679" cy="594" r="5" fill="green" stroke="none" /><circle cx="780" cy="8307" r="5" fill="green" stroke="none" /><circle cx="1241" cy="4873" r="5" fill="green" stroke="none" /><circle cx="750" cy="3278" r="5" fill="green" stroke="none" /><circle cx="425" cy="2341" r="5" fill="green" stroke="none" /><circle cx="1392" cy="1203" r="5" fill="green" stroke="none" /><circle cx="121" cy="7627" r="5" fill="green" stroke="none" /><circle cx="1143" cy="884" r="5" fill="green" stroke="none" /><circle cx="1348" cy="3011" r="5" fill="green" stroke="none" /><circle cx="290" cy="5229" r="5" fill="green" stroke="none" /><circle cx="654" cy="7718" r="5" fill="green" stroke="none" /><circle cx="315" cy="8742" r="5" fill="green" stroke="none" /><circle cx="350" cy="7468" r="5" fill="green" stroke="none" /><circle cx="1010" cy="439" r="5" fill="green" stroke="none" /><circle cx="1515" cy="6285" r="5" fill="green" stroke="none" /><circle cx="703" cy="9152" r="5" fill="green" stroke="none" /><circle cx="1046" cy="2296" r="5" fill="green" stroke="none" /><circle cx="1468" cy="962" r="5" fill="green" stroke="none" /><circle cx="87" cy="717" r="5" fill="green" stroke="none" /><circle cx="1094" cy="1416" r="5" fill="green" stroke="none" /><circle cx="474" cy="1884" r="5" fill="green" stroke="none" /><circle cx="1050" cy="9213" r="5" fill="green" stroke="none" /><circle cx="758" cy="7749" r="5" fill="green" stroke="none" /><circle cx="574" cy="8483" r="5" fill="green" stroke="none" /><circle cx="497" cy="2658" r="5" fill="green" stroke="none" /><circle cx="290" cy="1668" r="5" fill="green" stroke="none" /><circle cx="1374" cy="6642" r="5" fill="green" stroke="none" /><circle cx="1062" cy="1655" r="5" fill="green" stroke="none" /><circle cx="954" cy="9735" r="5" fill="green" stroke="none" /><circle cx="391" cy="2611" r="5" fill="green" stroke="none" /><circle cx="782" cy="4665" r="5" fill="green" stroke="none" /><circle cx="568" cy="7006" r="5" fill="green" stroke="none" /><circle cx="916" cy="6150" r="5" fill="green" stroke="none" /><circle cx="144" cy="7186" r="5" fill="green" stroke="none" /><circle cx="907" cy="727" r="5" fill="green" stroke="none" /><circle cx="567" cy="7645" r="5" fill="green" stroke="none" /><circle cx="146" cy="2053" r="5" fill="green" stroke="none" /><circle cx="388" cy="6545" r="5" fill="green" stroke="none" /><circle cx="174" cy="7388" r="5" fill="green" stroke="none" /><circle cx="511" cy="8036" r="5" fill="green" stroke="none" /><circle cx="98" cy="3121" r="5" fill="green" stroke="none" /><circle cx="732" cy="1844" r="5" fill="green" stroke="none" /><circle cx="1401" cy="8991" r="5" fill="green" stroke="none" /><circle cx="476" cy="4877" r="5" fill="green" stroke="none" /><circle cx="626" cy="7681" r="5" fill="green" stroke="none" /><circle cx="774" cy="6772" r="5" fill="green" stroke="none" /><circle cx="34" cy="6611" r="5" fill="green" stroke="none" /><circle cx="196" cy="9001" r="5" fill="green" stroke="none" /><circle cx="1273" cy="3759" r="5" fill="green" stroke="none" /><circle cx="1528" cy="3671" r="5" fill="green" stroke="none" /><circle cx="7" cy="6368" r="5" fill="green" stroke="none" /><circle cx="435" cy="4418" r="5" fill="green" stroke="none" /><circle cx="845" cy="369" r="5" fill="green" stroke="none" /><circle cx="870" cy="4739" r="5" fill="green" stroke="none" /><circle cx="1324" cy="6336" r="5" fill="green" stroke="none" /><circle cx="216" cy="3610" r="5" fill="green" stroke="none" /><circle cx="224" cy="3667" r="5" fill="green" stroke="none" /><circle cx="763" cy="4679" r="5" fill="green" stroke="none" /><circle cx="1040" cy="176" r="5" fill="green" stroke="none" /><circle cx="162" cy="9715" r="5" fill="green" stroke="none" /><circle cx="1267" cy="837" r="5" fill="green" stroke="none" /><circle cx="1413" cy="9264" r="5" fill="green" stroke="none" /><circle cx="1396" cy="9876" r="5" fill="green" stroke="none" /><circle cx="365" cy="5407" r="5" fill="green" stroke="none" /><circle cx="623" cy="6668" r="5" fill="green" stroke="none" /><circle cx="237" cy="8836" r="5" fill="green" stroke="none" /><circle cx="35" cy="3389" r="5" fill="green" stroke="none" /><circle cx="33" cy="7764" r="5" fill="green" stroke="none" /><circle cx="555" cy="3194" r="5" fill="green" stroke="none" /><circle cx="1434" cy="5772" r="5" fill="green" stroke="none" /><circle cx="1110" cy="4442" r="5" fill="green" stroke="none" /><circle cx="99" cy="7537" r="5" fill="green" stroke="none" /><circle cx="929" cy="934" r="5" fill="green" stroke="none" /><circle cx="407" cy="1345" r="5" fill="green" stroke="none" /><circle cx="249" cy="1517" r="5" fill="green" stroke="none" /><circle cx="1125" cy="3082" r="5" fill="green" stroke="none" /><circle cx="696" cy="2569" r="5" fill="green" stroke="none" /><circle cx="904" cy="9373" r="5" fill="green" stroke="none" /><circle cx="1302" cy="5550" r="5" fill="green" stroke="none" /><circle cx="20" cy="8131" r="5" fill="green" stroke="none" /><circle cx="1449" cy="5672" r="5" fill="green" stroke="none" /><circle cx="798" cy="3929" r="5" fill="green" stroke="none" /><circle cx="460" cy="4053" r="5" fill="green" stroke="none" /><circle cx="1502" cy="5435" r="5" fill="green" stroke="none" /><circle cx="459" cy="8041" r="5" fill="green" stroke="none" /><circle cx="941" cy="3645" r="5" fill="green" stroke="none" /><circle cx="577" cy="1965" r="5" fill="green" stroke="none" /><circle cx="521" cy="2903" r="5" fill="green" stroke="none" /><circle cx="371" cy="3538" r="5" fill="green" stroke="none" /><circle cx="137" cy="5486" r="5" fill="green" stroke="none" /><circle cx="103" cy="9158" r="5" fill="green" stroke="none" /><circle cx="685" cy="8500" r="5" fill="green" stroke="none" /><circle cx="1379" cy="4739" r="5" fill="green" stroke="none" /><circle cx="1390" cy="9281" r="5" fill="green" stroke="none" /><circle cx="26" cy="7609" r="5" fill="green" stroke="none" /><circle cx="213" cy="3830" r="5" fill="green" stroke="none" /><circle cx="779" cy="3760" r="5" fill="green" stroke="none" /><circle cx="212" cy="5818" r="5" fill="green" stroke="none" /><circle cx="553" cy="9189" r="5" fill="green" stroke="none" /><circle cx="1262" cy="821" r="5" fill="green" stroke="none" /><circle cx="988" cy="4750" r="5" fill="green" stroke="none" /><circle cx="1531" cy="5415" r="5" fill="green" stroke="none" /><circle cx="204" cy="7270" r="5" fill="green" stroke="none" /><circle cx="67" cy="2463" r="5" fill="green" stroke="none" /><circle cx="1342" cy="1609" r="5" fill="green" stroke="none" /><circle cx="475" cy="1871" r="5" fill="green" stroke="none" /><circle cx="571" cy="8827" r="5" fill="green" stroke="none" /><circle cx="674" cy="6689" r="5" fill="green" stroke="none" /><circle cx="1537" cy="5381" r="5" fill="green" stroke="none" /><circle cx="243" cy="9324" r="5" fill="green" stroke="none" /><circle cx="1086" cy="3778" r="5" fill="green" stroke="none" /><circle cx="217" cy="7524" r="5" fill="green" stroke="none" /><circle cx="153" cy="2324" r="5" fill="green" stroke="none" /><circle cx="699" cy="3357" r="5" fill="green" stroke="none" /><circle cx="87" cy="2685" r="5" fill="green" stroke="none" /><circle cx="1432" cy="8649" r="5" fill="green" stroke="none" /><circle cx="1098" cy="2650" r="5" fill="green" stroke="none" /><circle cx="585" cy="8928" r="5" fill="green" stroke="none" /><circle cx="63" cy="257" r="5" fill="green" stroke="none" /><circle cx="383" cy="6757" r="5" fill="green" stroke="none" /><circle cx="202" cy="8439" r="5" fill="green" stroke="none" /><circle cx="16" cy="6983" r="5" fill="green" stroke="none" /><circle cx="449" cy="6076" r="5" fill="green" stroke="none" /><circle cx="778" cy="895" r="5" fill="green" stroke="none" /><circle cx="603" cy="1823" r="5" fill="green" stroke="none" /><circle cx="1154" cy="5956" r="5" fill="green" stroke="none" /><circle cx="1530" cy="465" r="5" fill="green" stroke="none" /><circle cx="698" cy="9897" r="5" fill="green" stroke="none" /><circle cx="1144" cy="4789" r="5" fill="green" stroke="none" /><circle cx="1438" cy="8778" r="5" fill="green" stroke="none" /><circle cx="103" cy="7591" r="5" fill="green" stroke="none" /><circle cx="1216" cy="9635" r="5" fill="green" stroke="none" /><circle cx="844" cy="5687" r="5" fill="green" stroke="none" /><circle cx="1203" cy="6056" r="5" fill="green" stroke="none" /><circle cx="462" cy="1565" r="5" fill="green" stroke="none" /><circle cx="213" cy="5383" r="5" fill="green" stroke="none" /><circle cx="106" cy="7286" r="5" fill="green" stroke="none" /><circle cx="526" cy="7825" r="5" fill="green" stroke="none" /><circle cx="54" cy="4693" r="5" fill="green" stroke="none" /><circle cx="1329" cy="7450" r="5" fill="green" stroke="none" /><circle cx="869" cy="1787" r="5" fill="green" stroke="none" /><circle cx="1425" cy="1790" r="5" fill="green" stroke="none" /><circle cx="1157" cy="2483" r="5" fill="green" stroke="none" /><circle cx="133" cy="3626" r="5" fill="green" stroke="none" /><circle cx="1408" cy="4975" r="5" fill="green" stroke="none" /><circle cx="536" cy="7916" r="5" fill="green" stroke="none" /><circle cx="608" cy="9891" r="5" fill="green" stroke="none" /><circle cx="1397" cy="3239" r="5" fill="green" stroke="none" /><circle cx="819" cy="2841" r="5" fill="green" stroke="none" /><circle cx="1454" cy="4872" r="5" fill="green" stroke="none" /><circle cx="600" cy="562" r="5" fill="green" stroke="none" /><circle cx="307" cy="2651" r="5" fill="green" stroke="none" /><circle cx="521" cy="7464" r="5" fill="green" stroke="none" /><circle cx="115" cy="7474" r="5" fill="green" stroke="none" /><circle cx="386" cy="3740" r="5" fill="green" stroke="none" /><circle cx="981" cy="2612" r="5" fill="green" stroke="none" /><circle cx="1447" cy="135" r="5" fill="green" stroke="none" /><circle cx="425" cy="5661" r="5" fill="green" stroke="none" /><circle cx="1403" cy="3448" r="5" fill="green" stroke="none" /><circle cx="634" cy="1821" r="5" fill="green" stroke="none" /><circle cx="1203" cy="791" r="5" fill="green" stroke="none" /><circle cx="212" cy="2768" r="5" fill="green" stroke="none" /><circle cx="367" cy="532" r="5" fill="green" stroke="none" /><circle cx="748" cy="9016" r="5" fill="green" stroke="none" /><circle cx="1516" cy="2654" r="5" fill="green" stroke="none" /><circle cx="619" cy="4069" r="5" fill="green" stroke="none" /><circle cx="940" cy="845" r="5" fill="green" stroke="none" /><circle cx="206" cy="5059" r="5" fill="green" stroke="none" /><circle cx="946" cy="2146" r="5" fill="green" stroke="none" /><circle cx="303" cy="4118" r="5" fill="green" stroke="none" /><circle cx="324" cy="8568" r="5" fill="green" stroke="none" /><circle cx="302" cy="4914" r="5" fill="green" stroke="none" /><circle cx="238" cy="695" r="5" fill="green" stroke="none" /><circle cx="903" cy="2485" r="5" fill="green" stroke="none" /><circle cx="1366" cy="5789" r="5" fill="green" stroke="none" /><circle cx="1528" cy="106" r="5" fill="green" stroke="none" /><circle cx="97" cy="956" r="5" fill="green" stroke="none" /><circle cx="447" cy="7434" r="5" fill="green" stroke="none" /><circle cx="1309" cy="3500" r="5" fill="green" stroke="none" /><circle cx="688" cy="4537" r="5" fill="green" stroke="none" /><circle cx="108" cy="2194" r="5" fill="green" stroke="none" /><circle cx="659" cy="9019" r="5" fill="green" stroke="none" /><circle cx="700" cy="2295" r="5" fill="green" stroke="none" /><circle cx="449" cy="6414" r="5" fill="green" stroke="none" /><circle cx="680" cy="3663" r="5" fill="green" stroke="none" /><circle cx="114" cy="1322" r="5" fill="green" stroke="none" /><circle cx="26" cy="4444" r="5" fill="green" stroke="none" /><circle cx="104" cy="7738" r="5" fill="green" stroke="none" /><circle cx="659" cy="4953" r="5" fill="green" stroke="none" /><circle cx="918" cy="4205" r="5" fill="green" stroke="none" /><circle cx="259" cy="7552" r="5" fill="green" stroke="none" /><circle cx="93" cy="8892" r="5" fill="green" stroke="none" /><circle cx="1257" cy="4525" r="5" fill="green" stroke="none" /><circle cx="860" cy="54" r="5" fill="green" stroke="none" /><circle cx="27" cy="9274" r="5" fill="green" stroke="none" /><circle cx="694" cy="4991" r="5" fill="green" stroke="none" /><circle cx="1200" cy="9036" r="5" fill="green" stroke="none" /><circle cx="1386" cy="4598" r="5" fill="green" stroke="none" /><circle cx="836" cy="9069" r="5" fill="green" stroke="none" /><circle cx="668" cy="1867" r="5" fill="green" stroke="none" /><circle cx="943" cy="5289" r="5" fill="green" stroke="none" /><circle cx="1046" cy="3999" r="5" fill="green" stroke="none" /><circle cx="316" cy="6273" r="5" fill="green" stroke="none" /><circle cx="366" cy="675" r="5" fill="green" stroke="none" /><circle cx="915" cy="2446" r="5" fill="green" stroke="none" /><circle cx="798" cy="2726" r="5" fill="green" stroke="none" /><circle cx="742" cy="6905" r="5" fill="green" stroke="none" /><circle cx="430" cy="5030" r="5" fill="green" stroke="none" /><circle cx="874" cy="3604" r="5" fill="green" stroke="none" /><circle cx="260" cy="6780" r="5" fill="green" stroke="none" /><circle cx="683" cy="8001" r="5" fill="green" stroke="none" /><circle cx="1303" cy="499" r="5" fill="green" stroke="none" /><circle cx="1266" cy="2133" r="5" fill="green" stroke="none" /><circle cx="1346" cy="7772" r="5" fill="green" stroke="none" /><circle cx="1108" cy="4714" r="5" fill="green" stroke="none" /><circle cx="506" cy="2597" r="5" fill="green" stroke="none" /><circle cx="1532" cy="8220" r="5" fill="green" stroke="none" /><circle cx="382" cy="6296" r="5" fill="green" stroke="none" /><circle cx="663" cy="6980" r="5" fill="green" stroke="none" /><circle cx="8" cy="8319" r="5" fill="green" stroke="none" /><circle cx="1030" cy="1399" r="5" fill="green" stroke="none" /><circle cx="1407" cy="7537" r="5" fill="green" stroke="none" /><circle cx="1339" cy="338" r="5" fill="green" stroke="none" /><circle cx="389" cy="7050" r="5" fill="green" stroke="none" /><circle cx="1" cy="8794" r="5" fill="green" stroke="none" /><circle cx="1478" cy="5700" r="5" fill="green" stroke="none" /><circle cx="771" cy="856" r="5" fill="green" stroke="none" /><circle cx="219" cy="4117" r="5" fill="green" stroke="none" /><circle cx="1362" cy="66" r="5" fill="green" stroke="none" /><circle cx="1270" cy="4408" r="5" fill="green" stroke="none" /><circle cx="720" cy="8500" r="5" fill="green" stroke="none" /><circle cx="1185" cy="6085" r="5" fill="green" stroke="none" /><circle cx="976" cy="907" r="5" fill="green" stroke="none" /><circle cx="724" cy="9769" r="5" fill="green" stroke="none" /><circle cx="617" cy="7454" r="5" fill="green" stroke="none" /><circle cx="1106" cy="4291" r="5" fill="green" stroke="none" /><circle cx="78" cy="953" r="5" fill="green" stroke="none" /><circle cx="144" cy="1283" r="5" fill="green" stroke="none" /><circle cx="793" cy="9972" r="18" fill="red" stroke="none" /><circle cx="793" cy="9932" r="18" fill="red" stroke="none" /><circle cx="793" cy="9892" r="18" fill="red" stroke="none" /><circle cx="793" cy="9852" r="18" fill="red" stroke="none" /><circle cx="793" cy="9812" r="18" fill="red" stroke="none" /><circle cx="793" cy="9772" r="18" fill="red" stroke="none" /><circle cx="793" cy="9732" r="18" fill="red" stroke="none" /><circle cx="793" cy="9692" r="18" fill="red" stroke="none" /><circle cx="793" cy="9652" r="18" fill="red" stroke="none" /><circle cx="793" cy="9612" r="18" fill="red" stroke="none" /><circle cx="793" cy="9572" r="18" fill="red" stroke="none" /><circle cx="793" cy="9532" r="18" fill="red" stroke="none" /><circle cx="793" cy="9492" r="18" fill="red" stroke="none" /><circle cx="793" cy="9452" r="18" fill="red" stroke="none" /><circle cx="793" cy="9412" r="18" fill="red" stroke="none" /><circle cx="793" cy="9372" r="18" fill="red" stroke="none" /><circle cx="793" cy="9332" r="18" fill="red" stroke="none" /><circle cx="793" cy="9292" r="18" fill="red" stroke="none" /><circle cx="793" cy="9252" r="18" fill="red" stroke="none" /><circle cx="793" cy="9212" r="18" fill="red" stroke="none" /><circle cx="793" cy="9172" r="18" fill="red" stroke="none" /><circle cx="793" cy="9132" r="18" fill="red" stroke="none" /><circle cx="793" cy="9092" r="18" fill="red" stroke="none" /><circle cx="793" cy="9052" r="18" fill="red" stroke="none" /><circle cx="793" cy="9012" r="18" fill="red" stroke="none" /><circle cx="1304" cy="9972" r="18" fill="red" stroke="none" /><circle cx="1304" cy="9932" r="18" fill="red" stroke="none" /><circle cx="1304" cy="9892" r="18" fill="red" stroke="none" /><circle cx="1304" cy="9852" r="18" fill="red" stroke="none" /><circle cx="1304" cy="9812" r="18" fill="red" stroke="none" /><circle cx="1304" cy="9772" r="18" fill="red" stroke="none" /><circle cx="1304" cy="9732" r="18" fill="red" stroke="none" /><circle cx="1304" cy="9692" r="18" fill="red" stroke="none" /><circle cx="1304" cy="9652" r="18" fill="red" stroke="none" /><circle cx="1304" cy="9612" r="18" fill="red" stroke="none" /><circle cx="1304" cy="9572" r="18" fill="red" stroke="none" /><circle cx="1304" cy="9532" r="18" fill="red" stroke="none" /><circle cx="1304" cy="9492" r="18" fill="red" stroke="none" /><circle cx="1304" cy="9452" r="18" fill="red" stroke="none" /><circle cx="1304" cy="9412" r="18" fill="red" stroke="none" /><circle cx="1304" cy="9372" r="18" fill="red" stroke="none" /><circle cx="1304" cy="9332" r="18" fill="red" stroke="none" /><circle cx="1304" cy="9292" r="18" fill="red" stroke="none" /><circle cx="1304" cy="9252" r="18" fill="red" stroke="none" /><circle cx="1304" cy="9212" r="18" fill="red" stroke="none" /><circle cx="1304" cy="9172" r="18" fill="red" stroke="none" /><circle cx="1304" cy="9132" r="18" fill="red" stroke="none" /><circle cx="1304" cy="9092" r="18" fill="red" stroke="none" /><circle cx="1304" cy="9052" r="18" fill="red" stroke="none" /><circle cx="1304" cy="9012" r="18" fill="red" stroke="none" /></svg>