<svg viewBox="0 0 6953 4553" xmlns="http://www.w3.org/2000/svg"><rect x="0" y="0" width="6953" height="4553" fill="lightyellow" stroke="none "/><rect x="1951" y="2796" width="214" height="1136" fill="white" stroke="black "/><circle cx="5924" cy="3742" r="5" fill="green" stroke="none" /><circle cx="6243" cy="2121" r="5" fill="green" stroke="none" /><circle cx="4857" cy="3783" r="5" fill="green" stroke="none" /><circle cx="152" cy="2960" r="5" fill="green" stroke="none" /><circle cx="207" cy="484" r="5" fill="green" stroke="none" /><circle cx="4504" cy="3877" r="5" fill="green" stroke="none" /><circle cx="558" cy="3872" r="5" fill="green" stroke="none" /><circle cx="6923" cy="1409" r="5" fill="green" stroke="none" /><circle cx="507" cy="1279" r="5" fill="green" stroke="none" /><circle cx="5885" cy="2082" r="5" fill="green" stroke="none" /><circle cx="1845" cy="3210" r="5" fill="green" stroke="none" /><circle cx="3214" cy="3719" r="5" fill="green" stroke="none" /><circle cx="598" cy="3076" r="5" fill="green" stroke="none" /><circle cx="6901" cy="1851" r="5" fill="green" stroke="none" /><circle cx="3839" cy="3240" r="5" fill="green" stroke="none" /><circle cx="404" cy="3090" r="5" fill="green" stroke="none" /><circle cx="1792" cy="2904" r="5" fill="green" stroke="none" /><circle cx="677" cy="3981" r="5" fill="green" stroke="none" /><circle cx="5019" cy="4368" r="5" fill="green" stroke="none" /><circle cx="5242" cy="3367" r="5" fill="green" stroke="none" /><circle cx="1151" cy="2260" r="5" fill="green" stroke="none" /><circle cx="1317" cy="91" r="5" fill="green" stroke="none" /><circle cx="346" cy="508" r="5" fill="green" stroke="none" /><circle cx="239" cy="56" r="5" fill="green" stroke="none" /><circle cx="6255" cy="2664" r="5" fill="green" stroke="none" /><circle cx="6350" cy="1687" r="5" fill="green" stroke="none" /><circle cx="743" cy="4258" r="5" fill="green" stroke="none" /><circle cx="1447" cy="3976" r="5" fill="green" stroke="none" /><circle cx="751" cy="4032" r="5" fill="green" stroke="none" /><circle cx="6435" cy="1410" r="5" fill="green" stroke="none" /><circle cx="5800" cy="4452" r="5" fill="green" stroke="none" /><circle cx="1218" cy="1341" r="5" fill="green" stroke="none" /><circle cx="1234" cy="4308" r="5" fill="green" stroke="none" /><circle cx="6131" cy="4202" r="5" fill="green" stroke="none" /><circle cx="4706" cy="3706" r="5" fill="green" stroke="none" /><circle cx="5541" cy="4080" r="5" fill="green" stroke="none" /><circle cx="1216" cy="2592" r="5" fill="green" stroke="none" /><circle cx="4449" cy="3696" r="5" fill="green" stroke="none" /><circle cx="742" cy="708" r="5" fill="green" stroke="none" /><circle cx="5341" cy="2718" r="5" fill="green" stroke="none" /><circle cx="5400" cy="3837" r="5" fill="green" stroke="none" /><circle cx="1231" cy="2151" r="5" fill="green" stroke="none" /><circle cx="6877" cy="2421" r="5" fill="green" stroke="none" /><circle cx="979" cy="1641" r="5" fill="green" stroke="none" /><circle cx="429" cy="931" r="5" fill="green" stroke="none" /><circle cx="2772" cy="3923" r="5" fill="green" stroke="none" /><circle cx="503" cy="2312" r="5" fill="green" stroke="none" /><circle cx="392" cy="3501" r="5" fill="green" stroke="none" /><circle cx="803" cy="3267" r="5" fill="green" stroke="none" /><circle cx="3388" cy="3079" r="5" fill="green" stroke="none" /><circle cx="475" cy="1994" r="5" fill="green" stroke="none" /><circle cx="2767" cy="3316" r="5" fill="green" stroke="none" /><circle cx="831" cy="2922" r="5" fill="green" stroke="none" /><circle cx="367" cy="1756" r="5" fill="green" stroke="none" /><circle cx="1547" cy="2671" r="5" fill="green" stroke="none" /><circle cx="3929" cy="3145" r="5" fill="green" stroke="none" /><circle cx="987" cy="627" r="5" fill="green" stroke="none" /><circle cx="6429" cy="2422" r="5" fill="green" stroke="none" /><circle cx="757" cy="2201" r="5" fill="green" stroke="none" /><circle cx="4352" cy="3356" r="5" fill="green" stroke="none" /><circle cx="1019" cy="1205" r="5" fill="green" stroke="none" /><circle cx="930" cy="960" r="5" fill="green" stroke="none" /><circle cx="6776" cy="2083" r="5" fill="green" stroke="none" /><circle cx="6343" cy="4363" r="5" fill="green" stroke="none" /><circle cx="1146" cy="3875" r="5" fill="green" stroke="none" /><circle cx="6674" cy="1667" r="5" fill="green" stroke="none" /><circle cx="3368" cy="2922" r="5" fill="green" stroke="none" /><circle cx="5706" cy="1953" r="5" fill="green" stroke="none" /><circle cx="5867" cy="2506" r="5" fill="green" stroke="none" /><circle cx="4338" cy="2987" r="5" fill="green" stroke="none" /><circle cx="1819" cy="3358" r="5" fill="green" stroke="none" /><circle cx="257" cy="4386" r="5" fill="green" stroke="none" /><circle cx="2619" cy="3572" r="5" fill="green" stroke="none" /><circle cx="3175" cy="3005" r="5" fill="green" stroke="none" /><circle cx="1586" cy="4357" r="5" fill="green" stroke="none" /><circle cx="969" cy="4113" r="5" fill="green" stroke="none" /><circle cx="1807" cy="4353" r="5" fill="green" stroke="none" /><circle cx="1681" cy="3699" r="5" fill="green" stroke="none" /><circle cx="1901" cy="2577" r="5" fill="green" stroke="none" /><circle cx="1363" cy="598" r="5" fill="green" stroke="none" /><circle cx="1693" cy="1989" r="5" fill="green" stroke="none" /><circle cx="267" cy="30" r="5" fill="green" stroke="none" /><circle cx="3384" cy="3060" r="5" fill="green" stroke="none" /><circle cx="1157" cy="1283" r="5" fill="green" stroke="none" /><circle cx="1152" cy="724" r="5" fill="green" stroke="none" /><circle cx="5842" cy="2649" r="5" fill="green" stroke="none" /><circle cx="6075" cy="1579" r="5" fill="green" stroke="none" /><circle cx="6349" cy="3186" r="5" fill="green" stroke="none" /><circle cx="5258" cy="3325" r="5" fill="green" stroke="none" /><circle cx="104" cy="126" r="5" fill="green" stroke="none" /><circle cx="1682" cy="354" r="5" fill="green" stroke="none" /><circle cx="3244" cy="2929" r="5" fill="green" stroke="none" /><circle cx="5638" cy="2489" r="5" fill="green" stroke="none" /><circle cx="6571" cy="3417" r="5" fill="green" stroke="none" /><circle cx="5909" cy="3704" r="5" fill="green" stroke="none" /><circle cx="382" cy="1617" r="5" fill="green" stroke="none" /><circle cx="4303" cy="3400" r="5" fill="green" stroke="none" /><circle cx="5518" cy="3160" r="5" fill="green" stroke="none" /><circle cx="806" cy="1507" r="5" fill="green" stroke="none" /><circle cx="6793" cy="1925" r="5" fill="green" stroke="none" /><circle cx="4889" cy="3107" r="5" fill="green" stroke="none" /><circle cx="5616" cy="4546" r="5" fill="green" stroke="none" /><circle cx="2306" cy="3474" r="5" fill="green" stroke="none" /><circle cx="3582" cy="3814" r="5" fill="green" stroke="none" /><circle cx="6677" cy="3626" r="5" fill="green" stroke="none" /><circle cx="6141" cy="2959" r="5" fill="green" stroke="none" /><circle cx="1780" cy="4227" r="5" fill="green" stroke="none" /><circle cx="1115" cy="521" r="5" fill="green" stroke="none" /><circle cx="397" cy="388" r="5" fill="green" stroke="none" /><circle cx="6913" cy="3626" r="5" fill="green" stroke="none" /><circle cx="5446" cy="3087" r="5" fill="green" stroke="none" /><circle cx="6084" cy="2379" r="5" fill="green" stroke="none" /><circle cx="1889" cy="2331" r="5" fill="green" stroke="none" /><circle cx="335" cy="3084" r="5" fill="green" stroke="none" /><circle cx="549" cy="3718" r="5" fill="green" stroke="none" /><circle cx="5318" cy="4362" r="5" fill="green" stroke="none" /><circle cx="2330" cy="3193" r="5" fill="green" stroke="none" /><circle cx="131" cy="4264" r="5" fill="green" stroke="none" /><circle cx="2277" cy="2897" r="5" fill="green" stroke="none" /><circle cx="4423" cy="2585" r="5" fill="green" stroke="none" /><circle cx="5068" cy="3763" r="5" fill="green" stroke="none" /><circle cx="4250" cy="3105" r="5" fill="green" stroke="none" /><circle cx="2591" cy="3063" r="5" fill="green" stroke="none" /><circle cx="5520" cy="2609" r="5" fill="green" stroke="none" /><circle cx="3230" cy="2816" r="5" fill="green" stroke="none" /><circle cx="316" cy="1889" r="5" fill="green" stroke="none" /><circle cx="4444" cy="3048" r="5" fill="green" stroke="none" /><circle cx="6604" cy="3991" r="5" fill="green" stroke="none" /><circle cx="5574" cy="4010" r="5" fill="green" stroke="none" /><circle cx="2311" cy="3195" r="5" fill="green" stroke="none" /><circle cx="2250" cy="3519" r="5" fill="green" stroke="none" /><circle cx="899" cy="3337" r="5" fill="green" stroke="none" /><circle cx="1753" cy="2392" r="5" fill="green" stroke="none" /><circle cx="623" cy="196" r="5" fill="green" stroke="none" /><circle cx="1025" cy="2286" r="5" fill="green" stroke="none" /><circle cx="5660" cy="1960" r="5" fill="green" stroke="none" /><circle cx="545" cy="2661" r="5" fill="green" stroke="none" /><circle cx="1564" cy="3751" r="5" fill="green" stroke="none" /><circle cx="6887" cy="2594" r="5" fill="green" stroke="none" /><circle cx="5608" cy="2931" r="5" fill="green" stroke="none" /><circle cx="1846" cy="4038" r="5" fill="green" stroke="none" /><circle cx="5203" cy="4220" r="5" fill="green" stroke="none" /><circle cx="6707" cy="1758" r="5" fill="green" stroke="none" /><circle cx="6670" cy="2077" r="5" fill="green" stroke="none" /><circle cx="6581" cy="3901" r="5" fill="green" stroke="none" /><circle cx="852" cy="814" r="5" fill="green" stroke="none" /><circle cx="1691" cy="3602" r="5" fill="green" stroke="none" /><circle cx="5900" cy="4406" r="5" fill="green" stroke="none" /><circle cx="5446" cy="3856" r="5" fill="green" stroke="none" /><circle cx="1463" cy="249" r="5" fill="green" stroke="none" /><circle cx="1508" cy="3962" r="5" fill="green" stroke="none" /><circle cx="2190" cy="3473" r="5" fill="green" stroke="none" /><circle cx="135" cy="4529" r="5" fill="green" stroke="none" /><circle cx="698" cy="925" r="5" fill="green" stroke="none" /><circle cx="6065" cy="1890" r="5" fill="green" stroke="none" /><circle cx="4713" cy="2433" r="5" fill="green" stroke="none" /><circle cx="695" cy="1549" r="5" fill="green" stroke="none" /><circle cx="1848" cy="2981" r="5" fill="green" stroke="none" /><circle cx="5696" cy="3247" r="5" fill="green" stroke="none" /><circle cx="6118" cy="3336" r="5" fill="green" stroke="none" /><circle cx="344" cy="1988" r="5" fill="green" stroke="none" /><circle cx="1060" cy="1411" r="5" fill="green" stroke="none" /><circle cx="497" cy="887" r="5" fill="green" stroke="none" /><circle cx="6024" cy="4065" r="5" fill="green" stroke="none" /><circle cx="6893" cy="4325" r="5" fill="green" stroke="none" /><circle cx="5930" cy="2863" r="5" fill="green" stroke="none" /><circle cx="1468" cy="4445" r="5" fill="green" stroke="none" /><circle cx="1653" cy="1504" r="5" fill="green" stroke="none" /><circle cx="1826" cy="3526" r="5" fill="green" stroke="none" /><circle cx="6075" cy="1703" r="5" fill="green" stroke="none" /><circle cx="190" cy="641" r="5" fill="green" stroke="none" /><circle cx="5646" cy="3657" r="5" fill="green" stroke="none" /><circle cx="6843" cy="3282" r="5" fill="green" stroke="none" /><circle cx="5087" cy="3358" r="5" fill="green" stroke="none" /><circle cx="1151" cy="3859" r="5" fill="green" stroke="none" /><circle cx="2996" cy="3088" r="5" fill="green" stroke="none" /><circle cx="5452" cy="3387" r="5" fill="green" stroke="none" /><circle cx="5659" cy="4387" r="5" fill="green" stroke="none" /><circle cx="1816" cy="4413" r="5" fill="green" stroke="none" /><circle cx="871" cy="3031" r="5" fill="green" stroke="none" /><circle cx="499" cy="3441" r="5" fill="green" stroke="none" /><circle cx="6871" cy="2315" r="5" fill="green" stroke="none" /><circle cx="231" cy="1685" r="5" fill="green" stroke="none" /><circle cx="1554" cy="3981" r="5" fill="green" stroke="none" /><circle cx="4358" cy="3393" r="5" fill="green" stroke="none" /><circle cx="737" cy="1161" r="5" fill="green" stroke="none" /><circle cx="6734" cy="3592" r="5" fill="green" stroke="none" /><circle cx="6704" cy="4163" r="5" fill="green" stroke="none" /><circle cx="2442" cy="2789" r="5" fill="green" stroke="none" /><circle cx="1860" cy="157" r="5" fill="green" stroke="none" /><circle cx="4090" cy="3912" r="5" fill="green" stroke="none" /><circle cx="3127" cy="3690" r="5" fill="green" stroke="none" /><circle cx="6047" cy="4273" r="5" fill="green" stroke="none" /><circle cx="2786" cy="3451" r="5" fill="green" stroke="none" /><circle cx="5021" cy="4220" r="5" fill="green" stroke="none" /><circle cx="6439" cy="2214" r="5" fill="green" stroke="none" /><circle cx="1529" cy="911" r="5" fill="green" stroke="none" /><circle cx="6685" cy="1744" r="5" fill="green" stroke="none" /><circle cx="1664" cy="127" r="5" fill="green" stroke="none" /><circle cx="6425" cy="1626" r="5" fill="green" stroke="none" /><circle cx="3893" cy="3427" r="5" fill="green" stroke="none" /><circle cx="3603" cy="3803" r="5" fill="green" stroke="none" /><circle cx="1034" cy="3637" r="5" fill="green" stroke="none" /><circle cx="140" cy="3426" r="5" fill="green" stroke="none" /><circle cx="1565" cy="751" r="5" fill="green" stroke="none" /><circle cx="6379" cy="1378" r="5" fill="green" stroke="none" /><circle cx="6162" cy="2278" r="5" fill="green" stroke="none" /><circle cx="359" cy="142" r="5" fill="green" stroke="none" /><circle cx="3954" cy="3035" r="5" fill="green" stroke="none" /><circle cx="5568" cy="3981" r="5" fill="green" stroke="none" /><circle cx="764" cy="1930" r="5" fill="green" stroke="none" /><circle cx="6559" cy="3475" r="5" fill="green" stroke="none" /><circle cx="6651" cy="2824" r="5" fill="green" stroke="none" /><circle cx="1209" cy="3079" r="5" fill="green" stroke="none" /><circle cx="339" cy="4507" r="5" fill="green" stroke="none" /><circle cx="1609" cy="1345" r="5" fill="green" stroke="none" /><circle cx="1229" cy="2530" r="5" fill="green" stroke="none" /><circle cx="1927" cy="4225" r="5" fill="green" stroke="none" /><circle cx="4519" cy="3260" r="5" fill="green" stroke="none" /><circle cx="4426" cy="3425" r="5" fill="green" stroke="none" /><circle cx="2967" cy="3440" r="5" fill="green" stroke="none" /><circle cx="6663" cy="2584" r="5" fill="green" stroke="none" /><circle cx="1684" cy="1099" r="5" fill="green" stroke="none" /><circle cx="1887" cy="3748" r="5" fill="green" stroke="none" /><circle cx="5137" cy="2347" r="5" fill="green" stroke="none" /><circle cx="3643" cy="3613" r="5" fill="green" stroke="none" /><circle cx="934" cy="3259" r="5" fill="green" stroke="none" /><circle cx="3611" cy="3204" r="5" fill="green" stroke="none" /><circle cx="5953" cy="2604" r="5" fill="green" stroke="none" /><circle cx="2356" cy="2790" r="5" fill="green" stroke="none" /><circle cx="6883" cy="2605" r="5" fill="green" stroke="none" /><circle cx="226" cy="3214" r="5" fill="green" stroke="none" /><circle cx="6601" cy="3390" r="5" fill="green" stroke="none" /><circle cx="4189" cy="2814" r="5" fill="green" stroke="none" /><circle cx="6071" cy="3306" r="5" fill="green" stroke="none" /><circle cx="3087" cy="3055" r="5" fill="green" stroke="none" /><circle cx="1703" cy="3515" r="5" fill="green" stroke="none" /><circle cx="4163" cy="3803" r="5" fill="green" stroke="none" /><circle cx="73" cy="2188" r="5" fill="green" stroke="none" /><circle cx="932" cy="2434" r="5" fill="green" stroke="none" /><circle cx="1025" cy="1319" r="5" fill="green" stroke="none" /><circle cx="1086" cy="220" r="5" fill="green" stroke="none" /><circle cx="627" cy="3747" r="5" fill="green" stroke="none" /><circle cx="2589" cy="3803" r="5" fill="green" stroke="none" /><circle cx="6842" cy="3989" r="5" fill="green" stroke="none" /><circle cx="2380" cy="2831" r="5" fill="green" stroke="none" /><circle cx="2339" cy="2956" r="5" fill="green" stroke="none" /><circle cx="663" cy="27" r="5" fill="green" stroke="none" /><circle cx="807" cy="3727" r="5" fill="green" stroke="none" /><circle cx="2282" cy="3566" r="5" fill="green" stroke="none" /><circle cx="1650" cy="3437" r="5" fill="green" stroke="none" /><circle cx="4479" cy="2680" r="5" fill="green" stroke="none" /><circle cx="3863" cy="3591" r="5" fill="green" stroke="none" /><circle cx="4398" cy="2613" r="5" fill="green" stroke="none" /><circle cx="1111" cy="840" r="5" fill="green" stroke="none" /><circle cx="1292" cy="4142" r="5" fill="green" stroke="none" /><circle cx="1024" cy="2655" r="5" fill="green" stroke="none" /><circle cx="33" cy="952" r="5" fill="green" stroke="none" /><circle cx="5045" cy="3462" r="5" fill="green" stroke="none" /><circle cx="5313" cy="2356" r="5" fill="green" stroke="none" /><circle cx="1720" cy="3645" r="5" fill="green" stroke="none" /><circle cx="221" cy="3533" r="5" fill="green" stroke="none" /><circle cx="1868" cy="2285" r="5" fill="green" stroke="none" /><circle cx="702" cy="671" r="5" fill="green" stroke="none" /><circle cx="4603" cy="2752" r="5" fill="green" stroke="none" /><circle cx="6620" cy="3888" r="5" fill="green" stroke="none" /><circle cx="1423" cy="4456" r="5" fill="green" stroke="none" /><circle cx="1179" cy="485" r="5" fill="green" stroke="none" /><circle cx="454" cy="210" r="5" fill="green" stroke="none" /><circle cx="536" cy="36" r="5" fill="green" stroke="none" /><circle cx="1898" cy="2804" r="5" fill="green" stroke="none" /><circle cx="367" cy="355" r="5" fill="green" stroke="none" /><circle cx="2538" cy="3054" r="5" fill="green" stroke="none" /><circle cx="2311" cy="3755" r="5" fill="green" stroke="none" /><circle cx="1601" cy="3937" r="5" fill="green" stroke="none" /><circle cx="6165" cy="2592" r="5" fill="green" stroke="none" /><circle cx="4360" cy="3456" r="5" fill="green" stroke="none" /><circle cx="6227" cy="1713" r="5" fill="green" stroke="none" /><circle cx="1159" cy="468" r="5" fill="green" stroke="none" /><circle cx="5128" cy="3670" r="5" fill="green" stroke="none" /><circle cx="1879" cy="4057" r="5" fill="green" stroke="none" /><circle cx="2391" cy="3547" r="5" fill="green" stroke="none" /><circle cx="630" cy="2993" r="5" fill="green" stroke="none" /><circle cx="732" cy="2425" r="5" fill="green" stroke="none" /><circle cx="10" cy="2955" r="5" fill="green" stroke="none" /><circle cx="6458" cy="3905" r="5" fill="green" stroke="none" /><circle cx="5538" cy="2162" r="5" fill="green" stroke="none" /><circle cx="903" cy="4288" r="5" fill="green" stroke="none" /><circle cx="1687" cy="3639" r="5" fill="green" stroke="none" /><circle cx="6105" cy="2471" r="5" fill="green" stroke="none" /><circle cx="796" cy="4465" r="5" fill="green" stroke="none" /><circle cx="5199" cy="4433" r="5" fill="green" stroke="none" /><circle cx="5003" cy="2383" r="5" fill="green" stroke="none" /><circle cx="4209" cy="3898" r="5" fill="green" stroke="none" /><circle cx="1791" cy="2073" r="5" fill="green" stroke="none" /><circle cx="5183" cy="3294" r="5" fill="green" stroke="none" /><circle cx="4679" cy="2879" r="5" fill="green" stroke="none" /><circle cx="2701" cy="3303" r="5" fill="green" stroke="none" /><circle cx="4341" cy="3717" r="5" fill="green" stroke="none" /><circle cx="5623" cy="2696" r="5" fill="green" stroke="none" /><circle cx="6515" cy="4221" r="5" fill="green" stroke="none" /><circle cx="3009" cy="3826" r="5" fill="green" stroke="none" /><circle cx="1639" cy="2740" r="5" fill="green" stroke="none" /><circle cx="3343" cy="3136" r="5" fill="green" stroke="none" /><circle cx="6290" cy="1490" r="5" fill="green" stroke="none" /><circle cx="784" cy="2362" r="5" fill="green" stroke="none" /><circle cx="4906" cy="3861" r="5" fill="green" stroke="none" /><circle cx="1875" cy="4116" r="5" fill="green" stroke="none" /><circle cx="529" cy="2667" r="5" fill="green" stroke="none" /><circle cx="4623" cy="4070" r="5" fill="green" stroke="none" /><circle cx="670" cy="651" r="5" fill="green" stroke="none" /><circle cx="1267" cy="3828" r="5" fill="green" stroke="none" /><circle cx="6715" cy="3955" r="5" fill="green" stroke="none" /><circle cx="3348" cy="2900" r="5" fill="green" stroke="none" /><circle cx="1630" cy="3776" r="5" fill="green" stroke="none" /><circle cx="809" cy="205" r="5" fill="green" stroke="none" /><circle cx="636" cy="1049" r="5" fill="green" stroke="none" /><circle cx="4720" cy="3674" r="5" fill="green" stroke="none" /><circle cx="688" cy="2808" r="5" fill="green" stroke="none" /><circle cx="6793" cy="3066" r="5" fill="green" stroke="none" /><circle cx="6699" cy="3899" r="5" fill="green" stroke="none" /><circle cx="1679" cy="2799" r="5" fill="green" stroke="none" /><circle cx="3776" cy="3864" r="5" fill="green" stroke="none" /><circle cx="6" cy="36" r="5" fill="green" stroke="none" /><circle cx="1718" cy="2726" r="5" fill="green" stroke="none" /><circle cx="5410" cy="2435" r="5" fill="green" stroke="none" /><circle cx="6268" cy="4370" r="5" fill="green" stroke="none" /><circle cx="5366" cy="4100" r="5" fill="green" stroke="none" /><circle cx="1920" cy="2736" r="5" fill="green" stroke="none" /><circle cx="570" cy="1022" r="5" fill="green" stroke="none" /><circle cx="3374" cy="2817" r="5" fill="green" stroke="none" /><circle cx="3275" cy="3834" r="5" fill="green" stroke="none" /><circle cx="1780" cy="3199" r="5" fill="green" stroke="none" /><circle cx="6114" cy="2057" r="5" fill="green" stroke="none" /><circle cx="6247" cy="3934" r="5" fill="green" stroke="none" /><circle cx="1600" cy="1727" r="5" fill="green" stroke="none" /><circle cx="1737" cy="1564" r="5" fill="green" stroke="none" /><circle cx="6289" cy="2611" r="5" fill="green" stroke="none" /><circle cx="661" cy="3590" r="5" fill="green" stroke="none" /><circle cx="5135" cy="3998" r="5" fill="green" stroke="none" /><circle cx="1215" cy="4394" r="5" fill="green" stroke="none" /><circle cx="5748" cy="3148" r="5" fill="green" stroke="none" /><circle cx="6369" cy="2061" r="5" fill="green" stroke="none" /><circle cx="501" cy="335" r="5" fill="green" stroke="none" /><circle cx="4316" cy="2814" r="5" fill="green" stroke="none" /><circle cx="1686" cy="3751" r="5" fill="green" stroke="none" /><circle cx="1308" cy="2069" r="5" fill="green" stroke="none" /><circle cx="3124" cy="3601" r="5" fill="green" stroke="none" /><circle cx="3746" cy="3883" r="5" fill="green" stroke="none" /><circle cx="6928" cy="2206" r="5" fill="green" stroke="none" /><circle cx="1101" cy="451" r="5" fill="green" stroke="none" /><circle cx="185" cy="1406" r="5" fill="green" stroke="none" /><circle cx="6787" cy="3923" r="5" fill="green" stroke="none" /><circle cx="72" cy="3768" r="5" fill="green" stroke="none" /><circle cx="5565" cy="4005" r="5" fill="green" stroke="none" /><circle cx="1427" cy="1700" r="5" fill="green" stroke="none" /><circle cx="4179" cy="3154" r="5" fill="green" stroke="none" /><circle cx="2603" cy="2883" r="5" fill="green" stroke="none" /><circle cx="5008" cy="4319" r="5" fill="green" stroke="none" /><circle cx="689" cy="591" r="5" fill="green" stroke="none" /><circle cx="6033" cy="4053" r="5" fill="green" stroke="none" /><circle cx="3248" cy="3763" r="5" fill="green" stroke="none" /><circle cx="2307" cy="3314" r="5" fill="green" stroke="none" /><circle cx="4653" cy="3964" r="5" fill="green" stroke="none" /><circle cx="5367" cy="3315" r="5" fill="green" stroke="none" /><circle cx="5448" cy="3137" r="5" fill="green" stroke="none" /><circle cx="6832" cy="1257" r="5" fill="green" stroke="none" /><circle cx="967" cy="2518" r="5" fill="green" stroke="none" /><circle cx="1458" cy="3085" r="5" fill="green" stroke="none" /><circle cx="1113" cy="4470" r="5" fill="green" stroke="none" /><circle cx="489" cy="113" r="5" fill="green" stroke="none" /><circle cx="2255" cy="3122" r="5" fill="green" stroke="none" /><circle cx="4538" cy="3778" r="5" fill="green" stroke="none" /><circle cx="6570" cy="3776" r="5" fill="green" stroke="none" /><circle cx="951" cy="635" r="5" fill="green" stroke="none" /><circle cx="1503" cy="2877" r="5" fill="green" stroke="none" /><circle cx="5437" cy="2420" r="5" fill="green" stroke="none" /><circle cx="1604" cy="4110" r="5" fill="green" stroke="none" /><circle cx="183" cy="1306" r="5" fill="green" stroke="none" /><circle cx="2273" cy="3458" r="5" fill="green" stroke="none" /><circle cx="4574" cy="3328" r="5" fill="green" stroke="none" /><circle cx="2529" cy="2955" r="5" fill="green" stroke="none" /><circle cx="1355" cy="302" r="5" fill="green" stroke="none" /><circle cx="5817" cy="3900" r="5" fill="green" stroke="none" /><circle cx="656" cy="3446" r="5" fill="green" stroke="none" /><circle cx="51" cy="3947" r="5" fill="green" stroke="none" /><circle cx="422" cy="3519" r="5" fill="green" stroke="none" /><circle cx="859" cy="1909" r="5" fill="green" stroke="none" /><circle cx="1158" cy="4492" r="5" fill="green" stroke="none" /><circle cx="5010" cy="2384" r="5" fill="green" stroke="none" /><circle cx="3065" cy="3103" r="5" fill="green" stroke="none" /><circle cx="1535" cy="702" r="5" fill="green" stroke="none" /><circle cx="1674" cy="1310" r="5" fill="green" stroke="none" /><circle cx="4281" cy="3354" r="5" fill="green" stroke="none" /><circle cx="397" cy="4074" r="5" fill="green" stroke="none" /><circle cx="5163" cy="2793" r="5" fill="green" stroke="none" /><circle cx="1877" cy="3914" r="5" fill="green" stroke="none" /><circle cx="6108" cy="3427" r="5" fill="green" stroke="none" /><circle cx="6134" cy="3084" r="5" fill="green" stroke="none" /><circle cx="1319" cy="2948" r="5" fill="green" stroke="none" /><circle cx="4506" cy="3675" r="5" fill="green" stroke="none" /><circle cx="1653" cy="1932" r="5" fill="green" stroke="none" /><circle cx="4178" cy="3330" r="5" fill="green" stroke="none" /><circle cx="1094" cy="65" r="5" fill="green" stroke="none" /><circle cx="6376" cy="2799" r="5" fill="green" stroke="none" /><circle cx="6241" cy="1558" r="5" fill="green" stroke="none" /><circle cx="1168" cy="3614" r="5" fill="green" stroke="none" /><circle cx="1722" cy="2408" r="5" fill="green" stroke="none" /><circle cx="2866" cy="3511" r="5" fill="green" stroke="none" /><circle cx="6492" cy="4330" r="5" fill="green" stroke="none" /><circle cx="3043" cy="3804" r="5" fill="green" stroke="none" /><circle cx="1474" cy="392" r="5" fill="green" stroke="none" /><circle cx="749" cy="3484" r="5" fill="green" stroke="none" /><circle cx="6557" cy="3597" r="5" fill="green" stroke="none" /><circle cx="6050" cy="3479" r="5" fill="green" stroke="none" /><circle cx="4737" cy="3703" r="5" fill="green" stroke="none" /><circle cx="6541" cy="1855" r="5" fill="green" stroke="none" /><circle cx="1948" cy="3479" r="5" fill="green" stroke="none" /><circle cx="719" cy="3755" r="5" fill="green" stroke="none" /><circle cx="1338" cy="3702" r="5" fill="green" stroke="none" /><circle cx="120" cy="2645" r="5" fill="green" stroke="none" /><circle cx="5373" cy="4088" r="5" fill="green" stroke="none" /><circle cx="393" cy="2409" r="5" fill="green" stroke="none" /><circle cx="6872" cy="2718" r="5" fill="green" stroke="none" /><circle cx="605" cy="2811" r="5" fill="green" stroke="none" /><circle cx="312" cy="603" r="5" fill="green" stroke="none" /><circle cx="608" cy="1815" r="5" fill="green" stroke="none" /><circle cx="5841" cy="3872" r="5" fill="green" stroke="none" /><circle cx="6824" cy="3433" r="5" fill="green" stroke="none" /><circle cx="6900" cy="2088" r="5" fill="green" stroke="none" /><circle cx="4904" cy="3450" r="5" fill="green" stroke="none" /><circle cx="1480" cy="500" r="5" fill="green" stroke="none" /><circle cx="143" cy="2593" r="5" fill="green" stroke="none" /><circle cx="6806" cy="1408" r="5" fill="green" stroke="none" /><circle cx="1951" cy="3982" r="18" fill="red" stroke="none" /><circle cx="1971" cy="3982" r="18" fill="red" stroke="none" /><circle cx="1991" cy="3982" r="18" fill="red" stroke="none" /><circle cx="2011" cy="3982" r="18" fill="red" stroke="none" /><circle cx="2031" cy="3982" r="18" fill="red" stroke="none" /><circle cx="2051" cy="3982" r="18" fill="red" stroke="none" /><circle cx="2071" cy="3982" r="18" fill="red" stroke="none" /><circle cx="2091" cy="3982" r="18" fill="red" stroke="none" /><circle cx="2111" cy="3982" r="18" fill="red" stroke="none" /><circle cx="2131" cy="3982" r="18" fill="red" stroke="none" /><circle cx="2151" cy="3982" r="18" fill="red" stroke="none" /><circle cx="2171" cy="3982" r="18" fill="red" stroke="none" /><circle cx="2191" cy="3982" r="18" fill="red" stroke="none" /><circle cx="2211" cy="3982" r="18" fill="red" stroke="none" /><circle cx="2231" cy="3982" r="18" fill="red" stroke="none" /><circle cx="2251" cy="3982" r="18" fill="red" stroke="none" /><circle cx="2271" cy="3982" r="18" fill="red" stroke="none" /><circle cx="2291" cy="3982" r="18" fill="red" stroke="none" /><circle cx="2311" cy="3982" r="18" fill="red" stroke="none" /><circle cx="2331" cy="3982" r="18" fill="red" stroke="none" /><circle cx="2351" cy="3982" r="18" fill="red" stroke="none" /><circle cx="2371" cy="3982" r="18" fill="red" stroke="none" /><circle cx="2391" cy="3982" r="18" fill="red" stroke="none" /><circle cx="2411" cy="3982" r="18" fill="red" stroke="none" /><circle cx="2431" cy="3982" r="18" fill="red" stroke="none" /><circle cx="2451" cy="3982" r="18" fill="red" stroke="none" /><circle cx="2471" cy="3982" r="18" fill="red" stroke="none" /><circle cx="2491" cy="3982" r="18" fill="red" stroke="none" /><circle cx="2511" cy="3982" r="18" fill="red" stroke="none" /><circle cx="2531" cy="3982" r="18" fill="red" stroke="none" /><circle cx="2551" cy="3982" r="18" fill="red" stroke="none" /><circle cx="2571" cy="3982" r="18" fill="red" stroke="none" /><circle cx="2591" cy="3982" r="18" fill="red" stroke="none" /><circle cx="2611" cy="3982" r="18" fill="red" stroke="none" /><circle cx="2631" cy="3982" r="18" fill="red" stroke="none" /><circle cx="2651" cy="3982" r="18" fill="red" stroke="none" /><circle cx="2671" cy="3982" r="18" fill="red" stroke="none" /><circle cx="2691" cy="3982" r="18" fill="red" stroke="none" /><circle cx="2711" cy="3982" r="18" fill="red" stroke="none" /><circle cx="2731" cy="3982" r="18" fill="red" stroke="none" /><circle cx="2751" cy="3982" r="18" fill="red" stroke="none" /><circle cx="2771" cy="3982" r="18" fill="red" stroke="none" /><circle cx="2791" cy="3982" r="18" fill="red" stroke="none" /><circle cx="2811" cy="3982" r="18" fill="red" stroke="none" /><circle cx="2831" cy="3982" r="18" fill="red" stroke="none" /><circle cx="2851" cy="3982" r="18" fill="red" stroke="none" /><circle cx="2871" cy="3982" r="18" fill="red" stroke="none" /><circle cx="2891" cy="3982" r="18" fill="red" stroke="none" /><circle cx="2911" cy="3982" r="18" fill="red" stroke="none" /><circle cx="2931" cy="3982" r="18" fill="red" stroke="none" /><circle cx="2951" cy="3982" r="18" fill="red" stroke="none" /><circle cx="2971" cy="3982" r="18" fill="red" stroke="none" /><circle cx="2991" cy="3982" r="18" fill="red" stroke="none" /><circle cx="3011" cy="3982" r="18" fill="red" stroke="none" /><circle cx="3031" cy="3982" r="18" fill="red" stroke="none" /><circle cx="3051" cy="3982" r="18" fill="red" stroke="none" /><circle cx="3071" cy="3982" r="18" fill="red" stroke="none" /><circle cx="3091" cy="3982" r="18" fill="red" stroke="none" /><circle cx="3111" cy="3982" r="18" fill="red" stroke="none" /><circle cx="3131" cy="3982" r="18" fill="red" stroke="none" /><circle cx="3151" cy="3982" r="18" fill="red" stroke="none" /><circle cx="3171" cy="3982" r="18" fill="red" stroke="none" /><circle cx="3191" cy="3982" r="18" fill="red" stroke="none" /><circle cx="3211" cy="3982" r="18" fill="red" stroke="none" /><circle cx="3231" cy="3982" r="18" fill="red" stroke="none" /><circle cx="3251" cy="3982" r="18" fill="red" stroke="none" /><circle cx="3271" cy="3982" r="18" fill="red" stroke="none" /><circle cx="3291" cy="3982" r="18" fill="red" stroke="none" /><circle cx="3311" cy="3982" r="18" fill="red" stroke="none" /><circle cx="3331" cy="3982" r="18" fill="red" stroke="none" /><circle cx="3351" cy="3982" r="18" fill="red" stroke="none" /><circle cx="3371" cy="3982" r="18" fill="red" stroke="none" /><circle cx="3391" cy="3982" r="18" fill="red" stroke="none" /><circle cx="3411" cy="3982" r="18" fill="red" stroke="none" /><circle cx="3431" cy="3982" r="18" fill="red" stroke="none" /><circle cx="3451" cy="3982" r="18" fill="red" stroke="none" /><circle cx="3471" cy="3982" r="18" fill="red" stroke="none" /><circle cx="3491" cy="3982" r="18" fill="red" stroke="none" /><circle cx="3511" cy="3982" r="18" fill="red" stroke="none" /><circle cx="3531" cy="3982" r="18" fill="red" stroke="none" /><circle cx="3551" cy="3982" r="18" fill="red" stroke="none" /><circle cx="3571" cy="3982" r="18" fill="red" stroke="none" /><circle cx="3591" cy="3982" r="18" fill="red" stroke="none" /><circle cx="3611" cy="3982" r="18" fill="red" stroke="none" /><circle cx="3631" cy="3982" r="18" fill="red" stroke="none" /><circle cx="3651" cy="3982" r="18" fill="red" stroke="none" /><circle cx="3671" cy="3982" r="18" fill="red" stroke="none" /><circle cx="3691" cy="3982" r="18" fill="red" stroke="none" /><circle cx="3711" cy="3982" r="18" fill="red" stroke="none" /><circle cx="3731" cy="3982" r="18" fill="red" stroke="none" /><circle cx="3751" cy="3982" r="18" fill="red" stroke="none" /><circle cx="3771" cy="3982" r="18" fill="red" stroke="none" /><circle cx="3791" cy="3982" r="18" fill="red" stroke="none" /><circle cx="3811" cy="3982" r="18" fill="red" stroke="none" /><circle cx="3831" cy="3982" r="18" fill="red" stroke="none" /><circle cx="3851" cy="3982" r="18" fill="red" stroke="none" /><circle cx="3871" cy="3982" r="18" fill="red" stroke="none" /><circle cx="3891" cy="3982" r="18" fill="red" stroke="none" /><circle cx="3911" cy="3982" r="18" fill="red" stroke="none" /><circle cx="3931" cy="3982" r="18" fill="red" stroke="none" /><circle cx="3951" cy="3982" r="18" fill="red" stroke="none" /><circle cx="3971" cy="3982" r="18" fill="red" stroke="none" /><circle cx="3991" cy="3982" r="18" fill="red" stroke="none" /><circle cx="4011" cy="3982" r="18" fill="red" stroke="none" /><circle cx="4031" cy="3982" r="18" fill="red" stroke="none" /><circle cx="4051" cy="3982" r="18" fill="red" stroke="none" /><circle cx="4071" cy="3982" r="18" fill="red" stroke="none" /><circle cx="1951" cy="2746" r="18" fill="red" stroke="none" /><circle cx="1971" cy="2746" r="18" fill="red" stroke="none" /><circle cx="1991" cy="2746" r="18" fill="red" stroke="none" /><circle cx="2011" cy="2746" r="18" fill="red" stroke="none" /><circle cx="2031" cy="2746" r="18" fill="red" stroke="none" /><circle cx="2051" cy="2746" r="18" fill="red" stroke="none" /><circle cx="2071" cy="2746" r="18" fill="red" stroke="none" /><circle cx="2091" cy="2746" r="18" fill="red" stroke="none" /><circle cx="2111" cy="2746" r="18" fill="red" stroke="none" /><circle cx="2131" cy="2746" r="18" fill="red" stroke="none" /><circle cx="2151" cy="2746" r="18" fill="red" stroke="none" /><circle cx="2171" cy="2746" r="18" fill="red" stroke="none" /><circle cx="2191" cy="2746" r="18" fill="red" stroke="none" /><circle cx="2211" cy="2746" r="18" fill="red" stroke="none" /><circle cx="2231" cy="2746" r="18" fill="red" stroke="none" /><circle cx="2251" cy="2746" r="18" fill="red" stroke="none" /><circle cx="2271" cy="2746" r="18" fill="red" stroke="none" /><circle cx="2291" cy="2746" r="18" fill="red" stroke="none" /><circle cx="2311" cy="2746" r="18" fill="red" stroke="none" /><circle cx="2331" cy="2746" r="18" fill="red" stroke="none" /><circle cx="2351" cy="2746" r="18" fill="red" stroke="none" /><circle cx="2371" cy="2746" r="18" fill="red" stroke="none" /><circle cx="2391" cy="2746" r="18" fill="red" stroke="none" /><circle cx="2411" cy="2746" r="18" fill="red" stroke="none" /><circle cx="2431" cy="2746" r="18" fill="red" stroke="none" /><circle cx="2451" cy="2746" r="18" fill="red" stroke="none" /><circle cx="2471" cy="2746" r="18" fill="red" stroke="none" /><circle cx="2491" cy="2746" r="18" fill="red" stroke="none" /><circle cx="2511" cy="2746" r="18" fill="red" stroke="none" /><circle cx="2531" cy="2746" r="18" fill="red" stroke="none" /><circle cx="2551" cy="2746" r="18" fill="red" stroke="none" /><circle cx="2571" cy="2746" r="18" fill="red" stroke="none" /><circle cx="2591" cy="2746" r="18" fill="red" stroke="none" /><circle cx="2611" cy="2746" r="18" fill="red" stroke="none" /><circle cx="2631" cy="2746" r="18" fill="red" stroke="none" /><circle cx="2651" cy="2746" r="18" fill="red" stroke="none" /><circle cx="2671" cy="2746" r="18" fill="red" stroke="none" /><circle cx="2691" cy="2746" r="18" fill="red" stroke="none" /><circle cx="2711" cy="2746" r="18" fill="red" stroke="none" /><circle cx="2731" cy="2746" r="18" fill="red" stroke="none" /><circle cx="2751" cy="2746" r="18" fill="red" stroke="none" /><circle cx="2771" cy="2746" r="18" fill="red" stroke="none" /><circle cx="2791" cy="2746" r="18" fill="red" stroke="none" /><circle cx="2811" cy="2746" r="18" fill="red" stroke="none" /><circle cx="2831" cy="2746" r="18" fill="red" stroke="none" /><circle cx="2851" cy="2746" r="18" fill="red" stroke="none" /><circle cx="2871" cy="2746" r="18" fill="red" stroke="none" /><circle cx="2891" cy="2746" r="18" fill="red" stroke="none" /><circle cx="2911" cy="2746" r="18" fill="red" stroke="none" /><circle cx="2931" cy="2746" r="18" fill="red" stroke="none" /><circle cx="2951" cy="2746" r="18" fill="red" stroke="none" /><circle cx="2971" cy="2746" r="18" fill="red" stroke="none" /><circle cx="2991" cy="2746" r="18" fill="red" stroke="none" /><circle cx="3011" cy="2746" r="18" fill="red" stroke="none" /><circle cx="3031" cy="2746" r="18" fill="red" stroke="none" /><circle cx="3051" cy="2746" r="18" fill="red" stroke="none" /><circle cx="3071" cy="2746" r="18" fill="red" stroke="none" /><circle cx="3091" cy="2746" r="18" fill="red" stroke="none" /><circle cx="3111" cy="2746" r="18" fill="red" stroke="none" /><circle cx="3131" cy="2746" r="18" fill="red" stroke="none" /><circle cx="3151" cy="2746" r="18" fill="red" stroke="none" /><circle cx="3171" cy="2746" r="18" fill="red" stroke="none" /><circle cx="3191" cy="2746" r="18" fill="red" stroke="none" /><circle cx="3211" cy="2746" r="18" fill="red" stroke="none" /><circle cx="3231" cy="2746" r="18" fill="red" stroke="none" /><circle cx="3251" cy="2746" r="18" fill="red" stroke="none" /><circle cx="3271" cy="2746" r="18" fill="red" stroke="none" /><circle cx="3291" cy="2746" r="18" fill="red" stroke="none" /><circle cx="3311" cy="2746" r="18" fill="red" stroke="none" /><circle cx="3331" cy="2746" r="18" fill="red" stroke="none" /><circle cx="3351" cy="2746" r="18" fill="red" stroke="none" /><circle cx="3371" cy="2746" r="18" fill="red" stroke="none" /><circle cx="3391" cy="2746" r="18" fill="red" stroke="none" /><circle cx="3411" cy="2746" r="18" fill="red" stroke="none" /><circle cx="3431" cy="2746" r="18" fill="red" stroke="none" /><circle cx="3451" cy="2746" r="18" fill="red" stroke="none" /><circle cx="3471" cy="2746" r="18" fill="red" stroke="none" /><circle cx="3491" cy="2746" r="18" fill="red" stroke="none" /><circle cx="3511" cy="2746" r="18" fill="red" stroke="none" /><circle cx="3531" cy="2746" r="18" fill="red" stroke="none" /><circle cx="3551" cy="2746" r="18" fill="red" stroke="none" /><circle cx="3571" cy="2746" r="18" fill="red" stroke="none" /><circle cx="3591" cy="2746" r="18" fill="red" stroke="none" /><circle cx="3611" cy="2746" r="18" fill="red" stroke="none" /><circle cx="3631" cy="2746" r="18" fill="red" stroke="none" /><circle cx="3651" cy="2746" r="18" fill="red" stroke="none" /><circle cx="3671" cy="2746" r="18" fill="red" stroke="none" /><circle cx="3691" cy="2746" r="18" fill="red" stroke="none" /><circle cx="3711" cy="2746" r="18" fill="red" stroke="none" /><circle cx="3731" cy="2746" r="18" fill="red" stroke="none" /><circle cx="3751" cy="2746" r="18" fill="red" stroke="none" /><circle cx="3771" cy="2746" r="18" fill="red" stroke="none" /><circle cx="3791" cy="2746" r="18" fill="red" stroke="none" /><circle cx="3811" cy="2746" r="18" fill="red" stroke="none" /><circle cx="3831" cy="2746" r="18" fill="red" stroke="none" /><circle cx="3851" cy="2746" r="18" fill="red" stroke="none" /><circle cx="3871" cy="2746" r="18" fill="red" stroke="none" /><circle cx="3891" cy="2746" r="18" fill="red" stroke="none" /><circle cx="3911" cy="2746" r="18" fill="red" stroke="none" /><circle cx="3931" cy="2746" r="18" fill="red" stroke="none" /><circle cx="3951" cy="2746" r="18" fill="red" stroke="none" /><circle cx="3971" cy="2746" r="18" fill="red" stroke="none" /><circle cx="3991" cy="2746" r="18" fill="red" stroke="none" /><circle cx="4011" cy="2746" r="18" fill="red" stroke="none" /><circle cx="4031" cy="2746" r="18" fill="red" stroke="none" /><circle cx="4051" cy="2746" r="18" fill="red" stroke="none" /><circle cx="4071" cy="2746" r="18" fill="red" stroke="none" /></svg>