<svg viewBox="0 0 8624 6031" xmlns="http://www.w3.org/2000/svg"><rect x="0" y="0" width="8624" height="6031" fill="lightyellow" stroke="none "/><rect x="6232" y="462" width="1082" height="519" fill="white" stroke="black "/><circle cx="8028" cy="952" r="5" fill="green" stroke="none" /><circle cx="4306" cy="2784" r="5" fill="green" stroke="none" /><circle cx="1617" cy="154" r="5" fill="green" stroke="none" /><circle cx="5388" cy="4854" r="5" fill="green" stroke="none" /><circle cx="907" cy="5658" r="5" fill="green" stroke="none" /><circle cx="1250" cy="4457" r="5" fill="green" stroke="none" /><circle cx="7002" cy="30" r="5" fill="green" stroke="none" /><circle cx="7903" cy="347" r="5" fill="green" stroke="none" /><circle cx="4430" cy="1561" r="5" fill="green" stroke="none" /><circle cx="4058" cy="5375" r="5" fill="green" stroke="none" /><circle cx="4829" cy="3671" r="5" fill="green" stroke="none" /><circle cx="7063" cy="5782" r="5" fill="green" stroke="none" /><circle cx="3052" cy="3797" r="5" fill="green" stroke="none" /><circle cx="5538" cy="1578" r="5" fill="green" stroke="none" /><circle cx="5771" cy="1595" r="5" fill="green" stroke="none" /><circle cx="2609" cy="4231" r="5" fill="green" stroke="none" /><circle cx="8262" cy="3796" r="5" fill="green" stroke="none" /><circle cx="4521" cy="2381" r="5" fill="green" stroke="none" /><circle cx="1053" cy="345" r="5" fill="green" stroke="none" /><circle cx="7922" cy="2540" r="5" fill="green" stroke="none" /><circle cx="3147" cy="1316" r="5" fill="green" stroke="none" /><circle cx="1599" cy="5893" r="5" fill="green" stroke="none" /><circle cx="3089" cy="3946" r="5" fill="green" stroke="none" /><circle cx="1175" cy="5666" r="5" fill="green" stroke="none" /><circle cx="7717" cy="926" r="5" fill="green" stroke="none" /><circle cx="5950" cy="2393" r="5" fill="green" stroke="none" /><circle cx="7161" cy="5195" r="5" fill="green" stroke="none" /><circle cx="746" cy="1346" r="5" fill="green" stroke="none" /><circle cx="2841" cy="323" r="5" fill="green" stroke="none" /><circle cx="6703" cy="4269" r="5" fill="green" stroke="none" /><circle cx="4555" cy="5728" r="5" fill="green" stroke="none" /><circle cx="5969" cy="3478" r="5" fill="green" stroke="none" /><circle cx="586" cy="3731" r="5" fill="green" stroke="none" /><circle cx="5040" cy="131" r="5" fill="green" stroke="none" /><circle cx="7067" cy="3954" r="5" fill="green" stroke="none" /><circle cx="8334" cy="5575" r="5" fill="green" stroke="none" /><circle cx="5059" cy="693" r="5" fill="green" stroke="none" /><circle cx="4189" cy="2051" r="5" fill="green" stroke="none" /><circle cx="553" cy="1481" r="5" fill="green" stroke="none" /><circle cx="7749" cy="2491" r="5" fill="green" stroke="none" /><circle cx="8070" cy="4018" r="5" fill="green" stroke="none" /><circle cx="2120" cy="2444" r="5" fill="green" stroke="none" /><circle cx="5422" cy="1329" r="5" fill="green" stroke="none" /><circle cx="530" cy="3324" r="5" fill="green" stroke="none" /><circle cx="2316" cy="5807" r="5" fill="green" stroke="none" /><circle cx="1867" cy="307" r="5" fill="green" stroke="none" /><circle cx="4551" cy="2399" r="5" fill="green" stroke="none" /><circle cx="5188" cy="2858" r="5" fill="green" stroke="none" /><circle cx="1606" cy="773" r="5" fill="green" stroke="none" /><circle cx="6493" cy="1205" r="5" fill="green" stroke="none" /><circle cx="8574" cy="219" r="5" fill="green" stroke="none" /><circle cx="3829" cy="4330" r="5" fill="green" stroke="none" /><circle cx="4591" cy="80" r="5" fill="green" stroke="none" /><circle cx="1743" cy="3685" r="5" fill="green" stroke="none" /><circle cx="2262" cy="4109" r="5" fill="green" stroke="none" /><circle cx="6489" cy="2112" r="5" fill="green" stroke="none" /><circle cx="680" cy="2811" r="5" fill="green" stroke="none" /><circle cx="6716" cy="5745" r="5" fill="green" stroke="none" /><circle cx="298" cy="5086" r="5" fill="green" stroke="none" /><circle cx="3519" cy="218" r="5" fill="green" stroke="none" /><circle cx="7945" cy="509" r="5" fill="green" stroke="none" /><circle cx="2871" cy="3523" r="5" fill="green" stroke="none" /><circle cx="2487" cy="5179" r="5" fill="green" stroke="none" /><circle cx="5545" cy="924" r="5" fill="green" stroke="none" /><circle cx="3033" cy="3365" r="5" fill="green" stroke="none" /><circle cx="4712" cy="4701" r="5" fill="green" stroke="none" /><circle cx="3698" cy="194" r="5" fill="green" stroke="none" /><circle cx="6723" cy="4507" r="5" fill="green" stroke="none" /><circle cx="5418" cy="4710" r="5" fill="green" stroke="none" /><circle cx="7643" cy="3599" r="5" fill="green" stroke="none" /><circle cx="6126" cy="2487" r="5" fill="green" stroke="none" /><circle cx="1042" cy="4447" r="5" fill="green" stroke="none" /><circle cx="3523" cy="4387" r="5" fill="green" stroke="none" /><circle cx="6227" cy="2531" r="5" fill="green" stroke="none" /><circle cx="173" cy="3056" r="5" fill="green" stroke="none" /><circle cx="2631" cy="4529" r="5" fill="green" stroke="none" /><circle cx="1426" cy="5464" r="5" fill="green" stroke="none" /><circle cx="2212" cy="4690" r="5" fill="green" stroke="none" /><circle cx="7863" cy="1819" r="5" fill="green" stroke="none" /><circle cx="845" cy="955" r="5" fill="green" stroke="none" /><circle cx="144" cy="546" r="5" fill="green" stroke="none" /><circle cx="8361" cy="2044" r="5" fill="green" stroke="none" /><circle cx="4887" cy="2809" r="5" fill="green" stroke="none" /><circle cx="6269" cy="4704" r="5" fill="green" stroke="none" /><circle cx="6892" cy="238" r="5" fill="green" stroke="none" /><circle cx="3033" cy="1624" r="5" fill="green" stroke="none" /><circle cx="7283" cy="1454" r="5" fill="green" stroke="none" /><circle cx="4591" cy="4161" r="5" fill="green" stroke="none" /><circle cx="1538" cy="2196" r="5" fill="green" stroke="none" /><circle cx="6174" cy="4243" r="5" fill="green" stroke="none" /><circle cx="5106" cy="132" r="5" fill="green" stroke="none" /><circle cx="2342" cy="1858" r="5" fill="green" stroke="none" /><circle cx="634" cy="2053" r="5" fill="green" stroke="none" /><circle cx="6455" cy="2455" r="5" fill="green" stroke="none" /><circle cx="7253" cy="1014" r="5" fill="green" stroke="none" /><circle cx="938" cy="3716" r="5" fill="green" stroke="none" /><circle cx="4128" cy="868" r="5" fill="green" stroke="none" /><circle cx="5418" cy="5525" r="5" fill="green" stroke="none" /><circle cx="2881" cy="4814" r="5" fill="green" stroke="none" /><circle cx="3864" cy="73" r="5" fill="green" stroke="none" /><circle cx="5833" cy="1075" r="5" fill="green" stroke="none" /><circle cx="4195" cy="4773" r="5" fill="green" stroke="none" /><circle cx="6033" cy="1014" r="5" fill="green" stroke="none" /><circle cx="7311" cy="4150" r="5" fill="green" stroke="none" /><circle cx="6510" cy="2509" r="5" fill="green" stroke="none" /><circle cx="2962" cy="412" r="5" fill="green" stroke="none" /><circle cx="172" cy="2031" r="5" fill="green" stroke="none" /><circle cx="8616" cy="3896" r="5" fill="green" stroke="none" /><circle cx="5512" cy="5617" r="5" fill="green" stroke="none" /><circle cx="5621" cy="2244" r="5" fill="green" stroke="none" /><circle cx="7121" cy="1887" r="5" fill="green" stroke="none" /><circle cx="3175" cy="4256" r="5" fill="green" stroke="none" /><circle cx="6102" cy="3249" r="5" fill="green" stroke="none" /><circle cx="1978" cy="927" r="5" fill="green" stroke="none" /><circle cx="2660" cy="1021" r="5" fill="green" stroke="none" /><circle cx="6163" cy="2409" r="5" fill="green" stroke="none" /><circle cx="5457" cy="3114" r="5" fill="green" stroke="none" /><circle cx="8545" cy="1544" r="5" fill="green" stroke="none" /><circle cx="1804" cy="1820" r="5" fill="green" stroke="none" /><circle cx="5121" cy="25" r="5" fill="green" stroke="none" /><circle cx="3650" cy="2340" r="5" fill="green" stroke="none" /><circle cx="7777" cy="3965" r="5" fill="green" stroke="none" /><circle cx="8572" cy="4713" r="5" fill="green" stroke="none" /><circle cx="6095" cy="862" r="5" fill="green" stroke="none" /><circle cx="7702" cy="5156" r="5" fill="green" stroke="none" /><circle cx="4579" cy="1692" r="5" fill="green" stroke="none" /><circle cx="8055" cy="5702" r="5" fill="green" stroke="none" /><circle cx="3347" cy="478" r="5" fill="green" stroke="none" /><circle cx="7671" cy="622" r="5" fill="green" stroke="none" /><circle cx="3765" cy="869" r="5" fill="green" stroke="none" /><circle cx="2238" cy="2056" r="5" fill="green" stroke="none" /><circle cx="8282" cy="1374" r="5" fill="green" stroke="none" /><circle cx="2829" cy="5251" r="5" fill="green" stroke="none" /><circle cx="5992" cy="1366" r="5" fill="green" stroke="none" /><circle cx="2956" cy="822" r="5" fill="green" stroke="none" /><circle cx="672" cy="3657" r="5" fill="green" stroke="none" /><circle cx="42" cy="3822" r="5" fill="green" stroke="none" /><circle cx="6971" cy="2203" r="5" fill="green" stroke="none" /><circle cx="4095" cy="4581" r="5" fill="green" stroke="none" /><circle cx="1087" cy="4086" r="5" fill="green" stroke="none" /><circle cx="3480" cy="5079" r="5" fill="green" stroke="none" /><circle cx="108" cy="3731" r="5" fill="green" stroke="none" /><circle cx="3188" cy="5093" r="5" fill="green" stroke="none" /><circle cx="764" cy="5189" r="5" fill="green" stroke="none" /><circle cx="4775" cy="2612" r="5" fill="green" stroke="none" /><circle cx="7453" cy="2186" r="5" fill="green" stroke="none" /><circle cx="5864" cy="4816" r="5" fill="green" stroke="none" /><circle cx="4101" cy="5459" r="5" fill="green" stroke="none" /><circle cx="6952" cy="119" r="5" fill="green" stroke="none" /><circle cx="3836" cy="5814" r="5" fill="green" stroke="none" /><circle cx="2806" cy="4017" r="5" fill="green" stroke="none" /><circle cx="3490" cy="2806" r="5" fill="green" stroke="none" /><circle cx="1990" cy="5788" r="5" fill="green" stroke="none" /><circle cx="1935" cy="5551" r="5" fill="green" stroke="none" /><circle cx="3836" cy="1533" r="5" fill="green" stroke="none" /><circle cx="3474" cy="4996" r="5" fill="green" stroke="none" /><circle cx="4336" cy="5067" r="5" fill="green" stroke="none" /><circle cx="5945" cy="1962" r="5" fill="green" stroke="none" /><circle cx="7076" cy="5553" r="5" fill="green" stroke="none" /><circle cx="7186" cy="4406" r="5" fill="green" stroke="none" /><circle cx="1741" cy="1549" r="5" fill="green" stroke="none" /><circle cx="1069" cy="1759" r="5" fill="green" stroke="none" /><circle cx="5956" cy="1050" r="5" fill="green" stroke="none" /><circle cx="843" cy="3270" r="5" fill="green" stroke="none" /><circle cx="8532" cy="5019" r="5" fill="green" stroke="none" /><circle cx="467" cy="2964" r="5" fill="green" stroke="none" /><circle cx="6678" cy="4225" r="5" fill="green" stroke="none" /><circle cx="2510" cy="5206" r="5" fill="green" stroke="none" /><circle cx="804" cy="5693" r="5" fill="green" stroke="none" /><circle cx="2741" cy="4538" r="5" fill="green" stroke="none" /><circle cx="7661" cy="5819" r="5" fill="green" stroke="none" /><circle cx="1450" cy="4335" r="5" fill="green" stroke="none" /><circle cx="1183" cy="2251" r="5" fill="green" stroke="none" /><circle cx="722" cy="3572" r="5" fill="green" stroke="none" /><circle cx="1709" cy="2552" r="5" fill="green" stroke="none" /><circle cx="2705" cy="748" r="5" fill="green" stroke="none" /><circle cx="4737" cy="2000" r="5" fill="green" stroke="none" /><circle cx="7642" cy="3765" r="5" fill="green" stroke="none" /><circle cx="6502" cy="1478" r="5" fill="green" stroke="none" /><circle cx="3215" cy="3927" r="5" fill="green" stroke="none" /><circle cx="220" cy="689" r="5" fill="green" stroke="none" /><circle cx="8514" cy="3100" r="5" fill="green" stroke="none" /><circle cx="6164" cy="234" r="5" fill="green" stroke="none" /><circle cx="1189" cy="5780" r="5" fill="green" stroke="none" /><circle cx="8586" cy="773" r="5" fill="green" stroke="none" /><circle cx="3514" cy="5892" r="5" fill="green" stroke="none" /><circle cx="8461" cy="852" r="5" fill="green" stroke="none" /><circle cx="125" cy="600" r="5" fill="green" stroke="none" /><circle cx="4975" cy="4142" r="5" fill="green" stroke="none" /><circle cx="5497" cy="2673" r="5" fill="green" stroke="none" /><circle cx="2013" cy="3822" r="5" fill="green" stroke="none" /><circle cx="8301" cy="5614" r="5" fill="green" stroke="none" /><circle cx="7041" cy="5845" r="5" fill="green" stroke="none" /><circle cx="1115" cy="974" r="5" fill="green" stroke="none" /><circle cx="2495" cy="3694" r="5" fill="green" stroke="none" /><circle cx="6516" cy="125" r="5" fill="green" stroke="none" /><circle cx="3893" cy="1824" r="5" fill="green" stroke="none" /><circle cx="4167" cy="728" r="5" fill="green" stroke="none" /><circle cx="4099" cy="1683" r="5" fill="green" stroke="none" /><circle cx="1575" cy="1966" r="5" fill="green" stroke="none" /><circle cx="8367" cy="1825" r="5" fill="green" stroke="none" /><circle cx="6786" cy="4387" r="5" fill="green" stroke="none" /><circle cx="590" cy="1580" r="5" fill="green" stroke="none" /><circle cx="1325" cy="5240" r="5" fill="green" stroke="none" /><circle cx="8424" cy="5879" r="5" fill="green" stroke="none" /><circle cx="6539" cy="4702" r="5" fill="green" stroke="none" /><circle cx="3406" cy="920" r="5" fill="green" stroke="none" /><circle cx="6064" cy="1247" r="5" fill="green" stroke="none" /><circle cx="1559" cy="3369" r="5" fill="green" stroke="none" /><circle cx="469" cy="509" r="5" fill="green" stroke="none" /><circle cx="260" cy="1289" r="5" fill="green" stroke="none" /><circle cx="517" cy="3595" r="5" fill="green" stroke="none" /><circle cx="6534" cy="26" r="5" fill="green" stroke="none" /><circle cx="7383" cy="4239" r="5" fill="green" stroke="none" /><circle cx="2685" cy="731" r="5" fill="green" stroke="none" /><circle cx="2183" cy="1051" r="5" fill="green" stroke="none" /><circle cx="4215" cy="4026" r="5" fill="green" stroke="none" /><circle cx="4218" cy="3740" r="5" fill="green" stroke="none" /><circle cx="251" cy="3758" r="5" fill="green" stroke="none" /><circle cx="3994" cy="301" r="5" fill="green" stroke="none" /><circle cx="3426" cy="728" r="5" fill="green" stroke="none" /><circle cx="6429" cy="5744" r="5" fill="green" stroke="none" /><circle cx="7356" cy="4381" r="5" fill="green" stroke="none" /><circle cx="5935" cy="936" r="5" fill="green" stroke="none" /><circle cx="6781" cy="5836" r="5" fill="green" stroke="none" /><circle cx="75" cy="2713" r="5" fill="green" stroke="none" /><circle cx="5200" cy="619" r="5" fill="green" stroke="none" /><circle cx="8071" cy="2276" r="5" fill="green" stroke="none" /><circle cx="5707" cy="2739" r="5" fill="green" stroke="none" /><circle cx="4077" cy="5750" r="5" fill="green" stroke="none" /><circle cx="8183" cy="4774" r="5" fill="green" stroke="none" /><circle cx="2840" cy="4297" r="5" fill="green" stroke="none" /><circle cx="6921" cy="1796" r="5" fill="green" stroke="none" /><circle cx="3265" cy="3965" r="5" fill="green" stroke="none" /><circle cx="1083" cy="3388" r="5" fill="green" stroke="none" /><circle cx="6085" cy="1862" r="5" fill="green" stroke="none" /><circle cx="5881" cy="785" r="5" fill="green" stroke="none" /><circle cx="2732" cy="4891" r="5" fill="green" stroke="none" /><circle cx="5772" cy="3395" r="5" fill="green" stroke="none" /><circle cx="3151" cy="76" r="5" fill="green" stroke="none" /><circle cx="4011" cy="2584" r="5" fill="green" stroke="none" /><circle cx="3797" cy="5449" r="5" fill="green" stroke="none" /><circle cx="5710" cy="1231" r="5" fill="green" stroke="none" /><circle cx="2298" cy="3831" r="5" fill="green" stroke="none" /><circle cx="176" cy="5195" r="5" fill="green" stroke="none" /><circle cx="6004" cy="3134" r="5" fill="green" stroke="none" /><circle cx="7721" cy="436" r="5" fill="green" stroke="none" /><circle cx="2148" cy="1641" r="5" fill="green" stroke="none" /><circle cx="3414" cy="3986" r="5" fill="green" stroke="none" /><circle cx="7930" cy="3174" r="5" fill="green" stroke="none" /><circle cx="6287" cy="1599" r="5" fill="green" stroke="none" /><circle cx="1592" cy="261" r="5" fill="green" stroke="none" /><circle cx="147" cy="249" r="5" fill="green" stroke="none" /><circle cx="5967" cy="5601" r="5" fill="green" stroke="none" /><circle cx="6682" cy="1448" r="5" fill="green" stroke="none" /><circle cx="7705" cy="2846" r="5" fill="green" stroke="none" /><circle cx="8325" cy="4534" r="5" fill="green" stroke="none" /><circle cx="6432" cy="1589" r="5" fill="green" stroke="none" /><circle cx="5346" cy="3912" r="5" fill="green" stroke="none" /><circle cx="995" cy="3030" r="5" fill="green" stroke="none" /><circle cx="8063" cy="622" r="5" fill="green" stroke="none" /><circle cx="5384" cy="4463" r="5" fill="green" stroke="none" /><circle cx="7156" cy="3102" r="5" fill="green" stroke="none" /><circle cx="1150" cy="2076" r="5" fill="green" stroke="none" /><circle cx="2268" cy="4930" r="5" fill="green" stroke="none" /><circle cx="6994" cy="3291" r="5" fill="green" stroke="none" /><circle cx="6656" cy="3320" r="5" fill="green" stroke="none" /><circle cx="4673" cy="3394" r="5" fill="green" stroke="none" /><circle cx="3155" cy="5466" r="5" fill="green" stroke="none" /><circle cx="4072" cy="6012" r="5" fill="green" stroke="none" /><circle cx="7730" cy="5438" r="5" fill="green" stroke="none" /><circle cx="2276" cy="3172" r="5" fill="green" stroke="none" /><circle cx="3770" cy="4924" r="5" fill="green" stroke="none" /><circle cx="6415" cy="4693" r="5" fill="green" stroke="none" /><circle cx="2111" cy="5447" r="5" fill="green" stroke="none" /><circle cx="5341" cy="2901" r="5" fill="green" stroke="none" /><circle cx="2283" cy="105" r="5" fill="green" stroke="none" /><circle cx="1067" cy="5452" r="5" fill="green" stroke="none" /><circle cx="7975" cy="5395" r="5" fill="green" stroke="none" /><circle cx="4306" cy="3538" r="5" fill="green" stroke="none" /><circle cx="6385" cy="2215" r="5" fill="green" stroke="none" /><circle cx="8553" cy="378" r="5" fill="green" stroke="none" /><circle cx="3155" cy="5935" r="5" fill="green" stroke="none" /><circle cx="2751" cy="624" r="5" fill="green" stroke="none" /><circle cx="3717" cy="786" r="5" fill="green" stroke="none" /><circle cx="6764" cy="39" r="5" fill="green" stroke="none" /><circle cx="7715" cy="2180" r="5" fill="green" stroke="none" /><circle cx="7977" cy="808" r="5" fill="green" stroke="none" /><circle cx="239" cy="5292" r="5" fill="green" stroke="none" /><circle cx="8183" cy="4080" r="5" fill="green" stroke="none" /><circle cx="2709" cy="3141" r="5" fill="green" stroke="none" /><circle cx="3268" cy="1745" r="5" fill="green" stroke="none" /><circle cx="8494" cy="4777" r="5" fill="green" stroke="none" /><circle cx="6406" cy="5914" r="5" fill="green" stroke="none" /><circle cx="4694" cy="1540" r="5" fill="green" stroke="none" /><circle cx="5022" cy="223" r="5" fill="green" stroke="none" /><circle cx="6128" cy="3463" r="5" fill="green" stroke="none" /><circle cx="7414" cy="3727" r="5" fill="green" stroke="none" /><circle cx="6841" cy="3467" r="5" fill="green" stroke="none" /><circle cx="2072" cy="4987" r="5" fill="green" stroke="none" /><circle cx="6618" cy="2430" r="5" fill="green" stroke="none" /><circle cx="718" cy="1181" r="5" fill="green" stroke="none" /><circle cx="7466" cy="365" r="5" fill="green" stroke="none" /><circle cx="105" cy="2855" r="5" fill="green" stroke="none" /><circle cx="8430" cy="383" r="5" fill="green" stroke="none" /><circle cx="5669" cy="4773" r="5" fill="green" stroke="none" /><circle cx="3539" cy="237" r="5" fill="green" stroke="none" /><circle cx="7824" cy="4883" r="5" fill="green" stroke="none" /><circle cx="1732" cy="1993" r="5" fill="green" stroke="none" /><circle cx="2137" cy="3304" r="5" fill="green" stroke="none" /><circle cx="6445" cy="5296" r="5" fill="green" stroke="none" /><circle cx="4522" cy="251" r="5" fill="green" stroke="none" /><circle cx="5985" cy="3702" r="5" fill="green" stroke="none" /><circle cx="6423" cy="3724" r="5" fill="green" stroke="none" /><circle cx="5882" cy="5099" r="5" fill="green" stroke="none" /><circle cx="8053" cy="1644" r="5" fill="green" stroke="none" /><circle cx="2671" cy="4847" r="5" fill="green" stroke="none" /><circle cx="4949" cy="4240" r="5" fill="green" stroke="none" /><circle cx="6528" cy="3796" r="5" fill="green" stroke="none" /><circle cx="1314" cy="3978" r="5" fill="green" stroke="none" /><circle cx="4632" cy="1989" r="5" fill="green" stroke="none" /><circle cx="8414" cy="4794" r="5" fill="green" stroke="none" /><circle cx="7751" cy="1616" r="5" fill="green" stroke="none" /><circle cx="2111" cy="4471" r="5" fill="green" stroke="none" /><circle cx="1448" cy="5372" r="5" fill="green" stroke="none" /><circle cx="1328" cy="1912" r="5" fill="green" stroke="none" /><circle cx="1604" cy="598" r="5" fill="green" stroke="none" /><circle cx="2563" cy="4482" r="5" fill="green" stroke="none" /><circle cx="3404" cy="2944" r="5" fill="green" stroke="none" /><circle cx="4414" cy="566" r="5" fill="green" stroke="none" /><circle cx="8090" cy="2742" r="5" fill="green" stroke="none" /><circle cx="2932" cy="112" r="5" fill="green" stroke="none" /><circle cx="2850" cy="4391" r="5" fill="green" stroke="none" /><circle cx="8046" cy="103" r="5" fill="green" stroke="none" /><circle cx="5528" cy="5705" r="5" fill="green" stroke="none" /><circle cx="6420" cy="3613" r="5" fill="green" stroke="none" /><circle cx="331" cy="3679" r="5" fill="green" stroke="none" /><circle cx="1810" cy="3029" r="5" fill="green" stroke="none" /><circle cx="7662" cy="2891" r="5" fill="green" stroke="none" /><circle cx="1864" cy="1804" r="5" fill="green" stroke="none" /><circle cx="7947" cy="3029" r="5" fill="green" stroke="none" /><circle cx="5984" cy="3217" r="5" fill="green" stroke="none" /><circle cx="3653" cy="57" r="5" fill="green" stroke="none" /><circle cx="4586" cy="1152" r="5" fill="green" stroke="none" /><circle cx="1785" cy="302" r="5" fill="green" stroke="none" /><circle cx="5479" cy="4201" r="5" fill="green" stroke="none" /><circle cx="5889" cy="4924" r="5" fill="green" stroke="none" /><circle cx="5886" cy="2031" r="5" fill="green" stroke="none" /><circle cx="7234" cy="3885" r="5" fill="green" stroke="none" /><circle cx="5346" cy="397" r="5" fill="green" stroke="none" /><circle cx="583" cy="2639" r="5" fill="green" stroke="none" /><circle cx="4706" cy="3445" r="5" fill="green" stroke="none" /><circle cx="3428" cy="3547" r="5" fill="green" stroke="none" /><circle cx="3794" cy="4193" r="5" fill="green" stroke="none" /><circle cx="2830" cy="5955" r="5" fill="green" stroke="none" /><circle cx="366" cy="614" r="5" fill="green" stroke="none" /><circle cx="6130" cy="3376" r="5" fill="green" stroke="none" /><circle cx="5833" cy="5299" r="5" fill="green" stroke="none" /><circle cx="8039" cy="3277" r="5" fill="green" stroke="none" /><circle cx="4221" cy="34" r="5" fill="green" stroke="none" /><circle cx="3447" cy="1689" r="5" fill="green" stroke="none" /><circle cx="6146" cy="879" r="5" fill="green" stroke="none" /><circle cx="7552" cy="5620" r="5" fill="green" stroke="none" /><circle cx="1612" cy="2401" r="5" fill="green" stroke="none" /><circle cx="4255" cy="3005" r="5" fill="green" stroke="none" /><circle cx="1391" cy="3024" r="5" fill="green" stroke="none" /><circle cx="4231" cy="4282" r="5" fill="green" stroke="none" /><circle cx="3109" cy="2562" r="5" fill="green" stroke="none" /><circle cx="6415" cy="2577" r="5" fill="green" stroke="none" /><circle cx="303" cy="2726" r="5" fill="green" stroke="none" /><circle cx="395" cy="979" r="5" fill="green" stroke="none" /><circle cx="3269" cy="2394" r="5" fill="green" stroke="none" /><circle cx="4184" cy="205" r="5" fill="green" stroke="none" /><circle cx="5648" cy="3204" r="5" fill="green" stroke="none" /><circle cx="1769" cy="2741" r="5" fill="green" stroke="none" /><circle cx="671" cy="333" r="5" fill="green" stroke="none" /><circle cx="2282" cy="2065" r="5" fill="green" stroke="none" /><circle cx="4577" cy="5100" r="5" fill="green" stroke="none" /><circle cx="7105" cy="5748" r="5" fill="green" stroke="none" /><circle cx="5895" cy="5399" r="5" fill="green" stroke="none" /><circle cx="4747" cy="5841" r="5" fill="green" stroke="none" /><circle cx="8005" cy="2532" r="5" fill="green" stroke="none" /><circle cx="8310" cy="89" r="5" fill="green" stroke="none" /><circle cx="747" cy="5831" r="5" fill="green" stroke="none" /><circle cx="1910" cy="870" r="5" fill="green" stroke="none" /><circle cx="8177" cy="5148" r="5" fill="green" stroke="none" /><circle cx="7855" cy="3544" r="5" fill="green" stroke="none" /><circle cx="8019" cy="3956" r="5" fill="green" stroke="none" /><circle cx="6380" cy="4902" r="5" fill="green" stroke="none" /><circle cx="6621" cy="2644" r="5" fill="green" stroke="none" /><circle cx="833" cy="2641" r="5" fill="green" stroke="none" /><circle cx="7687" cy="675" r="5" fill="green" stroke="none" /><circle cx="941" cy="5600" r="5" fill="green" stroke="none" /><circle cx="7915" cy="3739" r="5" fill="green" stroke="none" /><circle cx="5167" cy="508" r="5" fill="green" stroke="none" /><circle cx="7166" cy="4040" r="5" fill="green" stroke="none" /><circle cx="3458" cy="1564" r="5" fill="green" stroke="none" /><circle cx="1817" cy="4623" r="5" fill="green" stroke="none" /><circle cx="7026" cy="3538" r="5" fill="green" stroke="none" /><circle cx="3752" cy="4728" r="5" fill="green" stroke="none" /><circle cx="4086" cy="3442" r="5" fill="green" stroke="none" /><circle cx="8549" cy="1376" r="5" fill="green" stroke="none" /><circle cx="5189" cy="2175" r="5" fill="green" stroke="none" /><circle cx="7968" cy="2463" r="5" fill="green" stroke="none" /><circle cx="1162" cy="1156" r="5" fill="green" stroke="none" /><circle cx="7375" cy="1377" r="5" fill="green" stroke="none" /><circle cx="4469" cy="3454" r="5" fill="green" stroke="none" /><circle cx="1983" cy="3501" r="5" fill="green" stroke="none" /><circle cx="3042" cy="3319" r="5" fill="green" stroke="none" /><circle cx="806" cy="2995" r="5" fill="green" stroke="none" /><circle cx="4956" cy="2270" r="5" fill="green" stroke="none" /><circle cx="6571" cy="1954" r="5" fill="green" stroke="none" /><circle cx="4432" cy="5037" r="5" fill="green" stroke="none" /><circle cx="2" cy="1104" r="5" fill="green" stroke="none" /><circle cx="7414" cy="2302" r="5" fill="green" stroke="none" /><circle cx="6739" cy="5913" r="5" fill="green" stroke="none" /><circle cx="7240" cy="4359" r="5" fill="green" stroke="none" /><circle cx="8300" cy="5923" r="5" fill="green" stroke="none" /><circle cx="5731" cy="1778" r="5" fill="green" stroke="none" /><circle cx="348" cy="2479" r="5" fill="green" stroke="none" /><circle cx="671" cy="5501" r="5" fill="green" stroke="none" /><circle cx="2579" cy="1087" r="5" fill="green" stroke="none" /><circle cx="563" cy="2196" r="5" fill="green" stroke="none" /><circle cx="776" cy="3604" r="5" fill="green" stroke="none" /><circle cx="4943" cy="1019" r="5" fill="green" stroke="none" /><circle cx="4691" cy="1260" r="5" fill="green" stroke="none" /><circle cx="5044" cy="3666" r="5" fill="green" stroke="none" /><circle cx="2648" cy="4296" r="5" fill="green" stroke="none" /><circle cx="4068" cy="1055" r="5" fill="green" stroke="none" /><circle cx="4726" cy="2258" r="5" fill="green" stroke="none" /><circle cx="4138" cy="4233" r="5" fill="green" stroke="none" /><circle cx="6115" cy="1254" r="5" fill="green" stroke="none" /><circle cx="2151" cy="2134" r="5" fill="green" stroke="none" /><circle cx="3790" cy="2168" r="5" fill="green" stroke="none" /><circle cx="7015" cy="5480" r="5" fill="green" stroke="none" /><circle cx="2628" cy="4823" r="5" fill="green" stroke="none" /><circle cx="5220" cy="2680" r="5" fill="green" stroke="none" /><circle cx="6497" cy="446" r="5" fill="green" stroke="none" /><circle cx="5041" cy="681" r="5" fill="green" stroke="none" /><circle cx="6075" cy="3552" r="5" fill="green" stroke="none" /><circle cx="2674" cy="3235" r="5" fill="green" stroke="none" /><circle cx="1304" cy="3350" r="5" fill="green" stroke="none" /><circle cx="6670" cy="4796" r="5" fill="green" stroke="none" /><circle cx="2782" cy="108" r="5" fill="green" stroke="none" /><circle cx="1863" cy="4474" r="5" fill="green" stroke="none" /><circle cx="299" cy="3520" r="5" fill="green" stroke="none" /><circle cx="3715" cy="5499" r="5" fill="green" stroke="none" /><circle cx="6784" cy="4216" r="5" fill="green" stroke="none" /><circle cx="2142" cy="847" r="5" fill="green" stroke="none" /><circle cx="2474" cy="730" r="5" fill="green" stroke="none" /><circle cx="7087" cy="1825" r="5" fill="green" stroke="none" /><circle cx="2911" cy="3538" r="5" fill="green" stroke="none" /><circle cx="3091" cy="3692" r="5" fill="green" stroke="none" /><circle cx="2755" cy="3654" r="5" fill="green" stroke="none" /><circle cx="3207" cy="2559" r="5" fill="green" stroke="none" /><circle cx="699" cy="5260" r="5" fill="green" stroke="none" /><circle cx="3129" cy="123" r="5" fill="green" stroke="none" /><circle cx="6045" cy="3817" r="5" fill="green" stroke="none" /><circle cx="4184" cy="2665" r="5" fill="green" stroke="none" /><circle cx="7690" cy="535" r="5" fill="green" stroke="none" /><circle cx="3063" cy="3933" r="5" fill="green" stroke="none" /><circle cx="2194" cy="3343" r="5" fill="green" stroke="none" /><circle cx="5357" cy="5901" r="5" fill="green" stroke="none" /><circle cx="703" cy="4151" r="5" fill="green" stroke="none" /><circle cx="4634" cy="598" r="5" fill="green" stroke="none" /><circle cx="3279" cy="129" r="5" fill="green" stroke="none" /><circle cx="8182" cy="5703" r="5" fill="green" stroke="none" /><circle cx="5024" cy="4968" r="5" fill="green" stroke="none" /><circle cx="4383" cy="1788" r="5" fill="green" stroke="none" /><circle cx="4019" cy="2002" r="5" fill="green" stroke="none" /><circle cx="2255" cy="4423" r="5" fill="green" stroke="none" /><circle cx="3722" cy="4259" r="5" fill="green" stroke="none" /><circle cx="2893" cy="4830" r="5" fill="green" stroke="none" /><circle cx="3438" cy="901" r="5" fill="green" stroke="none" /><circle cx="6162" cy="2069" r="5" fill="green" stroke="none" /><circle cx="7759" cy="4442" r="5" fill="green" stroke="none" /><circle cx="7667" cy="916" r="5" fill="green" stroke="none" /><circle cx="7143" cy="5627" r="5" fill="green" stroke="none" /><circle cx="4103" cy="1302" r="5" fill="green" stroke="none" /><circle cx="5522" cy="336" r="5" fill="green" stroke="none" /><circle cx="6222" cy="2600" r="5" fill="green" stroke="none" /><circle cx="708" cy="3618" r="5" fill="green" stroke="none" /><circle cx="6162" cy="2575" r="5" fill="green" stroke="none" /><circle cx="2987" cy="4902" r="5" fill="green" stroke="none" /><circle cx="5508" cy="2443" r="5" fill="green" stroke="none" /><circle cx="7352" cy="2809" r="5" fill="green" stroke="none" /><circle cx="5564" cy="2736" r="5" fill="green" stroke="none" /><circle cx="819" cy="5781" r="5" fill="green" stroke="none" /><circle cx="1576" cy="159" r="5" fill="green" stroke="none" /><circle cx="3172" cy="4423" r="5" fill="green" stroke="none" /><circle cx="1932" cy="1531" r="5" fill="green" stroke="none" /><circle cx="1107" cy="5930" r="5" fill="green" stroke="none" /><circle cx="4498" cy="1333" r="5" fill="green" stroke="none" /><circle cx="2984" cy="625" r="5" fill="green" stroke="none" /><circle cx="1110" cy="4672" r="5" fill="green" stroke="none" /><circle cx="5538" cy="5674" r="5" fill="green" stroke="none" /><circle cx="4810" cy="2837" r="5" fill="green" stroke="none" /><circle cx="152" cy="1678" r="5" fill="green" stroke="none" /><circle cx="7483" cy="3765" r="5" fill="green" stroke="none" /><circle cx="4133" cy="1815" r="5" fill="green" stroke="none" /><circle cx="2128" cy="2068" r="5" fill="green" stroke="none" /><circle cx="7422" cy="4993" r="5" fill="green" stroke="none" /><circle cx="6697" cy="4415" r="5" fill="green" stroke="none" /><circle cx="5939" cy="4605" r="5" fill="green" stroke="none" /><circle cx="3311" cy="1924" r="5" fill="green" stroke="none" /><circle cx="6911" cy="3182" r="5" fill="green" stroke="none" /><circle cx="2451" cy="3476" r="5" fill="green" stroke="none" /><circle cx="220" cy="2712" r="5" fill="green" stroke="none" /><circle cx="5084" cy="2823" r="5" fill="green" stroke="none" /><circle cx="4316" cy="3138" r="5" fill="green" stroke="none" /><circle cx="7918" cy="1999" r="5" fill="green" stroke="none" /><circle cx="2187" cy="1718" r="5" fill="green" stroke="none" /><circle cx="5271" cy="5958" r="5" fill="green" stroke="none" /><circle cx="3428" cy="2867" r="5" fill="green" stroke="none" /><circle cx="3349" cy="4161" r="5" fill="green" stroke="none" /><circle cx="707" cy="842" r="5" fill="green" stroke="none" /><circle cx="945" cy="5713" r="5" fill="green" stroke="none" /><circle cx="8284" cy="922" r="5" fill="green" stroke="none" /><circle cx="2201" cy="413" r="5" fill="green" stroke="none" /><circle cx="3158" cy="3661" r="5" fill="green" stroke="none" /><circle cx="1625" cy="1011" r="5" fill="green" stroke="none" /><circle cx="4961" cy="310" r="5" fill="green" stroke="none" /><circle cx="1730" cy="4625" r="5" fill="green" stroke="none" /><circle cx="3348" cy="1223" r="5" fill="green" stroke="none" /><circle cx="7908" cy="4239" r="5" fill="green" stroke="none" /><circle cx="1346" cy="5735" r="5" fill="green" stroke="none" /><circle cx="851" cy="4545" r="5" fill="green" stroke="none" /><circle cx="7202" cy="4899" r="5" fill="green" stroke="none" /><circle cx="1612" cy="939" r="5" fill="green" stroke="none" /><circle cx="6812" cy="1220" r="5" fill="green" stroke="none" /><circle cx="5720" cy="3875" r="5" fill="green" stroke="none" /><circle cx="475" cy="1847" r="5" fill="green" stroke="none" /><circle cx="6559" cy="4131" r="5" fill="green" stroke="none" /><circle cx="5715" cy="4163" r="5" fill="green" stroke="none" /><circle cx="5229" cy="536" r="5" fill="green" stroke="none" /><circle cx="939" cy="2918" r="5" fill="green" stroke="none" /><circle cx="2016" cy="5738" r="5" fill="green" stroke="none" /><circle cx="8331" cy="5764" r="5" fill="green" stroke="none" /><circle cx="2964" cy="1451" r="5" fill="green" stroke="none" /><circle cx="3317" cy="1752" r="5" fill="green" stroke="none" /><circle cx="1306" cy="5542" r="5" fill="green" stroke="none" /><circle cx="1002" cy="104" r="5" fill="green" stroke="none" /><circle cx="6936" cy="2381" r="5" fill="green" stroke="none" /><circle cx="2086" cy="2344" r="5" fill="green" stroke="none" /><circle cx="4801" cy="3361" r="5" fill="green" stroke="none" /><circle cx="2985" cy="5966" r="5" fill="green" stroke="none" /><circle cx="3699" cy="2662" r="5" fill="green" stroke="none" /><circle cx="6146" cy="4855" r="5" fill="green" stroke="none" /><circle cx="6618" cy="2405" r="5" fill="green" stroke="none" /><circle cx="762" cy="4760" r="5" fill="green" stroke="none" /><circle cx="2572" cy="422" r="5" fill="green" stroke="none" /><circle cx="3246" cy="3730" r="5" fill="green" stroke="none" /><circle cx="2920" cy="1528" r="5" fill="green" stroke="none" /><circle cx="5720" cy="4369" r="5" fill="green" stroke="none" /><circle cx="1087" cy="1556" r="5" fill="green" stroke="none" /><circle cx="3873" cy="40" r="5" fill="green" stroke="none" /><circle cx="1176" cy="3689" r="5" fill="green" stroke="none" /><circle cx="312" cy="3705" r="5" fill="green" stroke="none" /><circle cx="6306" cy="4749" r="5" fill="green" stroke="none" /><circle cx="4056" cy="4175" r="5" fill="green" stroke="none" /><circle cx="2381" cy="2620" r="5" fill="green" stroke="none" /><circle cx="4410" cy="1528" r="5" fill="green" stroke="none" /><circle cx="7279" cy="267" r="5" fill="green" stroke="none" /><circle cx="8111" cy="5615" r="5" fill="green" stroke="none" /><circle cx="2758" cy="608" r="5" fill="green" stroke="none" /><circle cx="2854" cy="116" r="5" fill="green" stroke="none" /><circle cx="7306" cy="4097" r="5" fill="green" stroke="none" /><circle cx="7638" cy="743" r="5" fill="green" stroke="none" /><circle cx="5669" cy="3843" r="5" fill="green" stroke="none" /><circle cx="1788" cy="1893" r="5" fill="green" stroke="none" /><circle cx="5666" cy="755" r="5" fill="green" stroke="none" /><circle cx="3209" cy="3180" r="5" fill="green" stroke="none" /><circle cx="1745" cy="3868" r="5" fill="green" stroke="none" /><circle cx="4308" cy="3756" r="5" fill="green" stroke="none" /><circle cx="237" cy="5061" r="5" fill="green" stroke="none" /><circle cx="3416" cy="4612" r="5" fill="green" stroke="none" /><circle cx="5216" cy="635" r="5" fill="green" stroke="none" /><circle cx="7822" cy="672" r="5" fill="green" stroke="none" /><circle cx="1249" cy="4728" r="5" fill="green" stroke="none" /><circle cx="1046" cy="5552" r="5" fill="green" stroke="none" /><circle cx="3683" cy="5873" r="5" fill="green" stroke="none" /><circle cx="4393" cy="2471" r="5" fill="green" stroke="none" /><circle cx="8152" cy="2152" r="5" fill="green" stroke="none" /><circle cx="3939" cy="2881" r="5" fill="green" stroke="none" /><circle cx="290" cy="3068" r="5" fill="green" stroke="none" /><circle cx="1993" cy="4987" r="5" fill="green" stroke="none" /><circle cx="6472" cy="2473" r="5" fill="green" stroke="none" /><circle cx="999" cy="1267" r="5" fill="green" stroke="none" /><circle cx="1547" cy="5956" r="5" fill="green" stroke="none" /><circle cx="3277" cy="5909" r="5" fill="green" stroke="none" /><circle cx="4615" cy="5893" r="5" fill="green" stroke="none" /><circle cx="4435" cy="1316" r="5" fill="green" stroke="none" /><circle cx="3986" cy="164" r="5" fill="green" stroke="none" /><circle cx="4200" cy="5947" r="5" fill="green" stroke="none" /><circle cx="320" cy="3545" r="5" fill="green" stroke="none" /><circle cx="6226" cy="433" r="5" fill="green" stroke="none" /><circle cx="6755" cy="984" r="5" fill="green" stroke="none" /><circle cx="441" cy="1898" r="5" fill="green" stroke="none" /><circle cx="8336" cy="1049" r="5" fill="green" stroke="none" /><circle cx="2510" cy="6011" r="5" fill="green" stroke="none" /><circle cx="2996" cy="146" r="5" fill="green" stroke="none" /><circle cx="2019" cy="3491" r="5" fill="green" stroke="none" /><circle cx="3342" cy="4699" r="5" fill="green" stroke="none" /><circle cx="6838" cy="2189" r="5" fill="green" stroke="none" /><circle cx="4096" cy="5513" r="5" fill="green" stroke="none" /><circle cx="7343" cy="3598" r="5" fill="green" stroke="none" /><circle cx="934" cy="5407" r="5" fill="green" stroke="none" /><circle cx="5896" cy="1543" r="5" fill="green" stroke="none" /><circle cx="876" cy="1578" r="5" fill="green" stroke="none" /><circle cx="1576" cy="1473" r="5" fill="green" stroke="none" /><circle cx="8614" cy="3152" r="5" fill="green" stroke="none" /><circle cx="5546" cy="2891" r="5" fill="green" stroke="none" /><circle cx="2053" cy="1810" r="5" fill="green" stroke="none" /><circle cx="7285" cy="4052" r="5" fill="green" stroke="none" /><circle cx="4019" cy="5332" r="5" fill="green" stroke="none" /><circle cx="7563" cy="77" r="5" fill="green" stroke="none" /><circle cx="7585" cy="1537" r="5" fill="green" stroke="none" /><circle cx="7526" cy="997" r="5" fill="green" stroke="none" /><circle cx="3456" cy="4722" r="5" fill="green" stroke="none" /><circle cx="1494" cy="1111" r="5" fill="green" stroke="none" /><circle cx="66" cy="2571" r="5" fill="green" stroke="none" /><circle cx="4996" cy="3783" r="5" fill="green" stroke="none" /><circle cx="1310" cy="2255" r="5" fill="green" stroke="none" /><circle cx="6477" cy="5040" r="5" fill="green" stroke="none" /><circle cx="4309" cy="2674" r="5" fill="green" stroke="none" /><circle cx="5090" cy="2955" r="5" fill="green" stroke="none" /><circle cx="1833" cy="454" r="5" fill="green" stroke="none" /><circle cx="3051" cy="1812" r="5" fill="green" stroke="none" /><circle cx="2872" cy="1860" r="5" fill="green" stroke="none" /><circle cx="7970" cy="321" r="5" fill="green" stroke="none" /><circle cx="4365" cy="2659" r="5" fill="green" stroke="none" /><circle cx="1249" cy="295" r="5" fill="green" stroke="none" /><circle cx="3412" cy="1448" r="5" fill="green" stroke="none" /><circle cx="6500" cy="1017" r="5" fill="green" stroke="none" /><circle cx="3495" cy="5236" r="5" fill="green" stroke="none" /><circle cx="2403" cy="5440" r="5" fill="green" stroke="none" /><circle cx="5548" cy="4433" r="5" fill="green" stroke="none" /><circle cx="903" cy="1742" r="5" fill="green" stroke="none" /><circle cx="510" cy="3736" r="5" fill="green" stroke="none" /><circle cx="6331" cy="4920" r="5" fill="green" stroke="none" /><circle cx="8226" cy="3455" r="5" fill="green" stroke="none" /><circle cx="4311" cy="2926" r="5" fill="green" stroke="none" /><circle cx="8335" cy="3241" r="5" fill="green" stroke="none" /><circle cx="2382" cy="5966" r="5" fill="green" stroke="none" /><circle cx="4608" cy="5566" r="5" fill="green" stroke="none" /><circle cx="7441" cy="1163" r="5" fill="green" stroke="none" /><circle cx="8421" cy="3613" r="5" fill="green" stroke="none" /><circle cx="3855" cy="3833" r="5" fill="green" stroke="none" /><circle cx="2397" cy="1814" r="5" fill="green" stroke="none" /><circle cx="6737" cy="1960" r="5" fill="green" stroke="none" /><circle cx="7052" cy="105" r="5" fill="green" stroke="none" /><circle cx="1981" cy="1022" r="5" fill="green" stroke="none" /><circle cx="7658" cy="5533" r="5" fill="green" stroke="none" /><circle cx="5228" cy="2510" r="5" fill="green" stroke="none" /><circle cx="7832" cy="5790" r="5" fill="green" stroke="none" /><circle cx="3331" cy="2466" r="5" fill="green" stroke="none" /><circle cx="356" cy="4343" r="5" fill="green" stroke="none" /><circle cx="2236" cy="2698" r="5" fill="green" stroke="none" /><circle cx="7497" cy="1880" r="5" fill="green" stroke="none" /><circle cx="5183" cy="3446" r="5" fill="green" stroke="none" /><circle cx="1453" cy="2993" r="5" fill="green" stroke="none" /><circle cx="2024" cy="2735" r="5" fill="green" stroke="none" /><circle cx="3881" cy="2827" r="5" fill="green" stroke="none" /><circle cx="6915" cy="5702" r="5" fill="green" stroke="none" /><circle cx="3705" cy="1792" r="5" fill="green" stroke="none" /><circle cx="4260" cy="2072" r="5" fill="green" stroke="none" /><circle cx="1635" cy="4110" r="5" fill="green" stroke="none" /><circle cx="21" cy="4281" r="5" fill="green" stroke="none" /><circle cx="4488" cy="2153" r="5" fill="green" stroke="none" /><circle cx="3439" cy="4962" r="5" fill="green" stroke="none" /><circle cx="1479" cy="1454" r="5" fill="green" stroke="none" /><circle cx="6540" cy="4121" r="5" fill="green" stroke="none" /><circle cx="144" cy="1478" r="5" fill="green" stroke="none" /><circle cx="7387" cy="4936" r="5" fill="green" stroke="none" /><circle cx="3934" cy="198" r="5" fill="green" stroke="none" /><circle cx="1510" cy="2168" r="5" fill="green" stroke="none" /><circle cx="4010" cy="5096" r="5" fill="green" stroke="none" /><circle cx="1340" cy="5757" r="5" fill="green" stroke="none" /><circle cx="2540" cy="682" r="5" fill="green" stroke="none" /><circle cx="3196" cy="5258" r="5" fill="green" stroke="none" /><circle cx="2704" cy="5781" r="5" fill="green" stroke="none" /><circle cx="7598" cy="1764" r="5" fill="green" stroke="none" /><circle cx="7503" cy="618" r="5" fill="green" stroke="none" /><circle cx="3248" cy="1212" r="5" fill="green" stroke="none" /><circle cx="1065" cy="2577" r="5" fill="green" stroke="none" /><circle cx="4351" cy="3154" r="5" fill="green" stroke="none" /><circle cx="5791" cy="5208" r="5" fill="green" stroke="none" /><circle cx="4845" cy="5729" r="5" fill="green" stroke="none" /><circle cx="3831" cy="3146" r="5" fill="green" stroke="none" /><circle cx="4120" cy="615" r="5" fill="green" stroke="none" /><circle cx="2398" cy="3369" r="5" fill="green" stroke="none" /><circle cx="5696" cy="2194" r="5" fill="green" stroke="none" /><circle cx="4" cy="5916" r="5" fill="green" stroke="none" /><circle cx="1426" cy="3949" r="5" fill="green" stroke="none" /><circle cx="8514" cy="1715" r="5" fill="green" stroke="none" /><circle cx="6637" cy="3202" r="5" fill="green" stroke="none" /><circle cx="5774" cy="4083" r="5" fill="green" stroke="none" /><circle cx="7974" cy="4850" r="5" fill="green" stroke="none" /><circle cx="7164" cy="5782" r="5" fill="green" stroke="none" /><circle cx="5573" cy="3641" r="5" fill="green" stroke="none" /><circle cx="6232" cy="1031" r="10" fill="red" stroke="none" /><circle cx="6252" cy="1031" r="10" fill="red" stroke="none" /><circle cx="6272" cy="1031" r="10" fill="red" stroke="none" /><circle cx="6292" cy="1031" r="10" fill="red" stroke="none" /><circle cx="6312" cy="1031" r="10" fill="red" stroke="none" /><circle cx="6332" cy="1031" r="10" fill="red" stroke="none" /><circle cx="6352" cy="1031" r="10" fill="red" stroke="none" /><circle cx="6372" cy="1031" r="10" fill="red" stroke="none" /><circle cx="6392" cy="1031" r="10" fill="red" stroke="none" /><circle cx="6412" cy="1031" r="10" fill="red" stroke="none" /><circle cx="6432" cy="1031" r="10" fill="red" stroke="none" /><circle cx="6452" cy="1031" r="10" fill="red" stroke="none" /><circle cx="6472" cy="1031" r="10" fill="red" stroke="none" /><circle cx="6232" cy="412" r="10" fill="red" stroke="none" /><circle cx="6252" cy="412" r="10" fill="red" stroke="none" /><circle cx="6272" cy="412" r="10" fill="red" stroke="none" /><circle cx="6292" cy="412" r="10" fill="red" stroke="none" /><circle cx="6312" cy="412" r="10" fill="red" stroke="none" /><circle cx="6332" cy="412" r="10" fill="red" stroke="none" /><circle cx="6352" cy="412" r="10" fill="red" stroke="none" /><circle cx="6372" cy="412" r="10" fill="red" stroke="none" /><circle cx="6392" cy="412" r="10" fill="red" stroke="none" /><circle cx="6412" cy="412" r="10" fill="red" stroke="none" /><circle cx="6432" cy="412" r="10" fill="red" stroke="none" /><circle cx="6452" cy="412" r="10" fill="red" stroke="none" /><circle cx="6472" cy="412" r="10" fill="red" stroke="none" /><circle cx="6492" cy="412" r="10" fill="red" stroke="none" /></svg>