<svg viewBox="0 0 4022 8752" xmlns="http://www.w3.org/2000/svg"><rect x="0" y="0" width="4022" height="8752" fill="lightyellow" stroke="none "/><rect x="3184" y="5295" width="663" height="2051" fill="white" stroke="black "/><circle cx="2030" cy="5620" r="5" fill="green" stroke="none" /><circle cx="1807" cy="51" r="5" fill="green" stroke="none" /><circle cx="3839" cy="5203" r="5" fill="green" stroke="none" /><circle cx="3554" cy="8341" r="5" fill="green" stroke="none" /><circle cx="3390" cy="1560" r="5" fill="green" stroke="none" /><circle cx="1521" cy="250" r="5" fill="green" stroke="none" /><circle cx="3011" cy="1894" r="5" fill="green" stroke="none" /><circle cx="2753" cy="4669" r="5" fill="green" stroke="none" /><circle cx="130" cy="5149" r="5" fill="green" stroke="none" /><circle cx="672" cy="665" r="5" fill="green" stroke="none" /><circle cx="3717" cy="371" r="5" fill="green" stroke="none" /><circle cx="2740" cy="1137" r="5" fill="green" stroke="none" /><circle cx="2588" cy="3377" r="5" fill="green" stroke="none" /><circle cx="1089" cy="4157" r="5" fill="green" stroke="none" /><circle cx="1936" cy="6996" r="5" fill="green" stroke="none" /><circle cx="231" cy="40" r="5" fill="green" stroke="none" /><circle cx="2352" cy="7876" r="5" fill="green" stroke="none" /><circle cx="3219" cy="8223" r="5" fill="green" stroke="none" /><circle cx="16" cy="6863" r="5" fill="green" stroke="none" /><circle cx="1801" cy="4755" r="5" fill="green" stroke="none" /><circle cx="3461" cy="5030" r="5" fill="green" stroke="none" /><circle cx="2061" cy="4367" r="5" fill="green" stroke="none" /><circle cx="935" cy="2550" r="5" fill="green" stroke="none" /><circle cx="3749" cy="4083" r="5" fill="green" stroke="none" /><circle cx="2878" cy="2468" r="5" fill="green" stroke="none" /><circle cx="1877" cy="7543" r="5" fill="green" stroke="none" /><circle cx="2536" cy="8601" r="5" fill="green" stroke="none" /><circle cx="3438" cy="1685" r="5" fill="green" stroke="none" /><circle cx="1184" cy="1821" r="5" fill="green" stroke="none" /><circle cx="1371" cy="4588" r="5" fill="green" stroke="none" /><circle cx="2789" cy="2389" r="5" fill="green" stroke="none" /><circle cx="2394" cy="2249" r="5" fill="green" stroke="none" /><circle cx="3950" cy="5743" r="5" fill="green" stroke="none" /><circle cx="827" cy="2741" r="5" fill="green" stroke="none" /><circle cx="1804" cy="3419" r="5" fill="green" stroke="none" /><circle cx="722" cy="3840" r="5" fill="green" stroke="none" /><circle cx="2642" cy="3327" r="5" fill="green" stroke="none" /><circle cx="2348" cy="574" r="5" fill="green" stroke="none" /><circle cx="2851" cy="1966" r="5" fill="green" stroke="none" /><circle cx="142" cy="6071" r="5" fill="green" stroke="none" /><circle cx="2024" cy="2901" r="5" fill="green" stroke="none" /><circle cx="132" cy="6256" r="5" fill="green" stroke="none" /><circle cx="3545" cy="8243" r="5" fill="green" stroke="none" /><circle cx="2424" cy="2929" r="5" fill="green" stroke="none" /><circle cx="219" cy="599" r="5" fill="green" stroke="none" /><circle cx="3766" cy="439" r="5" fill="green" stroke="none" /><circle cx="38" cy="759" r="5" fill="green" stroke="none" /><circle cx="178" cy="855" r="5" fill="green" stroke="none" /><circle cx="1765" cy="5535" r="5" fill="green" stroke="none" /><circle cx="3977" cy="7248" r="5" fill="green" stroke="none" /><circle cx="927" cy="8553" r="5" fill="green" stroke="none" /><circle cx="1315" cy="5989" r="5" fill="green" stroke="none" /><circle cx="1020" cy="6701" r="5" fill="green" stroke="none" /><circle cx="400" cy="2441" r="5" fill="green" stroke="none" /><circle cx="2175" cy="3203" r="5" fill="green" stroke="none" /><circle cx="3845" cy="1414" r="5" fill="green" stroke="none" /><circle cx="3199" cy="2408" r="5" fill="green" stroke="none" /><circle cx="3902" cy="5380" r="5" fill="green" stroke="none" /><circle cx="803" cy="5828" r="5" fill="green" stroke="none" /><circle cx="430" cy="3564" r="5" fill="green" stroke="none" /><circle cx="2984" cy="8329" r="5" fill="green" stroke="none" /><circle cx="896" cy="4066" r="5" fill="green" stroke="none" /><circle cx="770" cy="6793" r="5" fill="green" stroke="none" /><circle cx="918" cy="2083" r="5" fill="green" stroke="none" /><circle cx="274" cy="6614" r="5" fill="green" stroke="none" /><circle cx="2111" cy="6481" r="5" fill="green" stroke="none" /><circle cx="2499" cy="6360" r="5" fill="green" stroke="none" /><circle cx="384" cy="3347" r="5" fill="green" stroke="none" /><circle cx="2065" cy="3787" r="5" fill="green" stroke="none" /><circle cx="3713" cy="7546" r="5" fill="green" stroke="none" /><circle cx="3446" cy="3430" r="5" fill="green" stroke="none" /><circle cx="3223" cy="8395" r="5" fill="green" stroke="none" /><circle cx="1761" cy="8683" r="5" fill="green" stroke="none" /><circle cx="760" cy="3985" r="5" fill="green" stroke="none" /><circle cx="154" cy="3031" r="5" fill="green" stroke="none" /><circle cx="3319" cy="1399" r="5" fill="green" stroke="none" /><circle cx="1720" cy="3446" r="5" fill="green" stroke="none" /><circle cx="2079" cy="3519" r="5" fill="green" stroke="none" /><circle cx="2404" cy="390" r="5" fill="green" stroke="none" /><circle cx="674" cy="945" r="5" fill="green" stroke="none" /><circle cx="3680" cy="5149" r="5" fill="green" stroke="none" /><circle cx="50" cy="6065" r="5" fill="green" stroke="none" /><circle cx="3145" cy="7719" r="5" fill="green" stroke="none" /><circle cx="403" cy="7097" r="5" fill="green" stroke="none" /><circle cx="2625" cy="7381" r="5" fill="green" stroke="none" /><circle cx="350" cy="3028" r="5" fill="green" stroke="none" /><circle cx="345" cy="1850" r="5" fill="green" stroke="none" /><circle cx="2566" cy="8565" r="5" fill="green" stroke="none" /><circle cx="1871" cy="3237" r="5" fill="green" stroke="none" /><circle cx="3469" cy="8508" r="5" fill="green" stroke="none" /><circle cx="4010" cy="8134" r="5" fill="green" stroke="none" /><circle cx="254" cy="6973" r="5" fill="green" stroke="none" /><circle cx="3190" cy="4478" r="5" fill="green" stroke="none" /><circle cx="3035" cy="6765" r="5" fill="green" stroke="none" /><circle cx="1067" cy="3881" r="5" fill="green" stroke="none" /><circle cx="1622" cy="1280" r="5" fill="green" stroke="none" /><circle cx="1563" cy="4963" r="5" fill="green" stroke="none" /><circle cx="689" cy="8697" r="5" fill="green" stroke="none" /><circle cx="1606" cy="1004" r="5" fill="green" stroke="none" /><circle cx="760" cy="3947" r="5" fill="green" stroke="none" /><circle cx="2041" cy="1877" r="5" fill="green" stroke="none" /><circle cx="2280" cy="411" r="5" fill="green" stroke="none" /><circle cx="1445" cy="5792" r="5" fill="green" stroke="none" /><circle cx="1253" cy="3261" r="5" fill="green" stroke="none" /><circle cx="3619" cy="2439" r="5" fill="green" stroke="none" /><circle cx="710" cy="4785" r="5" fill="green" stroke="none" /><circle cx="1176" cy="3178" r="5" fill="green" stroke="none" /><circle cx="2851" cy="8388" r="5" fill="green" stroke="none" /><circle cx="1682" cy="4301" r="5" fill="green" stroke="none" /><circle cx="3604" cy="2533" r="5" fill="green" stroke="none" /><circle cx="3266" cy="2891" r="5" fill="green" stroke="none" /><circle cx="1439" cy="521" r="5" fill="green" stroke="none" /><circle cx="1184" cy="586" r="5" fill="green" stroke="none" /><circle cx="2154" cy="2689" r="5" fill="green" stroke="none" /><circle cx="1290" cy="2683" r="5" fill="green" stroke="none" /><circle cx="1903" cy="8405" r="5" fill="green" stroke="none" /><circle cx="2950" cy="6427" r="5" fill="green" stroke="none" /><circle cx="183" cy="2260" r="5" fill="green" stroke="none" /><circle cx="160" cy="6328" r="5" fill="green" stroke="none" /><circle cx="2694" cy="8317" r="5" fill="green" stroke="none" /><circle cx="672" cy="8199" r="5" fill="green" stroke="none" /><circle cx="3426" cy="5265" r="5" fill="green" stroke="none" /><circle cx="3415" cy="4115" r="5" fill="green" stroke="none" /><circle cx="2676" cy="2588" r="5" fill="green" stroke="none" /><circle cx="1162" cy="103" r="5" fill="green" stroke="none" /><circle cx="3415" cy="3832" r="5" fill="green" stroke="none" /><circle cx="627" cy="2997" r="5" fill="green" stroke="none" /><circle cx="2354" cy="2561" r="5" fill="green" stroke="none" /><circle cx="3712" cy="8075" r="5" fill="green" stroke="none" /><circle cx="290" cy="2639" r="5" fill="green" stroke="none" /><circle cx="2567" cy="4867" r="5" fill="green" stroke="none" /><circle cx="3087" cy="8028" r="5" fill="green" stroke="none" /><circle cx="1889" cy="4545" r="5" fill="green" stroke="none" /><circle cx="1296" cy="3817" r="5" fill="green" stroke="none" /><circle cx="3322" cy="5179" r="5" fill="green" stroke="none" /><circle cx="1462" cy="3494" r="5" fill="green" stroke="none" /><circle cx="539" cy="8673" r="5" fill="green" stroke="none" /><circle cx="3696" cy="2792" r="5" fill="green" stroke="none" /><circle cx="2954" cy="5440" r="5" fill="green" stroke="none" /><circle cx="3739" cy="2215" r="5" fill="green" stroke="none" /><circle cx="2367" cy="4780" r="5" fill="green" stroke="none" /><circle cx="3600" cy="7503" r="5" fill="green" stroke="none" /><circle cx="2486" cy="3995" r="5" fill="green" stroke="none" /><circle cx="528" cy="7603" r="5" fill="green" stroke="none" /><circle cx="998" cy="396" r="5" fill="green" stroke="none" /><circle cx="1892" cy="6882" r="5" fill="green" stroke="none" /><circle cx="3968" cy="868" r="5" fill="green" stroke="none" /><circle cx="198" cy="8142" r="5" fill="green" stroke="none" /><circle cx="875" cy="989" r="5" fill="green" stroke="none" /><circle cx="3976" cy="8177" r="5" fill="green" stroke="none" /><circle cx="2900" cy="4851" r="5" fill="green" stroke="none" /><circle cx="1116" cy="878" r="5" fill="green" stroke="none" /><circle cx="2688" cy="3972" r="5" fill="green" stroke="none" /><circle cx="1946" cy="7327" r="5" fill="green" stroke="none" /><circle cx="3944" cy="638" r="5" fill="green" stroke="none" /><circle cx="2741" cy="6456" r="5" fill="green" stroke="none" /><circle cx="3240" cy="4646" r="5" fill="green" stroke="none" /><circle cx="1945" cy="3108" r="5" fill="green" stroke="none" /><circle cx="658" cy="615" r="5" fill="green" stroke="none" /><circle cx="667" cy="4192" r="5" fill="green" stroke="none" /><circle cx="3159" cy="221" r="5" fill="green" stroke="none" /><circle cx="389" cy="8477" r="5" fill="green" stroke="none" /><circle cx="3838" cy="8143" r="5" fill="green" stroke="none" /><circle cx="1393" cy="6190" r="5" fill="green" stroke="none" /><circle cx="2219" cy="3393" r="5" fill="green" stroke="none" /><circle cx="2845" cy="6371" r="5" fill="green" stroke="none" /><circle cx="3273" cy="115" r="5" fill="green" stroke="none" /><circle cx="146" cy="7536" r="5" fill="green" stroke="none" /><circle cx="1526" cy="3318" r="5" fill="green" stroke="none" /><circle cx="1118" cy="8702" r="5" fill="green" stroke="none" /><circle cx="1306" cy="3903" r="5" fill="green" stroke="none" /><circle cx="593" cy="6088" r="5" fill="green" stroke="none" /><circle cx="1700" cy="2089" r="5" fill="green" stroke="none" /><circle cx="3078" cy="1693" r="5" fill="green" stroke="none" /><circle cx="672" cy="6899" r="5" fill="green" stroke="none" /><circle cx="3688" cy="1559" r="5" fill="green" stroke="none" /><circle cx="2684" cy="6738" r="5" fill="green" stroke="none" /><circle cx="3416" cy="2946" r="5" fill="green" stroke="none" /><circle cx="704" cy="2325" r="5" fill="green" stroke="none" /><circle cx="3140" cy="1051" r="5" fill="green" stroke="none" /><circle cx="3806" cy="3964" r="5" fill="green" stroke="none" /><circle cx="516" cy="2158" r="5" fill="green" stroke="none" /><circle cx="784" cy="3775" r="5" fill="green" stroke="none" /><circle cx="44" cy="8636" r="5" fill="green" stroke="none" /><circle cx="518" cy="4066" r="5" fill="green" stroke="none" /><circle cx="4004" cy="7981" r="5" fill="green" stroke="none" /><circle cx="1321" cy="760" r="5" fill="green" stroke="none" /><circle cx="1726" cy="709" r="5" fill="green" stroke="none" /><circle cx="1119" cy="3630" r="5" fill="green" stroke="none" /><circle cx="3097" cy="4220" r="5" fill="green" stroke="none" /><circle cx="1729" cy="3984" r="5" fill="green" stroke="none" /><circle cx="1121" cy="1347" r="5" fill="green" stroke="none" /><circle cx="3477" cy="4513" r="5" fill="green" stroke="none" /><circle cx="1743" cy="1066" r="5" fill="green" stroke="none" /><circle cx="2294" cy="5303" r="5" fill="green" stroke="none" /><circle cx="617" cy="68" r="5" fill="green" stroke="none" /><circle cx="2570" cy="3289" r="5" fill="green" stroke="none" /><circle cx="3374" cy="1715" r="5" fill="green" stroke="none" /><circle cx="1113" cy="5487" r="5" fill="green" stroke="none" /><circle cx="1959" cy="688" r="5" fill="green" stroke="none" /><circle cx="2671" cy="7469" r="5" fill="green" stroke="none" /><circle cx="1602" cy="5475" r="5" fill="green" stroke="none" /><circle cx="3709" cy="4706" r="5" fill="green" stroke="none" /><circle cx="3903" cy="432" r="5" fill="green" stroke="none" /><circle cx="4007" cy="6131" r="5" fill="green" stroke="none" /><circle cx="2683" cy="729" r="5" fill="green" stroke="none" /><circle cx="1178" cy="1791" r="5" fill="green" stroke="none" /><circle cx="1524" cy="8266" r="5" fill="green" stroke="none" /><circle cx="537" cy="5614" r="5" fill="green" stroke="none" /><circle cx="2844" cy="7060" r="5" fill="green" stroke="none" /><circle cx="924" cy="2227" r="5" fill="green" stroke="none" /><circle cx="2482" cy="2528" r="5" fill="green" stroke="none" /><circle cx="489" cy="3024" r="5" fill="green" stroke="none" /><circle cx="274" cy="3144" r="5" fill="green" stroke="none" /><circle cx="46" cy="5974" r="5" fill="green" stroke="none" /><circle cx="3167" cy="2580" r="5" fill="green" stroke="none" /><circle cx="129" cy="3034" r="5" fill="green" stroke="none" /><circle cx="3217" cy="778" r="5" fill="green" stroke="none" /><circle cx="1758" cy="6081" r="5" fill="green" stroke="none" /><circle cx="84" cy="6777" r="5" fill="green" stroke="none" /><circle cx="743" cy="5213" r="5" fill="green" stroke="none" /><circle cx="1912" cy="5680" r="5" fill="green" stroke="none" /><circle cx="2052" cy="8239" r="5" fill="green" stroke="none" /><circle cx="3035" cy="7900" r="5" fill="green" stroke="none" /><circle cx="1504" cy="7477" r="5" fill="green" stroke="none" /><circle cx="956" cy="5913" r="5" fill="green" stroke="none" /><circle cx="1480" cy="4515" r="5" fill="green" stroke="none" /><circle cx="385" cy="7594" r="5" fill="green" stroke="none" /><circle cx="3339" cy="1508" r="5" fill="green" stroke="none" /><circle cx="1128" cy="7004" r="5" fill="green" stroke="none" /><circle cx="3183" cy="4502" r="5" fill="green" stroke="none" /><circle cx="2527" cy="1245" r="5" fill="green" stroke="none" /><circle cx="3292" cy="4018" r="5" fill="green" stroke="none" /><circle cx="762" cy="7220" r="5" fill="green" stroke="none" /><circle cx="1457" cy="250" r="5" fill="green" stroke="none" /><circle cx="1927" cy="6925" r="5" fill="green" stroke="none" /><circle cx="11" cy="3838" r="5" fill="green" stroke="none" /><circle cx="2940" cy="7993" r="5" fill="green" stroke="none" /><circle cx="3885" cy="7462" r="5" fill="green" stroke="none" /><circle cx="3218" cy="7681" r="5" fill="green" stroke="none" /><circle cx="1947" cy="2097" r="5" fill="green" stroke="none" /><circle cx="2963" cy="5499" r="5" fill="green" stroke="none" /><circle cx="2405" cy="356" r="5" fill="green" stroke="none" /><circle cx="1988" cy="7111" r="5" fill="green" stroke="none" /><circle cx="1297" cy="456" r="5" fill="green" stroke="none" /><circle cx="3280" cy="8181" r="5" fill="green" stroke="none" /><circle cx="159" cy="4239" r="5" fill="green" stroke="none" /><circle cx="1106" cy="7346" r="5" fill="green" stroke="none" /><circle cx="1540" cy="8317" r="5" fill="green" stroke="none" /><circle cx="1589" cy="2663" r="5" fill="green" stroke="none" /><circle cx="626" cy="910" r="5" fill="green" stroke="none" /><circle cx="2295" cy="6156" r="5" fill="green" stroke="none" /><circle cx="1277" cy="2943" r="5" fill="green" stroke="none" /><circle cx="995" cy="379" r="5" fill="green" stroke="none" /><circle cx="933" cy="2881" r="5" fill="green" stroke="none" /><circle cx="3172" cy="2765" r="5" fill="green" stroke="none" /><circle cx="2617" cy="3518" r="5" fill="green" stroke="none" /><circle cx="2114" cy="4728" r="5" fill="green" stroke="none" /><circle cx="2462" cy="5421" r="5" fill="green" stroke="none" /><circle cx="2055" cy="7362" r="5" fill="green" stroke="none" /><circle cx="50" cy="8127" r="5" fill="green" stroke="none" /><circle cx="2019" cy="4269" r="5" fill="green" stroke="none" /><circle cx="1403" cy="5787" r="5" fill="green" stroke="none" /><circle cx="3057" cy="4890" r="5" fill="green" stroke="none" /><circle cx="3205" cy="4446" r="5" fill="green" stroke="none" /><circle cx="1573" cy="7231" r="5" fill="green" stroke="none" /><circle cx="1561" cy="5280" r="5" fill="green" stroke="none" /><circle cx="882" cy="3463" r="5" fill="green" stroke="none" /><circle cx="144" cy="3347" r="5" fill="green" stroke="none" /><circle cx="3725" cy="7765" r="5" fill="green" stroke="none" /><circle cx="3817" cy="1886" r="5" fill="green" stroke="none" /><circle cx="678" cy="8024" r="5" fill="green" stroke="none" /><circle cx="1289" cy="2843" r="5" fill="green" stroke="none" /><circle cx="3915" cy="3030" r="5" fill="green" stroke="none" /><circle cx="3857" cy="2289" r="5" fill="green" stroke="none" /><circle cx="3312" cy="5115" r="5" fill="green" stroke="none" /><circle cx="1085" cy="4908" r="5" fill="green" stroke="none" /><circle cx="691" cy="8663" r="5" fill="green" stroke="none" /><circle cx="1864" cy="8147" r="5" fill="green" stroke="none" /><circle cx="1639" cy="2216" r="5" fill="green" stroke="none" /><circle cx="2011" cy="3511" r="5" fill="green" stroke="none" /><circle cx="841" cy="848" r="5" fill="green" stroke="none" /><circle cx="1445" cy="8448" r="5" fill="green" stroke="none" /><circle cx="521" cy="5555" r="5" fill="green" stroke="none" /><circle cx="885" cy="3285" r="5" fill="green" stroke="none" /><circle cx="2249" cy="3887" r="5" fill="green" stroke="none" /><circle cx="1934" cy="232" r="5" fill="green" stroke="none" /><circle cx="2327" cy="4399" r="5" fill="green" stroke="none" /><circle cx="717" cy="3686" r="5" fill="green" stroke="none" /><circle cx="3083" cy="1103" r="5" fill="green" stroke="none" /><circle cx="3328" cy="7976" r="5" fill="green" stroke="none" /><circle cx="3213" cy="3735" r="5" fill="green" stroke="none" /><circle cx="3129" cy="4002" r="5" fill="green" stroke="none" /><circle cx="2042" cy="2689" r="5" fill="green" stroke="none" /><circle cx="234" cy="626" r="5" fill="green" stroke="none" /><circle cx="2083" cy="3605" r="5" fill="green" stroke="none" /><circle cx="595" cy="3012" r="5" fill="green" stroke="none" /><circle cx="2135" cy="7175" r="5" fill="green" stroke="none" /><circle cx="2078" cy="6065" r="5" fill="green" stroke="none" /><circle cx="2829" cy="5161" r="5" fill="green" stroke="none" /><circle cx="1855" cy="1847" r="5" fill="green" stroke="none" /><circle cx="1272" cy="1697" r="5" fill="green" stroke="none" /><circle cx="926" cy="4187" r="5" fill="green" stroke="none" /><circle cx="2320" cy="3922" r="5" fill="green" stroke="none" /><circle cx="2579" cy="448" r="5" fill="green" stroke="none" /><circle cx="580" cy="5510" r="5" fill="green" stroke="none" /><circle cx="3066" cy="994" r="5" fill="green" stroke="none" /><circle cx="2500" cy="2652" r="5" fill="green" stroke="none" /><circle cx="1081" cy="743" r="5" fill="green" stroke="none" /><circle cx="3631" cy="3997" r="5" fill="green" stroke="none" /><circle cx="2417" cy="5983" r="5" fill="green" stroke="none" /><circle cx="3966" cy="5983" r="5" fill="green" stroke="none" /><circle cx="2495" cy="923" r="5" fill="green" stroke="none" /><circle cx="1652" cy="4811" r="5" fill="green" stroke="none" /><circle cx="1655" cy="255" r="5" fill="green" stroke="none" /><circle cx="3527" cy="3962" r="5" fill="green" stroke="none" /><circle cx="3710" cy="4404" r="5" fill="green" stroke="none" /><circle cx="3655" cy="3561" r="5" fill="green" stroke="none" /><circle cx="651" cy="6577" r="5" fill="green" stroke="none" /><circle cx="1915" cy="2576" r="5" fill="green" stroke="none" /><circle cx="1055" cy="6031" r="5" fill="green" stroke="none" /><circle cx="649" cy="67" r="5" fill="green" stroke="none" /><circle cx="388" cy="5540" r="5" fill="green" stroke="none" /><circle cx="1134" cy="4664" r="5" fill="green" stroke="none" /><circle cx="2906" cy="7530" r="5" fill="green" stroke="none" /><circle cx="843" cy="5433" r="5" fill="green" stroke="none" /><circle cx="3586" cy="1188" r="5" fill="green" stroke="none" /><circle cx="87" cy="7294" r="5" fill="green" stroke="none" /><circle cx="3158" cy="1272" r="5" fill="green" stroke="none" /><circle cx="3013" cy="8390" r="5" fill="green" stroke="none" /><circle cx="2731" cy="1354" r="5" fill="green" stroke="none" /><circle cx="1135" cy="5545" r="5" fill="green" stroke="none" /><circle cx="2726" cy="8691" r="5" fill="green" stroke="none" /><circle cx="3125" cy="2943" r="5" fill="green" stroke="none" /><circle cx="2232" cy="6032" r="5" fill="green" stroke="none" /><circle cx="873" cy="7255" r="5" fill="green" stroke="none" /><circle cx="69" cy="4203" r="5" fill="green" stroke="none" /><circle cx="3337" cy="8704" r="5" fill="green" stroke="none" /><circle cx="1209" cy="4076" r="5" fill="green" stroke="none" /><circle cx="2239" cy="6405" r="5" fill="green" stroke="none" /><circle cx="2638" cy="7534" r="5" fill="green" stroke="none" /><circle cx="1704" cy="4089" r="5" fill="green" stroke="none" /><circle cx="1981" cy="7536" r="5" fill="green" stroke="none" /><circle cx="2353" cy="4505" r="5" fill="green" stroke="none" /><circle cx="770" cy="8008" r="5" fill="green" stroke="none" /><circle cx="2184" cy="3238" r="5" fill="green" stroke="none" /><circle cx="1555" cy="4071" r="5" fill="green" stroke="none" /><circle cx="1348" cy="6343" r="5" fill="green" stroke="none" /><circle cx="598" cy="468" r="5" fill="green" stroke="none" /><circle cx="2341" cy="5113" r="5" fill="green" stroke="none" /><circle cx="1753" cy="7982" r="5" fill="green" stroke="none" /><circle cx="2782" cy="1563" r="5" fill="green" stroke="none" /><circle cx="3131" cy="6845" r="5" fill="green" stroke="none" /><circle cx="930" cy="6714" r="5" fill="green" stroke="none" /><circle cx="3396" cy="4663" r="5" fill="green" stroke="none" /><circle cx="3380" cy="1470" r="5" fill="green" stroke="none" /><circle cx="3910" cy="5843" r="5" fill="green" stroke="none" /><circle cx="558" cy="5823" r="5" fill="green" stroke="none" /><circle cx="181" cy="7679" r="5" fill="green" stroke="none" /><circle cx="2250" cy="5201" r="5" fill="green" stroke="none" /><circle cx="1692" cy="5250" r="5" fill="green" stroke="none" /><circle cx="1229" cy="3075" r="5" fill="green" stroke="none" /><circle cx="261" cy="8740" r="5" fill="green" stroke="none" /><circle cx="1059" cy="8143" r="5" fill="green" stroke="none" /><circle cx="2942" cy="4777" r="5" fill="green" stroke="none" /><circle cx="706" cy="7910" r="5" fill="green" stroke="none" /><circle cx="3198" cy="2669" r="5" fill="green" stroke="none" /><circle cx="3327" cy="8255" r="5" fill="green" stroke="none" /><circle cx="1401" cy="4417" r="5" fill="green" stroke="none" /><circle cx="1561" cy="1068" r="5" fill="green" stroke="none" /><circle cx="259" cy="6255" r="5" fill="green" stroke="none" /><circle cx="135" cy="3190" r="5" fill="green" stroke="none" /><circle cx="1399" cy="5137" r="5" fill="green" stroke="none" /><circle cx="1145" cy="6874" r="5" fill="green" stroke="none" /><circle cx="1592" cy="7933" r="5" fill="green" stroke="none" /><circle cx="1855" cy="7211" r="5" fill="green" stroke="none" /><circle cx="3855" cy="1453" r="5" fill="green" stroke="none" /><circle cx="3714" cy="8152" r="5" fill="green" stroke="none" /><circle cx="4007" cy="2457" r="5" fill="green" stroke="none" /><circle cx="1520" cy="5361" r="5" fill="green" stroke="none" /><circle cx="85" cy="5047" r="5" fill="green" stroke="none" /><circle cx="758" cy="2555" r="5" fill="green" stroke="none" /><circle cx="1226" cy="2704" r="5" fill="green" stroke="none" /><circle cx="2200" cy="7883" r="5" fill="green" stroke="none" /><circle cx="3861" cy="3874" r="5" fill="green" stroke="none" /><circle cx="1768" cy="5023" r="5" fill="green" stroke="none" /><circle cx="2775" cy="3517" r="5" fill="green" stroke="none" /><circle cx="968" cy="768" r="5" fill="green" stroke="none" /><circle cx="2292" cy="6515" r="5" fill="green" stroke="none" /><circle cx="2968" cy="663" r="5" fill="green" stroke="none" /><circle cx="1332" cy="7602" r="5" fill="green" stroke="none" /><circle cx="601" cy="8118" r="5" fill="green" stroke="none" /><circle cx="549" cy="2708" r="5" fill="green" stroke="none" /><circle cx="1700" cy="8031" r="5" fill="green" stroke="none" /><circle cx="656" cy="2061" r="5" fill="green" stroke="none" /><circle cx="1704" cy="6312" r="5" fill="green" stroke="none" /><circle cx="1518" cy="1945" r="5" fill="green" stroke="none" /><circle cx="1485" cy="458" r="5" fill="green" stroke="none" /><circle cx="2754" cy="4832" r="5" fill="green" stroke="none" /><circle cx="1021" cy="2186" r="5" fill="green" stroke="none" /><circle cx="1106" cy="6754" r="5" fill="green" stroke="none" /><circle cx="2035" cy="2153" r="5" fill="green" stroke="none" /><circle cx="2464" cy="8458" r="5" fill="green" stroke="none" /><circle cx="3437" cy="2361" r="5" fill="green" stroke="none" /><circle cx="1495" cy="305" r="5" fill="green" stroke="none" /><circle cx="2361" cy="2294" r="5" fill="green" stroke="none" /><circle cx="2000" cy="6314" r="5" fill="green" stroke="none" /><circle cx="28" cy="627" r="5" fill="green" stroke="none" /><circle cx="414" cy="6249" r="5" fill="green" stroke="none" /><circle cx="2487" cy="2663" r="5" fill="green" stroke="none" /><circle cx="1731" cy="6914" r="5" fill="green" stroke="none" /><circle cx="1827" cy="3476" r="5" fill="green" stroke="none" /><circle cx="1722" cy="6820" r="5" fill="green" stroke="none" /><circle cx="1066" cy="5320" r="5" fill="green" stroke="none" /><circle cx="2827" cy="947" r="5" fill="green" stroke="none" /><circle cx="3759" cy="3066" r="5" fill="green" stroke="none" /><circle cx="1875" cy="1826" r="5" fill="green" stroke="none" /><circle cx="1783" cy="948" r="5" fill="green" stroke="none" /><circle cx="2988" cy="1434" r="5" fill="green" stroke="none" /><circle cx="629" cy="1234" r="5" fill="green" stroke="none" /><circle cx="2778" cy="8565" r="5" fill="green" stroke="none" /><circle cx="771" cy="7763" r="5" fill="green" stroke="none" /><circle cx="2628" cy="369" r="5" fill="green" stroke="none" /><circle cx="1160" cy="7619" r="5" fill="green" stroke="none" /><circle cx="1523" cy="3554" r="5" fill="green" stroke="none" /><circle cx="230" cy="3901" r="5" fill="green" stroke="none" /><circle cx="3031" cy="3149" r="5" fill="green" stroke="none" /><circle cx="2323" cy="270" r="5" fill="green" stroke="none" /><circle cx="1245" cy="8752" r="5" fill="green" stroke="none" /><circle cx="280" cy="2038" r="5" fill="green" stroke="none" /><circle cx="765" cy="2271" r="5" fill="green" stroke="none" /><circle cx="3164" cy="2844" r="5" fill="green" stroke="none" /><circle cx="1515" cy="8213" r="5" fill="green" stroke="none" /><circle cx="1954" cy="2385" r="5" fill="green" stroke="none" /><circle cx="69" cy="5904" r="5" fill="green" stroke="none" /><circle cx="1790" cy="7399" r="5" fill="green" stroke="none" /><circle cx="3985" cy="5726" r="5" fill="green" stroke="none" /><circle cx="4004" cy="3071" r="5" fill="green" stroke="none" /><circle cx="20" cy="2677" r="5" fill="green" stroke="none" /><circle cx="1317" cy="3280" r="5" fill="green" stroke="none" /><circle cx="1817" cy="615" r="5" fill="green" stroke="none" /><circle cx="1839" cy="7640" r="5" fill="green" stroke="none" /><circle cx="1952" cy="2362" r="5" fill="green" stroke="none" /><circle cx="761" cy="3992" r="5" fill="green" stroke="none" /><circle cx="448" cy="1377" r="5" fill="green" stroke="none" /><circle cx="2761" cy="5733" r="5" fill="green" stroke="none" /><circle cx="1315" cy="1076" r="5" fill="green" stroke="none" /><circle cx="2468" cy="2696" r="5" fill="green" stroke="none" /><circle cx="424" cy="8101" r="5" fill="green" stroke="none" /><circle cx="767" cy="5530" r="5" fill="green" stroke="none" /><circle cx="2063" cy="7856" r="5" fill="green" stroke="none" /><circle cx="1437" cy="7978" r="5" fill="green" stroke="none" /><circle cx="1937" cy="5114" r="5" fill="green" stroke="none" /><circle cx="1761" cy="3359" r="5" fill="green" stroke="none" /><circle cx="3075" cy="1509" r="5" fill="green" stroke="none" /><circle cx="3457" cy="1269" r="5" fill="green" stroke="none" /><circle cx="2560" cy="7496" r="5" fill="green" stroke="none" /><circle cx="3545" cy="2343" r="5" fill="green" stroke="none" /><circle cx="313" cy="6121" r="5" fill="green" stroke="none" /><circle cx="2666" cy="1749" r="5" fill="green" stroke="none" /><circle cx="2868" cy="4162" r="5" fill="green" stroke="none" /><circle cx="989" cy="5526" r="5" fill="green" stroke="none" /><circle cx="3167" cy="7124" r="5" fill="green" stroke="none" /><circle cx="417" cy="2390" r="5" fill="green" stroke="none" /><circle cx="1337" cy="6667" r="5" fill="green" stroke="none" /><circle cx="2964" cy="4269" r="5" fill="green" stroke="none" /><circle cx="697" cy="8173" r="5" fill="green" stroke="none" /><circle cx="1301" cy="5205" r="5" fill="green" stroke="none" /><circle cx="986" cy="8061" r="5" fill="green" stroke="none" /><circle cx="2882" cy="1083" r="5" fill="green" stroke="none" /><circle cx="2694" cy="3633" r="5" fill="green" stroke="none" /><circle cx="338" cy="7880" r="5" fill="green" stroke="none" /><circle cx="3742" cy="2332" r="5" fill="green" stroke="none" /><circle cx="1359" cy="6962" r="5" fill="green" stroke="none" /><circle cx="3929" cy="3313" r="5" fill="green" stroke="none" /><circle cx="834" cy="1218" r="5" fill="green" stroke="none" /><circle cx="3615" cy="1028" r="5" fill="green" stroke="none" /><circle cx="1716" cy="4981" r="5" fill="green" stroke="none" /><circle cx="757" cy="3454" r="5" fill="green" stroke="none" /><circle cx="1662" cy="5449" r="5" fill="green" stroke="none" /><circle cx="1296" cy="3367" r="5" fill="green" stroke="none" /><circle cx="2761" cy="2705" r="5" fill="green" stroke="none" /><circle cx="1247" cy="2951" r="5" fill="green" stroke="none" /><circle cx="2581" cy="701" r="5" fill="green" stroke="none" /><circle cx="1790" cy="1378" r="5" fill="green" stroke="none" /><circle cx="2163" cy="5290" r="5" fill="green" stroke="none" /><circle cx="3266" cy="3294" r="5" fill="green" stroke="none" /><circle cx="1808" cy="2442" r="5" fill="green" stroke="none" /><circle cx="4004" cy="4271" r="5" fill="green" stroke="none" /><circle cx="1559" cy="6054" r="5" fill="green" stroke="none" /><circle cx="2651" cy="8613" r="5" fill="green" stroke="none" /><circle cx="3392" cy="4688" r="5" fill="green" stroke="none" /><circle cx="781" cy="3868" r="5" fill="green" stroke="none" /><circle cx="3039" cy="673" r="5" fill="green" stroke="none" /><circle cx="672" cy="3825" r="5" fill="green" stroke="none" /><circle cx="2865" cy="6702" r="5" fill="green" stroke="none" /><circle cx="1988" cy="83" r="5" fill="green" stroke="none" /><circle cx="1244" cy="1384" r="5" fill="green" stroke="none" /><circle cx="2534" cy="8519" r="5" fill="green" stroke="none" /><circle cx="1918" cy="385" r="5" fill="green" stroke="none" /><circle cx="2452" cy="4270" r="5" fill="green" stroke="none" /><circle cx="1002" cy="8393" r="5" fill="green" stroke="none" /><circle cx="2433" cy="4634" r="5" fill="green" stroke="none" /><circle cx="489" cy="869" r="5" fill="green" stroke="none" /><circle cx="3945" cy="5598" r="5" fill="green" stroke="none" /><circle cx="1763" cy="7220" r="5" fill="green" stroke="none" /><circle cx="3743" cy="8216" r="5" fill="green" stroke="none" /><circle cx="1808" cy="1189" r="5" fill="green" stroke="none" /><circle cx="462" cy="5816" r="5" fill="green" stroke="none" /><circle cx="1117" cy="7830" r="5" fill="green" stroke="none" /><circle cx="2174" cy="5029" r="5" fill="green" stroke="none" /><circle cx="774" cy="6486" r="5" fill="green" stroke="none" /><circle cx="3757" cy="8564" r="5" fill="green" stroke="none" /><circle cx="1142" cy="2251" r="5" fill="green" stroke="none" /><circle cx="3001" cy="3017" r="5" fill="green" stroke="none" /><circle cx="1884" cy="4895" r="5" fill="green" stroke="none" /><circle cx="1493" cy="4320" r="5" fill="green" stroke="none" /><circle cx="1966" cy="6071" r="5" fill="green" stroke="none" /><circle cx="2823" cy="6473" r="5" fill="green" stroke="none" /><circle cx="11" cy="5101" r="5" fill="green" stroke="none" /><circle cx="966" cy="6942" r="5" fill="green" stroke="none" /><circle cx="2415" cy="6862" r="5" fill="green" stroke="none" /><circle cx="1789" cy="6289" r="5" fill="green" stroke="none" /><circle cx="1360" cy="3905" r="5" fill="green" stroke="none" /><circle cx="140" cy="4364" r="5" fill="green" stroke="none" /><circle cx="3201" cy="1176" r="5" fill="green" stroke="none" /><circle cx="1875" cy="1914" r="5" fill="green" stroke="none" /><circle cx="3474" cy="4623" r="5" fill="green" stroke="none" /><circle cx="2534" cy="4166" r="5" fill="green" stroke="none" /><circle cx="25" cy="6000" r="5" fill="green" stroke="none" /><circle cx="209" cy="6222" r="5" fill="green" stroke="none" /><circle cx="1452" cy="3674" r="5" fill="green" stroke="none" /><circle cx="2497" cy="6474" r="5" fill="green" stroke="none" /><circle cx="3155" cy="1930" r="5" fill="green" stroke="none" /><circle cx="752" cy="686" r="5" fill="green" stroke="none" /><circle cx="1139" cy="1621" r="5" fill="green" stroke="none" /><circle cx="1421" cy="8363" r="5" fill="green" stroke="none" /><circle cx="2429" cy="6535" r="5" fill="green" stroke="none" /><circle cx="2259" cy="2095" r="5" fill="green" stroke="none" /><circle cx="1427" cy="3960" r="5" fill="green" stroke="none" /><circle cx="1414" cy="1556" r="5" fill="green" stroke="none" /><circle cx="3459" cy="8010" r="5" fill="green" stroke="none" /><circle cx="1023" cy="5337" r="5" fill="green" stroke="none" /><circle cx="429" cy="6451" r="5" fill="green" stroke="none" /><circle cx="2971" cy="3015" r="5" fill="green" stroke="none" /><circle cx="2444" cy="1198" r="5" fill="green" stroke="none" /><circle cx="2086" cy="2463" r="5" fill="green" stroke="none" /><circle cx="3733" cy="8112" r="5" fill="green" stroke="none" /><circle cx="1961" cy="390" r="5" fill="green" stroke="none" /><circle cx="3214" cy="4801" r="5" fill="green" stroke="none" /><circle cx="2527" cy="3948" r="5" fill="green" stroke="none" /><circle cx="388" cy="7341" r="5" fill="green" stroke="none" /><circle cx="3422" cy="4850" r="5" fill="green" stroke="none" /><circle cx="1832" cy="1029" r="5" fill="green" stroke="none" /><circle cx="1566" cy="5817" r="5" fill="green" stroke="none" /><circle cx="594" cy="2535" r="5" fill="green" stroke="none" /><circle cx="3918" cy="2677" r="5" fill="green" stroke="none" /><circle cx="4007" cy="7949" r="5" fill="green" stroke="none" /><circle cx="652" cy="7550" r="5" fill="green" stroke="none" /><circle cx="230" cy="1500" r="5" fill="green" stroke="none" /><circle cx="577" cy="3649" r="5" fill="green" stroke="none" /><circle cx="287" cy="1754" r="5" fill="green" stroke="none" /><circle cx="103" cy="4414" r="5" fill="green" stroke="none" /><circle cx="3591" cy="1541" r="5" fill="green" stroke="none" /><circle cx="3537" cy="1710" r="5" fill="green" stroke="none" /><circle cx="126" cy="7580" r="5" fill="green" stroke="none" /><circle cx="456" cy="5592" r="5" fill="green" stroke="none" /><circle cx="1974" cy="2876" r="5" fill="green" stroke="none" /><circle cx="38" cy="7395" r="5" fill="green" stroke="none" /><circle cx="3858" cy="6862" r="5" fill="green" stroke="none" /><circle cx="3185" cy="3040" r="5" fill="green" stroke="none" /><circle cx="837" cy="3050" r="5" fill="green" stroke="none" /><circle cx="292" cy="4180" r="5" fill="green" stroke="none" /><circle cx="1517" cy="4222" r="5" fill="green" stroke="none" /><circle cx="2792" cy="8334" r="5" fill="green" stroke="none" /><circle cx="2844" cy="2576" r="5" fill="green" stroke="none" /><circle cx="1123" cy="7150" r="5" fill="green" stroke="none" /><circle cx="1363" cy="4005" r="5" fill="green" stroke="none" /><circle cx="3061" cy="1714" r="5" fill="green" stroke="none" /><circle cx="1152" cy="7927" r="5" fill="green" stroke="none" /><circle cx="3684" cy="1309" r="5" fill="green" stroke="none" /><circle cx="938" cy="7683" r="5" fill="green" stroke="none" /><circle cx="35" cy="4085" r="5" fill="green" stroke="none" /><circle cx="817" cy="5244" r="5" fill="green" stroke="none" /><circle cx="2343" cy="1981" r="5" fill="green" stroke="none" /><circle cx="3807" cy="3770" r="5" fill="green" stroke="none" /><circle cx="757" cy="7289" r="5" fill="green" stroke="none" /><circle cx="192" cy="2201" r="5" fill="green" stroke="none" /><circle cx="2968" cy="7402" r="5" fill="green" stroke="none" /><circle cx="3930" cy="363" r="5" fill="green" stroke="none" /><circle cx="2056" cy="451" r="5" fill="green" stroke="none" /><circle cx="828" cy="5612" r="5" fill="green" stroke="none" /><circle cx="822" cy="684" r="5" fill="green" stroke="none" /><circle cx="1217" cy="941" r="5" fill="green" stroke="none" /><circle cx="3299" cy="8451" r="5" fill="green" stroke="none" /><circle cx="3572" cy="1620" r="5" fill="green" stroke="none" /><circle cx="3550" cy="1704" r="5" fill="green" stroke="none" /><circle cx="2921" cy="8212" r="5" fill="green" stroke="none" /><circle cx="213" cy="2058" r="5" fill="green" stroke="none" /><circle cx="2044" cy="7041" r="5" fill="green" stroke="none" /><circle cx="1851" cy="4391" r="5" fill="green" stroke="none" /><circle cx="971" cy="5421" r="5" fill="green" stroke="none" /><circle cx="3141" cy="2272" r="5" fill="green" stroke="none" /><circle cx="1393" cy="5937" r="5" fill="green" stroke="none" /><circle cx="3703" cy="7997" r="5" fill="green" stroke="none" /><circle cx="1816" cy="7484" r="5" fill="green" stroke="none" /><circle cx="3169" cy="3468" r="5" fill="green" stroke="none" /><circle cx="4003" cy="4586" r="5" fill="green" stroke="none" /><circle cx="846" cy="6738" r="5" fill="green" stroke="none" /><circle cx="3411" cy="23" r="5" fill="green" stroke="none" /><circle cx="750" cy="5911" r="5" fill="green" stroke="none" /><circle cx="2030" cy="1153" r="5" fill="green" stroke="none" /><circle cx="985" cy="7077" r="5" fill="green" stroke="none" /><circle cx="1584" cy="4185" r="5" fill="green" stroke="none" /><circle cx="615" cy="2349" r="5" fill="green" stroke="none" /><circle cx="1344" cy="4650" r="5" fill="green" stroke="none" /><circle cx="1114" cy="1260" r="5" fill="green" stroke="none" /><circle cx="1029" cy="5046" r="5" fill="green" stroke="none" /><circle cx="1294" cy="5678" r="5" fill="green" stroke="none" /><circle cx="997" cy="7068" r="5" fill="green" stroke="none" /><circle cx="1303" cy="4975" r="5" fill="green" stroke="none" /><circle cx="2951" cy="6701" r="5" fill="green" stroke="none" /><circle cx="1139" cy="4449" r="5" fill="green" stroke="none" /><circle cx="2810" cy="3930" r="5" fill="green" stroke="none" /><circle cx="810" cy="5434" r="5" fill="green" stroke="none" /><circle cx="661" cy="126" r="5" fill="green" stroke="none" /><circle cx="390" cy="2535" r="5" fill="green" stroke="none" /><circle cx="307" cy="5369" r="5" fill="green" stroke="none" /><circle cx="1440" cy="6793" r="5" fill="green" stroke="none" /><circle cx="704" cy="5931" r="5" fill="green" stroke="none" /><circle cx="3898" cy="4226" r="5" fill="green" stroke="none" /><circle cx="1933" cy="688" r="5" fill="green" stroke="none" /><circle cx="1359" cy="5727" r="5" fill="green" stroke="none" /><circle cx="324" cy="1246" r="5" fill="green" stroke="none" /><circle cx="3086" cy="983" r="5" fill="green" stroke="none" /><circle cx="3476" cy="1574" r="5" fill="green" stroke="none" /><circle cx="1802" cy="1513" r="5" fill="green" stroke="none" /><circle cx="995" cy="815" r="5" fill="green" stroke="none" /><circle cx="1947" cy="1651" r="5" fill="green" stroke="none" /><circle cx="433" cy="6826" r="5" fill="green" stroke="none" /><circle cx="330" cy="7091" r="5" fill="green" stroke="none" /><circle cx="3378" cy="1342" r="5" fill="green" stroke="none" /><circle cx="613" cy="6454" r="5" fill="green" stroke="none" /><circle cx="1178" cy="4509" r="5" fill="green" stroke="none" /><circle cx="1705" cy="4629" r="5" fill="green" stroke="none" /><circle cx="316" cy="756" r="5" fill="green" stroke="none" /><circle cx="2630" cy="1831" r="5" fill="green" stroke="none" /><circle cx="1934" cy="7031" r="5" fill="green" stroke="none" /><circle cx="684" cy="5027" r="5" fill="green" stroke="none" /><circle cx="1194" cy="3180" r="5" fill="green" stroke="none" /><circle cx="3162" cy="7155" r="5" fill="green" stroke="none" /><circle cx="3073" cy="1469" r="5" fill="green" stroke="none" /><circle cx="596" cy="2639" r="5" fill="green" stroke="none" /><circle cx="1074" cy="7838" r="5" fill="green" stroke="none" /><circle cx="3981" cy="5242" r="5" fill="green" stroke="none" /><circle cx="2517" cy="1692" r="5" fill="green" stroke="none" /><circle cx="2763" cy="5429" r="5" fill="green" stroke="none" /><circle cx="3368" cy="3764" r="5" fill="green" stroke="none" /><circle cx="172" cy="3903" r="5" fill="green" stroke="none" /><circle cx="748" cy="6106" r="5" fill="green" stroke="none" /><circle cx="2987" cy="8563" r="5" fill="green" stroke="none" /><circle cx="1695" cy="708" r="5" fill="green" stroke="none" /><circle cx="3162" cy="4149" r="5" fill="green" stroke="none" /><circle cx="2205" cy="2168" r="5" fill="green" stroke="none" /><circle cx="338" cy="968" r="5" fill="green" stroke="none" /><circle cx="1270" cy="2513" r="5" fill="green" stroke="none" /><circle cx="2921" cy="3791" r="5" fill="green" stroke="none" /><circle cx="2787" cy="1508" r="5" fill="green" stroke="none" /><circle cx="1626" cy="5243" r="5" fill="green" stroke="none" /><circle cx="2925" cy="4056" r="5" fill="green" stroke="none" /><circle cx="2687" cy="2650" r="5" fill="green" stroke="none" /><circle cx="447" cy="8733" r="5" fill="green" stroke="none" /><circle cx="1855" cy="3127" r="5" fill="green" stroke="none" /><circle cx="795" cy="5372" r="5" fill="green" stroke="none" /><circle cx="2138" cy="2621" r="5" fill="green" stroke="none" /><circle cx="3890" cy="824" r="5" fill="green" stroke="none" /><circle cx="367" cy="1780" r="5" fill="green" stroke="none" /><circle cx="253" cy="1128" r="5" fill="green" stroke="none" /><circle cx="175" cy="7046" r="5" fill="green" stroke="none" /><circle cx="2101" cy="6496" r="5" fill="green" stroke="none" /><circle cx="2676" cy="5811" r="5" fill="green" stroke="none" /><circle cx="257" cy="1965" r="5" fill="green" stroke="none" /><circle cx="3484" cy="1925" r="5" fill="green" stroke="none" /><circle cx="2306" cy="4569" r="5" fill="green" stroke="none" /><circle cx="1278" cy="3817" r="5" fill="green" stroke="none" /><circle cx="45" cy="1809" r="5" fill="green" stroke="none" /><circle cx="86" cy="6548" r="5" fill="green" stroke="none" /><circle cx="3439" cy="3108" r="5" fill="green" stroke="none" /><circle cx="2574" cy="3970" r="5" fill="green" stroke="none" /><circle cx="531" cy="2988" r="5" fill="green" stroke="none" /><circle cx="1631" cy="3489" r="5" fill="green" stroke="none" /><circle cx="106" cy="2691" r="5" fill="green" stroke="none" /><circle cx="1151" cy="3371" r="5" fill="green" stroke="none" /><circle cx="2181" cy="6035" r="5" fill="green" stroke="none" /><circle cx="1751" cy="759" r="5" fill="green" stroke="none" /><circle cx="1672" cy="3235" r="5" fill="green" stroke="none" /><circle cx="1774" cy="6057" r="5" fill="green" stroke="none" /><circle cx="2772" cy="6959" r="5" fill="green" stroke="none" /><circle cx="2902" cy="5317" r="5" fill="green" stroke="none" /><circle cx="513" cy="1738" r="5" fill="green" stroke="none" /><circle cx="3184" cy="7396" r="10" fill="red" stroke="none" /><circle cx="3204" cy="7396" r="10" fill="red" stroke="none" /><circle cx="3224" cy="7396" r="10" fill="red" stroke="none" /><circle cx="3244" cy="7396" r="10" fill="red" stroke="none" /><circle cx="3264" cy="7396" r="10" fill="red" stroke="none" /><circle cx="3284" cy="7396" r="10" fill="red" stroke="none" /><circle cx="3304" cy="7396" r="10" fill="red" stroke="none" /><circle cx="3324" cy="7396" r="10" fill="red" stroke="none" /><circle cx="3184" cy="5245" r="10" fill="red" stroke="none" /><circle cx="3204" cy="5245" r="10" fill="red" stroke="none" /><circle cx="3224" cy="5245" r="10" fill="red" stroke="none" /><circle cx="3244" cy="5245" r="10" fill="red" stroke="none" /><circle cx="3264" cy="5245" r="10" fill="red" stroke="none" /><circle cx="3284" cy="5245" r="10" fill="red" stroke="none" /><circle cx="3304" cy="5245" r="10" fill="red" stroke="none" /><circle cx="3324" cy="5245" r="10" fill="red" stroke="none" /></svg>