<svg viewBox="0 0 6417 6984" xmlns="http://www.w3.org/2000/svg"><rect x="0" y="0" width="6417" height="6984" fill="lightyellow" stroke="none "/><rect x="181" y="1322" width="1588" height="2043" fill="white" stroke="black "/><circle cx="3889" cy="6759" r="5" fill="green" stroke="none" /><circle cx="3703" cy="979" r="5" fill="green" stroke="none" /><circle cx="6044" cy="1108" r="5" fill="green" stroke="none" /><circle cx="2624" cy="4573" r="5" fill="green" stroke="none" /><circle cx="478" cy="412" r="5" fill="green" stroke="none" /><circle cx="2089" cy="3513" r="5" fill="green" stroke="none" /><circle cx="3512" cy="3573" r="5" fill="green" stroke="none" /><circle cx="5811" cy="227" r="5" fill="green" stroke="none" /><circle cx="1903" cy="216" r="5" fill="green" stroke="none" /><circle cx="244" cy="5899" r="5" fill="green" stroke="none" /><circle cx="3596" cy="3568" r="5" fill="green" stroke="none" /><circle cx="1589" cy="5067" r="5" fill="green" stroke="none" /><circle cx="3494" cy="6587" r="5" fill="green" stroke="none" /><circle cx="5208" cy="6047" r="5" fill="green" stroke="none" /><circle cx="424" cy="4150" r="5" fill="green" stroke="none" /><circle cx="6120" cy="4056" r="5" fill="green" stroke="none" /><circle cx="2000" cy="4823" r="5" fill="green" stroke="none" /><circle cx="1311" cy="4576" r="5" fill="green" stroke="none" /><circle cx="4993" cy="5675" r="5" fill="green" stroke="none" /><circle cx="3942" cy="5318" r="5" fill="green" stroke="none" /><circle cx="2221" cy="1321" r="5" fill="green" stroke="none" /><circle cx="4552" cy="312" r="5" fill="green" stroke="none" /><circle cx="4785" cy="6128" r="5" fill="green" stroke="none" /><circle cx="505" cy="677" r="5" fill="green" stroke="none" /><circle cx="1862" cy="6628" r="5" fill="green" stroke="none" /><circle cx="59" cy="5789" r="5" fill="green" stroke="none" /><circle cx="3763" cy="1158" r="5" fill="green" stroke="none" /><circle cx="878" cy="6418" r="5" fill="green" stroke="none" /><circle cx="5020" cy="3721" r="5" fill="green" stroke="none" /><circle cx="1815" cy="958" r="5" fill="green" stroke="none" /><circle cx="4737" cy="371" r="5" fill="green" stroke="none" /><circle cx="4280" cy="3571" r="5" fill="green" stroke="none" /><circle cx="2719" cy="6441" r="5" fill="green" stroke="none" /><circle cx="5" cy="3629" r="5" fill="green" stroke="none" /><circle cx="5675" cy="6343" r="5" fill="green" stroke="none" /><circle cx="3794" cy="3603" r="5" fill="green" stroke="none" /><circle cx="3888" cy="4531" r="5" fill="green" stroke="none" /><circle cx="3043" cy="5675" r="5" fill="green" stroke="none" /><circle cx="4779" cy="3611" r="5" fill="green" stroke="none" /><circle cx="1927" cy="4129" r="5" fill="green" stroke="none" /><circle cx="3395" cy="4740" r="5" fill="green" stroke="none" /><circle cx="1287" cy="5860" r="5" fill="green" stroke="none" /><circle cx="4312" cy="4564" r="5" fill="green" stroke="none" /><circle cx="2202" cy="5922" r="5" fill="green" stroke="none" /><circle cx="3761" cy="3556" r="5" fill="green" stroke="none" /><circle cx="2353" cy="421" r="5" fill="green" stroke="none" /><circle cx="3483" cy="5647" r="5" fill="green" stroke="none" /><circle cx="5699" cy="4083" r="5" fill="green" stroke="none" /><circle cx="388" cy="501" r="5" fill="green" stroke="none" /><circle cx="5382" cy="5897" r="5" fill="green" stroke="none" /><circle cx="5485" cy="4968" r="5" fill="green" stroke="none" /><circle cx="4422" cy="1263" r="5" fill="green" stroke="none" /><circle cx="1011" cy="4490" r="5" fill="green" stroke="none" /><circle cx="1595" cy="3574" r="5" fill="green" stroke="none" /><circle cx="1294" cy="6429" r="5" fill="green" stroke="none" /><circle cx="5543" cy="5036" r="5" fill="green" stroke="none" /><circle cx="45" cy="4397" r="5" fill="green" stroke="none" /><circle cx="5892" cy="5684" r="5" fill="green" stroke="none" /><circle cx="1679" cy="5237" r="5" fill="green" stroke="none" /><circle cx="2324" cy="354" r="5" fill="green" stroke="none" /><circle cx="2821" cy="3594" r="5" fill="green" stroke="none" /><circle cx="2614" cy="4560" r="5" fill="green" stroke="none" /><circle cx="3557" cy="6915" r="5" fill="green" stroke="none" /><circle cx="6318" cy="5697" r="5" fill="green" stroke="none" /><circle cx="6157" cy="457" r="5" fill="green" stroke="none" /><circle cx="5879" cy="3581" r="5" fill="green" stroke="none" /><circle cx="2646" cy="5482" r="5" fill="green" stroke="none" /><circle cx="1527" cy="985" r="5" fill="green" stroke="none" /><circle cx="222" cy="1292" r="5" fill="green" stroke="none" /><circle cx="1214" cy="1261" r="5" fill="green" stroke="none" /><circle cx="4327" cy="3510" r="5" fill="green" stroke="none" /><circle cx="1225" cy="574" r="5" fill="green" stroke="none" /><circle cx="5918" cy="5536" r="5" fill="green" stroke="none" /><circle cx="5801" cy="4923" r="5" fill="green" stroke="none" /><circle cx="2513" cy="6215" r="5" fill="green" stroke="none" /><circle cx="3618" cy="318" r="5" fill="green" stroke="none" /><circle cx="5128" cy="4258" r="5" fill="green" stroke="none" /><circle cx="1486" cy="3461" r="5" fill="green" stroke="none" /><circle cx="68" cy="5021" r="5" fill="green" stroke="none" /><circle cx="1963" cy="5551" r="5" fill="green" stroke="none" /><circle cx="3236" cy="6325" r="5" fill="green" stroke="none" /><circle cx="1507" cy="6245" r="5" fill="green" stroke="none" /><circle cx="303" cy="4936" r="5" fill="green" stroke="none" /><circle cx="2392" cy="525" r="5" fill="green" stroke="none" /><circle cx="4403" cy="6082" r="5" fill="green" stroke="none" /><circle cx="64" cy="4974" r="5" fill="green" stroke="none" /><circle cx="4748" cy="1251" r="5" fill="green" stroke="none" /><circle cx="2849" cy="5036" r="5" fill="green" stroke="none" /><circle cx="3960" cy="4315" r="5" fill="green" stroke="none" /><circle cx="418" cy="448" r="5" fill="green" stroke="none" /><circle cx="3412" cy="4586" r="5" fill="green" stroke="none" /><circle cx="1197" cy="4135" r="5" fill="green" stroke="none" /><circle cx="4887" cy="4048" r="5" fill="green" stroke="none" /><circle cx="1063" cy="4416" r="5" fill="green" stroke="none" /><circle cx="4065" cy="6399" r="5" fill="green" stroke="none" /><circle cx="2174" cy="6385" r="5" fill="green" stroke="none" /><circle cx="1850" cy="6377" r="5" fill="green" stroke="none" /><circle cx="4932" cy="6412" r="5" fill="green" stroke="none" /><circle cx="3874" cy="3386" r="5" fill="green" stroke="none" /><circle cx="1839" cy="6639" r="5" fill="green" stroke="none" /><circle cx="3584" cy="4288" r="5" fill="green" stroke="none" /><circle cx="762" cy="6846" r="5" fill="green" stroke="none" /><circle cx="1183" cy="5045" r="5" fill="green" stroke="none" /><circle cx="3249" cy="4432" r="5" fill="green" stroke="none" /><circle cx="2833" cy="3525" r="5" fill="green" stroke="none" /><circle cx="2802" cy="6598" r="5" fill="green" stroke="none" /><circle cx="5195" cy="6461" r="5" fill="green" stroke="none" /><circle cx="1145" cy="251" r="5" fill="green" stroke="none" /><circle cx="4750" cy="3549" r="5" fill="green" stroke="none" /><circle cx="4652" cy="5519" r="5" fill="green" stroke="none" /><circle cx="1392" cy="1176" r="5" fill="green" stroke="none" /><circle cx="242" cy="6039" r="5" fill="green" stroke="none" /><circle cx="5835" cy="4031" r="5" fill="green" stroke="none" /><circle cx="2020" cy="5516" r="5" fill="green" stroke="none" /><circle cx="45" cy="3763" r="5" fill="green" stroke="none" /><circle cx="5188" cy="435" r="5" fill="green" stroke="none" /><circle cx="2401" cy="5891" r="5" fill="green" stroke="none" /><circle cx="2791" cy="5185" r="5" fill="green" stroke="none" /><circle cx="4459" cy="5142" r="5" fill="green" stroke="none" /><circle cx="3389" cy="886" r="5" fill="green" stroke="none" /><circle cx="4259" cy="5899" r="5" fill="green" stroke="none" /><circle cx="2719" cy="155" r="5" fill="green" stroke="none" /><circle cx="1511" cy="4284" r="5" fill="green" stroke="none" /><circle cx="5481" cy="192" r="5" fill="green" stroke="none" /><circle cx="3299" cy="797" r="5" fill="green" stroke="none" /><circle cx="4215" cy="142" r="5" fill="green" stroke="none" /><circle cx="4327" cy="316" r="5" fill="green" stroke="none" /><circle cx="410" cy="4834" r="5" fill="green" stroke="none" /><circle cx="5988" cy="1200" r="5" fill="green" stroke="none" /><circle cx="5298" cy="6884" r="5" fill="green" stroke="none" /><circle cx="696" cy="5266" r="5" fill="green" stroke="none" /><circle cx="2968" cy="6622" r="5" fill="green" stroke="none" /><circle cx="5269" cy="5085" r="5" fill="green" stroke="none" /><circle cx="1377" cy="6171" r="5" fill="green" stroke="none" /><circle cx="3686" cy="6038" r="5" fill="green" stroke="none" /><circle cx="5986" cy="3428" r="5" fill="green" stroke="none" /><circle cx="2334" cy="6173" r="5" fill="green" stroke="none" /><circle cx="2107" cy="6238" r="5" fill="green" stroke="none" /><circle cx="2583" cy="4610" r="5" fill="green" stroke="none" /><circle cx="491" cy="6871" r="5" fill="green" stroke="none" /><circle cx="4520" cy="6137" r="5" fill="green" stroke="none" /><circle cx="890" cy="1233" r="5" fill="green" stroke="none" /><circle cx="3187" cy="5292" r="5" fill="green" stroke="none" /><circle cx="6110" cy="565" r="5" fill="green" stroke="none" /><circle cx="3244" cy="6477" r="5" fill="green" stroke="none" /><circle cx="1077" cy="6756" r="5" fill="green" stroke="none" /><circle cx="1558" cy="4020" r="5" fill="green" stroke="none" /><circle cx="3962" cy="5975" r="5" fill="green" stroke="none" /><circle cx="5625" cy="6337" r="5" fill="green" stroke="none" /><circle cx="4285" cy="5102" r="5" fill="green" stroke="none" /><circle cx="4512" cy="6824" r="5" fill="green" stroke="none" /><circle cx="905" cy="3796" r="5" fill="green" stroke="none" /><circle cx="4785" cy="4892" r="5" fill="green" stroke="none" /><circle cx="6210" cy="256" r="5" fill="green" stroke="none" /><circle cx="6220" cy="4694" r="5" fill="green" stroke="none" /><circle cx="2289" cy="4900" r="5" fill="green" stroke="none" /><circle cx="872" cy="949" r="5" fill="green" stroke="none" /><circle cx="4750" cy="864" r="5" fill="green" stroke="none" /><circle cx="443" cy="1049" r="5" fill="green" stroke="none" /><circle cx="4768" cy="3719" r="5" fill="green" stroke="none" /><circle cx="1749" cy="4833" r="5" fill="green" stroke="none" /><circle cx="6269" cy="776" r="5" fill="green" stroke="none" /><circle cx="5407" cy="5269" r="5" fill="green" stroke="none" /><circle cx="3645" cy="6809" r="5" fill="green" stroke="none" /><circle cx="3989" cy="3556" r="5" fill="green" stroke="none" /><circle cx="2328" cy="4013" r="5" fill="green" stroke="none" /><circle cx="4304" cy="5304" r="5" fill="green" stroke="none" /><circle cx="4806" cy="5254" r="5" fill="green" stroke="none" /><circle cx="4198" cy="5330" r="5" fill="green" stroke="none" /><circle cx="6153" cy="6799" r="5" fill="green" stroke="none" /><circle cx="2752" cy="1080" r="5" fill="green" stroke="none" /><circle cx="1752" cy="4450" r="5" fill="green" stroke="none" /><circle cx="5987" cy="3926" r="5" fill="green" stroke="none" /><circle cx="2626" cy="874" r="5" fill="green" stroke="none" /><circle cx="3990" cy="3556" r="5" fill="green" stroke="none" /><circle cx="245" cy="5611" r="5" fill="green" stroke="none" /><circle cx="5343" cy="3529" r="5" fill="green" stroke="none" /><circle cx="3763" cy="4076" r="5" fill="green" stroke="none" /><circle cx="2432" cy="944" r="5" fill="green" stroke="none" /><circle cx="6120" cy="1201" r="5" fill="green" stroke="none" /><circle cx="3603" cy="4807" r="5" fill="green" stroke="none" /><circle cx="4426" cy="926" r="5" fill="green" stroke="none" /><circle cx="2680" cy="5120" r="5" fill="green" stroke="none" /><circle cx="3522" cy="4354" r="5" fill="green" stroke="none" /><circle cx="5482" cy="3748" r="5" fill="green" stroke="none" /><circle cx="3515" cy="227" r="5" fill="green" stroke="none" /><circle cx="5240" cy="5647" r="5" fill="green" stroke="none" /><circle cx="5389" cy="1120" r="5" fill="green" stroke="none" /><circle cx="2887" cy="5877" r="5" fill="green" stroke="none" /><circle cx="1438" cy="4139" r="5" fill="green" stroke="none" /><circle cx="5271" cy="1026" r="5" fill="green" stroke="none" /><circle cx="822" cy="5428" r="5" fill="green" stroke="none" /><circle cx="4995" cy="4056" r="5" fill="green" stroke="none" /><circle cx="1149" cy="5333" r="5" fill="green" stroke="none" /><circle cx="4040" cy="3499" r="5" fill="green" stroke="none" /><circle cx="5508" cy="5396" r="5" fill="green" stroke="none" /><circle cx="3598" cy="6491" r="5" fill="green" stroke="none" /><circle cx="4621" cy="4387" r="5" fill="green" stroke="none" /><circle cx="1298" cy="3732" r="5" fill="green" stroke="none" /><circle cx="3203" cy="3598" r="5" fill="green" stroke="none" /><circle cx="4355" cy="326" r="5" fill="green" stroke="none" /><circle cx="4389" cy="6790" r="5" fill="green" stroke="none" /><circle cx="1853" cy="1157" r="5" fill="green" stroke="none" /><circle cx="4955" cy="6501" r="5" fill="green" stroke="none" /><circle cx="180" cy="3905" r="5" fill="green" stroke="none" /><circle cx="5270" cy="4444" r="5" fill="green" stroke="none" /><circle cx="4557" cy="5044" r="5" fill="green" stroke="none" /><circle cx="1746" cy="539" r="5" fill="green" stroke="none" /><circle cx="742" cy="606" r="5" fill="green" stroke="none" /><circle cx="4955" cy="5017" r="5" fill="green" stroke="none" /><circle cx="5518" cy="6262" r="5" fill="green" stroke="none" /><circle cx="1498" cy="6365" r="5" fill="green" stroke="none" /><circle cx="5174" cy="891" r="5" fill="green" stroke="none" /><circle cx="5480" cy="770" r="5" fill="green" stroke="none" /><circle cx="5374" cy="1021" r="5" fill="green" stroke="none" /><circle cx="2382" cy="79" r="5" fill="green" stroke="none" /><circle cx="6302" cy="354" r="5" fill="green" stroke="none" /><circle cx="3705" cy="167" r="5" fill="green" stroke="none" /><circle cx="1360" cy="5626" r="5" fill="green" stroke="none" /><circle cx="2730" cy="1137" r="5" fill="green" stroke="none" /><circle cx="4077" cy="3633" r="5" fill="green" stroke="none" /><circle cx="3543" cy="6771" r="5" fill="green" stroke="none" /><circle cx="1505" cy="4445" r="5" fill="green" stroke="none" /><circle cx="3965" cy="4146" r="5" fill="green" stroke="none" /><circle cx="342" cy="6512" r="5" fill="green" stroke="none" /><circle cx="3663" cy="832" r="5" fill="green" stroke="none" /><circle cx="2759" cy="6564" r="5" fill="green" stroke="none" /><circle cx="1359" cy="1308" r="5" fill="green" stroke="none" /><circle cx="6352" cy="3865" r="5" fill="green" stroke="none" /><circle cx="6346" cy="6025" r="5" fill="green" stroke="none" /><circle cx="2577" cy="318" r="5" fill="green" stroke="none" /><circle cx="5565" cy="3638" r="5" fill="green" stroke="none" /><circle cx="6372" cy="1298" r="5" fill="green" stroke="none" /><circle cx="4627" cy="4242" r="5" fill="green" stroke="none" /><circle cx="5860" cy="918" r="5" fill="green" stroke="none" /><circle cx="26" cy="576" r="5" fill="green" stroke="none" /><circle cx="573" cy="5945" r="5" fill="green" stroke="none" /><circle cx="4295" cy="4505" r="5" fill="green" stroke="none" /><circle cx="1563" cy="6930" r="5" fill="green" stroke="none" /><circle cx="6114" cy="6237" r="5" fill="green" stroke="none" /><circle cx="4360" cy="5130" r="5" fill="green" stroke="none" /><circle cx="4586" cy="3630" r="5" fill="green" stroke="none" /><circle cx="6185" cy="3505" r="5" fill="green" stroke="none" /><circle cx="5806" cy="434" r="5" fill="green" stroke="none" /><circle cx="4248" cy="5816" r="5" fill="green" stroke="none" /><circle cx="2033" cy="6213" r="5" fill="green" stroke="none" /><circle cx="4646" cy="1309" r="5" fill="green" stroke="none" /><circle cx="3478" cy="3848" r="5" fill="green" stroke="none" /><circle cx="5961" cy="5624" r="5" fill="green" stroke="none" /><circle cx="2860" cy="74" r="5" fill="green" stroke="none" /><circle cx="1866" cy="3660" r="5" fill="green" stroke="none" /><circle cx="1273" cy="750" r="5" fill="green" stroke="none" /><circle cx="5923" cy="3733" r="5" fill="green" stroke="none" /><circle cx="250" cy="6699" r="5" fill="green" stroke="none" /><circle cx="3376" cy="858" r="5" fill="green" stroke="none" /><circle cx="1662" cy="4142" r="5" fill="green" stroke="none" /><circle cx="5452" cy="6907" r="5" fill="green" stroke="none" /><circle cx="1699" cy="1200" r="5" fill="green" stroke="none" /><circle cx="858" cy="313" r="5" fill="green" stroke="none" /><circle cx="3397" cy="5010" r="5" fill="green" stroke="none" /><circle cx="1049" cy="222" r="5" fill="green" stroke="none" /><circle cx="564" cy="4542" r="5" fill="green" stroke="none" /><circle cx="6264" cy="3400" r="5" fill="green" stroke="none" /><circle cx="3207" cy="5016" r="5" fill="green" stroke="none" /><circle cx="4470" cy="6607" r="5" fill="green" stroke="none" /><circle cx="3603" cy="6153" r="5" fill="green" stroke="none" /><circle cx="1563" cy="3580" r="5" fill="green" stroke="none" /><circle cx="1353" cy="4458" r="5" fill="green" stroke="none" /><circle cx="2073" cy="4902" r="5" fill="green" stroke="none" /><circle cx="2508" cy="4748" r="5" fill="green" stroke="none" /><circle cx="1699" cy="3773" r="5" fill="green" stroke="none" /><circle cx="5" cy="6701" r="5" fill="green" stroke="none" /><circle cx="2048" cy="4844" r="5" fill="green" stroke="none" /><circle cx="4135" cy="3977" r="5" fill="green" stroke="none" /><circle cx="3246" cy="5384" r="5" fill="green" stroke="none" /><circle cx="1657" cy="6045" r="5" fill="green" stroke="none" /><circle cx="6250" cy="4580" r="5" fill="green" stroke="none" /><circle cx="522" cy="4177" r="5" fill="green" stroke="none" /><circle cx="189" cy="6844" r="5" fill="green" stroke="none" /><circle cx="284" cy="5801" r="5" fill="green" stroke="none" /><circle cx="534" cy="6058" r="5" fill="green" stroke="none" /><circle cx="4699" cy="4458" r="5" fill="green" stroke="none" /><circle cx="1549" cy="214" r="5" fill="green" stroke="none" /><circle cx="5190" cy="653" r="5" fill="green" stroke="none" /><circle cx="392" cy="166" r="5" fill="green" stroke="none" /><circle cx="6354" cy="1093" r="5" fill="green" stroke="none" /><circle cx="6032" cy="6099" r="5" fill="green" stroke="none" /><circle cx="4754" cy="1170" r="5" fill="green" stroke="none" /><circle cx="6260" cy="750" r="5" fill="green" stroke="none" /><circle cx="5015" cy="902" r="5" fill="green" stroke="none" /><circle cx="371" cy="4432" r="5" fill="green" stroke="none" /><circle cx="6181" cy="3371" r="5" fill="green" stroke="none" /><circle cx="977" cy="1154" r="5" fill="green" stroke="none" /><circle cx="4360" cy="4388" r="5" fill="green" stroke="none" /><circle cx="33" cy="3566" r="5" fill="green" stroke="none" /><circle cx="4520" cy="6742" r="5" fill="green" stroke="none" /><circle cx="2161" cy="6047" r="5" fill="green" stroke="none" /><circle cx="5435" cy="3660" r="5" fill="green" stroke="none" /><circle cx="2443" cy="6012" r="5" fill="green" stroke="none" /><circle cx="5401" cy="5020" r="5" fill="green" stroke="none" /><circle cx="6303" cy="218" r="5" fill="green" stroke="none" /><circle cx="2246" cy="4294" r="5" fill="green" stroke="none" /><circle cx="5991" cy="4031" r="5" fill="green" stroke="none" /><circle cx="4736" cy="4056" r="5" fill="green" stroke="none" /><circle cx="4041" cy="1022" r="5" fill="green" stroke="none" /><circle cx="5857" cy="6209" r="5" fill="green" stroke="none" /><circle cx="1556" cy="4598" r="5" fill="green" stroke="none" /><circle cx="4000" cy="4143" r="5" fill="green" stroke="none" /><circle cx="237" cy="3708" r="5" fill="green" stroke="none" /><circle cx="5224" cy="6239" r="5" fill="green" stroke="none" /><circle cx="1719" cy="5175" r="5" fill="green" stroke="none" /><circle cx="2365" cy="6362" r="5" fill="green" stroke="none" /><circle cx="3944" cy="5820" r="5" fill="green" stroke="none" /><circle cx="1889" cy="6702" r="5" fill="green" stroke="none" /><circle cx="5258" cy="6762" r="5" fill="green" stroke="none" /><circle cx="1654" cy="912" r="5" fill="green" stroke="none" /><circle cx="5085" cy="957" r="5" fill="green" stroke="none" /><circle cx="308" cy="4965" r="5" fill="green" stroke="none" /><circle cx="5100" cy="6573" r="5" fill="green" stroke="none" /><circle cx="5820" cy="1024" r="5" fill="green" stroke="none" /><circle cx="5518" cy="5732" r="5" fill="green" stroke="none" /><circle cx="2598" cy="446" r="5" fill="green" stroke="none" /><circle cx="463" cy="4181" r="5" fill="green" stroke="none" /><circle cx="2425" cy="3514" r="5" fill="green" stroke="none" /><circle cx="6196" cy="5647" r="5" fill="green" stroke="none" /><circle cx="38" cy="5588" r="5" fill="green" stroke="none" /><circle cx="670" cy="4145" r="5" fill="green" stroke="none" /><circle cx="4709" cy="6327" r="5" fill="green" stroke="none" /><circle cx="2899" cy="1253" r="5" fill="green" stroke="none" /><circle cx="4446" cy="1117" r="5" fill="green" stroke="none" /><circle cx="970" cy="4769" r="5" fill="green" stroke="none" /><circle cx="3166" cy="5066" r="5" fill="green" stroke="none" /><circle cx="2987" cy="5504" r="5" fill="green" stroke="none" /><circle cx="2902" cy="4691" r="5" fill="green" stroke="none" /><circle cx="1570" cy="4196" r="5" fill="green" stroke="none" /><circle cx="5217" cy="4857" r="5" fill="green" stroke="none" /><circle cx="3125" cy="5203" r="5" fill="green" stroke="none" /><circle cx="4665" cy="4992" r="5" fill="green" stroke="none" /><circle cx="6112" cy="4798" r="5" fill="green" stroke="none" /><circle cx="3357" cy="6166" r="5" fill="green" stroke="none" /><circle cx="2062" cy="5833" r="5" fill="green" stroke="none" /><circle cx="4412" cy="5203" r="5" fill="green" stroke="none" /><circle cx="3794" cy="6650" r="5" fill="green" stroke="none" /><circle cx="5142" cy="5722" r="5" fill="green" stroke="none" /><circle cx="1991" cy="1101" r="5" fill="green" stroke="none" /><circle cx="4030" cy="730" r="5" fill="green" stroke="none" /><circle cx="4403" cy="705" r="5" fill="green" stroke="none" /><circle cx="4337" cy="5097" r="5" fill="green" stroke="none" /><circle cx="358" cy="4253" r="5" fill="green" stroke="none" /><circle cx="5240" cy="6160" r="5" fill="green" stroke="none" /><circle cx="5504" cy="5220" r="5" fill="green" stroke="none" /><circle cx="5431" cy="480" r="5" fill="green" stroke="none" /><circle cx="5923" cy="3532" r="5" fill="green" stroke="none" /><circle cx="2288" cy="4292" r="5" fill="green" stroke="none" /><circle cx="4943" cy="4395" r="5" fill="green" stroke="none" /><circle cx="3815" cy="868" r="5" fill="green" stroke="none" /><circle cx="3203" cy="452" r="5" fill="green" stroke="none" /><circle cx="938" cy="1257" r="5" fill="green" stroke="none" /><circle cx="3129" cy="1081" r="5" fill="green" stroke="none" /><circle cx="2261" cy="5518" r="5" fill="green" stroke="none" /><circle cx="5759" cy="3503" r="5" fill="green" stroke="none" /><circle cx="4840" cy="4853" r="5" fill="green" stroke="none" /><circle cx="1932" cy="4364" r="5" fill="green" stroke="none" /><circle cx="4208" cy="4956" r="5" fill="green" stroke="none" /><circle cx="3191" cy="1152" r="5" fill="green" stroke="none" /><circle cx="465" cy="5" r="5" fill="green" stroke="none" /><circle cx="5366" cy="6771" r="5" fill="green" stroke="none" /><circle cx="2108" cy="787" r="5" fill="green" stroke="none" /><circle cx="1034" cy="4535" r="5" fill="green" stroke="none" /><circle cx="5387" cy="4743" r="5" fill="green" stroke="none" /><circle cx="5749" cy="4946" r="5" fill="green" stroke="none" /><circle cx="4718" cy="3650" r="5" fill="green" stroke="none" /><circle cx="672" cy="6626" r="5" fill="green" stroke="none" /><circle cx="5393" cy="4960" r="5" fill="green" stroke="none" /><circle cx="5655" cy="5651" r="5" fill="green" stroke="none" /><circle cx="1457" cy="3728" r="5" fill="green" stroke="none" /><circle cx="402" cy="6615" r="5" fill="green" stroke="none" /><circle cx="3578" cy="241" r="5" fill="green" stroke="none" /><circle cx="2957" cy="6614" r="5" fill="green" stroke="none" /><circle cx="4317" cy="788" r="5" fill="green" stroke="none" /><circle cx="5673" cy="4143" r="5" fill="green" stroke="none" /><circle cx="2421" cy="4497" r="5" fill="green" stroke="none" /><circle cx="5793" cy="6065" r="5" fill="green" stroke="none" /><circle cx="489" cy="212" r="5" fill="green" stroke="none" /><circle cx="3895" cy="6858" r="5" fill="green" stroke="none" /><circle cx="5232" cy="6789" r="5" fill="green" stroke="none" /><circle cx="2276" cy="1296" r="5" fill="green" stroke="none" /><circle cx="4493" cy="5044" r="5" fill="green" stroke="none" /><circle cx="1297" cy="1047" r="5" fill="green" stroke="none" /><circle cx="3344" cy="5027" r="5" fill="green" stroke="none" /><circle cx="3979" cy="5598" r="5" fill="green" stroke="none" /><circle cx="1933" cy="5148" r="5" fill="green" stroke="none" /><circle cx="1789" cy="6225" r="5" fill="green" stroke="none" /><circle cx="5654" cy="6914" r="5" fill="green" stroke="none" /><circle cx="5480" cy="4918" r="5" fill="green" stroke="none" /><circle cx="5982" cy="5272" r="5" fill="green" stroke="none" /><circle cx="4327" cy="4601" r="5" fill="green" stroke="none" /><circle cx="6113" cy="6458" r="5" fill="green" stroke="none" /><circle cx="3286" cy="5823" r="5" fill="green" stroke="none" /><circle cx="6106" cy="4552" r="5" fill="green" stroke="none" /><circle cx="961" cy="4668" r="5" fill="green" stroke="none" /><circle cx="889" cy="4297" r="5" fill="green" stroke="none" /><circle cx="2295" cy="5298" r="5" fill="green" stroke="none" /><circle cx="3787" cy="6980" r="5" fill="green" stroke="none" /><circle cx="1450" cy="66" r="5" fill="green" stroke="none" /><circle cx="4998" cy="1015" r="5" fill="green" stroke="none" /><circle cx="5973" cy="5369" r="5" fill="green" stroke="none" /><circle cx="5024" cy="1234" r="5" fill="green" stroke="none" /><circle cx="5374" cy="5573" r="5" fill="green" stroke="none" /><circle cx="2563" cy="724" r="5" fill="green" stroke="none" /><circle cx="4243" cy="4555" r="5" fill="green" stroke="none" /><circle cx="4914" cy="954" r="5" fill="green" stroke="none" /><circle cx="2099" cy="6143" r="5" fill="green" stroke="none" /><circle cx="2139" cy="5876" r="5" fill="green" stroke="none" /><circle cx="5617" cy="6232" r="5" fill="green" stroke="none" /><circle cx="5451" cy="5812" r="5" fill="green" stroke="none" /><circle cx="3648" cy="6361" r="5" fill="green" stroke="none" /><circle cx="4537" cy="775" r="5" fill="green" stroke="none" /><circle cx="4173" cy="6585" r="5" fill="green" stroke="none" /><circle cx="2877" cy="3647" r="5" fill="green" stroke="none" /><circle cx="1117" cy="662" r="5" fill="green" stroke="none" /><circle cx="987" cy="6121" r="5" fill="green" stroke="none" /><circle cx="1151" cy="6125" r="5" fill="green" stroke="none" /><circle cx="2440" cy="61" r="5" fill="green" stroke="none" /><circle cx="3181" cy="887" r="5" fill="green" stroke="none" /><circle cx="1426" cy="503" r="5" fill="green" stroke="none" /><circle cx="6095" cy="4564" r="5" fill="green" stroke="none" /><circle cx="1703" cy="5246" r="5" fill="green" stroke="none" /><circle cx="1848" cy="6305" r="5" fill="green" stroke="none" /><circle cx="1713" cy="5304" r="5" fill="green" stroke="none" /><circle cx="4298" cy="6789" r="5" fill="green" stroke="none" /><circle cx="1299" cy="4581" r="5" fill="green" stroke="none" /><circle cx="1564" cy="6097" r="5" fill="green" stroke="none" /><circle cx="4327" cy="4927" r="5" fill="green" stroke="none" /><circle cx="5873" cy="344" r="5" fill="green" stroke="none" /><circle cx="474" cy="5573" r="5" fill="green" stroke="none" /><circle cx="2488" cy="5020" r="5" fill="green" stroke="none" /><circle cx="5479" cy="3462" r="5" fill="green" stroke="none" /><circle cx="4106" cy="4772" r="5" fill="green" stroke="none" /><circle cx="1030" cy="1209" r="5" fill="green" stroke="none" /><circle cx="3459" cy="5734" r="5" fill="green" stroke="none" /><circle cx="3103" cy="6662" r="5" fill="green" stroke="none" /><circle cx="13" cy="5080" r="5" fill="green" stroke="none" /><circle cx="3849" cy="1189" r="5" fill="green" stroke="none" /><circle cx="5503" cy="5277" r="5" fill="green" stroke="none" /><circle cx="3853" cy="979" r="5" fill="green" stroke="none" /><circle cx="1218" cy="992" r="5" fill="green" stroke="none" /><circle cx="5462" cy="6692" r="5" fill="green" stroke="none" /><circle cx="3623" cy="3535" r="5" fill="green" stroke="none" /><circle cx="6207" cy="104" r="5" fill="green" stroke="none" /><circle cx="4739" cy="651" r="5" fill="green" stroke="none" /><circle cx="5685" cy="4200" r="5" fill="green" stroke="none" /><circle cx="1190" cy="4108" r="5" fill="green" stroke="none" /><circle cx="1991" cy="6597" r="5" fill="green" stroke="none" /><circle cx="5100" cy="67" r="5" fill="green" stroke="none" /><circle cx="5192" cy="349" r="5" fill="green" stroke="none" /><circle cx="2289" cy="6406" r="5" fill="green" stroke="none" /><circle cx="5934" cy="6101" r="5" fill="green" stroke="none" /><circle cx="6367" cy="6665" r="5" fill="green" stroke="none" /><circle cx="137" cy="6905" r="5" fill="green" stroke="none" /><circle cx="1297" cy="6362" r="5" fill="green" stroke="none" /><circle cx="128" cy="5052" r="5" fill="green" stroke="none" /><circle cx="1784" cy="4968" r="5" fill="green" stroke="none" /><circle cx="1625" cy="4104" r="5" fill="green" stroke="none" /><circle cx="3835" cy="1214" r="5" fill="green" stroke="none" /><circle cx="3834" cy="816" r="5" fill="green" stroke="none" /><circle cx="2455" cy="5492" r="5" fill="green" stroke="none" /><circle cx="2667" cy="5212" r="5" fill="green" stroke="none" /><circle cx="1127" cy="5863" r="5" fill="green" stroke="none" /><circle cx="1634" cy="4931" r="5" fill="green" stroke="none" /><circle cx="5300" cy="5804" r="5" fill="green" stroke="none" /><circle cx="5382" cy="4243" r="5" fill="green" stroke="none" /><circle cx="4805" cy="4992" r="5" fill="green" stroke="none" /><circle cx="4411" cy="4377" r="5" fill="green" stroke="none" /><circle cx="1874" cy="57" r="5" fill="green" stroke="none" /><circle cx="6022" cy="6038" r="5" fill="green" stroke="none" /><circle cx="3143" cy="3390" r="5" fill="green" stroke="none" /><circle cx="182" cy="4644" r="5" fill="green" stroke="none" /><circle cx="3358" cy="6857" r="5" fill="green" stroke="none" /><circle cx="4602" cy="84" r="5" fill="green" stroke="none" /><circle cx="1827" cy="723" r="5" fill="green" stroke="none" /><circle cx="5814" cy="6303" r="5" fill="green" stroke="none" /><circle cx="265" cy="343" r="5" fill="green" stroke="none" /><circle cx="5851" cy="6778" r="5" fill="green" stroke="none" /><circle cx="5701" cy="5249" r="5" fill="green" stroke="none" /><circle cx="2474" cy="4546" r="5" fill="green" stroke="none" /><circle cx="1487" cy="5867" r="5" fill="green" stroke="none" /><circle cx="3574" cy="5897" r="5" fill="green" stroke="none" /><circle cx="2060" cy="5476" r="5" fill="green" stroke="none" /><circle cx="6014" cy="4440" r="5" fill="green" stroke="none" /><circle cx="5928" cy="6786" r="5" fill="green" stroke="none" /><circle cx="2044" cy="6716" r="5" fill="green" stroke="none" /><circle cx="1325" cy="6843" r="5" fill="green" stroke="none" /><circle cx="219" cy="5269" r="5" fill="green" stroke="none" /><circle cx="6036" cy="3686" r="5" fill="green" stroke="none" /><circle cx="4160" cy="5997" r="5" fill="green" stroke="none" /><circle cx="5717" cy="4009" r="5" fill="green" stroke="none" /><circle cx="6294" cy="5732" r="5" fill="green" stroke="none" /><circle cx="1920" cy="6362" r="5" fill="green" stroke="none" /><circle cx="2302" cy="1175" r="5" fill="green" stroke="none" /><circle cx="4219" cy="1281" r="5" fill="green" stroke="none" /><circle cx="1492" cy="960" r="5" fill="green" stroke="none" /><circle cx="1626" cy="297" r="5" fill="green" stroke="none" /><circle cx="5314" cy="222" r="5" fill="green" stroke="none" /><circle cx="460" cy="5334" r="5" fill="green" stroke="none" /><circle cx="934" cy="1086" r="5" fill="green" stroke="none" /><circle cx="3728" cy="5949" r="5" fill="green" stroke="none" /><circle cx="3438" cy="227" r="5" fill="green" stroke="none" /><circle cx="5140" cy="373" r="5" fill="green" stroke="none" /><circle cx="3786" cy="1279" r="5" fill="green" stroke="none" /><circle cx="3253" cy="727" r="5" fill="green" stroke="none" /><circle cx="1380" cy="3538" r="5" fill="green" stroke="none" /><circle cx="5623" cy="5027" r="5" fill="green" stroke="none" /><circle cx="5375" cy="10" r="5" fill="green" stroke="none" /><circle cx="16" cy="256" r="5" fill="green" stroke="none" /><circle cx="4544" cy="1196" r="5" fill="green" stroke="none" /><circle cx="5741" cy="5234" r="5" fill="green" stroke="none" /><circle cx="6279" cy="3853" r="5" fill="green" stroke="none" /><circle cx="2194" cy="3932" r="5" fill="green" stroke="none" /><circle cx="306" cy="3602" r="5" fill="green" stroke="none" /><circle cx="2715" cy="5787" r="5" fill="green" stroke="none" /><circle cx="2202" cy="4678" r="5" fill="green" stroke="none" /><circle cx="6131" cy="6429" r="5" fill="green" stroke="none" /><circle cx="6222" cy="6399" r="5" fill="green" stroke="none" /><circle cx="3852" cy="733" r="5" fill="green" stroke="none" /><circle cx="2353" cy="6512" r="5" fill="green" stroke="none" /><circle cx="5331" cy="6728" r="5" fill="green" stroke="none" /><circle cx="6260" cy="3993" r="5" fill="green" stroke="none" /><circle cx="6234" cy="6552" r="5" fill="green" stroke="none" /><circle cx="3364" cy="1266" r="5" fill="green" stroke="none" /><circle cx="3537" cy="4924" r="5" fill="green" stroke="none" /><circle cx="580" cy="6535" r="5" fill="green" stroke="none" /><circle cx="5563" cy="4596" r="5" fill="green" stroke="none" /><circle cx="6028" cy="6519" r="5" fill="green" stroke="none" /><circle cx="1813" cy="308" r="5" fill="green" stroke="none" /><circle cx="3068" cy="56" r="5" fill="green" stroke="none" /><circle cx="4017" cy="4135" r="5" fill="green" stroke="none" /><circle cx="2765" cy="3399" r="5" fill="green" stroke="none" /><circle cx="4798" cy="5545" r="5" fill="green" stroke="none" /><circle cx="1600" cy="3385" r="5" fill="green" stroke="none" /><circle cx="366" cy="5893" r="5" fill="green" stroke="none" /><circle cx="750" cy="3926" r="5" fill="green" stroke="none" /><circle cx="6018" cy="1212" r="5" fill="green" stroke="none" /><circle cx="5353" cy="5858" r="5" fill="green" stroke="none" /><circle cx="310" cy="5152" r="5" fill="green" stroke="none" /><circle cx="4104" cy="762" r="5" fill="green" stroke="none" /><circle cx="1944" cy="77" r="5" fill="green" stroke="none" /><circle cx="1237" cy="4122" r="5" fill="green" stroke="none" /><circle cx="2837" cy="3547" r="5" fill="green" stroke="none" /><circle cx="4293" cy="4136" r="5" fill="green" stroke="none" /><circle cx="1579" cy="3652" r="5" fill="green" stroke="none" /><circle cx="3771" cy="4131" r="5" fill="green" stroke="none" /><circle cx="3850" cy="6703" r="5" fill="green" stroke="none" /><circle cx="5776" cy="4241" r="5" fill="green" stroke="none" /><circle cx="2918" cy="4313" r="5" fill="green" stroke="none" /><circle cx="112" cy="5728" r="5" fill="green" stroke="none" /><circle cx="3569" cy="4271" r="5" fill="green" stroke="none" /><circle cx="3006" cy="4647" r="5" fill="green" stroke="none" /><circle cx="3232" cy="6358" r="5" fill="green" stroke="none" /><circle cx="5719" cy="5872" r="5" fill="green" stroke="none" /><circle cx="758" cy="6070" r="5" fill="green" stroke="none" /><circle cx="4490" cy="4340" r="5" fill="green" stroke="none" /><circle cx="4184" cy="6960" r="5" fill="green" stroke="none" /><circle cx="2138" cy="861" r="5" fill="green" stroke="none" /><circle cx="1386" cy="5756" r="5" fill="green" stroke="none" /><circle cx="2156" cy="4551" r="5" fill="green" stroke="none" /><circle cx="5178" cy="6028" r="5" fill="green" stroke="none" /><circle cx="3732" cy="582" r="5" fill="green" stroke="none" /><circle cx="5083" cy="3958" r="5" fill="green" stroke="none" /><circle cx="5329" cy="4764" r="5" fill="green" stroke="none" /><circle cx="4834" cy="243" r="5" fill="green" stroke="none" /><circle cx="1536" cy="6935" r="5" fill="green" stroke="none" /><circle cx="6376" cy="6121" r="5" fill="green" stroke="none" /><circle cx="2992" cy="697" r="5" fill="green" stroke="none" /><circle cx="1694" cy="4867" r="5" fill="green" stroke="none" /><circle cx="2434" cy="4415" r="5" fill="green" stroke="none" /><circle cx="236" cy="524" r="5" fill="green" stroke="none" /><circle cx="3950" cy="1237" r="5" fill="green" stroke="none" /><circle cx="3565" cy="6181" r="5" fill="green" stroke="none" /><circle cx="3077" cy="6329" r="5" fill="green" stroke="none" /><circle cx="3047" cy="642" r="5" fill="green" stroke="none" /><circle cx="2797" cy="5854" r="5" fill="green" stroke="none" /><circle cx="6391" cy="4081" r="5" fill="green" stroke="none" /><circle cx="102" cy="4224" r="5" fill="green" stroke="none" /><circle cx="1766" cy="3502" r="5" fill="green" stroke="none" /><circle cx="5017" cy="6827" r="5" fill="green" stroke="none" /><circle cx="1517" cy="5208" r="5" fill="green" stroke="none" /><circle cx="1769" cy="5691" r="5" fill="green" stroke="none" /><circle cx="5724" cy="4617" r="5" fill="green" stroke="none" /><circle cx="3278" cy="5671" r="5" fill="green" stroke="none" /><circle cx="5651" cy="133" r="5" fill="green" stroke="none" /><circle cx="943" cy="5276" r="5" fill="green" stroke="none" /><circle cx="5813" cy="991" r="5" fill="green" stroke="none" /><circle cx="1109" cy="933" r="5" fill="green" stroke="none" /><circle cx="6025" cy="4687" r="5" fill="green" stroke="none" /><circle cx="4639" cy="3466" r="5" fill="green" stroke="none" /><circle cx="2647" cy="6315" r="5" fill="green" stroke="none" /><circle cx="2461" cy="6787" r="5" fill="green" stroke="none" /><circle cx="3780" cy="3972" r="5" fill="green" stroke="none" /><circle cx="1967" cy="1169" r="5" fill="green" stroke="none" /><circle cx="1330" cy="628" r="5" fill="green" stroke="none" /><circle cx="1637" cy="611" r="5" fill="green" stroke="none" /><circle cx="2080" cy="3983" r="5" fill="green" stroke="none" /><circle cx="2414" cy="4943" r="5" fill="green" stroke="none" /><circle cx="1269" cy="134" r="5" fill="green" stroke="none" /><circle cx="4674" cy="5745" r="5" fill="green" stroke="none" /><circle cx="936" cy="444" r="5" fill="green" stroke="none" /><circle cx="2488" cy="3662" r="5" fill="green" stroke="none" /><circle cx="4071" cy="353" r="5" fill="green" stroke="none" /><circle cx="5798" cy="5135" r="5" fill="green" stroke="none" /><circle cx="4999" cy="1115" r="5" fill="green" stroke="none" /><circle cx="5605" cy="6925" r="5" fill="green" stroke="none" /><circle cx="4903" cy="275" r="5" fill="green" stroke="none" /><circle cx="605" cy="5393" r="5" fill="green" stroke="none" /><circle cx="5232" cy="4546" r="5" fill="green" stroke="none" /><circle cx="3917" cy="282" r="5" fill="green" stroke="none" /><circle cx="4531" cy="515" r="5" fill="green" stroke="none" /><circle cx="5572" cy="1279" r="5" fill="green" stroke="none" /><circle cx="4974" cy="6181" r="5" fill="green" stroke="none" /><circle cx="4677" cy="5747" r="5" fill="green" stroke="none" /><circle cx="6191" cy="5241" r="5" fill="green" stroke="none" /><circle cx="3279" cy="334" r="5" fill="green" stroke="none" /><circle cx="4497" cy="3409" r="5" fill="green" stroke="none" /><circle cx="66" cy="1018" r="5" fill="green" stroke="none" /><circle cx="4741" cy="5656" r="5" fill="green" stroke="none" /><circle cx="5435" cy="4461" r="5" fill="green" stroke="none" /><circle cx="2998" cy="3980" r="5" fill="green" stroke="none" /><circle cx="4638" cy="693" r="5" fill="green" stroke="none" /><circle cx="932" cy="4177" r="5" fill="green" stroke="none" /><circle cx="5242" cy="4544" r="5" fill="green" stroke="none" /><circle cx="6074" cy="6293" r="5" fill="green" stroke="none" /><circle cx="3634" cy="5898" r="5" fill="green" stroke="none" /><circle cx="6267" cy="4680" r="5" fill="green" stroke="none" /><circle cx="6256" cy="6230" r="5" fill="green" stroke="none" /><circle cx="1512" cy="1294" r="5" fill="green" stroke="none" /><circle cx="3600" cy="177" r="5" fill="green" stroke="none" /><circle cx="2238" cy="5012" r="5" fill="green" stroke="none" /><circle cx="2921" cy="5678" r="5" fill="green" stroke="none" /><circle cx="5219" cy="3631" r="5" fill="green" stroke="none" /><circle cx="2848" cy="5329" r="5" fill="green" stroke="none" /><circle cx="1119" cy="6266" r="5" fill="green" stroke="none" /><circle cx="460" cy="4822" r="5" fill="green" stroke="none" /><circle cx="5838" cy="6521" r="5" fill="green" stroke="none" /><circle cx="5368" cy="5775" r="5" fill="green" stroke="none" /><circle cx="4200" cy="1045" r="5" fill="green" stroke="none" /><circle cx="1838" cy="964" r="5" fill="green" stroke="none" /><circle cx="530" cy="4324" r="5" fill="green" stroke="none" /><circle cx="1641" cy="749" r="5" fill="green" stroke="none" /><circle cx="1974" cy="5469" r="5" fill="green" stroke="none" /><circle cx="1757" cy="334" r="5" fill="green" stroke="none" /><circle cx="5008" cy="6266" r="5" fill="green" stroke="none" /><circle cx="5886" cy="198" r="5" fill="green" stroke="none" /><circle cx="5278" cy="4935" r="5" fill="green" stroke="none" /><circle cx="3197" cy="4023" r="5" fill="green" stroke="none" /><circle cx="3377" cy="324" r="5" fill="green" stroke="none" /><circle cx="6311" cy="1232" r="5" fill="green" stroke="none" /><circle cx="891" cy="612" r="5" fill="green" stroke="none" /><circle cx="2547" cy="844" r="5" fill="green" stroke="none" /><circle cx="2131" cy="897" r="5" fill="green" stroke="none" /><circle cx="2624" cy="5814" r="5" fill="green" stroke="none" /><circle cx="3273" cy="4932" r="5" fill="green" stroke="none" /><circle cx="5101" cy="684" r="5" fill="green" stroke="none" /><circle cx="1886" cy="6748" r="5" fill="green" stroke="none" /><circle cx="3432" cy="4668" r="5" fill="green" stroke="none" /><circle cx="844" cy="4521" r="5" fill="green" stroke="none" /><circle cx="372" cy="4352" r="5" fill="green" stroke="none" /><circle cx="4611" cy="5349" r="5" fill="green" stroke="none" /><circle cx="4232" cy="5118" r="5" fill="green" stroke="none" /><circle cx="1973" cy="6604" r="5" fill="green" stroke="none" /><circle cx="480" cy="6568" r="5" fill="green" stroke="none" /><circle cx="4805" cy="602" r="5" fill="green" stroke="none" /><circle cx="3157" cy="5831" r="5" fill="green" stroke="none" /><circle cx="3636" cy="6009" r="5" fill="green" stroke="none" /><circle cx="2262" cy="1081" r="5" fill="green" stroke="none" /><circle cx="2884" cy="3597" r="5" fill="green" stroke="none" /><circle cx="5927" cy="5714" r="5" fill="green" stroke="none" /><circle cx="4251" cy="6236" r="5" fill="green" stroke="none" /><circle cx="3847" cy="5660" r="5" fill="green" stroke="none" /><circle cx="5311" cy="3500" r="5" fill="green" stroke="none" /><circle cx="4620" cy="6959" r="5" fill="green" stroke="none" /><circle cx="2022" cy="6122" r="5" fill="green" stroke="none" /><circle cx="3335" cy="30" r="5" fill="green" stroke="none" /><circle cx="921" cy="5754" r="5" fill="green" stroke="none" /><circle cx="2750" cy="3952" r="5" fill="green" stroke="none" /><circle cx="864" cy="5124" r="5" fill="green" stroke="none" /><circle cx="5819" cy="5880" r="5" fill="green" stroke="none" /><circle cx="1551" cy="4375" r="5" fill="green" stroke="none" /><circle cx="3750" cy="4143" r="5" fill="green" stroke="none" /><circle cx="6406" cy="5617" r="5" fill="green" stroke="none" /><circle cx="5587" cy="5419" r="5" fill="green" stroke="none" /><circle cx="3418" cy="1138" r="5" fill="green" stroke="none" /><circle cx="1680" cy="5127" r="5" fill="green" stroke="none" /><circle cx="6329" cy="6062" r="5" fill="green" stroke="none" /><circle cx="2102" cy="6918" r="5" fill="green" stroke="none" /><circle cx="107" cy="4418" r="5" fill="green" stroke="none" /><circle cx="5530" cy="3635" r="5" fill="green" stroke="none" /><circle cx="1240" cy="5024" r="5" fill="green" stroke="none" /><circle cx="2372" cy="4620" r="5" fill="green" stroke="none" /><circle cx="1399" cy="3920" r="5" fill="green" stroke="none" /><circle cx="6277" cy="5038" r="5" fill="green" stroke="none" /><circle cx="181" cy="3415" r="5" fill="red" stroke="none" /><circle cx="201" cy="3415" r="5" fill="red" stroke="none" /><circle cx="221" cy="3415" r="5" fill="red" stroke="none" /><circle cx="241" cy="3415" r="5" fill="red" stroke="none" /><circle cx="261" cy="3415" r="5" fill="red" stroke="none" /><circle cx="281" cy="3415" r="5" fill="red" stroke="none" /><circle cx="301" cy="3415" r="5" fill="red" stroke="none" /><circle cx="321" cy="3415" r="5" fill="red" stroke="none" /><circle cx="341" cy="3415" r="5" fill="red" stroke="none" /><circle cx="361" cy="3415" r="5" fill="red" stroke="none" /><circle cx="381" cy="3415" r="5" fill="red" stroke="none" /><circle cx="401" cy="3415" r="5" fill="red" stroke="none" /><circle cx="421" cy="3415" r="5" fill="red" stroke="none" /><circle cx="441" cy="3415" r="5" fill="red" stroke="none" /><circle cx="461" cy="3415" r="5" fill="red" stroke="none" /><circle cx="481" cy="3415" r="5" fill="red" stroke="none" /><circle cx="501" cy="3415" r="5" fill="red" stroke="none" /><circle cx="521" cy="3415" r="5" fill="red" stroke="none" /><circle cx="541" cy="3415" r="5" fill="red" stroke="none" /><circle cx="181" cy="1272" r="5" fill="red" stroke="none" /><circle cx="201" cy="1272" r="5" fill="red" stroke="none" /><circle cx="221" cy="1272" r="5" fill="red" stroke="none" /><circle cx="241" cy="1272" r="5" fill="red" stroke="none" /><circle cx="261" cy="1272" r="5" fill="red" stroke="none" /><circle cx="281" cy="1272" r="5" fill="red" stroke="none" /><circle cx="301" cy="1272" r="5" fill="red" stroke="none" /><circle cx="321" cy="1272" r="5" fill="red" stroke="none" /><circle cx="341" cy="1272" r="5" fill="red" stroke="none" /><circle cx="361" cy="1272" r="5" fill="red" stroke="none" /><circle cx="381" cy="1272" r="5" fill="red" stroke="none" /><circle cx="401" cy="1272" r="5" fill="red" stroke="none" /><circle cx="421" cy="1272" r="5" fill="red" stroke="none" /><circle cx="441" cy="1272" r="5" fill="red" stroke="none" /><circle cx="461" cy="1272" r="5" fill="red" stroke="none" /><circle cx="481" cy="1272" r="5" fill="red" stroke="none" /><circle cx="501" cy="1272" r="5" fill="red" stroke="none" /><circle cx="521" cy="1272" r="5" fill="red" stroke="none" /><circle cx="541" cy="1272" r="5" fill="red" stroke="none" /><circle cx="561" cy="1272" r="5" fill="red" stroke="none" /></svg>