<svg viewBox="0 0 3978 2318" xmlns="http://www.w3.org/2000/svg"><rect x="0" y="0" width="3978" height="2318" fill="lightyellow" stroke="none "/><rect x="1394" y="737" width="708" height="422" fill="white" stroke="black "/><circle cx="2140" cy="2212" r="5" fill="green" stroke="none" /><circle cx="2064" cy="727" r="5" fill="green" stroke="none" /><circle cx="2509" cy="1410" r="5" fill="green" stroke="none" /><circle cx="1462" cy="1760" r="5" fill="green" stroke="none" /><circle cx="520" cy="539" r="5" fill="green" stroke="none" /><circle cx="2332" cy="1610" r="5" fill="green" stroke="none" /><circle cx="372" cy="647" r="5" fill="green" stroke="none" /><circle cx="3001" cy="1296" r="5" fill="green" stroke="none" /><circle cx="896" cy="1740" r="5" fill="green" stroke="none" /><circle cx="3422" cy="2000" r="5" fill="green" stroke="none" /><circle cx="3100" cy="1577" r="5" fill="green" stroke="none" /><circle cx="621" cy="358" r="5" fill="green" stroke="none" /><circle cx="1191" cy="659" r="5" fill="green" stroke="none" /><circle cx="1719" cy="2011" r="5" fill="green" stroke="none" /><circle cx="1468" cy="2294" r="5" fill="green" stroke="none" /><circle cx="1244" cy="1484" r="5" fill="green" stroke="none" /><circle cx="2097" cy="1519" r="5" fill="green" stroke="none" /><circle cx="2265" cy="85" r="5" fill="green" stroke="none" /><circle cx="2354" cy="540" r="5" fill="green" stroke="none" /><circle cx="3431" cy="2083" r="5" fill="green" stroke="none" /><circle cx="1573" cy="629" r="5" fill="green" stroke="none" /><circle cx="498" cy="1421" r="5" fill="green" stroke="none" /><circle cx="1711" cy="1408" r="5" fill="green" stroke="none" /><circle cx="2454" cy="404" r="5" fill="green" stroke="none" /><circle cx="662" cy="522" r="5" fill="green" stroke="none" /><circle cx="2470" cy="329" r="5" fill="green" stroke="none" /><circle cx="616" cy="1792" r="5" fill="green" stroke="none" /><circle cx="2417" cy="209" r="5" fill="green" stroke="none" /><circle cx="2468" cy="99" r="5" fill="green" stroke="none" /><circle cx="3404" cy="128" r="5" fill="green" stroke="none" /><circle cx="442" cy="31" r="5" fill="green" stroke="none" /><circle cx="2252" cy="1529" r="5" fill="green" stroke="none" /><circle cx="647" cy="2177" r="5" fill="green" stroke="none" /><circle cx="3387" cy="1171" r="5" fill="green" stroke="none" /><circle cx="1438" cy="2162" r="5" fill="green" stroke="none" /><circle cx="15" cy="2201" r="5" fill="green" stroke="none" /><circle cx="3373" cy="1584" r="5" fill="green" stroke="none" /><circle cx="1814" cy="1983" r="5" fill="green" stroke="none" /><circle cx="2118" cy="1593" r="5" fill="green" stroke="none" /><circle cx="1045" cy="649" r="5" fill="green" stroke="none" /><circle cx="3519" cy="557" r="5" fill="green" stroke="none" /><circle cx="3096" cy="580" r="5" fill="green" stroke="none" /><circle cx="540" cy="707" r="5" fill="green" stroke="none" /><circle cx="299" cy="682" r="5" fill="green" stroke="none" /><circle cx="1824" cy="288" r="5" fill="green" stroke="none" /><circle cx="2056" cy="111" r="5" fill="green" stroke="none" /><circle cx="1893" cy="1597" r="5" fill="green" stroke="none" /><circle cx="1627" cy="550" r="5" fill="green" stroke="none" /><circle cx="517" cy="564" r="5" fill="green" stroke="none" /><circle cx="1631" cy="1533" r="5" fill="green" stroke="none" /><circle cx="780" cy="434" r="5" fill="green" stroke="none" /><circle cx="2165" cy="2220" r="5" fill="green" stroke="none" /><circle cx="1677" cy="1800" r="5" fill="green" stroke="none" /><circle cx="1215" cy="1339" r="5" fill="green" stroke="none" /><circle cx="3566" cy="408" r="5" fill="green" stroke="none" /><circle cx="249" cy="345" r="5" fill="green" stroke="none" /><circle cx="1031" cy="277" r="5" fill="green" stroke="none" /><circle cx="385" cy="2262" r="5" fill="green" stroke="none" /><circle cx="2448" cy="2180" r="5" fill="green" stroke="none" /><circle cx="475" cy="1780" r="5" fill="green" stroke="none" /><circle cx="741" cy="1950" r="5" fill="green" stroke="none" /><circle cx="598" cy="2208" r="5" fill="green" stroke="none" /><circle cx="485" cy="54" r="5" fill="green" stroke="none" /><circle cx="3007" cy="687" r="5" fill="green" stroke="none" /><circle cx="2789" cy="644" r="5" fill="green" stroke="none" /><circle cx="3484" cy="1788" r="5" fill="green" stroke="none" /><circle cx="1322" cy="609" r="5" fill="green" stroke="none" /><circle cx="2425" cy="258" r="5" fill="green" stroke="none" /><circle cx="3936" cy="259" r="5" fill="green" stroke="none" /><circle cx="587" cy="229" r="5" fill="green" stroke="none" /><circle cx="2829" cy="244" r="5" fill="green" stroke="none" /><circle cx="831" cy="1313" r="5" fill="green" stroke="none" /><circle cx="2914" cy="1775" r="5" fill="green" stroke="none" /><circle cx="1111" cy="234" r="5" fill="green" stroke="none" /><circle cx="1152" cy="2145" r="5" fill="green" stroke="none" /><circle cx="275" cy="2051" r="5" fill="green" stroke="none" /><circle cx="3815" cy="2089" r="5" fill="green" stroke="none" /><circle cx="2551" cy="339" r="5" fill="green" stroke="none" /><circle cx="2686" cy="138" r="5" fill="green" stroke="none" /><circle cx="141" cy="1534" r="5" fill="green" stroke="none" /><circle cx="1213" cy="284" r="5" fill="green" stroke="none" /><circle cx="2477" cy="194" r="5" fill="green" stroke="none" /><circle cx="2176" cy="197" r="5" fill="green" stroke="none" /><circle cx="1430" cy="1356" r="5" fill="green" stroke="none" /><circle cx="1967" cy="2289" r="5" fill="green" stroke="none" /><circle cx="1140" cy="1743" r="5" fill="green" stroke="none" /><circle cx="401" cy="1430" r="5" fill="green" stroke="none" /><circle cx="3438" cy="1232" r="5" fill="green" stroke="none" /><circle cx="2540" cy="122" r="5" fill="green" stroke="none" /><circle cx="1234" cy="1189" r="5" fill="green" stroke="none" /><circle cx="3150" cy="37" r="5" fill="green" stroke="none" /><circle cx="348" cy="1316" r="5" fill="green" stroke="none" /><circle cx="3520" cy="1177" r="5" fill="green" stroke="none" /><circle cx="3266" cy="1840" r="5" fill="green" stroke="none" /><circle cx="3422" cy="171" r="5" fill="green" stroke="none" /><circle cx="2921" cy="2058" r="5" fill="green" stroke="none" /><circle cx="530" cy="1250" r="5" fill="green" stroke="none" /><circle cx="482" cy="2171" r="5" fill="green" stroke="none" /><circle cx="2711" cy="2119" r="5" fill="green" stroke="none" /><circle cx="2697" cy="2231" r="5" fill="green" stroke="none" /><circle cx="2361" cy="1256" r="5" fill="green" stroke="none" /><circle cx="1891" cy="1210" r="5" fill="green" stroke="none" /><circle cx="3462" cy="485" r="5" fill="green" stroke="none" /><circle cx="3300" cy="301" r="5" fill="green" stroke="none" /><circle cx="417" cy="651" r="5" fill="green" stroke="none" /><circle cx="499" cy="1830" r="5" fill="green" stroke="none" /><circle cx="1478" cy="1476" r="5" fill="green" stroke="none" /><circle cx="3670" cy="1210" r="5" fill="green" stroke="none" /><circle cx="2599" cy="1683" r="5" fill="green" stroke="none" /><circle cx="3491" cy="1640" r="5" fill="green" stroke="none" /><circle cx="898" cy="371" r="5" fill="green" stroke="none" /><circle cx="3536" cy="1970" r="5" fill="green" stroke="none" /><circle cx="1981" cy="1394" r="5" fill="green" stroke="none" /><circle cx="1001" cy="275" r="5" fill="green" stroke="none" /><circle cx="414" cy="2264" r="5" fill="green" stroke="none" /><circle cx="2656" cy="510" r="5" fill="green" stroke="none" /><circle cx="1870" cy="1783" r="5" fill="green" stroke="none" /><circle cx="558" cy="1805" r="5" fill="green" stroke="none" /><circle cx="2901" cy="2088" r="5" fill="green" stroke="none" /><circle cx="3435" cy="105" r="5" fill="green" stroke="none" /><circle cx="3700" cy="645" r="5" fill="green" stroke="none" /><circle cx="2986" cy="1529" r="5" fill="green" stroke="none" /><circle cx="3455" cy="2197" r="5" fill="green" stroke="none" /><circle cx="2460" cy="1498" r="5" fill="green" stroke="none" /><circle cx="305" cy="1357" r="5" fill="green" stroke="none" /><circle cx="1777" cy="234" r="5" fill="green" stroke="none" /><circle cx="983" cy="435" r="5" fill="green" stroke="none" /><circle cx="2847" cy="93" r="5" fill="green" stroke="none" /><circle cx="3304" cy="2004" r="5" fill="green" stroke="none" /><circle cx="1203" cy="86" r="5" fill="green" stroke="none" /><circle cx="883" cy="1522" r="5" fill="green" stroke="none" /><circle cx="251" cy="1891" r="5" fill="green" stroke="none" /><circle cx="491" cy="1685" r="5" fill="green" stroke="none" /><circle cx="3755" cy="1388" r="5" fill="green" stroke="none" /><circle cx="1271" cy="1612" r="5" fill="green" stroke="none" /><circle cx="3123" cy="1621" r="5" fill="green" stroke="none" /><circle cx="3641" cy="229" r="5" fill="green" stroke="none" /><circle cx="3169" cy="2297" r="5" fill="green" stroke="none" /><circle cx="60" cy="323" r="5" fill="green" stroke="none" /><circle cx="2183" cy="1457" r="5" fill="green" stroke="none" /><circle cx="3671" cy="1617" r="5" fill="green" stroke="none" /><circle cx="1178" cy="32" r="5" fill="green" stroke="none" /><circle cx="145" cy="1194" r="5" fill="green" stroke="none" /><circle cx="2604" cy="1438" r="5" fill="green" stroke="none" /><circle cx="1048" cy="1314" r="5" fill="green" stroke="none" /><circle cx="2852" cy="1444" r="5" fill="green" stroke="none" /><circle cx="2015" cy="309" r="5" fill="green" stroke="none" /><circle cx="618" cy="69" r="5" fill="green" stroke="none" /><circle cx="3619" cy="2299" r="5" fill="green" stroke="none" /><circle cx="1044" cy="1635" r="5" fill="green" stroke="none" /><circle cx="3344" cy="2144" r="5" fill="green" stroke="none" /><circle cx="2614" cy="139" r="5" fill="green" stroke="none" /><circle cx="2848" cy="2057" r="5" fill="green" stroke="none" /><circle cx="1450" cy="353" r="5" fill="green" stroke="none" /><circle cx="191" cy="453" r="5" fill="green" stroke="none" /><circle cx="1540" cy="1820" r="5" fill="green" stroke="none" /><circle cx="1462" cy="19" r="5" fill="green" stroke="none" /><circle cx="357" cy="1598" r="5" fill="green" stroke="none" /><circle cx="3466" cy="145" r="5" fill="green" stroke="none" /><circle cx="2189" cy="1299" r="5" fill="green" stroke="none" /><circle cx="3803" cy="1339" r="5" fill="green" stroke="none" /><circle cx="1750" cy="2049" r="5" fill="green" stroke="none" /><circle cx="359" cy="190" r="5" fill="green" stroke="none" /><circle cx="1625" cy="1455" r="5" fill="green" stroke="none" /><circle cx="3178" cy="687" r="5" fill="green" stroke="none" /><circle cx="401" cy="719" r="5" fill="green" stroke="none" /><circle cx="560" cy="2082" r="5" fill="green" stroke="none" /><circle cx="3260" cy="280" r="5" fill="green" stroke="none" /><circle cx="111" cy="1658" r="5" fill="green" stroke="none" /><circle cx="2837" cy="1339" r="5" fill="green" stroke="none" /><circle cx="1152" cy="1509" r="5" fill="green" stroke="none" /><circle cx="2508" cy="1448" r="5" fill="green" stroke="none" /><circle cx="3791" cy="544" r="5" fill="green" stroke="none" /><circle cx="2633" cy="2311" r="5" fill="green" stroke="none" /><circle cx="513" cy="2153" r="5" fill="green" stroke="none" /><circle cx="2792" cy="1587" r="5" fill="green" stroke="none" /><circle cx="392" cy="1433" r="5" fill="green" stroke="none" /><circle cx="2066" cy="1902" r="5" fill="green" stroke="none" /><circle cx="3089" cy="1459" r="5" fill="green" stroke="none" /><circle cx="3803" cy="1386" r="5" fill="green" stroke="none" /><circle cx="313" cy="163" r="5" fill="green" stroke="none" /><circle cx="3817" cy="137" r="5" fill="green" stroke="none" /><circle cx="1254" cy="281" r="5" fill="green" stroke="none" /><circle cx="3789" cy="640" r="5" fill="green" stroke="none" /><circle cx="1609" cy="1568" r="5" fill="green" stroke="none" /><circle cx="2892" cy="1610" r="5" fill="green" stroke="none" /><circle cx="507" cy="1670" r="5" fill="green" stroke="none" /><circle cx="391" cy="2005" r="5" fill="green" stroke="none" /><circle cx="1664" cy="2201" r="5" fill="green" stroke="none" /><circle cx="3502" cy="5" r="5" fill="green" stroke="none" /><circle cx="2446" cy="548" r="5" fill="green" stroke="none" /><circle cx="1245" cy="1368" r="5" fill="green" stroke="none" /><circle cx="3290" cy="206" r="5" fill="green" stroke="none" /><circle cx="606" cy="157" r="5" fill="green" stroke="none" /><circle cx="2795" cy="1877" r="5" fill="green" stroke="none" /><circle cx="3886" cy="1171" r="5" fill="green" stroke="none" /><circle cx="2112" cy="357" r="5" fill="green" stroke="none" /><circle cx="1758" cy="664" r="5" fill="green" stroke="none" /><circle cx="233" cy="1437" r="5" fill="green" stroke="none" /><circle cx="2951" cy="378" r="5" fill="green" stroke="none" /><circle cx="3324" cy="2043" r="5" fill="green" stroke="none" /><circle cx="1587" cy="2044" r="5" fill="green" stroke="none" /><circle cx="3554" cy="1713" r="5" fill="green" stroke="none" /><circle cx="1314" cy="1381" r="5" fill="green" stroke="none" /><circle cx="3681" cy="460" r="5" fill="green" stroke="none" /><circle cx="3705" cy="1333" r="5" fill="green" stroke="none" /><circle cx="3599" cy="1881" r="5" fill="green" stroke="none" /><circle cx="1200" cy="2317" r="5" fill="green" stroke="none" /><circle cx="2921" cy="605" r="5" fill="green" stroke="none" /><circle cx="1602" cy="277" r="5" fill="green" stroke="none" /><circle cx="2095" cy="1888" r="5" fill="green" stroke="none" /><circle cx="3679" cy="104" r="5" fill="green" stroke="none" /><circle cx="2591" cy="1906" r="5" fill="green" stroke="none" /><circle cx="1400" cy="507" r="5" fill="green" stroke="none" /><circle cx="1526" cy="104" r="5" fill="green" stroke="none" /><circle cx="2183" cy="634" r="5" fill="green" stroke="none" /><circle cx="1225" cy="2108" r="5" fill="green" stroke="none" /><circle cx="3068" cy="1189" r="5" fill="green" stroke="none" /><circle cx="3957" cy="1349" r="5" fill="green" stroke="none" /><circle cx="2277" cy="2119" r="5" fill="green" stroke="none" /><circle cx="2775" cy="1779" r="5" fill="green" stroke="none" /><circle cx="2271" cy="403" r="5" fill="green" stroke="none" /><circle cx="2659" cy="1445" r="5" fill="green" stroke="none" /><circle cx="3397" cy="2225" r="5" fill="green" stroke="none" /><circle cx="1280" cy="1763" r="5" fill="green" stroke="none" /><circle cx="2065" cy="141" r="5" fill="green" stroke="none" /><circle cx="3182" cy="1508" r="5" fill="green" stroke="none" /><circle cx="1377" cy="158" r="5" fill="green" stroke="none" /><circle cx="3058" cy="1326" r="5" fill="green" stroke="none" /><circle cx="1286" cy="1635" r="5" fill="green" stroke="none" /><circle cx="1889" cy="2125" r="5" fill="green" stroke="none" /><circle cx="2414" cy="2188" r="5" fill="green" stroke="none" /><circle cx="458" cy="1911" r="5" fill="green" stroke="none" /><circle cx="3341" cy="1486" r="5" fill="green" stroke="none" /><circle cx="881" cy="667" r="5" fill="green" stroke="none" /><circle cx="2464" cy="423" r="5" fill="green" stroke="none" /><circle cx="2834" cy="1774" r="5" fill="green" stroke="none" /><circle cx="1009" cy="2166" r="5" fill="green" stroke="none" /><circle cx="30" cy="2022" r="5" fill="green" stroke="none" /><circle cx="2040" cy="1857" r="5" fill="green" stroke="none" /><circle cx="238" cy="1207" r="5" fill="green" stroke="none" /><circle cx="1028" cy="193" r="5" fill="green" stroke="none" /><circle cx="302" cy="2278" r="5" fill="green" stroke="none" /><circle cx="1404" cy="1570" r="5" fill="green" stroke="none" /><circle cx="3747" cy="587" r="5" fill="green" stroke="none" /><circle cx="1150" cy="1280" r="5" fill="green" stroke="none" /><circle cx="3771" cy="2297" r="5" fill="green" stroke="none" /><circle cx="730" cy="1276" r="5" fill="green" stroke="none" /><circle cx="3787" cy="2189" r="5" fill="green" stroke="none" /><circle cx="2402" cy="122" r="5" fill="green" stroke="none" /><circle cx="399" cy="710" r="5" fill="green" stroke="none" /><circle cx="3760" cy="1346" r="5" fill="green" stroke="none" /><circle cx="2523" cy="1877" r="5" fill="green" stroke="none" /><circle cx="768" cy="1498" r="5" fill="green" stroke="none" /><circle cx="2862" cy="1298" r="5" fill="green" stroke="none" /><circle cx="475" cy="695" r="5" fill="green" stroke="none" /><circle cx="3751" cy="146" r="5" fill="green" stroke="none" /><circle cx="3072" cy="1318" r="5" fill="green" stroke="none" /><circle cx="2009" cy="1786" r="5" fill="green" stroke="none" /><circle cx="1849" cy="1168" r="5" fill="green" stroke="none" /><circle cx="3132" cy="1482" r="5" fill="green" stroke="none" /><circle cx="1758" cy="1433" r="5" fill="green" stroke="none" /><circle cx="512" cy="373" r="5" fill="green" stroke="none" /><circle cx="370" cy="1710" r="5" fill="green" stroke="none" /><circle cx="2824" cy="224" r="5" fill="green" stroke="none" /><circle cx="3242" cy="1854" r="5" fill="green" stroke="none" /><circle cx="2848" cy="1375" r="5" fill="green" stroke="none" /><circle cx="1707" cy="466" r="5" fill="green" stroke="none" /><circle cx="3620" cy="1936" r="5" fill="green" stroke="none" /><circle cx="3363" cy="212" r="5" fill="green" stroke="none" /><circle cx="2977" cy="1985" r="5" fill="green" stroke="none" /><circle cx="1211" cy="715" r="5" fill="green" stroke="none" /><circle cx="409" cy="2090" r="5" fill="green" stroke="none" /><circle cx="3262" cy="1264" r="5" fill="green" stroke="none" /><circle cx="856" cy="448" r="5" fill="green" stroke="none" /><circle cx="3408" cy="2183" r="5" fill="green" stroke="none" /><circle cx="3897" cy="11" r="5" fill="green" stroke="none" /><circle cx="3349" cy="1206" r="5" fill="green" stroke="none" /><circle cx="1755" cy="1242" r="5" fill="green" stroke="none" /><circle cx="1168" cy="1655" r="5" fill="green" stroke="none" /><circle cx="264" cy="1536" r="5" fill="green" stroke="none" /><circle cx="522" cy="1212" r="5" fill="green" stroke="none" /><circle cx="3485" cy="1370" r="5" fill="green" stroke="none" /><circle cx="1883" cy="1858" r="5" fill="green" stroke="none" /><circle cx="3292" cy="618" r="5" fill="green" stroke="none" /><circle cx="2470" cy="5" r="5" fill="green" stroke="none" /><circle cx="1117" cy="583" r="5" fill="green" stroke="none" /><circle cx="2312" cy="2267" r="5" fill="green" stroke="none" /><circle cx="1657" cy="2307" r="5" fill="green" stroke="none" /><circle cx="537" cy="1782" r="5" fill="green" stroke="none" /><circle cx="1487" cy="2285" r="5" fill="green" stroke="none" /><circle cx="1317" cy="542" r="5" fill="green" stroke="none" /><circle cx="3696" cy="1177" r="5" fill="green" stroke="none" /><circle cx="3249" cy="1234" r="5" fill="green" stroke="none" /><circle cx="94" cy="1925" r="5" fill="green" stroke="none" /><circle cx="1884" cy="1540" r="5" fill="green" stroke="none" /><circle cx="3337" cy="457" r="5" fill="green" stroke="none" /><circle cx="5" cy="2239" r="5" fill="green" stroke="none" /><circle cx="2988" cy="500" r="5" fill="green" stroke="none" /><circle cx="3899" cy="258" r="5" fill="green" stroke="none" /><circle cx="1591" cy="1380" r="5" fill="green" stroke="none" /><circle cx="831" cy="1562" r="5" fill="green" stroke="none" /><circle cx="2472" cy="1392" r="5" fill="green" stroke="none" /><circle cx="3789" cy="1894" r="5" fill="green" stroke="none" /><circle cx="2909" cy="665" r="5" fill="green" stroke="none" /><circle cx="3317" cy="1731" r="5" fill="green" stroke="none" /><circle cx="1153" cy="1760" r="5" fill="green" stroke="none" /><circle cx="870" cy="238" r="5" fill="green" stroke="none" /><circle cx="394" cy="1606" r="5" fill="green" stroke="none" /><circle cx="3111" cy="140" r="5" fill="green" stroke="none" /><circle cx="3768" cy="1913" r="5" fill="green" stroke="none" /><circle cx="2473" cy="1615" r="5" fill="green" stroke="none" /><circle cx="3208" cy="484" r="5" fill="green" stroke="none" /><circle cx="337" cy="500" r="5" fill="green" stroke="none" /><circle cx="1608" cy="1699" r="5" fill="green" stroke="none" /><circle cx="2676" cy="467" r="5" fill="green" stroke="none" /><circle cx="2546" cy="1801" r="5" fill="green" stroke="none" /><circle cx="1683" cy="2311" r="5" fill="green" stroke="none" /><circle cx="2856" cy="2088" r="5" fill="green" stroke="none" /><circle cx="3030" cy="1461" r="5" fill="green" stroke="none" /><circle cx="1971" cy="149" r="5" fill="green" stroke="none" /><circle cx="2596" cy="280" r="5" fill="green" stroke="none" /><circle cx="3507" cy="210" r="5" fill="green" stroke="none" /><circle cx="2463" cy="1834" r="5" fill="green" stroke="none" /><circle cx="1104" cy="1805" r="5" fill="green" stroke="none" /><circle cx="1947" cy="513" r="5" fill="green" stroke="none" /><circle cx="3439" cy="2255" r="5" fill="green" stroke="none" /><circle cx="3745" cy="2230" r="5" fill="green" stroke="none" /><circle cx="1230" cy="1820" r="5" fill="green" stroke="none" /><circle cx="3740" cy="2162" r="5" fill="green" stroke="none" /><circle cx="366" cy="228" r="5" fill="green" stroke="none" /><circle cx="544" cy="1688" r="5" fill="green" stroke="none" /><circle cx="1227" cy="1389" r="5" fill="green" stroke="none" /><circle cx="3287" cy="1528" r="5" fill="green" stroke="none" /><circle cx="3605" cy="1265" r="5" fill="green" stroke="none" /><circle cx="1177" cy="172" r="5" fill="green" stroke="none" /><circle cx="3415" cy="1949" r="5" fill="green" stroke="none" /><circle cx="3278" cy="1750" r="5" fill="green" stroke="none" /><circle cx="675" cy="335" r="5" fill="green" stroke="none" /><circle cx="2737" cy="1365" r="5" fill="green" stroke="none" /><circle cx="277" cy="636" r="5" fill="green" stroke="none" /><circle cx="3641" cy="2215" r="5" fill="green" stroke="none" /><circle cx="1049" cy="1324" r="5" fill="green" stroke="none" /><circle cx="2214" cy="177" r="5" fill="green" stroke="none" /><circle cx="702" cy="1766" r="5" fill="green" stroke="none" /><circle cx="495" cy="538" r="5" fill="green" stroke="none" /><circle cx="3706" cy="1714" r="5" fill="green" stroke="none" /><circle cx="1847" cy="466" r="5" fill="green" stroke="none" /><circle cx="3045" cy="1767" r="5" fill="green" stroke="none" /><circle cx="1954" cy="1899" r="5" fill="green" stroke="none" /><circle cx="2535" cy="519" r="5" fill="green" stroke="none" /><circle cx="3127" cy="487" r="5" fill="green" stroke="none" /><circle cx="2736" cy="1786" r="5" fill="green" stroke="none" /><circle cx="201" cy="3" r="5" fill="green" stroke="none" /><circle cx="830" cy="385" r="5" fill="green" stroke="none" /><circle cx="3388" cy="1700" r="5" fill="green" stroke="none" /><circle cx="2706" cy="1356" r="5" fill="green" stroke="none" /><circle cx="1673" cy="2242" r="5" fill="green" stroke="none" /><circle cx="1528" cy="1265" r="5" fill="green" stroke="none" /><circle cx="1921" cy="85" r="5" fill="green" stroke="none" /><circle cx="2393" cy="487" r="5" fill="green" stroke="none" /><circle cx="841" cy="1722" r="5" fill="green" stroke="none" /><circle cx="2382" cy="403" r="5" fill="green" stroke="none" /><circle cx="2959" cy="343" r="5" fill="green" stroke="none" /><circle cx="2377" cy="1981" r="5" fill="green" stroke="none" /><circle cx="1814" cy="196" r="5" fill="green" stroke="none" /><circle cx="1616" cy="1817" r="5" fill="green" stroke="none" /><circle cx="171" cy="385" r="5" fill="green" stroke="none" /><circle cx="1238" cy="1819" r="5" fill="green" stroke="none" /><circle cx="1136" cy="1658" r="5" fill="green" stroke="none" /><circle cx="1355" cy="1734" r="5" fill="green" stroke="none" /><circle cx="3439" cy="1454" r="5" fill="green" stroke="none" /><circle cx="1904" cy="2162" r="5" fill="green" stroke="none" /><circle cx="2252" cy="1241" r="5" fill="green" stroke="none" /><circle cx="2176" cy="1350" r="5" fill="green" stroke="none" /><circle cx="3603" cy="1189" r="5" fill="green" stroke="none" /><circle cx="427" cy="544" r="5" fill="green" stroke="none" /><circle cx="3686" cy="1202" r="5" fill="green" stroke="none" /><circle cx="3224" cy="677" r="5" fill="green" stroke="none" /><circle cx="3005" cy="1314" r="5" fill="green" stroke="none" /><circle cx="1825" cy="2210" r="5" fill="green" stroke="none" /><circle cx="3410" cy="1578" r="5" fill="green" stroke="none" /><circle cx="2541" cy="2030" r="5" fill="green" stroke="none" /><circle cx="2515" cy="1623" r="5" fill="green" stroke="none" /><circle cx="1710" cy="1217" r="5" fill="green" stroke="none" /><circle cx="2670" cy="598" r="5" fill="green" stroke="none" /><circle cx="1686" cy="505" r="5" fill="green" stroke="none" /><circle cx="2567" cy="1879" r="5" fill="green" stroke="none" /><circle cx="755" cy="1823" r="5" fill="green" stroke="none" /><circle cx="269" cy="1967" r="5" fill="green" stroke="none" /><circle cx="3330" cy="1837" r="5" fill="green" stroke="none" /><circle cx="1773" cy="324" r="5" fill="green" stroke="none" /><circle cx="1042" cy="336" r="5" fill="green" stroke="none" /><circle cx="3041" cy="1282" r="5" fill="green" stroke="none" /><circle cx="491" cy="344" r="5" fill="green" stroke="none" /><circle cx="1841" cy="2270" r="5" fill="green" stroke="none" /><circle cx="3639" cy="2137" r="5" fill="green" stroke="none" /><circle cx="3817" cy="1457" r="5" fill="green" stroke="none" /><circle cx="1317" cy="1660" r="5" fill="green" stroke="none" /><circle cx="1960" cy="2107" r="5" fill="green" stroke="none" /><circle cx="1664" cy="142" r="5" fill="green" stroke="none" /><circle cx="3895" cy="1864" r="5" fill="green" stroke="none" /><circle cx="1574" cy="720" r="5" fill="green" stroke="none" /><circle cx="3127" cy="2163" r="5" fill="green" stroke="none" /><circle cx="1914" cy="120" r="5" fill="green" stroke="none" /><circle cx="2484" cy="1204" r="5" fill="green" stroke="none" /><circle cx="635" cy="1560" r="5" fill="green" stroke="none" /><circle cx="599" cy="1333" r="5" fill="green" stroke="none" /><circle cx="737" cy="1242" r="5" fill="green" stroke="none" /><circle cx="1358" cy="509" r="5" fill="green" stroke="none" /><circle cx="2988" cy="1681" r="5" fill="green" stroke="none" /><circle cx="3008" cy="712" r="5" fill="green" stroke="none" /><circle cx="613" cy="92" r="5" fill="green" stroke="none" /><circle cx="2524" cy="1260" r="5" fill="green" stroke="none" /><circle cx="3223" cy="682" r="5" fill="green" stroke="none" /><circle cx="296" cy="1726" r="5" fill="green" stroke="none" /><circle cx="234" cy="339" r="5" fill="green" stroke="none" /><circle cx="1799" cy="430" r="5" fill="green" stroke="none" /><circle cx="512" cy="470" r="5" fill="green" stroke="none" /><circle cx="3081" cy="2037" r="5" fill="green" stroke="none" /><circle cx="3526" cy="558" r="5" fill="green" stroke="none" /><circle cx="1355" cy="1280" r="5" fill="green" stroke="none" /><circle cx="677" cy="2033" r="5" fill="green" stroke="none" /><circle cx="226" cy="1810" r="5" fill="green" stroke="none" /><circle cx="3664" cy="2298" r="5" fill="green" stroke="none" /><circle cx="1498" cy="469" r="5" fill="green" stroke="none" /><circle cx="3622" cy="2112" r="5" fill="green" stroke="none" /><circle cx="2759" cy="167" r="5" fill="green" stroke="none" /><circle cx="1608" cy="2089" r="5" fill="green" stroke="none" /><circle cx="719" cy="690" r="5" fill="green" stroke="none" /><circle cx="572" cy="1857" r="5" fill="green" stroke="none" /><circle cx="1152" cy="527" r="5" fill="green" stroke="none" /><circle cx="1802" cy="2143" r="5" fill="green" stroke="none" /><circle cx="1945" cy="420" r="5" fill="green" stroke="none" /><circle cx="827" cy="120" r="5" fill="green" stroke="none" /><circle cx="507" cy="1679" r="5" fill="green" stroke="none" /><circle cx="861" cy="1574" r="5" fill="green" stroke="none" /><circle cx="3957" cy="482" r="5" fill="green" stroke="none" /><circle cx="2402" cy="1779" r="5" fill="green" stroke="none" /><circle cx="2641" cy="1252" r="5" fill="green" stroke="none" /><circle cx="1433" cy="2095" r="5" fill="green" stroke="none" /><circle cx="2954" cy="2285" r="5" fill="green" stroke="none" /><circle cx="1244" cy="170" r="5" fill="green" stroke="none" /><circle cx="748" cy="442" r="5" fill="green" stroke="none" /><circle cx="2659" cy="237" r="5" fill="green" stroke="none" /><circle cx="3276" cy="1487" r="5" fill="green" stroke="none" /><circle cx="2712" cy="1466" r="5" fill="green" stroke="none" /><circle cx="3424" cy="171" r="5" fill="green" stroke="none" /><circle cx="1839" cy="25" r="5" fill="green" stroke="none" /><circle cx="1324" cy="2201" r="5" fill="green" stroke="none" /><circle cx="1905" cy="278" r="5" fill="green" stroke="none" /><circle cx="2640" cy="1284" r="5" fill="green" stroke="none" /><circle cx="1226" cy="227" r="5" fill="green" stroke="none" /><circle cx="338" cy="1822" r="5" fill="green" stroke="none" /><circle cx="2491" cy="465" r="5" fill="green" stroke="none" /><circle cx="406" cy="1760" r="5" fill="green" stroke="none" /><circle cx="3313" cy="2245" r="5" fill="green" stroke="none" /><circle cx="3806" cy="516" r="5" fill="green" stroke="none" /><circle cx="2767" cy="1948" r="5" fill="green" stroke="none" /><circle cx="2386" cy="432" r="5" fill="green" stroke="none" /><circle cx="1368" cy="2214" r="5" fill="green" stroke="none" /><circle cx="2270" cy="351" r="5" fill="green" stroke="none" /><circle cx="1913" cy="1964" r="5" fill="green" stroke="none" /><circle cx="2111" cy="2258" r="5" fill="green" stroke="none" /><circle cx="1697" cy="572" r="5" fill="green" stroke="none" /><circle cx="3547" cy="2203" r="5" fill="green" stroke="none" /><circle cx="370" cy="1954" r="5" fill="green" stroke="none" /><circle cx="3746" cy="19" r="5" fill="green" stroke="none" /><circle cx="3188" cy="1522" r="5" fill="green" stroke="none" /><circle cx="1691" cy="199" r="5" fill="green" stroke="none" /><circle cx="2764" cy="1753" r="5" fill="green" stroke="none" /><circle cx="1945" cy="1215" r="5" fill="green" stroke="none" /><circle cx="2443" cy="1302" r="5" fill="green" stroke="none" /><circle cx="161" cy="124" r="5" fill="green" stroke="none" /><circle cx="2293" cy="1215" r="5" fill="green" stroke="none" /><circle cx="1501" cy="1209" r="5" fill="green" stroke="none" /><circle cx="3155" cy="1347" r="5" fill="green" stroke="none" /><circle cx="788" cy="1949" r="5" fill="green" stroke="none" /><circle cx="500" cy="724" r="5" fill="green" stroke="none" /><circle cx="63" cy="152" r="5" fill="green" stroke="none" /><circle cx="3387" cy="1799" r="5" fill="green" stroke="none" /><circle cx="1788" cy="99" r="5" fill="green" stroke="none" /><circle cx="3271" cy="2046" r="5" fill="green" stroke="none" /><circle cx="2803" cy="1901" r="5" fill="green" stroke="none" /><circle cx="1891" cy="1944" r="5" fill="green" stroke="none" /><circle cx="288" cy="2114" r="5" fill="green" stroke="none" /><circle cx="1205" cy="1356" r="5" fill="green" stroke="none" /><circle cx="1480" cy="2312" r="5" fill="green" stroke="none" /><circle cx="3923" cy="256" r="5" fill="green" stroke="none" /><circle cx="355" cy="1682" r="5" fill="green" stroke="none" /><circle cx="2068" cy="2279" r="5" fill="green" stroke="none" /><circle cx="717" cy="1835" r="5" fill="green" stroke="none" /><circle cx="3260" cy="1476" r="5" fill="green" stroke="none" /><circle cx="586" cy="1962" r="5" fill="green" stroke="none" /><circle cx="3419" cy="490" r="5" fill="green" stroke="none" /><circle cx="1420" cy="385" r="5" fill="green" stroke="none" /><circle cx="3865" cy="1721" r="5" fill="green" stroke="none" /><circle cx="1446" cy="444" r="5" fill="green" stroke="none" /><circle cx="1005" cy="1613" r="5" fill="green" stroke="none" /><circle cx="868" cy="628" r="5" fill="green" stroke="none" /><circle cx="975" cy="727" r="5" fill="green" stroke="none" /><circle cx="1091" cy="525" r="5" fill="green" stroke="none" /><circle cx="1710" cy="1555" r="5" fill="green" stroke="none" /><circle cx="3237" cy="1921" r="5" fill="green" stroke="none" /><circle cx="1365" cy="1889" r="5" fill="green" stroke="none" /><circle cx="1431" cy="633" r="5" fill="green" stroke="none" /><circle cx="2671" cy="684" r="5" fill="green" stroke="none" /><circle cx="992" cy="642" r="5" fill="green" stroke="none" /><circle cx="186" cy="728" r="5" fill="green" stroke="none" /><circle cx="320" cy="696" r="5" fill="green" stroke="none" /><circle cx="687" cy="1600" r="5" fill="green" stroke="none" /><circle cx="2946" cy="199" r="5" fill="green" stroke="none" /><circle cx="2197" cy="1296" r="5" fill="green" stroke="none" /><circle cx="3162" cy="1214" r="5" fill="green" stroke="none" /><circle cx="2595" cy="1670" r="5" fill="green" stroke="none" /><circle cx="2611" cy="1517" r="5" fill="green" stroke="none" /><circle cx="544" cy="1705" r="5" fill="green" stroke="none" /><circle cx="3885" cy="241" r="5" fill="green" stroke="none" /><circle cx="1917" cy="160" r="5" fill="green" stroke="none" /><circle cx="1113" cy="480" r="5" fill="green" stroke="none" /><circle cx="2225" cy="1213" r="5" fill="green" stroke="none" /><circle cx="532" cy="1887" r="5" fill="green" stroke="none" /><circle cx="890" cy="1573" r="5" fill="green" stroke="none" /><circle cx="2600" cy="1168" r="5" fill="green" stroke="none" /><circle cx="1597" cy="2261" r="5" fill="green" stroke="none" /><circle cx="3115" cy="2244" r="5" fill="green" stroke="none" /><circle cx="907" cy="1568" r="5" fill="green" stroke="none" /><circle cx="3114" cy="46" r="5" fill="green" stroke="none" /><circle cx="1873" cy="2192" r="5" fill="green" stroke="none" /><circle cx="219" cy="16" r="5" fill="green" stroke="none" /><circle cx="3226" cy="1447" r="5" fill="green" stroke="none" /><circle cx="2583" cy="260" r="5" fill="green" stroke="none" /><circle cx="2447" cy="733" r="5" fill="green" stroke="none" /><circle cx="3733" cy="2253" r="5" fill="green" stroke="none" /><circle cx="176" cy="2176" r="5" fill="green" stroke="none" /><circle cx="837" cy="1574" r="5" fill="green" stroke="none" /><circle cx="1165" cy="731" r="5" fill="green" stroke="none" /><circle cx="1256" cy="1412" r="5" fill="green" stroke="none" /><circle cx="1899" cy="2238" r="5" fill="green" stroke="none" /><circle cx="3882" cy="159" r="5" fill="green" stroke="none" /><circle cx="257" cy="1790" r="5" fill="green" stroke="none" /><circle cx="1846" cy="1227" r="5" fill="green" stroke="none" /><circle cx="1754" cy="116" r="5" fill="green" stroke="none" /><circle cx="3472" cy="1586" r="5" fill="green" stroke="none" /><circle cx="2073" cy="1624" r="5" fill="green" stroke="none" /><circle cx="193" cy="85" r="5" fill="green" stroke="none" /><circle cx="3254" cy="2293" r="5" fill="green" stroke="none" /><circle cx="2844" cy="2060" r="5" fill="green" stroke="none" /><circle cx="2532" cy="357" r="5" fill="green" stroke="none" /><circle cx="2760" cy="377" r="5" fill="green" stroke="none" /><circle cx="2603" cy="1973" r="5" fill="green" stroke="none" /><circle cx="1890" cy="1162" r="5" fill="green" stroke="none" /><circle cx="1420" cy="328" r="5" fill="green" stroke="none" /><circle cx="1659" cy="1608" r="5" fill="green" stroke="none" /><circle cx="3029" cy="1358" r="5" fill="green" stroke="none" /><circle cx="1231" cy="1204" r="5" fill="green" stroke="none" /><circle cx="2047" cy="2180" r="5" fill="green" stroke="none" /><circle cx="2302" cy="2311" r="5" fill="green" stroke="none" /><circle cx="2481" cy="2248" r="5" fill="green" stroke="none" /><circle cx="2594" cy="1351" r="5" fill="green" stroke="none" /><circle cx="1439" cy="1875" r="5" fill="green" stroke="none" /><circle cx="900" cy="2038" r="5" fill="green" stroke="none" /><circle cx="2174" cy="1370" r="5" fill="green" stroke="none" /><circle cx="967" cy="1875" r="5" fill="green" stroke="none" /><circle cx="2028" cy="386" r="5" fill="green" stroke="none" /><circle cx="947" cy="2209" r="5" fill="green" stroke="none" /><circle cx="3430" cy="126" r="5" fill="green" stroke="none" /><circle cx="768" cy="13" r="5" fill="green" stroke="none" /><circle cx="1831" cy="1340" r="5" fill="green" stroke="none" /><circle cx="2600" cy="1981" r="5" fill="green" stroke="none" /><circle cx="1802" cy="350" r="5" fill="green" stroke="none" /><circle cx="2126" cy="1527" r="5" fill="green" stroke="none" /><circle cx="832" cy="2242" r="5" fill="green" stroke="none" /><circle cx="188" cy="39" r="5" fill="green" stroke="none" /><circle cx="469" cy="165" r="5" fill="green" stroke="none" /><circle cx="1175" cy="513" r="5" fill="green" stroke="none" /><circle cx="3568" cy="2075" r="5" fill="green" stroke="none" /><circle cx="907" cy="1559" r="5" fill="green" stroke="none" /><circle cx="1643" cy="1698" r="5" fill="green" stroke="none" /><circle cx="1382" cy="1477" r="5" fill="green" stroke="none" /><circle cx="2303" cy="2114" r="5" fill="green" stroke="none" /><circle cx="2403" cy="1370" r="5" fill="green" stroke="none" /><circle cx="2815" cy="1725" r="5" fill="green" stroke="none" /><circle cx="1382" cy="1843" r="5" fill="green" stroke="none" /><circle cx="3543" cy="310" r="5" fill="green" stroke="none" /><circle cx="3013" cy="487" r="5" fill="green" stroke="none" /><circle cx="1440" cy="2120" r="5" fill="green" stroke="none" /><circle cx="633" cy="1314" r="5" fill="green" stroke="none" /><circle cx="1628" cy="1931" r="5" fill="green" stroke="none" /><circle cx="3737" cy="722" r="5" fill="green" stroke="none" /><circle cx="2432" cy="1706" r="5" fill="green" stroke="none" /><circle cx="910" cy="1485" r="5" fill="green" stroke="none" /><circle cx="3477" cy="1573" r="5" fill="green" stroke="none" /><circle cx="658" cy="2183" r="5" fill="green" stroke="none" /><circle cx="116" cy="1931" r="5" fill="green" stroke="none" /><circle cx="1976" cy="1684" r="5" fill="green" stroke="none" /><circle cx="300" cy="1738" r="5" fill="green" stroke="none" /><circle cx="2959" cy="1767" r="5" fill="green" stroke="none" /><circle cx="3677" cy="2148" r="5" fill="green" stroke="none" /><circle cx="3288" cy="1714" r="5" fill="green" stroke="none" /><circle cx="2028" cy="1844" r="5" fill="green" stroke="none" /><circle cx="3767" cy="316" r="5" fill="green" stroke="none" /><circle cx="2963" cy="1856" r="5" fill="green" stroke="none" /><circle cx="3913" cy="1608" r="5" fill="green" stroke="none" /><circle cx="3416" cy="217" r="5" fill="green" stroke="none" /><circle cx="2854" cy="1333" r="5" fill="green" stroke="none" /><circle cx="2964" cy="1375" r="5" fill="green" stroke="none" /><circle cx="604" cy="2151" r="5" fill="green" stroke="none" /><circle cx="1323" cy="545" r="5" fill="green" stroke="none" /><circle cx="2910" cy="1597" r="5" fill="green" stroke="none" /><circle cx="1003" cy="2262" r="5" fill="green" stroke="none" /><circle cx="1273" cy="1681" r="5" fill="green" stroke="none" /><circle cx="13" cy="1954" r="5" fill="green" stroke="none" /><circle cx="873" cy="2103" r="5" fill="green" stroke="none" /><circle cx="1744" cy="1645" r="5" fill="green" stroke="none" /><circle cx="2976" cy="2251" r="5" fill="green" stroke="none" /><circle cx="2574" cy="148" r="5" fill="green" stroke="none" /><circle cx="824" cy="68" r="5" fill="green" stroke="none" /><circle cx="1714" cy="2132" r="5" fill="green" stroke="none" /><circle cx="3542" cy="519" r="5" fill="green" stroke="none" /><circle cx="2322" cy="2160" r="5" fill="green" stroke="none" /><circle cx="3351" cy="203" r="5" fill="green" stroke="none" /><circle cx="2179" cy="43" r="5" fill="green" stroke="none" /><circle cx="103" cy="1629" r="5" fill="green" stroke="none" /><circle cx="641" cy="1654" r="5" fill="green" stroke="none" /><circle cx="103" cy="1561" r="5" fill="green" stroke="none" /><circle cx="190" cy="510" r="5" fill="green" stroke="none" /><circle cx="3097" cy="622" r="5" fill="green" stroke="none" /><circle cx="3250" cy="2142" r="5" fill="green" stroke="none" /><circle cx="3410" cy="9" r="5" fill="green" stroke="none" /><circle cx="3057" cy="2179" r="5" fill="green" stroke="none" /><circle cx="3398" cy="1706" r="5" fill="green" stroke="none" /><circle cx="2720" cy="725" r="5" fill="green" stroke="none" /><circle cx="1308" cy="315" r="5" fill="green" stroke="none" /><circle cx="246" cy="2088" r="5" fill="green" stroke="none" /><circle cx="3689" cy="2052" r="5" fill="green" stroke="none" /><circle cx="690" cy="2305" r="5" fill="green" stroke="none" /><circle cx="2175" cy="2027" r="5" fill="green" stroke="none" /><circle cx="1435" cy="566" r="5" fill="green" stroke="none" /><circle cx="544" cy="308" r="5" fill="green" stroke="none" /><circle cx="1467" cy="2312" r="5" fill="green" stroke="none" /><circle cx="1154" cy="88" r="5" fill="green" stroke="none" /><circle cx="91" cy="537" r="5" fill="green" stroke="none" /><circle cx="1655" cy="2272" r="5" fill="green" stroke="none" /><circle cx="310" cy="111" r="5" fill="green" stroke="none" /><circle cx="1213" cy="649" r="5" fill="green" stroke="none" /><circle cx="396" cy="456" r="5" fill="green" stroke="none" /><circle cx="460" cy="436" r="5" fill="green" stroke="none" /><circle cx="982" cy="53" r="5" fill="green" stroke="none" /><circle cx="23" cy="1296" r="5" fill="green" stroke="none" /><circle cx="2137" cy="1817" r="5" fill="green" stroke="none" /><circle cx="2761" cy="369" r="5" fill="green" stroke="none" /><circle cx="886" cy="2147" r="5" fill="green" stroke="none" /><circle cx="3594" cy="1424" r="5" fill="green" stroke="none" /><circle cx="3348" cy="103" r="5" fill="green" stroke="none" /><circle cx="219" cy="430" r="5" fill="green" stroke="none" /><circle cx="1735" cy="427" r="5" fill="green" stroke="none" /><circle cx="2878" cy="244" r="5" fill="green" stroke="none" /><circle cx="2974" cy="555" r="5" fill="green" stroke="none" /><circle cx="1694" cy="506" r="5" fill="green" stroke="none" /><circle cx="3409" cy="1544" r="5" fill="green" stroke="none" /><circle cx="1625" cy="1608" r="5" fill="green" stroke="none" /><circle cx="1025" cy="48" r="5" fill="green" stroke="none" /><circle cx="2068" cy="1298" r="5" fill="green" stroke="none" /><circle cx="234" cy="2314" r="5" fill="green" stroke="none" /><circle cx="1328" cy="1683" r="5" fill="green" stroke="none" /><circle cx="3575" cy="1966" r="5" fill="green" stroke="none" /><circle cx="1968" cy="287" r="5" fill="green" stroke="none" /><circle cx="1776" cy="2170" r="5" fill="green" stroke="none" /><circle cx="612" cy="2304" r="5" fill="green" stroke="none" /><circle cx="553" cy="1588" r="5" fill="green" stroke="none" /><circle cx="1206" cy="1360" r="5" fill="green" stroke="none" /><circle cx="135" cy="1960" r="5" fill="green" stroke="none" /><circle cx="3025" cy="527" r="5" fill="green" stroke="none" /><circle cx="2086" cy="424" r="5" fill="green" stroke="none" /><circle cx="75" cy="2271" r="5" fill="green" stroke="none" /><circle cx="437" cy="614" r="5" fill="green" stroke="none" /><circle cx="2020" cy="101" r="5" fill="green" stroke="none" /><circle cx="939" cy="1537" r="5" fill="green" stroke="none" /><circle cx="499" cy="364" r="5" fill="green" stroke="none" /><circle cx="3183" cy="2291" r="5" fill="green" stroke="none" /><circle cx="689" cy="1716" r="5" fill="green" stroke="none" /><circle cx="2992" cy="503" r="5" fill="green" stroke="none" /><circle cx="3357" cy="2012" r="5" fill="green" stroke="none" /><circle cx="3335" cy="456" r="5" fill="green" stroke="none" /><circle cx="682" cy="704" r="5" fill="green" stroke="none" /><circle cx="523" cy="2272" r="5" fill="green" stroke="none" /><circle cx="898" cy="601" r="5" fill="green" stroke="none" /><circle cx="2518" cy="150" r="5" fill="green" stroke="none" /><circle cx="1808" cy="2172" r="5" fill="green" stroke="none" /><circle cx="3716" cy="2287" r="5" fill="green" stroke="none" /><circle cx="2063" cy="2243" r="5" fill="green" stroke="none" /><circle cx="2735" cy="285" r="5" fill="green" stroke="none" /><circle cx="3513" cy="1512" r="5" fill="green" stroke="none" /><circle cx="1201" cy="2103" r="5" fill="green" stroke="none" /><circle cx="2882" cy="19" r="5" fill="green" stroke="none" /><circle cx="1443" cy="168" r="5" fill="green" stroke="none" /><circle cx="1589" cy="1312" r="5" fill="green" stroke="none" /><circle cx="2674" cy="1984" r="5" fill="green" stroke="none" /><circle cx="2336" cy="1699" r="5" fill="green" stroke="none" /><circle cx="1394" cy="1209" r="5" fill="red" stroke="none" /><circle cx="1414" cy="1209" r="5" fill="red" stroke="none" /><circle cx="1434" cy="1209" r="5" fill="red" stroke="none" /><circle cx="1454" cy="1209" r="5" fill="red" stroke="none" /><circle cx="1474" cy="1209" r="5" fill="red" stroke="none" /><circle cx="1494" cy="1209" r="5" fill="red" stroke="none" /><circle cx="1514" cy="1209" r="5" fill="red" stroke="none" /><circle cx="1534" cy="1209" r="5" fill="red" stroke="none" /><circle cx="1394" cy="687" r="5" fill="red" stroke="none" /><circle cx="1414" cy="687" r="5" fill="red" stroke="none" /><circle cx="1434" cy="687" r="5" fill="red" stroke="none" /><circle cx="1454" cy="687" r="5" fill="red" stroke="none" /><circle cx="1474" cy="687" r="5" fill="red" stroke="none" /><circle cx="1494" cy="687" r="5" fill="red" stroke="none" /><circle cx="1514" cy="687" r="5" fill="red" stroke="none" /><circle cx="1534" cy="687" r="5" fill="red" stroke="none" /><circle cx="1554" cy="687" r="5" fill="red" stroke="none" /></svg>