<svg viewBox="0 0 6887 3930" xmlns="http://www.w3.org/2000/svg"><rect x="0" y="0" width="6887" height="3930" fill="lightyellow" stroke="none "/><rect x="5516" y="3017" width="590" height="498" fill="white" stroke="black "/><circle cx="1460" cy="30" r="5" fill="green" stroke="none" /><circle cx="2966" cy="2792" r="5" fill="green" stroke="none" /><circle cx="6045" cy="3647" r="5" fill="green" stroke="none" /><circle cx="5090" cy="3449" r="5" fill="green" stroke="none" /><circle cx="3252" cy="3056" r="5" fill="green" stroke="none" /><circle cx="6730" cy="2892" r="5" fill="green" stroke="none" /><circle cx="1814" cy="1542" r="5" fill="green" stroke="none" /><circle cx="4087" cy="821" r="5" fill="green" stroke="none" /><circle cx="1607" cy="428" r="5" fill="green" stroke="none" /><circle cx="5379" cy="2052" r="5" fill="green" stroke="none" /><circle cx="3384" cy="3362" r="5" fill="green" stroke="none" /><circle cx="626" cy="3646" r="5" fill="green" stroke="none" /><circle cx="6337" cy="972" r="5" fill="green" stroke="none" /><circle cx="309" cy="1716" r="5" fill="green" stroke="none" /><circle cx="4308" cy="1122" r="5" fill="green" stroke="none" /><circle cx="1652" cy="2563" r="5" fill="green" stroke="none" /><circle cx="2848" cy="3325" r="5" fill="green" stroke="none" /><circle cx="1904" cy="2518" r="5" fill="green" stroke="none" /><circle cx="3027" cy="3368" r="5" fill="green" stroke="none" /><circle cx="6704" cy="2801" r="5" fill="green" stroke="none" /><circle cx="357" cy="3909" r="5" fill="green" stroke="none" /><circle cx="5048" cy="2560" r="5" fill="green" stroke="none" /><circle cx="3163" cy="3563" r="5" fill="green" stroke="none" /><circle cx="845" cy="3802" r="5" fill="green" stroke="none" /><circle cx="5042" cy="310" r="5" fill="green" stroke="none" /><circle cx="5219" cy="2936" r="5" fill="green" stroke="none" /><circle cx="4007" cy="1981" r="5" fill="green" stroke="none" /><circle cx="1606" cy="1616" r="5" fill="green" stroke="none" /><circle cx="4663" cy="1857" r="5" fill="green" stroke="none" /><circle cx="8" cy="1188" r="5" fill="green" stroke="none" /><circle cx="4415" cy="2360" r="5" fill="green" stroke="none" /><circle cx="5413" cy="3603" r="5" fill="green" stroke="none" /><circle cx="4143" cy="3020" r="5" fill="green" stroke="none" /><circle cx="3502" cy="3022" r="5" fill="green" stroke="none" /><circle cx="6540" cy="2820" r="5" fill="green" stroke="none" /><circle cx="245" cy="3764" r="5" fill="green" stroke="none" /><circle cx="3156" cy="2039" r="5" fill="green" stroke="none" /><circle cx="3730" cy="1652" r="5" fill="green" stroke="none" /><circle cx="1580" cy="3705" r="5" fill="green" stroke="none" /><circle cx="3981" cy="1707" r="5" fill="green" stroke="none" /><circle cx="319" cy="1165" r="5" fill="green" stroke="none" /><circle cx="5309" cy="577" r="5" fill="green" stroke="none" /><circle cx="4304" cy="3163" r="5" fill="green" stroke="none" /><circle cx="5123" cy="1297" r="5" fill="green" stroke="none" /><circle cx="3785" cy="1231" r="5" fill="green" stroke="none" /><circle cx="4736" cy="2318" r="5" fill="green" stroke="none" /><circle cx="5601" cy="668" r="5" fill="green" stroke="none" /><circle cx="5177" cy="2804" r="5" fill="green" stroke="none" /><circle cx="6190" cy="2833" r="5" fill="green" stroke="none" /><circle cx="4302" cy="540" r="5" fill="green" stroke="none" /><circle cx="4920" cy="2169" r="5" fill="green" stroke="none" /><circle cx="904" cy="3672" r="5" fill="green" stroke="none" /><circle cx="4380" cy="2931" r="5" fill="green" stroke="none" /><circle cx="2018" cy="223" r="5" fill="green" stroke="none" /><circle cx="2314" cy="2269" r="5" fill="green" stroke="none" /><circle cx="6534" cy="421" r="5" fill="green" stroke="none" /><circle cx="2373" cy="927" r="5" fill="green" stroke="none" /><circle cx="6085" cy="2720" r="5" fill="green" stroke="none" /><circle cx="1297" cy="3512" r="5" fill="green" stroke="none" /><circle cx="6494" cy="3648" r="5" fill="green" stroke="none" /><circle cx="6123" cy="3869" r="5" fill="green" stroke="none" /><circle cx="3917" cy="1023" r="5" fill="green" stroke="none" /><circle cx="4902" cy="243" r="5" fill="green" stroke="none" /><circle cx="1195" cy="2284" r="5" fill="green" stroke="none" /><circle cx="4367" cy="3286" r="5" fill="green" stroke="none" /><circle cx="5080" cy="1130" r="5" fill="green" stroke="none" /><circle cx="485" cy="1290" r="5" fill="green" stroke="none" /><circle cx="4841" cy="355" r="5" fill="green" stroke="none" /><circle cx="904" cy="2612" r="5" fill="green" stroke="none" /><circle cx="4655" cy="2514" r="5" fill="green" stroke="none" /><circle cx="349" cy="3920" r="5" fill="green" stroke="none" /><circle cx="2306" cy="1011" r="5" fill="green" stroke="none" /><circle cx="2404" cy="397" r="5" fill="green" stroke="none" /><circle cx="4739" cy="426" r="5" fill="green" stroke="none" /><circle cx="4317" cy="3881" r="5" fill="green" stroke="none" /><circle cx="6683" cy="2972" r="5" fill="green" stroke="none" /><circle cx="4844" cy="2269" r="5" fill="green" stroke="none" /><circle cx="3320" cy="2038" r="5" fill="green" stroke="none" /><circle cx="2399" cy="1022" r="5" fill="green" stroke="none" /><circle cx="3893" cy="309" r="5" fill="green" stroke="none" /><circle cx="4599" cy="2955" r="5" fill="green" stroke="none" /><circle cx="5819" cy="2492" r="5" fill="green" stroke="none" /><circle cx="6528" cy="443" r="5" fill="green" stroke="none" /><circle cx="5710" cy="2705" r="5" fill="green" stroke="none" /><circle cx="4426" cy="3044" r="5" fill="green" stroke="none" /><circle cx="6044" cy="1864" r="5" fill="green" stroke="none" /><circle cx="3178" cy="1493" r="5" fill="green" stroke="none" /><circle cx="4683" cy="3546" r="5" fill="green" stroke="none" /><circle cx="5950" cy="3695" r="5" fill="green" stroke="none" /><circle cx="2248" cy="474" r="5" fill="green" stroke="none" /><circle cx="742" cy="3736" r="5" fill="green" stroke="none" /><circle cx="6792" cy="242" r="5" fill="green" stroke="none" /><circle cx="4795" cy="2468" r="5" fill="green" stroke="none" /><circle cx="2371" cy="3890" r="5" fill="green" stroke="none" /><circle cx="4547" cy="2533" r="5" fill="green" stroke="none" /><circle cx="3357" cy="286" r="5" fill="green" stroke="none" /><circle cx="2232" cy="3900" r="5" fill="green" stroke="none" /><circle cx="6466" cy="2118" r="5" fill="green" stroke="none" /><circle cx="3943" cy="2498" r="5" fill="green" stroke="none" /><circle cx="3632" cy="2102" r="5" fill="green" stroke="none" /><circle cx="3609" cy="1017" r="5" fill="green" stroke="none" /><circle cx="3202" cy="2607" r="5" fill="green" stroke="none" /><circle cx="2083" cy="703" r="5" fill="green" stroke="none" /><circle cx="3088" cy="3419" r="5" fill="green" stroke="none" /><circle cx="2700" cy="2066" r="5" fill="green" stroke="none" /><circle cx="3489" cy="2154" r="5" fill="green" stroke="none" /><circle cx="386" cy="1570" r="5" fill="green" stroke="none" /><circle cx="3395" cy="2501" r="5" fill="green" stroke="none" /><circle cx="4192" cy="2410" r="5" fill="green" stroke="none" /><circle cx="2223" cy="252" r="5" fill="green" stroke="none" /><circle cx="3468" cy="3645" r="5" fill="green" stroke="none" /><circle cx="6318" cy="3195" r="5" fill="green" stroke="none" /><circle cx="5175" cy="2504" r="5" fill="green" stroke="none" /><circle cx="593" cy="1786" r="5" fill="green" stroke="none" /><circle cx="2884" cy="3884" r="5" fill="green" stroke="none" /><circle cx="3080" cy="936" r="5" fill="green" stroke="none" /><circle cx="4907" cy="2608" r="5" fill="green" stroke="none" /><circle cx="218" cy="2549" r="5" fill="green" stroke="none" /><circle cx="1962" cy="734" r="5" fill="green" stroke="none" /><circle cx="4390" cy="2930" r="5" fill="green" stroke="none" /><circle cx="3728" cy="794" r="5" fill="green" stroke="none" /><circle cx="6753" cy="1719" r="5" fill="green" stroke="none" /><circle cx="5750" cy="344" r="5" fill="green" stroke="none" /><circle cx="2761" cy="3384" r="5" fill="green" stroke="none" /><circle cx="5671" cy="2680" r="5" fill="green" stroke="none" /><circle cx="1402" cy="376" r="5" fill="green" stroke="none" /><circle cx="4885" cy="1832" r="5" fill="green" stroke="none" /><circle cx="4326" cy="1896" r="5" fill="green" stroke="none" /><circle cx="3552" cy="1738" r="5" fill="green" stroke="none" /><circle cx="2836" cy="2035" r="5" fill="green" stroke="none" /><circle cx="1985" cy="2364" r="5" fill="green" stroke="none" /><circle cx="6251" cy="3829" r="5" fill="green" stroke="none" /><circle cx="6064" cy="1506" r="5" fill="green" stroke="none" /><circle cx="4816" cy="2425" r="5" fill="green" stroke="none" /><circle cx="4373" cy="1510" r="5" fill="green" stroke="none" /><circle cx="859" cy="2472" r="5" fill="green" stroke="none" /><circle cx="6756" cy="1228" r="5" fill="green" stroke="none" /><circle cx="6753" cy="2698" r="5" fill="green" stroke="none" /><circle cx="3837" cy="1116" r="5" fill="green" stroke="none" /><circle cx="4521" cy="620" r="5" fill="green" stroke="none" /><circle cx="4939" cy="2751" r="5" fill="green" stroke="none" /><circle cx="6445" cy="768" r="5" fill="green" stroke="none" /><circle cx="4406" cy="693" r="5" fill="green" stroke="none" /><circle cx="537" cy="791" r="5" fill="green" stroke="none" /><circle cx="5013" cy="327" r="5" fill="green" stroke="none" /><circle cx="6402" cy="318" r="5" fill="green" stroke="none" /><circle cx="6449" cy="3543" r="5" fill="green" stroke="none" /><circle cx="892" cy="3500" r="5" fill="green" stroke="none" /><circle cx="4330" cy="65" r="5" fill="green" stroke="none" /><circle cx="4750" cy="957" r="5" fill="green" stroke="none" /><circle cx="6773" cy="292" r="5" fill="green" stroke="none" /><circle cx="2743" cy="2674" r="5" fill="green" stroke="none" /><circle cx="6598" cy="3914" r="5" fill="green" stroke="none" /><circle cx="4433" cy="1948" r="5" fill="green" stroke="none" /><circle cx="3966" cy="3573" r="5" fill="green" stroke="none" /><circle cx="166" cy="3892" r="5" fill="green" stroke="none" /><circle cx="3479" cy="3654" r="5" fill="green" stroke="none" /><circle cx="4228" cy="3082" r="5" fill="green" stroke="none" /><circle cx="6383" cy="1604" r="5" fill="green" stroke="none" /><circle cx="996" cy="3537" r="5" fill="green" stroke="none" /><circle cx="5562" cy="818" r="5" fill="green" stroke="none" /><circle cx="5480" cy="628" r="5" fill="green" stroke="none" /><circle cx="3693" cy="3070" r="5" fill="green" stroke="none" /><circle cx="5812" cy="1814" r="5" fill="green" stroke="none" /><circle cx="6717" cy="3873" r="5" fill="green" stroke="none" /><circle cx="6520" cy="186" r="5" fill="green" stroke="none" /><circle cx="2806" cy="695" r="5" fill="green" stroke="none" /><circle cx="793" cy="30" r="5" fill="green" stroke="none" /><circle cx="5374" cy="2849" r="5" fill="green" stroke="none" /><circle cx="437" cy="1673" r="5" fill="green" stroke="none" /><circle cx="2070" cy="2385" r="5" fill="green" stroke="none" /><circle cx="5395" cy="3681" r="5" fill="green" stroke="none" /><circle cx="6778" cy="3821" r="5" fill="green" stroke="none" /><circle cx="3565" cy="3274" r="5" fill="green" stroke="none" /><circle cx="3448" cy="2871" r="5" fill="green" stroke="none" /><circle cx="1956" cy="1744" r="5" fill="green" stroke="none" /><circle cx="2755" cy="3180" r="5" fill="green" stroke="none" /><circle cx="4113" cy="561" r="5" fill="green" stroke="none" /><circle cx="3063" cy="1314" r="5" fill="green" stroke="none" /><circle cx="573" cy="46" r="5" fill="green" stroke="none" /><circle cx="3150" cy="2888" r="5" fill="green" stroke="none" /><circle cx="6221" cy="801" r="5" fill="green" stroke="none" /><circle cx="4341" cy="668" r="5" fill="green" stroke="none" /><circle cx="5219" cy="2686" r="5" fill="green" stroke="none" /><circle cx="4754" cy="403" r="5" fill="green" stroke="none" /><circle cx="6861" cy="2474" r="5" fill="green" stroke="none" /><circle cx="3259" cy="3528" r="5" fill="green" stroke="none" /><circle cx="1846" cy="2724" r="5" fill="green" stroke="none" /><circle cx="959" cy="3557" r="5" fill="green" stroke="none" /><circle cx="4865" cy="1891" r="5" fill="green" stroke="none" /><circle cx="2188" cy="1394" r="5" fill="green" stroke="none" /><circle cx="388" cy="2703" r="5" fill="green" stroke="none" /><circle cx="2647" cy="1253" r="5" fill="green" stroke="none" /><circle cx="2354" cy="2446" r="5" fill="green" stroke="none" /><circle cx="5166" cy="890" r="5" fill="green" stroke="none" /><circle cx="1426" cy="2650" r="5" fill="green" stroke="none" /><circle cx="4440" cy="1668" r="5" fill="green" stroke="none" /><circle cx="1543" cy="88" r="5" fill="green" stroke="none" /><circle cx="766" cy="2752" r="5" fill="green" stroke="none" /><circle cx="4603" cy="2041" r="5" fill="green" stroke="none" /><circle cx="4659" cy="2733" r="5" fill="green" stroke="none" /><circle cx="4337" cy="3292" r="5" fill="green" stroke="none" /><circle cx="5276" cy="2263" r="5" fill="green" stroke="none" /><circle cx="5832" cy="2966" r="5" fill="green" stroke="none" /><circle cx="1805" cy="2534" r="5" fill="green" stroke="none" /><circle cx="6869" cy="814" r="5" fill="green" stroke="none" /><circle cx="2406" cy="3660" r="5" fill="green" stroke="none" /><circle cx="4172" cy="572" r="5" fill="green" stroke="none" /><circle cx="3708" cy="245" r="5" fill="green" stroke="none" /><circle cx="4644" cy="3455" r="5" fill="green" stroke="none" /><circle cx="766" cy="903" r="5" fill="green" stroke="none" /><circle cx="1040" cy="66" r="5" fill="green" stroke="none" /><circle cx="6054" cy="1680" r="5" fill="green" stroke="none" /><circle cx="6025" cy="1355" r="5" fill="green" stroke="none" /><circle cx="2205" cy="1387" r="5" fill="green" stroke="none" /><circle cx="1921" cy="2312" r="5" fill="green" stroke="none" /><circle cx="3452" cy="2223" r="5" fill="green" stroke="none" /><circle cx="883" cy="522" r="5" fill="green" stroke="none" /><circle cx="4440" cy="1624" r="5" fill="green" stroke="none" /><circle cx="5339" cy="3561" r="5" fill="green" stroke="none" /><circle cx="3856" cy="3100" r="5" fill="green" stroke="none" /><circle cx="3734" cy="241" r="5" fill="green" stroke="none" /><circle cx="5095" cy="686" r="5" fill="green" stroke="none" /><circle cx="6786" cy="937" r="5" fill="green" stroke="none" /><circle cx="632" cy="3146" r="5" fill="green" stroke="none" /><circle cx="6347" cy="2537" r="5" fill="green" stroke="none" /><circle cx="5357" cy="230" r="5" fill="green" stroke="none" /><circle cx="2740" cy="2228" r="5" fill="green" stroke="none" /><circle cx="2274" cy="503" r="5" fill="green" stroke="none" /><circle cx="5414" cy="2958" r="5" fill="green" stroke="none" /><circle cx="4466" cy="989" r="5" fill="green" stroke="none" /><circle cx="6108" cy="1276" r="5" fill="green" stroke="none" /><circle cx="6464" cy="782" r="5" fill="green" stroke="none" /><circle cx="3964" cy="1715" r="5" fill="green" stroke="none" /><circle cx="700" cy="3735" r="5" fill="green" stroke="none" /><circle cx="5948" cy="1506" r="5" fill="green" stroke="none" /><circle cx="4589" cy="3902" r="5" fill="green" stroke="none" /><circle cx="1370" cy="990" r="5" fill="green" stroke="none" /><circle cx="4704" cy="3852" r="5" fill="green" stroke="none" /><circle cx="6465" cy="3195" r="5" fill="green" stroke="none" /><circle cx="3988" cy="459" r="5" fill="green" stroke="none" /><circle cx="1881" cy="3889" r="5" fill="green" stroke="none" /><circle cx="1154" cy="1766" r="5" fill="green" stroke="none" /><circle cx="3728" cy="2151" r="5" fill="green" stroke="none" /><circle cx="3155" cy="3179" r="5" fill="green" stroke="none" /><circle cx="1561" cy="1280" r="5" fill="green" stroke="none" /><circle cx="4981" cy="2642" r="5" fill="green" stroke="none" /><circle cx="1451" cy="1372" r="5" fill="green" stroke="none" /><circle cx="2969" cy="1986" r="5" fill="green" stroke="none" /><circle cx="5661" cy="112" r="5" fill="green" stroke="none" /><circle cx="2540" cy="2724" r="5" fill="green" stroke="none" /><circle cx="5461" cy="3753" r="5" fill="green" stroke="none" /><circle cx="4721" cy="3319" r="5" fill="green" stroke="none" /><circle cx="696" cy="2734" r="5" fill="green" stroke="none" /><circle cx="6307" cy="294" r="5" fill="green" stroke="none" /><circle cx="2795" cy="2707" r="5" fill="green" stroke="none" /><circle cx="229" cy="2299" r="5" fill="green" stroke="none" /><circle cx="3366" cy="3730" r="5" fill="green" stroke="none" /><circle cx="5836" cy="1592" r="5" fill="green" stroke="none" /><circle cx="1916" cy="2484" r="5" fill="green" stroke="none" /><circle cx="3798" cy="2400" r="5" fill="green" stroke="none" /><circle cx="2431" cy="3481" r="5" fill="green" stroke="none" /><circle cx="1853" cy="851" r="5" fill="green" stroke="none" /><circle cx="4164" cy="2571" r="5" fill="green" stroke="none" /><circle cx="3829" cy="3268" r="5" fill="green" stroke="none" /><circle cx="1574" cy="2534" r="5" fill="green" stroke="none" /><circle cx="5348" cy="328" r="5" fill="green" stroke="none" /><circle cx="1312" cy="3588" r="5" fill="green" stroke="none" /><circle cx="5735" cy="1901" r="5" fill="green" stroke="none" /><circle cx="457" cy="149" r="5" fill="green" stroke="none" /><circle cx="5710" cy="1909" r="5" fill="green" stroke="none" /><circle cx="4113" cy="1559" r="5" fill="green" stroke="none" /><circle cx="3549" cy="3601" r="5" fill="green" stroke="none" /><circle cx="3458" cy="3663" r="5" fill="green" stroke="none" /><circle cx="4831" cy="3317" r="5" fill="green" stroke="none" /><circle cx="3892" cy="342" r="5" fill="green" stroke="none" /><circle cx="2820" cy="2274" r="5" fill="green" stroke="none" /><circle cx="1531" cy="2928" r="5" fill="green" stroke="none" /><circle cx="5123" cy="2461" r="5" fill="green" stroke="none" /><circle cx="6738" cy="176" r="5" fill="green" stroke="none" /><circle cx="5118" cy="3155" r="5" fill="green" stroke="none" /><circle cx="2591" cy="3670" r="5" fill="green" stroke="none" /><circle cx="4447" cy="1632" r="5" fill="green" stroke="none" /><circle cx="2005" cy="444" r="5" fill="green" stroke="none" /><circle cx="3487" cy="1370" r="5" fill="green" stroke="none" /><circle cx="6725" cy="2" r="5" fill="green" stroke="none" /><circle cx="5009" cy="2043" r="5" fill="green" stroke="none" /><circle cx="6340" cy="482" r="5" fill="green" stroke="none" /><circle cx="6797" cy="1554" r="5" fill="green" stroke="none" /><circle cx="2283" cy="1626" r="5" fill="green" stroke="none" /><circle cx="6496" cy="82" r="5" fill="green" stroke="none" /><circle cx="2723" cy="1753" r="5" fill="green" stroke="none" /><circle cx="6449" cy="1397" r="5" fill="green" stroke="none" /><circle cx="4801" cy="2476" r="5" fill="green" stroke="none" /><circle cx="4326" cy="593" r="5" fill="green" stroke="none" /><circle cx="2516" cy="475" r="5" fill="green" stroke="none" /><circle cx="14" cy="993" r="5" fill="green" stroke="none" /><circle cx="1371" cy="1452" r="5" fill="green" stroke="none" /><circle cx="5621" cy="2377" r="5" fill="green" stroke="none" /><circle cx="3582" cy="648" r="5" fill="green" stroke="none" /><circle cx="6112" cy="2222" r="5" fill="green" stroke="none" /><circle cx="3368" cy="2864" r="5" fill="green" stroke="none" /><circle cx="5402" cy="178" r="5" fill="green" stroke="none" /><circle cx="4229" cy="1003" r="5" fill="green" stroke="none" /><circle cx="5998" cy="341" r="5" fill="green" stroke="none" /><circle cx="675" cy="2661" r="5" fill="green" stroke="none" /><circle cx="4286" cy="1922" r="5" fill="green" stroke="none" /><circle cx="2818" cy="1888" r="5" fill="green" stroke="none" /><circle cx="5580" cy="2882" r="5" fill="green" stroke="none" /><circle cx="983" cy="2408" r="5" fill="green" stroke="none" /><circle cx="3964" cy="1468" r="5" fill="green" stroke="none" /><circle cx="2529" cy="304" r="5" fill="green" stroke="none" /><circle cx="6351" cy="1647" r="5" fill="green" stroke="none" /><circle cx="3864" cy="1332" r="5" fill="green" stroke="none" /><circle cx="4962" cy="1614" r="5" fill="green" stroke="none" /><circle cx="1086" cy="1634" r="5" fill="green" stroke="none" /><circle cx="5508" cy="368" r="5" fill="green" stroke="none" /><circle cx="1109" cy="3721" r="5" fill="green" stroke="none" /><circle cx="4062" cy="2607" r="5" fill="green" stroke="none" /><circle cx="5153" cy="1663" r="5" fill="green" stroke="none" /><circle cx="6487" cy="2549" r="5" fill="green" stroke="none" /><circle cx="1592" cy="1312" r="5" fill="green" stroke="none" /><circle cx="3433" cy="3599" r="5" fill="green" stroke="none" /><circle cx="4899" cy="618" r="5" fill="green" stroke="none" /><circle cx="4985" cy="1034" r="5" fill="green" stroke="none" /><circle cx="2233" cy="2524" r="5" fill="green" stroke="none" /><circle cx="5026" cy="3391" r="5" fill="green" stroke="none" /><circle cx="4990" cy="431" r="5" fill="green" stroke="none" /><circle cx="1401" cy="1840" r="5" fill="green" stroke="none" /><circle cx="4817" cy="2974" r="5" fill="green" stroke="none" /><circle cx="2432" cy="2624" r="5" fill="green" stroke="none" /><circle cx="6175" cy="1039" r="5" fill="green" stroke="none" /><circle cx="5419" cy="1413" r="5" fill="green" stroke="none" /><circle cx="6158" cy="2456" r="5" fill="green" stroke="none" /><circle cx="4898" cy="1457" r="5" fill="green" stroke="none" /><circle cx="5208" cy="2806" r="5" fill="green" stroke="none" /><circle cx="2488" cy="2761" r="5" fill="green" stroke="none" /><circle cx="1568" cy="3468" r="5" fill="green" stroke="none" /><circle cx="5988" cy="2551" r="5" fill="green" stroke="none" /><circle cx="6512" cy="2683" r="5" fill="green" stroke="none" /><circle cx="2540" cy="601" r="5" fill="green" stroke="none" /><circle cx="4662" cy="2889" r="5" fill="green" stroke="none" /><circle cx="955" cy="1349" r="5" fill="green" stroke="none" /><circle cx="4748" cy="88" r="5" fill="green" stroke="none" /><circle cx="4502" cy="2377" r="5" fill="green" stroke="none" /><circle cx="5962" cy="1360" r="5" fill="green" stroke="none" /><circle cx="6758" cy="1344" r="5" fill="green" stroke="none" /><circle cx="3913" cy="2054" r="5" fill="green" stroke="none" /><circle cx="3221" cy="1325" r="5" fill="green" stroke="none" /><circle cx="4137" cy="16" r="5" fill="green" stroke="none" /><circle cx="3097" cy="2441" r="5" fill="green" stroke="none" /><circle cx="1055" cy="305" r="5" fill="green" stroke="none" /><circle cx="1759" cy="1487" r="5" fill="green" stroke="none" /><circle cx="4526" cy="2361" r="5" fill="green" stroke="none" /><circle cx="5161" cy="3817" r="5" fill="green" stroke="none" /><circle cx="6295" cy="3510" r="5" fill="green" stroke="none" /><circle cx="6239" cy="2721" r="5" fill="green" stroke="none" /><circle cx="148" cy="3706" r="5" fill="green" stroke="none" /><circle cx="2815" cy="3418" r="5" fill="green" stroke="none" /><circle cx="3348" cy="2737" r="5" fill="green" stroke="none" /><circle cx="1384" cy="1149" r="5" fill="green" stroke="none" /><circle cx="950" cy="1357" r="5" fill="green" stroke="none" /><circle cx="2868" cy="3840" r="5" fill="green" stroke="none" /><circle cx="200" cy="358" r="5" fill="green" stroke="none" /><circle cx="3391" cy="354" r="5" fill="green" stroke="none" /><circle cx="5118" cy="2256" r="5" fill="green" stroke="none" /><circle cx="6839" cy="2262" r="5" fill="green" stroke="none" /><circle cx="822" cy="2705" r="5" fill="green" stroke="none" /><circle cx="6172" cy="771" r="5" fill="green" stroke="none" /><circle cx="6102" cy="210" r="5" fill="green" stroke="none" /><circle cx="5269" cy="1962" r="5" fill="green" stroke="none" /><circle cx="5562" cy="2943" r="5" fill="green" stroke="none" /><circle cx="6218" cy="2532" r="5" fill="green" stroke="none" /><circle cx="1279" cy="1763" r="5" fill="green" stroke="none" /><circle cx="7" cy="742" r="5" fill="green" stroke="none" /><circle cx="6772" cy="673" r="5" fill="green" stroke="none" /><circle cx="3280" cy="3789" r="5" fill="green" stroke="none" /><circle cx="2243" cy="1561" r="5" fill="green" stroke="none" /><circle cx="6837" cy="1108" r="5" fill="green" stroke="none" /><circle cx="5989" cy="3660" r="5" fill="green" stroke="none" /><circle cx="1666" cy="691" r="5" fill="green" stroke="none" /><circle cx="4520" cy="1849" r="5" fill="green" stroke="none" /><circle cx="1984" cy="2179" r="5" fill="green" stroke="none" /><circle cx="1261" cy="2781" r="5" fill="green" stroke="none" /><circle cx="1990" cy="3323" r="5" fill="green" stroke="none" /><circle cx="5697" cy="3537" r="5" fill="green" stroke="none" /><circle cx="514" cy="2637" r="5" fill="green" stroke="none" /><circle cx="5420" cy="2354" r="5" fill="green" stroke="none" /><circle cx="2382" cy="2640" r="5" fill="green" stroke="none" /><circle cx="3621" cy="2378" r="5" fill="green" stroke="none" /><circle cx="6773" cy="2222" r="5" fill="green" stroke="none" /><circle cx="5567" cy="1063" r="5" fill="green" stroke="none" /><circle cx="6412" cy="1350" r="5" fill="green" stroke="none" /><circle cx="5110" cy="1703" r="5" fill="green" stroke="none" /><circle cx="6059" cy="1923" r="5" fill="green" stroke="none" /><circle cx="3398" cy="1680" r="5" fill="green" stroke="none" /><circle cx="5012" cy="176" r="5" fill="green" stroke="none" /><circle cx="1174" cy="2282" r="5" fill="green" stroke="none" /><circle cx="1630" cy="3629" r="5" fill="green" stroke="none" /><circle cx="4813" cy="3824" r="5" fill="green" stroke="none" /><circle cx="4114" cy="141" r="5" fill="green" stroke="none" /><circle cx="3252" cy="1721" r="5" fill="green" stroke="none" /><circle cx="6268" cy="278" r="5" fill="green" stroke="none" /><circle cx="709" cy="1035" r="5" fill="green" stroke="none" /><circle cx="785" cy="899" r="5" fill="green" stroke="none" /><circle cx="1218" cy="1420" r="5" fill="green" stroke="none" /><circle cx="4519" cy="2705" r="5" fill="green" stroke="none" /><circle cx="3988" cy="3581" r="5" fill="green" stroke="none" /><circle cx="4307" cy="826" r="5" fill="green" stroke="none" /><circle cx="2003" cy="1520" r="5" fill="green" stroke="none" /><circle cx="5977" cy="2427" r="5" fill="green" stroke="none" /><circle cx="1995" cy="2087" r="5" fill="green" stroke="none" /><circle cx="3725" cy="1663" r="5" fill="green" stroke="none" /><circle cx="6332" cy="778" r="5" fill="green" stroke="none" /><circle cx="6396" cy="2096" r="5" fill="green" stroke="none" /><circle cx="6120" cy="148" r="5" fill="green" stroke="none" /><circle cx="2274" cy="1620" r="5" fill="green" stroke="none" /><circle cx="4968" cy="3764" r="5" fill="green" stroke="none" /><circle cx="4097" cy="1881" r="5" fill="green" stroke="none" /><circle cx="3423" cy="495" r="5" fill="green" stroke="none" /><circle cx="3799" cy="397" r="5" fill="green" stroke="none" /><circle cx="5215" cy="2883" r="5" fill="green" stroke="none" /><circle cx="2648" cy="3802" r="5" fill="green" stroke="none" /><circle cx="5068" cy="3625" r="5" fill="green" stroke="none" /><circle cx="4776" cy="199" r="5" fill="green" stroke="none" /><circle cx="4682" cy="1529" r="5" fill="green" stroke="none" /><circle cx="4801" cy="3405" r="5" fill="green" stroke="none" /><circle cx="5618" cy="672" r="5" fill="green" stroke="none" /><circle cx="4952" cy="2313" r="5" fill="green" stroke="none" /><circle cx="3821" cy="1830" r="5" fill="green" stroke="none" /><circle cx="6823" cy="3218" r="5" fill="green" stroke="none" /><circle cx="1627" cy="1625" r="5" fill="green" stroke="none" /><circle cx="1962" cy="1476" r="5" fill="green" stroke="none" /><circle cx="6884" cy="2852" r="5" fill="green" stroke="none" /><circle cx="4334" cy="2054" r="5" fill="green" stroke="none" /><circle cx="1490" cy="3585" r="5" fill="green" stroke="none" /><circle cx="2486" cy="2547" r="5" fill="green" stroke="none" /><circle cx="6544" cy="1867" r="5" fill="green" stroke="none" /><circle cx="4352" cy="3198" r="5" fill="green" stroke="none" /><circle cx="3245" cy="904" r="5" fill="green" stroke="none" /><circle cx="2511" cy="2593" r="5" fill="green" stroke="none" /><circle cx="5541" cy="1635" r="5" fill="green" stroke="none" /><circle cx="2644" cy="736" r="5" fill="green" stroke="none" /><circle cx="2361" cy="165" r="5" fill="green" stroke="none" /><circle cx="2255" cy="1451" r="5" fill="green" stroke="none" /><circle cx="4875" cy="934" r="5" fill="green" stroke="none" /><circle cx="4506" cy="2317" r="5" fill="green" stroke="none" /><circle cx="1626" cy="216" r="5" fill="green" stroke="none" /><circle cx="6634" cy="945" r="5" fill="green" stroke="none" /><circle cx="1270" cy="3587" r="5" fill="green" stroke="none" /><circle cx="6768" cy="1825" r="5" fill="green" stroke="none" /><circle cx="2631" cy="3658" r="5" fill="green" stroke="none" /><circle cx="1947" cy="1952" r="5" fill="green" stroke="none" /><circle cx="2479" cy="603" r="5" fill="green" stroke="none" /><circle cx="4995" cy="1208" r="5" fill="green" stroke="none" /><circle cx="2669" cy="3057" r="5" fill="green" stroke="none" /><circle cx="3610" cy="173" r="5" fill="green" stroke="none" /><circle cx="1531" cy="135" r="5" fill="green" stroke="none" /><circle cx="4443" cy="828" r="5" fill="green" stroke="none" /><circle cx="3075" cy="3027" r="5" fill="green" stroke="none" /><circle cx="2668" cy="3234" r="5" fill="green" stroke="none" /><circle cx="5148" cy="878" r="5" fill="green" stroke="none" /><circle cx="4275" cy="2207" r="5" fill="green" stroke="none" /><circle cx="3027" cy="2297" r="5" fill="green" stroke="none" /><circle cx="2124" cy="3791" r="5" fill="green" stroke="none" /><circle cx="409" cy="1206" r="5" fill="green" stroke="none" /><circle cx="3870" cy="225" r="5" fill="green" stroke="none" /><circle cx="2365" cy="3871" r="5" fill="green" stroke="none" /><circle cx="4573" cy="2833" r="5" fill="green" stroke="none" /><circle cx="3890" cy="3318" r="5" fill="green" stroke="none" /><circle cx="1467" cy="1483" r="5" fill="green" stroke="none" /><circle cx="1887" cy="3481" r="5" fill="green" stroke="none" /><circle cx="3457" cy="2913" r="5" fill="green" stroke="none" /><circle cx="6799" cy="423" r="5" fill="green" stroke="none" /><circle cx="1624" cy="3918" r="5" fill="green" stroke="none" /><circle cx="6262" cy="534" r="5" fill="green" stroke="none" /><circle cx="5476" cy="193" r="5" fill="green" stroke="none" /><circle cx="402" cy="1" r="5" fill="green" stroke="none" /><circle cx="5048" cy="1052" r="5" fill="green" stroke="none" /><circle cx="6368" cy="3120" r="5" fill="green" stroke="none" /><circle cx="4539" cy="3218" r="5" fill="green" stroke="none" /><circle cx="1760" cy="250" r="5" fill="green" stroke="none" /><circle cx="5237" cy="3437" r="5" fill="green" stroke="none" /><circle cx="1732" cy="2494" r="5" fill="green" stroke="none" /><circle cx="6580" cy="1996" r="5" fill="green" stroke="none" /><circle cx="4460" cy="1945" r="5" fill="green" stroke="none" /><circle cx="5731" cy="2305" r="5" fill="green" stroke="none" /><circle cx="3515" cy="2005" r="5" fill="green" stroke="none" /><circle cx="5176" cy="3507" r="5" fill="green" stroke="none" /><circle cx="63" cy="505" r="5" fill="green" stroke="none" /><circle cx="3646" cy="1197" r="5" fill="green" stroke="none" /><circle cx="4373" cy="1465" r="5" fill="green" stroke="none" /><circle cx="6638" cy="2192" r="5" fill="green" stroke="none" /><circle cx="6633" cy="973" r="5" fill="green" stroke="none" /><circle cx="6542" cy="2551" r="5" fill="green" stroke="none" /><circle cx="5297" cy="137" r="5" fill="green" stroke="none" /><circle cx="3026" cy="3638" r="5" fill="green" stroke="none" /><circle cx="4489" cy="1967" r="5" fill="green" stroke="none" /><circle cx="3078" cy="2998" r="5" fill="green" stroke="none" /><circle cx="6089" cy="3753" r="5" fill="green" stroke="none" /><circle cx="4414" cy="3883" r="5" fill="green" stroke="none" /><circle cx="698" cy="3916" r="5" fill="green" stroke="none" /><circle cx="3933" cy="1922" r="5" fill="green" stroke="none" /><circle cx="1939" cy="2620" r="5" fill="green" stroke="none" /><circle cx="2075" cy="1719" r="5" fill="green" stroke="none" /><circle cx="2525" cy="744" r="5" fill="green" stroke="none" /><circle cx="5234" cy="2575" r="5" fill="green" stroke="none" /><circle cx="141" cy="542" r="5" fill="green" stroke="none" /><circle cx="4325" cy="1610" r="5" fill="green" stroke="none" /><circle cx="3859" cy="1206" r="5" fill="green" stroke="none" /><circle cx="3690" cy="1093" r="5" fill="green" stroke="none" /><circle cx="3608" cy="571" r="5" fill="green" stroke="none" /><circle cx="6662" cy="3887" r="5" fill="green" stroke="none" /><circle cx="6842" cy="2329" r="5" fill="green" stroke="none" /><circle cx="3163" cy="3010" r="5" fill="green" stroke="none" /><circle cx="1807" cy="3308" r="5" fill="green" stroke="none" /><circle cx="4457" cy="1641" r="5" fill="green" stroke="none" /><circle cx="5109" cy="959" r="5" fill="green" stroke="none" /><circle cx="4531" cy="46" r="5" fill="green" stroke="none" /><circle cx="3603" cy="2374" r="5" fill="green" stroke="none" /><circle cx="6576" cy="1712" r="5" fill="green" stroke="none" /><circle cx="2620" cy="3575" r="5" fill="green" stroke="none" /><circle cx="1407" cy="1515" r="5" fill="green" stroke="none" /><circle cx="2774" cy="676" r="5" fill="green" stroke="none" /><circle cx="3513" cy="57" r="5" fill="green" stroke="none" /><circle cx="6066" cy="2934" r="5" fill="green" stroke="none" /><circle cx="1784" cy="2667" r="5" fill="green" stroke="none" /><circle cx="6497" cy="3199" r="5" fill="green" stroke="none" /><circle cx="280" cy="101" r="5" fill="green" stroke="none" /><circle cx="350" cy="1415" r="5" fill="green" stroke="none" /><circle cx="4617" cy="1804" r="5" fill="green" stroke="none" /><circle cx="2011" cy="2391" r="5" fill="green" stroke="none" /><circle cx="4959" cy="3420" r="5" fill="green" stroke="none" /><circle cx="3655" cy="1548" r="5" fill="green" stroke="none" /><circle cx="1004" cy="41" r="5" fill="green" stroke="none" /><circle cx="4866" cy="406" r="5" fill="green" stroke="none" /><circle cx="4367" cy="1912" r="5" fill="green" stroke="none" /><circle cx="2577" cy="634" r="5" fill="green" stroke="none" /><circle cx="5906" cy="2212" r="5" fill="green" stroke="none" /><circle cx="144" cy="3666" r="5" fill="green" stroke="none" /><circle cx="6365" cy="2128" r="5" fill="green" stroke="none" /><circle cx="254" cy="3879" r="5" fill="green" stroke="none" /><circle cx="5339" cy="2172" r="5" fill="green" stroke="none" /><circle cx="4554" cy="857" r="5" fill="green" stroke="none" /><circle cx="1356" cy="911" r="5" fill="green" stroke="none" /><circle cx="4037" cy="3501" r="5" fill="green" stroke="none" /><circle cx="49" cy="3888" r="5" fill="green" stroke="none" /><circle cx="4310" cy="2013" r="5" fill="green" stroke="none" /><circle cx="1150" cy="1312" r="5" fill="green" stroke="none" /><circle cx="6436" cy="2061" r="5" fill="green" stroke="none" /><circle cx="1279" cy="1778" r="5" fill="green" stroke="none" /><circle cx="610" cy="1338" r="5" fill="green" stroke="none" /><circle cx="912" cy="537" r="5" fill="green" stroke="none" /><circle cx="5715" cy="3611" r="5" fill="green" stroke="none" /><circle cx="4548" cy="311" r="5" fill="green" stroke="none" /><circle cx="6636" cy="2046" r="5" fill="green" stroke="none" /><circle cx="4680" cy="1345" r="5" fill="green" stroke="none" /><circle cx="5059" cy="981" r="5" fill="green" stroke="none" /><circle cx="1832" cy="2459" r="5" fill="green" stroke="none" /><circle cx="5391" cy="2150" r="5" fill="green" stroke="none" /><circle cx="1890" cy="1226" r="5" fill="green" stroke="none" /><circle cx="2280" cy="1828" r="5" fill="green" stroke="none" /><circle cx="6845" cy="3131" r="5" fill="green" stroke="none" /><circle cx="6191" cy="1357" r="5" fill="green" stroke="none" /><circle cx="169" cy="3352" r="42" fill="red" stroke="none" /><circle cx="4365" cy="2899" r="31" fill="red" stroke="none" /><circle cx="2210" cy="539" r="38" fill="red" stroke="none" /><circle cx="4699" cy="2066" r="45" fill="red" stroke="none" /><circle cx="964" cy="1257" r="68" fill="red" stroke="none" /><circle cx="6495" cy="175" r="22" fill="red" stroke="none" /><circle cx="3779" cy="3137" r="43" fill="red" stroke="none" /><circle cx="4282" cy="1368" r="56" fill="red" stroke="none" /><circle cx="481" cy="2223" r="96" fill="red" stroke="none" /><circle cx="5484" cy="2110" r="80" fill="red" stroke="none" /><circle cx="870" cy="2975" r="66" fill="red" stroke="none" /><circle cx="6169" cy="662" r="70" fill="red" stroke="none" /><circle cx="1121" cy="1325" r="13" fill="red" stroke="none" /><circle cx="2784" cy="3268" r="33" fill="red" stroke="none" /><circle cx="2961" cy="2577" r="48" fill="red" stroke="none" /><circle cx="6450" cy="2247" r="26" fill="red" stroke="none" /><circle cx="5908" cy="245" r="55" fill="red" stroke="none" /><circle cx="3475" cy="3808" r="57" fill="red" stroke="none" /><circle cx="744" cy="3846" r="17" fill="red" stroke="none" /><circle cx="4239" cy="1734" r="17" fill="red" stroke="none" /><circle cx="2178" cy="3090" r="100" fill="red" stroke="none" /><circle cx="536" cy="459" r="62" fill="red" stroke="none" /><circle cx="604" cy="445" r="14" fill="red" stroke="none" /><circle cx="4928" cy="2048" r="35" fill="red" stroke="none" /><circle cx="3132" cy="1907" r="41" fill="red" stroke="none" /><circle cx="2262" cy="1962" r="87" fill="red" stroke="none" /><circle cx="4433" cy="3711" r="101" fill="red" stroke="none" /><circle cx="2261" cy="169" r="78" fill="red" stroke="none" /><circle cx="4125" cy="1138" r="93" fill="red" stroke="none" /><circle cx="760" cy="1235" r="44" fill="red" stroke="none" /><circle cx="4673" cy="3028" r="12" fill="red" stroke="none" /><circle cx="2108" cy="2450" r="27" fill="red" stroke="none" /><circle cx="3464" cy="118" r="54" fill="red" stroke="none" /><circle cx="924" cy="3411" r="69" fill="red" stroke="none" /><circle cx="95" cy="3475" r="9" fill="red" stroke="none" /><circle cx="5974" cy="1052" r="59" fill="red" stroke="none" /><circle cx="4422" cy="1459" r="19" fill="red" stroke="none" /><circle cx="3830" cy="1957" r="56" fill="red" stroke="none" /><circle cx="5959" cy="2052" r="12" fill="red" stroke="none" /><circle cx="953" cy="2398" r="31" fill="red" stroke="none" /><circle cx="895" cy="3398" r="63" fill="red" stroke="none" /><circle cx="3378" cy="562" r="65" fill="red" stroke="none" /><circle cx="514" cy="397" r="48" fill="red" stroke="none" /><circle cx="4996" cy="839" r="45" fill="red" stroke="none" /><circle cx="4229" cy="852" r="54" fill="red" stroke="none" /><circle cx="4253" cy="3615" r="85" fill="red" stroke="none" /><circle cx="490" cy="2157" r="102" fill="red" stroke="none" /><circle cx="3702" cy="974" r="67" fill="red" stroke="none" /><circle cx="6545" cy="1044" r="10" fill="red" stroke="none" /><circle cx="773" cy="3488" r="30" fill="red" stroke="none" /><circle cx="3944" cy="1763" r="50" fill="red" stroke="none" /><circle cx="1011" cy="1701" r="51" fill="red" stroke="none" /><circle cx="2982" cy="2422" r="93" fill="red" stroke="none" /><circle cx="3000" cy="1541" r="89" fill="red" stroke="none" /><circle cx="5972" cy="950" r="37" fill="red" stroke="none" /><circle cx="4655" cy="155" r="67" fill="red" stroke="none" /><circle cx="390" cy="531" r="36" fill="red" stroke="none" /><circle cx="1181" cy="875" r="9" fill="red" stroke="none" /><circle cx="3474" cy="3785" r="42" fill="red" stroke="none" /><circle cx="1961" cy="3416" r="27" fill="red" stroke="none" /><circle cx="2732" cy="2912" r="101" fill="red" stroke="none" /><circle cx="3528" cy="963" r="91" fill="red" stroke="none" /><circle cx="687" cy="2110" r="19" fill="red" stroke="none" /><circle cx="161" cy="1521" r="67" fill="red" stroke="none" /><circle cx="5245" cy="978" r="66" fill="red" stroke="none" /><circle cx="1913" cy="1280" r="14" fill="red" stroke="none" /><circle cx="797" cy="985" r="51" fill="red" stroke="none" /><circle cx="5444" cy="1255" r="61" fill="red" stroke="none" /><circle cx="2583" cy="119" r="88" fill="red" stroke="none" /><circle cx="2530" cy="2870" r="14" fill="red" stroke="none" /><circle cx="371" cy="3514" r="95" fill="red" stroke="none" /><circle cx="6471" cy="1200" r="37" fill="red" stroke="none" /><circle cx="1613" cy="2291" r="86" fill="red" stroke="none" /><circle cx="4211" cy="2842" r="85" fill="red" stroke="none" /><circle cx="3874" cy="1526" r="96" fill="red" stroke="none" /><circle cx="2884" cy="2539" r="44" fill="red" stroke="none" /><circle cx="5819" cy="506" r="44" fill="red" stroke="none" /><circle cx="3138" cy="1821" r="83" fill="red" stroke="none" /><circle cx="4775" cy="3582" r="51" fill="red" stroke="none" /><circle cx="6735" cy="3884" r="16" fill="red" stroke="none" /><circle cx="4927" cy="1567" r="13" fill="red" stroke="none" /><circle cx="3165" cy="3257" r="37" fill="red" stroke="none" /><circle cx="2519" cy="3887" r="25" fill="red" stroke="none" /><circle cx="936" cy="2064" r="92" fill="red" stroke="none" /><circle cx="1297" cy="1310" r="32" fill="red" stroke="none" /><circle cx="3552" cy="2956" r="27" fill="red" stroke="none" /><circle cx="3411" cy="1937" r="103" fill="red" stroke="none" /><circle cx="3605" cy="918" r="28" fill="red" stroke="none" /><circle cx="1743" cy="2257" r="65" fill="red" stroke="none" /><circle cx="1889" cy="3361" r="47" fill="red" stroke="none" /><circle cx="332" cy="2632" r="44" fill="red" stroke="none" /><circle cx="4134" cy="2886" r="19" fill="red" stroke="none" /><circle cx="3703" cy="1736" r="32" fill="red" stroke="none" /><circle cx="2073" cy="1455" r="59" fill="red" stroke="none" /><circle cx="1915" cy="3245" r="61" fill="red" stroke="none" /></svg>