<svg viewBox="0 0 1855 5516" xmlns="http://www.w3.org/2000/svg"><rect x="0" y="0" width="1855" height="5516" fill="lightyellow" stroke="none "/><rect x="118" y="2749" width="154" height="742" fill="white" stroke="black "/><circle cx="1595" cy="1794" r="5" fill="green" stroke="none" /><circle cx="1347" cy="2261" r="5" fill="green" stroke="none" /><circle cx="732" cy="3233" r="5" fill="green" stroke="none" /><circle cx="670" cy="3319" r="5" fill="green" stroke="none" /><circle cx="579" cy="4353" r="5" fill="green" stroke="none" /><circle cx="218" cy="4625" r="5" fill="green" stroke="none" /><circle cx="546" cy="3144" r="5" fill="green" stroke="none" /><circle cx="792" cy="2568" r="5" fill="green" stroke="none" /><circle cx="1667" cy="2619" r="5" fill="green" stroke="none" /><circle cx="1136" cy="1595" r="5" fill="green" stroke="none" /><circle cx="1381" cy="1212" r="5" fill="green" stroke="none" /><circle cx="240" cy="1904" r="5" fill="green" stroke="none" /><circle cx="745" cy="2929" r="5" fill="green" stroke="none" /><circle cx="840" cy="3670" r="5" fill="green" stroke="none" /><circle cx="1598" cy="4860" r="5" fill="green" stroke="none" /><circle cx="23" cy="4327" r="5" fill="green" stroke="none" /><circle cx="679" cy="1958" r="5" fill="green" stroke="none" /><circle cx="1356" cy="1161" r="5" fill="green" stroke="none" /><circle cx="1062" cy="4324" r="5" fill="green" stroke="none" /><circle cx="1045" cy="3674" r="5" fill="green" stroke="none" /><circle cx="722" cy="3340" r="5" fill="green" stroke="none" /><circle cx="1204" cy="2538" r="5" fill="green" stroke="none" /><circle cx="1260" cy="3944" r="5" fill="green" stroke="none" /><circle cx="127" cy="4617" r="5" fill="green" stroke="none" /><circle cx="551" cy="4583" r="5" fill="green" stroke="none" /><circle cx="1596" cy="690" r="5" fill="green" stroke="none" /><circle cx="267" cy="3860" r="5" fill="green" stroke="none" /><circle cx="1073" cy="2121" r="5" fill="green" stroke="none" /><circle cx="524" cy="3135" r="5" fill="green" stroke="none" /><circle cx="1413" cy="4228" r="5" fill="green" stroke="none" /><circle cx="1287" cy="1596" r="5" fill="green" stroke="none" /><circle cx="1655" cy="5139" r="5" fill="green" stroke="none" /><circle cx="1202" cy="4244" r="5" fill="green" stroke="none" /><circle cx="1365" cy="3752" r="5" fill="green" stroke="none" /><circle cx="1010" cy="2926" r="5" fill="green" stroke="none" /><circle cx="1093" cy="3139" r="5" fill="green" stroke="none" /><circle cx="1749" cy="2203" r="5" fill="green" stroke="none" /><circle cx="811" cy="2954" r="5" fill="green" stroke="none" /><circle cx="349" cy="3364" r="5" fill="green" stroke="none" /><circle cx="600" cy="2167" r="5" fill="green" stroke="none" /><circle cx="1186" cy="4384" r="5" fill="green" stroke="none" /><circle cx="1436" cy="4032" r="5" fill="green" stroke="none" /><circle cx="1376" cy="4343" r="5" fill="green" stroke="none" /><circle cx="1331" cy="2855" r="5" fill="green" stroke="none" /><circle cx="138" cy="5404" r="5" fill="green" stroke="none" /><circle cx="1145" cy="3188" r="5" fill="green" stroke="none" /><circle cx="829" cy="2656" r="5" fill="green" stroke="none" /><circle cx="1605" cy="1839" r="5" fill="green" stroke="none" /><circle cx="442" cy="3443" r="5" fill="green" stroke="none" /><circle cx="28" cy="4948" r="5" fill="green" stroke="none" /><circle cx="1443" cy="3466" r="5" fill="green" stroke="none" /><circle cx="445" cy="3750" r="5" fill="green" stroke="none" /><circle cx="917" cy="3278" r="5" fill="green" stroke="none" /><circle cx="570" cy="2296" r="5" fill="green" stroke="none" /><circle cx="911" cy="4248" r="5" fill="green" stroke="none" /><circle cx="551" cy="2743" r="5" fill="green" stroke="none" /><circle cx="191" cy="4476" r="5" fill="green" stroke="none" /><circle cx="826" cy="4223" r="5" fill="green" stroke="none" /><circle cx="707" cy="2980" r="5" fill="green" stroke="none" /><circle cx="185" cy="2077" r="5" fill="green" stroke="none" /><circle cx="261" cy="1948" r="5" fill="green" stroke="none" /><circle cx="336" cy="2970" r="5" fill="green" stroke="none" /><circle cx="1827" cy="3013" r="5" fill="green" stroke="none" /><circle cx="162" cy="3955" r="5" fill="green" stroke="none" /><circle cx="1257" cy="4606" r="5" fill="green" stroke="none" /><circle cx="553" cy="2197" r="5" fill="green" stroke="none" /><circle cx="529" cy="2444" r="5" fill="green" stroke="none" /><circle cx="1436" cy="4554" r="5" fill="green" stroke="none" /><circle cx="454" cy="4347" r="5" fill="green" stroke="none" /><circle cx="1520" cy="4588" r="5" fill="green" stroke="none" /><circle cx="1157" cy="1422" r="5" fill="green" stroke="none" /><circle cx="423" cy="3855" r="5" fill="green" stroke="none" /><circle cx="586" cy="1974" r="5" fill="green" stroke="none" /><circle cx="1801" cy="1697" r="5" fill="green" stroke="none" /><circle cx="501" cy="3875" r="5" fill="green" stroke="none" /><circle cx="864" cy="3375" r="5" fill="green" stroke="none" /><circle cx="1393" cy="1471" r="5" fill="green" stroke="none" /><circle cx="1597" cy="3610" r="5" fill="green" stroke="none" /><circle cx="1800" cy="4905" r="5" fill="green" stroke="none" /><circle cx="434" cy="4012" r="5" fill="green" stroke="none" /><circle cx="1050" cy="2102" r="5" fill="green" stroke="none" /><circle cx="21" cy="5271" r="5" fill="green" stroke="none" /><circle cx="629" cy="2452" r="5" fill="green" stroke="none" /><circle cx="1415" cy="3139" r="5" fill="green" stroke="none" /><circle cx="848" cy="3530" r="5" fill="green" stroke="none" /><circle cx="1387" cy="3261" r="5" fill="green" stroke="none" /><circle cx="1032" cy="3865" r="5" fill="green" stroke="none" /><circle cx="1007" cy="3741" r="5" fill="green" stroke="none" /><circle cx="967" cy="3979" r="5" fill="green" stroke="none" /><circle cx="224" cy="4254" r="5" fill="green" stroke="none" /><circle cx="825" cy="1813" r="5" fill="green" stroke="none" /><circle cx="524" cy="2417" r="5" fill="green" stroke="none" /><circle cx="565" cy="3590" r="5" fill="green" stroke="none" /><circle cx="1097" cy="3009" r="5" fill="green" stroke="none" /><circle cx="1674" cy="773" r="5" fill="green" stroke="none" /><circle cx="103" cy="5295" r="5" fill="green" stroke="none" /><circle cx="1773" cy="1844" r="5" fill="green" stroke="none" /><circle cx="1367" cy="1302" r="5" fill="green" stroke="none" /><circle cx="1598" cy="1883" r="5" fill="green" stroke="none" /><circle cx="441" cy="3663" r="5" fill="green" stroke="none" /><circle cx="826" cy="3161" r="5" fill="green" stroke="none" /><circle cx="1395" cy="5322" r="5" fill="green" stroke="none" /><circle cx="180" cy="4818" r="5" fill="green" stroke="none" /><circle cx="623" cy="1909" r="5" fill="green" stroke="none" /><circle cx="1183" cy="1498" r="5" fill="green" stroke="none" /><circle cx="511" cy="4042" r="5" fill="green" stroke="none" /><circle cx="666" cy="2233" r="5" fill="green" stroke="none" /><circle cx="299" cy="4947" r="5" fill="green" stroke="none" /><circle cx="304" cy="3434" r="5" fill="green" stroke="none" /><circle cx="1767" cy="801" r="5" fill="green" stroke="none" /><circle cx="1680" cy="4549" r="5" fill="green" stroke="none" /><circle cx="1133" cy="2620" r="5" fill="green" stroke="none" /><circle cx="375" cy="5342" r="5" fill="green" stroke="none" /><circle cx="1817" cy="809" r="5" fill="green" stroke="none" /><circle cx="894" cy="1934" r="5" fill="green" stroke="none" /><circle cx="1069" cy="2604" r="5" fill="green" stroke="none" /><circle cx="1848" cy="1972" r="5" fill="green" stroke="none" /><circle cx="1144" cy="4015" r="5" fill="green" stroke="none" /><circle cx="1066" cy="3150" r="5" fill="green" stroke="none" /><circle cx="942" cy="3671" r="5" fill="green" stroke="none" /><circle cx="745" cy="5394" r="5" fill="green" stroke="none" /><circle cx="786" cy="2133" r="5" fill="green" stroke="none" /><circle cx="1669" cy="4740" r="5" fill="green" stroke="none" /><circle cx="1363" cy="2780" r="5" fill="green" stroke="none" /><circle cx="1838" cy="2280" r="5" fill="green" stroke="none" /><circle cx="750" cy="3049" r="5" fill="green" stroke="none" /><circle cx="206" cy="3496" r="5" fill="green" stroke="none" /><circle cx="580" cy="2498" r="5" fill="green" stroke="none" /><circle cx="1071" cy="2739" r="5" fill="green" stroke="none" /><circle cx="152" cy="2504" r="5" fill="green" stroke="none" /><circle cx="708" cy="5229" r="5" fill="green" stroke="none" /><circle cx="1168" cy="3600" r="5" fill="green" stroke="none" /><circle cx="314" cy="2824" r="5" fill="green" stroke="none" /><circle cx="1566" cy="1125" r="5" fill="green" stroke="none" /><circle cx="1645" cy="1844" r="5" fill="green" stroke="none" /><circle cx="1765" cy="902" r="5" fill="green" stroke="none" /><circle cx="937" cy="2593" r="5" fill="green" stroke="none" /><circle cx="1149" cy="2129" r="5" fill="green" stroke="none" /><circle cx="427" cy="2564" r="5" fill="green" stroke="none" /><circle cx="1386" cy="1449" r="5" fill="green" stroke="none" /><circle cx="837" cy="2242" r="5" fill="green" stroke="none" /><circle cx="1488" cy="3067" r="5" fill="green" stroke="none" /><circle cx="1272" cy="3400" r="5" fill="green" stroke="none" /><circle cx="690" cy="2788" r="5" fill="green" stroke="none" /><circle cx="763" cy="3078" r="5" fill="green" stroke="none" /><circle cx="1837" cy="2252" r="5" fill="green" stroke="none" /><circle cx="1811" cy="4538" r="5" fill="green" stroke="none" /><circle cx="1533" cy="4581" r="5" fill="green" stroke="none" /><circle cx="1123" cy="2145" r="5" fill="green" stroke="none" /><circle cx="1328" cy="4634" r="5" fill="green" stroke="none" /><circle cx="1601" cy="2795" r="5" fill="green" stroke="none" /><circle cx="909" cy="1929" r="5" fill="green" stroke="none" /><circle cx="765" cy="2060" r="5" fill="green" stroke="none" /><circle cx="836" cy="2330" r="5" fill="green" stroke="none" /><circle cx="350" cy="3128" r="5" fill="green" stroke="none" /><circle cx="1151" cy="3139" r="5" fill="green" stroke="none" /><circle cx="791" cy="2483" r="5" fill="green" stroke="none" /><circle cx="465" cy="2837" r="5" fill="green" stroke="none" /><circle cx="1656" cy="3903" r="5" fill="green" stroke="none" /><circle cx="1612" cy="1774" r="5" fill="green" stroke="none" /><circle cx="91" cy="5222" r="5" fill="green" stroke="none" /><circle cx="1484" cy="2756" r="5" fill="green" stroke="none" /><circle cx="82" cy="2512" r="5" fill="green" stroke="none" /><circle cx="1140" cy="1771" r="5" fill="green" stroke="none" /><circle cx="474" cy="3437" r="5" fill="green" stroke="none" /><circle cx="1515" cy="4359" r="5" fill="green" stroke="none" /><circle cx="1158" cy="3023" r="5" fill="green" stroke="none" /><circle cx="1267" cy="4038" r="5" fill="green" stroke="none" /><circle cx="1123" cy="4019" r="5" fill="green" stroke="none" /><circle cx="1108" cy="2067" r="5" fill="green" stroke="none" /><circle cx="50" cy="5362" r="5" fill="green" stroke="none" /><circle cx="1625" cy="2464" r="5" fill="green" stroke="none" /><circle cx="1629" cy="3036" r="5" fill="green" stroke="none" /><circle cx="182" cy="2369" r="5" fill="green" stroke="none" /><circle cx="174" cy="2431" r="5" fill="green" stroke="none" /><circle cx="1024" cy="3994" r="5" fill="green" stroke="none" /><circle cx="361" cy="3551" r="5" fill="green" stroke="none" /><circle cx="194" cy="4555" r="5" fill="green" stroke="none" /><circle cx="1253" cy="4033" r="5" fill="green" stroke="none" /><circle cx="75" cy="2204" r="5" fill="green" stroke="none" /><circle cx="1762" cy="2346" r="5" fill="green" stroke="none" /><circle cx="470" cy="4583" r="5" fill="green" stroke="none" /><circle cx="669" cy="2207" r="5" fill="green" stroke="none" /><circle cx="30" cy="2265" r="5" fill="green" stroke="none" /><circle cx="170" cy="3771" r="5" fill="green" stroke="none" /><circle cx="311" cy="2704" r="5" fill="green" stroke="none" /><circle cx="403" cy="3023" r="5" fill="green" stroke="none" /><circle cx="1184" cy="3802" r="5" fill="green" stroke="none" /><circle cx="869" cy="3725" r="5" fill="green" stroke="none" /><circle cx="46" cy="4840" r="5" fill="green" stroke="none" /><circle cx="550" cy="3752" r="5" fill="green" stroke="none" /><circle cx="1531" cy="3530" r="5" fill="green" stroke="none" /><circle cx="126" cy="4403" r="5" fill="green" stroke="none" /><circle cx="1781" cy="4404" r="5" fill="green" stroke="none" /><circle cx="130" cy="1985" r="5" fill="green" stroke="none" /><circle cx="1104" cy="4070" r="5" fill="green" stroke="none" /><circle cx="859" cy="2749" r="5" fill="green" stroke="none" /><circle cx="518" cy="2899" r="5" fill="green" stroke="none" /><circle cx="1436" cy="4537" r="5" fill="green" stroke="none" /><circle cx="1457" cy="2073" r="5" fill="green" stroke="none" /><circle cx="423" cy="4192" r="5" fill="green" stroke="none" /><circle cx="170" cy="5184" r="5" fill="green" stroke="none" /><circle cx="1273" cy="4204" r="5" fill="green" stroke="none" /><circle cx="1660" cy="2643" r="5" fill="green" stroke="none" /><circle cx="1791" cy="2457" r="5" fill="green" stroke="none" /><circle cx="875" cy="2743" r="5" fill="green" stroke="none" /><circle cx="1341" cy="2106" r="5" fill="green" stroke="none" /><circle cx="497" cy="3800" r="5" fill="green" stroke="none" /><circle cx="1072" cy="4285" r="5" fill="green" stroke="none" /><circle cx="674" cy="3738" r="5" fill="green" stroke="none" /><circle cx="95" cy="3226" r="5" fill="green" stroke="none" /><circle cx="1712" cy="2202" r="5" fill="green" stroke="none" /><circle cx="939" cy="3711" r="5" fill="green" stroke="none" /><circle cx="1179" cy="1931" r="5" fill="green" stroke="none" /><circle cx="1705" cy="2033" r="5" fill="green" stroke="none" /><circle cx="1020" cy="3352" r="5" fill="green" stroke="none" /><circle cx="1252" cy="3041" r="5" fill="green" stroke="none" /><circle cx="1525" cy="4247" r="5" fill="green" stroke="none" /><circle cx="1404" cy="3950" r="5" fill="green" stroke="none" /><circle cx="1764" cy="4436" r="5" fill="green" stroke="none" /><circle cx="1274" cy="2851" r="5" fill="green" stroke="none" /><circle cx="1109" cy="2105" r="5" fill="green" stroke="none" /><circle cx="535" cy="4355" r="5" fill="green" stroke="none" /><circle cx="996" cy="2944" r="5" fill="green" stroke="none" /><circle cx="28" cy="2919" r="5" fill="green" stroke="none" /><circle cx="705" cy="3989" r="5" fill="green" stroke="none" /><circle cx="1170" cy="3369" r="5" fill="green" stroke="none" /><circle cx="1449" cy="4329" r="5" fill="green" stroke="none" /><circle cx="788" cy="5510" r="5" fill="green" stroke="none" /><circle cx="1056" cy="3982" r="5" fill="green" stroke="none" /><circle cx="1264" cy="4536" r="5" fill="green" stroke="none" /><circle cx="1390" cy="2129" r="5" fill="green" stroke="none" /><circle cx="754" cy="2863" r="5" fill="green" stroke="none" /><circle cx="1635" cy="3519" r="5" fill="green" stroke="none" /><circle cx="908" cy="3670" r="5" fill="green" stroke="none" /><circle cx="545" cy="4765" r="5" fill="green" stroke="none" /><circle cx="1344" cy="4296" r="5" fill="green" stroke="none" /><circle cx="1808" cy="2818" r="5" fill="green" stroke="none" /><circle cx="877" cy="992" r="5" fill="green" stroke="none" /><circle cx="1833" cy="1742" r="5" fill="green" stroke="none" /><circle cx="437" cy="3291" r="5" fill="green" stroke="none" /><circle cx="1841" cy="2161" r="5" fill="green" stroke="none" /><circle cx="687" cy="1739" r="5" fill="green" stroke="none" /><circle cx="1504" cy="4228" r="5" fill="green" stroke="none" /><circle cx="1658" cy="594" r="5" fill="green" stroke="none" /><circle cx="869" cy="2621" r="5" fill="green" stroke="none" /><circle cx="490" cy="3375" r="5" fill="green" stroke="none" /><circle cx="203" cy="4508" r="5" fill="green" stroke="none" /><circle cx="1291" cy="2289" r="5" fill="green" stroke="none" /><circle cx="102" cy="2138" r="5" fill="green" stroke="none" /><circle cx="185" cy="1912" r="5" fill="green" stroke="none" /><circle cx="898" cy="3568" r="5" fill="green" stroke="none" /><circle cx="1691" cy="4445" r="5" fill="green" stroke="none" /><circle cx="1730" cy="3970" r="5" fill="green" stroke="none" /><circle cx="1640" cy="4869" r="5" fill="green" stroke="none" /><circle cx="61" cy="5119" r="5" fill="green" stroke="none" /><circle cx="48" cy="4759" r="5" fill="green" stroke="none" /><circle cx="1020" cy="2682" r="5" fill="green" stroke="none" /><circle cx="1387" cy="2711" r="5" fill="green" stroke="none" /><circle cx="1836" cy="829" r="5" fill="green" stroke="none" /><circle cx="890" cy="3870" r="5" fill="green" stroke="none" /><circle cx="1111" cy="3282" r="5" fill="green" stroke="none" /><circle cx="174" cy="3669" r="5" fill="green" stroke="none" /><circle cx="1244" cy="1607" r="5" fill="green" stroke="none" /><circle cx="1276" cy="1415" r="5" fill="green" stroke="none" /><circle cx="1539" cy="3655" r="5" fill="green" stroke="none" /><circle cx="1169" cy="4213" r="5" fill="green" stroke="none" /><circle cx="1516" cy="3940" r="5" fill="green" stroke="none" /><circle cx="1594" cy="2654" r="5" fill="green" stroke="none" /><circle cx="626" cy="3509" r="5" fill="green" stroke="none" /><circle cx="84" cy="4738" r="5" fill="green" stroke="none" /><circle cx="1411" cy="3839" r="5" fill="green" stroke="none" /><circle cx="1266" cy="1552" r="5" fill="green" stroke="none" /><circle cx="947" cy="3762" r="5" fill="green" stroke="none" /><circle cx="1312" cy="3923" r="5" fill="green" stroke="none" /><circle cx="1273" cy="3696" r="5" fill="green" stroke="none" /><circle cx="1807" cy="887" r="5" fill="green" stroke="none" /><circle cx="67" cy="4467" r="5" fill="green" stroke="none" /><circle cx="245" cy="4432" r="5" fill="green" stroke="none" /><circle cx="811" cy="3702" r="5" fill="green" stroke="none" /><circle cx="1501" cy="2804" r="5" fill="green" stroke="none" /><circle cx="553" cy="4334" r="5" fill="green" stroke="none" /><circle cx="398" cy="3448" r="5" fill="green" stroke="none" /><circle cx="1448" cy="2583" r="5" fill="green" stroke="none" /><circle cx="1811" cy="519" r="5" fill="green" stroke="none" /><circle cx="1328" cy="3420" r="5" fill="green" stroke="none" /><circle cx="1838" cy="2338" r="5" fill="green" stroke="none" /><circle cx="1633" cy="3904" r="5" fill="green" stroke="none" /><circle cx="1371" cy="3809" r="5" fill="green" stroke="none" /><circle cx="1054" cy="1762" r="5" fill="green" stroke="none" /><circle cx="1055" cy="2179" r="5" fill="green" stroke="none" /><circle cx="18" cy="1951" r="5" fill="green" stroke="none" /><circle cx="459" cy="2999" r="5" fill="green" stroke="none" /><circle cx="566" cy="3878" r="5" fill="green" stroke="none" /><circle cx="1747" cy="2557" r="5" fill="green" stroke="none" /><circle cx="605" cy="3788" r="5" fill="green" stroke="none" /><circle cx="1639" cy="2144" r="5" fill="green" stroke="none" /><circle cx="1624" cy="3570" r="5" fill="green" stroke="none" /><circle cx="1648" cy="2785" r="5" fill="green" stroke="none" /><circle cx="792" cy="3227" r="5" fill="green" stroke="none" /><circle cx="500" cy="3693" r="5" fill="green" stroke="none" /><circle cx="1824" cy="2432" r="5" fill="green" stroke="none" /><circle cx="1238" cy="2637" r="5" fill="green" stroke="none" /><circle cx="105" cy="5036" r="5" fill="green" stroke="none" /><circle cx="26" cy="5507" r="5" fill="green" stroke="none" /><circle cx="1843" cy="367" r="5" fill="green" stroke="none" /><circle cx="1700" cy="4426" r="5" fill="green" stroke="none" /><circle cx="425" cy="2373" r="5" fill="green" stroke="none" /><circle cx="1663" cy="4035" r="5" fill="green" stroke="none" /><circle cx="664" cy="2164" r="5" fill="green" stroke="none" /><circle cx="695" cy="3396" r="5" fill="green" stroke="none" /><circle cx="1646" cy="4980" r="5" fill="green" stroke="none" /><circle cx="1302" cy="1244" r="5" fill="green" stroke="none" /><circle cx="890" cy="3819" r="5" fill="green" stroke="none" /><circle cx="1236" cy="1443" r="5" fill="green" stroke="none" /><circle cx="1193" cy="3344" r="5" fill="green" stroke="none" /><circle cx="544" cy="2333" r="5" fill="green" stroke="none" /><circle cx="763" cy="2613" r="5" fill="green" stroke="none" /><circle cx="294" cy="4451" r="5" fill="green" stroke="none" /><circle cx="1783" cy="3019" r="5" fill="green" stroke="none" /><circle cx="615" cy="4486" r="5" fill="green" stroke="none" /><circle cx="1098" cy="4244" r="5" fill="green" stroke="none" /><circle cx="825" cy="4252" r="5" fill="green" stroke="none" /><circle cx="947" cy="1721" r="5" fill="green" stroke="none" /><circle cx="1516" cy="3487" r="5" fill="green" stroke="none" /><circle cx="1675" cy="4551" r="5" fill="green" stroke="none" /><circle cx="1665" cy="1689" r="5" fill="green" stroke="none" /><circle cx="898" cy="2213" r="5" fill="green" stroke="none" /><circle cx="1377" cy="3154" r="5" fill="green" stroke="none" /><circle cx="642" cy="5181" r="5" fill="green" stroke="none" /><circle cx="1109" cy="3111" r="5" fill="green" stroke="none" /><circle cx="1418" cy="2483" r="5" fill="green" stroke="none" /><circle cx="1075" cy="4043" r="5" fill="green" stroke="none" /><circle cx="1805" cy="3075" r="5" fill="green" stroke="none" /><circle cx="1727" cy="1936" r="5" fill="green" stroke="none" /><circle cx="1010" cy="2805" r="5" fill="green" stroke="none" /><circle cx="1559" cy="981" r="5" fill="green" stroke="none" /><circle cx="1389" cy="2837" r="5" fill="green" stroke="none" /><circle cx="917" cy="2832" r="5" fill="green" stroke="none" /><circle cx="64" cy="3862" r="5" fill="green" stroke="none" /><circle cx="82" cy="5335" r="5" fill="green" stroke="none" /><circle cx="1501" cy="4482" r="5" fill="green" stroke="none" /><circle cx="1719" cy="684" r="5" fill="green" stroke="none" /><circle cx="814" cy="1219" r="5" fill="green" stroke="none" /><circle cx="1677" cy="2819" r="5" fill="green" stroke="none" /><circle cx="1394" cy="2056" r="5" fill="green" stroke="none" /><circle cx="47" cy="3044" r="5" fill="green" stroke="none" /><circle cx="710" cy="2615" r="5" fill="green" stroke="none" /><circle cx="1132" cy="4377" r="5" fill="green" stroke="none" /><circle cx="1061" cy="4016" r="5" fill="green" stroke="none" /><circle cx="1555" cy="4900" r="5" fill="green" stroke="none" /><circle cx="1635" cy="1840" r="5" fill="green" stroke="none" /><circle cx="1384" cy="4379" r="5" fill="green" stroke="none" /><circle cx="507" cy="4459" r="5" fill="green" stroke="none" /><circle cx="732" cy="2245" r="5" fill="green" stroke="none" /><circle cx="192" cy="4098" r="5" fill="green" stroke="none" /><circle cx="281" cy="4734" r="5" fill="green" stroke="none" /><circle cx="1512" cy="2740" r="5" fill="green" stroke="none" /><circle cx="1677" cy="896" r="5" fill="green" stroke="none" /><circle cx="808" cy="3578" r="5" fill="green" stroke="none" /><circle cx="1403" cy="1065" r="5" fill="green" stroke="none" /><circle cx="614" cy="3821" r="5" fill="green" stroke="none" /><circle cx="734" cy="1346" r="5" fill="green" stroke="none" /><circle cx="1380" cy="1406" r="5" fill="green" stroke="none" /><circle cx="1334" cy="3556" r="50" fill="red" stroke="none" /><circle cx="422" cy="2153" r="49" fill="red" stroke="none" /><circle cx="986" cy="833" r="104" fill="red" stroke="none" /><circle cx="1710" cy="3879" r="45" fill="red" stroke="none" /><circle cx="1763" cy="1548" r="57" fill="red" stroke="none" /><circle cx="688" cy="1150" r="100" fill="red" stroke="none" /><circle cx="1593" cy="252" r="16" fill="red" stroke="none" /><circle cx="804" cy="639" r="19" fill="red" stroke="none" /><circle cx="417" cy="122" r="78" fill="red" stroke="none" /><circle cx="1200" cy="904" r="7" fill="red" stroke="none" /><circle cx="264" cy="5302" r="54" fill="red" stroke="none" /><circle cx="1455" cy="3761" r="81" fill="red" stroke="none" /><circle cx="327" cy="1501" r="8" fill="red" stroke="none" /><circle cx="746" cy="826" r="62" fill="red" stroke="none" /><circle cx="1713" cy="3305" r="89" fill="red" stroke="none" /><circle cx="723" cy="5008" r="59" fill="red" stroke="none" /><circle cx="1318" cy="465" r="26" fill="red" stroke="none" /><circle cx="250" cy="625" r="39" fill="red" stroke="none" /><circle cx="394" cy="1170" r="34" fill="red" stroke="none" /><circle cx="427" cy="182" r="17" fill="red" stroke="none" /><circle cx="1191" cy="732" r="54" fill="red" stroke="none" /><circle cx="965" cy="4317" r="71" fill="red" stroke="none" /><circle cx="607" cy="2056" r="29" fill="red" stroke="none" /><circle cx="797" cy="360" r="16" fill="red" stroke="none" /><circle cx="1605" cy="2858" r="8" fill="red" stroke="none" /><circle cx="279" cy="2502" r="64" fill="red" stroke="none" /><circle cx="1592" cy="2238" r="38" fill="red" stroke="none" /><circle cx="575" cy="1646" r="88" fill="red" stroke="none" /><circle cx="128" cy="3698" r="29" fill="red" stroke="none" /><circle cx="805" cy="757" r="59" fill="red" stroke="none" /><circle cx="831" cy="2845" r="46" fill="red" stroke="none" /><circle cx="698" cy="4792" r="93" fill="red" stroke="none" /><circle cx="1485" cy="588" r="10" fill="red" stroke="none" /><circle cx="302" cy="4000" r="84" fill="red" stroke="none" /><circle cx="216" cy="1662" r="64" fill="red" stroke="none" /><circle cx="792" cy="4414" r="103" fill="red" stroke="none" /><circle cx="588" cy="903" r="72" fill="red" stroke="none" /><circle cx="339" cy="4506" r="68" fill="red" stroke="none" /><circle cx="1549" cy="5308" r="14" fill="red" stroke="none" /><circle cx="1577" cy="2919" r="55" fill="red" stroke="none" /><circle cx="1588" cy="3662" r="20" fill="red" stroke="none" /><circle cx="451" cy="3940" r="28" fill="red" stroke="none" /><circle cx="620" cy="3965" r="44" fill="red" stroke="none" /><circle cx="250" cy="1053" r="96" fill="red" stroke="none" /><circle cx="495" cy="5283" r="61" fill="red" stroke="none" /><circle cx="1556" cy="3426" r="72" fill="red" stroke="none" /><circle cx="226" cy="1130" r="36" fill="red" stroke="none" /><circle cx="1793" cy="3925" r="49" fill="red" stroke="none" /><circle cx="1645" cy="5213" r="8" fill="red" stroke="none" /><circle cx="447" cy="2211" r="69" fill="red" stroke="none" /><circle cx="76" cy="1634" r="59" fill="red" stroke="none" /><circle cx="1211" cy="207" r="88" fill="red" stroke="none" /><circle cx="219" cy="2641" r="80" fill="red" stroke="none" /><circle cx="553" cy="3572" r="12" fill="red" stroke="none" /><circle cx="1259" cy="3189" r="25" fill="red" stroke="none" /><circle cx="1335" cy="3696" r="41" fill="red" stroke="none" /><circle cx="1163" cy="5047" r="35" fill="red" stroke="none" /><circle cx="1095" cy="4899" r="41" fill="red" stroke="none" /><circle cx="1225" cy="2729" r="73" fill="red" stroke="none" /><circle cx="508" cy="3646" r="33" fill="red" stroke="none" /><circle cx="1276" cy="667" r="57" fill="red" stroke="none" /><circle cx="1508" cy="5170" r="59" fill="red" stroke="none" /><circle cx="519" cy="4835" r="40" fill="red" stroke="none" /><circle cx="332" cy="4184" r="55" fill="red" stroke="none" /><circle cx="728" cy="3812" r="9" fill="red" stroke="none" /><circle cx="597" cy="3037" r="14" fill="red" stroke="none" /><circle cx="1090" cy="5130" r="94" fill="red" stroke="none" /><circle cx="1002" cy="1204" r="48" fill="red" stroke="none" /><circle cx="1233" cy="2008" r="43" fill="red" stroke="none" /><circle cx="436" cy="3186" r="42" fill="red" stroke="none" /><circle cx="1416" cy="2977" r="84" fill="red" stroke="none" /><circle cx="653" cy="637" r="63" fill="red" stroke="none" /><circle cx="350" cy="4274" r="59" fill="red" stroke="none" /><circle cx="364" cy="2927" r="16" fill="red" stroke="none" /><circle cx="444" cy="5406" r="82" fill="red" stroke="none" /><circle cx="1635" cy="1525" r="79" fill="red" stroke="none" /><circle cx="1706" cy="3765" r="46" fill="red" stroke="none" /><circle cx="757" cy="113" r="38" fill="red" stroke="none" /><circle cx="346" cy="2233" r="12" fill="red" stroke="none" /><circle cx="176" cy="798" r="94" fill="red" stroke="none" /><circle cx="1805" cy="4153" r="26" fill="red" stroke="none" /><circle cx="1581" cy="438" r="55" fill="red" stroke="none" /><circle cx="1278" cy="482" r="55" fill="red" stroke="none" /><circle cx="914" cy="478" r="12" fill="red" stroke="none" /><circle cx="52" cy="3719" r="10" fill="red" stroke="none" /><circle cx="911" cy="4058" r="34" fill="red" stroke="none" /><circle cx="372" cy="1893" r="100" fill="red" stroke="none" /><circle cx="1368" cy="2577" r="26" fill="red" stroke="none" /><circle cx="1276" cy="1150" r="48" fill="red" stroke="none" /><circle cx="1274" cy="4287" r="9" fill="red" stroke="none" /><circle cx="1532" cy="3129" r="57" fill="red" stroke="none" /><circle cx="1036" cy="644" r="36" fill="red" stroke="none" /><circle cx="765" cy="1080" r="59" fill="red" stroke="none" /><circle cx="834" cy="3295" r="47" fill="red" stroke="none" /><circle cx="1474" cy="3759" r="74" fill="red" stroke="none" /><circle cx="1518" cy="4034" r="76" fill="red" stroke="none" /><circle cx="955" cy="1354" r="18" fill="red" stroke="none" /><circle cx="784" cy="4733" r="70" fill="red" stroke="none" /><circle cx="1273" cy="3424" r="7" fill="red" stroke="none" /><circle cx="528" cy="290" r="27" fill="red" stroke="none" /><circle cx="124" cy="3915" r="46" fill="red" stroke="none" /><circle cx="176" cy="1571" r="102" fill="red" stroke="none" /><circle cx="1795" cy="1067" r="38" fill="red" stroke="none" /><circle cx="1374" cy="782" r="63" fill="red" stroke="none" /><circle cx="926" cy="1658" r="62" fill="red" stroke="none" /><circle cx="1419" cy="5028" r="66" fill="red" stroke="none" /><circle cx="1112" cy="4428" r="25" fill="red" stroke="none" /><circle cx="1000" cy="876" r="90" fill="red" stroke="none" /><circle cx="730" cy="1872" r="69" fill="red" stroke="none" /><circle cx="1270" cy="1951" r="49" fill="red" stroke="none" /><circle cx="119" cy="403" r="90" fill="red" stroke="none" /><circle cx="1416" cy="3932" r="18" fill="red" stroke="none" /><circle cx="285" cy="1818" r="38" fill="red" stroke="none" /><circle cx="1676" cy="4171" r="76" fill="red" stroke="none" /><circle cx="635" cy="2573" r="77" fill="red" stroke="none" /><circle cx="1834" cy="5431" r="21" fill="red" stroke="none" /><circle cx="442" cy="386" r="81" fill="red" stroke="none" /><circle cx="765" cy="1668" r="71" fill="red" stroke="none" /><circle cx="611" cy="4119" r="103" fill="red" stroke="none" /><circle cx="816" cy="3299" r="75" fill="red" stroke="none" /><circle cx="1768" cy="5161" r="70" fill="red" stroke="none" /><circle cx="694" cy="2102" r="22" fill="red" stroke="none" /><circle cx="1483" cy="3202" r="88" fill="red" stroke="none" /><circle cx="478" cy="2217" r="19" fill="red" stroke="none" /><circle cx="1316" cy="2710" r="5" fill="red" stroke="none" /><circle cx="792" cy="947" r="93" fill="red" stroke="none" /><circle cx="334" cy="834" r="50" fill="red" stroke="none" /><circle cx="1246" cy="2480" r="48" fill="red" stroke="none" /><circle cx="1508" cy="1969" r="12" fill="red" stroke="none" /><circle cx="271" cy="726" r="12" fill="red" stroke="none" /><circle cx="1821" cy="289" r="10" fill="red" stroke="none" /><circle cx="1068" cy="3436" r="44" fill="red" stroke="none" /><circle cx="1553" cy="1370" r="53" fill="red" stroke="none" /><circle cx="251" cy="5046" r="55" fill="red" stroke="none" /><circle cx="1638" cy="5328" r="9" fill="red" stroke="none" /><circle cx="1368" cy="4771" r="55" fill="red" stroke="none" /><circle cx="166" cy="4513" r="21" fill="red" stroke="none" /><circle cx="532" cy="1930" r="25" fill="red" stroke="none" /><circle cx="897" cy="2427" r="78" fill="red" stroke="none" /><circle cx="851" cy="4511" r="50" fill="red" stroke="none" /><circle cx="1202" cy="994" r="86" fill="red" stroke="none" /><circle cx="1741" cy="4672" r="88" fill="red" stroke="none" /><circle cx="1369" cy="1749" r="49" fill="red" stroke="none" /><circle cx="1465" cy="1421" r="67" fill="red" stroke="none" /><circle cx="636" cy="5275" r="74" fill="red" stroke="none" /><circle cx="643" cy="4590" r="76" fill="red" stroke="none" /><circle cx="1733" cy="3997" r="17" fill="red" stroke="none" /><circle cx="1170" cy="2207" r="35" fill="red" stroke="none" /><circle cx="364" cy="3200" r="15" fill="red" stroke="none" /><circle cx="1788" cy="1351" r="56" fill="red" stroke="none" /><circle cx="601" cy="308" r="87" fill="red" stroke="none" /><circle cx="955" cy="2060" r="50" fill="red" stroke="none" /><circle cx="1319" cy="4194" r="8" fill="red" stroke="none" /></svg>