<svg viewBox="0 0 4172 6853" xmlns="http://www.w3.org/2000/svg"><rect x="0" y="0" width="4172" height="6853" fill="lightyellow" stroke="none "/><rect x="1022" y="399" width="422" height="2237" fill="white" stroke="black "/><circle cx="3380" cy="4510" r="5" fill="green" stroke="none" /><circle cx="997" cy="3950" r="5" fill="green" stroke="none" /><circle cx="2335" cy="2486" r="5" fill="green" stroke="none" /><circle cx="3476" cy="5464" r="5" fill="green" stroke="none" /><circle cx="670" cy="5751" r="5" fill="green" stroke="none" /><circle cx="578" cy="1346" r="5" fill="green" stroke="none" /><circle cx="2853" cy="6578" r="5" fill="green" stroke="none" /><circle cx="1686" cy="2952" r="5" fill="green" stroke="none" /><circle cx="1883" cy="772" r="5" fill="green" stroke="none" /><circle cx="3310" cy="4152" r="5" fill="green" stroke="none" /><circle cx="1390" cy="362" r="5" fill="green" stroke="none" /><circle cx="2805" cy="5998" r="5" fill="green" stroke="none" /><circle cx="1905" cy="6372" r="5" fill="green" stroke="none" /><circle cx="3584" cy="3056" r="5" fill="green" stroke="none" /><circle cx="1661" cy="1146" r="5" fill="green" stroke="none" /><circle cx="475" cy="1734" r="5" fill="green" stroke="none" /><circle cx="1867" cy="789" r="5" fill="green" stroke="none" /><circle cx="2750" cy="4795" r="5" fill="green" stroke="none" /><circle cx="2127" cy="6653" r="5" fill="green" stroke="none" /><circle cx="4150" cy="2882" r="5" fill="green" stroke="none" /><circle cx="2741" cy="258" r="5" fill="green" stroke="none" /><circle cx="3178" cy="791" r="5" fill="green" stroke="none" /><circle cx="2645" cy="4137" r="5" fill="green" stroke="none" /><circle cx="2774" cy="4156" r="5" fill="green" stroke="none" /><circle cx="1122" cy="5286" r="5" fill="green" stroke="none" /><circle cx="3482" cy="6791" r="5" fill="green" stroke="none" /><circle cx="2099" cy="5077" r="5" fill="green" stroke="none" /><circle cx="1914" cy="5616" r="5" fill="green" stroke="none" /><circle cx="3620" cy="2249" r="5" fill="green" stroke="none" /><circle cx="184" cy="5852" r="5" fill="green" stroke="none" /><circle cx="2883" cy="4034" r="5" fill="green" stroke="none" /><circle cx="1568" cy="3480" r="5" fill="green" stroke="none" /><circle cx="431" cy="5211" r="5" fill="green" stroke="none" /><circle cx="2652" cy="2301" r="5" fill="green" stroke="none" /><circle cx="411" cy="5612" r="5" fill="green" stroke="none" /><circle cx="4022" cy="1548" r="5" fill="green" stroke="none" /><circle cx="151" cy="5434" r="5" fill="green" stroke="none" /><circle cx="2385" cy="3784" r="5" fill="green" stroke="none" /><circle cx="3585" cy="6093" r="5" fill="green" stroke="none" /><circle cx="459" cy="4012" r="5" fill="green" stroke="none" /><circle cx="1443" cy="3231" r="5" fill="green" stroke="none" /><circle cx="2676" cy="3475" r="5" fill="green" stroke="none" /><circle cx="181" cy="6666" r="5" fill="green" stroke="none" /><circle cx="3777" cy="3184" r="5" fill="green" stroke="none" /><circle cx="1715" cy="4386" r="5" fill="green" stroke="none" /><circle cx="3079" cy="4402" r="5" fill="green" stroke="none" /><circle cx="4077" cy="6638" r="5" fill="green" stroke="none" /><circle cx="1806" cy="6151" r="5" fill="green" stroke="none" /><circle cx="715" cy="1002" r="5" fill="green" stroke="none" /><circle cx="448" cy="6421" r="5" fill="green" stroke="none" /><circle cx="68" cy="1969" r="5" fill="green" stroke="none" /><circle cx="329" cy="1760" r="5" fill="green" stroke="none" /><circle cx="2754" cy="351" r="5" fill="green" stroke="none" /><circle cx="4090" cy="2951" r="5" fill="green" stroke="none" /><circle cx="428" cy="6785" r="5" fill="green" stroke="none" /><circle cx="89" cy="3907" r="5" fill="green" stroke="none" /><circle cx="2596" cy="4506" r="5" fill="green" stroke="none" /><circle cx="2468" cy="403" r="5" fill="green" stroke="none" /><circle cx="2532" cy="6510" r="5" fill="green" stroke="none" /><circle cx="1771" cy="2103" r="5" fill="green" stroke="none" /><circle cx="2801" cy="125" r="5" fill="green" stroke="none" /><circle cx="2517" cy="753" r="5" fill="green" stroke="none" /><circle cx="781" cy="1266" r="5" fill="green" stroke="none" /><circle cx="2443" cy="4070" r="5" fill="green" stroke="none" /><circle cx="2083" cy="3606" r="5" fill="green" stroke="none" /><circle cx="3102" cy="2291" r="5" fill="green" stroke="none" /><circle cx="3435" cy="417" r="5" fill="green" stroke="none" /><circle cx="730" cy="6485" r="5" fill="green" stroke="none" /><circle cx="758" cy="3741" r="5" fill="green" stroke="none" /><circle cx="3136" cy="1750" r="5" fill="green" stroke="none" /><circle cx="1696" cy="2727" r="5" fill="green" stroke="none" /><circle cx="2142" cy="5590" r="5" fill="green" stroke="none" /><circle cx="3169" cy="4522" r="5" fill="green" stroke="none" /><circle cx="1601" cy="3956" r="5" fill="green" stroke="none" /><circle cx="1990" cy="3405" r="5" fill="green" stroke="none" /><circle cx="1234" cy="295" r="5" fill="green" stroke="none" /><circle cx="1845" cy="2266" r="5" fill="green" stroke="none" /><circle cx="1372" cy="4664" r="5" fill="green" stroke="none" /><circle cx="1766" cy="2798" r="5" fill="green" stroke="none" /><circle cx="1994" cy="5942" r="5" fill="green" stroke="none" /><circle cx="4122" cy="2056" r="5" fill="green" stroke="none" /><circle cx="225" cy="6124" r="5" fill="green" stroke="none" /><circle cx="1328" cy="3650" r="5" fill="green" stroke="none" /><circle cx="3823" cy="134" r="5" fill="green" stroke="none" /><circle cx="2292" cy="5949" r="5" fill="green" stroke="none" /><circle cx="2563" cy="3808" r="5" fill="green" stroke="none" /><circle cx="452" cy="6731" r="5" fill="green" stroke="none" /><circle cx="823" cy="4599" r="5" fill="green" stroke="none" /><circle cx="1501" cy="212" r="5" fill="green" stroke="none" /><circle cx="3174" cy="637" r="5" fill="green" stroke="none" /><circle cx="3543" cy="3569" r="5" fill="green" stroke="none" /><circle cx="3115" cy="1134" r="5" fill="green" stroke="none" /><circle cx="500" cy="4939" r="5" fill="green" stroke="none" /><circle cx="3849" cy="1587" r="5" fill="green" stroke="none" /><circle cx="3855" cy="5916" r="5" fill="green" stroke="none" /><circle cx="449" cy="449" r="5" fill="green" stroke="none" /><circle cx="998" cy="6095" r="5" fill="green" stroke="none" /><circle cx="1326" cy="5971" r="5" fill="green" stroke="none" /><circle cx="3529" cy="6209" r="5" fill="green" stroke="none" /><circle cx="4002" cy="306" r="5" fill="green" stroke="none" /><circle cx="3440" cy="1724" r="5" fill="green" stroke="none" /><circle cx="1728" cy="1642" r="5" fill="green" stroke="none" /><circle cx="3531" cy="4436" r="5" fill="green" stroke="none" /><circle cx="1363" cy="155" r="5" fill="green" stroke="none" /><circle cx="196" cy="555" r="5" fill="green" stroke="none" /><circle cx="3061" cy="563" r="5" fill="green" stroke="none" /><circle cx="2401" cy="1451" r="5" fill="green" stroke="none" /><circle cx="3421" cy="3429" r="5" fill="green" stroke="none" /><circle cx="4038" cy="2742" r="5" fill="green" stroke="none" /><circle cx="493" cy="351" r="5" fill="green" stroke="none" /><circle cx="1761" cy="3818" r="5" fill="green" stroke="none" /><circle cx="3755" cy="5120" r="5" fill="green" stroke="none" /><circle cx="1256" cy="5374" r="5" fill="green" stroke="none" /><circle cx="1874" cy="2527" r="5" fill="green" stroke="none" /><circle cx="975" cy="2235" r="5" fill="green" stroke="none" /><circle cx="2555" cy="3328" r="5" fill="green" stroke="none" /><circle cx="1584" cy="1804" r="5" fill="green" stroke="none" /><circle cx="3101" cy="2720" r="5" fill="green" stroke="none" /><circle cx="1073" cy="2970" r="5" fill="green" stroke="none" /><circle cx="211" cy="4721" r="5" fill="green" stroke="none" /><circle cx="2993" cy="1270" r="5" fill="green" stroke="none" /><circle cx="2531" cy="6527" r="5" fill="green" stroke="none" /><circle cx="1877" cy="3104" r="5" fill="green" stroke="none" /><circle cx="1763" cy="2870" r="5" fill="green" stroke="none" /><circle cx="690" cy="3153" r="5" fill="green" stroke="none" /><circle cx="288" cy="1787" r="5" fill="green" stroke="none" /><circle cx="4092" cy="5349" r="5" fill="green" stroke="none" /><circle cx="497" cy="615" r="5" fill="green" stroke="none" /><circle cx="2212" cy="1556" r="5" fill="green" stroke="none" /><circle cx="3592" cy="5380" r="5" fill="green" stroke="none" /><circle cx="200" cy="3930" r="5" fill="green" stroke="none" /><circle cx="3061" cy="382" r="5" fill="green" stroke="none" /><circle cx="2293" cy="1569" r="5" fill="green" stroke="none" /><circle cx="4092" cy="379" r="5" fill="green" stroke="none" /><circle cx="1875" cy="4713" r="5" fill="green" stroke="none" /><circle cx="3745" cy="40" r="5" fill="green" stroke="none" /><circle cx="94" cy="4799" r="5" fill="green" stroke="none" /><circle cx="2456" cy="779" r="5" fill="green" stroke="none" /><circle cx="3482" cy="2471" r="5" fill="green" stroke="none" /><circle cx="3909" cy="4639" r="5" fill="green" stroke="none" /><circle cx="369" cy="6850" r="5" fill="green" stroke="none" /><circle cx="407" cy="5591" r="5" fill="green" stroke="none" /><circle cx="1364" cy="232" r="5" fill="green" stroke="none" /><circle cx="1048" cy="2892" r="5" fill="green" stroke="none" /><circle cx="2629" cy="3004" r="5" fill="green" stroke="none" /><circle cx="1765" cy="5426" r="5" fill="green" stroke="none" /><circle cx="258" cy="1135" r="5" fill="green" stroke="none" /><circle cx="1463" cy="4292" r="5" fill="green" stroke="none" /><circle cx="2423" cy="2088" r="5" fill="green" stroke="none" /><circle cx="3075" cy="5761" r="5" fill="green" stroke="none" /><circle cx="1501" cy="3237" r="5" fill="green" stroke="none" /><circle cx="575" cy="2119" r="5" fill="green" stroke="none" /><circle cx="1805" cy="1836" r="5" fill="green" stroke="none" /><circle cx="2169" cy="580" r="5" fill="green" stroke="none" /><circle cx="1223" cy="5390" r="5" fill="green" stroke="none" /><circle cx="2750" cy="4740" r="5" fill="green" stroke="none" /><circle cx="3600" cy="561" r="5" fill="green" stroke="none" /><circle cx="539" cy="5326" r="5" fill="green" stroke="none" /><circle cx="124" cy="2643" r="5" fill="green" stroke="none" /><circle cx="3551" cy="232" r="5" fill="green" stroke="none" /><circle cx="4029" cy="184" r="5" fill="green" stroke="none" /><circle cx="1568" cy="2032" r="5" fill="green" stroke="none" /><circle cx="2669" cy="2246" r="5" fill="green" stroke="none" /><circle cx="1840" cy="2045" r="5" fill="green" stroke="none" /><circle cx="1629" cy="412" r="5" fill="green" stroke="none" /><circle cx="3625" cy="4067" r="5" fill="green" stroke="none" /><circle cx="3273" cy="5764" r="5" fill="green" stroke="none" /><circle cx="135" cy="376" r="5" fill="green" stroke="none" /><circle cx="1140" cy="5455" r="5" fill="green" stroke="none" /><circle cx="2573" cy="312" r="5" fill="green" stroke="none" /><circle cx="2191" cy="2894" r="5" fill="green" stroke="none" /><circle cx="338" cy="2458" r="5" fill="green" stroke="none" /><circle cx="2960" cy="1007" r="5" fill="green" stroke="none" /><circle cx="96" cy="3941" r="5" fill="green" stroke="none" /><circle cx="3946" cy="170" r="5" fill="green" stroke="none" /><circle cx="506" cy="5750" r="5" fill="green" stroke="none" /><circle cx="2480" cy="5882" r="5" fill="green" stroke="none" /><circle cx="4081" cy="5498" r="5" fill="green" stroke="none" /><circle cx="3037" cy="4887" r="5" fill="green" stroke="none" /><circle cx="3" cy="5807" r="5" fill="green" stroke="none" /><circle cx="3696" cy="956" r="5" fill="green" stroke="none" /><circle cx="1068" cy="2984" r="5" fill="green" stroke="none" /><circle cx="2663" cy="4775" r="5" fill="green" stroke="none" /><circle cx="3569" cy="952" r="5" fill="green" stroke="none" /><circle cx="80" cy="1560" r="5" fill="green" stroke="none" /><circle cx="1051" cy="4636" r="5" fill="green" stroke="none" /><circle cx="3317" cy="5348" r="5" fill="green" stroke="none" /><circle cx="415" cy="778" r="5" fill="green" stroke="none" /><circle cx="2533" cy="1984" r="5" fill="green" stroke="none" /><circle cx="405" cy="2053" r="5" fill="green" stroke="none" /><circle cx="827" cy="4389" r="5" fill="green" stroke="none" /><circle cx="1749" cy="3750" r="5" fill="green" stroke="none" /><circle cx="2712" cy="6637" r="5" fill="green" stroke="none" /><circle cx="2297" cy="1451" r="5" fill="green" stroke="none" /><circle cx="201" cy="5335" r="5" fill="green" stroke="none" /><circle cx="2086" cy="3132" r="5" fill="green" stroke="none" /><circle cx="711" cy="604" r="5" fill="green" stroke="none" /><circle cx="1879" cy="6539" r="5" fill="green" stroke="none" /><circle cx="2357" cy="5057" r="5" fill="green" stroke="none" /><circle cx="3282" cy="561" r="5" fill="green" stroke="none" /><circle cx="2233" cy="5087" r="5" fill="green" stroke="none" /><circle cx="1276" cy="3814" r="5" fill="green" stroke="none" /><circle cx="1403" cy="162" r="5" fill="green" stroke="none" /><circle cx="491" cy="3948" r="5" fill="green" stroke="none" /><circle cx="2779" cy="4052" r="5" fill="green" stroke="none" /><circle cx="1297" cy="4753" r="5" fill="green" stroke="none" /><circle cx="1931" cy="3027" r="5" fill="green" stroke="none" /><circle cx="522" cy="5929" r="5" fill="green" stroke="none" /><circle cx="3909" cy="3150" r="5" fill="green" stroke="none" /><circle cx="4043" cy="4928" r="5" fill="green" stroke="none" /><circle cx="69" cy="4595" r="5" fill="green" stroke="none" /><circle cx="3647" cy="6215" r="5" fill="green" stroke="none" /><circle cx="3495" cy="1064" r="5" fill="green" stroke="none" /><circle cx="1522" cy="4515" r="5" fill="green" stroke="none" /><circle cx="2656" cy="5585" r="5" fill="green" stroke="none" /><circle cx="3356" cy="3509" r="5" fill="green" stroke="none" /><circle cx="662" cy="3822" r="5" fill="green" stroke="none" /><circle cx="342" cy="4691" r="5" fill="green" stroke="none" /><circle cx="3150" cy="3357" r="5" fill="green" stroke="none" /><circle cx="99" cy="4883" r="5" fill="green" stroke="none" /><circle cx="981" cy="4928" r="5" fill="green" stroke="none" /><circle cx="1828" cy="6059" r="5" fill="green" stroke="none" /><circle cx="3991" cy="6764" r="5" fill="green" stroke="none" /><circle cx="342" cy="3232" r="5" fill="green" stroke="none" /><circle cx="2853" cy="6126" r="5" fill="green" stroke="none" /><circle cx="2975" cy="6601" r="5" fill="green" stroke="none" /><circle cx="302" cy="3066" r="5" fill="green" stroke="none" /><circle cx="770" cy="4960" r="5" fill="green" stroke="none" /><circle cx="770" cy="4685" r="5" fill="green" stroke="none" /><circle cx="3043" cy="365" r="5" fill="green" stroke="none" /><circle cx="414" cy="5538" r="5" fill="green" stroke="none" /><circle cx="317" cy="145" r="5" fill="green" stroke="none" /><circle cx="825" cy="2300" r="5" fill="green" stroke="none" /><circle cx="2649" cy="786" r="5" fill="green" stroke="none" /><circle cx="3032" cy="5408" r="5" fill="green" stroke="none" /><circle cx="852" cy="4132" r="5" fill="green" stroke="none" /><circle cx="991" cy="114" r="5" fill="green" stroke="none" /><circle cx="641" cy="5862" r="5" fill="green" stroke="none" /><circle cx="2835" cy="2359" r="5" fill="green" stroke="none" /><circle cx="1700" cy="2358" r="5" fill="green" stroke="none" /><circle cx="2255" cy="4620" r="5" fill="green" stroke="none" /><circle cx="2776" cy="537" r="5" fill="green" stroke="none" /><circle cx="1833" cy="3318" r="5" fill="green" stroke="none" /><circle cx="3245" cy="5850" r="5" fill="green" stroke="none" /><circle cx="1795" cy="2024" r="5" fill="green" stroke="none" /><circle cx="300" cy="1838" r="5" fill="green" stroke="none" /><circle cx="1796" cy="488" r="5" fill="green" stroke="none" /><circle cx="3955" cy="4006" r="5" fill="green" stroke="none" /><circle cx="98" cy="4010" r="5" fill="green" stroke="none" /><circle cx="697" cy="3366" r="5" fill="green" stroke="none" /><circle cx="2838" cy="686" r="5" fill="green" stroke="none" /><circle cx="2279" cy="3064" r="5" fill="green" stroke="none" /><circle cx="3359" cy="710" r="5" fill="green" stroke="none" /><circle cx="2426" cy="5374" r="5" fill="green" stroke="none" /><circle cx="3756" cy="4587" r="5" fill="green" stroke="none" /><circle cx="2663" cy="5077" r="5" fill="green" stroke="none" /><circle cx="2185" cy="4522" r="5" fill="green" stroke="none" /><circle cx="3961" cy="6240" r="5" fill="green" stroke="none" /><circle cx="2222" cy="3157" r="5" fill="green" stroke="none" /><circle cx="1258" cy="2671" r="5" fill="green" stroke="none" /><circle cx="3807" cy="1284" r="5" fill="green" stroke="none" /><circle cx="3365" cy="3216" r="5" fill="green" stroke="none" /><circle cx="799" cy="5157" r="5" fill="green" stroke="none" /><circle cx="972" cy="5391" r="5" fill="green" stroke="none" /><circle cx="2536" cy="2509" r="5" fill="green" stroke="none" /><circle cx="1034" cy="6822" r="5" fill="green" stroke="none" /><circle cx="2444" cy="4910" r="5" fill="green" stroke="none" /><circle cx="2211" cy="3745" r="5" fill="green" stroke="none" /><circle cx="2786" cy="2694" r="5" fill="green" stroke="none" /><circle cx="3972" cy="240" r="5" fill="green" stroke="none" /><circle cx="2815" cy="4840" r="5" fill="green" stroke="none" /><circle cx="2261" cy="1060" r="5" fill="green" stroke="none" /><circle cx="1724" cy="2220" r="5" fill="green" stroke="none" /><circle cx="1794" cy="2541" r="5" fill="green" stroke="none" /><circle cx="3587" cy="1764" r="5" fill="green" stroke="none" /><circle cx="4058" cy="1649" r="5" fill="green" stroke="none" /><circle cx="4021" cy="3531" r="5" fill="green" stroke="none" /><circle cx="3464" cy="6488" r="5" fill="green" stroke="none" /><circle cx="4086" cy="5137" r="5" fill="green" stroke="none" /><circle cx="855" cy="4148" r="5" fill="green" stroke="none" /><circle cx="523" cy="2182" r="5" fill="green" stroke="none" /><circle cx="3087" cy="4681" r="5" fill="green" stroke="none" /><circle cx="2091" cy="5194" r="5" fill="green" stroke="none" /><circle cx="2015" cy="2056" r="5" fill="green" stroke="none" /><circle cx="2845" cy="5105" r="5" fill="green" stroke="none" /><circle cx="191" cy="4729" r="5" fill="green" stroke="none" /><circle cx="4149" cy="6019" r="5" fill="green" stroke="none" /><circle cx="4109" cy="1293" r="5" fill="green" stroke="none" /><circle cx="3516" cy="3006" r="5" fill="green" stroke="none" /><circle cx="454" cy="3995" r="5" fill="green" stroke="none" /><circle cx="3522" cy="3148" r="5" fill="green" stroke="none" /><circle cx="3602" cy="3915" r="5" fill="green" stroke="none" /><circle cx="2285" cy="3795" r="5" fill="green" stroke="none" /><circle cx="2622" cy="2787" r="5" fill="green" stroke="none" /><circle cx="2227" cy="5035" r="5" fill="green" stroke="none" /><circle cx="1596" cy="691" r="5" fill="green" stroke="none" /><circle cx="2595" cy="6173" r="5" fill="green" stroke="none" /><circle cx="2229" cy="4656" r="5" fill="green" stroke="none" /><circle cx="2078" cy="540" r="5" fill="green" stroke="none" /><circle cx="93" cy="3621" r="5" fill="green" stroke="none" /><circle cx="2693" cy="1007" r="5" fill="green" stroke="none" /><circle cx="686" cy="4603" r="5" fill="green" stroke="none" /><circle cx="2932" cy="3934" r="5" fill="green" stroke="none" /><circle cx="3264" cy="4029" r="5" fill="green" stroke="none" /><circle cx="1168" cy="4302" r="5" fill="green" stroke="none" /><circle cx="228" cy="2643" r="5" fill="green" stroke="none" /><circle cx="3008" cy="2016" r="5" fill="green" stroke="none" /><circle cx="3033" cy="2426" r="5" fill="green" stroke="none" /><circle cx="2691" cy="6775" r="5" fill="green" stroke="none" /><circle cx="2699" cy="3563" r="5" fill="green" stroke="none" /><circle cx="1447" cy="4733" r="5" fill="green" stroke="none" /><circle cx="3201" cy="317" r="5" fill="green" stroke="none" /><circle cx="3691" cy="347" r="5" fill="green" stroke="none" /><circle cx="927" cy="1063" r="5" fill="green" stroke="none" /><circle cx="1421" cy="4422" r="5" fill="green" stroke="none" /><circle cx="2198" cy="3615" r="5" fill="green" stroke="none" /><circle cx="3165" cy="1461" r="5" fill="green" stroke="none" /><circle cx="2604" cy="4094" r="5" fill="green" stroke="none" /><circle cx="885" cy="6595" r="5" fill="green" stroke="none" /><circle cx="1527" cy="2175" r="5" fill="green" stroke="none" /><circle cx="2759" cy="2810" r="5" fill="green" stroke="none" /><circle cx="288" cy="2485" r="5" fill="green" stroke="none" /><circle cx="3155" cy="6123" r="5" fill="green" stroke="none" /><circle cx="750" cy="2958" r="5" fill="green" stroke="none" /><circle cx="2913" cy="5467" r="5" fill="green" stroke="none" /><circle cx="1969" cy="3530" r="5" fill="green" stroke="none" /><circle cx="1155" cy="16" r="5" fill="green" stroke="none" /><circle cx="2936" cy="4273" r="5" fill="green" stroke="none" /><circle cx="463" cy="6180" r="5" fill="green" stroke="none" /><circle cx="3888" cy="901" r="5" fill="green" stroke="none" /><circle cx="2643" cy="3905" r="5" fill="green" stroke="none" /><circle cx="365" cy="4310" r="5" fill="green" stroke="none" /><circle cx="2757" cy="6721" r="5" fill="green" stroke="none" /><circle cx="1883" cy="826" r="5" fill="green" stroke="none" /><circle cx="219" cy="1788" r="5" fill="green" stroke="none" /><circle cx="3520" cy="536" r="5" fill="green" stroke="none" /><circle cx="670" cy="4541" r="5" fill="green" stroke="none" /><circle cx="2735" cy="5267" r="5" fill="green" stroke="none" /><circle cx="3514" cy="916" r="5" fill="green" stroke="none" /><circle cx="3562" cy="6234" r="5" fill="green" stroke="none" /><circle cx="2561" cy="3419" r="5" fill="green" stroke="none" /><circle cx="514" cy="1408" r="5" fill="green" stroke="none" /><circle cx="1960" cy="5927" r="5" fill="green" stroke="none" /><circle cx="3862" cy="4152" r="5" fill="green" stroke="none" /><circle cx="3678" cy="5735" r="5" fill="green" stroke="none" /><circle cx="1828" cy="3236" r="5" fill="green" stroke="none" /><circle cx="817" cy="6782" r="5" fill="green" stroke="none" /><circle cx="2168" cy="3370" r="5" fill="green" stroke="none" /><circle cx="1691" cy="1780" r="5" fill="green" stroke="none" /><circle cx="1523" cy="576" r="5" fill="green" stroke="none" /><circle cx="3269" cy="6480" r="5" fill="green" stroke="none" /><circle cx="3680" cy="2096" r="5" fill="green" stroke="none" /><circle cx="906" cy="2193" r="5" fill="green" stroke="none" /><circle cx="3514" cy="2774" r="5" fill="green" stroke="none" /><circle cx="632" cy="3243" r="5" fill="green" stroke="none" /><circle cx="2202" cy="6653" r="5" fill="green" stroke="none" /><circle cx="3420" cy="4038" r="5" fill="green" stroke="none" /><circle cx="21" cy="2877" r="5" fill="green" stroke="none" /><circle cx="3641" cy="609" r="5" fill="green" stroke="none" /><circle cx="3392" cy="5029" r="5" fill="green" stroke="none" /><circle cx="1837" cy="4406" r="5" fill="green" stroke="none" /><circle cx="3206" cy="1638" r="5" fill="green" stroke="none" /><circle cx="1870" cy="4204" r="5" fill="green" stroke="none" /><circle cx="1267" cy="2770" r="5" fill="green" stroke="none" /><circle cx="2215" cy="2806" r="5" fill="green" stroke="none" /><circle cx="3095" cy="5376" r="5" fill="green" stroke="none" /><circle cx="2378" cy="2031" r="5" fill="green" stroke="none" /><circle cx="1511" cy="514" r="5" fill="green" stroke="none" /><circle cx="2793" cy="6689" r="5" fill="green" stroke="none" /><circle cx="2889" cy="4673" r="5" fill="green" stroke="none" /><circle cx="150" cy="4189" r="5" fill="green" stroke="none" /><circle cx="3950" cy="781" r="5" fill="green" stroke="none" /><circle cx="419" cy="620" r="5" fill="green" stroke="none" /><circle cx="4130" cy="5301" r="5" fill="green" stroke="none" /><circle cx="472" cy="1570" r="5" fill="green" stroke="none" /><circle cx="1999" cy="2957" r="5" fill="green" stroke="none" /><circle cx="1746" cy="416" r="5" fill="green" stroke="none" /><circle cx="47" cy="3315" r="5" fill="green" stroke="none" /><circle cx="192" cy="6541" r="5" fill="green" stroke="none" /><circle cx="3162" cy="1214" r="5" fill="green" stroke="none" /><circle cx="2209" cy="4674" r="5" fill="green" stroke="none" /><circle cx="2424" cy="3608" r="5" fill="green" stroke="none" /><circle cx="595" cy="2329" r="5" fill="green" stroke="none" /><circle cx="4049" cy="1720" r="5" fill="green" stroke="none" /><circle cx="137" cy="5902" r="5" fill="green" stroke="none" /><circle cx="3975" cy="4163" r="5" fill="green" stroke="none" /><circle cx="3341" cy="6105" r="5" fill="green" stroke="none" /><circle cx="2938" cy="2351" r="5" fill="green" stroke="none" /><circle cx="1110" cy="3180" r="5" fill="green" stroke="none" /><circle cx="1642" cy="4167" r="5" fill="green" stroke="none" /><circle cx="3371" cy="2643" r="5" fill="green" stroke="none" /><circle cx="3912" cy="840" r="5" fill="green" stroke="none" /><circle cx="867" cy="526" r="5" fill="green" stroke="none" /><circle cx="148" cy="6722" r="5" fill="green" stroke="none" /><circle cx="4001" cy="3737" r="5" fill="green" stroke="none" /><circle cx="2231" cy="3526" r="5" fill="green" stroke="none" /><circle cx="1393" cy="4051" r="5" fill="green" stroke="none" /><circle cx="2540" cy="1389" r="5" fill="green" stroke="none" /><circle cx="3833" cy="6564" r="5" fill="green" stroke="none" /><circle cx="3889" cy="1290" r="5" fill="green" stroke="none" /><circle cx="3038" cy="1944" r="5" fill="green" stroke="none" /><circle cx="2369" cy="5541" r="5" fill="green" stroke="none" /><circle cx="306" cy="6442" r="5" fill="green" stroke="none" /><circle cx="2313" cy="711" r="5" fill="green" stroke="none" /><circle cx="55" cy="1624" r="5" fill="green" stroke="none" /><circle cx="599" cy="4404" r="5" fill="green" stroke="none" /><circle cx="2160" cy="3310" r="5" fill="green" stroke="none" /><circle cx="1977" cy="500" r="5" fill="green" stroke="none" /><circle cx="1980" cy="2964" r="5" fill="green" stroke="none" /><circle cx="329" cy="1942" r="5" fill="green" stroke="none" /><circle cx="196" cy="5134" r="5" fill="green" stroke="none" /><circle cx="2552" cy="1698" r="5" fill="green" stroke="none" /><circle cx="3747" cy="4622" r="5" fill="green" stroke="none" /><circle cx="3389" cy="4158" r="5" fill="green" stroke="none" /><circle cx="3075" cy="4499" r="5" fill="green" stroke="none" /><circle cx="2951" cy="5236" r="5" fill="green" stroke="none" /><circle cx="3296" cy="6080" r="5" fill="green" stroke="none" /><circle cx="1014" cy="2552" r="5" fill="green" stroke="none" /><circle cx="703" cy="4485" r="5" fill="green" stroke="none" /><circle cx="161" cy="3292" r="5" fill="green" stroke="none" /><circle cx="3329" cy="6697" r="5" fill="green" stroke="none" /><circle cx="4114" cy="6357" r="5" fill="green" stroke="none" /><circle cx="2185" cy="4211" r="5" fill="green" stroke="none" /><circle cx="712" cy="1539" r="5" fill="green" stroke="none" /><circle cx="1071" cy="2866" r="5" fill="green" stroke="none" /><circle cx="500" cy="1064" r="5" fill="green" stroke="none" /><circle cx="4147" cy="3288" r="5" fill="green" stroke="none" /><circle cx="2615" cy="6114" r="5" fill="green" stroke="none" /><circle cx="214" cy="5789" r="5" fill="green" stroke="none" /><circle cx="553" cy="1861" r="5" fill="green" stroke="none" /><circle cx="2361" cy="3023" r="5" fill="green" stroke="none" /><circle cx="2040" cy="6730" r="5" fill="green" stroke="none" /><circle cx="637" cy="2946" r="5" fill="green" stroke="none" /><circle cx="3025" cy="3098" r="5" fill="green" stroke="none" /><circle cx="3106" cy="5036" r="5" fill="green" stroke="none" /><circle cx="3378" cy="5072" r="5" fill="green" stroke="none" /><circle cx="3240" cy="2073" r="5" fill="green" stroke="none" /><circle cx="1489" cy="2189" r="5" fill="green" stroke="none" /><circle cx="3232" cy="3836" r="5" fill="green" stroke="none" /><circle cx="3753" cy="420" r="5" fill="green" stroke="none" /><circle cx="391" cy="2330" r="5" fill="green" stroke="none" /><circle cx="4111" cy="4332" r="5" fill="green" stroke="none" /><circle cx="3579" cy="1422" r="5" fill="green" stroke="none" /><circle cx="3207" cy="3429" r="5" fill="green" stroke="none" /><circle cx="1297" cy="4914" r="5" fill="green" stroke="none" /><circle cx="1953" cy="4551" r="5" fill="green" stroke="none" /><circle cx="810" cy="81" r="5" fill="green" stroke="none" /><circle cx="3475" cy="2414" r="5" fill="green" stroke="none" /><circle cx="953" cy="1639" r="5" fill="green" stroke="none" /><circle cx="1098" cy="4403" r="5" fill="green" stroke="none" /><circle cx="525" cy="6017" r="5" fill="green" stroke="none" /><circle cx="30" cy="2709" r="5" fill="green" stroke="none" /><circle cx="1588" cy="305" r="5" fill="green" stroke="none" /><circle cx="2214" cy="119" r="5" fill="green" stroke="none" /><circle cx="3324" cy="3868" r="5" fill="green" stroke="none" /><circle cx="3683" cy="715" r="5" fill="green" stroke="none" /><circle cx="2398" cy="4051" r="5" fill="green" stroke="none" /><circle cx="392" cy="151" r="5" fill="green" stroke="none" /><circle cx="3956" cy="5165" r="5" fill="green" stroke="none" /><circle cx="861" cy="1532" r="5" fill="green" stroke="none" /><circle cx="3989" cy="3462" r="5" fill="green" stroke="none" /><circle cx="1839" cy="5429" r="5" fill="green" stroke="none" /><circle cx="277" cy="3438" r="5" fill="green" stroke="none" /><circle cx="3564" cy="671" r="5" fill="green" stroke="none" /><circle cx="733" cy="5286" r="5" fill="green" stroke="none" /><circle cx="2739" cy="5300" r="5" fill="green" stroke="none" /><circle cx="3840" cy="4298" r="5" fill="green" stroke="none" /><circle cx="3718" cy="6288" r="5" fill="green" stroke="none" /><circle cx="3580" cy="2414" r="5" fill="green" stroke="none" /><circle cx="2064" cy="57" r="5" fill="green" stroke="none" /><circle cx="724" cy="727" r="5" fill="green" stroke="none" /><circle cx="2614" cy="1683" r="5" fill="green" stroke="none" /><circle cx="1103" cy="5421" r="5" fill="green" stroke="none" /><circle cx="2917" cy="656" r="5" fill="green" stroke="none" /><circle cx="262" cy="1785" r="5" fill="green" stroke="none" /><circle cx="2474" cy="2679" r="5" fill="green" stroke="none" /><circle cx="2690" cy="5229" r="5" fill="green" stroke="none" /><circle cx="2564" cy="6252" r="5" fill="green" stroke="none" /><circle cx="3048" cy="2138" r="5" fill="green" stroke="none" /><circle cx="3098" cy="1780" r="5" fill="green" stroke="none" /><circle cx="2931" cy="6226" r="5" fill="green" stroke="none" /><circle cx="2614" cy="2769" r="5" fill="green" stroke="none" /><circle cx="437" cy="3583" r="5" fill="green" stroke="none" /><circle cx="2653" cy="1973" r="5" fill="green" stroke="none" /><circle cx="52" cy="6821" r="5" fill="green" stroke="none" /><circle cx="3489" cy="405" r="5" fill="green" stroke="none" /><circle cx="128" cy="566" r="5" fill="green" stroke="none" /><circle cx="1003" cy="2732" r="5" fill="green" stroke="none" /><circle cx="409" cy="872" r="5" fill="green" stroke="none" /><circle cx="3761" cy="5407" r="5" fill="green" stroke="none" /><circle cx="591" cy="1524" r="5" fill="green" stroke="none" /><circle cx="3968" cy="8" r="5" fill="green" stroke="none" /><circle cx="2214" cy="6000" r="5" fill="green" stroke="none" /><circle cx="2574" cy="3106" r="5" fill="green" stroke="none" /><circle cx="1495" cy="607" r="5" fill="green" stroke="none" /><circle cx="2521" cy="5901" r="5" fill="green" stroke="none" /><circle cx="1240" cy="4997" r="5" fill="green" stroke="none" /><circle cx="3216" cy="5454" r="5" fill="green" stroke="none" /><circle cx="2880" cy="6241" r="5" fill="green" stroke="none" /><circle cx="2684" cy="26" r="5" fill="green" stroke="none" /><circle cx="2606" cy="1915" r="5" fill="green" stroke="none" /><circle cx="303" cy="3530" r="5" fill="green" stroke="none" /><circle cx="3352" cy="3302" r="5" fill="green" stroke="none" /><circle cx="2041" cy="6773" r="5" fill="green" stroke="none" /><circle cx="3084" cy="6311" r="5" fill="green" stroke="none" /><circle cx="1999" cy="5115" r="5" fill="green" stroke="none" /><circle cx="3833" cy="5885" r="5" fill="green" stroke="none" /><circle cx="2464" cy="1600" r="5" fill="green" stroke="none" /><circle cx="3768" cy="3675" r="5" fill="green" stroke="none" /><circle cx="833" cy="373" r="5" fill="green" stroke="none" /><circle cx="2856" cy="1617" r="5" fill="green" stroke="none" /><circle cx="2287" cy="4327" r="5" fill="green" stroke="none" /><circle cx="630" cy="6135" r="5" fill="green" stroke="none" /><circle cx="3312" cy="2820" r="5" fill="green" stroke="none" /><circle cx="2290" cy="3638" r="5" fill="green" stroke="none" /><circle cx="3811" cy="2462" r="5" fill="green" stroke="none" /><circle cx="3542" cy="466" r="5" fill="green" stroke="none" /><circle cx="4020" cy="4023" r="5" fill="green" stroke="none" /><circle cx="3579" cy="1647" r="5" fill="green" stroke="none" /><circle cx="1371" cy="4077" r="5" fill="green" stroke="none" /><circle cx="510" cy="93" r="5" fill="green" stroke="none" /><circle cx="223" cy="107" r="5" fill="green" stroke="none" /><circle cx="3404" cy="1353" r="5" fill="green" stroke="none" /><circle cx="2530" cy="2317" r="5" fill="green" stroke="none" /><circle cx="939" cy="3565" r="5" fill="green" stroke="none" /><circle cx="2795" cy="5188" r="5" fill="green" stroke="none" /><circle cx="426" cy="5569" r="5" fill="green" stroke="none" /><circle cx="2303" cy="3990" r="5" fill="green" stroke="none" /><circle cx="748" cy="4139" r="5" fill="green" stroke="none" /><circle cx="2255" cy="4104" r="5" fill="green" stroke="none" /><circle cx="112" cy="3548" r="5" fill="green" stroke="none" /><circle cx="597" cy="5682" r="5" fill="green" stroke="none" /><circle cx="3108" cy="4105" r="5" fill="green" stroke="none" /><circle cx="1628" cy="4188" r="5" fill="green" stroke="none" /><circle cx="3824" cy="4584" r="5" fill="green" stroke="none" /><circle cx="4002" cy="2910" r="5" fill="green" stroke="none" /><circle cx="4032" cy="5289" r="5" fill="green" stroke="none" /><circle cx="4077" cy="2095" r="5" fill="green" stroke="none" /><circle cx="262" cy="3254" r="5" fill="green" stroke="none" /><circle cx="1073" cy="6042" r="5" fill="green" stroke="none" /><circle cx="4120" cy="1173" r="5" fill="green" stroke="none" /><circle cx="1215" cy="3925" r="5" fill="green" stroke="none" /><circle cx="168" cy="5020" r="5" fill="green" stroke="none" /><circle cx="782" cy="449" r="5" fill="green" stroke="none" /><circle cx="3747" cy="1845" r="5" fill="green" stroke="none" /><circle cx="1644" cy="2186" r="5" fill="green" stroke="none" /><circle cx="2085" cy="6136" r="5" fill="green" stroke="none" /><circle cx="3827" cy="4235" r="5" fill="green" stroke="none" /><circle cx="777" cy="2600" r="5" fill="green" stroke="none" /><circle cx="408" cy="2042" r="5" fill="green" stroke="none" /><circle cx="622" cy="4966" r="5" fill="green" stroke="none" /><circle cx="4055" cy="2525" r="5" fill="green" stroke="none" /><circle cx="2067" cy="2280" r="5" fill="green" stroke="none" /><circle cx="4141" cy="6732" r="5" fill="green" stroke="none" /><circle cx="20" cy="5699" r="5" fill="green" stroke="none" /><circle cx="2943" cy="1993" r="5" fill="green" stroke="none" /><circle cx="2828" cy="536" r="5" fill="green" stroke="none" /><circle cx="2192" cy="3765" r="5" fill="green" stroke="none" /><circle cx="3244" cy="5911" r="5" fill="green" stroke="none" /><circle cx="2032" cy="825" r="5" fill="green" stroke="none" /><circle cx="280" cy="3279" r="5" fill="green" stroke="none" /><circle cx="168" cy="489" r="5" fill="green" stroke="none" /><circle cx="2272" cy="3561" r="5" fill="green" stroke="none" /><circle cx="2572" cy="6555" r="5" fill="green" stroke="none" /><circle cx="259" cy="926" r="5" fill="green" stroke="none" /><circle cx="937" cy="5382" r="5" fill="green" stroke="none" /><circle cx="2076" cy="4747" r="5" fill="green" stroke="none" /><circle cx="4064" cy="6682" r="5" fill="green" stroke="none" /><circle cx="2432" cy="1941" r="5" fill="green" stroke="none" /><circle cx="2710" cy="1969" r="5" fill="green" stroke="none" /><circle cx="1470" cy="1630" r="5" fill="green" stroke="none" /><circle cx="2522" cy="2936" r="5" fill="green" stroke="none" /><circle cx="1637" cy="3206" r="5" fill="green" stroke="none" /><circle cx="1732" cy="1806" r="5" fill="green" stroke="none" /><circle cx="424" cy="6729" r="5" fill="green" stroke="none" /><circle cx="2102" cy="1062" r="5" fill="green" stroke="none" /><circle cx="2833" cy="1128" r="5" fill="green" stroke="none" /><circle cx="3130" cy="2195" r="5" fill="green" stroke="none" /><circle cx="3956" cy="1547" r="5" fill="green" stroke="none" /><circle cx="3224" cy="2078" r="5" fill="green" stroke="none" /><circle cx="1305" cy="4294" r="5" fill="green" stroke="none" /><circle cx="3671" cy="5987" r="5" fill="green" stroke="none" /><circle cx="945" cy="1665" r="5" fill="green" stroke="none" /><circle cx="1724" cy="1156" r="5" fill="green" stroke="none" /><circle cx="1919" cy="2951" r="5" fill="green" stroke="none" /><circle cx="2636" cy="2854" r="5" fill="green" stroke="none" /><circle cx="3038" cy="3628" r="5" fill="green" stroke="none" /><circle cx="450" cy="6228" r="5" fill="green" stroke="none" /><circle cx="953" cy="6504" r="5" fill="green" stroke="none" /><circle cx="2315" cy="1068" r="5" fill="green" stroke="none" /><circle cx="435" cy="3274" r="5" fill="green" stroke="none" /><circle cx="826" cy="99" r="5" fill="green" stroke="none" /><circle cx="2117" cy="3219" r="5" fill="green" stroke="none" /><circle cx="338" cy="6548" r="5" fill="green" stroke="none" /><circle cx="3715" cy="1492" r="5" fill="green" stroke="none" /><circle cx="2214" cy="3439" r="5" fill="green" stroke="none" /><circle cx="3914" cy="6096" r="5" fill="green" stroke="none" /><circle cx="3537" cy="2149" r="5" fill="green" stroke="none" /><circle cx="132" cy="1971" r="5" fill="green" stroke="none" /><circle cx="2039" cy="180" r="5" fill="green" stroke="none" /><circle cx="2669" cy="4292" r="5" fill="green" stroke="none" /><circle cx="2509" cy="3054" r="5" fill="green" stroke="none" /><circle cx="4113" cy="5005" r="5" fill="green" stroke="none" /><circle cx="1914" cy="3317" r="5" fill="green" stroke="none" /><circle cx="2348" cy="5368" r="5" fill="green" stroke="none" /><circle cx="20" cy="2129" r="5" fill="green" stroke="none" /><circle cx="1777" cy="827" r="5" fill="green" stroke="none" /><circle cx="3756" cy="1728" r="5" fill="green" stroke="none" /><circle cx="258" cy="777" r="5" fill="green" stroke="none" /><circle cx="2271" cy="50" r="5" fill="green" stroke="none" /><circle cx="666" cy="3550" r="5" fill="green" stroke="none" /><circle cx="2615" cy="4497" r="5" fill="green" stroke="none" /><circle cx="2847" cy="3013" r="5" fill="green" stroke="none" /><circle cx="23" cy="560" r="5" fill="green" stroke="none" /><circle cx="137" cy="6509" r="5" fill="green" stroke="none" /><circle cx="2124" cy="2725" r="5" fill="green" stroke="none" /><circle cx="3887" cy="5454" r="5" fill="green" stroke="none" /><circle cx="2595" cy="2269" r="5" fill="green" stroke="none" /><circle cx="2111" cy="1191" r="5" fill="green" stroke="none" /><circle cx="2669" cy="6775" r="5" fill="green" stroke="none" /><circle cx="2031" cy="259" r="5" fill="green" stroke="none" /><circle cx="2725" cy="6702" r="5" fill="green" stroke="none" /><circle cx="3757" cy="6336" r="5" fill="green" stroke="none" /><circle cx="2781" cy="6379" r="5" fill="green" stroke="none" /><circle cx="3782" cy="5453" r="5" fill="green" stroke="none" /><circle cx="1949" cy="6543" r="5" fill="green" stroke="none" /><circle cx="1847" cy="6363" r="5" fill="green" stroke="none" /><circle cx="454" cy="4110" r="5" fill="green" stroke="none" /><circle cx="3788" cy="5758" r="5" fill="green" stroke="none" /><circle cx="1784" cy="4470" r="5" fill="green" stroke="none" /><circle cx="3032" cy="5437" r="5" fill="green" stroke="none" /><circle cx="1477" cy="3528" r="5" fill="green" stroke="none" /><circle cx="3079" cy="1540" r="5" fill="green" stroke="none" /><circle cx="2244" cy="1467" r="5" fill="green" stroke="none" /><circle cx="134" cy="6541" r="5" fill="green" stroke="none" /><circle cx="3184" cy="6194" r="5" fill="green" stroke="none" /><circle cx="2363" cy="2683" r="5" fill="green" stroke="none" /><circle cx="2611" cy="1279" r="5" fill="green" stroke="none" /><circle cx="2636" cy="3356" r="5" fill="green" stroke="none" /><circle cx="3961" cy="3346" r="5" fill="green" stroke="none" /><circle cx="636" cy="3335" r="5" fill="green" stroke="none" /><circle cx="2790" cy="2770" r="5" fill="green" stroke="none" /><circle cx="1887" cy="6777" r="5" fill="green" stroke="none" /><circle cx="559" cy="4673" r="5" fill="green" stroke="none" /><circle cx="1637" cy="963" r="5" fill="green" stroke="none" /><circle cx="610" cy="5778" r="5" fill="green" stroke="none" /><circle cx="2959" cy="2688" r="5" fill="green" stroke="none" /><circle cx="3400" cy="2736" r="26" fill="red" stroke="none" /><circle cx="2265" cy="5606" r="69" fill="red" stroke="none" /><circle cx="3057" cy="875" r="98" fill="red" stroke="none" /><circle cx="1138" cy="5875" r="41" fill="red" stroke="none" /><circle cx="3349" cy="4373" r="86" fill="red" stroke="none" /><circle cx="2761" cy="4247" r="65" fill="red" stroke="none" /><circle cx="3607" cy="2854" r="20" fill="red" stroke="none" /><circle cx="300" cy="3085" r="13" fill="red" stroke="none" /><circle cx="2058" cy="4171" r="38" fill="red" stroke="none" /><circle cx="2367" cy="507" r="19" fill="red" stroke="none" /><circle cx="1382" cy="5819" r="34" fill="red" stroke="none" /><circle cx="308" cy="1218" r="50" fill="red" stroke="none" /><circle cx="3699" cy="3294" r="92" fill="red" stroke="none" /><circle cx="817" cy="1947" r="46" fill="red" stroke="none" /><circle cx="1221" cy="5566" r="79" fill="red" stroke="none" /><circle cx="2130" cy="2935" r="42" fill="red" stroke="none" /><circle cx="3682" cy="1124" r="71" fill="red" stroke="none" /><circle cx="991" cy="2915" r="36" fill="red" stroke="none" /><circle cx="1161" cy="5770" r="32" fill="red" stroke="none" /><circle cx="2236" cy="5269" r="27" fill="red" stroke="none" /><circle cx="2810" cy="4395" r="59" fill="red" stroke="none" /><circle cx="3900" cy="3564" r="65" fill="red" stroke="none" /><circle cx="2920" cy="2148" r="25" fill="red" stroke="none" /><circle cx="2226" cy="5419" r="82" fill="red" stroke="none" /><circle cx="1566" cy="4663" r="89" fill="red" stroke="none" /><circle cx="929" cy="4547" r="45" fill="red" stroke="none" /><circle cx="3516" cy="2499" r="15" fill="red" stroke="none" /><circle cx="904" cy="3544" r="28" fill="red" stroke="none" /><circle cx="3786" cy="5224" r="55" fill="red" stroke="none" /><circle cx="162" cy="6127" r="15" fill="red" stroke="none" /><circle cx="1009" cy="6545" r="41" fill="red" stroke="none" /><circle cx="643" cy="812" r="9" fill="red" stroke="none" /><circle cx="1577" cy="1897" r="73" fill="red" stroke="none" /><circle cx="474" cy="4507" r="56" fill="red" stroke="none" /><circle cx="3550" cy="2367" r="44" fill="red" stroke="none" /><circle cx="4038" cy="5933" r="43" fill="red" stroke="none" /><circle cx="2341" cy="4434" r="71" fill="red" stroke="none" /><circle cx="3177" cy="4947" r="79" fill="red" stroke="none" /><circle cx="4068" cy="3814" r="83" fill="red" stroke="none" /><circle cx="3828" cy="663" r="92" fill="red" stroke="none" /><circle cx="2634" cy="5217" r="38" fill="red" stroke="none" /><circle cx="2451" cy="4224" r="46" fill="red" stroke="none" /><circle cx="3884" cy="4405" r="29" fill="red" stroke="none" /><circle cx="1453" cy="5736" r="89" fill="red" stroke="none" /><circle cx="2631" cy="534" r="19" fill="red" stroke="none" /><circle cx="872" cy="5693" r="82" fill="red" stroke="none" /><circle cx="1853" cy="4863" r="63" fill="red" stroke="none" /><circle cx="2380" cy="1840" r="96" fill="red" stroke="none" /><circle cx="2773" cy="3283" r="69" fill="red" stroke="none" /><circle cx="3568" cy="6514" r="100" fill="red" stroke="none" /><circle cx="3144" cy="4718" r="65" fill="red" stroke="none" /><circle cx="3401" cy="1334" r="12" fill="red" stroke="none" /><circle cx="425" cy="343" r="60" fill="red" stroke="none" /><circle cx="264" cy="1541" r="74" fill="red" stroke="none" /><circle cx="3589" cy="4533" r="36" fill="red" stroke="none" /><circle cx="2371" cy="2303" r="51" fill="red" stroke="none" /><circle cx="3621" cy="6566" r="103" fill="red" stroke="none" /><circle cx="3134" cy="1482" r="28" fill="red" stroke="none" /><circle cx="2352" cy="2380" r="93" fill="red" stroke="none" /><circle cx="640" cy="6339" r="57" fill="red" stroke="none" /><circle cx="872" cy="6723" r="25" fill="red" stroke="none" /><circle cx="2881" cy="5183" r="47" fill="red" stroke="none" /><circle cx="2802" cy="2935" r="16" fill="red" stroke="none" /><circle cx="1406" cy="3379" r="69" fill="red" stroke="none" /><circle cx="4058" cy="4839" r="23" fill="red" stroke="none" /><circle cx="408" cy="2783" r="93" fill="red" stroke="none" /><circle cx="1475" cy="5003" r="77" fill="red" stroke="none" /><circle cx="1485" cy="4986" r="37" fill="red" stroke="none" /><circle cx="1235" cy="5662" r="40" fill="red" stroke="none" /><circle cx="1349" cy="4834" r="43" fill="red" stroke="none" /><circle cx="2238" cy="2552" r="51" fill="red" stroke="none" /><circle cx="2348" cy="4853" r="62" fill="red" stroke="none" /><circle cx="3851" cy="6688" r="77" fill="red" stroke="none" /><circle cx="127" cy="1409" r="104" fill="red" stroke="none" /><circle cx="2442" cy="1216" r="23" fill="red" stroke="none" /><circle cx="2369" cy="1296" r="12" fill="red" stroke="none" /><circle cx="156" cy="335" r="8" fill="red" stroke="none" /><circle cx="2743" cy="752" r="34" fill="red" stroke="none" /><circle cx="3854" cy="872" r="9" fill="red" stroke="none" /><circle cx="2419" cy="2462" r="15" fill="red" stroke="none" /><circle cx="626" cy="172" r="25" fill="red" stroke="none" /><circle cx="1529" cy="3951" r="68" fill="red" stroke="none" /><circle cx="496" cy="4730" r="68" fill="red" stroke="none" /><circle cx="131" cy="2569" r="34" fill="red" stroke="none" /><circle cx="341" cy="1481" r="97" fill="red" stroke="none" /><circle cx="1611" cy="5362" r="14" fill="red" stroke="none" /><circle cx="2733" cy="2506" r="31" fill="red" stroke="none" /><circle cx="428" cy="1915" r="8" fill="red" stroke="none" /><circle cx="682" cy="1868" r="70" fill="red" stroke="none" /><circle cx="4117" cy="4913" r="20" fill="red" stroke="none" /><circle cx="611" cy="850" r="100" fill="red" stroke="none" /><circle cx="1144" cy="3535" r="99" fill="red" stroke="none" /></svg>