<svg viewBox="0 0 4504 4115" xmlns="http://www.w3.org/2000/svg"><rect x="0" y="0" width="4504" height="4115" fill="lightyellow" stroke="none "/><rect x="1291" y="1037" width="448" height="1193" fill="white" stroke="black "/><circle cx="1864" cy="1543" r="5" fill="green" stroke="none" /><circle cx="1810" cy="2524" r="5" fill="green" stroke="none" /><circle cx="4208" cy="1380" r="5" fill="green" stroke="none" /><circle cx="1383" cy="3491" r="5" fill="green" stroke="none" /><circle cx="2996" cy="3557" r="5" fill="green" stroke="none" /><circle cx="4415" cy="749" r="5" fill="green" stroke="none" /><circle cx="1061" cy="1991" r="5" fill="green" stroke="none" /><circle cx="1841" cy="973" r="5" fill="green" stroke="none" /><circle cx="809" cy="1682" r="5" fill="green" stroke="none" /><circle cx="2976" cy="1938" r="5" fill="green" stroke="none" /><circle cx="2106" cy="2639" r="5" fill="green" stroke="none" /><circle cx="3240" cy="1568" r="5" fill="green" stroke="none" /><circle cx="3377" cy="1579" r="5" fill="green" stroke="none" /><circle cx="1995" cy="252" r="5" fill="green" stroke="none" /><circle cx="1212" cy="3174" r="5" fill="green" stroke="none" /><circle cx="1833" cy="302" r="5" fill="green" stroke="none" /><circle cx="2854" cy="2317" r="5" fill="green" stroke="none" /><circle cx="3310" cy="3643" r="5" fill="green" stroke="none" /><circle cx="1103" cy="2223" r="5" fill="green" stroke="none" /><circle cx="3424" cy="2331" r="5" fill="green" stroke="none" /><circle cx="3849" cy="3863" r="5" fill="green" stroke="none" /><circle cx="768" cy="3964" r="5" fill="green" stroke="none" /><circle cx="2608" cy="1233" r="5" fill="green" stroke="none" /><circle cx="3995" cy="172" r="5" fill="green" stroke="none" /><circle cx="2909" cy="2786" r="5" fill="green" stroke="none" /><circle cx="4497" cy="2187" r="5" fill="green" stroke="none" /><circle cx="901" cy="285" r="5" fill="green" stroke="none" /><circle cx="392" cy="946" r="5" fill="green" stroke="none" /><circle cx="2404" cy="85" r="5" fill="green" stroke="none" /><circle cx="4240" cy="2346" r="5" fill="green" stroke="none" /><circle cx="3062" cy="816" r="5" fill="green" stroke="none" /><circle cx="2561" cy="3328" r="5" fill="green" stroke="none" /><circle cx="2162" cy="1670" r="5" fill="green" stroke="none" /><circle cx="2587" cy="341" r="5" fill="green" stroke="none" /><circle cx="2198" cy="1173" r="5" fill="green" stroke="none" /><circle cx="404" cy="1921" r="5" fill="green" stroke="none" /><circle cx="671" cy="3624" r="5" fill="green" stroke="none" /><circle cx="652" cy="1276" r="5" fill="green" stroke="none" /><circle cx="554" cy="3017" r="5" fill="green" stroke="none" /><circle cx="1322" cy="2451" r="5" fill="green" stroke="none" /><circle cx="3191" cy="2773" r="5" fill="green" stroke="none" /><circle cx="4010" cy="3541" r="5" fill="green" stroke="none" /><circle cx="78" cy="389" r="5" fill="green" stroke="none" /><circle cx="3259" cy="3344" r="5" fill="green" stroke="none" /><circle cx="599" cy="2143" r="5" fill="green" stroke="none" /><circle cx="2279" cy="3012" r="5" fill="green" stroke="none" /><circle cx="877" cy="2094" r="5" fill="green" stroke="none" /><circle cx="3692" cy="3686" r="5" fill="green" stroke="none" /><circle cx="2890" cy="1962" r="5" fill="green" stroke="none" /><circle cx="1095" cy="3867" r="5" fill="green" stroke="none" /><circle cx="2861" cy="694" r="5" fill="green" stroke="none" /><circle cx="4262" cy="2502" r="5" fill="green" stroke="none" /><circle cx="1713" cy="2728" r="5" fill="green" stroke="none" /><circle cx="1556" cy="838" r="5" fill="green" stroke="none" /><circle cx="2204" cy="216" r="5" fill="green" stroke="none" /><circle cx="514" cy="1787" r="5" fill="green" stroke="none" /><circle cx="963" cy="1042" r="5" fill="green" stroke="none" /><circle cx="3567" cy="245" r="5" fill="green" stroke="none" /><circle cx="980" cy="3724" r="5" fill="green" stroke="none" /><circle cx="1793" cy="79" r="5" fill="green" stroke="none" /><circle cx="2585" cy="1145" r="5" fill="green" stroke="none" /><circle cx="827" cy="2203" r="5" fill="green" stroke="none" /><circle cx="3307" cy="209" r="5" fill="green" stroke="none" /><circle cx="4165" cy="1803" r="5" fill="green" stroke="none" /><circle cx="400" cy="2645" r="5" fill="green" stroke="none" /><circle cx="934" cy="3697" r="5" fill="green" stroke="none" /><circle cx="3026" cy="1867" r="5" fill="green" stroke="none" /><circle cx="3537" cy="2830" r="5" fill="green" stroke="none" /><circle cx="3278" cy="3783" r="5" fill="green" stroke="none" /><circle cx="3467" cy="3683" r="5" fill="green" stroke="none" /><circle cx="1523" cy="2427" r="5" fill="green" stroke="none" /><circle cx="4425" cy="3143" r="5" fill="green" stroke="none" /><circle cx="4491" cy="3272" r="5" fill="green" stroke="none" /><circle cx="2007" cy="2533" r="5" fill="green" stroke="none" /><circle cx="218" cy="2597" r="5" fill="green" stroke="none" /><circle cx="1285" cy="1945" r="5" fill="green" stroke="none" /><circle cx="2133" cy="3568" r="5" fill="green" stroke="none" /><circle cx="2109" cy="3849" r="5" fill="green" stroke="none" /><circle cx="3073" cy="3413" r="5" fill="green" stroke="none" /><circle cx="2090" cy="2344" r="5" fill="green" stroke="none" /><circle cx="4012" cy="1915" r="5" fill="green" stroke="none" /><circle cx="2114" cy="622" r="5" fill="green" stroke="none" /><circle cx="396" cy="3085" r="5" fill="green" stroke="none" /><circle cx="650" cy="976" r="5" fill="green" stroke="none" /><circle cx="4102" cy="199" r="5" fill="green" stroke="none" /><circle cx="4059" cy="2842" r="5" fill="green" stroke="none" /><circle cx="242" cy="3289" r="5" fill="green" stroke="none" /><circle cx="685" cy="1712" r="5" fill="green" stroke="none" /><circle cx="2047" cy="3455" r="5" fill="green" stroke="none" /><circle cx="3685" cy="3558" r="5" fill="green" stroke="none" /><circle cx="3087" cy="2752" r="5" fill="green" stroke="none" /><circle cx="578" cy="2193" r="5" fill="green" stroke="none" /><circle cx="2095" cy="1721" r="5" fill="green" stroke="none" /><circle cx="1764" cy="607" r="5" fill="green" stroke="none" /><circle cx="1125" cy="1461" r="5" fill="green" stroke="none" /><circle cx="4080" cy="3327" r="5" fill="green" stroke="none" /><circle cx="3807" cy="2962" r="5" fill="green" stroke="none" /><circle cx="887" cy="1901" r="5" fill="green" stroke="none" /><circle cx="1163" cy="4013" r="5" fill="green" stroke="none" /><circle cx="719" cy="3028" r="5" fill="green" stroke="none" /><circle cx="2506" cy="3627" r="5" fill="green" stroke="none" /><circle cx="2015" cy="2861" r="5" fill="green" stroke="none" /><circle cx="4100" cy="2217" r="5" fill="green" stroke="none" /><circle cx="567" cy="1332" r="5" fill="green" stroke="none" /><circle cx="3406" cy="3092" r="5" fill="green" stroke="none" /><circle cx="530" cy="2250" r="5" fill="green" stroke="none" /><circle cx="3901" cy="671" r="5" fill="green" stroke="none" /><circle cx="3651" cy="742" r="5" fill="green" stroke="none" /><circle cx="2166" cy="2080" r="5" fill="green" stroke="none" /><circle cx="2102" cy="1239" r="5" fill="green" stroke="none" /><circle cx="1749" cy="1564" r="5" fill="green" stroke="none" /><circle cx="3052" cy="973" r="5" fill="green" stroke="none" /><circle cx="2316" cy="3788" r="5" fill="green" stroke="none" /><circle cx="1789" cy="1794" r="5" fill="green" stroke="none" /><circle cx="3937" cy="1925" r="5" fill="green" stroke="none" /><circle cx="3677" cy="2945" r="5" fill="green" stroke="none" /><circle cx="4368" cy="2120" r="5" fill="green" stroke="none" /><circle cx="3996" cy="3320" r="5" fill="green" stroke="none" /><circle cx="2010" cy="2158" r="5" fill="green" stroke="none" /><circle cx="2911" cy="1807" r="5" fill="green" stroke="none" /><circle cx="1327" cy="4039" r="5" fill="green" stroke="none" /><circle cx="3570" cy="1080" r="5" fill="green" stroke="none" /><circle cx="4352" cy="1217" r="5" fill="green" stroke="none" /><circle cx="584" cy="2622" r="5" fill="green" stroke="none" /><circle cx="95" cy="1472" r="5" fill="green" stroke="none" /><circle cx="914" cy="1428" r="5" fill="green" stroke="none" /><circle cx="2159" cy="3901" r="5" fill="green" stroke="none" /><circle cx="1702" cy="2986" r="5" fill="green" stroke="none" /><circle cx="4402" cy="867" r="5" fill="green" stroke="none" /><circle cx="1690" cy="2883" r="5" fill="green" stroke="none" /><circle cx="1020" cy="3528" r="5" fill="green" stroke="none" /><circle cx="261" cy="2621" r="5" fill="green" stroke="none" /><circle cx="2770" cy="1667" r="5" fill="green" stroke="none" /><circle cx="1872" cy="3402" r="5" fill="green" stroke="none" /><circle cx="3841" cy="3809" r="5" fill="green" stroke="none" /><circle cx="3676" cy="2382" r="5" fill="green" stroke="none" /><circle cx="1940" cy="3716" r="5" fill="green" stroke="none" /><circle cx="2058" cy="3583" r="5" fill="green" stroke="none" /><circle cx="558" cy="3808" r="5" fill="green" stroke="none" /><circle cx="290" cy="1532" r="5" fill="green" stroke="none" /><circle cx="1000" cy="1780" r="5" fill="green" stroke="none" /><circle cx="3475" cy="2193" r="5" fill="green" stroke="none" /><circle cx="3218" cy="2062" r="5" fill="green" stroke="none" /><circle cx="254" cy="953" r="5" fill="green" stroke="none" /><circle cx="2303" cy="394" r="5" fill="green" stroke="none" /><circle cx="3646" cy="3635" r="5" fill="green" stroke="none" /><circle cx="2674" cy="1667" r="5" fill="green" stroke="none" /><circle cx="2316" cy="3111" r="5" fill="green" stroke="none" /><circle cx="1023" cy="3798" r="5" fill="green" stroke="none" /><circle cx="4375" cy="3360" r="5" fill="green" stroke="none" /><circle cx="358" cy="3267" r="5" fill="green" stroke="none" /><circle cx="166" cy="2901" r="5" fill="green" stroke="none" /><circle cx="3376" cy="3053" r="5" fill="green" stroke="none" /><circle cx="3286" cy="1368" r="5" fill="green" stroke="none" /><circle cx="398" cy="138" r="5" fill="green" stroke="none" /><circle cx="884" cy="3166" r="5" fill="green" stroke="none" /><circle cx="2797" cy="1132" r="5" fill="green" stroke="none" /><circle cx="417" cy="2718" r="5" fill="green" stroke="none" /><circle cx="2219" cy="2880" r="5" fill="green" stroke="none" /><circle cx="194" cy="1561" r="5" fill="green" stroke="none" /><circle cx="2334" cy="3062" r="5" fill="green" stroke="none" /><circle cx="1379" cy="3254" r="5" fill="green" stroke="none" /><circle cx="368" cy="1899" r="5" fill="green" stroke="none" /><circle cx="647" cy="2427" r="5" fill="green" stroke="none" /><circle cx="1869" cy="3425" r="5" fill="green" stroke="none" /><circle cx="3802" cy="1507" r="5" fill="green" stroke="none" /><circle cx="2501" cy="2802" r="5" fill="green" stroke="none" /><circle cx="4328" cy="2355" r="5" fill="green" stroke="none" /><circle cx="2147" cy="1564" r="5" fill="green" stroke="none" /><circle cx="1301" cy="2294" r="5" fill="green" stroke="none" /><circle cx="947" cy="2595" r="5" fill="green" stroke="none" /><circle cx="2451" cy="2266" r="5" fill="green" stroke="none" /><circle cx="1988" cy="561" r="5" fill="green" stroke="none" /><circle cx="220" cy="812" r="5" fill="green" stroke="none" /><circle cx="3313" cy="2328" r="5" fill="green" stroke="none" /><circle cx="3394" cy="2488" r="5" fill="green" stroke="none" /><circle cx="3345" cy="3687" r="5" fill="green" stroke="none" /><circle cx="3291" cy="1418" r="5" fill="green" stroke="none" /><circle cx="3992" cy="2101" r="5" fill="green" stroke="none" /><circle cx="199" cy="3160" r="5" fill="green" stroke="none" /><circle cx="4284" cy="261" r="5" fill="green" stroke="none" /><circle cx="3265" cy="2393" r="5" fill="green" stroke="none" /><circle cx="4458" cy="565" r="5" fill="green" stroke="none" /><circle cx="1847" cy="3482" r="5" fill="green" stroke="none" /><circle cx="2191" cy="1952" r="5" fill="green" stroke="none" /><circle cx="1910" cy="337" r="5" fill="green" stroke="none" /><circle cx="3081" cy="2243" r="5" fill="green" stroke="none" /><circle cx="962" cy="221" r="5" fill="green" stroke="none" /><circle cx="3108" cy="3627" r="5" fill="green" stroke="none" /><circle cx="7" cy="979" r="5" fill="green" stroke="none" /><circle cx="4287" cy="142" r="5" fill="green" stroke="none" /><circle cx="1380" cy="3110" r="5" fill="green" stroke="none" /><circle cx="525" cy="857" r="5" fill="green" stroke="none" /><circle cx="3406" cy="3502" r="5" fill="green" stroke="none" /><circle cx="3131" cy="1680" r="5" fill="green" stroke="none" /><circle cx="2013" cy="1724" r="5" fill="green" stroke="none" /><circle cx="4238" cy="1393" r="5" fill="green" stroke="none" /><circle cx="3822" cy="436" r="5" fill="green" stroke="none" /><circle cx="1839" cy="3000" r="5" fill="green" stroke="none" /><circle cx="4292" cy="1045" r="5" fill="green" stroke="none" /><circle cx="3091" cy="69" r="5" fill="green" stroke="none" /><circle cx="2475" cy="2251" r="5" fill="green" stroke="none" /><circle cx="3956" cy="2463" r="5" fill="green" stroke="none" /><circle cx="3094" cy="895" r="5" fill="green" stroke="none" /><circle cx="3797" cy="1662" r="5" fill="green" stroke="none" /><circle cx="1085" cy="3267" r="5" fill="green" stroke="none" /><circle cx="3814" cy="641" r="5" fill="green" stroke="none" /><circle cx="1796" cy="1782" r="5" fill="green" stroke="none" /><circle cx="65" cy="3175" r="5" fill="green" stroke="none" /><circle cx="1251" cy="3439" r="5" fill="green" stroke="none" /><circle cx="355" cy="1185" r="5" fill="green" stroke="none" /><circle cx="1094" cy="821" r="5" fill="green" stroke="none" /><circle cx="2183" cy="1948" r="5" fill="green" stroke="none" /><circle cx="2335" cy="2602" r="5" fill="green" stroke="none" /><circle cx="1762" cy="2634" r="5" fill="green" stroke="none" /><circle cx="586" cy="3332" r="5" fill="green" stroke="none" /><circle cx="3184" cy="2999" r="5" fill="green" stroke="none" /><circle cx="2866" cy="1528" r="5" fill="green" stroke="none" /><circle cx="2897" cy="2466" r="5" fill="green" stroke="none" /><circle cx="522" cy="2512" r="5" fill="green" stroke="none" /><circle cx="2417" cy="3096" r="5" fill="green" stroke="none" /><circle cx="3748" cy="582" r="5" fill="green" stroke="none" /><circle cx="2498" cy="1610" r="5" fill="green" stroke="none" /><circle cx="3352" cy="1169" r="5" fill="green" stroke="none" /><circle cx="2790" cy="22" r="5" fill="green" stroke="none" /><circle cx="2090" cy="1942" r="5" fill="green" stroke="none" /><circle cx="775" cy="2094" r="5" fill="green" stroke="none" /><circle cx="2811" cy="454" r="5" fill="green" stroke="none" /><circle cx="559" cy="438" r="5" fill="green" stroke="none" /><circle cx="2057" cy="2730" r="5" fill="green" stroke="none" /><circle cx="1776" cy="1825" r="5" fill="green" stroke="none" /><circle cx="4386" cy="872" r="5" fill="green" stroke="none" /><circle cx="832" cy="694" r="5" fill="green" stroke="none" /><circle cx="94" cy="3067" r="5" fill="green" stroke="none" /><circle cx="114" cy="1684" r="5" fill="green" stroke="none" /><circle cx="2284" cy="101" r="5" fill="green" stroke="none" /><circle cx="3921" cy="750" r="5" fill="green" stroke="none" /><circle cx="3920" cy="1909" r="5" fill="green" stroke="none" /><circle cx="668" cy="2435" r="5" fill="green" stroke="none" /><circle cx="2757" cy="3192" r="5" fill="green" stroke="none" /><circle cx="2892" cy="3093" r="5" fill="green" stroke="none" /><circle cx="2754" cy="1492" r="5" fill="green" stroke="none" /><circle cx="3055" cy="2283" r="5" fill="green" stroke="none" /><circle cx="4290" cy="246" r="5" fill="green" stroke="none" /><circle cx="1351" cy="304" r="5" fill="green" stroke="none" /><circle cx="3054" cy="3955" r="5" fill="green" stroke="none" /><circle cx="2779" cy="2205" r="5" fill="green" stroke="none" /><circle cx="878" cy="1206" r="5" fill="green" stroke="none" /><circle cx="3272" cy="2782" r="5" fill="green" stroke="none" /><circle cx="1378" cy="3989" r="5" fill="green" stroke="none" /><circle cx="1899" cy="775" r="5" fill="green" stroke="none" /><circle cx="2758" cy="3328" r="5" fill="green" stroke="none" /><circle cx="73" cy="3429" r="5" fill="green" stroke="none" /><circle cx="963" cy="658" r="5" fill="green" stroke="none" /><circle cx="808" cy="3104" r="5" fill="green" stroke="none" /><circle cx="4022" cy="1897" r="5" fill="green" stroke="none" /><circle cx="810" cy="3343" r="5" fill="green" stroke="none" /><circle cx="1857" cy="1600" r="5" fill="green" stroke="none" /><circle cx="3219" cy="2806" r="5" fill="green" stroke="none" /><circle cx="2264" cy="1657" r="5" fill="green" stroke="none" /><circle cx="3506" cy="1542" r="5" fill="green" stroke="none" /><circle cx="939" cy="1901" r="5" fill="green" stroke="none" /><circle cx="3577" cy="2644" r="5" fill="green" stroke="none" /><circle cx="1068" cy="3216" r="5" fill="green" stroke="none" /><circle cx="879" cy="1914" r="5" fill="green" stroke="none" /><circle cx="1052" cy="1045" r="5" fill="green" stroke="none" /><circle cx="3083" cy="899" r="5" fill="green" stroke="none" /><circle cx="637" cy="1809" r="5" fill="green" stroke="none" /><circle cx="2014" cy="3552" r="5" fill="green" stroke="none" /><circle cx="2984" cy="627" r="5" fill="green" stroke="none" /><circle cx="454" cy="3945" r="5" fill="green" stroke="none" /><circle cx="3918" cy="685" r="5" fill="green" stroke="none" /><circle cx="438" cy="254" r="5" fill="green" stroke="none" /><circle cx="210" cy="2833" r="5" fill="green" stroke="none" /><circle cx="2658" cy="10" r="5" fill="green" stroke="none" /><circle cx="556" cy="417" r="5" fill="green" stroke="none" /><circle cx="1091" cy="3542" r="5" fill="green" stroke="none" /><circle cx="4397" cy="3111" r="5" fill="green" stroke="none" /><circle cx="246" cy="834" r="5" fill="green" stroke="none" /><circle cx="2745" cy="3164" r="5" fill="green" stroke="none" /><circle cx="1559" cy="2647" r="5" fill="green" stroke="none" /><circle cx="398" cy="355" r="5" fill="green" stroke="none" /><circle cx="4061" cy="3817" r="5" fill="green" stroke="none" /><circle cx="809" cy="2503" r="5" fill="green" stroke="none" /><circle cx="665" cy="487" r="5" fill="green" stroke="none" /><circle cx="4403" cy="2862" r="5" fill="green" stroke="none" /><circle cx="3749" cy="3822" r="5" fill="green" stroke="none" /><circle cx="3764" cy="3442" r="5" fill="green" stroke="none" /><circle cx="72" cy="2657" r="5" fill="green" stroke="none" /><circle cx="3735" cy="965" r="5" fill="green" stroke="none" /><circle cx="2065" cy="3363" r="5" fill="green" stroke="none" /><circle cx="1989" cy="746" r="5" fill="green" stroke="none" /><circle cx="1130" cy="449" r="5" fill="green" stroke="none" /><circle cx="3660" cy="1299" r="5" fill="green" stroke="none" /><circle cx="1109" cy="2551" r="5" fill="green" stroke="none" /><circle cx="3631" cy="52" r="5" fill="green" stroke="none" /><circle cx="3074" cy="2830" r="5" fill="green" stroke="none" /><circle cx="1354" cy="3386" r="5" fill="green" stroke="none" /><circle cx="4435" cy="19" r="5" fill="green" stroke="none" /><circle cx="2070" cy="2197" r="5" fill="green" stroke="none" /><circle cx="918" cy="737" r="5" fill="green" stroke="none" /><circle cx="3782" cy="482" r="5" fill="green" stroke="none" /><circle cx="329" cy="3562" r="5" fill="green" stroke="none" /><circle cx="3449" cy="434" r="5" fill="green" stroke="none" /><circle cx="951" cy="1564" r="5" fill="green" stroke="none" /><circle cx="470" cy="1261" r="5" fill="green" stroke="none" /><circle cx="3678" cy="967" r="5" fill="green" stroke="none" /><circle cx="1126" cy="92" r="5" fill="green" stroke="none" /><circle cx="1023" cy="95" r="5" fill="green" stroke="none" /><circle cx="1400" cy="4061" r="5" fill="green" stroke="none" /><circle cx="1114" cy="306" r="5" fill="green" stroke="none" /><circle cx="3469" cy="2627" r="5" fill="green" stroke="none" /><circle cx="4243" cy="2338" r="5" fill="green" stroke="none" /><circle cx="116" cy="3852" r="5" fill="green" stroke="none" /><circle cx="3716" cy="546" r="5" fill="green" stroke="none" /><circle cx="98" cy="2017" r="5" fill="green" stroke="none" /><circle cx="1905" cy="1375" r="5" fill="green" stroke="none" /><circle cx="1561" cy="2450" r="5" fill="green" stroke="none" /><circle cx="3091" cy="4029" r="5" fill="green" stroke="none" /><circle cx="302" cy="2301" r="5" fill="green" stroke="none" /><circle cx="652" cy="3787" r="5" fill="green" stroke="none" /><circle cx="4215" cy="4061" r="5" fill="green" stroke="none" /><circle cx="1580" cy="2417" r="5" fill="green" stroke="none" /><circle cx="3010" cy="4099" r="5" fill="green" stroke="none" /><circle cx="4249" cy="1653" r="5" fill="green" stroke="none" /><circle cx="4060" cy="1078" r="5" fill="green" stroke="none" /><circle cx="1900" cy="1594" r="5" fill="green" stroke="none" /><circle cx="2442" cy="1069" r="5" fill="green" stroke="none" /><circle cx="1611" cy="3617" r="5" fill="green" stroke="none" /><circle cx="4459" cy="3227" r="5" fill="green" stroke="none" /><circle cx="629" cy="176" r="5" fill="green" stroke="none" /><circle cx="2966" cy="2053" r="5" fill="green" stroke="none" /><circle cx="821" cy="3272" r="5" fill="green" stroke="none" /><circle cx="2691" cy="3164" r="5" fill="green" stroke="none" /><circle cx="4334" cy="1862" r="5" fill="green" stroke="none" /><circle cx="4483" cy="639" r="5" fill="green" stroke="none" /><circle cx="809" cy="4037" r="5" fill="green" stroke="none" /><circle cx="574" cy="316" r="5" fill="green" stroke="none" /><circle cx="3906" cy="2509" r="5" fill="green" stroke="none" /><circle cx="4223" cy="565" r="5" fill="green" stroke="none" /><circle cx="1649" cy="3835" r="5" fill="green" stroke="none" /><circle cx="886" cy="1600" r="5" fill="green" stroke="none" /><circle cx="24" cy="329" r="5" fill="green" stroke="none" /><circle cx="1726" cy="2254" r="5" fill="green" stroke="none" /><circle cx="3462" cy="1007" r="5" fill="green" stroke="none" /><circle cx="3342" cy="2148" r="5" fill="green" stroke="none" /><circle cx="286" cy="2606" r="5" fill="green" stroke="none" /><circle cx="1" cy="3787" r="5" fill="green" stroke="none" /><circle cx="95" cy="2798" r="5" fill="green" stroke="none" /><circle cx="618" cy="1319" r="5" fill="green" stroke="none" /><circle cx="3216" cy="1822" r="5" fill="green" stroke="none" /><circle cx="228" cy="3679" r="5" fill="green" stroke="none" /><circle cx="303" cy="2064" r="5" fill="green" stroke="none" /><circle cx="4313" cy="2537" r="5" fill="green" stroke="none" /><circle cx="37" cy="1534" r="5" fill="green" stroke="none" /><circle cx="2699" cy="3728" r="5" fill="green" stroke="none" /><circle cx="731" cy="1731" r="5" fill="green" stroke="none" /><circle cx="3615" cy="1055" r="5" fill="green" stroke="none" /><circle cx="588" cy="3971" r="5" fill="green" stroke="none" /><circle cx="2549" cy="533" r="5" fill="green" stroke="none" /><circle cx="2652" cy="2755" r="5" fill="green" stroke="none" /><circle cx="1740" cy="887" r="5" fill="green" stroke="none" /><circle cx="4097" cy="680" r="5" fill="green" stroke="none" /><circle cx="1432" cy="3043" r="5" fill="green" stroke="none" /><circle cx="1932" cy="896" r="5" fill="green" stroke="none" /><circle cx="3127" cy="1245" r="5" fill="green" stroke="none" /><circle cx="3398" cy="1089" r="5" fill="green" stroke="none" /><circle cx="460" cy="4065" r="5" fill="green" stroke="none" /><circle cx="1743" cy="3809" r="5" fill="green" stroke="none" /><circle cx="750" cy="684" r="5" fill="green" stroke="none" /><circle cx="737" cy="2614" r="5" fill="green" stroke="none" /><circle cx="1402" cy="108" r="5" fill="green" stroke="none" /><circle cx="2175" cy="954" r="5" fill="green" stroke="none" /><circle cx="2309" cy="1678" r="5" fill="green" stroke="none" /><circle cx="3954" cy="705" r="5" fill="green" stroke="none" /><circle cx="107" cy="3666" r="5" fill="green" stroke="none" /><circle cx="563" cy="2205" r="5" fill="green" stroke="none" /><circle cx="3736" cy="2323" r="5" fill="green" stroke="none" /><circle cx="4345" cy="3539" r="5" fill="green" stroke="none" /><circle cx="4477" cy="1371" r="5" fill="green" stroke="none" /><circle cx="545" cy="2874" r="5" fill="green" stroke="none" /><circle cx="900" cy="2919" r="5" fill="green" stroke="none" /><circle cx="487" cy="395" r="5" fill="green" stroke="none" /><circle cx="2975" cy="3086" r="5" fill="green" stroke="none" /><circle cx="387" cy="585" r="5" fill="green" stroke="none" /><circle cx="3416" cy="3508" r="5" fill="green" stroke="none" /><circle cx="1214" cy="1648" r="5" fill="green" stroke="none" /><circle cx="813" cy="1523" r="5" fill="green" stroke="none" /><circle cx="706" cy="3258" r="5" fill="green" stroke="none" /><circle cx="2840" cy="1857" r="5" fill="green" stroke="none" /><circle cx="744" cy="591" r="5" fill="green" stroke="none" /><circle cx="1718" cy="3881" r="5" fill="green" stroke="none" /><circle cx="390" cy="3907" r="5" fill="green" stroke="none" /><circle cx="272" cy="3161" r="5" fill="green" stroke="none" /><circle cx="2081" cy="380" r="5" fill="green" stroke="none" /><circle cx="3518" cy="94" r="5" fill="green" stroke="none" /><circle cx="861" cy="744" r="5" fill="green" stroke="none" /><circle cx="1316" cy="2907" r="5" fill="green" stroke="none" /><circle cx="3842" cy="2649" r="5" fill="green" stroke="none" /><circle cx="2700" cy="3750" r="5" fill="green" stroke="none" /><circle cx="4458" cy="2124" r="21" fill="red" stroke="none" /><circle cx="2132" cy="887" r="74" fill="red" stroke="none" /><circle cx="2455" cy="1816" r="69" fill="red" stroke="none" /><circle cx="69" cy="457" r="32" fill="red" stroke="none" /><circle cx="3054" cy="2045" r="14" fill="red" stroke="none" /><circle cx="704" cy="1550" r="83" fill="red" stroke="none" /><circle cx="1185" cy="794" r="75" fill="red" stroke="none" /><circle cx="3743" cy="2829" r="24" fill="red" stroke="none" /><circle cx="1168" cy="3244" r="18" fill="red" stroke="none" /><circle cx="3346" cy="1399" r="25" fill="red" stroke="none" /><circle cx="3307" cy="1236" r="31" fill="red" stroke="none" /><circle cx="2500" cy="3562" r="64" fill="red" stroke="none" /><circle cx="2681" cy="2439" r="33" fill="red" stroke="none" /><circle cx="533" cy="3671" r="43" fill="red" stroke="none" /><circle cx="582" cy="2082" r="24" fill="red" stroke="none" /><circle cx="1633" cy="2653" r="20" fill="red" stroke="none" /><circle cx="1994" cy="1601" r="81" fill="red" stroke="none" /><circle cx="662" cy="907" r="67" fill="red" stroke="none" /><circle cx="2379" cy="3399" r="36" fill="red" stroke="none" /><circle cx="1716" cy="3032" r="10" fill="red" stroke="none" /><circle cx="1695" cy="3737" r="5" fill="red" stroke="none" /><circle cx="2590" cy="457" r="60" fill="red" stroke="none" /><circle cx="2764" cy="2333" r="63" fill="red" stroke="none" /><circle cx="3327" cy="3150" r="82" fill="red" stroke="none" /><circle cx="1571" cy="3288" r="37" fill="red" stroke="none" /><circle cx="345" cy="1822" r="74" fill="red" stroke="none" /><circle cx="202" cy="2489" r="74" fill="red" stroke="none" /><circle cx="2622" cy="1767" r="46" fill="red" stroke="none" /><circle cx="4156" cy="932" r="57" fill="red" stroke="none" /><circle cx="693" cy="2975" r="56" fill="red" stroke="none" /><circle cx="2261" cy="2150" r="36" fill="red" stroke="none" /><circle cx="2744" cy="840" r="14" fill="red" stroke="none" /><circle cx="3822" cy="1624" r="30" fill="red" stroke="none" /><circle cx="3032" cy="2224" r="48" fill="red" stroke="none" /><circle cx="2379" cy="542" r="49" fill="red" stroke="none" /><circle cx="1783" cy="879" r="31" fill="red" stroke="none" /><circle cx="3951" cy="1729" r="63" fill="red" stroke="none" /><circle cx="3085" cy="2768" r="6" fill="red" stroke="none" /><circle cx="3751" cy="1280" r="45" fill="red" stroke="none" /><circle cx="1897" cy="3575" r="51" fill="red" stroke="none" /><circle cx="72" cy="1862" r="69" fill="red" stroke="none" /><circle cx="2654" cy="2517" r="73" fill="red" stroke="none" /><circle cx="1945" cy="2613" r="11" fill="red" stroke="none" /><circle cx="1127" cy="3405" r="23" fill="red" stroke="none" /><circle cx="2024" cy="3200" r="55" fill="red" stroke="none" /><circle cx="4392" cy="4028" r="66" fill="red" stroke="none" /><circle cx="1470" cy="232" r="36" fill="red" stroke="none" /><circle cx="1621" cy="3153" r="78" fill="red" stroke="none" /><circle cx="2571" cy="3774" r="51" fill="red" stroke="none" /><circle cx="3947" cy="257" r="12" fill="red" stroke="none" /><circle cx="2562" cy="3764" r="54" fill="red" stroke="none" /><circle cx="2348" cy="2011" r="42" fill="red" stroke="none" /><circle cx="4271" cy="2254" r="51" fill="red" stroke="none" /><circle cx="1113" cy="399" r="8" fill="red" stroke="none" /><circle cx="3191" cy="4012" r="65" fill="red" stroke="none" /><circle cx="2877" cy="2672" r="15" fill="red" stroke="none" /><circle cx="2902" cy="1004" r="18" fill="red" stroke="none" /><circle cx="3389" cy="451" r="6" fill="red" stroke="none" /><circle cx="2537" cy="149" r="69" fill="red" stroke="none" /><circle cx="3116" cy="262" r="42" fill="red" stroke="none" /><circle cx="3874" cy="2980" r="46" fill="red" stroke="none" /><circle cx="302" cy="2407" r="43" fill="red" stroke="none" /><circle cx="3642" cy="510" r="25" fill="red" stroke="none" /><circle cx="3788" cy="3803" r="36" fill="red" stroke="none" /><circle cx="2525" cy="2595" r="71" fill="red" stroke="none" /><circle cx="121" cy="3393" r="44" fill="red" stroke="none" /><circle cx="1360" cy="3843" r="57" fill="red" stroke="none" /><circle cx="1586" cy="3428" r="45" fill="red" stroke="none" /><circle cx="976" cy="1287" r="80" fill="red" stroke="none" /><circle cx="2670" cy="3608" r="35" fill="red" stroke="none" /><circle cx="1365" cy="3718" r="38" fill="red" stroke="none" /><circle cx="3096" cy="3339" r="28" fill="red" stroke="none" /><circle cx="2438" cy="1237" r="44" fill="red" stroke="none" /><circle cx="1206" cy="4023" r="26" fill="red" stroke="none" /><circle cx="2860" cy="113" r="45" fill="red" stroke="none" /><circle cx="3651" cy="2009" r="69" fill="red" stroke="none" /></svg>