<svg viewBox="0 0 7586 5764" xmlns="http://www.w3.org/2000/svg"><rect x="0" y="0" width="7586" height="5764" fill="lightyellow" stroke="none "/><rect x="2961" y="3339" width="713" height="1050" fill="white" stroke="black "/><circle cx="2148" cy="1699" r="5" fill="green" stroke="none" /><circle cx="5513" cy="4560" r="5" fill="green" stroke="none" /><circle cx="6128" cy="679" r="5" fill="green" stroke="none" /><circle cx="6623" cy="558" r="5" fill="green" stroke="none" /><circle cx="2928" cy="4372" r="5" fill="green" stroke="none" /><circle cx="6860" cy="1011" r="5" fill="green" stroke="none" /><circle cx="6679" cy="5115" r="5" fill="green" stroke="none" /><circle cx="3225" cy="526" r="5" fill="green" stroke="none" /><circle cx="2640" cy="144" r="5" fill="green" stroke="none" /><circle cx="5579" cy="4988" r="5" fill="green" stroke="none" /><circle cx="5180" cy="4200" r="5" fill="green" stroke="none" /><circle cx="3462" cy="1093" r="5" fill="green" stroke="none" /><circle cx="2977" cy="5347" r="5" fill="green" stroke="none" /><circle cx="3479" cy="2963" r="5" fill="green" stroke="none" /><circle cx="853" cy="4257" r="5" fill="green" stroke="none" /><circle cx="5690" cy="5001" r="5" fill="green" stroke="none" /><circle cx="6442" cy="4660" r="5" fill="green" stroke="none" /><circle cx="6075" cy="1822" r="5" fill="green" stroke="none" /><circle cx="1335" cy="3549" r="5" fill="green" stroke="none" /><circle cx="5452" cy="4334" r="5" fill="green" stroke="none" /><circle cx="1234" cy="5024" r="5" fill="green" stroke="none" /><circle cx="4599" cy="2663" r="5" fill="green" stroke="none" /><circle cx="5105" cy="5278" r="5" fill="green" stroke="none" /><circle cx="1782" cy="2896" r="5" fill="green" stroke="none" /><circle cx="18" cy="5526" r="5" fill="green" stroke="none" /><circle cx="2701" cy="1170" r="5" fill="green" stroke="none" /><circle cx="4263" cy="1267" r="5" fill="green" stroke="none" /><circle cx="3702" cy="4906" r="5" fill="green" stroke="none" /><circle cx="1232" cy="3077" r="5" fill="green" stroke="none" /><circle cx="2093" cy="3655" r="5" fill="green" stroke="none" /><circle cx="4701" cy="3107" r="5" fill="green" stroke="none" /><circle cx="163" cy="3703" r="5" fill="green" stroke="none" /><circle cx="2739" cy="2568" r="5" fill="green" stroke="none" /><circle cx="1592" cy="2287" r="5" fill="green" stroke="none" /><circle cx="4589" cy="1939" r="5" fill="green" stroke="none" /><circle cx="130" cy="33" r="5" fill="green" stroke="none" /><circle cx="3943" cy="3655" r="5" fill="green" stroke="none" /><circle cx="6924" cy="3211" r="5" fill="green" stroke="none" /><circle cx="997" cy="150" r="5" fill="green" stroke="none" /><circle cx="584" cy="1790" r="5" fill="green" stroke="none" /><circle cx="3355" cy="2826" r="5" fill="green" stroke="none" /><circle cx="5818" cy="450" r="5" fill="green" stroke="none" /><circle cx="5100" cy="4878" r="5" fill="green" stroke="none" /><circle cx="2289" cy="1912" r="5" fill="green" stroke="none" /><circle cx="1426" cy="3582" r="5" fill="green" stroke="none" /><circle cx="5691" cy="1827" r="5" fill="green" stroke="none" /><circle cx="73" cy="4989" r="5" fill="green" stroke="none" /><circle cx="2101" cy="3693" r="5" fill="green" stroke="none" /><circle cx="2493" cy="4735" r="5" fill="green" stroke="none" /><circle cx="5819" cy="2751" r="5" fill="green" stroke="none" /><circle cx="3317" cy="393" r="5" fill="green" stroke="none" /><circle cx="7203" cy="4097" r="5" fill="green" stroke="none" /><circle cx="6541" cy="1649" r="5" fill="green" stroke="none" /><circle cx="1249" cy="4093" r="5" fill="green" stroke="none" /><circle cx="2904" cy="2317" r="5" fill="green" stroke="none" /><circle cx="7296" cy="4775" r="5" fill="green" stroke="none" /><circle cx="2136" cy="4518" r="5" fill="green" stroke="none" /><circle cx="2855" cy="621" r="5" fill="green" stroke="none" /><circle cx="5118" cy="4149" r="5" fill="green" stroke="none" /><circle cx="6930" cy="273" r="5" fill="green" stroke="none" /><circle cx="2422" cy="3652" r="5" fill="green" stroke="none" /><circle cx="2847" cy="4371" r="5" fill="green" stroke="none" /><circle cx="704" cy="3580" r="5" fill="green" stroke="none" /><circle cx="2531" cy="3866" r="5" fill="green" stroke="none" /><circle cx="1741" cy="482" r="5" fill="green" stroke="none" /><circle cx="2543" cy="1835" r="5" fill="green" stroke="none" /><circle cx="4052" cy="5590" r="5" fill="green" stroke="none" /><circle cx="4677" cy="930" r="5" fill="green" stroke="none" /><circle cx="1536" cy="3234" r="5" fill="green" stroke="none" /><circle cx="190" cy="2576" r="5" fill="green" stroke="none" /><circle cx="1358" cy="3773" r="5" fill="green" stroke="none" /><circle cx="3143" cy="2820" r="5" fill="green" stroke="none" /><circle cx="1337" cy="95" r="5" fill="green" stroke="none" /><circle cx="662" cy="4376" r="5" fill="green" stroke="none" /><circle cx="3876" cy="4268" r="5" fill="green" stroke="none" /><circle cx="7306" cy="1524" r="5" fill="green" stroke="none" /><circle cx="4916" cy="3021" r="5" fill="green" stroke="none" /><circle cx="6416" cy="5059" r="5" fill="green" stroke="none" /><circle cx="2510" cy="1161" r="5" fill="green" stroke="none" /><circle cx="1257" cy="5365" r="5" fill="green" stroke="none" /><circle cx="6287" cy="5188" r="5" fill="green" stroke="none" /><circle cx="2686" cy="2645" r="5" fill="green" stroke="none" /><circle cx="7047" cy="4196" r="5" fill="green" stroke="none" /><circle cx="954" cy="693" r="5" fill="green" stroke="none" /><circle cx="5894" cy="2112" r="5" fill="green" stroke="none" /><circle cx="2145" cy="3015" r="5" fill="green" stroke="none" /><circle cx="3679" cy="2997" r="5" fill="green" stroke="none" /><circle cx="6604" cy="1251" r="5" fill="green" stroke="none" /><circle cx="7294" cy="3602" r="5" fill="green" stroke="none" /><circle cx="1679" cy="716" r="5" fill="green" stroke="none" /><circle cx="2538" cy="1776" r="5" fill="green" stroke="none" /><circle cx="7460" cy="503" r="5" fill="green" stroke="none" /><circle cx="20" cy="3136" r="5" fill="green" stroke="none" /><circle cx="1315" cy="1425" r="5" fill="green" stroke="none" /><circle cx="4116" cy="77" r="5" fill="green" stroke="none" /><circle cx="1003" cy="893" r="5" fill="green" stroke="none" /><circle cx="2593" cy="4544" r="5" fill="green" stroke="none" /><circle cx="3538" cy="5221" r="5" fill="green" stroke="none" /><circle cx="1797" cy="2094" r="5" fill="green" stroke="none" /><circle cx="5966" cy="3475" r="5" fill="green" stroke="none" /><circle cx="2740" cy="1180" r="5" fill="green" stroke="none" /><circle cx="7097" cy="3149" r="5" fill="green" stroke="none" /><circle cx="990" cy="196" r="5" fill="green" stroke="none" /><circle cx="6146" cy="1041" r="5" fill="green" stroke="none" /><circle cx="2562" cy="4399" r="5" fill="green" stroke="none" /><circle cx="2020" cy="581" r="5" fill="green" stroke="none" /><circle cx="863" cy="2265" r="5" fill="green" stroke="none" /><circle cx="5190" cy="3915" r="5" fill="green" stroke="none" /><circle cx="4065" cy="1777" r="5" fill="green" stroke="none" /><circle cx="1504" cy="2809" r="5" fill="green" stroke="none" /><circle cx="6366" cy="5566" r="5" fill="green" stroke="none" /><circle cx="2335" cy="1035" r="5" fill="green" stroke="none" /><circle cx="2989" cy="1979" r="5" fill="green" stroke="none" /><circle cx="1175" cy="5075" r="5" fill="green" stroke="none" /><circle cx="6852" cy="2729" r="5" fill="green" stroke="none" /><circle cx="6580" cy="2319" r="5" fill="green" stroke="none" /><circle cx="5441" cy="267" r="5" fill="green" stroke="none" /><circle cx="2638" cy="4766" r="5" fill="green" stroke="none" /><circle cx="5746" cy="2870" r="5" fill="green" stroke="none" /><circle cx="402" cy="4637" r="5" fill="green" stroke="none" /><circle cx="6631" cy="5179" r="5" fill="green" stroke="none" /><circle cx="1665" cy="4341" r="5" fill="green" stroke="none" /><circle cx="4867" cy="892" r="5" fill="green" stroke="none" /><circle cx="4571" cy="3685" r="5" fill="green" stroke="none" /><circle cx="4127" cy="2849" r="5" fill="green" stroke="none" /><circle cx="6227" cy="375" r="5" fill="green" stroke="none" /><circle cx="4491" cy="2670" r="5" fill="green" stroke="none" /><circle cx="494" cy="1435" r="5" fill="green" stroke="none" /><circle cx="7188" cy="3850" r="5" fill="green" stroke="none" /><circle cx="4460" cy="1304" r="5" fill="green" stroke="none" /><circle cx="1448" cy="4791" r="5" fill="green" stroke="none" /><circle cx="3403" cy="2119" r="5" fill="green" stroke="none" /><circle cx="1716" cy="567" r="5" fill="green" stroke="none" /><circle cx="4093" cy="3504" r="5" fill="green" stroke="none" /><circle cx="684" cy="4712" r="5" fill="green" stroke="none" /><circle cx="357" cy="1132" r="5" fill="green" stroke="none" /><circle cx="5875" cy="3854" r="5" fill="green" stroke="none" /><circle cx="3904" cy="1849" r="5" fill="green" stroke="none" /><circle cx="7489" cy="3224" r="5" fill="green" stroke="none" /><circle cx="1678" cy="20" r="5" fill="green" stroke="none" /><circle cx="6778" cy="5709" r="5" fill="green" stroke="none" /><circle cx="1641" cy="4563" r="5" fill="green" stroke="none" /><circle cx="6945" cy="5046" r="5" fill="green" stroke="none" /><circle cx="5127" cy="447" r="5" fill="green" stroke="none" /><circle cx="539" cy="5737" r="5" fill="green" stroke="none" /><circle cx="1208" cy="556" r="5" fill="green" stroke="none" /><circle cx="7489" cy="1744" r="5" fill="green" stroke="none" /><circle cx="3600" cy="2802" r="5" fill="green" stroke="none" /><circle cx="4892" cy="1211" r="5" fill="green" stroke="none" /><circle cx="592" cy="5409" r="5" fill="green" stroke="none" /><circle cx="7179" cy="4027" r="5" fill="green" stroke="none" /><circle cx="6749" cy="1831" r="5" fill="green" stroke="none" /><circle cx="3066" cy="2737" r="5" fill="green" stroke="none" /><circle cx="850" cy="2038" r="5" fill="green" stroke="none" /><circle cx="615" cy="3907" r="5" fill="green" stroke="none" /><circle cx="669" cy="3069" r="5" fill="green" stroke="none" /><circle cx="7067" cy="2346" r="5" fill="green" stroke="none" /><circle cx="4586" cy="3590" r="5" fill="green" stroke="none" /><circle cx="5088" cy="626" r="5" fill="green" stroke="none" /><circle cx="4590" cy="1753" r="5" fill="green" stroke="none" /><circle cx="5163" cy="1023" r="5" fill="green" stroke="none" /><circle cx="465" cy="4456" r="5" fill="green" stroke="none" /><circle cx="2362" cy="4991" r="5" fill="green" stroke="none" /><circle cx="6800" cy="5480" r="5" fill="green" stroke="none" /><circle cx="5130" cy="2849" r="5" fill="green" stroke="none" /><circle cx="5013" cy="1316" r="5" fill="green" stroke="none" /><circle cx="6720" cy="2962" r="5" fill="green" stroke="none" /><circle cx="1805" cy="4674" r="5" fill="green" stroke="none" /><circle cx="4401" cy="3890" r="5" fill="green" stroke="none" /><circle cx="2824" cy="370" r="5" fill="green" stroke="none" /><circle cx="1679" cy="1395" r="5" fill="green" stroke="none" /><circle cx="6384" cy="725" r="5" fill="green" stroke="none" /><circle cx="4304" cy="3296" r="5" fill="green" stroke="none" /><circle cx="1469" cy="200" r="5" fill="green" stroke="none" /><circle cx="183" cy="255" r="5" fill="green" stroke="none" /><circle cx="7029" cy="5743" r="5" fill="green" stroke="none" /><circle cx="5960" cy="3756" r="5" fill="green" stroke="none" /><circle cx="3365" cy="2792" r="5" fill="green" stroke="none" /><circle cx="1926" cy="4640" r="5" fill="green" stroke="none" /><circle cx="5852" cy="4113" r="5" fill="green" stroke="none" /><circle cx="5204" cy="5047" r="5" fill="green" stroke="none" /><circle cx="4770" cy="282" r="5" fill="green" stroke="none" /><circle cx="4495" cy="4097" r="5" fill="green" stroke="none" /><circle cx="712" cy="550" r="5" fill="green" stroke="none" /><circle cx="3192" cy="4605" r="5" fill="green" stroke="none" /><circle cx="516" cy="1456" r="5" fill="green" stroke="none" /><circle cx="4048" cy="2193" r="5" fill="green" stroke="none" /><circle cx="6378" cy="3658" r="5" fill="green" stroke="none" /><circle cx="2758" cy="2493" r="5" fill="green" stroke="none" /><circle cx="417" cy="5760" r="5" fill="green" stroke="none" /><circle cx="794" cy="2393" r="5" fill="green" stroke="none" /><circle cx="3059" cy="2609" r="5" fill="green" stroke="none" /><circle cx="5421" cy="4544" r="5" fill="green" stroke="none" /><circle cx="6466" cy="5401" r="5" fill="green" stroke="none" /><circle cx="1999" cy="4657" r="5" fill="green" stroke="none" /><circle cx="5428" cy="2610" r="5" fill="green" stroke="none" /><circle cx="1356" cy="3060" r="5" fill="green" stroke="none" /><circle cx="5268" cy="4851" r="5" fill="green" stroke="none" /><circle cx="5620" cy="2948" r="5" fill="green" stroke="none" /><circle cx="2698" cy="212" r="5" fill="green" stroke="none" /><circle cx="68" cy="3160" r="5" fill="green" stroke="none" /><circle cx="5641" cy="1479" r="5" fill="green" stroke="none" /><circle cx="4893" cy="609" r="5" fill="green" stroke="none" /><circle cx="2460" cy="938" r="5" fill="green" stroke="none" /><circle cx="2813" cy="3355" r="5" fill="green" stroke="none" /><circle cx="2352" cy="252" r="5" fill="green" stroke="none" /><circle cx="980" cy="2472" r="5" fill="green" stroke="none" /><circle cx="3365" cy="1527" r="5" fill="green" stroke="none" /><circle cx="5641" cy="4627" r="5" fill="green" stroke="none" /><circle cx="5829" cy="4880" r="5" fill="green" stroke="none" /><circle cx="7482" cy="71" r="5" fill="green" stroke="none" /><circle cx="5421" cy="1571" r="5" fill="green" stroke="none" /><circle cx="537" cy="5611" r="5" fill="green" stroke="none" /><circle cx="6590" cy="337" r="5" fill="green" stroke="none" /><circle cx="5004" cy="1331" r="5" fill="green" stroke="none" /><circle cx="5262" cy="31" r="5" fill="green" stroke="none" /><circle cx="7527" cy="3471" r="5" fill="green" stroke="none" /><circle cx="4402" cy="4623" r="5" fill="green" stroke="none" /><circle cx="1849" cy="1575" r="5" fill="green" stroke="none" /><circle cx="3564" cy="1470" r="5" fill="green" stroke="none" /><circle cx="5306" cy="730" r="5" fill="green" stroke="none" /><circle cx="5159" cy="4969" r="5" fill="green" stroke="none" /><circle cx="5455" cy="173" r="5" fill="green" stroke="none" /><circle cx="5124" cy="3345" r="5" fill="green" stroke="none" /><circle cx="6920" cy="709" r="5" fill="green" stroke="none" /><circle cx="5399" cy="3380" r="5" fill="green" stroke="none" /><circle cx="5952" cy="3855" r="5" fill="green" stroke="none" /><circle cx="6639" cy="1390" r="5" fill="green" stroke="none" /><circle cx="4272" cy="2077" r="5" fill="green" stroke="none" /><circle cx="5745" cy="185" r="5" fill="green" stroke="none" /><circle cx="6998" cy="4023" r="5" fill="green" stroke="none" /><circle cx="4834" cy="5021" r="5" fill="green" stroke="none" /><circle cx="6682" cy="3841" r="5" fill="green" stroke="none" /><circle cx="6498" cy="1031" r="5" fill="green" stroke="none" /><circle cx="491" cy="862" r="5" fill="green" stroke="none" /><circle cx="3885" cy="4617" r="5" fill="green" stroke="none" /><circle cx="4881" cy="943" r="5" fill="green" stroke="none" /><circle cx="5378" cy="1351" r="5" fill="green" stroke="none" /><circle cx="6167" cy="2813" r="5" fill="green" stroke="none" /><circle cx="300" cy="3879" r="5" fill="green" stroke="none" /><circle cx="890" cy="535" r="5" fill="green" stroke="none" /><circle cx="7436" cy="2431" r="5" fill="green" stroke="none" /><circle cx="966" cy="1390" r="5" fill="green" stroke="none" /><circle cx="1696" cy="4438" r="5" fill="green" stroke="none" /><circle cx="4692" cy="1424" r="5" fill="green" stroke="none" /><circle cx="4287" cy="5731" r="5" fill="green" stroke="none" /><circle cx="2084" cy="411" r="5" fill="green" stroke="none" /><circle cx="3371" cy="245" r="5" fill="green" stroke="none" /><circle cx="101" cy="778" r="5" fill="green" stroke="none" /><circle cx="1865" cy="464" r="5" fill="green" stroke="none" /><circle cx="3983" cy="4380" r="5" fill="green" stroke="none" /><circle cx="773" cy="3720" r="5" fill="green" stroke="none" /><circle cx="5937" cy="280" r="5" fill="green" stroke="none" /><circle cx="2141" cy="4193" r="5" fill="green" stroke="none" /><circle cx="1455" cy="4837" r="5" fill="green" stroke="none" /><circle cx="2573" cy="2829" r="5" fill="green" stroke="none" /><circle cx="3834" cy="3029" r="5" fill="green" stroke="none" /><circle cx="4884" cy="5155" r="5" fill="green" stroke="none" /><circle cx="1288" cy="668" r="5" fill="green" stroke="none" /><circle cx="1544" cy="904" r="5" fill="green" stroke="none" /><circle cx="7557" cy="1604" r="5" fill="green" stroke="none" /><circle cx="5383" cy="4045" r="5" fill="green" stroke="none" /><circle cx="4018" cy="2829" r="5" fill="green" stroke="none" /><circle cx="5910" cy="4190" r="5" fill="green" stroke="none" /><circle cx="5415" cy="466" r="5" fill="green" stroke="none" /><circle cx="5237" cy="471" r="5" fill="green" stroke="none" /><circle cx="3641" cy="4544" r="5" fill="green" stroke="none" /><circle cx="3318" cy="2241" r="5" fill="green" stroke="none" /><circle cx="3824" cy="5300" r="5" fill="green" stroke="none" /><circle cx="158" cy="3014" r="5" fill="green" stroke="none" /><circle cx="1938" cy="1916" r="5" fill="green" stroke="none" /><circle cx="4911" cy="1885" r="5" fill="green" stroke="none" /><circle cx="3888" cy="166" r="5" fill="green" stroke="none" /><circle cx="1023" cy="1416" r="5" fill="green" stroke="none" /><circle cx="7538" cy="1306" r="5" fill="green" stroke="none" /><circle cx="5603" cy="5135" r="5" fill="green" stroke="none" /><circle cx="2729" cy="1155" r="5" fill="green" stroke="none" /><circle cx="1104" cy="4777" r="5" fill="green" stroke="none" /><circle cx="1338" cy="3378" r="5" fill="green" stroke="none" /><circle cx="5424" cy="4144" r="5" fill="green" stroke="none" /><circle cx="4738" cy="1106" r="5" fill="green" stroke="none" /><circle cx="6814" cy="3888" r="5" fill="green" stroke="none" /><circle cx="4656" cy="3382" r="5" fill="green" stroke="none" /><circle cx="2915" cy="1047" r="5" fill="green" stroke="none" /><circle cx="3949" cy="2771" r="5" fill="green" stroke="none" /><circle cx="4079" cy="4534" r="5" fill="green" stroke="none" /><circle cx="665" cy="2786" r="5" fill="green" stroke="none" /><circle cx="4496" cy="1448" r="5" fill="green" stroke="none" /><circle cx="4296" cy="78" r="5" fill="green" stroke="none" /><circle cx="2830" cy="477" r="5" fill="green" stroke="none" /><circle cx="4153" cy="1520" r="5" fill="green" stroke="none" /><circle cx="2836" cy="1894" r="5" fill="green" stroke="none" /><circle cx="6311" cy="3829" r="5" fill="green" stroke="none" /><circle cx="4606" cy="3750" r="5" fill="green" stroke="none" /><circle cx="2378" cy="1323" r="5" fill="green" stroke="none" /><circle cx="3544" cy="516" r="5" fill="green" stroke="none" /><circle cx="3898" cy="32" r="5" fill="green" stroke="none" /><circle cx="6364" cy="2399" r="5" fill="green" stroke="none" /><circle cx="346" cy="318" r="5" fill="green" stroke="none" /><circle cx="7272" cy="4468" r="5" fill="green" stroke="none" /><circle cx="5134" cy="926" r="5" fill="green" stroke="none" /><circle cx="917" cy="5381" r="5" fill="green" stroke="none" /><circle cx="5687" cy="3913" r="5" fill="green" stroke="none" /><circle cx="2496" cy="3051" r="5" fill="green" stroke="none" /><circle cx="1778" cy="4345" r="5" fill="green" stroke="none" /><circle cx="7381" cy="2885" r="5" fill="green" stroke="none" /><circle cx="5160" cy="900" r="5" fill="green" stroke="none" /><circle cx="1044" cy="2374" r="5" fill="green" stroke="none" /><circle cx="2154" cy="102" r="5" fill="green" stroke="none" /><circle cx="5098" cy="3147" r="5" fill="green" stroke="none" /><circle cx="1536" cy="1199" r="5" fill="green" stroke="none" /><circle cx="4565" cy="4731" r="5" fill="green" stroke="none" /><circle cx="5046" cy="3512" r="5" fill="green" stroke="none" /><circle cx="2093" cy="474" r="5" fill="green" stroke="none" /><circle cx="812" cy="1259" r="5" fill="green" stroke="none" /><circle cx="5424" cy="1187" r="5" fill="green" stroke="none" /><circle cx="4745" cy="103" r="5" fill="green" stroke="none" /><circle cx="6533" cy="2844" r="5" fill="green" stroke="none" /><circle cx="3943" cy="1996" r="5" fill="green" stroke="none" /><circle cx="7149" cy="4403" r="5" fill="green" stroke="none" /><circle cx="1678" cy="648" r="5" fill="green" stroke="none" /><circle cx="7583" cy="1587" r="5" fill="green" stroke="none" /><circle cx="5251" cy="5151" r="5" fill="green" stroke="none" /><circle cx="5907" cy="3218" r="5" fill="green" stroke="none" /><circle cx="3710" cy="1799" r="5" fill="green" stroke="none" /><circle cx="739" cy="1289" r="5" fill="green" stroke="none" /><circle cx="698" cy="5580" r="5" fill="green" stroke="none" /><circle cx="882" cy="3766" r="5" fill="green" stroke="none" /><circle cx="4832" cy="3951" r="5" fill="green" stroke="none" /><circle cx="5123" cy="3425" r="5" fill="green" stroke="none" /><circle cx="55" cy="5104" r="5" fill="green" stroke="none" /><circle cx="5030" cy="2599" r="5" fill="green" stroke="none" /><circle cx="1817" cy="2470" r="5" fill="green" stroke="none" /><circle cx="921" cy="1102" r="5" fill="green" stroke="none" /><circle cx="3384" cy="900" r="5" fill="green" stroke="none" /><circle cx="4335" cy="4086" r="5" fill="green" stroke="none" /><circle cx="4736" cy="2457" r="5" fill="green" stroke="none" /><circle cx="3594" cy="2702" r="5" fill="green" stroke="none" /><circle cx="605" cy="3821" r="5" fill="green" stroke="none" /><circle cx="2496" cy="3220" r="5" fill="green" stroke="none" /><circle cx="4587" cy="4346" r="5" fill="green" stroke="none" /><circle cx="5892" cy="4402" r="5" fill="green" stroke="none" /><circle cx="2921" cy="3383" r="5" fill="green" stroke="none" /><circle cx="2526" cy="3558" r="5" fill="green" stroke="none" /><circle cx="2675" cy="1939" r="5" fill="green" stroke="none" /><circle cx="7043" cy="3808" r="5" fill="green" stroke="none" /><circle cx="4802" cy="1183" r="5" fill="green" stroke="none" /><circle cx="4691" cy="3164" r="5" fill="green" stroke="none" /><circle cx="2972" cy="2003" r="5" fill="green" stroke="none" /><circle cx="3631" cy="5394" r="5" fill="green" stroke="none" /><circle cx="7151" cy="2938" r="5" fill="green" stroke="none" /><circle cx="5312" cy="3490" r="5" fill="green" stroke="none" /><circle cx="4548" cy="3445" r="5" fill="green" stroke="none" /><circle cx="3311" cy="2761" r="5" fill="green" stroke="none" /><circle cx="6057" cy="2128" r="5" fill="green" stroke="none" /><circle cx="220" cy="3086" r="5" fill="green" stroke="none" /><circle cx="4436" cy="1317" r="5" fill="green" stroke="none" /><circle cx="7012" cy="5080" r="5" fill="green" stroke="none" /><circle cx="187" cy="3205" r="5" fill="green" stroke="none" /><circle cx="3115" cy="1605" r="5" fill="green" stroke="none" /><circle cx="5867" cy="755" r="5" fill="green" stroke="none" /><circle cx="6510" cy="3840" r="5" fill="green" stroke="none" /><circle cx="2080" cy="721" r="5" fill="green" stroke="none" /><circle cx="7429" cy="1860" r="5" fill="green" stroke="none" /><circle cx="4155" cy="4893" r="5" fill="green" stroke="none" /><circle cx="3706" cy="3298" r="5" fill="green" stroke="none" /><circle cx="7287" cy="668" r="5" fill="green" stroke="none" /><circle cx="1291" cy="1893" r="5" fill="green" stroke="none" /><circle cx="6564" cy="4774" r="5" fill="green" stroke="none" /><circle cx="3755" cy="4306" r="5" fill="green" stroke="none" /><circle cx="721" cy="2294" r="5" fill="green" stroke="none" /><circle cx="5526" cy="1623" r="5" fill="green" stroke="none" /><circle cx="4374" cy="4884" r="5" fill="green" stroke="none" /><circle cx="4957" cy="2475" r="5" fill="green" stroke="none" /><circle cx="3823" cy="148" r="5" fill="green" stroke="none" /><circle cx="7036" cy="5265" r="5" fill="green" stroke="none" /><circle cx="1153" cy="4749" r="5" fill="green" stroke="none" /><circle cx="1464" cy="2647" r="5" fill="green" stroke="none" /><circle cx="6395" cy="4629" r="5" fill="green" stroke="none" /><circle cx="1438" cy="1189" r="5" fill="green" stroke="none" /><circle cx="6808" cy="2673" r="5" fill="green" stroke="none" /><circle cx="1065" cy="1215" r="5" fill="green" stroke="none" /><circle cx="1135" cy="2216" r="83" fill="red" stroke="none" /><circle cx="5861" cy="41" r="25" fill="red" stroke="none" /><circle cx="2409" cy="3381" r="45" fill="red" stroke="none" /><circle cx="4514" cy="1586" r="18" fill="red" stroke="none" /><circle cx="5006" cy="3630" r="71" fill="red" stroke="none" /><circle cx="3973" cy="1751" r="40" fill="red" stroke="none" /><circle cx="1617" cy="767" r="62" fill="red" stroke="none" /><circle cx="7486" cy="4715" r="81" fill="red" stroke="none" /><circle cx="5999" cy="1448" r="64" fill="red" stroke="none" /><circle cx="1589" cy="542" r="36" fill="red" stroke="none" /><circle cx="6118" cy="5310" r="69" fill="red" stroke="none" /><circle cx="5788" cy="5253" r="52" fill="red" stroke="none" /><circle cx="338" cy="5539" r="71" fill="red" stroke="none" /><circle cx="4346" cy="3898" r="21" fill="red" stroke="none" /><circle cx="1743" cy="5542" r="82" fill="red" stroke="none" /><circle cx="1304" cy="1031" r="43" fill="red" stroke="none" /><circle cx="3621" cy="2546" r="59" fill="red" stroke="none" /><circle cx="2988" cy="1598" r="82" fill="red" stroke="none" /><circle cx="6073" cy="3758" r="71" fill="red" stroke="none" /><circle cx="6090" cy="3882" r="35" fill="red" stroke="none" /><circle cx="7020" cy="1925" r="80" fill="red" stroke="none" /><circle cx="876" cy="2494" r="32" fill="red" stroke="none" /><circle cx="6464" cy="3438" r="79" fill="red" stroke="none" /><circle cx="832" cy="5542" r="38" fill="red" stroke="none" /><circle cx="647" cy="3972" r="45" fill="red" stroke="none" /><circle cx="4437" cy="700" r="17" fill="red" stroke="none" /><circle cx="3450" cy="2319" r="17" fill="red" stroke="none" /><circle cx="1648" cy="2517" r="40" fill="red" stroke="none" /><circle cx="4360" cy="3077" r="25" fill="red" stroke="none" /><circle cx="5791" cy="5205" r="65" fill="red" stroke="none" /><circle cx="5862" cy="2760" r="31" fill="red" stroke="none" /><circle cx="3186" cy="5383" r="76" fill="red" stroke="none" /><circle cx="3588" cy="245" r="73" fill="red" stroke="none" /><circle cx="562" cy="3326" r="28" fill="red" stroke="none" /><circle cx="6294" cy="2270" r="60" fill="red" stroke="none" /><circle cx="989" cy="2866" r="9" fill="red" stroke="none" /><circle cx="4918" cy="2821" r="50" fill="red" stroke="none" /><circle cx="6177" cy="2228" r="79" fill="red" stroke="none" /><circle cx="6435" cy="4371" r="63" fill="red" stroke="none" /><circle cx="4366" cy="5632" r="33" fill="red" stroke="none" /><circle cx="5524" cy="102" r="35" fill="red" stroke="none" /><circle cx="2733" cy="5117" r="32" fill="red" stroke="none" /><circle cx="1483" cy="3346" r="44" fill="red" stroke="none" /><circle cx="1542" cy="1899" r="62" fill="red" stroke="none" /><circle cx="966" cy="4749" r="15" fill="red" stroke="none" /><circle cx="3093" cy="2570" r="30" fill="red" stroke="none" /><circle cx="7150" cy="443" r="59" fill="red" stroke="none" /><circle cx="1774" cy="4748" r="19" fill="red" stroke="none" /><circle cx="4344" cy="50" r="44" fill="red" stroke="none" /><circle cx="287" cy="5723" r="19" fill="red" stroke="none" /><circle cx="7109" cy="5551" r="70" fill="red" stroke="none" /><circle cx="3737" cy="2607" r="81" fill="red" stroke="none" /><circle cx="3164" cy="1555" r="34" fill="red" stroke="none" /><circle cx="6807" cy="4702" r="6" fill="red" stroke="none" /><circle cx="6212" cy="1691" r="66" fill="red" stroke="none" /><circle cx="2970" cy="5698" r="56" fill="red" stroke="none" /><circle cx="2855" cy="906" r="65" fill="red" stroke="none" /><circle cx="5562" cy="1174" r="79" fill="red" stroke="none" /><circle cx="4443" cy="1989" r="24" fill="red" stroke="none" /><circle cx="5245" cy="5608" r="41" fill="red" stroke="none" /><circle cx="5174" cy="4135" r="32" fill="red" stroke="none" /><circle cx="4444" cy="4361" r="41" fill="red" stroke="none" /><circle cx="4742" cy="5644" r="5" fill="red" stroke="none" /><circle cx="3381" cy="2600" r="33" fill="red" stroke="none" /><circle cx="5641" cy="4470" r="68" fill="red" stroke="none" /><circle cx="5516" cy="1020" r="62" fill="red" stroke="none" /><circle cx="641" cy="2034" r="50" fill="red" stroke="none" /><circle cx="6128" cy="2944" r="11" fill="red" stroke="none" /><circle cx="2215" cy="2242" r="56" fill="red" stroke="none" /><circle cx="5067" cy="2455" r="83" fill="red" stroke="none" /><circle cx="4161" cy="508" r="43" fill="red" stroke="none" /><circle cx="7272" cy="3969" r="69" fill="red" stroke="none" /><circle cx="5667" cy="378" r="21" fill="red" stroke="none" /><circle cx="7070" cy="1376" r="42" fill="red" stroke="none" /><circle cx="3849" cy="4701" r="78" fill="red" stroke="none" /><circle cx="7002" cy="2848" r="53" fill="red" stroke="none" /><circle cx="4993" cy="1425" r="25" fill="red" stroke="none" /><circle cx="265" cy="1796" r="13" fill="red" stroke="none" /><circle cx="7404" cy="4674" r="63" fill="red" stroke="none" /><circle cx="3470" cy="5235" r="54" fill="red" stroke="none" /><circle cx="352" cy="1873" r="26" fill="red" stroke="none" /><circle cx="4736" cy="2913" r="81" fill="red" stroke="none" /><circle cx="7254" cy="2453" r="23" fill="red" stroke="none" /><circle cx="1985" cy="493" r="65" fill="red" stroke="none" /><circle cx="776" cy="3161" r="19" fill="red" stroke="none" /><circle cx="5892" cy="4137" r="44" fill="red" stroke="none" /><circle cx="4517" cy="5267" r="57" fill="red" stroke="none" /><circle cx="3588" cy="925" r="45" fill="red" stroke="none" /><circle cx="4037" cy="5042" r="46" fill="red" stroke="none" /><circle cx="1311" cy="3650" r="51" fill="red" stroke="none" /><circle cx="6059" cy="1179" r="61" fill="red" stroke="none" /><circle cx="3054" cy="5181" r="24" fill="red" stroke="none" /><circle cx="3613" cy="1781" r="80" fill="red" stroke="none" /><circle cx="4360" cy="5404" r="15" fill="red" stroke="none" /><circle cx="4834" cy="236" r="48" fill="red" stroke="none" /><circle cx="2797" cy="2025" r="78" fill="red" stroke="none" /><circle cx="1606" cy="3068" r="29" fill="red" stroke="none" /><circle cx="6348" cy="5527" r="6" fill="red" stroke="none" /><circle cx="854" cy="2750" r="9" fill="red" stroke="none" /><circle cx="1983" cy="1749" r="25" fill="red" stroke="none" /><circle cx="5663" cy="116" r="47" fill="red" stroke="none" /><circle cx="5232" cy="5476" r="24" fill="red" stroke="none" /><circle cx="6065" cy="2611" r="53" fill="red" stroke="none" /><circle cx="2713" cy="1657" r="13" fill="red" stroke="none" /><circle cx="4229" cy="36" r="27" fill="red" stroke="none" /><circle cx="681" cy="1234" r="37" fill="red" stroke="none" /><circle cx="6207" cy="3196" r="31" fill="red" stroke="none" /><circle cx="6065" cy="2954" r="54" fill="red" stroke="none" /><circle cx="4831" cy="4258" r="47" fill="red" stroke="none" /><circle cx="714" cy="2041" r="10" fill="red" stroke="none" /><circle cx="2518" cy="5433" r="61" fill="red" stroke="none" /></svg>