<svg viewBox="0 0 9797 4805" xmlns="http://www.w3.org/2000/svg"><rect x="0" y="0" width="9797" height="4805" fill="lightyellow" stroke="none "/><rect x="5745" y="2957" width="1696" height="786" fill="white" stroke="black "/><circle cx="5575" cy="3351" r="5" fill="green" stroke="none" /><circle cx="7522" cy="1976" r="5" fill="green" stroke="none" /><circle cx="54" cy="2383" r="5" fill="green" stroke="none" /><circle cx="8777" cy="204" r="5" fill="green" stroke="none" /><circle cx="5714" cy="192" r="5" fill="green" stroke="none" /><circle cx="4185" cy="4283" r="5" fill="green" stroke="none" /><circle cx="8112" cy="2284" r="5" fill="green" stroke="none" /><circle cx="5011" cy="2148" r="5" fill="green" stroke="none" /><circle cx="9661" cy="3101" r="5" fill="green" stroke="none" /><circle cx="9678" cy="56" r="5" fill="green" stroke="none" /><circle cx="938" cy="1117" r="5" fill="green" stroke="none" /><circle cx="9779" cy="2245" r="5" fill="green" stroke="none" /><circle cx="336" cy="1303" r="5" fill="green" stroke="none" /><circle cx="6842" cy="2361" r="5" fill="green" stroke="none" /><circle cx="4667" cy="2951" r="5" fill="green" stroke="none" /><circle cx="5485" cy="2139" r="5" fill="green" stroke="none" /><circle cx="8796" cy="3315" r="5" fill="green" stroke="none" /><circle cx="7209" cy="4715" r="5" fill="green" stroke="none" /><circle cx="529" cy="3165" r="5" fill="green" stroke="none" /><circle cx="8297" cy="3827" r="5" fill="green" stroke="none" /><circle cx="963" cy="4608" r="5" fill="green" stroke="none" /><circle cx="3108" cy="92" r="5" fill="green" stroke="none" /><circle cx="3404" cy="3450" r="5" fill="green" stroke="none" /><circle cx="9455" cy="136" r="5" fill="green" stroke="none" /><circle cx="8318" cy="3370" r="5" fill="green" stroke="none" /><circle cx="9323" cy="3586" r="5" fill="green" stroke="none" /><circle cx="6959" cy="2026" r="5" fill="green" stroke="none" /><circle cx="3774" cy="4377" r="5" fill="green" stroke="none" /><circle cx="2965" cy="1455" r="5" fill="green" stroke="none" /><circle cx="5699" cy="381" r="5" fill="green" stroke="none" /><circle cx="6396" cy="3828" r="5" fill="green" stroke="none" /><circle cx="5929" cy="2255" r="5" fill="green" stroke="none" /><circle cx="3853" cy="3125" r="5" fill="green" stroke="none" /><circle cx="4497" cy="3720" r="5" fill="green" stroke="none" /><circle cx="2198" cy="2253" r="5" fill="green" stroke="none" /><circle cx="8306" cy="3491" r="5" fill="green" stroke="none" /><circle cx="8083" cy="4360" r="5" fill="green" stroke="none" /><circle cx="7877" cy="853" r="5" fill="green" stroke="none" /><circle cx="3928" cy="718" r="5" fill="green" stroke="none" /><circle cx="8514" cy="3463" r="5" fill="green" stroke="none" /><circle cx="6929" cy="1697" r="5" fill="green" stroke="none" /><circle cx="7569" cy="2992" r="5" fill="green" stroke="none" /><circle cx="5627" cy="2742" r="5" fill="green" stroke="none" /><circle cx="5859" cy="4552" r="5" fill="green" stroke="none" /><circle cx="8950" cy="4383" r="5" fill="green" stroke="none" /><circle cx="3843" cy="2024" r="5" fill="green" stroke="none" /><circle cx="5255" cy="2828" r="5" fill="green" stroke="none" /><circle cx="1432" cy="2790" r="5" fill="green" stroke="none" /><circle cx="6602" cy="4616" r="5" fill="green" stroke="none" /><circle cx="7631" cy="241" r="5" fill="green" stroke="none" /><circle cx="9580" cy="2475" r="5" fill="green" stroke="none" /><circle cx="1633" cy="1684" r="5" fill="green" stroke="none" /><circle cx="8915" cy="3672" r="5" fill="green" stroke="none" /><circle cx="7002" cy="666" r="5" fill="green" stroke="none" /><circle cx="1356" cy="3450" r="5" fill="green" stroke="none" /><circle cx="9332" cy="3916" r="5" fill="green" stroke="none" /><circle cx="7622" cy="2767" r="5" fill="green" stroke="none" /><circle cx="7879" cy="3891" r="5" fill="green" stroke="none" /><circle cx="678" cy="2896" r="5" fill="green" stroke="none" /><circle cx="6145" cy="2654" r="5" fill="green" stroke="none" /><circle cx="3982" cy="3357" r="5" fill="green" stroke="none" /><circle cx="935" cy="2623" r="5" fill="green" stroke="none" /><circle cx="7852" cy="1545" r="5" fill="green" stroke="none" /><circle cx="4574" cy="2266" r="5" fill="green" stroke="none" /><circle cx="4592" cy="4662" r="5" fill="green" stroke="none" /><circle cx="3073" cy="4176" r="5" fill="green" stroke="none" /><circle cx="4674" cy="4760" r="5" fill="green" stroke="none" /><circle cx="5785" cy="920" r="5" fill="green" stroke="none" /><circle cx="6804" cy="1028" r="5" fill="green" stroke="none" /><circle cx="450" cy="2451" r="5" fill="green" stroke="none" /><circle cx="3389" cy="2041" r="5" fill="green" stroke="none" /><circle cx="7845" cy="3202" r="5" fill="green" stroke="none" /><circle cx="2362" cy="660" r="5" fill="green" stroke="none" /><circle cx="2428" cy="2422" r="5" fill="green" stroke="none" /><circle cx="3233" cy="2877" r="5" fill="green" stroke="none" /><circle cx="8122" cy="2011" r="5" fill="green" stroke="none" /><circle cx="9588" cy="3261" r="5" fill="green" stroke="none" /><circle cx="2738" cy="1794" r="5" fill="green" stroke="none" /><circle cx="1639" cy="2524" r="5" fill="green" stroke="none" /><circle cx="3425" cy="4550" r="5" fill="green" stroke="none" /><circle cx="3473" cy="410" r="5" fill="green" stroke="none" /><circle cx="7566" cy="3192" r="5" fill="green" stroke="none" /><circle cx="5692" cy="3181" r="5" fill="green" stroke="none" /><circle cx="681" cy="2694" r="5" fill="green" stroke="none" /><circle cx="5202" cy="2407" r="5" fill="green" stroke="none" /><circle cx="6850" cy="1934" r="5" fill="green" stroke="none" /><circle cx="2957" cy="4747" r="5" fill="green" stroke="none" /><circle cx="9731" cy="151" r="5" fill="green" stroke="none" /><circle cx="1528" cy="4721" r="5" fill="green" stroke="none" /><circle cx="1895" cy="2310" r="5" fill="green" stroke="none" /><circle cx="2706" cy="3726" r="5" fill="green" stroke="none" /><circle cx="7686" cy="4446" r="5" fill="green" stroke="none" /><circle cx="3343" cy="820" r="5" fill="green" stroke="none" /><circle cx="4205" cy="92" r="5" fill="green" stroke="none" /><circle cx="2746" cy="3583" r="5" fill="green" stroke="none" /><circle cx="9290" cy="1700" r="5" fill="green" stroke="none" /><circle cx="7631" cy="2144" r="5" fill="green" stroke="none" /><circle cx="7608" cy="1054" r="5" fill="green" stroke="none" /><circle cx="6475" cy="2526" r="5" fill="green" stroke="none" /><circle cx="7211" cy="1522" r="5" fill="green" stroke="none" /><circle cx="810" cy="1687" r="5" fill="green" stroke="none" /><circle cx="3028" cy="4137" r="5" fill="green" stroke="none" /><circle cx="8592" cy="4558" r="5" fill="green" stroke="none" /><circle cx="7109" cy="2652" r="5" fill="green" stroke="none" /><circle cx="5221" cy="3964" r="5" fill="green" stroke="none" /><circle cx="1198" cy="4394" r="5" fill="green" stroke="none" /><circle cx="8470" cy="534" r="5" fill="green" stroke="none" /><circle cx="4816" cy="2131" r="5" fill="green" stroke="none" /><circle cx="8636" cy="2230" r="5" fill="green" stroke="none" /><circle cx="2563" cy="2264" r="5" fill="green" stroke="none" /><circle cx="1863" cy="2155" r="5" fill="green" stroke="none" /><circle cx="468" cy="3256" r="5" fill="green" stroke="none" /><circle cx="4855" cy="3748" r="5" fill="green" stroke="none" /><circle cx="7416" cy="2170" r="5" fill="green" stroke="none" /><circle cx="6290" cy="903" r="5" fill="green" stroke="none" /><circle cx="4407" cy="4015" r="5" fill="green" stroke="none" /><circle cx="6459" cy="2527" r="5" fill="green" stroke="none" /><circle cx="3296" cy="1965" r="5" fill="green" stroke="none" /><circle cx="61" cy="1148" r="5" fill="green" stroke="none" /><circle cx="3180" cy="1252" r="5" fill="green" stroke="none" /><circle cx="4772" cy="4400" r="5" fill="green" stroke="none" /><circle cx="4205" cy="187" r="5" fill="green" stroke="none" /><circle cx="8166" cy="2074" r="5" fill="green" stroke="none" /><circle cx="8678" cy="767" r="5" fill="green" stroke="none" /><circle cx="8014" cy="3734" r="5" fill="green" stroke="none" /><circle cx="4695" cy="3036" r="5" fill="green" stroke="none" /><circle cx="5088" cy="2748" r="5" fill="green" stroke="none" /><circle cx="3285" cy="4523" r="5" fill="green" stroke="none" /><circle cx="7664" cy="4634" r="5" fill="green" stroke="none" /><circle cx="8875" cy="3808" r="5" fill="green" stroke="none" /><circle cx="3979" cy="2704" r="5" fill="green" stroke="none" /><circle cx="7213" cy="1438" r="5" fill="green" stroke="none" /><circle cx="8657" cy="4404" r="5" fill="green" stroke="none" /><circle cx="493" cy="1731" r="5" fill="green" stroke="none" /><circle cx="5195" cy="958" r="5" fill="green" stroke="none" /><circle cx="3111" cy="960" r="5" fill="green" stroke="none" /><circle cx="1975" cy="2322" r="5" fill="green" stroke="none" /><circle cx="4766" cy="2046" r="5" fill="green" stroke="none" /><circle cx="8176" cy="1138" r="5" fill="green" stroke="none" /><circle cx="4558" cy="3335" r="5" fill="green" stroke="none" /><circle cx="5500" cy="1331" r="5" fill="green" stroke="none" /><circle cx="8096" cy="1710" r="5" fill="green" stroke="none" /><circle cx="1305" cy="3823" r="5" fill="green" stroke="none" /><circle cx="6324" cy="2732" r="5" fill="green" stroke="none" /><circle cx="3156" cy="1432" r="5" fill="green" stroke="none" /><circle cx="7224" cy="1914" r="5" fill="green" stroke="none" /><circle cx="7434" cy="2659" r="5" fill="green" stroke="none" /><circle cx="8653" cy="4648" r="5" fill="green" stroke="none" /><circle cx="321" cy="3850" r="5" fill="green" stroke="none" /><circle cx="5182" cy="3294" r="5" fill="green" stroke="none" /><circle cx="8259" cy="2251" r="5" fill="green" stroke="none" /><circle cx="5855" cy="1914" r="5" fill="green" stroke="none" /><circle cx="737" cy="3000" r="5" fill="green" stroke="none" /><circle cx="5064" cy="3062" r="5" fill="green" stroke="none" /><circle cx="6340" cy="1954" r="5" fill="green" stroke="none" /><circle cx="1276" cy="3549" r="5" fill="green" stroke="none" /><circle cx="4646" cy="650" r="5" fill="green" stroke="none" /><circle cx="7286" cy="2761" r="5" fill="green" stroke="none" /><circle cx="3518" cy="2146" r="5" fill="green" stroke="none" /><circle cx="7678" cy="2849" r="5" fill="green" stroke="none" /><circle cx="8879" cy="460" r="5" fill="green" stroke="none" /><circle cx="636" cy="3085" r="5" fill="green" stroke="none" /><circle cx="6431" cy="723" r="5" fill="green" stroke="none" /><circle cx="8623" cy="974" r="5" fill="green" stroke="none" /><circle cx="6225" cy="415" r="5" fill="green" stroke="none" /><circle cx="2569" cy="247" r="5" fill="green" stroke="none" /><circle cx="4309" cy="2032" r="5" fill="green" stroke="none" /><circle cx="2201" cy="3259" r="5" fill="green" stroke="none" /><circle cx="1922" cy="4154" r="5" fill="green" stroke="none" /><circle cx="2996" cy="43" r="5" fill="green" stroke="none" /><circle cx="4674" cy="2604" r="5" fill="green" stroke="none" /><circle cx="3633" cy="4013" r="5" fill="green" stroke="none" /><circle cx="5682" cy="3726" r="5" fill="green" stroke="none" /><circle cx="984" cy="2258" r="5" fill="green" stroke="none" /><circle cx="915" cy="2239" r="5" fill="green" stroke="none" /><circle cx="1409" cy="4171" r="5" fill="green" stroke="none" /><circle cx="4416" cy="3961" r="5" fill="green" stroke="none" /><circle cx="3208" cy="942" r="5" fill="green" stroke="none" /><circle cx="1683" cy="1939" r="5" fill="green" stroke="none" /><circle cx="8493" cy="267" r="5" fill="green" stroke="none" /><circle cx="2132" cy="2241" r="5" fill="green" stroke="none" /><circle cx="7391" cy="4522" r="5" fill="green" stroke="none" /><circle cx="8644" cy="289" r="5" fill="green" stroke="none" /><circle cx="5650" cy="696" r="5" fill="green" stroke="none" /><circle cx="6329" cy="1792" r="5" fill="green" stroke="none" /><circle cx="4335" cy="786" r="5" fill="green" stroke="none" /><circle cx="5362" cy="482" r="5" fill="green" stroke="none" /><circle cx="7647" cy="3724" r="5" fill="green" stroke="none" /><circle cx="1643" cy="4400" r="5" fill="green" stroke="none" /><circle cx="1904" cy="2221" r="5" fill="green" stroke="none" /><circle cx="1263" cy="570" r="5" fill="green" stroke="none" /><circle cx="4339" cy="36" r="5" fill="green" stroke="none" /><circle cx="3199" cy="1621" r="5" fill="green" stroke="none" /><circle cx="1046" cy="3067" r="5" fill="green" stroke="none" /><circle cx="5744" cy="2871" r="5" fill="green" stroke="none" /><circle cx="6196" cy="1801" r="5" fill="green" stroke="none" /><circle cx="1148" cy="2282" r="5" fill="green" stroke="none" /><circle cx="6851" cy="4242" r="5" fill="green" stroke="none" /><circle cx="7449" cy="1795" r="5" fill="green" stroke="none" /><circle cx="5522" cy="1537" r="5" fill="green" stroke="none" /><circle cx="4182" cy="965" r="5" fill="green" stroke="none" /><circle cx="8738" cy="851" r="5" fill="green" stroke="none" /><circle cx="194" cy="3681" r="5" fill="green" stroke="none" /><circle cx="2209" cy="3066" r="5" fill="green" stroke="none" /><circle cx="7595" cy="776" r="5" fill="green" stroke="none" /><circle cx="8661" cy="1488" r="5" fill="green" stroke="none" /><circle cx="5037" cy="277" r="5" fill="green" stroke="none" /><circle cx="8402" cy="1732" r="5" fill="green" stroke="none" /><circle cx="5272" cy="4397" r="5" fill="green" stroke="none" /><circle cx="1516" cy="486" r="5" fill="green" stroke="none" /><circle cx="1932" cy="3990" r="5" fill="green" stroke="none" /><circle cx="5764" cy="9" r="5" fill="green" stroke="none" /><circle cx="7918" cy="667" r="5" fill="green" stroke="none" /><circle cx="1956" cy="4290" r="5" fill="green" stroke="none" /><circle cx="14" cy="3050" r="5" fill="green" stroke="none" /><circle cx="2295" cy="2599" r="5" fill="green" stroke="none" /><circle cx="7356" cy="148" r="5" fill="green" stroke="none" /><circle cx="3609" cy="2258" r="5" fill="green" stroke="none" /><circle cx="5437" cy="4538" r="5" fill="green" stroke="none" /><circle cx="6123" cy="2368" r="5" fill="green" stroke="none" /><circle cx="8318" cy="1383" r="5" fill="green" stroke="none" /><circle cx="473" cy="1713" r="5" fill="green" stroke="none" /><circle cx="8500" cy="2119" r="5" fill="green" stroke="none" /><circle cx="4390" cy="4189" r="5" fill="green" stroke="none" /><circle cx="8211" cy="3920" r="5" fill="green" stroke="none" /><circle cx="5062" cy="4352" r="5" fill="green" stroke="none" /><circle cx="9421" cy="2145" r="5" fill="green" stroke="none" /><circle cx="9781" cy="4107" r="5" fill="green" stroke="none" /><circle cx="2814" cy="1198" r="5" fill="green" stroke="none" /><circle cx="4109" cy="2973" r="5" fill="green" stroke="none" /><circle cx="2744" cy="2596" r="5" fill="green" stroke="none" /><circle cx="2549" cy="4366" r="5" fill="green" stroke="none" /><circle cx="2054" cy="2055" r="5" fill="green" stroke="none" /><circle cx="9458" cy="3351" r="5" fill="green" stroke="none" /><circle cx="7339" cy="1609" r="5" fill="green" stroke="none" /><circle cx="8727" cy="4503" r="5" fill="green" stroke="none" /><circle cx="8015" cy="2428" r="5" fill="green" stroke="none" /><circle cx="1712" cy="1444" r="5" fill="green" stroke="none" /><circle cx="4863" cy="4438" r="5" fill="green" stroke="none" /><circle cx="2469" cy="4079" r="5" fill="green" stroke="none" /><circle cx="369" cy="1965" r="5" fill="green" stroke="none" /><circle cx="7404" cy="110" r="5" fill="green" stroke="none" /><circle cx="7460" cy="2233" r="5" fill="green" stroke="none" /><circle cx="6880" cy="1626" r="5" fill="green" stroke="none" /><circle cx="259" cy="2249" r="5" fill="green" stroke="none" /><circle cx="3562" cy="547" r="5" fill="green" stroke="none" /><circle cx="6805" cy="531" r="5" fill="green" stroke="none" /><circle cx="4231" cy="2060" r="5" fill="green" stroke="none" /><circle cx="5388" cy="3343" r="5" fill="green" stroke="none" /><circle cx="8777" cy="4204" r="5" fill="green" stroke="none" /><circle cx="214" cy="223" r="5" fill="green" stroke="none" /><circle cx="9738" cy="1519" r="5" fill="green" stroke="none" /><circle cx="8031" cy="1778" r="5" fill="green" stroke="none" /><circle cx="8659" cy="1019" r="5" fill="green" stroke="none" /><circle cx="7422" cy="3852" r="5" fill="green" stroke="none" /><circle cx="4393" cy="3284" r="5" fill="green" stroke="none" /><circle cx="5027" cy="1241" r="5" fill="green" stroke="none" /><circle cx="9433" cy="1181" r="5" fill="green" stroke="none" /><circle cx="8197" cy="1455" r="5" fill="green" stroke="none" /><circle cx="797" cy="3279" r="5" fill="green" stroke="none" /><circle cx="1813" cy="623" r="5" fill="green" stroke="none" /><circle cx="7965" cy="2304" r="5" fill="green" stroke="none" /><circle cx="2688" cy="2516" r="5" fill="green" stroke="none" /><circle cx="7563" cy="3558" r="5" fill="green" stroke="none" /><circle cx="3210" cy="2993" r="5" fill="green" stroke="none" /><circle cx="706" cy="3310" r="5" fill="green" stroke="none" /><circle cx="4193" cy="1715" r="5" fill="green" stroke="none" /><circle cx="550" cy="786" r="5" fill="green" stroke="none" /><circle cx="2986" cy="3441" r="5" fill="green" stroke="none" /><circle cx="378" cy="1238" r="5" fill="green" stroke="none" /><circle cx="6096" cy="4742" r="5" fill="green" stroke="none" /><circle cx="8796" cy="2015" r="5" fill="green" stroke="none" /><circle cx="4546" cy="1690" r="5" fill="green" stroke="none" /><circle cx="4410" cy="425" r="5" fill="green" stroke="none" /><circle cx="9054" cy="2553" r="5" fill="green" stroke="none" /><circle cx="9767" cy="2156" r="5" fill="green" stroke="none" /><circle cx="4824" cy="879" r="5" fill="green" stroke="none" /><circle cx="4051" cy="322" r="5" fill="green" stroke="none" /><circle cx="8831" cy="4212" r="5" fill="green" stroke="none" /><circle cx="9146" cy="1258" r="5" fill="green" stroke="none" /><circle cx="3527" cy="4021" r="5" fill="green" stroke="none" /><circle cx="4618" cy="4652" r="5" fill="green" stroke="none" /><circle cx="8946" cy="772" r="5" fill="green" stroke="none" /><circle cx="1891" cy="936" r="5" fill="green" stroke="none" /><circle cx="7405" cy="1759" r="5" fill="green" stroke="none" /><circle cx="644" cy="1065" r="5" fill="green" stroke="none" /><circle cx="4212" cy="301" r="5" fill="green" stroke="none" /><circle cx="9784" cy="1733" r="5" fill="green" stroke="none" /><circle cx="3975" cy="1064" r="5" fill="green" stroke="none" /><circle cx="3570" cy="4367" r="5" fill="green" stroke="none" /><circle cx="3829" cy="1917" r="5" fill="green" stroke="none" /><circle cx="8253" cy="247" r="5" fill="green" stroke="none" /><circle cx="2758" cy="1517" r="5" fill="green" stroke="none" /><circle cx="8113" cy="1141" r="5" fill="green" stroke="none" /><circle cx="3560" cy="2296" r="5" fill="green" stroke="none" /><circle cx="2883" cy="3277" r="5" fill="green" stroke="none" /><circle cx="7275" cy="4760" r="5" fill="green" stroke="none" /><circle cx="1776" cy="4066" r="5" fill="green" stroke="none" /><circle cx="1178" cy="1397" r="5" fill="green" stroke="none" /><circle cx="9452" cy="3218" r="5" fill="green" stroke="none" /><circle cx="9394" cy="3393" r="5" fill="green" stroke="none" /><circle cx="6594" cy="992" r="5" fill="green" stroke="none" /><circle cx="4113" cy="2885" r="5" fill="green" stroke="none" /><circle cx="1855" cy="4507" r="5" fill="green" stroke="none" /><circle cx="4893" cy="4572" r="5" fill="green" stroke="none" /><circle cx="8465" cy="1032" r="5" fill="green" stroke="none" /><circle cx="6596" cy="1615" r="5" fill="green" stroke="none" /><circle cx="6040" cy="4430" r="5" fill="green" stroke="none" /><circle cx="5344" cy="3591" r="5" fill="green" stroke="none" /><circle cx="7949" cy="3716" r="5" fill="green" stroke="none" /><circle cx="2833" cy="1906" r="5" fill="green" stroke="none" /><circle cx="7675" cy="1049" r="5" fill="green" stroke="none" /><circle cx="5805" cy="1001" r="5" fill="green" stroke="none" /><circle cx="5707" cy="2659" r="5" fill="green" stroke="none" /><circle cx="1730" cy="1997" r="5" fill="green" stroke="none" /><circle cx="5301" cy="813" r="5" fill="green" stroke="none" /><circle cx="5639" cy="3029" r="5" fill="green" stroke="none" /><circle cx="6764" cy="4086" r="5" fill="green" stroke="none" /><circle cx="9017" cy="104" r="5" fill="green" stroke="none" /><circle cx="5113" cy="3581" r="5" fill="green" stroke="none" /><circle cx="863" cy="3859" r="5" fill="green" stroke="none" /><circle cx="6544" cy="636" r="5" fill="green" stroke="none" /><circle cx="9449" cy="4126" r="5" fill="green" stroke="none" /><circle cx="4151" cy="4014" r="5" fill="green" stroke="none" /><circle cx="8675" cy="2778" r="5" fill="green" stroke="none" /><circle cx="2052" cy="4323" r="5" fill="green" stroke="none" /><circle cx="5980" cy="2348" r="5" fill="green" stroke="none" /><circle cx="6586" cy="4646" r="5" fill="green" stroke="none" /><circle cx="9100" cy="1100" r="5" fill="green" stroke="none" /><circle cx="7986" cy="1680" r="5" fill="green" stroke="none" /><circle cx="7618" cy="4107" r="5" fill="green" stroke="none" /><circle cx="3695" cy="3362" r="5" fill="green" stroke="none" /><circle cx="7235" cy="4104" r="5" fill="green" stroke="none" /><circle cx="9490" cy="3573" r="5" fill="green" stroke="none" /><circle cx="4278" cy="976" r="5" fill="green" stroke="none" /><circle cx="4339" cy="4761" r="5" fill="green" stroke="none" /><circle cx="6884" cy="670" r="5" fill="green" stroke="none" /><circle cx="1013" cy="3699" r="5" fill="green" stroke="none" /><circle cx="8174" cy="4453" r="5" fill="green" stroke="none" /><circle cx="6967" cy="2746" r="5" fill="green" stroke="none" /><circle cx="4204" cy="2795" r="5" fill="green" stroke="none" /><circle cx="7710" cy="3809" r="5" fill="green" stroke="none" /><circle cx="5417" cy="3419" r="5" fill="green" stroke="none" /><circle cx="8472" cy="3497" r="5" fill="green" stroke="none" /><circle cx="7997" cy="2388" r="5" fill="green" stroke="none" /><circle cx="7544" cy="4288" r="5" fill="green" stroke="none" /><circle cx="4197" cy="3230" r="5" fill="green" stroke="none" /><circle cx="4624" cy="2131" r="5" fill="green" stroke="none" /><circle cx="6708" cy="420" r="5" fill="green" stroke="none" /><circle cx="2869" cy="1521" r="5" fill="green" stroke="none" /><circle cx="7766" cy="265" r="5" fill="green" stroke="none" /><circle cx="9575" cy="4237" r="5" fill="green" stroke="none" /><circle cx="1072" cy="413" r="5" fill="green" stroke="none" /><circle cx="3765" cy="3178" r="5" fill="green" stroke="none" /><circle cx="5783" cy="3814" r="5" fill="green" stroke="none" /><circle cx="6697" cy="2585" r="5" fill="green" stroke="none" /><circle cx="7451" cy="2442" r="5" fill="green" stroke="none" /><circle cx="8937" cy="1752" r="5" fill="green" stroke="none" /><circle cx="5712" cy="4568" r="5" fill="green" stroke="none" /><circle cx="3189" cy="2120" r="5" fill="green" stroke="none" /><circle cx="4847" cy="674" r="5" fill="green" stroke="none" /><circle cx="7086" cy="519" r="5" fill="green" stroke="none" /><circle cx="3126" cy="265" r="5" fill="green" stroke="none" /><circle cx="4175" cy="1857" r="5" fill="green" stroke="none" /><circle cx="4706" cy="3556" r="5" fill="green" stroke="none" /><circle cx="984" cy="1075" r="5" fill="green" stroke="none" /><circle cx="6637" cy="2170" r="5" fill="green" stroke="none" /><circle cx="9694" cy="584" r="5" fill="green" stroke="none" /><circle cx="4087" cy="2488" r="5" fill="green" stroke="none" /><circle cx="9224" cy="3216" r="5" fill="green" stroke="none" /><circle cx="2253" cy="2564" r="5" fill="green" stroke="none" /><circle cx="4950" cy="2100" r="5" fill="green" stroke="none" /><circle cx="599" cy="1854" r="5" fill="green" stroke="none" /><circle cx="4489" cy="178" r="5" fill="green" stroke="none" /><circle cx="763" cy="1329" r="5" fill="green" stroke="none" /><circle cx="4434" cy="2460" r="5" fill="green" stroke="none" /><circle cx="4168" cy="1858" r="5" fill="green" stroke="none" /><circle cx="698" cy="1006" r="5" fill="green" stroke="none" /><circle cx="1549" cy="2333" r="5" fill="green" stroke="none" /><circle cx="8054" cy="3381" r="5" fill="green" stroke="none" /><circle cx="5166" cy="2145" r="5" fill="green" stroke="none" /><circle cx="4972" cy="4026" r="5" fill="green" stroke="none" /><circle cx="5049" cy="1764" r="5" fill="green" stroke="none" /><circle cx="1439" cy="4347" r="5" fill="green" stroke="none" /><circle cx="8278" cy="4711" r="5" fill="green" stroke="none" /><circle cx="5415" cy="4420" r="5" fill="green" stroke="none" /><circle cx="2810" cy="2597" r="5" fill="green" stroke="none" /><circle cx="7230" cy="1822" r="5" fill="green" stroke="none" /><circle cx="2096" cy="1061" r="5" fill="green" stroke="none" /><circle cx="5950" cy="4516" r="5" fill="green" stroke="none" /><circle cx="6289" cy="227" r="5" fill="green" stroke="none" /><circle cx="8208" cy="191" r="5" fill="green" stroke="none" /><circle cx="9063" cy="1580" r="5" fill="green" stroke="none" /><circle cx="56" cy="1226" r="5" fill="green" stroke="none" /><circle cx="1102" cy="3209" r="5" fill="green" stroke="none" /><circle cx="1450" cy="3112" r="5" fill="green" stroke="none" /><circle cx="5315" cy="1653" r="5" fill="green" stroke="none" /><circle cx="6828" cy="4731" r="5" fill="green" stroke="none" /><circle cx="2889" cy="739" r="5" fill="green" stroke="none" /><circle cx="8348" cy="3669" r="5" fill="green" stroke="none" /><circle cx="899" cy="2072" r="73" fill="red" stroke="none" /><circle cx="3290" cy="689" r="43" fill="red" stroke="none" /><circle cx="4082" cy="2057" r="49" fill="red" stroke="none" /><circle cx="2099" cy="1956" r="29" fill="red" stroke="none" /><circle cx="8510" cy="2049" r="30" fill="red" stroke="none" /><circle cx="8883" cy="3364" r="12" fill="red" stroke="none" /><circle cx="5881" cy="354" r="66" fill="red" stroke="none" /><circle cx="7494" cy="1531" r="39" fill="red" stroke="none" /><circle cx="1328" cy="1770" r="37" fill="red" stroke="none" /><circle cx="9138" cy="4132" r="43" fill="red" stroke="none" /><circle cx="4192" cy="348" r="50" fill="red" stroke="none" /><circle cx="2090" cy="832" r="68" fill="red" stroke="none" /><circle cx="9076" cy="4109" r="26" fill="red" stroke="none" /><circle cx="5890" cy="2742" r="69" fill="red" stroke="none" /><circle cx="5632" cy="3616" r="12" fill="red" stroke="none" /><circle cx="8645" cy="4762" r="23" fill="red" stroke="none" /><circle cx="7137" cy="739" r="30" fill="red" stroke="none" /><circle cx="6091" cy="3842" r="34" fill="red" stroke="none" /><circle cx="3469" cy="2650" r="18" fill="red" stroke="none" /><circle cx="5252" cy="64" r="47" fill="red" stroke="none" /><circle cx="3500" cy="4340" r="58" fill="red" stroke="none" /><circle cx="1249" cy="2591" r="61" fill="red" stroke="none" /><circle cx="150" cy="1402" r="14" fill="red" stroke="none" /><circle cx="4236" cy="3917" r="53" fill="red" stroke="none" /><circle cx="4550" cy="3939" r="58" fill="red" stroke="none" /><circle cx="1291" cy="3631" r="28" fill="red" stroke="none" /><circle cx="7511" cy="1103" r="8" fill="red" stroke="none" /><circle cx="9606" cy="1256" r="8" fill="red" stroke="none" /><circle cx="473" cy="2814" r="74" fill="red" stroke="none" /><circle cx="2009" cy="139" r="72" fill="red" stroke="none" /><circle cx="2993" cy="3547" r="6" fill="red" stroke="none" /><circle cx="770" cy="2453" r="32" fill="red" stroke="none" /><circle cx="8843" cy="2522" r="84" fill="red" stroke="none" /><circle cx="7922" cy="4239" r="49" fill="red" stroke="none" /><circle cx="9604" cy="3179" r="32" fill="red" stroke="none" /><circle cx="3057" cy="1124" r="71" fill="red" stroke="none" /><circle cx="639" cy="623" r="82" fill="red" stroke="none" /><circle cx="591" cy="1134" r="38" fill="red" stroke="none" /><circle cx="6853" cy="4196" r="23" fill="red" stroke="none" /><circle cx="2318" cy="890" r="67" fill="red" stroke="none" /><circle cx="7624" cy="1795" r="43" fill="red" stroke="none" /><circle cx="7465" cy="2354" r="81" fill="red" stroke="none" /><circle cx="6175" cy="790" r="10" fill="red" stroke="none" /><circle cx="5954" cy="1701" r="14" fill="red" stroke="none" /><circle cx="2109" cy="3439" r="53" fill="red" stroke="none" /><circle cx="6303" cy="1809" r="28" fill="red" stroke="none" /><circle cx="5852" cy="818" r="13" fill="red" stroke="none" /><circle cx="7719" cy="3476" r="74" fill="red" stroke="none" /><circle cx="7025" cy="915" r="54" fill="red" stroke="none" /><circle cx="8750" cy="3218" r="37" fill="red" stroke="none" /><circle cx="5358" cy="1016" r="7" fill="red" stroke="none" /><circle cx="2309" cy="3995" r="17" fill="red" stroke="none" /><circle cx="7351" cy="2382" r="11" fill="red" stroke="none" /><circle cx="6802" cy="2278" r="60" fill="red" stroke="none" /><circle cx="4794" cy="2662" r="6" fill="red" stroke="none" /><circle cx="745" cy="3045" r="9" fill="red" stroke="none" /><circle cx="499" cy="1060" r="16" fill="red" stroke="none" /><circle cx="3959" cy="3628" r="58" fill="red" stroke="none" /><circle cx="5194" cy="4530" r="14" fill="red" stroke="none" /><circle cx="8458" cy="3291" r="56" fill="red" stroke="none" /><circle cx="5855" cy="1282" r="26" fill="red" stroke="none" /><circle cx="5318" cy="3044" r="82" fill="red" stroke="none" /><circle cx="4000" cy="1772" r="71" fill="red" stroke="none" /><circle cx="5381" cy="4664" r="28" fill="red" stroke="none" /></svg>