<svg viewBox="0 0 1680 4552" xmlns="http://www.w3.org/2000/svg"><rect x="0" y="0" width="1680" height="4552" fill="lightyellow" stroke="none "/><rect x="636" y="3952" width="462" height="403" fill="white" stroke="black "/><circle cx="1480" cy="4093" r="5" fill="green" stroke="none" /><circle cx="46" cy="3325" r="5" fill="green" stroke="none" /><circle cx="249" cy="4164" r="5" fill="green" stroke="none" /><circle cx="1514" cy="4285" r="5" fill="green" stroke="none" /><circle cx="631" cy="3943" r="5" fill="green" stroke="none" /><circle cx="165" cy="3691" r="5" fill="green" stroke="none" /><circle cx="1017" cy="4516" r="5" fill="green" stroke="none" /><circle cx="374" cy="3477" r="5" fill="green" stroke="none" /><circle cx="89" cy="3968" r="5" fill="green" stroke="none" /><circle cx="1561" cy="4085" r="5" fill="green" stroke="none" /><circle cx="341" cy="4406" r="5" fill="green" stroke="none" /><circle cx="389" cy="4143" r="5" fill="green" stroke="none" /><circle cx="52" cy="3886" r="5" fill="green" stroke="none" /><circle cx="1665" cy="4394" r="5" fill="green" stroke="none" /><circle cx="893" cy="4427" r="5" fill="green" stroke="none" /><circle cx="1496" cy="4301" r="5" fill="green" stroke="none" /><circle cx="350" cy="4189" r="5" fill="green" stroke="none" /><circle cx="1166" cy="4509" r="5" fill="green" stroke="none" /><circle cx="466" cy="3342" r="5" fill="green" stroke="none" /><circle cx="1354" cy="2548" r="5" fill="green" stroke="none" /><circle cx="735" cy="3671" r="5" fill="green" stroke="none" /><circle cx="382" cy="3681" r="5" fill="green" stroke="none" /><circle cx="1347" cy="4263" r="5" fill="green" stroke="none" /><circle cx="1590" cy="3771" r="5" fill="green" stroke="none" /><circle cx="600" cy="4498" r="5" fill="green" stroke="none" /><circle cx="331" cy="4014" r="5" fill="green" stroke="none" /><circle cx="1526" cy="4395" r="5" fill="green" stroke="none" /><circle cx="1376" cy="4224" r="5" fill="green" stroke="none" /><circle cx="763" cy="3535" r="5" fill="green" stroke="none" /><circle cx="796" cy="4362" r="5" fill="green" stroke="none" /><circle cx="1455" cy="4430" r="5" fill="green" stroke="none" /><circle cx="303" cy="3442" r="5" fill="green" stroke="none" /><circle cx="1128" cy="4304" r="5" fill="green" stroke="none" /><circle cx="1092" cy="3776" r="5" fill="green" stroke="none" /><circle cx="225" cy="4204" r="5" fill="green" stroke="none" /><circle cx="636" cy="3815" r="5" fill="green" stroke="none" /><circle cx="705" cy="3594" r="5" fill="green" stroke="none" /><circle cx="660" cy="3547" r="5" fill="green" stroke="none" /><circle cx="1662" cy="1601" r="5" fill="green" stroke="none" /><circle cx="1666" cy="4546" r="5" fill="green" stroke="none" /><circle cx="1669" cy="3851" r="5" fill="green" stroke="none" /><circle cx="1296" cy="2673" r="5" fill="green" stroke="none" /><circle cx="1294" cy="4522" r="5" fill="green" stroke="none" /><circle cx="418" cy="4088" r="5" fill="green" stroke="none" /><circle cx="1635" cy="1546" r="5" fill="green" stroke="none" /><circle cx="1420" cy="4483" r="5" fill="green" stroke="none" /><circle cx="676" cy="4409" r="5" fill="green" stroke="none" /><circle cx="1465" cy="2086" r="5" fill="green" stroke="none" /><circle cx="97" cy="3612" r="5" fill="green" stroke="none" /><circle cx="328" cy="3869" r="5" fill="green" stroke="none" /><circle cx="1653" cy="3762" r="5" fill="green" stroke="none" /><circle cx="473" cy="4102" r="5" fill="green" stroke="none" /><circle cx="808" cy="3631" r="5" fill="green" stroke="none" /><circle cx="1619" cy="1519" r="5" fill="green" stroke="none" /><circle cx="1030" cy="3602" r="5" fill="green" stroke="none" /><circle cx="1121" cy="3395" r="5" fill="green" stroke="none" /><circle cx="1592" cy="4497" r="5" fill="green" stroke="none" /><circle cx="621" cy="3758" r="5" fill="green" stroke="none" /><circle cx="444" cy="4541" r="5" fill="green" stroke="none" /><circle cx="356" cy="4072" r="5" fill="green" stroke="none" /><circle cx="721" cy="3221" r="5" fill="green" stroke="none" /><circle cx="1570" cy="4490" r="5" fill="green" stroke="none" /><circle cx="995" cy="3881" r="5" fill="green" stroke="none" /><circle cx="1276" cy="3198" r="5" fill="green" stroke="none" /><circle cx="367" cy="4406" r="5" fill="green" stroke="none" /><circle cx="1040" cy="4358" r="5" fill="green" stroke="none" /><circle cx="404" cy="3621" r="5" fill="green" stroke="none" /><circle cx="577" cy="3828" r="5" fill="green" stroke="none" /><circle cx="1099" cy="4334" r="5" fill="green" stroke="none" /><circle cx="358" cy="3890" r="5" fill="green" stroke="none" /><circle cx="477" cy="4323" r="5" fill="green" stroke="none" /><circle cx="1505" cy="3921" r="5" fill="green" stroke="none" /><circle cx="1666" cy="3935" r="5" fill="green" stroke="none" /><circle cx="1679" cy="3814" r="5" fill="green" stroke="none" /><circle cx="1647" cy="4388" r="5" fill="green" stroke="none" /><circle cx="1355" cy="4061" r="5" fill="green" stroke="none" /><circle cx="1553" cy="3979" r="5" fill="green" stroke="none" /><circle cx="823" cy="3589" r="5" fill="green" stroke="none" /><circle cx="1310" cy="3399" r="5" fill="green" stroke="none" /><circle cx="518" cy="3677" r="5" fill="green" stroke="none" /><circle cx="1412" cy="3593" r="5" fill="green" stroke="none" /><circle cx="1121" cy="3465" r="5" fill="green" stroke="none" /><circle cx="24" cy="3342" r="5" fill="green" stroke="none" /><circle cx="259" cy="3822" r="5" fill="green" stroke="none" /><circle cx="1109" cy="3442" r="5" fill="green" stroke="none" /><circle cx="559" cy="3260" r="5" fill="green" stroke="none" /><circle cx="1592" cy="1553" r="5" fill="green" stroke="none" /><circle cx="1280" cy="4463" r="5" fill="green" stroke="none" /><circle cx="126" cy="4551" r="5" fill="green" stroke="none" /><circle cx="1514" cy="4252" r="5" fill="green" stroke="none" /><circle cx="645" cy="3822" r="5" fill="green" stroke="none" /><circle cx="152" cy="3296" r="5" fill="green" stroke="none" /><circle cx="1130" cy="3439" r="5" fill="green" stroke="none" /><circle cx="1172" cy="3229" r="5" fill="green" stroke="none" /><circle cx="289" cy="3935" r="5" fill="green" stroke="none" /><circle cx="1561" cy="4208" r="5" fill="green" stroke="none" /><circle cx="724" cy="3276" r="5" fill="green" stroke="none" /><circle cx="1193" cy="4283" r="5" fill="green" stroke="none" /><circle cx="1125" cy="4528" r="5" fill="green" stroke="none" /><circle cx="289" cy="1818" r="9" fill="red" stroke="none" /><circle cx="195" cy="451" r="40" fill="red" stroke="none" /><circle cx="770" cy="2136" r="46" fill="red" stroke="none" /><circle cx="761" cy="3816" r="8" fill="red" stroke="none" /><circle cx="633" cy="2718" r="34" fill="red" stroke="none" /><circle cx="697" cy="820" r="50" fill="red" stroke="none" /><circle cx="667" cy="1355" r="58" fill="red" stroke="none" /><circle cx="154" cy="2644" r="82" fill="red" stroke="none" /><circle cx="1233" cy="3576" r="66" fill="red" stroke="none" /><circle cx="390" cy="533" r="38" fill="red" stroke="none" /><circle cx="810" cy="1525" r="82" fill="red" stroke="none" /><circle cx="317" cy="3230" r="61" fill="red" stroke="none" /><circle cx="810" cy="1606" r="79" fill="red" stroke="none" /><circle cx="873" cy="2599" r="21" fill="red" stroke="none" /><circle cx="555" cy="4169" r="77" fill="red" stroke="none" /><circle cx="1227" cy="3644" r="30" fill="red" stroke="none" /><circle cx="406" cy="137" r="49" fill="red" stroke="none" /><circle cx="422" cy="274" r="9" fill="red" stroke="none" /><circle cx="632" cy="1016" r="45" fill="red" stroke="none" /><circle cx="707" cy="1456" r="41" fill="red" stroke="none" /><circle cx="555" cy="2202" r="42" fill="red" stroke="none" /><circle cx="520" cy="1134" r="57" fill="red" stroke="none" /><circle cx="620" cy="1133" r="13" fill="red" stroke="none" /><circle cx="1464" cy="353" r="62" fill="red" stroke="none" /><circle cx="1004" cy="3395" r="60" fill="red" stroke="none" /><circle cx="1321" cy="516" r="31" fill="red" stroke="none" /><circle cx="748" cy="2907" r="16" fill="red" stroke="none" /><circle cx="922" cy="3605" r="41" fill="red" stroke="none" /><circle cx="1389" cy="2995" r="37" fill="red" stroke="none" /><circle cx="964" cy="3765" r="61" fill="red" stroke="none" /><circle cx="217" cy="1923" r="10" fill="red" stroke="none" /><circle cx="323" cy="3359" r="49" fill="red" stroke="none" /><circle cx="754" cy="1910" r="10" fill="red" stroke="none" /><circle cx="1070" cy="2121" r="43" fill="red" stroke="none" /><circle cx="1355" cy="931" r="71" fill="red" stroke="none" /><circle cx="476" cy="985" r="45" fill="red" stroke="none" /><circle cx="1329" cy="1060" r="81" fill="red" stroke="none" /><circle cx="355" cy="3185" r="35" fill="red" stroke="none" /><circle cx="1224" cy="3817" r="41" fill="red" stroke="none" /><circle cx="700" cy="3382" r="21" fill="red" stroke="none" /><circle cx="723" cy="1112" r="26" fill="red" stroke="none" /><circle cx="360" cy="511" r="54" fill="red" stroke="none" /><circle cx="867" cy="3866" r="78" fill="red" stroke="none" /><circle cx="504" cy="954" r="78" fill="red" stroke="none" /><circle cx="1283" cy="2499" r="80" fill="red" stroke="none" /><circle cx="1564" cy="2605" r="41" fill="red" stroke="none" /><circle cx="173" cy="1673" r="57" fill="red" stroke="none" /><circle cx="1331" cy="3141" r="14" fill="red" stroke="none" /><circle cx="49" cy="297" r="40" fill="red" stroke="none" /><circle cx="401" cy="4295" r="44" fill="red" stroke="none" /><circle cx="745" cy="2579" r="8" fill="red" stroke="none" /><circle cx="1392" cy="2663" r="32" fill="red" stroke="none" /><circle cx="555" cy="1397" r="15" fill="red" stroke="none" /><circle cx="195" cy="4316" r="63" fill="red" stroke="none" /><circle cx="934" cy="937" r="81" fill="red" stroke="none" /><circle cx="341" cy="2525" r="16" fill="red" stroke="none" /><circle cx="996" cy="1922" r="53" fill="red" stroke="none" /><circle cx="1287" cy="3158" r="37" fill="red" stroke="none" /><circle cx="247" cy="4432" r="64" fill="red" stroke="none" /><circle cx="320" cy="372" r="22" fill="red" stroke="none" /><circle cx="398" cy="1587" r="50" fill="red" stroke="none" /><circle cx="585" cy="768" r="13" fill="red" stroke="none" /><circle cx="1242" cy="102" r="12" fill="red" stroke="none" /><circle cx="178" cy="520" r="20" fill="red" stroke="none" /><circle cx="1416" cy="4373" r="30" fill="red" stroke="none" /><circle cx="1163" cy="506" r="46" fill="red" stroke="none" /><circle cx="112" cy="1961" r="24" fill="red" stroke="none" /><circle cx="1350" cy="2259" r="76" fill="red" stroke="none" /><circle cx="629" cy="579" r="17" fill="red" stroke="none" /><circle cx="1340" cy="1540" r="8" fill="red" stroke="none" /><circle cx="1223" cy="2002" r="73" fill="red" stroke="none" /><circle cx="1510" cy="3147" r="9" fill="red" stroke="none" /><circle cx="153" cy="2559" r="73" fill="red" stroke="none" /><circle cx="1134" cy="611" r="12" fill="red" stroke="none" /><circle cx="488" cy="2890" r="18" fill="red" stroke="none" /><circle cx="1586" cy="2695" r="31" fill="red" stroke="none" /><circle cx="516" cy="1066" r="24" fill="red" stroke="none" /><circle cx="242" cy="2029" r="62" fill="red" stroke="none" /><circle cx="1135" cy="515" r="55" fill="red" stroke="none" /><circle cx="602" cy="2973" r="65" fill="red" stroke="none" /><circle cx="666" cy="318" r="6" fill="red" stroke="none" /><circle cx="79" cy="3528" r="63" fill="red" stroke="none" /><circle cx="876" cy="3091" r="79" fill="red" stroke="none" /><circle cx="389" cy="860" r="81" fill="red" stroke="none" /><circle cx="112" cy="1401" r="24" fill="red" stroke="none" /><circle cx="904" cy="2013" r="8" fill="red" stroke="none" /><circle cx="1032" cy="376" r="14" fill="red" stroke="none" /><circle cx="1248" cy="3685" r="37" fill="red" stroke="none" /><circle cx="547" cy="4234" r="76" fill="red" stroke="none" /><circle cx="1191" cy="1723" r="10" fill="red" stroke="none" /><circle cx="659" cy="1772" r="31" fill="red" stroke="none" /><circle cx="186" cy="1302" r="54" fill="red" stroke="none" /><circle cx="893" cy="4484" r="36" fill="red" stroke="none" /><circle cx="737" cy="3129" r="62" fill="red" stroke="none" /><circle cx="961" cy="3593" r="67" fill="red" stroke="none" /><circle cx="1020" cy="2471" r="79" fill="red" stroke="none" /><circle cx="875" cy="343" r="48" fill="red" stroke="none" /><circle cx="575" cy="3201" r="55" fill="red" stroke="none" /><circle cx="1124" cy="1114" r="58" fill="red" stroke="none" /><circle cx="550" cy="2037" r="61" fill="red" stroke="none" /><circle cx="426" cy="1484" r="23" fill="red" stroke="none" /><circle cx="423" cy="2363" r="13" fill="red" stroke="none" /><circle cx="1542" cy="4139" r="16" fill="red" stroke="none" /><circle cx="955" cy="359" r="66" fill="red" stroke="none" /><circle cx="333" cy="2956" r="56" fill="red" stroke="none" /><circle cx="1488" cy="578" r="33" fill="red" stroke="none" /><circle cx="1231" cy="3929" r="44" fill="red" stroke="none" /><circle cx="1273" cy="491" r="65" fill="red" stroke="none" /><circle cx="1379" cy="837" r="7" fill="red" stroke="none" /><circle cx="686" cy="3110" r="63" fill="red" stroke="none" /><circle cx="261" cy="4259" r="24" fill="red" stroke="none" /><circle cx="1481" cy="3346" r="46" fill="red" stroke="none" /><circle cx="500" cy="3117" r="30" fill="red" stroke="none" /><circle cx="1360" cy="493" r="13" fill="red" stroke="none" /><circle cx="668" cy="1115" r="53" fill="red" stroke="none" /><circle cx="229" cy="2404" r="18" fill="red" stroke="none" /><circle cx="1240" cy="3890" r="56" fill="red" stroke="none" /><circle cx="533" cy="1750" r="44" fill="red" stroke="none" /><circle cx="718" cy="2125" r="52" fill="red" stroke="none" /><circle cx="318" cy="939" r="49" fill="red" stroke="none" /><circle cx="1430" cy="1096" r="22" fill="red" stroke="none" /><circle cx="986" cy="4427" r="37" fill="red" stroke="none" /><circle cx="1468" cy="3688" r="65" fill="red" stroke="none" /><circle cx="1252" cy="1351" r="52" fill="red" stroke="none" /><circle cx="1585" cy="2261" r="81" fill="red" stroke="none" /><circle cx="645" cy="1234" r="50" fill="red" stroke="none" /><circle cx="395" cy="285" r="57" fill="red" stroke="none" /><circle cx="668" cy="2174" r="39" fill="red" stroke="none" /><circle cx="800" cy="969" r="40" fill="red" stroke="none" /><circle cx="457" cy="1563" r="10" fill="red" stroke="none" /><circle cx="976" cy="803" r="10" fill="red" stroke="none" /><circle cx="429" cy="1784" r="19" fill="red" stroke="none" /><circle cx="863" cy="2782" r="6" fill="red" stroke="none" /><circle cx="549" cy="2159" r="74" fill="red" stroke="none" /><circle cx="997" cy="346" r="68" fill="red" stroke="none" /><circle cx="1124" cy="4498" r="9" fill="red" stroke="none" /><circle cx="718" cy="1094" r="77" fill="red" stroke="none" /><circle cx="1014" cy="2483" r="29" fill="red" stroke="none" /><circle cx="274" cy="2623" r="46" fill="red" stroke="none" /><circle cx="654" cy="2403" r="12" fill="red" stroke="none" /><circle cx="942" cy="1350" r="72" fill="red" stroke="none" /><circle cx="118" cy="3878" r="24" fill="red" stroke="none" /><circle cx="1347" cy="1092" r="84" fill="red" stroke="none" /><circle cx="519" cy="2312" r="64" fill="red" stroke="none" /><circle cx="666" cy="3370" r="58" fill="red" stroke="none" /><circle cx="867" cy="3932" r="8" fill="red" stroke="none" /><circle cx="109" cy="2492" r="59" fill="red" stroke="none" /><circle cx="1007" cy="2997" r="28" fill="red" stroke="none" /><circle cx="433" cy="3215" r="70" fill="red" stroke="none" /><circle cx="639" cy="3256" r="37" fill="red" stroke="none" /><circle cx="1001" cy="3386" r="82" fill="red" stroke="none" /><circle cx="585" cy="484" r="37" fill="red" stroke="none" /><circle cx="1606" cy="3047" r="26" fill="red" stroke="none" /><circle cx="1408" cy="3053" r="23" fill="red" stroke="none" /><circle cx="1194" cy="468" r="75" fill="red" stroke="none" /><circle cx="142" cy="923" r="16" fill="red" stroke="none" /><circle cx="1316" cy="1611" r="23" fill="red" stroke="none" /><circle cx="898" cy="179" r="44" fill="red" stroke="none" /><circle cx="485" cy="2354" r="51" fill="red" stroke="none" /><circle cx="1147" cy="2906" r="71" fill="red" stroke="none" /><circle cx="940" cy="3270" r="44" fill="red" stroke="none" /><circle cx="397" cy="3276" r="74" fill="red" stroke="none" /><circle cx="1084" cy="928" r="22" fill="red" stroke="none" /><circle cx="1059" cy="541" r="31" fill="red" stroke="none" /><circle cx="560" cy="2610" r="73" fill="red" stroke="none" /><circle cx="1034" cy="2204" r="27" fill="red" stroke="none" /><circle cx="230" cy="4059" r="56" fill="red" stroke="none" /><circle cx="1370" cy="455" r="9" fill="red" stroke="none" /><circle cx="1235" cy="3954" r="72" fill="red" stroke="none" /><circle cx="707" cy="1652" r="53" fill="red" stroke="none" /><circle cx="1223" cy="3636" r="77" fill="red" stroke="none" /><circle cx="1005" cy="1632" r="33" fill="red" stroke="none" /><circle cx="801" cy="3370" r="74" fill="red" stroke="none" /><circle cx="514" cy="3113" r="58" fill="red" stroke="none" /><circle cx="544" cy="2842" r="34" fill="red" stroke="none" /><circle cx="99" cy="2663" r="41" fill="red" stroke="none" /><circle cx="727" cy="2751" r="72" fill="red" stroke="none" /><circle cx="1147" cy="1653" r="63" fill="red" stroke="none" /><circle cx="321" cy="3573" r="66" fill="red" stroke="none" /><circle cx="594" cy="1257" r="35" fill="red" stroke="none" /><circle cx="528" cy="1800" r="22" fill="red" stroke="none" /><circle cx="1319" cy="1788" r="56" fill="red" stroke="none" /><circle cx="1185" cy="4061" r="81" fill="red" stroke="none" /><circle cx="894" cy="587" r="51" fill="red" stroke="none" /><circle cx="1397" cy="3849" r="82" fill="red" stroke="none" /><circle cx="1005" cy="2813" r="26" fill="red" stroke="none" /><circle cx="110" cy="4160" r="36" fill="red" stroke="none" /><circle cx="845" cy="69" r="67" fill="red" stroke="none" /><circle cx="956" cy="3263" r="25" fill="red" stroke="none" /><circle cx="525" cy="3241" r="38" fill="red" stroke="none" /><circle cx="389" cy="4303" r="42" fill="red" stroke="none" /><circle cx="1267" cy="3390" r="33" fill="red" stroke="none" /><circle cx="296" cy="2830" r="52" fill="red" stroke="none" /><circle cx="912" cy="3530" r="26" fill="red" stroke="none" /></svg>