<svg viewBox="0 0 3196 8359" xmlns="http://www.w3.org/2000/svg"><rect x="0" y="0" width="3196" height="8359" fill="lightyellow" stroke="none "/><rect x="72" y="1128" width="614" height="1006" fill="white" stroke="black "/><circle cx="804" cy="2692" r="5" fill="green" stroke="none" /><circle cx="563" cy="1040" r="5" fill="green" stroke="none" /><circle cx="877" cy="4033" r="5" fill="green" stroke="none" /><circle cx="648" cy="5341" r="5" fill="green" stroke="none" /><circle cx="542" cy="7832" r="5" fill="green" stroke="none" /><circle cx="26" cy="206" r="5" fill="green" stroke="none" /><circle cx="896" cy="2677" r="5" fill="green" stroke="none" /><circle cx="3064" cy="1600" r="5" fill="green" stroke="none" /><circle cx="2660" cy="6173" r="5" fill="green" stroke="none" /><circle cx="440" cy="4094" r="5" fill="green" stroke="none" /><circle cx="1298" cy="6525" r="5" fill="green" stroke="none" /><circle cx="938" cy="5978" r="5" fill="green" stroke="none" /><circle cx="2396" cy="4724" r="5" fill="green" stroke="none" /><circle cx="2309" cy="2946" r="5" fill="green" stroke="none" /><circle cx="3018" cy="3382" r="5" fill="green" stroke="none" /><circle cx="1608" cy="6122" r="5" fill="green" stroke="none" /><circle cx="1033" cy="3122" r="5" fill="green" stroke="none" /><circle cx="2126" cy="8288" r="5" fill="green" stroke="none" /><circle cx="2873" cy="5970" r="5" fill="green" stroke="none" /><circle cx="422" cy="5571" r="5" fill="green" stroke="none" /><circle cx="200" cy="2471" r="5" fill="green" stroke="none" /><circle cx="1970" cy="1845" r="5" fill="green" stroke="none" /><circle cx="1319" cy="4948" r="5" fill="green" stroke="none" /><circle cx="1799" cy="1365" r="5" fill="green" stroke="none" /><circle cx="3179" cy="1584" r="5" fill="green" stroke="none" /><circle cx="3001" cy="2221" r="5" fill="green" stroke="none" /><circle cx="658" cy="75" r="5" fill="green" stroke="none" /><circle cx="528" cy="6921" r="5" fill="green" stroke="none" /><circle cx="1484" cy="902" r="5" fill="green" stroke="none" /><circle cx="953" cy="1907" r="5" fill="green" stroke="none" /><circle cx="1298" cy="2747" r="5" fill="green" stroke="none" /><circle cx="1107" cy="795" r="5" fill="green" stroke="none" /><circle cx="2214" cy="1115" r="5" fill="green" stroke="none" /><circle cx="1183" cy="6585" r="5" fill="green" stroke="none" /><circle cx="549" cy="3906" r="5" fill="green" stroke="none" /><circle cx="2871" cy="770" r="5" fill="green" stroke="none" /><circle cx="737" cy="1248" r="5" fill="green" stroke="none" /><circle cx="3105" cy="4294" r="5" fill="green" stroke="none" /><circle cx="3085" cy="4789" r="5" fill="green" stroke="none" /><circle cx="3120" cy="2683" r="5" fill="green" stroke="none" /><circle cx="2836" cy="2510" r="5" fill="green" stroke="none" /><circle cx="250" cy="3287" r="5" fill="green" stroke="none" /><circle cx="829" cy="4915" r="5" fill="green" stroke="none" /><circle cx="654" cy="2802" r="5" fill="green" stroke="none" /><circle cx="1717" cy="1788" r="5" fill="green" stroke="none" /><circle cx="838" cy="3796" r="5" fill="green" stroke="none" /><circle cx="248" cy="4781" r="5" fill="green" stroke="none" /><circle cx="202" cy="837" r="5" fill="green" stroke="none" /><circle cx="1380" cy="5498" r="5" fill="green" stroke="none" /><circle cx="2233" cy="1343" r="5" fill="green" stroke="none" /><circle cx="2178" cy="5667" r="5" fill="green" stroke="none" /><circle cx="1199" cy="1384" r="5" fill="green" stroke="none" /><circle cx="91" cy="5778" r="5" fill="green" stroke="none" /><circle cx="2772" cy="4552" r="5" fill="green" stroke="none" /><circle cx="93" cy="3647" r="5" fill="green" stroke="none" /><circle cx="1203" cy="652" r="5" fill="green" stroke="none" /><circle cx="1784" cy="3248" r="5" fill="green" stroke="none" /><circle cx="956" cy="3635" r="5" fill="green" stroke="none" /><circle cx="1171" cy="4585" r="5" fill="green" stroke="none" /><circle cx="270" cy="5764" r="5" fill="green" stroke="none" /><circle cx="1366" cy="5480" r="5" fill="green" stroke="none" /><circle cx="2614" cy="440" r="5" fill="green" stroke="none" /><circle cx="1297" cy="2242" r="5" fill="green" stroke="none" /><circle cx="1503" cy="6068" r="5" fill="green" stroke="none" /><circle cx="532" cy="55" r="5" fill="green" stroke="none" /><circle cx="536" cy="3935" r="5" fill="green" stroke="none" /><circle cx="647" cy="6292" r="5" fill="green" stroke="none" /><circle cx="273" cy="4748" r="5" fill="green" stroke="none" /><circle cx="413" cy="4395" r="5" fill="green" stroke="none" /><circle cx="1715" cy="6738" r="5" fill="green" stroke="none" /><circle cx="1906" cy="224" r="5" fill="green" stroke="none" /><circle cx="1144" cy="5647" r="5" fill="green" stroke="none" /><circle cx="1038" cy="7793" r="5" fill="green" stroke="none" /><circle cx="1003" cy="1190" r="5" fill="green" stroke="none" /><circle cx="762" cy="1689" r="5" fill="green" stroke="none" /><circle cx="1664" cy="2556" r="5" fill="green" stroke="none" /><circle cx="604" cy="819" r="5" fill="green" stroke="none" /><circle cx="487" cy="6886" r="5" fill="green" stroke="none" /><circle cx="75" cy="975" r="5" fill="green" stroke="none" /><circle cx="1079" cy="801" r="5" fill="green" stroke="none" /><circle cx="1843" cy="1128" r="5" fill="green" stroke="none" /><circle cx="3068" cy="1520" r="5" fill="green" stroke="none" /><circle cx="1190" cy="4642" r="5" fill="green" stroke="none" /><circle cx="2803" cy="2729" r="5" fill="green" stroke="none" /><circle cx="1788" cy="1186" r="5" fill="green" stroke="none" /><circle cx="2307" cy="441" r="5" fill="green" stroke="none" /><circle cx="961" cy="1546" r="5" fill="green" stroke="none" /><circle cx="1997" cy="2433" r="5" fill="green" stroke="none" /><circle cx="25" cy="7204" r="5" fill="green" stroke="none" /><circle cx="892" cy="3847" r="5" fill="green" stroke="none" /><circle cx="261" cy="4795" r="5" fill="green" stroke="none" /><circle cx="85" cy="3264" r="5" fill="green" stroke="none" /><circle cx="1347" cy="1334" r="5" fill="green" stroke="none" /><circle cx="551" cy="1102" r="5" fill="green" stroke="none" /><circle cx="1020" cy="5500" r="5" fill="green" stroke="none" /><circle cx="864" cy="4985" r="5" fill="green" stroke="none" /><circle cx="1491" cy="5751" r="5" fill="green" stroke="none" /><circle cx="2135" cy="5638" r="5" fill="green" stroke="none" /><circle cx="3027" cy="4177" r="5" fill="green" stroke="none" /><circle cx="1527" cy="1844" r="5" fill="green" stroke="none" /><circle cx="2156" cy="5368" r="5" fill="green" stroke="none" /><circle cx="1192" cy="5793" r="5" fill="green" stroke="none" /><circle cx="340" cy="340" r="5" fill="green" stroke="none" /><circle cx="719" cy="3063" r="5" fill="green" stroke="none" /><circle cx="2440" cy="3785" r="5" fill="green" stroke="none" /><circle cx="126" cy="3288" r="5" fill="green" stroke="none" /><circle cx="1127" cy="4415" r="5" fill="green" stroke="none" /><circle cx="631" cy="1064" r="5" fill="green" stroke="none" /><circle cx="2669" cy="5498" r="5" fill="green" stroke="none" /><circle cx="467" cy="6388" r="5" fill="green" stroke="none" /><circle cx="960" cy="4985" r="5" fill="green" stroke="none" /><circle cx="2111" cy="5271" r="5" fill="green" stroke="none" /><circle cx="288" cy="6083" r="5" fill="green" stroke="none" /><circle cx="2767" cy="6205" r="5" fill="green" stroke="none" /><circle cx="326" cy="3812" r="5" fill="green" stroke="none" /><circle cx="876" cy="3078" r="5" fill="green" stroke="none" /><circle cx="671" cy="4716" r="5" fill="green" stroke="none" /><circle cx="2003" cy="3072" r="5" fill="green" stroke="none" /><circle cx="1579" cy="5889" r="5" fill="green" stroke="none" /><circle cx="1470" cy="3733" r="5" fill="green" stroke="none" /><circle cx="1456" cy="6156" r="5" fill="green" stroke="none" /><circle cx="1216" cy="3326" r="5" fill="green" stroke="none" /><circle cx="1171" cy="5820" r="5" fill="green" stroke="none" /><circle cx="1108" cy="1500" r="5" fill="green" stroke="none" /><circle cx="6" cy="5830" r="5" fill="green" stroke="none" /><circle cx="2475" cy="384" r="5" fill="green" stroke="none" /><circle cx="1983" cy="7679" r="5" fill="green" stroke="none" /><circle cx="647" cy="3687" r="5" fill="green" stroke="none" /><circle cx="2535" cy="887" r="5" fill="green" stroke="none" /><circle cx="1865" cy="3402" r="5" fill="green" stroke="none" /><circle cx="960" cy="105" r="5" fill="green" stroke="none" /><circle cx="1684" cy="6430" r="5" fill="green" stroke="none" /><circle cx="18" cy="8130" r="5" fill="green" stroke="none" /><circle cx="1970" cy="266" r="5" fill="green" stroke="none" /><circle cx="755" cy="2672" r="5" fill="green" stroke="none" /><circle cx="447" cy="6041" r="5" fill="green" stroke="none" /><circle cx="3177" cy="2593" r="5" fill="green" stroke="none" /><circle cx="2317" cy="809" r="5" fill="green" stroke="none" /><circle cx="467" cy="4379" r="5" fill="green" stroke="none" /><circle cx="1608" cy="3860" r="5" fill="green" stroke="none" /><circle cx="881" cy="6297" r="5" fill="green" stroke="none" /><circle cx="2466" cy="3802" r="5" fill="green" stroke="none" /><circle cx="3000" cy="4761" r="5" fill="green" stroke="none" /><circle cx="1105" cy="6183" r="5" fill="green" stroke="none" /><circle cx="2370" cy="1498" r="5" fill="green" stroke="none" /><circle cx="2657" cy="1214" r="5" fill="green" stroke="none" /><circle cx="1866" cy="2733" r="5" fill="green" stroke="none" /><circle cx="2543" cy="3296" r="5" fill="green" stroke="none" /><circle cx="1130" cy="6084" r="5" fill="green" stroke="none" /><circle cx="536" cy="4203" r="5" fill="green" stroke="none" /><circle cx="1049" cy="3027" r="5" fill="green" stroke="none" /><circle cx="189" cy="2184" r="5" fill="green" stroke="none" /><circle cx="587" cy="3126" r="5" fill="green" stroke="none" /><circle cx="2794" cy="6233" r="5" fill="green" stroke="none" /><circle cx="1542" cy="5236" r="5" fill="green" stroke="none" /><circle cx="2012" cy="2014" r="5" fill="green" stroke="none" /><circle cx="73" cy="4323" r="5" fill="green" stroke="none" /><circle cx="95" cy="3556" r="5" fill="green" stroke="none" /><circle cx="1719" cy="3265" r="5" fill="green" stroke="none" /><circle cx="1043" cy="3102" r="5" fill="green" stroke="none" /><circle cx="1460" cy="1389" r="5" fill="green" stroke="none" /><circle cx="1948" cy="2498" r="5" fill="green" stroke="none" /><circle cx="363" cy="3022" r="5" fill="green" stroke="none" /><circle cx="1862" cy="849" r="5" fill="green" stroke="none" /><circle cx="3135" cy="6106" r="5" fill="green" stroke="none" /><circle cx="2465" cy="4755" r="5" fill="green" stroke="none" /><circle cx="3031" cy="2062" r="5" fill="green" stroke="none" /><circle cx="52" cy="216" r="5" fill="green" stroke="none" /><circle cx="2345" cy="1622" r="5" fill="green" stroke="none" /><circle cx="2929" cy="6395" r="5" fill="green" stroke="none" /><circle cx="1782" cy="1164" r="5" fill="green" stroke="none" /><circle cx="2691" cy="6409" r="5" fill="green" stroke="none" /><circle cx="1461" cy="408" r="5" fill="green" stroke="none" /><circle cx="1324" cy="2427" r="5" fill="green" stroke="none" /><circle cx="307" cy="4781" r="5" fill="green" stroke="none" /><circle cx="2202" cy="2777" r="5" fill="green" stroke="none" /><circle cx="1267" cy="6679" r="5" fill="green" stroke="none" /><circle cx="2875" cy="6396" r="5" fill="green" stroke="none" /><circle cx="752" cy="621" r="5" fill="green" stroke="none" /><circle cx="2571" cy="2855" r="5" fill="green" stroke="none" /><circle cx="882" cy="1332" r="5" fill="green" stroke="none" /><circle cx="2986" cy="6658" r="5" fill="green" stroke="none" /><circle cx="423" cy="3303" r="5" fill="green" stroke="none" /><circle cx="243" cy="2901" r="5" fill="green" stroke="none" /><circle cx="797" cy="2903" r="5" fill="green" stroke="none" /><circle cx="917" cy="4841" r="5" fill="green" stroke="none" /><circle cx="279" cy="4379" r="5" fill="green" stroke="none" /><circle cx="1998" cy="1860" r="5" fill="green" stroke="none" /><circle cx="1516" cy="2158" r="5" fill="green" stroke="none" /><circle cx="106" cy="5697" r="5" fill="green" stroke="none" /><circle cx="53" cy="6557" r="5" fill="green" stroke="none" /><circle cx="1806" cy="722" r="5" fill="green" stroke="none" /><circle cx="31" cy="5701" r="5" fill="green" stroke="none" /><circle cx="45" cy="3756" r="5" fill="green" stroke="none" /><circle cx="1601" cy="1250" r="5" fill="green" stroke="none" /><circle cx="532" cy="5461" r="5" fill="green" stroke="none" /><circle cx="697" cy="2397" r="5" fill="green" stroke="none" /><circle cx="829" cy="3031" r="5" fill="green" stroke="none" /><circle cx="3158" cy="2137" r="5" fill="green" stroke="none" /><circle cx="396" cy="2618" r="5" fill="green" stroke="none" /><circle cx="664" cy="5054" r="5" fill="green" stroke="none" /><circle cx="665" cy="3786" r="5" fill="green" stroke="none" /><circle cx="1490" cy="5485" r="5" fill="green" stroke="none" /><circle cx="527" cy="4170" r="5" fill="green" stroke="none" /><circle cx="2951" cy="6551" r="5" fill="green" stroke="none" /><circle cx="3187" cy="2172" r="5" fill="green" stroke="none" /><circle cx="1859" cy="229" r="5" fill="green" stroke="none" /><circle cx="1575" cy="4017" r="5" fill="green" stroke="none" /><circle cx="2002" cy="2891" r="5" fill="green" stroke="none" /><circle cx="3049" cy="749" r="5" fill="green" stroke="none" /><circle cx="1460" cy="3675" r="5" fill="green" stroke="none" /><circle cx="2646" cy="1485" r="5" fill="green" stroke="none" /><circle cx="2848" cy="1553" r="5" fill="green" stroke="none" /><circle cx="1072" cy="864" r="5" fill="green" stroke="none" /><circle cx="1741" cy="4725" r="5" fill="green" stroke="none" /><circle cx="2590" cy="1130" r="5" fill="green" stroke="none" /><circle cx="2127" cy="4118" r="5" fill="green" stroke="none" /><circle cx="2261" cy="2063" r="5" fill="green" stroke="none" /><circle cx="130" cy="3396" r="5" fill="green" stroke="none" /><circle cx="522" cy="334" r="5" fill="green" stroke="none" /><circle cx="1729" cy="4663" r="5" fill="green" stroke="none" /><circle cx="542" cy="2179" r="5" fill="green" stroke="none" /><circle cx="260" cy="4911" r="5" fill="green" stroke="none" /><circle cx="696" cy="1814" r="5" fill="green" stroke="none" /><circle cx="2043" cy="1571" r="5" fill="green" stroke="none" /><circle cx="1777" cy="4325" r="5" fill="green" stroke="none" /><circle cx="1486" cy="7482" r="5" fill="green" stroke="none" /><circle cx="1323" cy="6837" r="5" fill="green" stroke="none" /><circle cx="1053" cy="3765" r="5" fill="green" stroke="none" /><circle cx="473" cy="398" r="5" fill="green" stroke="none" /><circle cx="2842" cy="6330" r="5" fill="green" stroke="none" /><circle cx="2580" cy="3280" r="5" fill="green" stroke="none" /><circle cx="1344" cy="3569" r="5" fill="green" stroke="none" /><circle cx="2767" cy="2090" r="5" fill="green" stroke="none" /><circle cx="2232" cy="453" r="5" fill="green" stroke="none" /><circle cx="1430" cy="2399" r="5" fill="green" stroke="none" /><circle cx="2166" cy="779" r="5" fill="green" stroke="none" /><circle cx="375" cy="5660" r="5" fill="green" stroke="none" /><circle cx="2227" cy="2847" r="5" fill="green" stroke="none" /><circle cx="1258" cy="3980" r="5" fill="green" stroke="none" /><circle cx="1505" cy="2886" r="5" fill="green" stroke="none" /><circle cx="657" cy="55" r="5" fill="green" stroke="none" /><circle cx="2648" cy="2991" r="5" fill="green" stroke="none" /><circle cx="1878" cy="2717" r="5" fill="green" stroke="none" /><circle cx="2296" cy="5826" r="5" fill="green" stroke="none" /><circle cx="1705" cy="2791" r="5" fill="green" stroke="none" /><circle cx="2577" cy="3330" r="5" fill="green" stroke="none" /><circle cx="808" cy="4770" r="5" fill="green" stroke="none" /><circle cx="515" cy="7977" r="5" fill="green" stroke="none" /><circle cx="1328" cy="750" r="5" fill="green" stroke="none" /><circle cx="48" cy="1898" r="5" fill="green" stroke="none" /><circle cx="2553" cy="1627" r="5" fill="green" stroke="none" /><circle cx="910" cy="6626" r="5" fill="green" stroke="none" /><circle cx="2487" cy="5935" r="5" fill="green" stroke="none" /><circle cx="311" cy="3646" r="5" fill="green" stroke="none" /><circle cx="186" cy="4976" r="5" fill="green" stroke="none" /><circle cx="1887" cy="1378" r="5" fill="green" stroke="none" /><circle cx="2545" cy="3223" r="5" fill="green" stroke="none" /><circle cx="2924" cy="4252" r="5" fill="green" stroke="none" /><circle cx="1735" cy="6729" r="5" fill="green" stroke="none" /><circle cx="1193" cy="5785" r="5" fill="green" stroke="none" /><circle cx="2245" cy="3400" r="5" fill="green" stroke="none" /><circle cx="448" cy="5679" r="5" fill="green" stroke="none" /><circle cx="2766" cy="4575" r="5" fill="green" stroke="none" /><circle cx="1006" cy="6832" r="5" fill="green" stroke="none" /><circle cx="2483" cy="492" r="5" fill="green" stroke="none" /><circle cx="2064" cy="2183" r="5" fill="green" stroke="none" /><circle cx="2177" cy="2046" r="5" fill="green" stroke="none" /><circle cx="683" cy="4914" r="5" fill="green" stroke="none" /><circle cx="1105" cy="4783" r="5" fill="green" stroke="none" /><circle cx="365" cy="2589" r="5" fill="green" stroke="none" /><circle cx="893" cy="6056" r="5" fill="green" stroke="none" /><circle cx="374" cy="950" r="5" fill="green" stroke="none" /><circle cx="2459" cy="5784" r="5" fill="green" stroke="none" /><circle cx="1781" cy="7475" r="5" fill="green" stroke="none" /><circle cx="2338" cy="3610" r="5" fill="green" stroke="none" /><circle cx="995" cy="2324" r="5" fill="green" stroke="none" /><circle cx="2010" cy="2331" r="79" fill="red" stroke="none" /><circle cx="2921" cy="6830" r="10" fill="red" stroke="none" /><circle cx="887" cy="4179" r="82" fill="red" stroke="none" /><circle cx="1158" cy="8218" r="7" fill="red" stroke="none" /><circle cx="2517" cy="749" r="28" fill="red" stroke="none" /><circle cx="2009" cy="3752" r="64" fill="red" stroke="none" /><circle cx="1488" cy="5155" r="22" fill="red" stroke="none" /><circle cx="2028" cy="1470" r="19" fill="red" stroke="none" /><circle cx="2801" cy="3639" r="60" fill="red" stroke="none" /><circle cx="124" cy="5059" r="31" fill="red" stroke="none" /><circle cx="2340" cy="4865" r="62" fill="red" stroke="none" /><circle cx="1833" cy="476" r="59" fill="red" stroke="none" /><circle cx="1408" cy="4092" r="83" fill="red" stroke="none" /><circle cx="963" cy="6281" r="16" fill="red" stroke="none" /><circle cx="2551" cy="6298" r="47" fill="red" stroke="none" /><circle cx="442" cy="6253" r="19" fill="red" stroke="none" /><circle cx="2497" cy="2178" r="45" fill="red" stroke="none" /><circle cx="1462" cy="3501" r="79" fill="red" stroke="none" /><circle cx="1014" cy="3495" r="76" fill="red" stroke="none" /><circle cx="1770" cy="6539" r="51" fill="red" stroke="none" /><circle cx="2843" cy="6537" r="64" fill="red" stroke="none" /><circle cx="2410" cy="5509" r="16" fill="red" stroke="none" /><circle cx="1260" cy="5520" r="21" fill="red" stroke="none" /><circle cx="3072" cy="6801" r="17" fill="red" stroke="none" /><circle cx="352" cy="7720" r="29" fill="red" stroke="none" /><circle cx="1915" cy="4584" r="55" fill="red" stroke="none" /><circle cx="268" cy="7393" r="84" fill="red" stroke="none" /><circle cx="2055" cy="1502" r="14" fill="red" stroke="none" /><circle cx="2036" cy="4248" r="81" fill="red" stroke="none" /><circle cx="2594" cy="4907" r="55" fill="red" stroke="none" /><circle cx="2069" cy="1000" r="55" fill="red" stroke="none" /><circle cx="990" cy="46" r="43" fill="red" stroke="none" /><circle cx="1256" cy="2645" r="46" fill="red" stroke="none" /><circle cx="1451" cy="4369" r="80" fill="red" stroke="none" /><circle cx="1719" cy="4878" r="78" fill="red" stroke="none" /><circle cx="2094" cy="4540" r="48" fill="red" stroke="none" /><circle cx="2466" cy="7876" r="72" fill="red" stroke="none" /><circle cx="130" cy="7009" r="64" fill="red" stroke="none" /><circle cx="3028" cy="2594" r="65" fill="red" stroke="none" /><circle cx="2131" cy="1292" r="48" fill="red" stroke="none" /><circle cx="339" cy="1035" r="37" fill="red" stroke="none" /><circle cx="1412" cy="347" r="34" fill="red" stroke="none" /><circle cx="1448" cy="2568" r="84" fill="red" stroke="none" /><circle cx="1084" cy="1401" r="45" fill="red" stroke="none" /><circle cx="1016" cy="4575" r="56" fill="red" stroke="none" /><circle cx="1543" cy="492" r="19" fill="red" stroke="none" /><circle cx="680" cy="4486" r="50" fill="red" stroke="none" /><circle cx="1279" cy="636" r="13" fill="red" stroke="none" /><circle cx="1336" cy="3020" r="24" fill="red" stroke="none" /><circle cx="2473" cy="4292" r="43" fill="red" stroke="none" /><circle cx="1832" cy="4366" r="21" fill="red" stroke="none" /><circle cx="1983" cy="4159" r="9" fill="red" stroke="none" /><circle cx="569" cy="4865" r="62" fill="red" stroke="none" /><circle cx="458" cy="2521" r="64" fill="red" stroke="none" /><circle cx="2773" cy="4679" r="51" fill="red" stroke="none" /><circle cx="2115" cy="236" r="40" fill="red" stroke="none" /><circle cx="1849" cy="1036" r="24" fill="red" stroke="none" /><circle cx="2695" cy="1319" r="63" fill="red" stroke="none" /><circle cx="1221" cy="1907" r="11" fill="red" stroke="none" /><circle cx="1782" cy="1514" r="53" fill="red" stroke="none" /><circle cx="294" cy="5089" r="32" fill="red" stroke="none" /><circle cx="3105" cy="579" r="37" fill="red" stroke="none" /><circle cx="2055" cy="742" r="77" fill="red" stroke="none" /><circle cx="2393" cy="7849" r="66" fill="red" stroke="none" /><circle cx="1601" cy="5448" r="44" fill="red" stroke="none" /><circle cx="1813" cy="5342" r="26" fill="red" stroke="none" /><circle cx="1851" cy="93" r="79" fill="red" stroke="none" /><circle cx="2601" cy="3509" r="49" fill="red" stroke="none" /><circle cx="1693" cy="6377" r="11" fill="red" stroke="none" /><circle cx="1749" cy="3503" r="43" fill="red" stroke="none" /><circle cx="3013" cy="6422" r="27" fill="red" stroke="none" /><circle cx="1359" cy="283" r="56" fill="red" stroke="none" /><circle cx="348" cy="6373" r="80" fill="red" stroke="none" /><circle cx="3110" cy="588" r="49" fill="red" stroke="none" /><circle cx="1769" cy="1054" r="60" fill="red" stroke="none" /><circle cx="179" cy="6743" r="74" fill="red" stroke="none" /><circle cx="839" cy="499" r="53" fill="red" stroke="none" /><circle cx="1316" cy="4552" r="66" fill="red" stroke="none" /><circle cx="1013" cy="3799" r="48" fill="red" stroke="none" /><circle cx="2438" cy="2943" r="12" fill="red" stroke="none" /><circle cx="1957" cy="2061" r="55" fill="red" stroke="none" /><circle cx="1556" cy="4940" r="26" fill="red" stroke="none" /><circle cx="2905" cy="7589" r="77" fill="red" stroke="none" /><circle cx="862" cy="8043" r="39" fill="red" stroke="none" /><circle cx="874" cy="7075" r="67" fill="red" stroke="none" /><circle cx="1436" cy="1726" r="52" fill="red" stroke="none" /><circle cx="2763" cy="2974" r="21" fill="red" stroke="none" /><circle cx="2999" cy="4833" r="28" fill="red" stroke="none" /><circle cx="272" cy="6263" r="77" fill="red" stroke="none" /><circle cx="1905" cy="2221" r="19" fill="red" stroke="none" /><circle cx="1368" cy="6635" r="74" fill="red" stroke="none" /><circle cx="1266" cy="3133" r="79" fill="red" stroke="none" /><circle cx="2679" cy="4032" r="38" fill="red" stroke="none" /><circle cx="2755" cy="7723" r="24" fill="red" stroke="none" /><circle cx="2189" cy="3609" r="62" fill="red" stroke="none" /><circle cx="2276" cy="2193" r="16" fill="red" stroke="none" /><circle cx="2931" cy="1740" r="77" fill="red" stroke="none" /><circle cx="1168" cy="2742" r="84" fill="red" stroke="none" /><circle cx="2088" cy="1615" r="55" fill="red" stroke="none" /><circle cx="2511" cy="1362" r="49" fill="red" stroke="none" /><circle cx="1366" cy="2341" r="8" fill="red" stroke="none" /><circle cx="1253" cy="6913" r="82" fill="red" stroke="none" /><circle cx="1907" cy="3535" r="50" fill="red" stroke="none" /><circle cx="932" cy="6799" r="26" fill="red" stroke="none" /><circle cx="1759" cy="795" r="7" fill="red" stroke="none" /><circle cx="852" cy="742" r="21" fill="red" stroke="none" /><circle cx="2342" cy="739" r="45" fill="red" stroke="none" /><circle cx="1035" cy="4903" r="70" fill="red" stroke="none" /><circle cx="987" cy="4516" r="45" fill="red" stroke="none" /><circle cx="1528" cy="1492" r="47" fill="red" stroke="none" /><circle cx="1225" cy="864" r="61" fill="red" stroke="none" /><circle cx="2355" cy="2271" r="75" fill="red" stroke="none" /><circle cx="1967" cy="6472" r="65" fill="red" stroke="none" /><circle cx="2308" cy="4006" r="33" fill="red" stroke="none" /><circle cx="2092" cy="5801" r="82" fill="red" stroke="none" /><circle cx="2846" cy="2238" r="44" fill="red" stroke="none" /><circle cx="1638" cy="7164" r="38" fill="red" stroke="none" /><circle cx="681" cy="7564" r="68" fill="red" stroke="none" /><circle cx="909" cy="1198" r="41" fill="red" stroke="none" /><circle cx="1476" cy="6761" r="41" fill="red" stroke="none" /><circle cx="2987" cy="1810" r="36" fill="red" stroke="none" /><circle cx="1750" cy="1265" r="5" fill="red" stroke="none" /><circle cx="2009" cy="1690" r="22" fill="red" stroke="none" /><circle cx="961" cy="2181" r="41" fill="red" stroke="none" /><circle cx="182" cy="2756" r="34" fill="red" stroke="none" /><circle cx="2919" cy="2968" r="47" fill="red" stroke="none" /><circle cx="2060" cy="7850" r="41" fill="red" stroke="none" /><circle cx="2953" cy="1768" r="17" fill="red" stroke="none" /><circle cx="2356" cy="6555" r="51" fill="red" stroke="none" /><circle cx="2216" cy="3920" r="30" fill="red" stroke="none" /><circle cx="2551" cy="8065" r="49" fill="red" stroke="none" /><circle cx="248" cy="2398" r="54" fill="red" stroke="none" /><circle cx="134" cy="6230" r="49" fill="red" stroke="none" /><circle cx="539" cy="2302" r="42" fill="red" stroke="none" /><circle cx="672" cy="6630" r="82" fill="red" stroke="none" /><circle cx="2766" cy="2797" r="16" fill="red" stroke="none" /><circle cx="1379" cy="2856" r="40" fill="red" stroke="none" /><circle cx="1134" cy="5245" r="12" fill="red" stroke="none" /><circle cx="679" cy="3291" r="45" fill="red" stroke="none" /><circle cx="573" cy="6004" r="18" fill="red" stroke="none" /><circle cx="2682" cy="7593" r="10" fill="red" stroke="none" /><circle cx="1375" cy="5984" r="7" fill="red" stroke="none" /><circle cx="695" cy="2299" r="52" fill="red" stroke="none" /><circle cx="606" cy="7954" r="56" fill="red" stroke="none" /><circle cx="2268" cy="294" r="58" fill="red" stroke="none" /><circle cx="3186" cy="2469" r="8" fill="red" stroke="none" /><circle cx="964" cy="394" r="78" fill="red" stroke="none" /><circle cx="2752" cy="4094" r="40" fill="red" stroke="none" /><circle cx="1352" cy="6276" r="67" fill="red" stroke="none" /><circle cx="611" cy="7289" r="24" fill="red" stroke="none" /><circle cx="3101" cy="697" r="43" fill="red" stroke="none" /><circle cx="1138" cy="1273" r="49" fill="red" stroke="none" /><circle cx="1754" cy="239" r="7" fill="red" stroke="none" /><circle cx="2684" cy="732" r="49" fill="red" stroke="none" /><circle cx="119" cy="6184" r="33" fill="red" stroke="none" /><circle cx="333" cy="3455" r="18" fill="red" stroke="none" /><circle cx="1059" cy="3936" r="60" fill="red" stroke="none" /><circle cx="1284" cy="8064" r="81" fill="red" stroke="none" /><circle cx="237" cy="7905" r="72" fill="red" stroke="none" /><circle cx="2287" cy="5994" r="79" fill="red" stroke="none" /><circle cx="2868" cy="7907" r="82" fill="red" stroke="none" /><circle cx="2215" cy="4030" r="20" fill="red" stroke="none" /><circle cx="1828" cy="6321" r="73" fill="red" stroke="none" /><circle cx="1119" cy="6959" r="68" fill="red" stroke="none" /><circle cx="2984" cy="6243" r="66" fill="red" stroke="none" /><circle cx="1769" cy="2960" r="33" fill="red" stroke="none" /><circle cx="2313" cy="955" r="16" fill="red" stroke="none" /><circle cx="2894" cy="2971" r="18" fill="red" stroke="none" /><circle cx="2812" cy="920" r="59" fill="red" stroke="none" /><circle cx="2790" cy="4233" r="44" fill="red" stroke="none" /><circle cx="3088" cy="4569" r="24" fill="red" stroke="none" /><circle cx="3135" cy="5245" r="14" fill="red" stroke="none" /><circle cx="2692" cy="459" r="60" fill="red" stroke="none" /><circle cx="3122" cy="1250" r="33" fill="red" stroke="none" /><circle cx="373" cy="5841" r="24" fill="red" stroke="none" /><circle cx="1727" cy="6423" r="10" fill="red" stroke="none" /><circle cx="2191" cy="3101" r="49" fill="red" stroke="none" /><circle cx="2800" cy="4968" r="23" fill="red" stroke="none" /><circle cx="1699" cy="1372" r="19" fill="red" stroke="none" /><circle cx="1131" cy="204" r="42" fill="red" stroke="none" /><circle cx="1438" cy="2710" r="26" fill="red" stroke="none" /><circle cx="31" cy="1323" r="25" fill="red" stroke="none" /><circle cx="1033" cy="7177" r="71" fill="red" stroke="none" /></svg>