<svg viewBox="0 0 1000 1000" xmlns="http://www.w3.org/2000/svg"><rect x="0" y="0" width="1000" height="1000" fill="lightyellow" stroke="none "/><rect x="0" y="980" width="1000" height="20" fill="white" stroke="black "/><circle cx="197" cy="689" r="5" fill="green" stroke="none" /><circle cx="21" cy="679" r="5" fill="green" stroke="none" /><circle cx="156" cy="48" r="5" fill="green" stroke="none" /><circle cx="349" cy="532" r="5" fill="green" stroke="none" /><circle cx="593" cy="434" r="5" fill="green" stroke="none" /><circle cx="204" cy="604" r="5" fill="green" stroke="none" /><circle cx="380" cy="877" r="5" fill="green" stroke="none" /><circle cx="86" cy="538" r="5" fill="green" stroke="none" /><circle cx="849" cy="392" r="5" fill="green" stroke="none" /><circle cx="663" cy="167" r="5" fill="green" stroke="none" /><circle cx="134" cy="553" r="5" fill="green" stroke="none" /><circle cx="116" cy="873" r="5" fill="green" stroke="none" /><circle cx="79" cy="129" r="5" fill="green" stroke="none" /><circle cx="504" cy="966" r="5" fill="green" stroke="none" /><circle cx="526" cy="672" r="5" fill="green" stroke="none" /><circle cx="187" cy="772" r="5" fill="green" stroke="none" /><circle cx="330" cy="315" r="5" fill="green" stroke="none" /><circle cx="439" cy="740" r="5" fill="green" stroke="none" /><circle cx="311" cy="279" r="5" fill="green" stroke="none" /><circle cx="633" cy="888" r="5" fill="green" stroke="none" /><circle cx="473" cy="639" r="5" fill="green" stroke="none" /><circle cx="278" cy="209" r="5" fill="green" stroke="none" /><circle cx="658" cy="544" r="5" fill="green" stroke="none" /><circle cx="791" cy="706" r="5" fill="green" stroke="none" /><circle cx="466" cy="471" r="5" fill="green" stroke="none" /><circle cx="333" cy="852" r="5" fill="green" stroke="none" /><circle cx="147" cy="140" r="5" fill="green" stroke="none" /><circle cx="612" cy="45" r="5" fill="green" stroke="none" /><circle cx="917" cy="934" r="5" fill="green" stroke="none" /><circle cx="470" cy="485" r="5" fill="green" stroke="none" /><circle cx="273" cy="244" r="5" fill="green" stroke="none" /><circle cx="985" cy="106" r="5" fill="green" stroke="none" /><circle cx="807" cy="883" r="5" fill="green" stroke="none" /><circle cx="770" cy="928" r="5" fill="green" stroke="none" /><circle cx="818" cy="633" r="5" fill="green" stroke="none" /><circle cx="49" cy="835" r="5" fill="green" stroke="none" /><circle cx="392" cy="576" r="5" fill="green" stroke="none" /><circle cx="72" cy="168" r="5" fill="green" stroke="none" /><circle cx="500" cy="69" r="5" fill="green" stroke="none" /><circle cx="935" cy="11" r="5" fill="green" stroke="none" /><circle cx="388" cy="486" r="5" fill="green" stroke="none" /><circle cx="440" cy="195" r="5" fill="green" stroke="none" /><circle cx="960" cy="720" r="5" fill="green" stroke="none" /><circle cx="41" cy="632" r="5" fill="green" stroke="none" /><circle cx="423" cy="438" r="5" fill="green" stroke="none" /><circle cx="849" cy="694" r="5" fill="green" stroke="none" /><circle cx="758" cy="449" r="5" fill="green" stroke="none" /><circle cx="22" cy="972" r="5" fill="green" stroke="none" /><circle cx="867" cy="55" r="5" fill="green" stroke="none" /><circle cx="518" cy="860" r="5" fill="green" stroke="none" /><circle cx="907" cy="590" r="5" fill="green" stroke="none" /><circle cx="703" cy="634" r="5" fill="green" stroke="none" /><circle cx="938" cy="271" r="5" fill="green" stroke="none" /><circle cx="75" cy="543" r="5" fill="green" stroke="none" /><circle cx="816" cy="764" r="5" fill="green" stroke="none" /><circle cx="586" cy="720" r="5" fill="green" stroke="none" /><circle cx="771" cy="627" r="5" fill="green" stroke="none" /><circle cx="347" cy="577" r="5" fill="green" stroke="none" /><circle cx="491" cy="28" r="5" fill="green" stroke="none" /><circle cx="643" cy="6" r="5" fill="green" stroke="none" /><circle cx="390" cy="627" r="5" fill="green" stroke="none" /><circle cx="283" cy="540" r="5" fill="green" stroke="none" /><circle cx="143" cy="944" r="5" fill="green" stroke="none" /><circle cx="997" cy="670" r="5" fill="green" stroke="none" /><circle cx="531" cy="645" r="5" fill="green" stroke="none" /><circle cx="949" cy="319" r="5" fill="green" stroke="none" /><circle cx="831" cy="701" r="5" fill="green" stroke="none" /><circle cx="921" cy="688" r="5" fill="green" stroke="none" /><circle cx="936" cy="571" r="5" fill="green" stroke="none" /><circle cx="47" cy="117" r="5" fill="green" stroke="none" /><circle cx="591" cy="459" r="5" fill="green" stroke="none" /><circle cx="566" cy="497" r="5" fill="green" stroke="none" /><circle cx="620" cy="728" r="5" fill="green" stroke="none" /><circle cx="384" cy="38" r="5" fill="green" stroke="none" /><circle cx="132" cy="717" r="5" fill="green" stroke="none" /><circle cx="693" cy="595" r="5" fill="green" stroke="none" /><circle cx="674" cy="538" r="5" fill="green" stroke="none" /><circle cx="62" cy="128" r="5" fill="green" stroke="none" /><circle cx="265" cy="54" r="5" fill="green" stroke="none" /><circle cx="764" cy="188" r="5" fill="green" stroke="none" /><circle cx="986" cy="801" r="5" fill="green" stroke="none" /><circle cx="673" cy="753" r="5" fill="green" stroke="none" /><circle cx="659" cy="826" r="5" fill="green" stroke="none" /><circle cx="967" cy="481" r="5" fill="green" stroke="none" /><circle cx="64" cy="615" r="5" fill="green" stroke="none" /><circle cx="750" cy="790" r="5" fill="green" stroke="none" /><circle cx="582" cy="441" r="5" fill="green" stroke="none" /><circle cx="410" cy="860" r="5" fill="green" stroke="none" /><circle cx="532" cy="263" r="5" fill="green" stroke="none" /><circle cx="96" cy="905" r="5" fill="green" stroke="none" /><circle cx="15" cy="934" r="5" fill="green" stroke="none" /><circle cx="953" cy="56" r="5" fill="green" stroke="none" /><circle cx="531" cy="21" r="5" fill="green" stroke="none" /><circle cx="318" cy="414" r="5" fill="green" stroke="none" /><circle cx="637" cy="964" r="5" fill="green" stroke="none" /><circle cx="899" cy="519" r="5" fill="green" stroke="none" /><circle cx="276" cy="779" r="5" fill="green" stroke="none" /><circle cx="585" cy="489" r="5" fill="green" stroke="none" /><circle cx="569" cy="147" r="5" fill="green" stroke="none" /><circle cx="49" cy="757" r="5" fill="green" stroke="none" /><circle cx="941" cy="77" r="5" fill="green" stroke="none" /><circle cx="602" cy="21" r="5" fill="green" stroke="none" /><circle cx="434" cy="774" r="5" fill="green" stroke="none" /><circle cx="10" cy="446" r="5" fill="green" stroke="none" /><circle cx="165" cy="687" r="5" fill="green" stroke="none" /><circle cx="191" cy="725" r="5" fill="green" stroke="none" /><circle cx="436" cy="595" r="5" fill="green" stroke="none" /><circle cx="393" cy="7" r="5" fill="green" stroke="none" /><circle cx="242" cy="60" r="5" fill="green" stroke="none" /><circle cx="312" cy="146" r="5" fill="green" stroke="none" /><circle cx="326" cy="590" r="5" fill="green" stroke="none" /><circle cx="905" cy="726" r="5" fill="green" stroke="none" /><circle cx="270" cy="430" r="5" fill="green" stroke="none" /><circle cx="621" cy="195" r="5" fill="green" stroke="none" /><circle cx="346" cy="14" r="5" fill="green" stroke="none" /><circle cx="810" cy="370" r="5" fill="green" stroke="none" /><circle cx="763" cy="398" r="5" fill="green" stroke="none" /><circle cx="789" cy="525" r="5" fill="green" stroke="none" /><circle cx="919" cy="539" r="5" fill="green" stroke="none" /><circle cx="837" cy="242" r="5" fill="green" stroke="none" /><circle cx="162" cy="819" r="5" fill="green" stroke="none" /><circle cx="189" cy="789" r="5" fill="green" stroke="none" /><circle cx="595" cy="960" r="5" fill="green" stroke="none" /><circle cx="182" cy="631" r="5" fill="green" stroke="none" /><circle cx="456" cy="263" r="5" fill="green" stroke="none" /><circle cx="445" cy="181" r="5" fill="green" stroke="none" /><circle cx="820" cy="12" r="5" fill="green" stroke="none" /><circle cx="307" cy="54" r="5" fill="green" stroke="none" /><circle cx="458" cy="939" r="5" fill="green" stroke="none" /><circle cx="935" cy="178" r="5" fill="green" stroke="none" /><circle cx="208" cy="597" r="5" fill="green" stroke="none" /><circle cx="180" cy="205" r="5" fill="green" stroke="none" /><circle cx="778" cy="788" r="5" fill="green" stroke="none" /><circle cx="906" cy="480" r="5" fill="green" stroke="none" /><circle cx="788" cy="972" r="5" fill="green" stroke="none" /><circle cx="384" cy="154" r="5" fill="green" stroke="none" /><circle cx="27" cy="784" r="5" fill="green" stroke="none" /><circle cx="202" cy="821" r="5" fill="green" stroke="none" /><circle cx="387" cy="104" r="5" fill="green" stroke="none" /><circle cx="24" cy="20" r="5" fill="green" stroke="none" /><circle cx="644" cy="395" r="5" fill="green" stroke="none" /><circle cx="871" cy="213" r="5" fill="green" stroke="none" /><circle cx="629" cy="824" r="5" fill="green" stroke="none" /><circle cx="357" cy="165" r="5" fill="green" stroke="none" /><circle cx="1" cy="528" r="5" fill="green" stroke="none" /><circle cx="893" cy="823" r="5" fill="green" stroke="none" /><circle cx="92" cy="890" r="5" fill="green" stroke="none" /><circle cx="873" cy="202" r="5" fill="green" stroke="none" /><circle cx="576" cy="903" r="5" fill="green" stroke="none" /><circle cx="731" cy="728" r="5" fill="green" stroke="none" /><circle cx="350" cy="810" r="5" fill="green" stroke="none" /><circle cx="50" cy="688" r="5" fill="green" stroke="none" /><circle cx="281" cy="393" r="5" fill="green" stroke="none" /><circle cx="897" cy="956" r="5" fill="green" stroke="none" /><circle cx="577" cy="418" r="5" fill="green" stroke="none" /><circle cx="620" cy="608" r="5" fill="green" stroke="none" /><circle cx="432" cy="467" r="5" fill="green" stroke="none" /><circle cx="746" cy="650" r="5" fill="green" stroke="none" /><circle cx="494" cy="934" r="5" fill="green" stroke="none" /><circle cx="460" cy="13" r="5" fill="green" stroke="none" /><circle cx="167" cy="148" r="5" fill="green" stroke="none" /><circle cx="95" cy="645" r="5" fill="green" stroke="none" /><circle cx="225" cy="657" r="5" fill="green" stroke="none" /><circle cx="912" cy="195" r="5" fill="green" stroke="none" /><circle cx="520" cy="391" r="5" fill="green" stroke="none" /><circle cx="81" cy="968" r="5" fill="green" stroke="none" /><circle cx="739" cy="905" r="5" fill="green" stroke="none" /><circle cx="820" cy="436" r="5" fill="green" stroke="none" /><circle cx="634" cy="243" r="5" fill="green" stroke="none" /><circle cx="245" cy="670" r="5" fill="green" stroke="none" /><circle cx="750" cy="153" r="5" fill="green" stroke="none" /><circle cx="537" cy="930" r="5" fill="green" stroke="none" /><circle cx="847" cy="721" r="5" fill="green" stroke="none" /><circle cx="413" cy="831" r="5" fill="green" stroke="none" /><circle cx="734" cy="413" r="5" fill="green" stroke="none" /><circle cx="150" cy="948" r="5" fill="green" stroke="none" /><circle cx="916" cy="215" r="5" fill="green" stroke="none" /><circle cx="7" cy="375" r="5" fill="green" stroke="none" /><circle cx="952" cy="425" r="5" fill="green" stroke="none" /><circle cx="685" cy="846" r="5" fill="green" stroke="none" /><circle cx="809" cy="942" r="5" fill="green" stroke="none" /><circle cx="373" cy="3" r="5" fill="green" stroke="none" /><circle cx="542" cy="966" r="5" fill="green" stroke="none" /><circle cx="172" cy="325" r="5" fill="green" stroke="none" /><circle cx="402" cy="921" r="5" fill="green" stroke="none" /><circle cx="325" cy="913" r="5" fill="green" stroke="none" /><circle cx="227" cy="491" r="5" fill="green" stroke="none" /><circle cx="304" cy="619" r="5" fill="green" stroke="none" /><circle cx="462" cy="541" r="5" fill="green" stroke="none" /><circle cx="339" cy="299" r="5" fill="green" stroke="none" /><circle cx="743" cy="866" r="5" fill="green" stroke="none" /><circle cx="291" cy="551" r="5" fill="green" stroke="none" /><circle cx="194" cy="776" r="5" fill="green" stroke="none" /><circle cx="895" cy="511" r="5" fill="green" stroke="none" /><circle cx="500" cy="694" r="5" fill="green" stroke="none" /><circle cx="395" cy="575" r="5" fill="green" stroke="none" /><circle cx="6" cy="172" r="5" fill="green" stroke="none" /><circle cx="427" cy="211" r="5" fill="green" stroke="none" /><circle cx="446" cy="413" r="5" fill="green" stroke="none" /><circle cx="5" cy="649" r="5" fill="green" stroke="none" /><circle cx="333" cy="804" r="5" fill="green" stroke="none" /><circle cx="527" cy="312" r="5" fill="green" stroke="none" /><circle cx="215" cy="542" r="5" fill="green" stroke="none" /><circle cx="156" cy="170" r="5" fill="green" stroke="none" /><circle cx="325" cy="60" r="5" fill="green" stroke="none" /><circle cx="473" cy="682" r="5" fill="green" stroke="none" /><circle cx="370" cy="230" r="5" fill="green" stroke="none" /><circle cx="994" cy="642" r="5" fill="green" stroke="none" /><circle cx="79" cy="827" r="5" fill="green" stroke="none" /><circle cx="598" cy="86" r="5" fill="green" stroke="none" /><circle cx="365" cy="157" r="5" fill="green" stroke="none" /><circle cx="325" cy="323" r="5" fill="green" stroke="none" /><circle cx="670" cy="936" r="5" fill="green" stroke="none" /><circle cx="380" cy="381" r="5" fill="green" stroke="none" /><circle cx="202" cy="93" r="5" fill="green" stroke="none" /><circle cx="374" cy="267" r="5" fill="green" stroke="none" /><circle cx="840" cy="134" r="5" fill="green" stroke="none" /><circle cx="750" cy="738" r="5" fill="green" stroke="none" /><circle cx="511" cy="812" r="5" fill="green" stroke="none" /><circle cx="427" cy="290" r="5" fill="green" stroke="none" /><circle cx="254" cy="679" r="5" fill="green" stroke="none" /><circle cx="137" cy="780" r="5" fill="green" stroke="none" /><circle cx="515" cy="287" r="5" fill="green" stroke="none" /><circle cx="797" cy="179" r="5" fill="green" stroke="none" /><circle cx="362" cy="880" r="5" fill="green" stroke="none" /><circle cx="319" cy="655" r="5" fill="green" stroke="none" /><circle cx="639" cy="12" r="5" fill="green" stroke="none" /><circle cx="889" cy="847" r="5" fill="green" stroke="none" /><circle cx="289" cy="31" r="5" fill="green" stroke="none" /><circle cx="779" cy="12" r="5" fill="green" stroke="none" /><circle cx="351" cy="927" r="5" fill="green" stroke="none" /><circle cx="899" cy="161" r="5" fill="green" stroke="none" /><circle cx="94" cy="970" r="5" fill="green" stroke="none" /><circle cx="478" cy="247" r="5" fill="green" stroke="none" /><circle cx="437" cy="703" r="5" fill="green" stroke="none" /><circle cx="199" cy="87" r="5" fill="green" stroke="none" /><circle cx="263" cy="290" r="5" fill="green" stroke="none" /><circle cx="724" cy="133" r="5" fill="green" stroke="none" /><circle cx="34" cy="602" r="5" fill="green" stroke="none" /><circle cx="502" cy="546" r="5" fill="green" stroke="none" /><circle cx="502" cy="419" r="5" fill="green" stroke="none" /><circle cx="976" cy="532" r="5" fill="green" stroke="none" /><circle cx="943" cy="737" r="5" fill="green" stroke="none" /><circle cx="28" cy="92" r="5" fill="green" stroke="none" /><circle cx="267" cy="31" r="5" fill="green" stroke="none" /><circle cx="42" cy="198" r="5" fill="green" stroke="none" /><circle cx="891" cy="399" r="5" fill="green" stroke="none" /><circle cx="46" cy="133" r="5" fill="green" stroke="none" /><circle cx="320" cy="691" r="5" fill="green" stroke="none" /><circle cx="159" cy="402" r="5" fill="green" stroke="none" /><circle cx="449" cy="308" r="5" fill="green" stroke="none" /><circle cx="565" cy="498" r="5" fill="green" stroke="none" /><circle cx="642" cy="956" r="5" fill="green" stroke="none" /><circle cx="784" cy="803" r="5" fill="green" stroke="none" /><circle cx="580" cy="886" r="5" fill="green" stroke="none" /><circle cx="268" cy="515" r="5" fill="green" stroke="none" /><circle cx="153" cy="14" r="5" fill="green" stroke="none" /><circle cx="659" cy="188" r="5" fill="green" stroke="none" /><circle cx="351" cy="871" r="5" fill="green" stroke="none" /><circle cx="792" cy="915" r="5" fill="green" stroke="none" /><circle cx="322" cy="675" r="5" fill="green" stroke="none" /><circle cx="301" cy="39" r="5" fill="green" stroke="none" /><circle cx="845" cy="332" r="5" fill="green" stroke="none" /><circle cx="802" cy="144" r="5" fill="green" stroke="none" /><circle cx="469" cy="454" r="5" fill="green" stroke="none" /><circle cx="315" cy="899" r="5" fill="green" stroke="none" /><circle cx="330" cy="181" r="5" fill="green" stroke="none" /><circle cx="511" cy="713" r="5" fill="green" stroke="none" /><circle cx="904" cy="170" r="5" fill="green" stroke="none" /><circle cx="975" cy="65" r="5" fill="green" stroke="none" /><circle cx="777" cy="280" r="5" fill="green" stroke="none" /><circle cx="924" cy="165" r="5" fill="green" stroke="none" /><circle cx="183" cy="702" r="5" fill="green" stroke="none" /><circle cx="879" cy="654" r="5" fill="green" stroke="none" /><circle cx="221" cy="240" r="5" fill="green" stroke="none" /><circle cx="505" cy="497" r="5" fill="green" stroke="none" /><circle cx="371" cy="966" r="5" fill="green" stroke="none" /><circle cx="548" cy="73" r="5" fill="green" stroke="none" /><circle cx="705" cy="506" r="5" fill="green" stroke="none" /><circle cx="205" cy="291" r="5" fill="green" stroke="none" /><circle cx="244" cy="646" r="5" fill="green" stroke="none" /><circle cx="431" cy="621" r="5" fill="green" stroke="none" /><circle cx="353" cy="615" r="5" fill="green" stroke="none" /><circle cx="997" cy="180" r="5" fill="green" stroke="none" /><circle cx="866" cy="778" r="5" fill="green" stroke="none" /><circle cx="690" cy="839" r="5" fill="green" stroke="none" /><circle cx="151" cy="54" r="5" fill="green" stroke="none" /><circle cx="80" cy="527" r="5" fill="green" stroke="none" /><circle cx="929" cy="721" r="5" fill="green" stroke="none" /><circle cx="869" cy="330" r="5" fill="green" stroke="none" /><circle cx="306" cy="426" r="5" fill="green" stroke="none" /><circle cx="17" cy="956" r="5" fill="green" stroke="none" /><circle cx="163" cy="306" r="5" fill="green" stroke="none" /><circle cx="488" cy="531" r="5" fill="green" stroke="none" /><circle cx="308" cy="102" r="5" fill="green" stroke="none" /><circle cx="448" cy="910" r="5" fill="green" stroke="none" /><circle cx="657" cy="344" r="5" fill="green" stroke="none" /><circle cx="236" cy="875" r="5" fill="green" stroke="none" /><circle cx="700" cy="354" r="5" fill="green" stroke="none" /><circle cx="97" cy="49" r="5" fill="green" stroke="none" /><circle cx="437" cy="833" r="5" fill="green" stroke="none" /><circle cx="127" cy="971" r="5" fill="green" stroke="none" /><circle cx="22" cy="135" r="5" fill="green" stroke="none" /><circle cx="439" cy="76" r="5" fill="green" stroke="none" /><circle cx="422" cy="652" r="5" fill="green" stroke="none" /><circle cx="696" cy="832" r="5" fill="green" stroke="none" /><circle cx="492" cy="480" r="5" fill="green" stroke="none" /><circle cx="255" cy="203" r="5" fill="green" stroke="none" /><circle cx="559" cy="842" r="5" fill="green" stroke="none" /><circle cx="901" cy="724" r="5" fill="green" stroke="none" /><circle cx="554" cy="628" r="5" fill="green" stroke="none" /><circle cx="303" cy="147" r="5" fill="green" stroke="none" /><circle cx="702" cy="327" r="5" fill="green" stroke="none" /><circle cx="840" cy="684" r="5" fill="green" stroke="none" /><circle cx="354" cy="326" r="5" fill="green" stroke="none" /><circle cx="133" cy="770" r="5" fill="green" stroke="none" /><circle cx="932" cy="252" r="5" fill="green" stroke="none" /><circle cx="667" cy="25" r="5" fill="green" stroke="none" /><circle cx="815" cy="299" r="5" fill="green" stroke="none" /><circle cx="361" cy="23" r="5" fill="green" stroke="none" /><circle cx="200" cy="367" r="5" fill="green" stroke="none" /><circle cx="214" cy="494" r="5" fill="green" stroke="none" /><circle cx="283" cy="35" r="5" fill="green" stroke="none" /><circle cx="483" cy="652" r="5" fill="green" stroke="none" /><circle cx="337" cy="852" r="5" fill="green" stroke="none" /><circle cx="240" cy="979" r="5" fill="green" stroke="none" /><circle cx="278" cy="389" r="5" fill="green" stroke="none" /><circle cx="50" cy="857" r="5" fill="green" stroke="none" /><circle cx="437" cy="748" r="5" fill="green" stroke="none" /><circle cx="577" cy="629" r="5" fill="green" stroke="none" /><circle cx="571" cy="484" r="5" fill="green" stroke="none" /><circle cx="364" cy="143" r="5" fill="green" stroke="none" /><circle cx="393" cy="208" r="5" fill="green" stroke="none" /><circle cx="755" cy="818" r="5" fill="green" stroke="none" /><circle cx="784" cy="211" r="5" fill="green" stroke="none" /><circle cx="75" cy="94" r="5" fill="green" stroke="none" /><circle cx="253" cy="385" r="5" fill="green" stroke="none" /><circle cx="231" cy="862" r="5" fill="green" stroke="none" /><circle cx="164" cy="468" r="5" fill="green" stroke="none" /><circle cx="393" cy="844" r="5" fill="green" stroke="none" /><circle cx="682" cy="833" r="5" fill="green" stroke="none" /><circle cx="311" cy="225" r="5" fill="green" stroke="none" /><circle cx="707" cy="725" r="5" fill="green" stroke="none" /><circle cx="261" cy="792" r="5" fill="green" stroke="none" /><circle cx="37" cy="666" r="5" fill="green" stroke="none" /><circle cx="710" cy="633" r="5" fill="green" stroke="none" /><circle cx="613" cy="227" r="5" fill="green" stroke="none" /><circle cx="208" cy="924" r="5" fill="green" stroke="none" /><circle cx="504" cy="164" r="5" fill="green" stroke="none" /><circle cx="692" cy="36" r="5" fill="green" stroke="none" /><circle cx="2" cy="619" r="5" fill="green" stroke="none" /><circle cx="877" cy="101" r="5" fill="green" stroke="none" /><circle cx="957" cy="608" r="5" fill="green" stroke="none" /><circle cx="11" cy="535" r="5" fill="green" stroke="none" /><circle cx="343" cy="286" r="5" fill="green" stroke="none" /><circle cx="115" cy="819" r="5" fill="green" stroke="none" /><circle cx="238" cy="465" r="5" fill="green" stroke="none" /><circle cx="635" cy="343" r="5" fill="green" stroke="none" /><circle cx="337" cy="786" r="5" fill="green" stroke="none" /><circle cx="84" cy="548" r="5" fill="green" stroke="none" /><circle cx="609" cy="456" r="5" fill="green" stroke="none" /><circle cx="303" cy="100" r="5" fill="green" stroke="none" /><circle cx="532" cy="462" r="5" fill="green" stroke="none" /><circle cx="97" cy="529" r="5" fill="green" stroke="none" /><circle cx="722" cy="61" r="5" fill="green" stroke="none" /><circle cx="886" cy="897" r="5" fill="green" stroke="none" /><circle cx="420" cy="13" r="5" fill="green" stroke="none" /><circle cx="136" cy="157" r="5" fill="green" stroke="none" /><circle cx="106" cy="631" r="5" fill="green" stroke="none" /><circle cx="356" cy="395" r="5" fill="green" stroke="none" /><circle cx="52" cy="624" r="5" fill="green" stroke="none" /><circle cx="112" cy="578" r="5" fill="green" stroke="none" /><circle cx="959" cy="675" r="5" fill="green" stroke="none" /><circle cx="984" cy="316" r="5" fill="green" stroke="none" /><circle cx="689" cy="223" r="5" fill="green" stroke="none" /><circle cx="616" cy="521" r="5" fill="green" stroke="none" /><circle cx="845" cy="699" r="5" fill="green" stroke="none" /><circle cx="870" cy="711" r="5" fill="green" stroke="none" /><circle cx="420" cy="199" r="5" fill="green" stroke="none" /><circle cx="597" cy="496" r="5" fill="green" stroke="none" /><circle cx="603" cy="542" r="5" fill="green" stroke="none" /><circle cx="1" cy="827" r="5" fill="green" stroke="none" /><circle cx="723" cy="553" r="5" fill="green" stroke="none" /><circle cx="86" cy="652" r="5" fill="green" stroke="none" /><circle cx="723" cy="730" r="5" fill="green" stroke="none" /><circle cx="256" cy="621" r="5" fill="green" stroke="none" /><circle cx="14" cy="922" r="5" fill="green" stroke="none" /><circle cx="798" cy="698" r="5" fill="green" stroke="none" /><circle cx="412" cy="648" r="5" fill="green" stroke="none" /><circle cx="495" cy="715" r="5" fill="green" stroke="none" /><circle cx="335" cy="184" r="5" fill="green" stroke="none" /><circle cx="561" cy="278" r="5" fill="green" stroke="none" /><circle cx="410" cy="141" r="5" fill="green" stroke="none" /><circle cx="517" cy="17" r="5" fill="green" stroke="none" /><circle cx="863" cy="542" r="5" fill="green" stroke="none" /><circle cx="980" cy="19" r="5" fill="green" stroke="none" /><circle cx="422" cy="470" r="5" fill="green" stroke="none" /><circle cx="29" cy="323" r="5" fill="green" stroke="none" /><circle cx="734" cy="502" r="5" fill="green" stroke="none" /><circle cx="843" cy="827" r="5" fill="green" stroke="none" /><circle cx="94" cy="28" r="5" fill="green" stroke="none" /><circle cx="297" cy="553" r="5" fill="green" stroke="none" /><circle cx="331" cy="947" r="5" fill="green" stroke="none" /><circle cx="567" cy="100" r="5" fill="green" stroke="none" /><circle cx="519" cy="278" r="5" fill="green" stroke="none" /><circle cx="25" cy="689" r="5" fill="green" stroke="none" /><circle cx="147" cy="768" r="5" fill="green" stroke="none" /><circle cx="113" cy="592" r="5" fill="green" stroke="none" /><circle cx="2" cy="9" r="5" fill="green" stroke="none" /><circle cx="925" cy="268" r="5" fill="green" stroke="none" /><circle cx="917" cy="816" r="5" fill="green" stroke="none" /><circle cx="330" cy="400" r="5" fill="green" stroke="none" /><circle cx="298" cy="316" r="5" fill="green" stroke="none" /><circle cx="754" cy="847" r="5" fill="green" stroke="none" /><circle cx="271" cy="264" r="5" fill="green" stroke="none" /><circle cx="313" cy="140" r="5" fill="green" stroke="none" /><circle cx="8" cy="481" r="5" fill="green" stroke="none" /><circle cx="607" cy="267" r="5" fill="green" stroke="none" /><circle cx="58" cy="110" r="5" fill="green" stroke="none" /><circle cx="35" cy="82" r="5" fill="green" stroke="none" /><circle cx="280" cy="796" r="5" fill="green" stroke="none" /><circle cx="68" cy="501" r="5" fill="green" stroke="none" /><circle cx="850" cy="225" r="5" fill="green" stroke="none" /><circle cx="994" cy="536" r="5" fill="green" stroke="none" /><circle cx="296" cy="599" r="5" fill="green" stroke="none" /><circle cx="32" cy="212" r="5" fill="green" stroke="none" /><circle cx="592" cy="859" r="5" fill="green" stroke="none" /><circle cx="609" cy="257" r="5" fill="green" stroke="none" /><circle cx="850" cy="229" r="5" fill="green" stroke="none" /><circle cx="365" cy="112" r="5" fill="green" stroke="none" /><circle cx="55" cy="785" r="5" fill="green" stroke="none" /><circle cx="904" cy="577" r="5" fill="green" stroke="none" /><circle cx="558" cy="921" r="5" fill="green" stroke="none" /><circle cx="620" cy="619" r="5" fill="green" stroke="none" /><circle cx="428" cy="685" r="5" fill="green" stroke="none" /><circle cx="278" cy="225" r="5" fill="green" stroke="none" /><circle cx="64" cy="958" r="5" fill="green" stroke="none" /><circle cx="632" cy="965" r="5" fill="green" stroke="none" /><circle cx="491" cy="707" r="5" fill="green" stroke="none" /><circle cx="673" cy="609" r="5" fill="green" stroke="none" /><circle cx="985" cy="528" r="5" fill="green" stroke="none" /><circle cx="641" cy="501" r="5" fill="green" stroke="none" /><circle cx="384" cy="513" r="5" fill="green" stroke="none" /><circle cx="342" cy="104" r="5" fill="green" stroke="none" /><circle cx="784" cy="970" r="5" fill="green" stroke="none" /><circle cx="700" cy="9" r="5" fill="green" stroke="none" /><circle cx="399" cy="85" r="5" fill="green" stroke="none" /><circle cx="955" cy="319" r="5" fill="green" stroke="none" /><circle cx="926" cy="563" r="5" fill="green" stroke="none" /><circle cx="568" cy="199" r="5" fill="green" stroke="none" /><circle cx="829" cy="646" r="5" fill="green" stroke="none" /><circle cx="137" cy="659" r="5" fill="green" stroke="none" /><circle cx="580" cy="113" r="5" fill="green" stroke="none" /><circle cx="0" cy="380" r="5" fill="green" stroke="none" /><circle cx="289" cy="178" r="5" fill="green" stroke="none" /><circle cx="877" cy="410" r="5" fill="green" stroke="none" /><circle cx="820" cy="172" r="5" fill="green" stroke="none" /><circle cx="687" cy="771" r="5" fill="green" stroke="none" /><circle cx="727" cy="573" r="5" fill="green" stroke="none" /><circle cx="243" cy="381" r="5" fill="green" stroke="none" /><circle cx="568" cy="901" r="5" fill="green" stroke="none" /><circle cx="960" cy="765" r="5" fill="green" stroke="none" /><circle cx="270" cy="844" r="5" fill="green" stroke="none" /><circle cx="569" cy="237" r="5" fill="green" stroke="none" /><circle cx="942" cy="498" r="5" fill="green" stroke="none" /><circle cx="789" cy="744" r="5" fill="green" stroke="none" /><circle cx="869" cy="858" r="5" fill="green" stroke="none" /><circle cx="125" cy="203" r="5" fill="green" stroke="none" /><circle cx="91" cy="505" r="5" fill="green" stroke="none" /><circle cx="602" cy="6" r="5" fill="green" stroke="none" /><circle cx="486" cy="253" r="5" fill="green" stroke="none" /><circle cx="136" cy="92" r="5" fill="green" stroke="none" /><circle cx="738" cy="888" r="5" fill="green" stroke="none" /><circle cx="289" cy="569" r="5" fill="green" stroke="none" /><circle cx="487" cy="968" r="5" fill="green" stroke="none" /><circle cx="77" cy="728" r="5" fill="green" stroke="none" /><circle cx="749" cy="259" r="5" fill="green" stroke="none" /><circle cx="567" cy="562" r="5" fill="green" stroke="none" /><circle cx="723" cy="485" r="5" fill="green" stroke="none" /><circle cx="480" cy="70" r="5" fill="green" stroke="none" /><circle cx="262" cy="360" r="5" fill="green" stroke="none" /><circle cx="948" cy="186" r="5" fill="green" stroke="none" /><circle cx="651" cy="160" r="5" fill="green" stroke="none" /><circle cx="875" cy="119" r="5" fill="green" stroke="none" /><circle cx="867" cy="658" r="5" fill="green" stroke="none" /><circle cx="492" cy="487" r="5" fill="green" stroke="none" /><circle cx="207" cy="462" r="5" fill="green" stroke="none" /><circle cx="514" cy="306" r="5" fill="green" stroke="none" /><circle cx="990" cy="917" r="5" fill="green" stroke="none" /><circle cx="596" cy="454" r="5" fill="green" stroke="none" /><circle cx="773" cy="209" r="5" fill="green" stroke="none" /><circle cx="801" cy="870" r="5" fill="green" stroke="none" /><circle cx="348" cy="796" r="5" fill="green" stroke="none" /><circle cx="450" cy="657" r="5" fill="green" stroke="none" /><circle cx="837" cy="121" r="5" fill="green" stroke="none" /><circle cx="419" cy="903" r="5" fill="green" stroke="none" /><circle cx="435" cy="528" r="5" fill="green" stroke="none" /><circle cx="55" cy="464" r="5" fill="green" stroke="none" /><circle cx="496" cy="791" r="5" fill="green" stroke="none" /><circle cx="785" cy="460" r="5" fill="green" stroke="none" /><circle cx="776.6788565714135" cy="990" r="5" fill="blue" stroke="none" /><circle cx="249.71967773811474" cy="990" r="5" fill="blue" stroke="none" /><circle cx="27.733268386156592" cy="990" r="5" fill="blue" stroke="none" /><circle cx="786.6788959868464" cy="990" r="5" fill="blue" stroke="none" /><circle cx="94.2534790510876" cy="990" r="5" fill="blue" stroke="none" /><circle cx="81.18565796793926" cy="990" r="5" fill="blue" stroke="none" /><circle cx="17.733233391478038" cy="990" r="5" fill="blue" stroke="none" /><circle cx="796.678914217225" cy="990" r="5" fill="blue" stroke="none" /><circle cx="239.7196483186539" cy="990" r="5" fill="blue" stroke="none" /><circle cx="542.7611655324611" cy="990" r="5" fill="blue" stroke="none" /><circle cx="260.4119914896814" cy="990" r="5" fill="blue" stroke="none" /><circle cx="104.25368431780895" cy="990" r="5" fill="blue" stroke="none" /><circle cx="129.36180446608043" cy="990" r="5" fill="blue" stroke="none" /><circle cx="117.034358927803" cy="990" r="5" fill="blue" stroke="none" /><circle cx="229.71963111195672" cy="990" r="5" fill="blue" stroke="none" /></svg>