<svg viewBox="0 0 3039 2499" xmlns="http://www.w3.org/2000/svg"><rect x="0" y="0" width="3039" height="2499" fill="lightyellow" stroke="none "/><rect x="1682" y="647" width="1000" height="289" fill="white" stroke="black "/><circle cx="2435" cy="413" r="5" fill="green" stroke="none" /><circle cx="2163" cy="1991" r="5" fill="green" stroke="none" /><circle cx="1414" cy="1545" r="5" fill="green" stroke="none" /><circle cx="141" cy="1602" r="5" fill="green" stroke="none" /><circle cx="2210" cy="1085" r="5" fill="green" stroke="none" /><circle cx="317" cy="1735" r="5" fill="green" stroke="none" /><circle cx="159" cy="1803" r="5" fill="green" stroke="none" /><circle cx="2452" cy="1442" r="5" fill="green" stroke="none" /><circle cx="1653" cy="1200" r="5" fill="green" stroke="none" /><circle cx="1495" cy="824" r="5" fill="green" stroke="none" /><circle cx="208" cy="1990" r="5" fill="green" stroke="none" /><circle cx="1548" cy="429" r="5" fill="green" stroke="none" /><circle cx="1832" cy="1943" r="5" fill="green" stroke="none" /><circle cx="2489" cy="357" r="5" fill="green" stroke="none" /><circle cx="101" cy="2099" r="5" fill="green" stroke="none" /><circle cx="1678" cy="83" r="5" fill="green" stroke="none" /><circle cx="1947" cy="1046" r="5" fill="green" stroke="none" /><circle cx="1625" cy="1553" r="5" fill="green" stroke="none" /><circle cx="723" cy="2338" r="5" fill="green" stroke="none" /><circle cx="2383" cy="235" r="5" fill="green" stroke="none" /><circle cx="2692" cy="2258" r="5" fill="green" stroke="none" /><circle cx="884" cy="1999" r="5" fill="green" stroke="none" /><circle cx="2023" cy="593" r="5" fill="green" stroke="none" /><circle cx="3036" cy="1177" r="5" fill="green" stroke="none" /><circle cx="1061" cy="1146" r="5" fill="green" stroke="none" /><circle cx="362" cy="137" r="5" fill="green" stroke="none" /><circle cx="1567" cy="2193" r="5" fill="green" stroke="none" /><circle cx="694" cy="1934" r="5" fill="green" stroke="none" /><circle cx="2272" cy="2412" r="5" fill="green" stroke="none" /><circle cx="2088" cy="395" r="5" fill="green" stroke="none" /><circle cx="335" cy="837" r="5" fill="green" stroke="none" /><circle cx="1659" cy="265" r="5" fill="green" stroke="none" /><circle cx="1391" cy="850" r="5" fill="green" stroke="none" /><circle cx="642" cy="1007" r="5" fill="green" stroke="none" /><circle cx="1542" cy="373" r="5" fill="green" stroke="none" /><circle cx="2941" cy="901" r="5" fill="green" stroke="none" /><circle cx="629" cy="1627" r="5" fill="green" stroke="none" /><circle cx="1850" cy="1751" r="5" fill="green" stroke="none" /><circle cx="2739" cy="2016" r="5" fill="green" stroke="none" /><circle cx="1525" cy="634" r="5" fill="green" stroke="none" /><circle cx="2945" cy="877" r="5" fill="green" stroke="none" /><circle cx="2979" cy="567" r="5" fill="green" stroke="none" /><circle cx="2624" cy="1623" r="5" fill="green" stroke="none" /><circle cx="1046" cy="495" r="5" fill="green" stroke="none" /><circle cx="2025" cy="1018" r="5" fill="green" stroke="none" /><circle cx="2006" cy="645" r="5" fill="green" stroke="none" /><circle cx="3036" cy="993" r="5" fill="green" stroke="none" /><circle cx="2143" cy="422" r="5" fill="green" stroke="none" /><circle cx="2370" cy="1968" r="5" fill="green" stroke="none" /><circle cx="876" cy="1092" r="5" fill="green" stroke="none" /><circle cx="177" cy="1511" r="5" fill="green" stroke="none" /><circle cx="8" cy="698" r="5" fill="green" stroke="none" /><circle cx="1810" cy="1499" r="5" fill="green" stroke="none" /><circle cx="207" cy="1991" r="5" fill="green" stroke="none" /><circle cx="2500" cy="1203" r="5" fill="green" stroke="none" /><circle cx="471" cy="697" r="5" fill="green" stroke="none" /><circle cx="1953" cy="2195" r="5" fill="green" stroke="none" /><circle cx="1817" cy="2423" r="5" fill="green" stroke="none" /><circle cx="1763" cy="554" r="5" fill="green" stroke="none" /><circle cx="782" cy="2269" r="5" fill="green" stroke="none" /><circle cx="415" cy="1553" r="5" fill="green" stroke="none" /><circle cx="2875" cy="1277" r="5" fill="green" stroke="none" /><circle cx="3005" cy="614" r="5" fill="green" stroke="none" /><circle cx="1324" cy="2165" r="5" fill="green" stroke="none" /><circle cx="479" cy="1662" r="5" fill="green" stroke="none" /><circle cx="107" cy="2230" r="5" fill="green" stroke="none" /><circle cx="3003" cy="823" r="5" fill="green" stroke="none" /><circle cx="1677" cy="2223" r="5" fill="green" stroke="none" /><circle cx="2403" cy="1722" r="5" fill="green" stroke="none" /><circle cx="1815" cy="1794" r="5" fill="green" stroke="none" /><circle cx="3024" cy="1026" r="5" fill="green" stroke="none" /><circle cx="1591" cy="294" r="5" fill="green" stroke="none" /><circle cx="2652" cy="1089" r="5" fill="green" stroke="none" /><circle cx="128" cy="1134" r="5" fill="green" stroke="none" /><circle cx="2756" cy="2347" r="5" fill="green" stroke="none" /><circle cx="2540" cy="2112" r="5" fill="green" stroke="none" /><circle cx="2509" cy="1670" r="5" fill="green" stroke="none" /><circle cx="2680" cy="1053" r="5" fill="green" stroke="none" /><circle cx="980" cy="1645" r="5" fill="green" stroke="none" /><circle cx="117" cy="822" r="5" fill="green" stroke="none" /><circle cx="1387" cy="2180" r="5" fill="green" stroke="none" /><circle cx="1338" cy="1312" r="5" fill="green" stroke="none" /><circle cx="1466" cy="1387" r="5" fill="green" stroke="none" /><circle cx="1213" cy="1747" r="5" fill="green" stroke="none" /><circle cx="525" cy="1043" r="5" fill="green" stroke="none" /><circle cx="1391" cy="1596" r="5" fill="green" stroke="none" /><circle cx="2564" cy="450" r="5" fill="green" stroke="none" /><circle cx="418" cy="1459" r="5" fill="green" stroke="none" /><circle cx="2964" cy="2042" r="5" fill="green" stroke="none" /><circle cx="1387" cy="1994" r="5" fill="green" stroke="none" /><circle cx="2770" cy="112" r="5" fill="green" stroke="none" /><circle cx="1148" cy="1416" r="5" fill="green" stroke="none" /><circle cx="2680" cy="1502" r="5" fill="green" stroke="none" /><circle cx="2721" cy="280" r="5" fill="green" stroke="none" /><circle cx="238" cy="1375" r="5" fill="green" stroke="none" /><circle cx="853" cy="1890" r="5" fill="green" stroke="none" /><circle cx="2173" cy="2488" r="5" fill="green" stroke="none" /><circle cx="1483" cy="2423" r="5" fill="green" stroke="none" /><circle cx="2700" cy="1984" r="5" fill="green" stroke="none" /><circle cx="1348" cy="1503" r="5" fill="green" stroke="none" /><circle cx="2548" cy="18" r="5" fill="green" stroke="none" /><circle cx="2227" cy="1204" r="5" fill="green" stroke="none" /><circle cx="1164" cy="618" r="5" fill="green" stroke="none" /><circle cx="2107" cy="945" r="5" fill="green" stroke="none" /><circle cx="2949" cy="2488" r="5" fill="green" stroke="none" /><circle cx="712" cy="2181" r="5" fill="green" stroke="none" /><circle cx="1477" cy="564" r="5" fill="green" stroke="none" /><circle cx="1528" cy="1301" r="5" fill="green" stroke="none" /><circle cx="527" cy="1776" r="5" fill="green" stroke="none" /><circle cx="174" cy="1748" r="5" fill="green" stroke="none" /><circle cx="1639" cy="757" r="5" fill="green" stroke="none" /><circle cx="573" cy="1503" r="5" fill="green" stroke="none" /><circle cx="873" cy="564" r="5" fill="green" stroke="none" /><circle cx="884" cy="1862" r="5" fill="green" stroke="none" /><circle cx="989" cy="1755" r="5" fill="green" stroke="none" /><circle cx="1687" cy="1370" r="5" fill="green" stroke="none" /><circle cx="340" cy="2151" r="5" fill="green" stroke="none" /><circle cx="1447" cy="704" r="5" fill="green" stroke="none" /><circle cx="2040" cy="990" r="5" fill="green" stroke="none" /><circle cx="2613" cy="2367" r="5" fill="green" stroke="none" /><circle cx="2701" cy="780" r="5" fill="green" stroke="none" /><circle cx="1470" cy="895" r="5" fill="green" stroke="none" /><circle cx="1749" cy="1060" r="5" fill="green" stroke="none" /><circle cx="2646" cy="1481" r="5" fill="green" stroke="none" /><circle cx="1139" cy="479" r="5" fill="green" stroke="none" /><circle cx="1728" cy="1102" r="5" fill="green" stroke="none" /><circle cx="2246" cy="15" r="5" fill="green" stroke="none" /><circle cx="2364" cy="1028" r="5" fill="green" stroke="none" /><circle cx="1097" cy="2002" r="5" fill="green" stroke="none" /><circle cx="1815" cy="1788" r="5" fill="green" stroke="none" /><circle cx="96" cy="698" r="5" fill="green" stroke="none" /><circle cx="2104" cy="1525" r="5" fill="green" stroke="none" /><circle cx="578" cy="1190" r="5" fill="green" stroke="none" /><circle cx="1686" cy="2062" r="5" fill="green" stroke="none" /><circle cx="1586" cy="1834" r="5" fill="green" stroke="none" /><circle cx="604" cy="2474" r="5" fill="green" stroke="none" /><circle cx="809" cy="1260" r="5" fill="green" stroke="none" /><circle cx="206" cy="2052" r="5" fill="green" stroke="none" /><circle cx="1724" cy="1982" r="5" fill="green" stroke="none" /><circle cx="1481" cy="1526" r="5" fill="green" stroke="none" /><circle cx="420" cy="1451" r="5" fill="green" stroke="none" /><circle cx="3016" cy="287" r="5" fill="green" stroke="none" /><circle cx="2877" cy="922" r="5" fill="green" stroke="none" /><circle cx="2899" cy="2355" r="5" fill="green" stroke="none" /><circle cx="501" cy="694" r="5" fill="green" stroke="none" /><circle cx="2633" cy="51" r="5" fill="green" stroke="none" /><circle cx="2713" cy="2436" r="5" fill="green" stroke="none" /><circle cx="830" cy="2200" r="5" fill="green" stroke="none" /><circle cx="1404" cy="178" r="5" fill="green" stroke="none" /><circle cx="767" cy="557" r="5" fill="green" stroke="none" /><circle cx="2023" cy="1806" r="5" fill="green" stroke="none" /><circle cx="380" cy="2113" r="5" fill="green" stroke="none" /><circle cx="246" cy="14" r="5" fill="green" stroke="none" /><circle cx="1820" cy="1063" r="5" fill="green" stroke="none" /><circle cx="2487" cy="941" r="5" fill="green" stroke="none" /><circle cx="1845" cy="2215" r="5" fill="green" stroke="none" /><circle cx="1049" cy="680" r="5" fill="green" stroke="none" /><circle cx="285" cy="21" r="5" fill="green" stroke="none" /><circle cx="2462" cy="1509" r="5" fill="green" stroke="none" /><circle cx="2579" cy="2020" r="5" fill="green" stroke="none" /><circle cx="1921" cy="1328" r="5" fill="green" stroke="none" /><circle cx="1884" cy="1417" r="5" fill="green" stroke="none" /><circle cx="2871" cy="918" r="5" fill="green" stroke="none" /><circle cx="1983" cy="1672" r="5" fill="green" stroke="none" /><circle cx="661" cy="1593" r="5" fill="green" stroke="none" /><circle cx="1917" cy="209" r="5" fill="green" stroke="none" /><circle cx="1352" cy="1011" r="5" fill="green" stroke="none" /><circle cx="996" cy="1353" r="5" fill="green" stroke="none" /><circle cx="1800" cy="1121" r="5" fill="green" stroke="none" /><circle cx="2394" cy="1914" r="5" fill="green" stroke="none" /><circle cx="2423" cy="2060" r="5" fill="green" stroke="none" /><circle cx="2783" cy="511" r="5" fill="green" stroke="none" /><circle cx="19" cy="1121" r="5" fill="green" stroke="none" /><circle cx="1605" cy="1147" r="5" fill="green" stroke="none" /><circle cx="388" cy="1651" r="5" fill="green" stroke="none" /><circle cx="850" cy="2189" r="5" fill="green" stroke="none" /><circle cx="2126" cy="2204" r="5" fill="green" stroke="none" /><circle cx="1633" cy="690" r="5" fill="green" stroke="none" /><circle cx="2318" cy="1078" r="5" fill="green" stroke="none" /><circle cx="7" cy="2100" r="5" fill="green" stroke="none" /><circle cx="1770" cy="1826" r="5" fill="green" stroke="none" /><circle cx="433" cy="2028" r="5" fill="green" stroke="none" /><circle cx="3033" cy="10" r="5" fill="green" stroke="none" /><circle cx="2200" cy="1397" r="5" fill="green" stroke="none" /><circle cx="1029" cy="1362" r="5" fill="green" stroke="none" /><circle cx="1711" cy="1980" r="5" fill="green" stroke="none" /><circle cx="1411" cy="1309" r="5" fill="green" stroke="none" /><circle cx="1438" cy="1437" r="5" fill="green" stroke="none" /><circle cx="1049" cy="1059" r="5" fill="green" stroke="none" /><circle cx="2170" cy="965" r="5" fill="green" stroke="none" /><circle cx="724" cy="2319" r="5" fill="green" stroke="none" /><circle cx="1059" cy="1560" r="5" fill="green" stroke="none" /><circle cx="2378" cy="1783" r="5" fill="green" stroke="none" /><circle cx="2537" cy="2397" r="5" fill="green" stroke="none" /><circle cx="1792" cy="470" r="5" fill="green" stroke="none" /><circle cx="1492" cy="2203" r="5" fill="green" stroke="none" /><circle cx="2242" cy="2022" r="5" fill="green" stroke="none" /><circle cx="641" cy="1266" r="5" fill="green" stroke="none" /><circle cx="325" cy="1916" r="5" fill="green" stroke="none" /><circle cx="631" cy="947" r="5" fill="green" stroke="none" /><circle cx="957" cy="336" r="5" fill="green" stroke="none" /><circle cx="2477" cy="2143" r="5" fill="green" stroke="none" /><circle cx="2176" cy="1041" r="5" fill="green" stroke="none" /><circle cx="1927" cy="220" r="5" fill="green" stroke="none" /><circle cx="1095" cy="916" r="5" fill="green" stroke="none" /><circle cx="2543" cy="381" r="5" fill="green" stroke="none" /><circle cx="2450" cy="161" r="5" fill="green" stroke="none" /><circle cx="2018" cy="1218" r="5" fill="green" stroke="none" /><circle cx="2850" cy="744" r="5" fill="green" stroke="none" /><circle cx="2821" cy="833" r="5" fill="green" stroke="none" /><circle cx="1166" cy="415" r="5" fill="green" stroke="none" /><circle cx="232" cy="1520" r="5" fill="green" stroke="none" /><circle cx="1796" cy="1778" r="5" fill="green" stroke="none" /><circle cx="132" cy="2121" r="5" fill="green" stroke="none" /><circle cx="1848" cy="1010" r="5" fill="green" stroke="none" /><circle cx="1703" cy="311" r="5" fill="green" stroke="none" /><circle cx="3011" cy="1358" r="5" fill="green" stroke="none" /><circle cx="1594" cy="1301" r="5" fill="green" stroke="none" /><circle cx="953" cy="1553" r="5" fill="green" stroke="none" /><circle cx="1539" cy="600" r="5" fill="green" stroke="none" /><circle cx="1668" cy="2209" r="5" fill="green" stroke="none" /><circle cx="2390" cy="2302" r="5" fill="green" stroke="none" /><circle cx="1994" cy="2333" r="5" fill="green" stroke="none" /><circle cx="1892" cy="152" r="5" fill="green" stroke="none" /><circle cx="1866" cy="1626" r="5" fill="green" stroke="none" /><circle cx="1454" cy="319" r="5" fill="green" stroke="none" /><circle cx="1378" cy="2062" r="5" fill="green" stroke="none" /><circle cx="667" cy="2051" r="5" fill="green" stroke="none" /><circle cx="2736" cy="1496" r="5" fill="green" stroke="none" /><circle cx="740" cy="1054" r="5" fill="green" stroke="none" /><circle cx="661" cy="1176" r="5" fill="green" stroke="none" /><circle cx="1488" cy="1018" r="5" fill="green" stroke="none" /><circle cx="567" cy="1518" r="5" fill="green" stroke="none" /><circle cx="1612" cy="1257" r="5" fill="green" stroke="none" /><circle cx="1459" cy="1669" r="5" fill="green" stroke="none" /><circle cx="627" cy="1712" r="5" fill="green" stroke="none" /><circle cx="2298" cy="1394" r="5" fill="green" stroke="none" /><circle cx="2177" cy="1660" r="5" fill="green" stroke="none" /><circle cx="548" cy="1031" r="5" fill="green" stroke="none" /><circle cx="2991" cy="554" r="5" fill="green" stroke="none" /><circle cx="2637" cy="1914" r="5" fill="green" stroke="none" /><circle cx="2231" cy="1208" r="5" fill="green" stroke="none" /><circle cx="2970" cy="251" r="5" fill="green" stroke="none" /><circle cx="1318" cy="395" r="5" fill="green" stroke="none" /><circle cx="2164" cy="2344" r="5" fill="green" stroke="none" /><circle cx="478" cy="1425" r="5" fill="green" stroke="none" /><circle cx="2084" cy="1060" r="5" fill="green" stroke="none" /><circle cx="830" cy="440" r="5" fill="green" stroke="none" /><circle cx="1697" cy="2357" r="5" fill="green" stroke="none" /><circle cx="166" cy="2229" r="5" fill="green" stroke="none" /><circle cx="1844" cy="119" r="5" fill="green" stroke="none" /><circle cx="1415" cy="1668" r="5" fill="green" stroke="none" /><circle cx="463" cy="1948" r="5" fill="green" stroke="none" /><circle cx="1117" cy="1229" r="5" fill="green" stroke="none" /><circle cx="1164" cy="1646" r="5" fill="green" stroke="none" /><circle cx="100" cy="195" r="5" fill="green" stroke="none" /><circle cx="1139" cy="434" r="5" fill="green" stroke="none" /><circle cx="1832" cy="980" r="5" fill="green" stroke="none" /><circle cx="1779" cy="1894" r="5" fill="green" stroke="none" /><circle cx="840" cy="1921" r="5" fill="green" stroke="none" /><circle cx="2529" cy="2127" r="5" fill="green" stroke="none" /><circle cx="2621" cy="1905" r="5" fill="green" stroke="none" /><circle cx="2248" cy="1719" r="5" fill="green" stroke="none" /><circle cx="2402" cy="1940" r="5" fill="green" stroke="none" /><circle cx="1012" cy="645" r="5" fill="green" stroke="none" /><circle cx="1441" cy="1427" r="5" fill="green" stroke="none" /><circle cx="1615" cy="590" r="5" fill="green" stroke="none" /><circle cx="655" cy="302" r="5" fill="green" stroke="none" /><circle cx="2603" cy="1153" r="5" fill="green" stroke="none" /><circle cx="1290" cy="1317" r="5" fill="green" stroke="none" /><circle cx="290" cy="1537" r="5" fill="green" stroke="none" /><circle cx="1167" cy="1332" r="5" fill="green" stroke="none" /><circle cx="2054" cy="1795" r="5" fill="green" stroke="none" /><circle cx="221" cy="133" r="5" fill="green" stroke="none" /><circle cx="801" cy="1159" r="5" fill="green" stroke="none" /><circle cx="2263" cy="2497" r="5" fill="green" stroke="none" /><circle cx="2594" cy="2276" r="5" fill="green" stroke="none" /><circle cx="1721" cy="469" r="5" fill="green" stroke="none" /><circle cx="1243" cy="1398" r="5" fill="green" stroke="none" /><circle cx="1492" cy="1623" r="5" fill="green" stroke="none" /><circle cx="2832" cy="2215" r="5" fill="green" stroke="none" /><circle cx="2122" cy="1238" r="5" fill="green" stroke="none" /><circle cx="1660" cy="397" r="5" fill="green" stroke="none" /><circle cx="2580" cy="1623" r="5" fill="green" stroke="none" /><circle cx="1127" cy="904" r="5" fill="green" stroke="none" /><circle cx="1736" cy="86" r="5" fill="green" stroke="none" /><circle cx="2791" cy="821" r="5" fill="green" stroke="none" /><circle cx="2244" cy="2425" r="5" fill="green" stroke="none" /><circle cx="1224" cy="669" r="5" fill="green" stroke="none" /><circle cx="2812" cy="1876" r="5" fill="green" stroke="none" /><circle cx="2397" cy="944" r="5" fill="green" stroke="none" /><circle cx="224" cy="262" r="5" fill="green" stroke="none" /><circle cx="1086" cy="362" r="5" fill="green" stroke="none" /><circle cx="2571" cy="2072" r="5" fill="green" stroke="none" /><circle cx="2713" cy="2163" r="5" fill="green" stroke="none" /><circle cx="2814" cy="1999" r="5" fill="green" stroke="none" /><circle cx="1570" cy="2081" r="5" fill="green" stroke="none" /><circle cx="2864" cy="991" r="5" fill="green" stroke="none" /><circle cx="2712" cy="2040" r="5" fill="green" stroke="none" /><circle cx="135" cy="1163" r="5" fill="green" stroke="none" /><circle cx="1168" cy="348" r="5" fill="green" stroke="none" /><circle cx="1327" cy="2229" r="5" fill="green" stroke="none" /><circle cx="713" cy="2390" r="5" fill="green" stroke="none" /><circle cx="1688" cy="1894" r="5" fill="green" stroke="none" /><circle cx="1043" cy="1379" r="5" fill="green" stroke="none" /><circle cx="1360" cy="1366" r="5" fill="green" stroke="none" /><circle cx="3029" cy="31" r="5" fill="green" stroke="none" /><circle cx="1446" cy="1801" r="5" fill="green" stroke="none" /><circle cx="2152" cy="1590" r="5" fill="green" stroke="none" /><circle cx="2001" cy="1911" r="5" fill="green" stroke="none" /><circle cx="2765" cy="315" r="5" fill="green" stroke="none" /><circle cx="1666" cy="314" r="5" fill="green" stroke="none" /><circle cx="119" cy="1241" r="5" fill="green" stroke="none" /><circle cx="2687" cy="826" r="5" fill="green" stroke="none" /><circle cx="2860" cy="528" r="5" fill="green" stroke="none" /><circle cx="181" cy="1086" r="5" fill="green" stroke="none" /><circle cx="424" cy="847" r="5" fill="green" stroke="none" /><circle cx="791" cy="851" r="5" fill="green" stroke="none" /><circle cx="1205" cy="854" r="5" fill="green" stroke="none" /><circle cx="1700" cy="2309" r="5" fill="green" stroke="none" /><circle cx="2298" cy="1918" r="5" fill="green" stroke="none" /><circle cx="1281" cy="508" r="5" fill="green" stroke="none" /><circle cx="2053" cy="2342" r="5" fill="green" stroke="none" /><circle cx="257" cy="107" r="5" fill="green" stroke="none" /><circle cx="1547" cy="682" r="5" fill="green" stroke="none" /><circle cx="1481" cy="1190" r="5" fill="green" stroke="none" /><circle cx="568" cy="1914" r="5" fill="green" stroke="none" /><circle cx="2950" cy="501" r="5" fill="green" stroke="none" /><circle cx="2410" cy="2148" r="5" fill="green" stroke="none" /><circle cx="1303" cy="884" r="5" fill="green" stroke="none" /><circle cx="697" cy="847" r="5" fill="green" stroke="none" /><circle cx="1908" cy="2147" r="5" fill="green" stroke="none" /><circle cx="1440" cy="1664" r="5" fill="green" stroke="none" /><circle cx="865" cy="1534" r="5" fill="green" stroke="none" /><circle cx="889" cy="531" r="5" fill="green" stroke="none" /><circle cx="2000" cy="214" r="5" fill="green" stroke="none" /><circle cx="364" cy="2104" r="5" fill="green" stroke="none" /><circle cx="2391" cy="356" r="5" fill="green" stroke="none" /><circle cx="2483" cy="61" r="5" fill="green" stroke="none" /><circle cx="1134" cy="1984" r="5" fill="green" stroke="none" /><circle cx="439" cy="23" r="5" fill="green" stroke="none" /><circle cx="2841" cy="1165" r="5" fill="green" stroke="none" /><circle cx="1064" cy="186" r="5" fill="green" stroke="none" /><circle cx="848" cy="1282" r="5" fill="green" stroke="none" /><circle cx="2497" cy="136" r="5" fill="green" stroke="none" /><circle cx="2466" cy="2058" r="5" fill="green" stroke="none" /><circle cx="663" cy="1033" r="5" fill="green" stroke="none" /><circle cx="1212" cy="1762" r="5" fill="green" stroke="none" /><circle cx="2845" cy="1391" r="68" fill="red" stroke="none" /><circle cx="2394" cy="1407" r="55" fill="red" stroke="none" /><circle cx="83" cy="609" r="75" fill="red" stroke="none" /><circle cx="2609" cy="2280" r="9" fill="red" stroke="none" /><circle cx="2787" cy="1234" r="68" fill="red" stroke="none" /><circle cx="704" cy="1367" r="48" fill="red" stroke="none" /><circle cx="2011" cy="118" r="46" fill="red" stroke="none" /><circle cx="1038" cy="1645" r="13" fill="red" stroke="none" /><circle cx="2341" cy="541" r="71" fill="red" stroke="none" /><circle cx="1034" cy="1836" r="19" fill="red" stroke="none" /><circle cx="299" cy="1010" r="67" fill="red" stroke="none" /><circle cx="2217" cy="386" r="43" fill="red" stroke="none" /><circle cx="757" cy="647" r="74" fill="red" stroke="none" /><circle cx="2692" cy="2393" r="13" fill="red" stroke="none" /><circle cx="2779" cy="1418" r="10" fill="red" stroke="none" /><circle cx="1440" cy="616" r="19" fill="red" stroke="none" /><circle cx="1913" cy="2410" r="74" fill="red" stroke="none" /><circle cx="2289" cy="2009" r="26" fill="red" stroke="none" /><circle cx="717" cy="235" r="19" fill="red" stroke="none" /><circle cx="2801" cy="50" r="5" fill="red" stroke="none" /><circle cx="221" cy="2428" r="47" fill="red" stroke="none" /><circle cx="2221" cy="1505" r="56" fill="red" stroke="none" /><circle cx="1531" cy="1614" r="22" fill="red" stroke="none" /><circle cx="687" cy="1860" r="41" fill="red" stroke="none" /><circle cx="2955" cy="1658" r="26" fill="red" stroke="none" /><circle cx="165" cy="350" r="72" fill="red" stroke="none" /><circle cx="1266" cy="2467" r="17" fill="red" stroke="none" /><circle cx="112" cy="511" r="18" fill="red" stroke="none" /><circle cx="2649" cy="127" r="40" fill="red" stroke="none" /><circle cx="344" cy="2397" r="74" fill="red" stroke="none" /><circle cx="250" cy="964" r="32" fill="red" stroke="none" /><circle cx="1937" cy="358" r="63" fill="red" stroke="none" /><circle cx="2905" cy="1381" r="79" fill="red" stroke="none" /><circle cx="2309" cy="2054" r="27" fill="red" stroke="none" /><circle cx="654" cy="2129" r="74" fill="red" stroke="none" /><circle cx="1616" cy="2257" r="38" fill="red" stroke="none" /><circle cx="467" cy="1737" r="58" fill="red" stroke="none" /><circle cx="1289" cy="309" r="79" fill="red" stroke="none" /><circle cx="2121" cy="101" r="83" fill="red" stroke="none" /><circle cx="553" cy="554" r="22" fill="red" stroke="none" /><circle cx="1069" cy="968" r="33" fill="red" stroke="none" /><circle cx="1909" cy="601" r="18" fill="red" stroke="none" /><circle cx="1265" cy="1738" r="15" fill="red" stroke="none" /><circle cx="251" cy="967" r="60" fill="red" stroke="none" /><circle cx="2007" cy="406" r="77" fill="red" stroke="none" /><circle cx="667" cy="2315" r="52" fill="red" stroke="none" /><circle cx="471" cy="609" r="15" fill="red" stroke="none" /><circle cx="2631" cy="542" r="45" fill="red" stroke="none" /><circle cx="2125" cy="1887" r="10" fill="red" stroke="none" /><circle cx="1412" cy="688" r="6" fill="red" stroke="none" /><circle cx="1095" cy="1735" r="32" fill="red" stroke="none" /><circle cx="2470" cy="1312" r="25" fill="red" stroke="none" /><circle cx="980" cy="964" r="39" fill="red" stroke="none" /><circle cx="748" cy="1365" r="79" fill="red" stroke="none" /><circle cx="2521" cy="1039" r="29" fill="red" stroke="none" /><circle cx="2323" cy="1702" r="35" fill="red" stroke="none" /><circle cx="929" cy="125" r="78" fill="red" stroke="none" /><circle cx="478" cy="1234" r="47" fill="red" stroke="none" /><circle cx="63" cy="893" r="36" fill="red" stroke="none" /><circle cx="2959" cy="1086" r="62" fill="red" stroke="none" /><circle cx="2964" cy="1126" r="15" fill="red" stroke="none" /><circle cx="1832" cy="1299" r="74" fill="red" stroke="none" /><circle cx="2449" cy="1184" r="6" fill="red" stroke="none" /><circle cx="829" cy="274" r="67" fill="red" stroke="none" /><circle cx="1035" cy="438" r="39" fill="red" stroke="none" /><circle cx="1334" cy="2354" r="65" fill="red" stroke="none" /><circle cx="2659" cy="1212" r="56" fill="red" stroke="none" /><circle cx="923" cy="2194" r="57" fill="red" stroke="none" /><circle cx="2827" cy="2399" r="48" fill="red" stroke="none" /><circle cx="708" cy="1862" r="22" fill="red" stroke="none" /><circle cx="1894" cy="1962" r="63" fill="red" stroke="none" /><circle cx="1247" cy="83" r="79" fill="red" stroke="none" /><circle cx="1013" cy="2364" r="72" fill="red" stroke="none" /><circle cx="2434" cy="107" r="14" fill="red" stroke="none" /><circle cx="1599" cy="801" r="32" fill="red" stroke="none" /><circle cx="574" cy="1222" r="32" fill="red" stroke="none" /><circle cx="604" cy="2270" r="65" fill="red" stroke="none" /><circle cx="1237" cy="1216" r="37" fill="red" stroke="none" /><circle cx="1588" cy="168" r="77" fill="red" stroke="none" /><circle cx="140" cy="2353" r="68" fill="red" stroke="none" /><circle cx="627" cy="2030" r="21" fill="red" stroke="none" /><circle cx="2064" cy="626" r="20" fill="red" stroke="none" /><circle cx="1222" cy="1991" r="16" fill="red" stroke="none" /><circle cx="471" cy="447" r="12" fill="red" stroke="none" /><circle cx="2802" cy="1166" r="5" fill="red" stroke="none" /><circle cx="2096" cy="184" r="68" fill="red" stroke="none" /><circle cx="179" cy="1828" r="21" fill="red" stroke="none" /><circle cx="588" cy="787" r="66" fill="red" stroke="none" /><circle cx="920" cy="2159" r="11" fill="red" stroke="none" /><circle cx="862" cy="1617" r="12" fill="red" stroke="none" /><circle cx="1468" cy="2116" r="67" fill="red" stroke="none" /><circle cx="2238" cy="494" r="65" fill="red" stroke="none" /><circle cx="1432" cy="2435" r="51" fill="red" stroke="none" /><circle cx="2021" cy="1326" r="68" fill="red" stroke="none" /><circle cx="2706" cy="1170" r="35" fill="red" stroke="none" /><circle cx="1450" cy="1061" r="48" fill="red" stroke="none" /><circle cx="2255" cy="1235" r="8" fill="red" stroke="none" /><circle cx="272" cy="1105" r="10" fill="red" stroke="none" /><circle cx="2655" cy="1424" r="11" fill="red" stroke="none" /><circle cx="2442" cy="1894" r="37" fill="red" stroke="none" /><circle cx="605" cy="482" r="79" fill="red" stroke="none" /><circle cx="229" cy="437" r="49" fill="red" stroke="none" /><circle cx="2886" cy="1503" r="76" fill="red" stroke="none" /><circle cx="2255.20615223725" cy="925.7586802835015" r="5" fill="blue" stroke="none" /><circle cx="1931.50715742434" cy="657" r="5" fill="blue" stroke="none" /><circle cx="2300.9128461976943" cy="923.9655846431915" r="5" fill="blue" stroke="none" /><circle cx="2672" cy="812.6897891951232" r="5" fill="blue" stroke="none" /><circle cx="1994.4527506690679" cy="925.9522171143797" r="5" fill="blue" stroke="none" /><circle cx="2230.6552387841266" cy="926" r="5" fill="blue" stroke="none" /><circle cx="2012.9151261385798" cy="657" r="5" fill="blue" stroke="none" /><circle cx="2087.5775441218693" cy="926" r="5" fill="blue" stroke="none" /><circle cx="2137.5879446742465" cy="926" r="5" fill="blue" stroke="none" /><circle cx="1738.7482514771418" cy="926" r="5" fill="blue" stroke="none" /><circle cx="1905.766641311508" cy="925.5167580129382" r="5" fill="blue" stroke="none" /><circle cx="2510.834569865352" cy="926" r="5" fill="blue" stroke="none" /><circle cx="2150.0682815460277" cy="921.6771559835572" r="5" fill="blue" stroke="none" /><circle cx="1821.4090071254898" cy="918.0356829426194" r="5" fill="blue" stroke="none" /><circle cx="1733.429453865296" cy="659.1518205781831" r="5" fill="blue" stroke="none" /><circle cx="1692" cy="731.5351499732969" r="5" fill="blue" stroke="none" /><circle cx="1700.7267202788323" cy="756.4733210640404" r="5" fill="blue" stroke="none" /><circle cx="1917.7575290157918" cy="925.7548958474663" r="5" fill="blue" stroke="none" /><circle cx="1704.934716033734" cy="899.09731203517" r="5" fill="blue" stroke="none" /><circle cx="1859.1530520201375" cy="658.6021291119066" r="5" fill="blue" stroke="none" /><circle cx="2414.572218747143" cy="913.5469802903574" r="5" fill="blue" stroke="none" /><circle cx="2198.5800422593716" cy="926" r="5" fill="blue" stroke="none" /><circle cx="2666.9567373202362" cy="793.9584143039992" r="5" fill="blue" stroke="none" /><circle cx="1699.9830172405814" cy="679.0131703277059" r="5" fill="blue" stroke="none" /><circle cx="2543.930632915258" cy="926" r="5" fill="blue" stroke="none" /><circle cx="2669.9533342410127" cy="681.4430451071235" r="5" fill="blue" stroke="none" /><circle cx="2405.8955350362826" cy="918.5764438312299" r="5" fill="blue" stroke="none" /><circle cx="1879.9896730068294" cy="926" r="5" fill="blue" stroke="none" /><circle cx="2040.711640833549" cy="924.1138914897247" r="5" fill="blue" stroke="none" /><circle cx="1692" cy="751.5446919676233" r="5" fill="blue" stroke="none" /><circle cx="1966.9661687711728" cy="926" r="5" fill="blue" stroke="none" /><circle cx="2668.825300373566" cy="894.5487552231614" r="5" fill="blue" stroke="none" /><circle cx="2634.0929756241203" cy="925.600577431547" r="5" fill="blue" stroke="none" /><circle cx="1694.0463124575479" cy="855.5258097719623" r="5" fill="blue" stroke="none" /><circle cx="2671.8689785254815" cy="724.2495015249278" r="5" fill="blue" stroke="none" /><circle cx="2397.9956928694137" cy="926" r="5" fill="blue" stroke="none" /><circle cx="1946.3769319067462" cy="659.7535918020862" r="5" fill="blue" stroke="none" /><circle cx="1707.433673637834" cy="657" r="5" fill="blue" stroke="none" /><circle cx="2460.7461646364027" cy="926" r="5" fill="blue" stroke="none" /><circle cx="1787.349300778134" cy="657.1387934931877" r="5" fill="blue" stroke="none" /><circle cx="2005.4514433821691" cy="925.41800935479" r="5" fill="blue" stroke="none" /><circle cx="2355.586973278063" cy="926" r="5" fill="blue" stroke="none" /><circle cx="1765.092072345355" cy="926" r="5" fill="blue" stroke="none" /><circle cx="2326.1883705254613" cy="922.1321893201962" r="5" fill="blue" stroke="none" /><circle cx="1702.6206055409232" cy="719.1259525564317" r="5" fill="blue" stroke="none" /><circle cx="1981.5706535842207" cy="657" r="5" fill="blue" stroke="none" /><circle cx="2107.5749642736596" cy="925.6853365767058" r="5" fill="blue" stroke="none" /><circle cx="1692.3029128977987" cy="811.6738603254739" r="5" fill="blue" stroke="none" /><circle cx="2672" cy="926" r="5" fill="blue" stroke="none" /><circle cx="2064.4765116054573" cy="657" r="5" fill="blue" stroke="none" /><circle cx="1724.5401315019567" cy="917.6494824972435" r="5" fill="blue" stroke="none" /><circle cx="1692" cy="791.5651482386347" r="5" fill="blue" stroke="none" /><circle cx="2338.5997109573623" cy="926" r="5" fill="blue" stroke="none" /><circle cx="2480.828699249622" cy="926" r="5" fill="blue" stroke="none" /><circle cx="2174.563970665571" cy="914.1198097081476" r="5" fill="blue" stroke="none" /><circle cx="1761.8648425735869" cy="657" r="5" fill="blue" stroke="none" /><circle cx="2654.597789330201" cy="925.8214026056655" r="5" fill="blue" stroke="none" /><circle cx="2672" cy="867.374507220462" r="5" fill="blue" stroke="none" /><circle cx="2672" cy="755.3023964799249" r="5" fill="blue" stroke="none" /><circle cx="1815.3569729541887" cy="926" r="5" fill="blue" stroke="none" /><circle cx="1705.8633192235495" cy="925.6048231772379" r="5" fill="blue" stroke="none" /><circle cx="1692" cy="697.1056501433859" r="5" fill="blue" stroke="none" /><circle cx="1828.9208068014125" cy="926" r="5" fill="blue" stroke="none" /><circle cx="2405.799132259358" cy="666.7852270440394" r="5" fill="blue" stroke="none" /><circle cx="2522.9638504112513" cy="657.530339448138" r="5" fill="blue" stroke="none" /><circle cx="2026.9801562388557" cy="926" r="5" fill="blue" stroke="none" /><circle cx="2208.79962555037" cy="925.8173932272052" r="5" fill="blue" stroke="none" /><circle cx="2380.372172005604" cy="916.3381985204892" r="5" fill="blue" stroke="none" /><circle cx="2045.015821413307" cy="662.4779600763025" r="5" fill="blue" stroke="none" /><circle cx="2032.9373048197328" cy="917.8066719440881" r="5" fill="blue" stroke="none" /><circle cx="2564.1337791545093" cy="668.4211358469386" r="5" fill="blue" stroke="none" /><circle cx="2573.533394381405" cy="926" r="5" fill="blue" stroke="none" /><circle cx="1845.4725705798414" cy="916.3917188610544" r="5" fill="blue" stroke="none" /><circle cx="1992.9114508179264" cy="657" r="5" fill="blue" stroke="none" /><circle cx="1785.328782772545" cy="926" r="5" fill="blue" stroke="none" /><circle cx="1775.3251092767916" cy="925.6407262065854" r="5" fill="blue" stroke="none" /><circle cx="2413.1599912465736" cy="926" r="5" fill="blue" stroke="none" /><circle cx="2671.8806097267943" cy="842.7050165949834" r="5" fill="blue" stroke="none" /><circle cx="2178.9476260330403" cy="923.1091183285441" r="5" fill="blue" stroke="none" /><circle cx="2672" cy="832.6913958814905" r="5" fill="blue" stroke="none" /><circle cx="2672" cy="711.7750657818995" r="5" fill="blue" stroke="none" /><circle cx="2188.579295111444" cy="926" r="5" fill="blue" stroke="none" /><circle cx="1692" cy="685.5431159537734" r="5" fill="blue" stroke="none" /><circle cx="2367.7237143696675" cy="925.8230254628832" r="5" fill="blue" stroke="none" /><circle cx="2672" cy="775.3119028959366" r="5" fill="blue" stroke="none" /><circle cx="2672" cy="785.3212888376813" r="5" fill="blue" stroke="none" /><circle cx="2672" cy="669.2996831633168" r="5" fill="blue" stroke="none" /><circle cx="1692.5345571182795" cy="821.6803358189673" r="5" fill="blue" stroke="none" /><circle cx="2470.8266755279124" cy="926" r="5" fill="blue" stroke="none" /><circle cx="2668.534784171767" cy="908.6498265920172" r="5" fill="blue" stroke="none" /><circle cx="2387.7345817714586" cy="926" r="5" fill="blue" stroke="none" /><circle cx="2162.4894893453957" cy="914.6168732038891" r="5" fill="blue" stroke="none" /><circle cx="2186.628739623715" cy="916.1819830623174" r="5" fill="blue" stroke="none" /><circle cx="2661.9946138388464" cy="802.6920267482062" r="5" fill="blue" stroke="none" /><circle cx="1692" cy="771.5488158967398" r="5" fill="blue" stroke="none" /><circle cx="2097.578881749562" cy="926" r="5" fill="blue" stroke="none" /><circle cx="1692" cy="926" r="5" fill="blue" stroke="none" /><circle cx="2141.268042980362" cy="916.6818151648731" r="5" fill="blue" stroke="none" /><circle cx="2062.9981950518763" cy="926" r="5" fill="blue" stroke="none" /><circle cx="2047.8412824328625" cy="916.8350149760824" r="5" fill="blue" stroke="none" /><circle cx="2059.8513868008313" cy="916.5041746731981" r="5" fill="blue" stroke="none" /><circle cx="1962.9473997778787" cy="657" r="5" fill="blue" stroke="none" /><circle cx="2015.6648542580813" cy="925.8816810308215" r="5" fill="blue" stroke="none" /><circle cx="1700.3978722480117" cy="691.1270728564789" r="5" fill="blue" stroke="none" /><circle cx="2423.160903532998" cy="926" r="5" fill="blue" stroke="none" /><circle cx="2002.9145229117003" cy="657" r="5" fill="blue" stroke="none" /><circle cx="1692" cy="801.6733245693617" r="5" fill="blue" stroke="none" /><circle cx="2168.748735134869" cy="922.4401328031611" r="5" fill="blue" stroke="none" /><circle cx="2029.7841639275441" cy="664.3473631560737" r="5" fill="blue" stroke="none" /><circle cx="1749.0080735444296" cy="658.2514173993841" r="5" fill="blue" stroke="none" /><circle cx="2377.7335412207176" cy="926" r="5" fill="blue" stroke="none" /><circle cx="2127.577066956222" cy="926" r="5" fill="blue" stroke="none" /><circle cx="2490.8288178429543" cy="926" r="5" fill="blue" stroke="none" /><circle cx="2053.5211192993797" cy="670.4166687466536" r="5" fill="blue" stroke="none" /><circle cx="2077.5637757292598" cy="925.9650832344337" r="5" fill="blue" stroke="none" /><circle cx="1972.3739588384167" cy="660.9428875289418" r="5" fill="blue" stroke="none" /><circle cx="2654.921345999709" cy="864.5314962624336" r="5" fill="blue" stroke="none" /><circle cx="1693.0330094170833" cy="741.4998331814927" r="5" fill="blue" stroke="none" /><circle cx="2669.742566440846" cy="657.6159067495994" r="5" fill="blue" stroke="none" /><circle cx="2672" cy="822.6911229145694" r="5" fill="blue" stroke="none" /><circle cx="1939.3622213175443" cy="925.8529086946166" r="5" fill="blue" stroke="none" /><circle cx="1692" cy="719.6042460437611" r="5" fill="blue" stroke="none" /><circle cx="2268.52761022825" cy="925.848170647828" r="5" fill="blue" stroke="none" /><circle cx="1795.2824445420135" cy="924.9842649872849" r="5" fill="blue" stroke="none" /><circle cx="1692.2040808531929" cy="909.9268620698163" r="5" fill="blue" stroke="none" /><circle cx="2569.158739879952" cy="658.6067159432439" r="5" fill="blue" stroke="none" /><circle cx="2611.910278240088" cy="925.3288623493463" r="5" fill="blue" stroke="none" /><circle cx="1715.1344277465846" cy="669.6659371569626" r="5" fill="blue" stroke="none" /><circle cx="2022.9169187444254" cy="657" r="5" fill="blue" stroke="none" /><circle cx="2390.262815278783" cy="914.6733521537801" r="5" fill="blue" stroke="none" /><circle cx="2587.7766913023083" cy="925.7990420537067" r="5" fill="blue" stroke="none" /><circle cx="1692" cy="658.3716192416289" r="5" fill="blue" stroke="none" /><circle cx="1895.5938333501372" cy="926" r="5" fill="blue" stroke="none" /><circle cx="1927.770828895739" cy="926" r="5" fill="blue" stroke="none" /><circle cx="2664.6406252067127" cy="876.448415174264" r="5" fill="blue" stroke="none" /><circle cx="2500.83044099448" cy="926" r="5" fill="blue" stroke="none" /><circle cx="2290.735209314775" cy="926" r="5" fill="blue" stroke="none" /><circle cx="2672" cy="802.6894857026653" r="5" fill="blue" stroke="none" /><circle cx="2117.5745911799772" cy="926" r="5" fill="blue" stroke="none" /><circle cx="2672" cy="852.7045674999065" r="5" fill="blue" stroke="none" /><circle cx="2218.805221100012" cy="925.8230421851974" r="5" fill="blue" stroke="none" /><circle cx="1692" cy="761.5482171981569" r="5" fill="blue" stroke="none" /><circle cx="1957.0465750318403" cy="924.5449919127236" r="5" fill="blue" stroke="none" /><circle cx="2670.8585700524927" cy="884.7526344588557" r="5" fill="blue" stroke="none" /><circle cx="2314.251866430375" cy="926" r="5" fill="blue" stroke="none" /><circle cx="1798.475614449559" cy="657" r="5" fill="blue" stroke="none" /><circle cx="2036.6205652521696" cy="657" r="5" fill="blue" stroke="none" /><circle cx="1838.6635217033293" cy="923.7288979284372" r="5" fill="blue" stroke="none" /><circle cx="2017.814790630968" cy="912.068984623332" r="5" fill="blue" stroke="none" /><circle cx="2672" cy="745.301979449707" r="5" fill="blue" stroke="none" /><circle cx="2054.9291700963604" cy="660.280580677399" r="5" fill="blue" stroke="none" /><circle cx="1984.4908654552717" cy="925.0516095471257" r="5" fill="blue" stroke="none" /><circle cx="2051.894133887517" cy="926" r="5" fill="blue" stroke="none" /><circle cx="2524.2099357587476" cy="926" r="5" fill="blue" stroke="none" /><circle cx="1859.846301379158" cy="926" r="5" fill="blue" stroke="none" /><circle cx="1692.0633379861395" cy="841.6786351121646" r="5" fill="blue" stroke="none" /><circle cx="1692" cy="707.1202307041344" r="5" fill="blue" stroke="none" /><circle cx="2672" cy="696.5358327528634" r="5" fill="blue" stroke="none" /><circle cx="1692" cy="781.5593562565391" r="5" fill="blue" stroke="none" /><circle cx="1755.091762805733" cy="926" r="5" fill="blue" stroke="none" /><circle cx="2663.314577011888" cy="817.67077454595" r="5" fill="blue" stroke="none" /><circle cx="1848.8790768166248" cy="926" r="5" fill="blue" stroke="none" /><circle cx="1692.1107713489587" cy="669.5818802870945" r="5" fill="blue" stroke="none" /><circle cx="2672" cy="735.3009610809804" r="5" fill="blue" stroke="none" /><circle cx="2672" cy="765.3086288392442" r="5" fill="blue" stroke="none" /><circle cx="2444.5195917596566" cy="925.3768871377345" r="5" fill="blue" stroke="none" /><circle cx="1869.9826357263662" cy="925.9113201855009" r="5" fill="blue" stroke="none" /><circle cx="2245.2061670238636" cy="924.8069813397713" r="5" fill="blue" stroke="none" /><circle cx="2109.7264128392308" cy="657" r="5" fill="blue" stroke="none" /><circle cx="1805.3522404181383" cy="926" r="5" fill="blue" stroke="none" /><circle cx="1692.6474301010944" cy="831.6934751143692" r="5" fill="blue" stroke="none" /><circle cx="2159.1304114504483" cy="926" r="5" fill="blue" stroke="none" /></svg>