<svg viewBox="0 0 1300 6058" xmlns="http://www.w3.org/2000/svg"><rect x="0" y="0" width="1300" height="6058" fill="lightyellow" stroke="none "/><rect x="70" y="2806" width="307" height="494" fill="white" stroke="black "/><circle cx="1020" cy="2226" r="5" fill="green" stroke="none" /><circle cx="605" cy="2143" r="5" fill="green" stroke="none" /><circle cx="1025" cy="2792" r="5" fill="green" stroke="none" /><circle cx="56" cy="2801" r="5" fill="green" stroke="none" /><circle cx="810" cy="3819" r="5" fill="green" stroke="none" /><circle cx="310" cy="1225" r="5" fill="green" stroke="none" /><circle cx="119" cy="1479" r="5" fill="green" stroke="none" /><circle cx="947" cy="5728" r="5" fill="green" stroke="none" /><circle cx="546" cy="1222" r="5" fill="green" stroke="none" /><circle cx="308" cy="1629" r="5" fill="green" stroke="none" /><circle cx="1264" cy="2378" r="5" fill="green" stroke="none" /><circle cx="845" cy="2218" r="5" fill="green" stroke="none" /><circle cx="153" cy="2721" r="5" fill="green" stroke="none" /><circle cx="420" cy="1259" r="5" fill="green" stroke="none" /><circle cx="1046" cy="1201" r="5" fill="green" stroke="none" /><circle cx="559" cy="1220" r="5" fill="green" stroke="none" /><circle cx="1265" cy="480" r="5" fill="green" stroke="none" /><circle cx="681" cy="9" r="5" fill="green" stroke="none" /><circle cx="1174" cy="3747" r="5" fill="green" stroke="none" /><circle cx="171" cy="2176" r="5" fill="green" stroke="none" /><circle cx="433" cy="3496" r="5" fill="green" stroke="none" /><circle cx="1100" cy="3060" r="5" fill="green" stroke="none" /><circle cx="1121" cy="650" r="5" fill="green" stroke="none" /><circle cx="908" cy="1359" r="5" fill="green" stroke="none" /><circle cx="552" cy="1661" r="5" fill="green" stroke="none" /><circle cx="898" cy="5710" r="5" fill="green" stroke="none" /><circle cx="55" cy="1157" r="5" fill="green" stroke="none" /><circle cx="987" cy="3963" r="5" fill="green" stroke="none" /><circle cx="923" cy="2297" r="5" fill="green" stroke="none" /><circle cx="1005" cy="683" r="5" fill="green" stroke="none" /><circle cx="493" cy="629" r="5" fill="green" stroke="none" /><circle cx="1286" cy="791" r="5" fill="green" stroke="none" /><circle cx="920" cy="951" r="5" fill="green" stroke="none" /><circle cx="519" cy="1786" r="5" fill="green" stroke="none" /><circle cx="1173" cy="4204" r="5" fill="green" stroke="none" /><circle cx="580" cy="463" r="5" fill="green" stroke="none" /><circle cx="1061" cy="4025" r="5" fill="green" stroke="none" /><circle cx="888" cy="2754" r="5" fill="green" stroke="none" /><circle cx="1253" cy="2513" r="5" fill="green" stroke="none" /><circle cx="1221" cy="2649" r="5" fill="green" stroke="none" /><circle cx="331" cy="322" r="5" fill="green" stroke="none" /><circle cx="541" cy="1495" r="5" fill="green" stroke="none" /><circle cx="1013" cy="2636" r="5" fill="green" stroke="none" /><circle cx="568" cy="2195" r="5" fill="green" stroke="none" /><circle cx="141" cy="3575" r="5" fill="green" stroke="none" /><circle cx="236" cy="1262" r="5" fill="green" stroke="none" /><circle cx="837" cy="5717" r="5" fill="green" stroke="none" /><circle cx="522" cy="2591" r="5" fill="green" stroke="none" /><circle cx="317" cy="3907" r="5" fill="green" stroke="none" /><circle cx="1048" cy="6016" r="5" fill="green" stroke="none" /><circle cx="997" cy="3671" r="5" fill="green" stroke="none" /><circle cx="594" cy="1765" r="5" fill="green" stroke="none" /><circle cx="470" cy="2341" r="5" fill="green" stroke="none" /><circle cx="249" cy="2610" r="5" fill="green" stroke="none" /><circle cx="1044" cy="3306" r="5" fill="green" stroke="none" /><circle cx="626" cy="664" r="5" fill="green" stroke="none" /><circle cx="984" cy="2078" r="5" fill="green" stroke="none" /><circle cx="489" cy="2261" r="5" fill="green" stroke="none" /><circle cx="979" cy="4093" r="5" fill="green" stroke="none" /><circle cx="26" cy="2963" r="5" fill="green" stroke="none" /><circle cx="480" cy="2503" r="5" fill="green" stroke="none" /><circle cx="586" cy="1373" r="5" fill="green" stroke="none" /><circle cx="385" cy="2422" r="5" fill="green" stroke="none" /><circle cx="613" cy="128" r="5" fill="green" stroke="none" /><circle cx="326" cy="343" r="5" fill="green" stroke="none" /><circle cx="865" cy="1468" r="5" fill="green" stroke="none" /><circle cx="676" cy="4884" r="5" fill="green" stroke="none" /><circle cx="846" cy="2269" r="5" fill="green" stroke="none" /><circle cx="943" cy="2431" r="5" fill="green" stroke="none" /><circle cx="393" cy="1495" r="5" fill="green" stroke="none" /><circle cx="196" cy="2789" r="5" fill="green" stroke="none" /><circle cx="942" cy="1460" r="5" fill="green" stroke="none" /><circle cx="581" cy="3199" r="5" fill="green" stroke="none" /><circle cx="282" cy="1702" r="5" fill="green" stroke="none" /><circle cx="78" cy="2360" r="5" fill="green" stroke="none" /><circle cx="1006" cy="4207" r="5" fill="green" stroke="none" /><circle cx="395" cy="2567" r="5" fill="green" stroke="none" /><circle cx="121" cy="2295" r="5" fill="green" stroke="none" /><circle cx="61" cy="1267" r="5" fill="green" stroke="none" /><circle cx="1074" cy="890" r="5" fill="green" stroke="none" /><circle cx="886" cy="1882" r="5" fill="green" stroke="none" /><circle cx="12" cy="2916" r="5" fill="green" stroke="none" /><circle cx="685" cy="5115" r="5" fill="green" stroke="none" /><circle cx="332" cy="2730" r="5" fill="green" stroke="none" /><circle cx="518" cy="1398" r="5" fill="green" stroke="none" /><circle cx="190" cy="3542" r="5" fill="green" stroke="none" /><circle cx="61" cy="3639" r="5" fill="green" stroke="none" /><circle cx="348" cy="4047" r="5" fill="green" stroke="none" /><circle cx="995" cy="761" r="5" fill="green" stroke="none" /><circle cx="815" cy="3081" r="5" fill="green" stroke="none" /><circle cx="611" cy="3098" r="5" fill="green" stroke="none" /><circle cx="36" cy="969" r="5" fill="green" stroke="none" /><circle cx="1121" cy="4037" r="5" fill="green" stroke="none" /><circle cx="718" cy="4930" r="5" fill="green" stroke="none" /><circle cx="1109" cy="2478" r="5" fill="green" stroke="none" /><circle cx="846" cy="3205" r="5" fill="green" stroke="none" /><circle cx="327" cy="2268" r="5" fill="green" stroke="none" /><circle cx="299" cy="3321" r="5" fill="green" stroke="none" /><circle cx="967" cy="2044" r="5" fill="green" stroke="none" /><circle cx="55" cy="2338" r="5" fill="green" stroke="none" /><circle cx="396" cy="1697" r="5" fill="green" stroke="none" /><circle cx="455" cy="2237" r="5" fill="green" stroke="none" /><circle cx="1245" cy="1740" r="5" fill="green" stroke="none" /><circle cx="79" cy="923" r="5" fill="green" stroke="none" /><circle cx="980" cy="5750" r="5" fill="green" stroke="none" /><circle cx="930" cy="2639" r="5" fill="green" stroke="none" /><circle cx="496" cy="1828" r="5" fill="green" stroke="none" /><circle cx="1278" cy="4421" r="5" fill="green" stroke="none" /><circle cx="1297" cy="2869" r="5" fill="green" stroke="none" /><circle cx="526" cy="1632" r="5" fill="green" stroke="none" /><circle cx="659" cy="3240" r="5" fill="green" stroke="none" /><circle cx="982" cy="3488" r="5" fill="green" stroke="none" /><circle cx="392" cy="3417" r="5" fill="green" stroke="none" /><circle cx="343" cy="2733" r="5" fill="green" stroke="none" /><circle cx="316" cy="2781" r="5" fill="green" stroke="none" /><circle cx="225" cy="2699" r="5" fill="green" stroke="none" /><circle cx="272" cy="1408" r="5" fill="green" stroke="none" /><circle cx="769" cy="3537" r="5" fill="green" stroke="none" /><circle cx="755" cy="2751" r="5" fill="green" stroke="none" /><circle cx="1069" cy="1298" r="5" fill="green" stroke="none" /><circle cx="809" cy="3664" r="5" fill="green" stroke="none" /><circle cx="281" cy="3461" r="5" fill="green" stroke="none" /><circle cx="45" cy="464" r="5" fill="green" stroke="none" /><circle cx="286" cy="3665" r="5" fill="green" stroke="none" /><circle cx="1233" cy="3864" r="5" fill="green" stroke="none" /><circle cx="77" cy="3934" r="5" fill="green" stroke="none" /><circle cx="974" cy="4036" r="5" fill="green" stroke="none" /><circle cx="920" cy="3913" r="5" fill="green" stroke="none" /><circle cx="825" cy="4082" r="5" fill="green" stroke="none" /><circle cx="778" cy="2367" r="5" fill="green" stroke="none" /><circle cx="562" cy="1409" r="5" fill="green" stroke="none" /><circle cx="1131" cy="3157" r="5" fill="green" stroke="none" /><circle cx="889" cy="2373" r="5" fill="green" stroke="none" /><circle cx="1101" cy="2788" r="5" fill="green" stroke="none" /><circle cx="20" cy="1468" r="5" fill="green" stroke="none" /><circle cx="145" cy="2035" r="5" fill="green" stroke="none" /><circle cx="350" cy="1903" r="5" fill="green" stroke="none" /><circle cx="1077" cy="4146" r="5" fill="green" stroke="none" /><circle cx="1058" cy="745" r="5" fill="green" stroke="none" /><circle cx="236" cy="1144" r="5" fill="green" stroke="none" /><circle cx="207" cy="3640" r="5" fill="green" stroke="none" /><circle cx="420" cy="778" r="5" fill="green" stroke="none" /><circle cx="432" cy="824" r="5" fill="green" stroke="none" /><circle cx="656" cy="2854" r="5" fill="green" stroke="none" /><circle cx="13" cy="2642" r="5" fill="green" stroke="none" /><circle cx="660" cy="3245" r="5" fill="green" stroke="none" /><circle cx="602" cy="4681" r="5" fill="green" stroke="none" /><circle cx="318" cy="1804" r="5" fill="green" stroke="none" /><circle cx="803" cy="5119" r="5" fill="green" stroke="none" /><circle cx="109" cy="2134" r="5" fill="green" stroke="none" /><circle cx="799" cy="3136" r="5" fill="green" stroke="none" /><circle cx="187" cy="2748" r="5" fill="green" stroke="none" /><circle cx="215" cy="1364" r="5" fill="green" stroke="none" /><circle cx="446" cy="4703" r="5" fill="green" stroke="none" /><circle cx="1116" cy="2654" r="5" fill="green" stroke="none" /><circle cx="1283" cy="3203" r="5" fill="green" stroke="none" /><circle cx="1028" cy="6003" r="5" fill="green" stroke="none" /><circle cx="973" cy="2035" r="5" fill="green" stroke="none" /><circle cx="1154" cy="2404" r="5" fill="green" stroke="none" /><circle cx="567" cy="2817" r="5" fill="green" stroke="none" /><circle cx="43" cy="1799" r="5" fill="green" stroke="none" /><circle cx="634" cy="4784" r="5" fill="green" stroke="none" /><circle cx="79" cy="3524" r="5" fill="green" stroke="none" /><circle cx="591" cy="1700" r="5" fill="green" stroke="none" /><circle cx="621" cy="1520" r="5" fill="green" stroke="none" /><circle cx="993" cy="1313" r="5" fill="green" stroke="none" /><circle cx="0" cy="3265" r="5" fill="green" stroke="none" /><circle cx="386" cy="2264" r="5" fill="green" stroke="none" /><circle cx="671" cy="2240" r="5" fill="green" stroke="none" /><circle cx="723" cy="3182" r="5" fill="green" stroke="none" /><circle cx="929" cy="2344" r="5" fill="green" stroke="none" /><circle cx="614" cy="3419" r="5" fill="green" stroke="none" /><circle cx="1161" cy="3031" r="5" fill="green" stroke="none" /><circle cx="1296" cy="4391" r="5" fill="green" stroke="none" /><circle cx="718" cy="5298" r="5" fill="green" stroke="none" /><circle cx="368" cy="2485" r="5" fill="green" stroke="none" /><circle cx="953" cy="5877" r="5" fill="green" stroke="none" /><circle cx="1279" cy="4637" r="5" fill="green" stroke="none" /><circle cx="468" cy="4780" r="5" fill="green" stroke="none" /><circle cx="880" cy="4189" r="5" fill="green" stroke="none" /><circle cx="895" cy="5590" r="5" fill="green" stroke="none" /><circle cx="81" cy="3317" r="5" fill="green" stroke="none" /><circle cx="856" cy="2294" r="5" fill="green" stroke="none" /><circle cx="591" cy="3390" r="5" fill="green" stroke="none" /><circle cx="1083" cy="2407" r="5" fill="green" stroke="none" /><circle cx="244" cy="1409" r="5" fill="green" stroke="none" /><circle cx="372" cy="2716" r="5" fill="green" stroke="none" /><circle cx="351" cy="380" r="5" fill="green" stroke="none" /><circle cx="1133" cy="697" r="5" fill="green" stroke="none" /><circle cx="786" cy="3722" r="5" fill="green" stroke="none" /><circle cx="542" cy="2086" r="5" fill="green" stroke="none" /><circle cx="588" cy="103" r="5" fill="green" stroke="none" /><circle cx="416" cy="2046" r="5" fill="green" stroke="none" /><circle cx="257" cy="1547" r="5" fill="green" stroke="none" /><circle cx="384" cy="2133" r="5" fill="green" stroke="none" /><circle cx="1224" cy="486" r="5" fill="green" stroke="none" /><circle cx="111" cy="1475" r="5" fill="green" stroke="none" /><circle cx="1195" cy="3534" r="5" fill="green" stroke="none" /><circle cx="1048" cy="2479" r="5" fill="green" stroke="none" /><circle cx="1061" cy="2612" r="5" fill="green" stroke="none" /><circle cx="100" cy="1124" r="5" fill="green" stroke="none" /><circle cx="1259" cy="3135" r="5" fill="green" stroke="none" /><circle cx="555" cy="2650" r="5" fill="green" stroke="none" /><circle cx="845" cy="2032" r="5" fill="green" stroke="none" /><circle cx="1046" cy="2753" r="5" fill="green" stroke="none" /><circle cx="896" cy="3570" r="5" fill="green" stroke="none" /><circle cx="59" cy="493" r="5" fill="green" stroke="none" /><circle cx="357" cy="333" r="5" fill="green" stroke="none" /><circle cx="412" cy="3655" r="5" fill="green" stroke="none" /><circle cx="988" cy="4310" r="5" fill="green" stroke="none" /><circle cx="1127" cy="3565" r="5" fill="green" stroke="none" /><circle cx="965" cy="6055" r="5" fill="green" stroke="none" /><circle cx="479" cy="659" r="5" fill="green" stroke="none" /><circle cx="379" cy="2226" r="5" fill="green" stroke="none" /><circle cx="387" cy="3043" r="5" fill="green" stroke="none" /><circle cx="775" cy="3690" r="5" fill="green" stroke="none" /><circle cx="665" cy="2716" r="5" fill="green" stroke="none" /><circle cx="312" cy="2105" r="5" fill="green" stroke="none" /><circle cx="1213" cy="2305" r="5" fill="green" stroke="none" /><circle cx="327" cy="2294" r="5" fill="green" stroke="none" /><circle cx="855" cy="3727" r="5" fill="green" stroke="none" /><circle cx="366" cy="2795" r="5" fill="green" stroke="none" /><circle cx="87" cy="613" r="5" fill="green" stroke="none" /><circle cx="905" cy="3725" r="5" fill="green" stroke="none" /><circle cx="98" cy="1697" r="5" fill="green" stroke="none" /><circle cx="375" cy="2053" r="5" fill="green" stroke="none" /><circle cx="713" cy="5264" r="5" fill="green" stroke="none" /><circle cx="321" cy="424" r="5" fill="green" stroke="none" /><circle cx="482" cy="2961" r="5" fill="green" stroke="none" /><circle cx="680" cy="692" r="5" fill="green" stroke="none" /><circle cx="54" cy="1551" r="5" fill="green" stroke="none" /><circle cx="1279" cy="4587" r="5" fill="green" stroke="none" /><circle cx="1221" cy="3809" r="5" fill="green" stroke="none" /><circle cx="246" cy="616" r="5" fill="green" stroke="none" /><circle cx="724" cy="1431" r="5" fill="green" stroke="none" /><circle cx="197" cy="1220" r="5" fill="green" stroke="none" /><circle cx="703" cy="3420" r="5" fill="green" stroke="none" /><circle cx="948" cy="916" r="5" fill="green" stroke="none" /><circle cx="1093" cy="2883" r="5" fill="green" stroke="none" /><circle cx="249" cy="1723" r="5" fill="green" stroke="none" /><circle cx="864" cy="1181" r="5" fill="green" stroke="none" /><circle cx="33" cy="495" r="5" fill="green" stroke="none" /><circle cx="559" cy="1680" r="5" fill="green" stroke="none" /><circle cx="1071" cy="3142" r="5" fill="green" stroke="none" /><circle cx="122" cy="3314" r="5" fill="green" stroke="none" /><circle cx="259" cy="913" r="5" fill="green" stroke="none" /><circle cx="488" cy="878" r="5" fill="green" stroke="none" /><circle cx="114" cy="1025" r="5" fill="green" stroke="none" /><circle cx="52" cy="4097" r="5" fill="green" stroke="none" /><circle cx="557" cy="1906" r="5" fill="green" stroke="none" /><circle cx="979" cy="4404" r="5" fill="green" stroke="none" /><circle cx="1044" cy="2212" r="5" fill="green" stroke="none" /><circle cx="1035" cy="2182" r="5" fill="green" stroke="none" /><circle cx="381" cy="3195" r="5" fill="green" stroke="none" /><circle cx="1028" cy="2994" r="5" fill="green" stroke="none" /><circle cx="109" cy="4522" r="5" fill="green" stroke="none" /><circle cx="1259" cy="2485" r="5" fill="green" stroke="none" /><circle cx="215" cy="967" r="5" fill="green" stroke="none" /><circle cx="327" cy="3556" r="5" fill="green" stroke="none" /><circle cx="870" cy="3852" r="5" fill="green" stroke="none" /><circle cx="554" cy="2917" r="5" fill="green" stroke="none" /><circle cx="473" cy="2859" r="5" fill="green" stroke="none" /><circle cx="538" cy="2809" r="5" fill="green" stroke="none" /><circle cx="517" cy="4595" r="5" fill="green" stroke="none" /><circle cx="842" cy="3138" r="5" fill="green" stroke="none" /><circle cx="187" cy="1193" r="5" fill="green" stroke="none" /><circle cx="98" cy="1798" r="5" fill="green" stroke="none" /><circle cx="972" cy="737" r="5" fill="green" stroke="none" /><circle cx="986" cy="4359" r="5" fill="green" stroke="none" /><circle cx="683" cy="2977" r="5" fill="green" stroke="none" /><circle cx="43" cy="2517" r="5" fill="green" stroke="none" /><circle cx="1076" cy="359" r="5" fill="green" stroke="none" /><circle cx="1247" cy="2851" r="5" fill="green" stroke="none" /><circle cx="423" cy="652" r="5" fill="green" stroke="none" /><circle cx="199" cy="2573" r="5" fill="green" stroke="none" /><circle cx="349" cy="3899" r="5" fill="green" stroke="none" /><circle cx="984" cy="2889" r="5" fill="green" stroke="none" /><circle cx="489" cy="4358" r="5" fill="green" stroke="none" /><circle cx="1259" cy="2181" r="5" fill="green" stroke="none" /><circle cx="152" cy="2021" r="5" fill="green" stroke="none" /><circle cx="1067" cy="3274" r="5" fill="green" stroke="none" /><circle cx="441" cy="1537" r="5" fill="green" stroke="none" /><circle cx="1166" cy="2538" r="5" fill="green" stroke="none" /><circle cx="254" cy="2401" r="5" fill="green" stroke="none" /><circle cx="1173" cy="2987" r="5" fill="green" stroke="none" /><circle cx="434" cy="1982" r="5" fill="green" stroke="none" /><circle cx="58" cy="712" r="5" fill="green" stroke="none" /><circle cx="465" cy="3403" r="5" fill="green" stroke="none" /><circle cx="961" cy="3435" r="5" fill="green" stroke="none" /><circle cx="115" cy="3516" r="5" fill="green" stroke="none" /><circle cx="341" cy="466" r="5" fill="green" stroke="none" /><circle cx="766" cy="2785" r="5" fill="green" stroke="none" /><circle cx="1186" cy="1977" r="5" fill="green" stroke="none" /><circle cx="719" cy="2585" r="5" fill="green" stroke="none" /><circle cx="605" cy="1910" r="5" fill="green" stroke="none" /><circle cx="775" cy="2465" r="5" fill="green" stroke="none" /><circle cx="361" cy="3308" r="5" fill="green" stroke="none" /><circle cx="227" cy="678" r="5" fill="green" stroke="none" /><circle cx="887" cy="2009" r="5" fill="green" stroke="none" /><circle cx="1231" cy="3956" r="5" fill="green" stroke="none" /><circle cx="511" cy="3008" r="5" fill="green" stroke="none" /><circle cx="203" cy="1244" r="5" fill="green" stroke="none" /><circle cx="583" cy="2049" r="5" fill="green" stroke="none" /><circle cx="1050" cy="4162" r="5" fill="green" stroke="none" /><circle cx="80" cy="1592" r="5" fill="green" stroke="none" /><circle cx="873" cy="1189" r="5" fill="green" stroke="none" /><circle cx="909" cy="2141" r="5" fill="green" stroke="none" /><circle cx="1045" cy="2331" r="5" fill="green" stroke="none" /><circle cx="1205" cy="2286" r="5" fill="green" stroke="none" /><circle cx="532" cy="1162" r="5" fill="green" stroke="none" /><circle cx="617" cy="3315" r="5" fill="green" stroke="none" /><circle cx="630" cy="2113" r="5" fill="green" stroke="none" /><circle cx="590" cy="2614" r="5" fill="green" stroke="none" /><circle cx="237" cy="3727" r="5" fill="green" stroke="none" /><circle cx="1273" cy="2722" r="5" fill="green" stroke="none" /><circle cx="1123" cy="2069" r="5" fill="green" stroke="none" /><circle cx="207" cy="3714" r="5" fill="green" stroke="none" /><circle cx="214" cy="2326" r="5" fill="green" stroke="none" /><circle cx="187" cy="2693" r="5" fill="green" stroke="none" /><circle cx="588" cy="2039" r="5" fill="green" stroke="none" /><circle cx="1123" cy="157" r="5" fill="green" stroke="none" /><circle cx="126" cy="4174" r="5" fill="green" stroke="none" /><circle cx="1121" cy="3185" r="5" fill="green" stroke="none" /><circle cx="1097" cy="1101" r="5" fill="green" stroke="none" /><circle cx="1013" cy="989" r="5" fill="green" stroke="none" /><circle cx="812" cy="3823" r="5" fill="green" stroke="none" /><circle cx="912" cy="5803" r="5" fill="green" stroke="none" /><circle cx="855" cy="5440" r="5" fill="green" stroke="none" /><circle cx="670" cy="3199" r="5" fill="green" stroke="none" /><circle cx="55" cy="3731" r="5" fill="green" stroke="none" /><circle cx="540" cy="2471" r="5" fill="green" stroke="none" /><circle cx="453" cy="3353" r="5" fill="green" stroke="none" /><circle cx="682" cy="1782" r="5" fill="green" stroke="none" /><circle cx="1246" cy="480" r="5" fill="green" stroke="none" /><circle cx="193" cy="908" r="5" fill="green" stroke="none" /><circle cx="82" cy="1216" r="5" fill="green" stroke="none" /><circle cx="636" cy="2868" r="5" fill="green" stroke="none" /><circle cx="265" cy="301" r="5" fill="green" stroke="none" /><circle cx="1284" cy="3437" r="5" fill="green" stroke="none" /><circle cx="18" cy="1432" r="5" fill="green" stroke="none" /><circle cx="1120" cy="4332" r="5" fill="green" stroke="none" /><circle cx="583" cy="1805" r="5" fill="green" stroke="none" /><circle cx="942" cy="1738" r="5" fill="green" stroke="none" /><circle cx="84" cy="1745" r="5" fill="green" stroke="none" /><circle cx="622" cy="335" r="5" fill="green" stroke="none" /><circle cx="251" cy="3738" r="5" fill="green" stroke="none" /><circle cx="604" cy="2889" r="5" fill="green" stroke="none" /><circle cx="424" cy="363" r="5" fill="green" stroke="none" /><circle cx="1011" cy="872" r="5" fill="green" stroke="none" /><circle cx="190" cy="1335" r="5" fill="green" stroke="none" /><circle cx="1162" cy="2530" r="5" fill="green" stroke="none" /><circle cx="269" cy="3718" r="5" fill="green" stroke="none" /><circle cx="66" cy="1836" r="5" fill="green" stroke="none" /><circle cx="984" cy="2959" r="5" fill="green" stroke="none" /><circle cx="377" cy="3405" r="5" fill="green" stroke="none" /><circle cx="877" cy="2711" r="5" fill="green" stroke="none" /><circle cx="52" cy="4110" r="5" fill="green" stroke="none" /><circle cx="106" cy="3497" r="5" fill="green" stroke="none" /><circle cx="1232" cy="2952" r="5" fill="green" stroke="none" /><circle cx="1008" cy="2417" r="5" fill="green" stroke="none" /><circle cx="1188" cy="3478" r="5" fill="green" stroke="none" /><circle cx="1110" cy="3352" r="5" fill="green" stroke="none" /><circle cx="486" cy="1933" r="5" fill="green" stroke="none" /><circle cx="770" cy="1608" r="5" fill="green" stroke="none" /><circle cx="501" cy="3325" r="5" fill="green" stroke="none" /><circle cx="107" cy="2684" r="5" fill="green" stroke="none" /><circle cx="1014" cy="3403" r="5" fill="green" stroke="none" /><circle cx="1245" cy="3538" r="5" fill="green" stroke="none" /><circle cx="207" cy="356" r="5" fill="green" stroke="none" /><circle cx="967" cy="3413" r="5" fill="green" stroke="none" /><circle cx="1102" cy="2937" r="5" fill="green" stroke="none" /><circle cx="1072" cy="3431" r="5" fill="green" stroke="none" /><circle cx="197" cy="2352" r="5" fill="green" stroke="none" /><circle cx="737" cy="5159" r="5" fill="green" stroke="none" /><circle cx="789" cy="2276" r="5" fill="green" stroke="none" /><circle cx="99" cy="1394" r="5" fill="green" stroke="none" /><circle cx="550" cy="3147" r="5" fill="green" stroke="none" /><circle cx="393" cy="2236" r="5" fill="green" stroke="none" /><circle cx="346" cy="2382" r="5" fill="green" stroke="none" /><circle cx="461" cy="3335" r="5" fill="green" stroke="none" /><circle cx="640" cy="1369" r="5" fill="green" stroke="none" /><circle cx="984" cy="4347" r="5" fill="green" stroke="none" /><circle cx="604" cy="570" r="5" fill="green" stroke="none" /><circle cx="1013" cy="1277" r="5" fill="green" stroke="none" /><circle cx="965" cy="2490" r="5" fill="green" stroke="none" /><circle cx="888" cy="2597" r="5" fill="green" stroke="none" /><circle cx="308" cy="1640" r="5" fill="green" stroke="none" /><circle cx="168" cy="2508" r="5" fill="green" stroke="none" /><circle cx="110" cy="2253" r="5" fill="green" stroke="none" /><circle cx="1152" cy="2859" r="5" fill="green" stroke="none" /><circle cx="278" cy="3577" r="5" fill="green" stroke="none" /><circle cx="241" cy="191" r="5" fill="green" stroke="none" /><circle cx="212" cy="1480" r="5" fill="green" stroke="none" /><circle cx="21" cy="1669" r="5" fill="green" stroke="none" /><circle cx="560" cy="989" r="5" fill="green" stroke="none" /><circle cx="706" cy="5233" r="5" fill="green" stroke="none" /><circle cx="1042" cy="4912" r="83" fill="red" stroke="none" /><circle cx="1230" cy="241" r="7" fill="red" stroke="none" /><circle cx="1142" cy="1200" r="64" fill="red" stroke="none" /><circle cx="1028" cy="1107" r="45" fill="red" stroke="none" /><circle cx="1130" cy="2082" r="10" fill="red" stroke="none" /><circle cx="1001" cy="143" r="38" fill="red" stroke="none" /><circle cx="1159" cy="4122" r="38" fill="red" stroke="none" /><circle cx="457" cy="4932" r="41" fill="red" stroke="none" /><circle cx="412" cy="634" r="20" fill="red" stroke="none" /><circle cx="979" cy="4234" r="36" fill="red" stroke="none" /><circle cx="1194" cy="3299" r="84" fill="red" stroke="none" /><circle cx="975" cy="1915" r="78" fill="red" stroke="none" /><circle cx="324" cy="1546" r="62" fill="red" stroke="none" /><circle cx="348" cy="1497" r="43" fill="red" stroke="none" /><circle cx="1177" cy="5911" r="28" fill="red" stroke="none" /><circle cx="526" cy="5703" r="55" fill="red" stroke="none" /><circle cx="769" cy="2999" r="56" fill="red" stroke="none" /><circle cx="600" cy="4422" r="17" fill="red" stroke="none" /><circle cx="485" cy="516" r="68" fill="red" stroke="none" /><circle cx="1057" cy="2064" r="21" fill="red" stroke="none" /><circle cx="1066" cy="4702" r="28" fill="red" stroke="none" /><circle cx="1213" cy="1928" r="55" fill="red" stroke="none" /><circle cx="832" cy="5888" r="33" fill="red" stroke="none" /><circle cx="599" cy="3611" r="72" fill="red" stroke="none" /><circle cx="1217" cy="1648" r="79" fill="red" stroke="none" /><circle cx="99" cy="724" r="12" fill="red" stroke="none" /><circle cx="430" cy="109" r="68" fill="red" stroke="none" /><circle cx="456" cy="5712" r="29" fill="red" stroke="none" /><circle cx="732" cy="2243" r="52" fill="red" stroke="none" /><circle cx="1034" cy="222" r="62" fill="red" stroke="none" /><circle cx="138" cy="5636" r="30" fill="red" stroke="none" /><circle cx="389" cy="5016" r="7" fill="red" stroke="none" /><circle cx="606" cy="2432" r="49" fill="red" stroke="none" /><circle cx="530" cy="5439" r="27" fill="red" stroke="none" /><circle cx="664" cy="531" r="65" fill="red" stroke="none" /><circle cx="88" cy="4764" r="79" fill="red" stroke="none" /><circle cx="898" cy="5321" r="61" fill="red" stroke="none" /><circle cx="1190" cy="403" r="65" fill="red" stroke="none" /><circle cx="674" cy="5370" r="57" fill="red" stroke="none" /><circle cx="800" cy="4391" r="25" fill="red" stroke="none" /><circle cx="397" cy="4009" r="36" fill="red" stroke="none" /><circle cx="593" cy="3057" r="19" fill="red" stroke="none" /><circle cx="921" cy="5343" r="31" fill="red" stroke="none" /><circle cx="81" cy="376" r="65" fill="red" stroke="none" /><circle cx="377" cy="3733" r="81" fill="red" stroke="none" /><circle cx="1111" cy="1492" r="53" fill="red" stroke="none" /><circle cx="169" cy="831" r="32" fill="red" stroke="none" /><circle cx="250" cy="3999" r="82" fill="red" stroke="none" /><circle cx="1019" cy="1752" r="42" fill="red" stroke="none" /><circle cx="381" cy="2665" r="23" fill="red" stroke="none" /><circle cx="1150" cy="3697" r="7" fill="red" stroke="none" /><circle cx="527" cy="3965" r="14" fill="red" stroke="none" /><circle cx="861" cy="3985" r="9" fill="red" stroke="none" /><circle cx="997" cy="1898" r="76" fill="red" stroke="none" /><circle cx="628" cy="1257" r="71" fill="red" stroke="none" /><circle cx="59" cy="5527" r="6" fill="red" stroke="none" /><circle cx="1000" cy="4906" r="52" fill="red" stroke="none" /><circle cx="972" cy="3784" r="69" fill="red" stroke="none" /><circle cx="462" cy="4813" r="31" fill="red" stroke="none" /><circle cx="124" cy="5170" r="38" fill="red" stroke="none" /><circle cx="770" cy="3264" r="80" fill="red" stroke="none" /><circle cx="89" cy="4782" r="81" fill="red" stroke="none" /><circle cx="1033" cy="4563" r="68" fill="red" stroke="none" /><circle cx="1132" cy="5290" r="83" fill="red" stroke="none" /><circle cx="356" cy="3489" r="62" fill="red" stroke="none" /><circle cx="175" cy="779" r="28" fill="red" stroke="none" /><circle cx="721" cy="1954" r="67" fill="red" stroke="none" /><circle cx="750" cy="1304" r="67" fill="red" stroke="none" /><circle cx="135" cy="466" r="74" fill="red" stroke="none" /><circle cx="140" cy="3640" r="54" fill="red" stroke="none" /><circle cx="462" cy="4530" r="33" fill="red" stroke="none" /><circle cx="318" cy="241" r="54" fill="red" stroke="none" /><circle cx="545" cy="3069" r="47" fill="red" stroke="none" /><circle cx="1149" cy="564" r="40" fill="red" stroke="none" /><circle cx="642" cy="5690" r="20" fill="red" stroke="none" /><circle cx="74" cy="5019" r="28" fill="red" stroke="none" /><circle cx="418" cy="5139" r="80" fill="red" stroke="none" /><circle cx="1241" cy="2015" r="46" fill="red" stroke="none" /><circle cx="298" cy="545" r="12" fill="red" stroke="none" /><circle cx="1013" cy="1949" r="74" fill="red" stroke="none" /><circle cx="1122" cy="5549" r="77" fill="red" stroke="none" /><circle cx="1218" cy="1568" r="33" fill="red" stroke="none" /><circle cx="134" cy="357" r="15" fill="red" stroke="none" /><circle cx="856" cy="250" r="29" fill="red" stroke="none" /><circle cx="954" cy="4612" r="42" fill="red" stroke="none" /><circle cx="155" cy="1817" r="47" fill="red" stroke="none" /><circle cx="570" cy="2532" r="60" fill="red" stroke="none" /><circle cx="60" cy="4269" r="25" fill="red" stroke="none" /><circle cx="972" cy="5480" r="42" fill="red" stroke="none" /><circle cx="475" cy="3574" r="54" fill="red" stroke="none" /><circle cx="687" cy="2887" r="36" fill="red" stroke="none" /><circle cx="80" cy="2978.2926855776905" r="5" fill="blue" stroke="none" /><circle cx="168.39015855680236" cy="2825.32934330314" r="5" fill="blue" stroke="none" /><circle cx="140.2152445794467" cy="2816" r="5" fill="blue" stroke="none" /><circle cx="319.4887781125936" cy="2816.1078244413034" r="5" fill="blue" stroke="none" /><circle cx="182.10435663271562" cy="2816" r="5" fill="blue" stroke="none" /><circle cx="82.44140984576946" cy="2890.8833885128565" r="5" fill="blue" stroke="none" /><circle cx="365.21241710499226" cy="2839.5165886408795" r="5" fill="blue" stroke="none" /><circle cx="80" cy="3254.444018989189" r="5" fill="blue" stroke="none" /><circle cx="363.3952601941077" cy="2965.569480337271" r="5" fill="blue" stroke="none" /><circle cx="367" cy="2987.4262610170736" r="5" fill="blue" stroke="none" /><circle cx="367" cy="3189.6683728065727" r="5" fill="blue" stroke="none" /><circle cx="80" cy="2826.001456887046" r="5" fill="blue" stroke="none" /><circle cx="366.1443520763759" cy="3072.1435488971647" r="5" fill="blue" stroke="none" /><circle cx="90.00880493310962" cy="3006.8942247175783" r="5" fill="blue" stroke="none" /><circle cx="298.29003600382487" cy="2816.1366703561825" r="5" fill="blue" stroke="none" /><circle cx="356.2921339890319" cy="3290" r="5" fill="blue" stroke="none" /><circle cx="277.9060549892126" cy="3280.168628451836" r="5" fill="blue" stroke="none" /><circle cx="86.60192024488971" cy="3185.2756525725886" r="5" fill="blue" stroke="none" /><circle cx="365.64792337726044" cy="2915.8386167283898" r="5" fill="blue" stroke="none" /><circle cx="80" cy="2937.7112355833942" r="5" fill="blue" stroke="none" /><circle cx="91.5954641907628" cy="2824.0890741856506" r="5" fill="blue" stroke="none" /><circle cx="109.43306567622182" cy="3290" r="5" fill="blue" stroke="none" /><circle cx="356.3276148034276" cy="3272.6615014792274" r="5" fill="blue" stroke="none" /><circle cx="99.73556427494981" cy="2818.180106295591" r="5" fill="blue" stroke="none" /><circle cx="222.44406527972401" cy="2816" r="5" fill="blue" stroke="none" /><circle cx="96.21984474515534" cy="3259.2353383261234" r="5" fill="blue" stroke="none" /><circle cx="358.30762268263544" cy="3037.1728187978383" r="5" fill="blue" stroke="none" /><circle cx="367" cy="3032.1717573472324" r="5" fill="blue" stroke="none" /><circle cx="341.32189286429025" cy="3280.7913753823245" r="5" fill="blue" stroke="none" /><circle cx="308.6060345005281" cy="2856.9382732428794" r="5" fill="blue" stroke="none" /><circle cx="363.6078553741622" cy="2976.6226100157005" r="5" fill="blue" stroke="none" /><circle cx="80" cy="2927.7063392553705" r="5" fill="blue" stroke="none" /><circle cx="367" cy="3022.169075321395" r="5" fill="blue" stroke="none" /><circle cx="80" cy="2968.033802758604" r="5" fill="blue" stroke="none" /><circle cx="125.06641072840127" cy="2851.8049420843704" r="5" fill="blue" stroke="none" /><circle cx="296.3024468958871" cy="3290" r="5" fill="blue" stroke="none" /><circle cx="365.06108808823893" cy="2825.818986997432" r="5" fill="blue" stroke="none" /><circle cx="80" cy="2902.5896550932193" r="5" fill="blue" stroke="none" /><circle cx="80" cy="2917.704178983279" r="5" fill="blue" stroke="none" /><circle cx="346.2917891875078" cy="3290" r="5" fill="blue" stroke="none" /><circle cx="81.93370531614258" cy="3279.1828298589458" r="5" fill="blue" stroke="none" /><circle cx="151.93529891491298" cy="2816.2436048440272" r="5" fill="blue" stroke="none" /><circle cx="308.2924415133758" cy="2816" r="5" fill="blue" stroke="none" /><circle cx="367" cy="3153.5311244631403" r="5" fill="blue" stroke="none" /><circle cx="366.9632243590809" cy="2816" r="5" fill="blue" stroke="none" /><circle cx="340.90701407490235" cy="2921.4137351445047" r="5" fill="blue" stroke="none" /><circle cx="267.94656110371153" cy="2816" r="5" fill="blue" stroke="none" /><circle cx="288.70400597739604" cy="3280.3731444315" r="5" fill="blue" stroke="none" /><circle cx="163.04759942032817" cy="3281.244896118284" r="5" fill="blue" stroke="none" /><circle cx="313.9110426201512" cy="2824.4280918119257" r="5" fill="blue" stroke="none" /><circle cx="99.43267693816983" cy="3290" r="5" fill="blue" stroke="none" /><circle cx="172.10059304335869" cy="2816" r="5" fill="blue" stroke="none" /><circle cx="202.442754741789" cy="2816" r="5" fill="blue" stroke="none" /><circle cx="313.77827833369815" cy="3290" r="5" fill="blue" stroke="none" /><circle cx="367" cy="2943.160410786694" r="5" fill="blue" stroke="none" /><circle cx="266.2690899766981" cy="3287.616934509463" r="5" fill="blue" stroke="none" /><circle cx="367" cy="3219.8712905538014" r="5" fill="blue" stroke="none" /><circle cx="283.0065730729463" cy="3271.5603572938185" r="5" fill="blue" stroke="none" /><circle cx="256.1230532326839" cy="2816.816603474275" r="5" fill="blue" stroke="none" /><circle cx="358.15403345024544" cy="3194.462094307855" r="5" fill="blue" stroke="none" /><circle cx="192.15328600747358" cy="2816" r="5" fill="blue" stroke="none" /><circle cx="367" cy="3042.1743493635654" r="5" fill="blue" stroke="none" /><circle cx="89.19919893412599" cy="3286.0714494973176" r="5" fill="blue" stroke="none" /><circle cx="326.17630400030544" cy="3290" r="5" fill="blue" stroke="none" /><circle cx="137.81229707468356" cy="3290" r="5" fill="blue" stroke="none" /><circle cx="360.04976407386613" cy="2852.0664665051972" r="5" fill="blue" stroke="none" /><circle cx="275.9854984673361" cy="3290" r="5" fill="blue" stroke="none" /><circle cx="367" cy="2955.11246313895" r="5" fill="blue" stroke="none" /><circle cx="365.45423525023625" cy="2876.012454087685" r="5" fill="blue" stroke="none" /><circle cx="367" cy="3258.5835388994733" r="5" fill="blue" stroke="none" /><circle cx="351.35650009849" cy="2824.7468994997307" r="5" fill="blue" stroke="none" /><circle cx="367" cy="2895.8948606381236" r="5" fill="blue" stroke="none" /><circle cx="367" cy="3235.0105220628" r="5" fill="blue" stroke="none" /><circle cx="362.77860032318387" cy="2863.6213903439666" r="5" fill="blue" stroke="none" /><circle cx="222.57995430654898" cy="3290" r="5" fill="blue" stroke="none" /><circle cx="356.26437300944343" cy="2816" r="5" fill="blue" stroke="none" /><circle cx="157.30744501221636" cy="3289.9221531161857" r="5" fill="blue" stroke="none" /><circle cx="302.757016155023" cy="3273.5398345020217" r="5" fill="blue" stroke="none" /><circle cx="331.54727863778055" cy="2816.226539291959" r="5" fill="blue" stroke="none" /><circle cx="97.30148939694082" cy="3280.1954680510357" r="5" fill="blue" stroke="none" /><circle cx="242.4551247674031" cy="2816" r="5" fill="blue" stroke="none" /><circle cx="110.72303681385311" cy="2816" r="5" fill="blue" stroke="none" /><circle cx="147.54588396627116" cy="3287.699099028585" r="5" fill="blue" stroke="none" /><circle cx="348.1024680946284" cy="2842.426379052337" r="5" fill="blue" stroke="none" /><circle cx="293.01071348747246" cy="3271.2712925696987" r="5" fill="blue" stroke="none" /><circle cx="80" cy="2993.822765719481" r="5" fill="blue" stroke="none" /><circle cx="81.27153926801454" cy="2836.426537637667" r="5" fill="blue" stroke="none" /><circle cx="366.8927677897487" cy="2930.730893342365" r="5" fill="blue" stroke="none" /><circle cx="366.31732999470955" cy="3012.1742167080542" r="5" fill="blue" stroke="none" /><circle cx="343.5940494442065" cy="2816" r="5" fill="blue" stroke="none" /><circle cx="323.559354588019" cy="2827.0903769144034" r="5" fill="blue" stroke="none" /><circle cx="89.40662590061933" cy="2974.8978027475473" r="5" fill="blue" stroke="none" /><circle cx="178.39414630488113" cy="2825.2969306566483" r="5" fill="blue" stroke="none" /><circle cx="80" cy="2879.6414170148046" r="5" fill="blue" stroke="none" /><circle cx="367" cy="3199.6724313588934" r="5" fill="blue" stroke="none" /><circle cx="358.30778400712614" cy="3047.185717072422" r="5" fill="blue" stroke="none" /><circle cx="161.95828712573925" cy="2816" r="5" fill="blue" stroke="none" /><circle cx="88.64675733799504" cy="2963.0099596933173" r="5" fill="blue" stroke="none" /><circle cx="197.90988435545466" cy="2824.9189061442066" r="5" fill="blue" stroke="none" /><circle cx="363.21681576017653" cy="2886.6198006941718" r="5" fill="blue" stroke="none" /><circle cx="116.8500297975168" cy="3271.457423854088" r="5" fill="blue" stroke="none" /><circle cx="366.2986992091636" cy="3290" r="5" fill="blue" stroke="none" /><circle cx="80" cy="2957.9413622097095" r="5" fill="blue" stroke="none" /><circle cx="89.6490099353434" cy="2882.2937361095314" r="5" fill="blue" stroke="none" /><circle cx="351.31063359951867" cy="3281.3171808815555" r="5" fill="blue" stroke="none" /><circle cx="361.43613311583306" cy="3281.2617142459944" r="5" fill="blue" stroke="none" /><circle cx="340.14676284969215" cy="2941.002269956346" r="5" fill="blue" stroke="none" /><circle cx="167.9605023605356" cy="3290" r="5" fill="blue" stroke="none" /><circle cx="287.9511510003221" cy="2816" r="5" fill="blue" stroke="none" /><circle cx="256.49913545677856" cy="3289.7747955922437" r="5" fill="blue" stroke="none" /><circle cx="367" cy="3062.1748338085085" r="5" fill="blue" stroke="none" /><circle cx="285.98559151871007" cy="3290" r="5" fill="blue" stroke="none" /><circle cx="127.81090568350885" cy="3290" r="5" fill="blue" stroke="none" /><circle cx="357.72573452120304" cy="2832.6562482079166" r="5" fill="blue" stroke="none" /><circle cx="364.72739553991397" cy="3125.0937934479803" r="5" fill="blue" stroke="none" /><circle cx="80" cy="2816" r="5" fill="blue" stroke="none" /><circle cx="104.61458004618187" cy="2851.1118126101" r="5" fill="blue" stroke="none" /><circle cx="80.00189654785252" cy="3290" r="5" fill="blue" stroke="none" /><circle cx="87.20652319844967" cy="3264.8096969473004" r="5" fill="blue" stroke="none" /><circle cx="330.70779843336413" cy="2834.0904336076674" r="5" fill="blue" stroke="none" /><circle cx="126.25630203325206" cy="2816" r="5" fill="blue" stroke="none" /><circle cx="80" cy="3006.528335934804" r="5" fill="blue" stroke="none" /><circle cx="137.9538840036547" cy="2829.4521530462457" r="5" fill="blue" stroke="none" /><circle cx="80.89404835450324" cy="2865.3727718462824" r="5" fill="blue" stroke="none" /><circle cx="80" cy="2947.7128234628403" r="5" fill="blue" stroke="none" /><circle cx="367" cy="3052.1743860102238" r="5" fill="blue" stroke="none" /><circle cx="123.07187730890976" cy="3281.1941914446447" r="5" fill="blue" stroke="none" /><circle cx="367" cy="3002.196357475614" r="5" fill="blue" stroke="none" /><circle cx="246.4721411680159" cy="3289.6108578659155" r="5" fill="blue" stroke="none" /><circle cx="307.1093339056567" cy="3282.546361093522" r="5" fill="blue" stroke="none" /><circle cx="339.57892571133544" cy="2829.457138539445" r="5" fill="blue" stroke="none" /><circle cx="277.9507099191542" cy="2816" r="5" fill="blue" stroke="none" /><circle cx="189.40416059461054" cy="3289.8040708945614" r="5" fill="blue" stroke="none" /><circle cx="367" cy="3082.1176513825176" r="5" fill="blue" stroke="none" /><circle cx="112.55908899392446" cy="3280.500610624231" r="5" fill="blue" stroke="none" /><circle cx="81.42032439294745" cy="2852.826542278471" r="5" fill="blue" stroke="none" /><circle cx="86.31620545972052" cy="2986.0699177959787" r="5" fill="blue" stroke="none" /><circle cx="232.44507291643072" cy="2816" r="5" fill="blue" stroke="none" /><circle cx="212.44356594627345" cy="2816" r="5" fill="blue" stroke="none" /><circle cx="235.9201528598977" cy="3290" r="5" fill="blue" stroke="none" /><circle cx="336.28520514532346" cy="3289.4386553935333" r="5" fill="blue" stroke="none" /><circle cx="367" cy="3209.6764789366803" r="5" fill="blue" stroke="none" /><circle cx="367" cy="3179.668260226624" r="5" fill="blue" stroke="none" /><circle cx="367" cy="3169.1758307422856" r="5" fill="blue" stroke="none" /></svg>