<svg viewBox="0 0 1680 4552" xmlns="http://www.w3.org/2000/svg"><rect x="0" y="0" width="1680" height="4552" fill="lightyellow" stroke="none "/><rect x="636" y="3952" width="462" height="403" fill="white" stroke="black "/><circle cx="1480" cy="4093" r="5" fill="green" stroke="none" /><circle cx="46" cy="3325" r="5" fill="green" stroke="none" /><circle cx="249" cy="4164" r="5" fill="green" stroke="none" /><circle cx="1514" cy="4285" r="5" fill="green" stroke="none" /><circle cx="631" cy="3943" r="5" fill="green" stroke="none" /><circle cx="165" cy="3691" r="5" fill="green" stroke="none" /><circle cx="1017" cy="4516" r="5" fill="green" stroke="none" /><circle cx="374" cy="3477" r="5" fill="green" stroke="none" /><circle cx="89" cy="3968" r="5" fill="green" stroke="none" /><circle cx="1561" cy="4085" r="5" fill="green" stroke="none" /><circle cx="341" cy="4406" r="5" fill="green" stroke="none" /><circle cx="389" cy="4143" r="5" fill="green" stroke="none" /><circle cx="52" cy="3886" r="5" fill="green" stroke="none" /><circle cx="1665" cy="4394" r="5" fill="green" stroke="none" /><circle cx="893" cy="4427" r="5" fill="green" stroke="none" /><circle cx="1496" cy="4301" r="5" fill="green" stroke="none" /><circle cx="350" cy="4189" r="5" fill="green" stroke="none" /><circle cx="1166" cy="4509" r="5" fill="green" stroke="none" /><circle cx="466" cy="3342" r="5" fill="green" stroke="none" /><circle cx="1354" cy="2548" r="5" fill="green" stroke="none" /><circle cx="735" cy="3671" r="5" fill="green" stroke="none" /><circle cx="382" cy="3681" r="5" fill="green" stroke="none" /><circle cx="1347" cy="4263" r="5" fill="green" stroke="none" /><circle cx="1590" cy="3771" r="5" fill="green" stroke="none" /><circle cx="600" cy="4498" r="5" fill="green" stroke="none" /><circle cx="331" cy="4014" r="5" fill="green" stroke="none" /><circle cx="1526" cy="4395" r="5" fill="green" stroke="none" /><circle cx="1376" cy="4224" r="5" fill="green" stroke="none" /><circle cx="763" cy="3535" r="5" fill="green" stroke="none" /><circle cx="796" cy="4362" r="5" fill="green" stroke="none" /><circle cx="1455" cy="4430" r="5" fill="green" stroke="none" /><circle cx="303" cy="3442" r="5" fill="green" stroke="none" /><circle cx="1128" cy="4304" r="5" fill="green" stroke="none" /><circle cx="1092" cy="3776" r="5" fill="green" stroke="none" /><circle cx="225" cy="4204" r="5" fill="green" stroke="none" /><circle cx="636" cy="3815" r="5" fill="green" stroke="none" /><circle cx="705" cy="3594" r="5" fill="green" stroke="none" /><circle cx="660" cy="3547" r="5" fill="green" stroke="none" /><circle cx="1662" cy="1601" r="5" fill="green" stroke="none" /><circle cx="1666" cy="4546" r="5" fill="green" stroke="none" /><circle cx="1669" cy="3851" r="5" fill="green" stroke="none" /><circle cx="1296" cy="2673" r="5" fill="green" stroke="none" /><circle cx="1294" cy="4522" r="5" fill="green" stroke="none" /><circle cx="418" cy="4088" r="5" fill="green" stroke="none" /><circle cx="1635" cy="1546" r="5" fill="green" stroke="none" /><circle cx="1420" cy="4483" r="5" fill="green" stroke="none" /><circle cx="676" cy="4409" r="5" fill="green" stroke="none" /><circle cx="1465" cy="2086" r="5" fill="green" stroke="none" /><circle cx="97" cy="3612" r="5" fill="green" stroke="none" /><circle cx="328" cy="3869" r="5" fill="green" stroke="none" /><circle cx="1653" cy="3762" r="5" fill="green" stroke="none" /><circle cx="473" cy="4102" r="5" fill="green" stroke="none" /><circle cx="808" cy="3631" r="5" fill="green" stroke="none" /><circle cx="1619" cy="1519" r="5" fill="green" stroke="none" /><circle cx="1030" cy="3602" r="5" fill="green" stroke="none" /><circle cx="1121" cy="3395" r="5" fill="green" stroke="none" /><circle cx="1592" cy="4497" r="5" fill="green" stroke="none" /><circle cx="621" cy="3758" r="5" fill="green" stroke="none" /><circle cx="444" cy="4541" r="5" fill="green" stroke="none" /><circle cx="356" cy="4072" r="5" fill="green" stroke="none" /><circle cx="721" cy="3221" r="5" fill="green" stroke="none" /><circle cx="1570" cy="4490" r="5" fill="green" stroke="none" /><circle cx="995" cy="3881" r="5" fill="green" stroke="none" /><circle cx="1276" cy="3198" r="5" fill="green" stroke="none" /><circle cx="367" cy="4406" r="5" fill="green" stroke="none" /><circle cx="1040" cy="4358" r="5" fill="green" stroke="none" /><circle cx="404" cy="3621" r="5" fill="green" stroke="none" /><circle cx="577" cy="3828" r="5" fill="green" stroke="none" /><circle cx="1099" cy="4334" r="5" fill="green" stroke="none" /><circle cx="358" cy="3890" r="5" fill="green" stroke="none" /><circle cx="477" cy="4323" r="5" fill="green" stroke="none" /><circle cx="1505" cy="3921" r="5" fill="green" stroke="none" /><circle cx="1666" cy="3935" r="5" fill="green" stroke="none" /><circle cx="1679" cy="3814" r="5" fill="green" stroke="none" /><circle cx="1647" cy="4388" r="5" fill="green" stroke="none" /><circle cx="1355" cy="4061" r="5" fill="green" stroke="none" /><circle cx="1553" cy="3979" r="5" fill="green" stroke="none" /><circle cx="823" cy="3589" r="5" fill="green" stroke="none" /><circle cx="1310" cy="3399" r="5" fill="green" stroke="none" /><circle cx="518" cy="3677" r="5" fill="green" stroke="none" /><circle cx="1412" cy="3593" r="5" fill="green" stroke="none" /><circle cx="1121" cy="3465" r="5" fill="green" stroke="none" /><circle cx="24" cy="3342" r="5" fill="green" stroke="none" /><circle cx="259" cy="3822" r="5" fill="green" stroke="none" /><circle cx="1109" cy="3442" r="5" fill="green" stroke="none" /><circle cx="559" cy="3260" r="5" fill="green" stroke="none" /><circle cx="1592" cy="1553" r="5" fill="green" stroke="none" /><circle cx="1280" cy="4463" r="5" fill="green" stroke="none" /><circle cx="126" cy="4551" r="5" fill="green" stroke="none" /><circle cx="1514" cy="4252" r="5" fill="green" stroke="none" /><circle cx="645" cy="3822" r="5" fill="green" stroke="none" /><circle cx="152" cy="3296" r="5" fill="green" stroke="none" /><circle cx="1130" cy="3439" r="5" fill="green" stroke="none" /><circle cx="1172" cy="3229" r="5" fill="green" stroke="none" /><circle cx="289" cy="3935" r="5" fill="green" stroke="none" /><circle cx="1561" cy="4208" r="5" fill="green" stroke="none" /><circle cx="724" cy="3276" r="5" fill="green" stroke="none" /><circle cx="1193" cy="4283" r="5" fill="green" stroke="none" /><circle cx="1125" cy="4528" r="5" fill="green" stroke="none" /><circle cx="289" cy="1818" r="9" fill="red" stroke="none" /><circle cx="195" cy="451" r="40" fill="red" stroke="none" /><circle cx="770" cy="2136" r="46" fill="red" stroke="none" /><circle cx="761" cy="3816" r="8" fill="red" stroke="none" /><circle cx="633" cy="2718" r="34" fill="red" stroke="none" /><circle cx="697" cy="820" r="50" fill="red" stroke="none" /><circle cx="667" cy="1355" r="58" fill="red" stroke="none" /><circle cx="154" cy="2644" r="82" fill="red" stroke="none" /><circle cx="1233" cy="3576" r="66" fill="red" stroke="none" /><circle cx="390" cy="533" r="38" fill="red" stroke="none" /><circle cx="810" cy="1525" r="82" fill="red" stroke="none" /><circle cx="317" cy="3230" r="61" fill="red" stroke="none" /><circle cx="810" cy="1606" r="79" fill="red" stroke="none" /><circle cx="873" cy="2599" r="21" fill="red" stroke="none" /><circle cx="555" cy="4169" r="77" fill="red" stroke="none" /><circle cx="1227" cy="3644" r="30" fill="red" stroke="none" /><circle cx="406" cy="137" r="49" fill="red" stroke="none" /><circle cx="422" cy="274" r="9" fill="red" stroke="none" /><circle cx="632" cy="1016" r="45" fill="red" stroke="none" /><circle cx="707" cy="1456" r="41" fill="red" stroke="none" /><circle cx="555" cy="2202" r="42" fill="red" stroke="none" /><circle cx="520" cy="1134" r="57" fill="red" stroke="none" /><circle cx="620" cy="1133" r="13" fill="red" stroke="none" /><circle cx="1464" cy="353" r="62" fill="red" stroke="none" /><circle cx="1004" cy="3395" r="60" fill="red" stroke="none" /><circle cx="1321" cy="516" r="31" fill="red" stroke="none" /><circle cx="748" cy="2907" r="16" fill="red" stroke="none" /><circle cx="922" cy="3605" r="41" fill="red" stroke="none" /><circle cx="1389" cy="2995" r="37" fill="red" stroke="none" /><circle cx="964" cy="3765" r="61" fill="red" stroke="none" /><circle cx="217" cy="1923" r="10" fill="red" stroke="none" /><circle cx="323" cy="3359" r="49" fill="red" stroke="none" /><circle cx="754" cy="1910" r="10" fill="red" stroke="none" /><circle cx="1070" cy="2121" r="43" fill="red" stroke="none" /><circle cx="1355" cy="931" r="71" fill="red" stroke="none" /><circle cx="476" cy="985" r="45" fill="red" stroke="none" /><circle cx="1329" cy="1060" r="81" fill="red" stroke="none" /><circle cx="355" cy="3185" r="35" fill="red" stroke="none" /><circle cx="1224" cy="3817" r="41" fill="red" stroke="none" /><circle cx="700" cy="3382" r="21" fill="red" stroke="none" /><circle cx="723" cy="1112" r="26" fill="red" stroke="none" /><circle cx="360" cy="511" r="54" fill="red" stroke="none" /><circle cx="867" cy="3866" r="78" fill="red" stroke="none" /><circle cx="504" cy="954" r="78" fill="red" stroke="none" /><circle cx="1283" cy="2499" r="80" fill="red" stroke="none" /><circle cx="1564" cy="2605" r="41" fill="red" stroke="none" /><circle cx="173" cy="1673" r="57" fill="red" stroke="none" /><circle cx="1331" cy="3141" r="14" fill="red" stroke="none" /><circle cx="49" cy="297" r="40" fill="red" stroke="none" /><circle cx="401" cy="4295" r="44" fill="red" stroke="none" /><circle cx="745" cy="2579" r="8" fill="red" stroke="none" /><circle cx="1392" cy="2663" r="32" fill="red" stroke="none" /><circle cx="555" cy="1397" r="15" fill="red" stroke="none" /><circle cx="195" cy="4316" r="63" fill="red" stroke="none" /><circle cx="934" cy="937" r="81" fill="red" stroke="none" /><circle cx="341" cy="2525" r="16" fill="red" stroke="none" /><circle cx="996" cy="1922" r="53" fill="red" stroke="none" /><circle cx="1287" cy="3158" r="37" fill="red" stroke="none" /><circle cx="247" cy="4432" r="64" fill="red" stroke="none" /><circle cx="320" cy="372" r="22" fill="red" stroke="none" /><circle cx="398" cy="1587" r="50" fill="red" stroke="none" /><circle cx="585" cy="768" r="13" fill="red" stroke="none" /><circle cx="1242" cy="102" r="12" fill="red" stroke="none" /><circle cx="178" cy="520" r="20" fill="red" stroke="none" /><circle cx="1416" cy="4373" r="30" fill="red" stroke="none" /><circle cx="1163" cy="506" r="46" fill="red" stroke="none" /><circle cx="112" cy="1961" r="24" fill="red" stroke="none" /><circle cx="1350" cy="2259" r="76" fill="red" stroke="none" /><circle cx="629" cy="579" r="17" fill="red" stroke="none" /><circle cx="1340" cy="1540" r="8" fill="red" stroke="none" /><circle cx="1223" cy="2002" r="73" fill="red" stroke="none" /><circle cx="1510" cy="3147" r="9" fill="red" stroke="none" /><circle cx="153" cy="2559" r="73" fill="red" stroke="none" /><circle cx="1134" cy="611" r="12" fill="red" stroke="none" /><circle cx="488" cy="2890" r="18" fill="red" stroke="none" /><circle cx="1586" cy="2695" r="31" fill="red" stroke="none" /><circle cx="516" cy="1066" r="24" fill="red" stroke="none" /><circle cx="242" cy="2029" r="62" fill="red" stroke="none" /><circle cx="1135" cy="515" r="55" fill="red" stroke="none" /><circle cx="602" cy="2973" r="65" fill="red" stroke="none" /><circle cx="666" cy="318" r="6" fill="red" stroke="none" /><circle cx="79" cy="3528" r="63" fill="red" stroke="none" /><circle cx="876" cy="3091" r="79" fill="red" stroke="none" /><circle cx="389" cy="860" r="81" fill="red" stroke="none" /><circle cx="112" cy="1401" r="24" fill="red" stroke="none" /><circle cx="904" cy="2013" r="8" fill="red" stroke="none" /><circle cx="1032" cy="376" r="14" fill="red" stroke="none" /><circle cx="1248" cy="3685" r="37" fill="red" stroke="none" /><circle cx="547" cy="4234" r="76" fill="red" stroke="none" /><circle cx="1191" cy="1723" r="10" fill="red" stroke="none" /><circle cx="659" cy="1772" r="31" fill="red" stroke="none" /><circle cx="186" cy="1302" r="54" fill="red" stroke="none" /><circle cx="893" cy="4484" r="36" fill="red" stroke="none" /><circle cx="737" cy="3129" r="62" fill="red" stroke="none" /><circle cx="961" cy="3593" r="67" fill="red" stroke="none" /><circle cx="1020" cy="2471" r="79" fill="red" stroke="none" /><circle cx="875" cy="343" r="48" fill="red" stroke="none" /><circle cx="575" cy="3201" r="55" fill="red" stroke="none" /><circle cx="1124" cy="1114" r="58" fill="red" stroke="none" /><circle cx="550" cy="2037" r="61" fill="red" stroke="none" /><circle cx="426" cy="1484" r="23" fill="red" stroke="none" /><circle cx="423" cy="2363" r="13" fill="red" stroke="none" /><circle cx="1542" cy="4139" r="16" fill="red" stroke="none" /><circle cx="955" cy="359" r="66" fill="red" stroke="none" /><circle cx="333" cy="2956" r="56" fill="red" stroke="none" /><circle cx="1488" cy="578" r="33" fill="red" stroke="none" /><circle cx="1231" cy="3929" r="44" fill="red" stroke="none" /><circle cx="1273" cy="491" r="65" fill="red" stroke="none" /><circle cx="1379" cy="837" r="7" fill="red" stroke="none" /><circle cx="686" cy="3110" r="63" fill="red" stroke="none" /><circle cx="261" cy="4259" r="24" fill="red" stroke="none" /><circle cx="1481" cy="3346" r="46" fill="red" stroke="none" /><circle cx="500" cy="3117" r="30" fill="red" stroke="none" /><circle cx="1360" cy="493" r="13" fill="red" stroke="none" /><circle cx="668" cy="1115" r="53" fill="red" stroke="none" /><circle cx="229" cy="2404" r="18" fill="red" stroke="none" /><circle cx="1240" cy="3890" r="56" fill="red" stroke="none" /><circle cx="533" cy="1750" r="44" fill="red" stroke="none" /><circle cx="718" cy="2125" r="52" fill="red" stroke="none" /><circle cx="318" cy="939" r="49" fill="red" stroke="none" /><circle cx="1430" cy="1096" r="22" fill="red" stroke="none" /><circle cx="986" cy="4427" r="37" fill="red" stroke="none" /><circle cx="1468" cy="3688" r="65" fill="red" stroke="none" /><circle cx="1252" cy="1351" r="52" fill="red" stroke="none" /><circle cx="1585" cy="2261" r="81" fill="red" stroke="none" /><circle cx="645" cy="1234" r="50" fill="red" stroke="none" /><circle cx="395" cy="285" r="57" fill="red" stroke="none" /><circle cx="668" cy="2174" r="39" fill="red" stroke="none" /><circle cx="800" cy="969" r="40" fill="red" stroke="none" /><circle cx="457" cy="1563" r="10" fill="red" stroke="none" /><circle cx="976" cy="803" r="10" fill="red" stroke="none" /><circle cx="429" cy="1784" r="19" fill="red" stroke="none" /><circle cx="863" cy="2782" r="6" fill="red" stroke="none" /><circle cx="549" cy="2159" r="74" fill="red" stroke="none" /><circle cx="997" cy="346" r="68" fill="red" stroke="none" /><circle cx="1124" cy="4498" r="9" fill="red" stroke="none" /><circle cx="718" cy="1094" r="77" fill="red" stroke="none" /><circle cx="1014" cy="2483" r="29" fill="red" stroke="none" /><circle cx="274" cy="2623" r="46" fill="red" stroke="none" /><circle cx="654" cy="2403" r="12" fill="red" stroke="none" /><circle cx="942" cy="1350" r="72" fill="red" stroke="none" /><circle cx="118" cy="3878" r="24" fill="red" stroke="none" /><circle cx="1347" cy="1092" r="84" fill="red" stroke="none" /><circle cx="519" cy="2312" r="64" fill="red" stroke="none" /><circle cx="666" cy="3370" r="58" fill="red" stroke="none" /><circle cx="867" cy="3932" r="8" fill="red" stroke="none" /><circle cx="109" cy="2492" r="59" fill="red" stroke="none" /><circle cx="1007" cy="2997" r="28" fill="red" stroke="none" /><circle cx="433" cy="3215" r="70" fill="red" stroke="none" /><circle cx="639" cy="3256" r="37" fill="red" stroke="none" /><circle cx="1001" cy="3386" r="82" fill="red" stroke="none" /><circle cx="585" cy="484" r="37" fill="red" stroke="none" /><circle cx="1606" cy="3047" r="26" fill="red" stroke="none" /><circle cx="1408" cy="3053" r="23" fill="red" stroke="none" /><circle cx="1194" cy="468" r="75" fill="red" stroke="none" /><circle cx="142" cy="923" r="16" fill="red" stroke="none" /><circle cx="1316" cy="1611" r="23" fill="red" stroke="none" /><circle cx="898" cy="179" r="44" fill="red" stroke="none" /><circle cx="485" cy="2354" r="51" fill="red" stroke="none" /><circle cx="1147" cy="2906" r="71" fill="red" stroke="none" /><circle cx="940" cy="3270" r="44" fill="red" stroke="none" /><circle cx="397" cy="3276" r="74" fill="red" stroke="none" /><circle cx="1084" cy="928" r="22" fill="red" stroke="none" /><circle cx="1059" cy="541" r="31" fill="red" stroke="none" /><circle cx="560" cy="2610" r="73" fill="red" stroke="none" /><circle cx="1034" cy="2204" r="27" fill="red" stroke="none" /><circle cx="230" cy="4059" r="56" fill="red" stroke="none" /><circle cx="1370" cy="455" r="9" fill="red" stroke="none" /><circle cx="1235" cy="3954" r="72" fill="red" stroke="none" /><circle cx="707" cy="1652" r="53" fill="red" stroke="none" /><circle cx="1223" cy="3636" r="77" fill="red" stroke="none" /><circle cx="1005" cy="1632" r="33" fill="red" stroke="none" /><circle cx="801" cy="3370" r="74" fill="red" stroke="none" /><circle cx="514" cy="3113" r="58" fill="red" stroke="none" /><circle cx="544" cy="2842" r="34" fill="red" stroke="none" /><circle cx="99" cy="2663" r="41" fill="red" stroke="none" /><circle cx="727" cy="2751" r="72" fill="red" stroke="none" /><circle cx="1147" cy="1653" r="63" fill="red" stroke="none" /><circle cx="321" cy="3573" r="66" fill="red" stroke="none" /><circle cx="594" cy="1257" r="35" fill="red" stroke="none" /><circle cx="528" cy="1800" r="22" fill="red" stroke="none" /><circle cx="1319" cy="1788" r="56" fill="red" stroke="none" /><circle cx="1185" cy="4061" r="81" fill="red" stroke="none" /><circle cx="894" cy="587" r="51" fill="red" stroke="none" /><circle cx="1397" cy="3849" r="82" fill="red" stroke="none" /><circle cx="1005" cy="2813" r="26" fill="red" stroke="none" /><circle cx="110" cy="4160" r="36" fill="red" stroke="none" /><circle cx="845" cy="69" r="67" fill="red" stroke="none" /><circle cx="956" cy="3263" r="25" fill="red" stroke="none" /><circle cx="525" cy="3241" r="38" fill="red" stroke="none" /><circle cx="389" cy="4303" r="42" fill="red" stroke="none" /><circle cx="1267" cy="3390" r="33" fill="red" stroke="none" /><circle cx="296" cy="2830" r="52" fill="red" stroke="none" /><circle cx="912" cy="3530" r="26" fill="red" stroke="none" /><circle cx="875.7554773085876" cy="4000.0075477861833" r="5" fill="blue" stroke="none" /><circle cx="955.8214115141374" cy="4329.642807465841" r="5" fill="blue" stroke="none" /><circle cx="651.9516279085128" cy="4317.134459848485" r="5" fill="blue" stroke="none" /><circle cx="813.1924646769862" cy="4311.374294264788" r="5" fill="blue" stroke="none" /><circle cx="1045.6081301266631" cy="4286.55460014194" r="5" fill="blue" stroke="none" /><circle cx="1088" cy="4258.884809013756" r="5" fill="blue" stroke="none" /><circle cx="1034.0858174273094" cy="3962" r="5" fill="blue" stroke="none" /><circle cx="759.7226100074371" cy="4337.230306224818" r="5" fill="blue" stroke="none" /><circle cx="956.7144361443295" cy="3981.8634432882936" r="5" fill="blue" stroke="none" /><circle cx="1079.202053247675" cy="4324.65937708162" r="5" fill="blue" stroke="none" /><circle cx="670.2718837783669" cy="4310.600861088604" r="5" fill="blue" stroke="none" /><circle cx="1079.5303579300853" cy="4344.81060256713" r="5" fill="blue" stroke="none" /><circle cx="740.149942187101" cy="4331.06408490506" r="5" fill="blue" stroke="none" /><circle cx="730.1171224186411" cy="4344.99420549604" r="5" fill="blue" stroke="none" /><circle cx="945.8212236061679" cy="4335.660924626634" r="5" fill="blue" stroke="none" /><circle cx="1054.28363431874" cy="4291.607174082861" r="5" fill="blue" stroke="none" /><circle cx="766.6882846211079" cy="4317.221621945225" r="5" fill="blue" stroke="none" /><circle cx="1053.9586332242943" cy="4210.1883996607685" r="5" fill="blue" stroke="none" /><circle cx="796.2473740837223" cy="3971.88607933424" r="5" fill="blue" stroke="none" /><circle cx="859.0546514494961" cy="4327.530852927683" r="5" fill="blue" stroke="none" /><circle cx="1016.0665742049096" cy="4318.376421989428" r="5" fill="blue" stroke="none" /><circle cx="864.1283281101153" cy="4345" r="5" fill="blue" stroke="none" /><circle cx="934.7365068410157" cy="4329.45224765302" r="5" fill="blue" stroke="none" /><circle cx="786.7948113794129" cy="4299.723387408557" r="5" fill="blue" stroke="none" /><circle cx="996.6376779420647" cy="3970.7766950004257" r="5" fill="blue" stroke="none" /><circle cx="1012.1111700307858" cy="4126.939788453526" r="5" fill="blue" stroke="none" /><circle cx="1087.8180053353742" cy="4279.799480434056" r="5" fill="blue" stroke="none" /><circle cx="815.1853961185853" cy="4335.153072508427" r="5" fill="blue" stroke="none" /><circle cx="683.5329081770506" cy="4319.351078318925" r="5" fill="blue" stroke="none" /><circle cx="849.442597162566" cy="4324.747368506306" r="5" fill="blue" stroke="none" /><circle cx="841.746069713905" cy="4308.286221202345" r="5" fill="blue" stroke="none" /><circle cx="1021.848675293885" cy="4310.18570943677" r="5" fill="blue" stroke="none" /><circle cx="876.2529456953037" cy="4336.822699581652" r="5" fill="blue" stroke="none" /><circle cx="1028.958927438666" cy="4289.517778170954" r="5" fill="blue" stroke="none" /><circle cx="776.705357499348" cy="4317.117537752342" r="5" fill="blue" stroke="none" /><circle cx="936.2764989682593" cy="3971.7034464191975" r="5" fill="blue" stroke="none" /><circle cx="1020.1767999667353" cy="3971.761197628106" r="5" fill="blue" stroke="none" /><circle cx="812.7316728767224" cy="4082.4805946347537" r="5" fill="blue" stroke="none" /><circle cx="862.8575534263849" cy="4259.512351454835" r="5" fill="blue" stroke="none" /><circle cx="933.7404637455036" cy="3962" r="5" fill="blue" stroke="none" /><circle cx="909.3928841987022" cy="4008.2038353672683" r="5" fill="blue" stroke="none" /><circle cx="1088" cy="4234.032889169912" r="5" fill="blue" stroke="none" /><circle cx="1068.3530379999377" cy="4304.198137007977" r="5" fill="blue" stroke="none" /><circle cx="891.2004696551187" cy="3962" r="5" fill="blue" stroke="none" /><circle cx="1059.0843391772848" cy="3972.031851760826" r="5" fill="blue" stroke="none" /><circle cx="677.8860023107646" cy="4345" r="5" fill="blue" stroke="none" /><circle cx="764.5981754831987" cy="4327.0068855104355" r="5" fill="blue" stroke="none" /><circle cx="649.2811063534914" cy="4296.632452474478" r="5" fill="blue" stroke="none" /><circle cx="731.8189573182709" cy="3999.1680783123165" r="5" fill="blue" stroke="none" /><circle cx="1046.6331472671857" cy="4336.311213711424" r="5" fill="blue" stroke="none" /><circle cx="829.1223553011495" cy="4345" r="5" fill="blue" stroke="none" /><circle cx="712.6822667833181" cy="4301.0128752959545" r="5" fill="blue" stroke="none" /><circle cx="1041.802151249358" cy="4327.535050153697" r="5" fill="blue" stroke="none" /><circle cx="964.4858097700117" cy="3988.3111078098077" r="5" fill="blue" stroke="none" /><circle cx="984.2736342484727" cy="3968.9505224251993" r="5" fill="blue" stroke="none" /><circle cx="803.3662303879912" cy="4309.495539478143" r="5" fill="blue" stroke="none" /><circle cx="756.5805354393506" cy="4317.141960397662" r="5" fill="blue" stroke="none" /><circle cx="666.0136597259283" cy="3962.3198113433386" r="5" fill="blue" stroke="none" /><circle cx="829.1431389486694" cy="4297.493046903756" r="5" fill="blue" stroke="none" /><circle cx="737.5177895895171" cy="3990.8260773824895" r="5" fill="blue" stroke="none" /><circle cx="1016.0274026895564" cy="4336.575885233907" r="5" fill="blue" stroke="none" /><circle cx="933.056320444243" cy="4282.296014891273" r="5" fill="blue" stroke="none" /><circle cx="954.0227779019548" cy="3962" r="5" fill="blue" stroke="none" /><circle cx="1069.2568034086366" cy="4314.165511006325" r="5" fill="blue" stroke="none" /><circle cx="945.5340671956352" cy="4325.581910986559" r="5" fill="blue" stroke="none" /><circle cx="705.6818978298502" cy="4317.341088878264" r="5" fill="blue" stroke="none" /><circle cx="769.6335285205118" cy="4335.660986586262" r="5" fill="blue" stroke="none" /><circle cx="807.0970017192637" cy="4345" r="5" fill="blue" stroke="none" /><circle cx="1039.2184623433095" cy="4317.872789267843" r="5" fill="blue" stroke="none" /><circle cx="791.787521111315" cy="4308.3897019930355" r="5" fill="blue" stroke="none" /><circle cx="846.6841906828632" cy="4334.364758117581" r="5" fill="blue" stroke="none" /><circle cx="699.393442378469" cy="4040.602956583785" r="5" fill="blue" stroke="none" /><circle cx="1005.1803750334792" cy="4316.926422455853" r="5" fill="blue" stroke="none" /><circle cx="1078.5968616757768" cy="4262.293387940971" r="5" fill="blue" stroke="none" /><circle cx="1053.6509367790934" cy="4329.005387818528" r="5" fill="blue" stroke="none" /><circle cx="1063.9458853049543" cy="4294.782793431282" r="5" fill="blue" stroke="none" /><circle cx="980.7703496312321" cy="4338.389501441892" r="5" fill="blue" stroke="none" /><circle cx="904.4818110204532" cy="4324.028836186894" r="5" fill="blue" stroke="none" /><circle cx="1088" cy="4151.376811280997" r="5" fill="blue" stroke="none" /><circle cx="660.7877586279762" cy="4335.6510451643435" r="5" fill="blue" stroke="none" /><circle cx="1086.8326154991598" cy="4123.3683196836555" r="5" fill="blue" stroke="none" /><circle cx="901.5674180207218" cy="4339.410053539453" r="5" fill="blue" stroke="none" /><circle cx="661.5532073226558" cy="4045.1378416406833" r="5" fill="blue" stroke="none" /><circle cx="678.9174103849022" cy="4328.230792499358" r="5" fill="blue" stroke="none" /><circle cx="998.9344562869572" cy="4342.477640539616" r="5" fill="blue" stroke="none" /><circle cx="821.7798741352618" cy="4316.635416542455" r="5" fill="blue" stroke="none" /><circle cx="660.3110555192516" cy="4311.587764654475" r="5" fill="blue" stroke="none" /><circle cx="796.1718813914555" cy="4345" r="5" fill="blue" stroke="none" /><circle cx="1079.2798748276591" cy="4274.116469239431" r="5" fill="blue" stroke="none" /><circle cx="730.2422875228344" cy="4228.968864966099" r="5" fill="blue" stroke="none" /><circle cx="885.8163968364876" cy="4001.1842525039897" r="5" fill="blue" stroke="none" /><circle cx="879.610101627221" cy="4217.9925876090565" r="5" fill="blue" stroke="none" /><circle cx="1008.4032755596945" cy="4203.722754691307" r="5" fill="blue" stroke="none" /><circle cx="807.279000397832" cy="4329.0115561511975" r="5" fill="blue" stroke="none" /><circle cx="819.9371469701317" cy="3962" r="5" fill="blue" stroke="none" /><circle cx="933.1937695568371" cy="4263.505601922818" r="5" fill="blue" stroke="none" /><circle cx="786.7245577063898" cy="4317.062791200978" r="5" fill="blue" stroke="none" /><circle cx="926.424234274404" cy="4321.942190912558" r="5" fill="blue" stroke="none" /><circle cx="707.4886565549582" cy="4335.1304466504425" r="5" fill="blue" stroke="none" /><circle cx="1056.4515898352595" cy="4301.5268159196075" r="5" fill="blue" stroke="none" /><circle cx="662.8379550929247" cy="4322.083783756629" r="5" fill="blue" stroke="none" /><circle cx="812.5255900964183" cy="4301.364467990492" r="5" fill="blue" stroke="none" /><circle cx="794.8189118585175" cy="4326.873774643811" r="5" fill="blue" stroke="none" /><circle cx="955.7333595940992" cy="4029.1784984382243" r="5" fill="blue" stroke="none" /><circle cx="889.4275447105986" cy="4321.573141087087" r="5" fill="blue" stroke="none" /><circle cx="654.8285512220182" cy="3990.134900327682" r="5" fill="blue" stroke="none" /><circle cx="672.4352940539586" cy="4336.060987776436" r="5" fill="blue" stroke="none" /><circle cx="700.6203778278485" cy="4308.650114782495" r="5" fill="blue" stroke="none" /><circle cx="947.1771828242007" cy="4264.887238861082" r="5" fill="blue" stroke="none" /><circle cx="1088" cy="4329.414042175026" r="5" fill="blue" stroke="none" /><circle cx="681.8097363553325" cy="4232.447685805506" r="5" fill="blue" stroke="none" /><circle cx="710.8077315912662" cy="3975.9142451803027" r="5" fill="blue" stroke="none" /><circle cx="974.410211990885" cy="3985.6417059783507" r="5" fill="blue" stroke="none" /><circle cx="1009.6477188487193" cy="4326.046399975165" r="5" fill="blue" stroke="none" /><circle cx="1088" cy="4209.866016736175" r="5" fill="blue" stroke="none" /><circle cx="846.052127000881" cy="4344.356248505695" r="5" fill="blue" stroke="none" /><circle cx="678.7344899460147" cy="3962" r="5" fill="blue" stroke="none" /><circle cx="691.5087758442605" cy="4086.97699135131" r="5" fill="blue" stroke="none" /><circle cx="1001.4849074290256" cy="3962" r="5" fill="blue" stroke="none" /><circle cx="690.875667811523" cy="3981.4074839115124" r="5" fill="blue" stroke="none" /><circle cx="720.4212986051477" cy="4322.115919687092" r="5" fill="blue" stroke="none" /><circle cx="806.6893117503316" cy="4318.97402467703" r="5" fill="blue" stroke="none" /><circle cx="752.2086884574912" cy="4345" r="5" fill="blue" stroke="none" /><circle cx="967.5308224730501" cy="4333.3464756842695" r="5" fill="blue" stroke="none" /><circle cx="664.1571159177498" cy="4082.008266367956" r="5" fill="blue" stroke="none" /><circle cx="776.1658957327871" cy="4345" r="5" fill="blue" stroke="none" /><circle cx="1088" cy="4174.295896626922" r="5" fill="blue" stroke="none" /><circle cx="909.8610951873067" cy="4345" r="5" fill="blue" stroke="none" /><circle cx="870.941669440961" cy="4265.437935072276" r="5" fill="blue" stroke="none" /><circle cx="1026.6050134682014" cy="4336.211699645891" r="5" fill="blue" stroke="none" /><circle cx="1041.636984523818" cy="4345" r="5" fill="blue" stroke="none" /><circle cx="1065.8375913436576" cy="4226.004766471931" r="5" fill="blue" stroke="none" /><circle cx="772.6887880727728" cy="3972.1775994527698" r="5" fill="blue" stroke="none" /><circle cx="766.0252265375669" cy="4345" r="5" fill="blue" stroke="none" /><circle cx="825.1956969805098" cy="4335.799256379512" r="5" fill="blue" stroke="none" /><circle cx="1070.2249108754056" cy="4285.066293853619" r="5" fill="blue" stroke="none" /><circle cx="656.0143515295318" cy="3962.5923174333225" r="5" fill="blue" stroke="none" /><circle cx="1051.6379306505432" cy="4345" r="5" fill="blue" stroke="none" /><circle cx="647.013913723646" cy="3980.402023910636" r="5" fill="blue" stroke="none" /><circle cx="746.323354669538" cy="3995.602499045489" r="5" fill="blue" stroke="none" /><circle cx="674.0797738848376" cy="4055.124224868944" r="5" fill="blue" stroke="none" /><circle cx="964.0610320242599" cy="4323.723825881152" r="5" fill="blue" stroke="none" /><circle cx="709.0989020576286" cy="4345" r="5" fill="blue" stroke="none" /><circle cx="896.8600938343845" cy="4330.585468087943" r="5" fill="blue" stroke="none" /><circle cx="945.2818538376" cy="3967.008079348762" r="5" fill="blue" stroke="none" /><circle cx="646" cy="3994.9033656210836" r="5" fill="blue" stroke="none" /><circle cx="646" cy="3962" r="5" fill="blue" stroke="none" /><circle cx="1049.7888299860651" cy="4310.105894751407" r="5" fill="blue" stroke="none" /><circle cx="831.8059024432486" cy="4317.212363935645" r="5" fill="blue" stroke="none" /><circle cx="891.4607997330547" cy="4339.0412017873605" r="5" fill="blue" stroke="none" /><circle cx="965.8247776764163" cy="4015.0765383484872" r="5" fill="blue" stroke="none" /><circle cx="967.2231270843258" cy="3978.667682289767" r="5" fill="blue" stroke="none" /><circle cx="1088" cy="4307.75174217352" r="5" fill="blue" stroke="none" /><circle cx="1080.3867588527062" cy="3971.8893826350504" r="5" fill="blue" stroke="none" /><circle cx="1069.6971474888182" cy="4200.568481854229" r="5" fill="blue" stroke="none" /><circle cx="926.69778516233" cy="4342.682261739841" r="5" fill="blue" stroke="none" /><circle cx="1073.9421066486666" cy="4294.368865075702" r="5" fill="blue" stroke="none" /><circle cx="919.5491560448513" cy="4268.744075026967" r="5" fill="blue" stroke="none" /><circle cx="917.4851149794468" cy="4338.496385140348" r="5" fill="blue" stroke="none" /><circle cx="718.7050684398221" cy="4342.117076763617" r="5" fill="blue" stroke="none" /><circle cx="749.08312762014" cy="3972.993133227582" r="5" fill="blue" stroke="none" /><circle cx="1021.7853350746324" cy="4300.160890239245" r="5" fill="blue" stroke="none" /><circle cx="696.1943568702377" cy="4020.994992543129" r="5" fill="blue" stroke="none" /><circle cx="850.0389546990392" cy="3993.7486104332697" r="5" fill="blue" stroke="none" /><circle cx="661.1581227789943" cy="3971.1967605788846" r="5" fill="blue" stroke="none" /><circle cx="841.7548490170727" cy="4318.335157922104" r="5" fill="blue" stroke="none" /><circle cx="1066.700869679489" cy="4275.506815660536" r="5" fill="blue" stroke="none" /><circle cx="955.1104186959178" cy="3971.970536288984" r="5" fill="blue" stroke="none" /><circle cx="817.1022655219084" cy="4345" r="5" fill="blue" stroke="none" /><circle cx="936.4760938384666" cy="4339.320682767715" r="5" fill="blue" stroke="none" /><circle cx="657.2351241111946" cy="4345" r="5" fill="blue" stroke="none" /><circle cx="680.9267592362851" cy="4303.461603793722" r="5" fill="blue" stroke="none" /><circle cx="739.7400133511592" cy="4342.242168894158" r="5" fill="blue" stroke="none" /><circle cx="754.5511333840454" cy="4327.029816528106" r="5" fill="blue" stroke="none" /><circle cx="1001.8854849671364" cy="4307.484714903829" r="5" fill="blue" stroke="none" /><circle cx="1031.7552386516866" cy="4301.02997515531" r="5" fill="blue" stroke="none" /><circle cx="906.7593336615271" cy="3962" r="5" fill="blue" stroke="none" /><circle cx="670.4287116879148" cy="3975.077174157369" r="5" fill="blue" stroke="none" /><circle cx="916.6983344332801" cy="4326.284739414151" r="5" fill="blue" stroke="none" /><circle cx="973.9523201683685" cy="4325.664098552337" r="5" fill="blue" stroke="none" /><circle cx="646.2907757785382" cy="4286.896066585711" r="5" fill="blue" stroke="none" /><circle cx="686.3702042701905" cy="4073.8791953552145" r="5" fill="blue" stroke="none" /><circle cx="986.8978645661305" cy="3978.6275193249085" r="5" fill="blue" stroke="none" /><circle cx="1088" cy="4295.750147583259" r="5" fill="blue" stroke="none" /><circle cx="976.2817337962789" cy="4292.090986815869" r="5" fill="blue" stroke="none" /><circle cx="821.7657480252652" cy="4306.217841490098" r="5" fill="blue" stroke="none" /><circle cx="648.071691348753" cy="4335.0652100772795" r="5" fill="blue" stroke="none" /><circle cx="789.7079189528981" cy="4335.645605401519" r="5" fill="blue" stroke="none" /><circle cx="1075.1787544174438" cy="4182.758872828215" r="5" fill="blue" stroke="none" /><circle cx="697.0859248406462" cy="3962" r="5" fill="blue" stroke="none" /><circle cx="738.2679678107544" cy="3980.8142072294527" r="5" fill="blue" stroke="none" /><circle cx="654.2042922582458" cy="4327.141709303303" r="5" fill="blue" stroke="none" /><circle cx="924.154611144131" cy="4311.3864180595565" r="5" fill="blue" stroke="none" /><circle cx="1085.8755406718672" cy="4164.453796935066" r="5" fill="blue" stroke="none" /><circle cx="865.1137137954264" cy="3967.095254418221" r="5" fill="blue" stroke="none" /><circle cx="785.8829692093049" cy="3971.077978461779" r="5" fill="blue" stroke="none" /><circle cx="1031.6351974289155" cy="4345" r="5" fill="blue" stroke="none" /><circle cx="1040.5611251968905" cy="4306.1718416045405" r="5" fill="blue" stroke="none" /><circle cx="647.0270249638068" cy="4307.177010926508" r="5" fill="blue" stroke="none" /><circle cx="650.8193487790996" cy="3971.149016313649" r="5" fill="blue" stroke="none" /><circle cx="659.7242889185346" cy="4300.572214907037" r="5" fill="blue" stroke="none" /><circle cx="1078.313752479023" cy="4250.973629221819" r="5" fill="blue" stroke="none" /><circle cx="1058.561649921315" cy="4337.76368992582" r="5" fill="blue" stroke="none" /><circle cx="831.0291572774739" cy="4003.5301370659913" r="5" fill="blue" stroke="none" /><circle cx="1081.6566610551663" cy="4287.985622377628" r="5" fill="blue" stroke="none" /><circle cx="669.9477783535776" cy="4300.599812560565" r="5" fill="blue" stroke="none" /><circle cx="646" cy="4021.651152614272" r="5" fill="blue" stroke="none" /><circle cx="796.8266192045942" cy="4317.07500090565" r="5" fill="blue" stroke="none" /><circle cx="835.4169207419881" cy="4337.207065473048" r="5" fill="blue" stroke="none" /><circle cx="991.4663906507748" cy="3962" r="5" fill="blue" stroke="none" /><circle cx="1088" cy="4248.48560981889" r="5" fill="blue" stroke="none" /><circle cx="665.3516748510291" cy="3990.121598017874" r="5" fill="blue" stroke="none" /><circle cx="695.2507779248523" cy="3972.279585743105" r="5" fill="blue" stroke="none" /><circle cx="693.7410336120546" cy="4067.0993902273617" r="5" fill="blue" stroke="none" /><circle cx="730.8970129967418" cy="4335.022706946667" r="5" fill="blue" stroke="none" /><circle cx="1031.827417602536" cy="4311.04944361152" r="5" fill="blue" stroke="none" /><circle cx="1006.0945724345127" cy="4335.405339572603" r="5" fill="blue" stroke="none" /><circle cx="836.6077178046442" cy="4327.22811381226" r="5" fill="blue" stroke="none" /><circle cx="1011.0461019041757" cy="3990.188944606861" r="5" fill="blue" stroke="none" /><circle cx="690.8898184441789" cy="4326.156959252023" r="5" fill="blue" stroke="none" /><circle cx="646" cy="4262.254204024175" r="5" fill="blue" stroke="none" /><circle cx="680.1298324236751" cy="3972.5852942260485" r="5" fill="blue" stroke="none" /><circle cx="974.6055516481317" cy="3962" r="5" fill="blue" stroke="none" /><circle cx="1060.222280330668" cy="4283.5547495811425" r="5" fill="blue" stroke="none" /><circle cx="695.545051271455" cy="4317.286812782295" r="5" fill="blue" stroke="none" /><circle cx="700.8059096824815" cy="4327.652093346057" r="5" fill="blue" stroke="none" /><circle cx="1022.6790291935853" cy="3962" r="5" fill="blue" stroke="none" /><circle cx="959.2725847628208" cy="4311.418516224935" r="5" fill="blue" stroke="none" /><circle cx="1087.6031952566082" cy="4221.72747343757" r="5" fill="blue" stroke="none" /><circle cx="999.6209053862503" cy="4327.541015589783" r="5" fill="blue" stroke="none" /><circle cx="1088" cy="4269.212718225591" r="5" fill="blue" stroke="none" /><circle cx="720.3716556873801" cy="3983.857158003813" r="5" fill="blue" stroke="none" /><circle cx="1011.8381957669538" cy="4309.285218224678" r="5" fill="blue" stroke="none" /><circle cx="786.1661089908998" cy="4345" r="5" fill="blue" stroke="none" /><circle cx="851.1791946644676" cy="4314.835658684784" r="5" fill="blue" stroke="none" /><circle cx="1015.973143131881" cy="4136.241613518848" r="5" fill="blue" stroke="none" /><circle cx="784.8158811559443" cy="4326.883419655554" r="5" fill="blue" stroke="none" /><circle cx="697.58288297071" cy="4345" r="5" fill="blue" stroke="none" /><circle cx="826.6950982327206" cy="4325.845543562869" r="5" fill="blue" stroke="none" /><circle cx="1038.210425601628" cy="4293.379909708418" r="5" fill="blue" stroke="none" /><circle cx="1088" cy="4339.427176922654" r="5" fill="blue" stroke="none" /><circle cx="913.3836487244175" cy="4316.734922126412" r="5" fill="blue" stroke="none" /><circle cx="779.6928305411489" cy="4335.600807417539" r="5" fill="blue" stroke="none" /><circle cx="794.6203022168543" cy="3962" r="5" fill="blue" stroke="none" /><circle cx="866.4347220416892" cy="4334.283413830975" r="5" fill="blue" stroke="none" /><circle cx="711.064809976179" cy="4325.771390133292" r="5" fill="blue" stroke="none" /><circle cx="671.6295895855322" cy="4036.002982888061" r="5" fill="blue" stroke="none" /><circle cx="874.6191541565465" cy="3982.537419123346" r="5" fill="blue" stroke="none" /><circle cx="980.1738831316201" cy="4105.109509317632" r="5" fill="blue" stroke="none" /><circle cx="646.476925183477" cy="4345" r="5" fill="blue" stroke="none" /><circle cx="1083.0999914937197" cy="4038.1832854354147" r="5" fill="blue" stroke="none" /><circle cx="762.1205653649404" cy="4095.1915785823076" r="5" fill="blue" stroke="none" /><circle cx="1078.8444902038482" cy="3962" r="5" fill="blue" stroke="none" /><circle cx="683.8512211207652" cy="4336.956677966054" r="5" fill="blue" stroke="none" /><circle cx="925.017717504181" cy="4331.85514468631" r="5" fill="blue" stroke="none" /><circle cx="1036.6059235901175" cy="4336.248438602414" r="5" fill="blue" stroke="none" /><circle cx="1007.8554020636534" cy="3971.2440232106883" r="5" fill="blue" stroke="none" /><circle cx="688.1086962756775" cy="4310.426935955752" r="5" fill="blue" stroke="none" /><circle cx="749.0360583231045" cy="3983.0856764986115" r="5" fill="blue" stroke="none" /><circle cx="721.8463228405928" cy="3973.935732378863" r="5" fill="blue" stroke="none" /><circle cx="1079.2572417914164" cy="4314.523970398373" r="5" fill="blue" stroke="none" /><circle cx="716.3487729145392" cy="4312.899769099398" r="5" fill="blue" stroke="none" /><circle cx="814.113060915877" cy="3970.53627987347" r="5" fill="blue" stroke="none" /><circle cx="749.1490853599051" cy="4335.448802763694" r="5" fill="blue" stroke="none" /><circle cx="1026.0475853203948" cy="4319.262672677997" r="5" fill="blue" stroke="none" /><circle cx="1049.0526179419505" cy="4320.104565680708" r="5" fill="blue" stroke="none" /><circle cx="691.1786654042492" cy="4053.559495427745" r="5" fill="blue" stroke="none" /><circle cx="1046.9289892695615" cy="4298.448464658601" r="5" fill="blue" stroke="none" /><circle cx="667.8656541381874" cy="4345" r="5" fill="blue" stroke="none" /><circle cx="1008.9572548246638" cy="4345" r="5" fill="blue" stroke="none" /><circle cx="988.471994163373" cy="4345" r="5" fill="blue" stroke="none" /><circle cx="1088" cy="4191.817903587316" r="5" fill="blue" stroke="none" /><circle cx="1079.118372439208" cy="4334.764065787628" r="5" fill="blue" stroke="none" /><circle cx="741.0766710517364" cy="4068.017000245539" r="5" fill="blue" stroke="none" /><circle cx="966.3133845817299" cy="4304.280026858576" r="5" fill="blue" stroke="none" /><circle cx="1011.6943384889133" cy="3962" r="5" fill="blue" stroke="none" /><circle cx="955.6462392687431" cy="4301.255141492488" r="5" fill="blue" stroke="none" /><circle cx="885.6743876501074" cy="4330.872681713827" r="5" fill="blue" stroke="none" /><circle cx="772.3098774450692" cy="4091.7636013015076" r="5" fill="blue" stroke="none" /><circle cx="656.1985128066782" cy="4025.010844191196" r="5" fill="blue" stroke="none" /><circle cx="658.2169312489962" cy="4290.648241679714" r="5" fill="blue" stroke="none" /><circle cx="946.4528359947648" cy="3977.018403372952" r="5" fill="blue" stroke="none" /><circle cx="1031.734184569043" cy="4327.510000338066" r="5" fill="blue" stroke="none" /><circle cx="1032.0908665955342" cy="3971.8146399676525" r="5" fill="blue" stroke="none" /><circle cx="992.3715807222893" cy="4334.4584947075045" r="5" fill="blue" stroke="none" /><circle cx="1083.932919980398" cy="4133.147557967167" r="5" fill="blue" stroke="none" /><circle cx="1079.6573842410764" cy="4239.549066078696" r="5" fill="blue" stroke="none" /><circle cx="694.4705314940965" cy="4335.494639978201" r="5" fill="blue" stroke="none" /><circle cx="967.0930723780377" cy="3968.6287719239804" r="5" fill="blue" stroke="none" /><circle cx="937.9086906290014" cy="4272.641607646729" r="5" fill="blue" stroke="none" /><circle cx="1069.1145690987855" cy="4334.185162326111" r="5" fill="blue" stroke="none" /><circle cx="719.3471554124671" cy="4332.07012185335" r="5" fill="blue" stroke="none" /><circle cx="1059.709797238892" cy="4320.968199937242" r="5" fill="blue" stroke="none" /><circle cx="1072.2383049685932" cy="3978.0696500261884" r="5" fill="blue" stroke="none" /><circle cx="1021.6201002656247" cy="4344.880751265031" r="5" fill="blue" stroke="none" /><circle cx="909.1691785223684" cy="4332.874141057704" r="5" fill="blue" stroke="none" /><circle cx="1088" cy="4319.412860332791" r="5" fill="blue" stroke="none" /><circle cx="761.6365148125219" cy="4308.371902388129" r="5" fill="blue" stroke="none" /><circle cx="1058.1873726612928" cy="3962" r="5" fill="blue" stroke="none" /><circle cx="672.7028380565359" cy="4320.379786425613" r="5" fill="blue" stroke="none" /><circle cx="914.3528652486984" cy="3968.5509362119747" r="5" fill="blue" stroke="none" /><circle cx="831.7853074374698" cy="4307.1713515995425" r="5" fill="blue" stroke="none" /><circle cx="977.0589355338183" cy="3975.997391698683" r="5" fill="blue" stroke="none" /><circle cx="763.2724966152963" cy="4229.00602375887" r="5" fill="blue" stroke="none" /><circle cx="1059.7700596681557" cy="4310.964607147018" r="5" fill="blue" stroke="none" /><circle cx="952.0822810769622" cy="4344.689482322588" r="5" fill="blue" stroke="none" /><circle cx="1006.6584999140194" cy="3981.1928412163775" r="5" fill="blue" stroke="none" /><circle cx="944.2640699637043" cy="4311.441233106437" r="5" fill="blue" stroke="none" /><circle cx="1066.5132632208567" cy="4343.877001412478" r="5" fill="blue" stroke="none" /><circle cx="816.620851460963" cy="4325.255121871895" r="5" fill="blue" stroke="none" /><circle cx="953.710259621379" cy="4319.772846653661" r="5" fill="blue" stroke="none" /><circle cx="799.709198226954" cy="4335.624081164502" r="5" fill="blue" stroke="none" /><circle cx="1021.0231996259798" cy="4327.912811189158" r="5" fill="blue" stroke="none" /><circle cx="1045.8777975802889" cy="3962" r="5" fill="blue" stroke="none" /><circle cx="924.1384442247814" cy="3965.311686451375" r="5" fill="blue" stroke="none" /><circle cx="748.3846072977167" cy="3962" r="5" fill="blue" stroke="none" /><circle cx="774.6655201523761" cy="4326.9423221061215" r="5" fill="blue" stroke="none" /><circle cx="657.1048449342411" cy="3980.364463703199" r="5" fill="blue" stroke="none" /><circle cx="996.6503366180921" cy="3980.977254209423" r="5" fill="blue" stroke="none" /><circle cx="781.6555620550512" cy="4308.424247439287" r="5" fill="blue" stroke="none" /><circle cx="923.8871782688714" cy="4277.781332401063" r="5" fill="blue" stroke="none" /><circle cx="798.3487748681058" cy="4300.791840146625" r="5" fill="blue" stroke="none" /><circle cx="730.0443645243895" cy="4325.019500153723" r="5" fill="blue" stroke="none" /><circle cx="1074.0694723677832" cy="4220.266458878642" r="5" fill="blue" stroke="none" /><circle cx="1045.3271474214107" cy="3971.9854274444515" r="5" fill="blue" stroke="none" /><circle cx="909.9402827265209" cy="4307.137230999479" r="5" fill="blue" stroke="none" /><circle cx="771.6372618017277" cy="4308.473803611788" r="5" fill="blue" stroke="none" /><circle cx="1078.8100934594017" cy="4196.214815895043" r="5" fill="blue" stroke="none" /><circle cx="1077.9985397084695" cy="4209.403278028226" r="5" fill="blue" stroke="none" /><circle cx="659.9324985009221" cy="4064.1084858510253" r="5" fill="blue" stroke="none" /><circle cx="1078.3914682874263" cy="4304.457882198536" r="5" fill="blue" stroke="none" /><circle cx="879.5099686615271" cy="4322.947374444074" r="5" fill="blue" stroke="none" /><circle cx="682.9157455300024" cy="4222.507014093411" r="5" fill="blue" stroke="none" /><circle cx="660.5392759271257" cy="3999.080615084852" r="5" fill="blue" stroke="none" /><circle cx="780.39169476395" cy="4052.0407877055227" r="5" fill="blue" stroke="none" /><circle cx="1069.1837080891457" cy="4324.174979802486" r="5" fill="blue" stroke="none" /></svg>