<svg viewBox="0 0 8328 3370" xmlns="http://www.w3.org/2000/svg"><rect x="0" y="0" width="8328" height="3370" fill="lightyellow" stroke="none "/><rect x="4033" y="1907" width="1600" height="698" fill="white" stroke="black "/><circle cx="3268" cy="2026" r="5" fill="green" stroke="none" /><circle cx="1952" cy="1609" r="5" fill="green" stroke="none" /><circle cx="8029" cy="1289" r="5" fill="green" stroke="none" /><circle cx="3337" cy="3260" r="5" fill="green" stroke="none" /><circle cx="2896" cy="680" r="5" fill="green" stroke="none" /><circle cx="7004" cy="513" r="5" fill="green" stroke="none" /><circle cx="7893" cy="2387" r="5" fill="green" stroke="none" /><circle cx="3323" cy="1118" r="5" fill="green" stroke="none" /><circle cx="7816" cy="2501" r="5" fill="green" stroke="none" /><circle cx="4063" cy="822" r="5" fill="green" stroke="none" /><circle cx="5614" cy="3316" r="5" fill="green" stroke="none" /><circle cx="7330" cy="823" r="5" fill="green" stroke="none" /><circle cx="4689" cy="2652" r="5" fill="green" stroke="none" /><circle cx="3708" cy="2233" r="5" fill="green" stroke="none" /><circle cx="5028" cy="2739" r="5" fill="green" stroke="none" /><circle cx="6833" cy="1600" r="5" fill="green" stroke="none" /><circle cx="6314" cy="2748" r="5" fill="green" stroke="none" /><circle cx="5564" cy="3119" r="5" fill="green" stroke="none" /><circle cx="1010" cy="765" r="5" fill="green" stroke="none" /><circle cx="7168" cy="1386" r="5" fill="green" stroke="none" /><circle cx="7444" cy="392" r="5" fill="green" stroke="none" /><circle cx="2672" cy="2423" r="5" fill="green" stroke="none" /><circle cx="7617" cy="501" r="5" fill="green" stroke="none" /><circle cx="1628" cy="1136" r="5" fill="green" stroke="none" /><circle cx="7045" cy="2276" r="5" fill="green" stroke="none" /><circle cx="27" cy="488" r="5" fill="green" stroke="none" /><circle cx="7190" cy="612" r="5" fill="green" stroke="none" /><circle cx="6859" cy="303" r="5" fill="green" stroke="none" /><circle cx="2442" cy="2340" r="5" fill="green" stroke="none" /><circle cx="5761" cy="704" r="5" fill="green" stroke="none" /><circle cx="3077" cy="149" r="5" fill="green" stroke="none" /><circle cx="5932" cy="2901" r="5" fill="green" stroke="none" /><circle cx="1835" cy="1562" r="5" fill="green" stroke="none" /><circle cx="6510" cy="3244" r="5" fill="green" stroke="none" /><circle cx="7596" cy="885" r="5" fill="green" stroke="none" /><circle cx="4312" cy="2953" r="5" fill="green" stroke="none" /><circle cx="5827" cy="1473" r="5" fill="green" stroke="none" /><circle cx="705" cy="663" r="5" fill="green" stroke="none" /><circle cx="5665" cy="2988" r="5" fill="green" stroke="none" /><circle cx="874" cy="203" r="5" fill="green" stroke="none" /><circle cx="5470" cy="3007" r="5" fill="green" stroke="none" /><circle cx="6739" cy="696" r="5" fill="green" stroke="none" /><circle cx="1307" cy="1921" r="5" fill="green" stroke="none" /><circle cx="1726" cy="3118" r="5" fill="green" stroke="none" /><circle cx="7921" cy="3293" r="5" fill="green" stroke="none" /><circle cx="2242" cy="3197" r="5" fill="green" stroke="none" /><circle cx="5076" cy="2827" r="5" fill="green" stroke="none" /><circle cx="7069" cy="3106" r="5" fill="green" stroke="none" /><circle cx="686" cy="947" r="5" fill="green" stroke="none" /><circle cx="2082" cy="2638" r="5" fill="green" stroke="none" /><circle cx="4062" cy="1147" r="5" fill="green" stroke="none" /><circle cx="3102" cy="25" r="5" fill="green" stroke="none" /><circle cx="1957" cy="436" r="5" fill="green" stroke="none" /><circle cx="7151" cy="363" r="5" fill="green" stroke="none" /><circle cx="7230" cy="2240" r="5" fill="green" stroke="none" /><circle cx="2877" cy="3312" r="5" fill="green" stroke="none" /><circle cx="3786" cy="2190" r="5" fill="green" stroke="none" /><circle cx="6247" cy="3058" r="5" fill="green" stroke="none" /><circle cx="6964" cy="2943" r="5" fill="green" stroke="none" /><circle cx="6195" cy="1835" r="5" fill="green" stroke="none" /><circle cx="6619" cy="1867" r="5" fill="green" stroke="none" /><circle cx="4327" cy="893" r="5" fill="green" stroke="none" /><circle cx="4226" cy="1727" r="5" fill="green" stroke="none" /><circle cx="6681" cy="2071" r="5" fill="green" stroke="none" /><circle cx="7230" cy="4" r="5" fill="green" stroke="none" /><circle cx="3829" cy="1392" r="5" fill="green" stroke="none" /><circle cx="2489" cy="750" r="5" fill="green" stroke="none" /><circle cx="6828" cy="1255" r="5" fill="green" stroke="none" /><circle cx="3139" cy="56" r="5" fill="green" stroke="none" /><circle cx="6833" cy="1284" r="5" fill="green" stroke="none" /><circle cx="6241" cy="954" r="5" fill="green" stroke="none" /><circle cx="1196" cy="2330" r="5" fill="green" stroke="none" /><circle cx="7408" cy="1952" r="5" fill="green" stroke="none" /><circle cx="3093" cy="749" r="5" fill="green" stroke="none" /><circle cx="3441" cy="668" r="5" fill="green" stroke="none" /><circle cx="5281" cy="1590" r="5" fill="green" stroke="none" /><circle cx="7794" cy="1445" r="5" fill="green" stroke="none" /><circle cx="2100" cy="1795" r="5" fill="green" stroke="none" /><circle cx="534" cy="1991" r="5" fill="green" stroke="none" /><circle cx="5015" cy="2837" r="5" fill="green" stroke="none" /><circle cx="5550" cy="25" r="5" fill="green" stroke="none" /><circle cx="4424" cy="452" r="5" fill="green" stroke="none" /><circle cx="2512" cy="1887" r="5" fill="green" stroke="none" /><circle cx="4448" cy="564" r="5" fill="green" stroke="none" /><circle cx="5503" cy="1268" r="5" fill="green" stroke="none" /><circle cx="7447" cy="3133" r="5" fill="green" stroke="none" /><circle cx="3194" cy="1335" r="5" fill="green" stroke="none" /><circle cx="8141" cy="1076" r="5" fill="green" stroke="none" /><circle cx="3172" cy="407" r="5" fill="green" stroke="none" /><circle cx="2924" cy="673" r="5" fill="green" stroke="none" /><circle cx="442" cy="1654" r="5" fill="green" stroke="none" /><circle cx="5375" cy="293" r="5" fill="green" stroke="none" /><circle cx="5002" cy="3192" r="5" fill="green" stroke="none" /><circle cx="199" cy="1850" r="5" fill="green" stroke="none" /><circle cx="270" cy="2942" r="5" fill="green" stroke="none" /><circle cx="662" cy="289" r="5" fill="green" stroke="none" /><circle cx="4470" cy="2636" r="5" fill="green" stroke="none" /><circle cx="7871" cy="3340" r="5" fill="green" stroke="none" /><circle cx="402" cy="990" r="5" fill="green" stroke="none" /><circle cx="2161" cy="3177" r="5" fill="green" stroke="none" /><circle cx="3727" cy="2307" r="5" fill="green" stroke="none" /><circle cx="5304" cy="386" r="5" fill="green" stroke="none" /><circle cx="5400" cy="3318" r="5" fill="green" stroke="none" /><circle cx="6708" cy="2069" r="5" fill="green" stroke="none" /><circle cx="6407" cy="1210" r="5" fill="green" stroke="none" /><circle cx="6074" cy="704" r="5" fill="green" stroke="none" /><circle cx="3296" cy="55" r="5" fill="green" stroke="none" /><circle cx="6120" cy="2760" r="5" fill="green" stroke="none" /><circle cx="5817" cy="2956" r="5" fill="green" stroke="none" /><circle cx="3084" cy="968" r="5" fill="green" stroke="none" /><circle cx="1752" cy="1302" r="5" fill="green" stroke="none" /><circle cx="479" cy="1714" r="5" fill="green" stroke="none" /><circle cx="2975" cy="215" r="5" fill="green" stroke="none" /><circle cx="3780" cy="1166" r="5" fill="green" stroke="none" /><circle cx="1851" cy="2629" r="5" fill="green" stroke="none" /><circle cx="2926" cy="278" r="5" fill="green" stroke="none" /><circle cx="1901" cy="3014" r="5" fill="green" stroke="none" /><circle cx="7687" cy="2973" r="5" fill="green" stroke="none" /><circle cx="3325" cy="987" r="5" fill="green" stroke="none" /><circle cx="2957" cy="57" r="5" fill="green" stroke="none" /><circle cx="5636" cy="732" r="5" fill="green" stroke="none" /><circle cx="4075" cy="946" r="5" fill="green" stroke="none" /><circle cx="3263" cy="1416" r="5" fill="green" stroke="none" /><circle cx="2455" cy="877" r="5" fill="green" stroke="none" /><circle cx="3826" cy="1640" r="5" fill="green" stroke="none" /><circle cx="1805" cy="386" r="5" fill="green" stroke="none" /><circle cx="289" cy="670" r="5" fill="green" stroke="none" /><circle cx="5519" cy="1354" r="5" fill="green" stroke="none" /><circle cx="7828" cy="192" r="5" fill="green" stroke="none" /><circle cx="3474" cy="2705" r="5" fill="green" stroke="none" /><circle cx="4363" cy="1572" r="5" fill="green" stroke="none" /><circle cx="4404" cy="2735" r="5" fill="green" stroke="none" /><circle cx="1119" cy="2761" r="5" fill="green" stroke="none" /><circle cx="3404" cy="1254" r="5" fill="green" stroke="none" /><circle cx="5905" cy="2615" r="5" fill="green" stroke="none" /><circle cx="897" cy="1375" r="5" fill="green" stroke="none" /><circle cx="843" cy="2608" r="5" fill="green" stroke="none" /><circle cx="8034" cy="1082" r="5" fill="green" stroke="none" /><circle cx="6937" cy="222" r="5" fill="green" stroke="none" /><circle cx="5254" cy="2827" r="5" fill="green" stroke="none" /><circle cx="7109" cy="451" r="5" fill="green" stroke="none" /><circle cx="6966" cy="2923" r="5" fill="green" stroke="none" /><circle cx="7763" cy="720" r="5" fill="green" stroke="none" /><circle cx="3380" cy="3194" r="5" fill="green" stroke="none" /><circle cx="1164" cy="1362" r="5" fill="green" stroke="none" /><circle cx="6183" cy="1495" r="5" fill="green" stroke="none" /><circle cx="4338" cy="2649" r="5" fill="green" stroke="none" /><circle cx="6922" cy="464" r="5" fill="green" stroke="none" /><circle cx="343" cy="554" r="5" fill="green" stroke="none" /><circle cx="2300" cy="1451" r="5" fill="green" stroke="none" /><circle cx="5276" cy="371" r="5" fill="green" stroke="none" /><circle cx="4802" cy="880" r="5" fill="green" stroke="none" /><circle cx="5449" cy="726" r="5" fill="green" stroke="none" /><circle cx="2031" cy="302" r="5" fill="green" stroke="none" /><circle cx="3549" cy="1907" r="5" fill="green" stroke="none" /><circle cx="7393" cy="1989" r="5" fill="green" stroke="none" /><circle cx="3802" cy="554" r="5" fill="green" stroke="none" /><circle cx="7238" cy="1521" r="5" fill="green" stroke="none" /><circle cx="3747" cy="3282" r="5" fill="green" stroke="none" /><circle cx="2571" cy="745" r="5" fill="green" stroke="none" /><circle cx="3602" cy="3223" r="5" fill="green" stroke="none" /><circle cx="1423" cy="1104" r="5" fill="green" stroke="none" /><circle cx="5905" cy="1662" r="5" fill="green" stroke="none" /><circle cx="6778" cy="1696" r="5" fill="green" stroke="none" /><circle cx="1197" cy="2436" r="5" fill="green" stroke="none" /><circle cx="2408" cy="92" r="5" fill="green" stroke="none" /><circle cx="6063" cy="1104" r="5" fill="green" stroke="none" /><circle cx="1906" cy="1242" r="5" fill="green" stroke="none" /><circle cx="4902" cy="2768" r="5" fill="green" stroke="none" /><circle cx="1607" cy="2905" r="5" fill="green" stroke="none" /><circle cx="5345" cy="1326" r="5" fill="green" stroke="none" /><circle cx="117" cy="1233" r="5" fill="green" stroke="none" /><circle cx="2760" cy="3116" r="5" fill="green" stroke="none" /><circle cx="3148" cy="1887" r="5" fill="green" stroke="none" /><circle cx="7420" cy="896" r="5" fill="green" stroke="none" /><circle cx="5692" cy="317" r="5" fill="green" stroke="none" /><circle cx="1520" cy="997" r="5" fill="green" stroke="none" /><circle cx="5676" cy="185" r="5" fill="green" stroke="none" /><circle cx="1485" cy="1439" r="5" fill="green" stroke="none" /><circle cx="7796" cy="1968" r="5" fill="green" stroke="none" /><circle cx="1479" cy="1297" r="5" fill="green" stroke="none" /><circle cx="637" cy="1016" r="5" fill="green" stroke="none" /><circle cx="2373" cy="3336" r="5" fill="green" stroke="none" /><circle cx="8292" cy="316" r="5" fill="green" stroke="none" /><circle cx="2387" cy="741" r="5" fill="green" stroke="none" /><circle cx="6994" cy="3198" r="5" fill="green" stroke="none" /><circle cx="6600" cy="2790" r="5" fill="green" stroke="none" /><circle cx="1920" cy="2658" r="5" fill="green" stroke="none" /><circle cx="5557" cy="1652" r="5" fill="green" stroke="none" /><circle cx="3533" cy="2617" r="5" fill="green" stroke="none" /><circle cx="5889" cy="2222" r="5" fill="green" stroke="none" /><circle cx="2823" cy="2540" r="5" fill="green" stroke="none" /><circle cx="3218" cy="2440" r="5" fill="green" stroke="none" /><circle cx="3161" cy="2022" r="5" fill="green" stroke="none" /><circle cx="3021" cy="1085" r="5" fill="green" stroke="none" /><circle cx="5463" cy="663" r="5" fill="green" stroke="none" /><circle cx="4036" cy="423" r="5" fill="green" stroke="none" /><circle cx="3324" cy="2262" r="5" fill="green" stroke="none" /><circle cx="7485" cy="2105" r="5" fill="green" stroke="none" /><circle cx="1309" cy="764" r="5" fill="green" stroke="none" /><circle cx="7800" cy="194" r="5" fill="green" stroke="none" /><circle cx="2738" cy="3272" r="5" fill="green" stroke="none" /><circle cx="2031" cy="1429" r="5" fill="green" stroke="none" /><circle cx="74" cy="2284" r="5" fill="green" stroke="none" /><circle cx="5170" cy="1466" r="5" fill="green" stroke="none" /><circle cx="4149" cy="1489" r="5" fill="green" stroke="none" /><circle cx="3070" cy="2504" r="5" fill="green" stroke="none" /><circle cx="4067" cy="914" r="5" fill="green" stroke="none" /><circle cx="1293" cy="1764" r="5" fill="green" stroke="none" /><circle cx="1796" cy="106" r="5" fill="green" stroke="none" /><circle cx="6447" cy="1716" r="5" fill="green" stroke="none" /><circle cx="1015" cy="536" r="5" fill="green" stroke="none" /><circle cx="7982" cy="2402" r="5" fill="green" stroke="none" /><circle cx="7945" cy="2627" r="5" fill="green" stroke="none" /><circle cx="6286" cy="1865" r="5" fill="green" stroke="none" /><circle cx="899" cy="336" r="5" fill="green" stroke="none" /><circle cx="3657" cy="1475" r="5" fill="green" stroke="none" /><circle cx="8045" cy="1792" r="5" fill="green" stroke="none" /><circle cx="3234" cy="1834" r="5" fill="green" stroke="none" /><circle cx="1540" cy="860" r="5" fill="green" stroke="none" /><circle cx="7241" cy="397" r="5" fill="green" stroke="none" /><circle cx="7787" cy="2402" r="5" fill="green" stroke="none" /><circle cx="1922" cy="3256" r="5" fill="green" stroke="none" /><circle cx="2177" cy="244" r="5" fill="green" stroke="none" /><circle cx="2757" cy="626" r="5" fill="green" stroke="none" /><circle cx="1186" cy="1055" r="5" fill="green" stroke="none" /><circle cx="7258" cy="202" r="5" fill="green" stroke="none" /><circle cx="7703" cy="1288" r="5" fill="green" stroke="none" /><circle cx="1387" cy="2362" r="5" fill="green" stroke="none" /><circle cx="7452" cy="3202" r="5" fill="green" stroke="none" /><circle cx="4200" cy="919" r="5" fill="green" stroke="none" /><circle cx="3174" cy="2942" r="5" fill="green" stroke="none" /><circle cx="4526" cy="2751" r="5" fill="green" stroke="none" /><circle cx="7503" cy="2888" r="5" fill="green" stroke="none" /><circle cx="4028" cy="2643" r="5" fill="green" stroke="none" /><circle cx="7802" cy="1112" r="5" fill="green" stroke="none" /><circle cx="5733" cy="761" r="5" fill="green" stroke="none" /><circle cx="1153" cy="3350" r="5" fill="green" stroke="none" /><circle cx="1177" cy="234" r="5" fill="green" stroke="none" /><circle cx="8259" cy="1090" r="5" fill="green" stroke="none" /><circle cx="5598" cy="2907" r="5" fill="green" stroke="none" /><circle cx="7663" cy="2701" r="5" fill="green" stroke="none" /><circle cx="2657" cy="510" r="5" fill="green" stroke="none" /><circle cx="954" cy="836" r="5" fill="green" stroke="none" /><circle cx="5413" cy="1533" r="5" fill="green" stroke="none" /><circle cx="5527" cy="3186" r="5" fill="green" stroke="none" /><circle cx="4497" cy="97" r="5" fill="green" stroke="none" /><circle cx="6961" cy="1523" r="5" fill="green" stroke="none" /><circle cx="7080" cy="512" r="5" fill="green" stroke="none" /><circle cx="6686" cy="302" r="5" fill="green" stroke="none" /><circle cx="6536" cy="837" r="5" fill="green" stroke="none" /><circle cx="4960" cy="2746" r="5" fill="green" stroke="none" /><circle cx="2101" cy="916" r="5" fill="green" stroke="none" /><circle cx="2950" cy="480" r="5" fill="green" stroke="none" /><circle cx="3730" cy="600" r="5" fill="green" stroke="none" /><circle cx="4598" cy="1509" r="5" fill="green" stroke="none" /><circle cx="7889" cy="1565" r="5" fill="green" stroke="none" /><circle cx="6104" cy="439" r="5" fill="green" stroke="none" /><circle cx="7309" cy="1755" r="5" fill="green" stroke="none" /><circle cx="7797" cy="2184" r="5" fill="green" stroke="none" /><circle cx="762" cy="820" r="5" fill="green" stroke="none" /><circle cx="316" cy="1006" r="5" fill="green" stroke="none" /><circle cx="136" cy="431" r="5" fill="green" stroke="none" /><circle cx="2361" cy="1676" r="5" fill="green" stroke="none" /><circle cx="2314" cy="2186" r="5" fill="green" stroke="none" /><circle cx="5776" cy="3253" r="5" fill="green" stroke="none" /><circle cx="2757" cy="1239" r="5" fill="green" stroke="none" /><circle cx="3161" cy="2509" r="5" fill="green" stroke="none" /><circle cx="4630" cy="1653" r="5" fill="green" stroke="none" /><circle cx="6507" cy="2440" r="5" fill="green" stroke="none" /><circle cx="168" cy="1723" r="5" fill="green" stroke="none" /><circle cx="2978" cy="2087" r="5" fill="green" stroke="none" /><circle cx="6042" cy="1730" r="5" fill="green" stroke="none" /><circle cx="2007" cy="1025" r="5" fill="green" stroke="none" /><circle cx="6023" cy="3237" r="5" fill="green" stroke="none" /><circle cx="6159" cy="600" r="5" fill="green" stroke="none" /><circle cx="2119" cy="2856" r="5" fill="green" stroke="none" /><circle cx="4760" cy="654" r="5" fill="green" stroke="none" /><circle cx="4803" cy="1783" r="5" fill="green" stroke="none" /><circle cx="2225" cy="1851" r="5" fill="green" stroke="none" /><circle cx="3759" cy="1427" r="5" fill="green" stroke="none" /><circle cx="4600" cy="94" r="5" fill="green" stroke="none" /><circle cx="5161" cy="3128" r="5" fill="green" stroke="none" /><circle cx="4669" cy="1248" r="5" fill="green" stroke="none" /><circle cx="6411" cy="2971" r="5" fill="green" stroke="none" /><circle cx="109" cy="156" r="5" fill="green" stroke="none" /><circle cx="5845" cy="2223" r="5" fill="green" stroke="none" /><circle cx="948" cy="3368" r="5" fill="green" stroke="none" /><circle cx="8284" cy="3111" r="5" fill="green" stroke="none" /><circle cx="1078" cy="211" r="5" fill="green" stroke="none" /><circle cx="8071" cy="3240" r="5" fill="green" stroke="none" /><circle cx="3005" cy="270" r="5" fill="green" stroke="none" /><circle cx="4133" cy="1757" r="5" fill="green" stroke="none" /><circle cx="1160" cy="792" r="5" fill="green" stroke="none" /><circle cx="4265" cy="2833" r="5" fill="green" stroke="none" /><circle cx="3653" cy="3320" r="5" fill="green" stroke="none" /><circle cx="6961" cy="1814" r="5" fill="green" stroke="none" /><circle cx="8216" cy="622" r="5" fill="green" stroke="none" /><circle cx="8107" cy="1559" r="5" fill="green" stroke="none" /><circle cx="2775" cy="2632" r="5" fill="green" stroke="none" /><circle cx="7809" cy="1400" r="5" fill="green" stroke="none" /><circle cx="3113" cy="1007" r="5" fill="green" stroke="none" /><circle cx="7044" cy="1627" r="5" fill="green" stroke="none" /><circle cx="4385" cy="417" r="5" fill="green" stroke="none" /><circle cx="102" cy="1299" r="5" fill="green" stroke="none" /><circle cx="6721" cy="2303" r="5" fill="green" stroke="none" /><circle cx="3038" cy="339" r="5" fill="green" stroke="none" /><circle cx="6045" cy="1551" r="5" fill="green" stroke="none" /><circle cx="7164" cy="1989" r="5" fill="green" stroke="none" /><circle cx="2001" cy="632" r="5" fill="green" stroke="none" /><circle cx="7668" cy="2568" r="5" fill="green" stroke="none" /><circle cx="3277" cy="1108" r="5" fill="green" stroke="none" /><circle cx="1484" cy="1824" r="5" fill="green" stroke="none" /><circle cx="7518" cy="891" r="5" fill="green" stroke="none" /><circle cx="6408" cy="436" r="5" fill="green" stroke="none" /><circle cx="7144" cy="2635" r="5" fill="green" stroke="none" /><circle cx="2739" cy="2958" r="5" fill="green" stroke="none" /><circle cx="8319" cy="2003" r="5" fill="green" stroke="none" /><circle cx="7460" cy="343" r="5" fill="green" stroke="none" /><circle cx="5641" cy="1207" r="5" fill="green" stroke="none" /><circle cx="3288" cy="1656" r="5" fill="green" stroke="none" /><circle cx="5948" cy="906" r="5" fill="green" stroke="none" /><circle cx="5547" cy="3063" r="5" fill="green" stroke="none" /><circle cx="1611" cy="1953" r="5" fill="green" stroke="none" /><circle cx="5940" cy="710" r="5" fill="green" stroke="none" /><circle cx="5351" cy="1163" r="5" fill="green" stroke="none" /><circle cx="915" cy="3332" r="5" fill="green" stroke="none" /><circle cx="3352" cy="3263" r="5" fill="green" stroke="none" /><circle cx="7125" cy="1149" r="5" fill="green" stroke="none" /><circle cx="7991" cy="1612" r="5" fill="green" stroke="none" /><circle cx="6483" cy="467" r="5" fill="green" stroke="none" /><circle cx="4581" cy="2686" r="5" fill="green" stroke="none" /><circle cx="8282" cy="1118" r="5" fill="green" stroke="none" /><circle cx="4645" cy="2737" r="5" fill="green" stroke="none" /><circle cx="4725" cy="1254" r="5" fill="green" stroke="none" /><circle cx="3510" cy="3074" r="5" fill="green" stroke="none" /><circle cx="766" cy="3331" r="5" fill="green" stroke="none" /><circle cx="7475" cy="2090" r="5" fill="green" stroke="none" /><circle cx="7497" cy="1357" r="5" fill="green" stroke="none" /><circle cx="1206" cy="1633" r="5" fill="green" stroke="none" /><circle cx="966" cy="2834" r="5" fill="green" stroke="none" /><circle cx="3036" cy="1318" r="5" fill="green" stroke="none" /><circle cx="5118" cy="2957" r="5" fill="green" stroke="none" /><circle cx="5071" cy="2664" r="5" fill="green" stroke="none" /><circle cx="5536" cy="669" r="5" fill="green" stroke="none" /><circle cx="5653" cy="3113" r="5" fill="green" stroke="none" /><circle cx="7188" cy="1760" r="5" fill="green" stroke="none" /><circle cx="5212" cy="1827" r="5" fill="green" stroke="none" /><circle cx="7190" cy="1094" r="5" fill="green" stroke="none" /><circle cx="3387" cy="727" r="5" fill="green" stroke="none" /><circle cx="2120" cy="33" r="5" fill="green" stroke="none" /><circle cx="6220" cy="2182" r="5" fill="green" stroke="none" /><circle cx="1944" cy="1319" r="5" fill="green" stroke="none" /><circle cx="5212" cy="1762" r="5" fill="green" stroke="none" /><circle cx="4863" cy="190" r="5" fill="green" stroke="none" /><circle cx="1264" cy="1812" r="5" fill="green" stroke="none" /><circle cx="2826" cy="1035" r="5" fill="green" stroke="none" /><circle cx="5510" cy="2899" r="5" fill="green" stroke="none" /><circle cx="1228" cy="3106" r="5" fill="green" stroke="none" /><circle cx="357" cy="2394" r="63" fill="red" stroke="none" /><circle cx="4149" cy="611" r="6" fill="red" stroke="none" /><circle cx="7189" cy="753" r="42" fill="red" stroke="none" /><circle cx="2122" cy="2483" r="76" fill="red" stroke="none" /><circle cx="1086" cy="1310" r="37" fill="red" stroke="none" /><circle cx="7625" cy="2273" r="78" fill="red" stroke="none" /><circle cx="1460" cy="627" r="66" fill="red" stroke="none" /><circle cx="1791" cy="822" r="5" fill="red" stroke="none" /><circle cx="3541" cy="3315" r="15" fill="red" stroke="none" /><circle cx="3765" cy="273" r="5" fill="red" stroke="none" /><circle cx="5200" cy="1653" r="14" fill="red" stroke="none" /><circle cx="5922" cy="318" r="31" fill="red" stroke="none" /><circle cx="342" cy="2013" r="11" fill="red" stroke="none" /><circle cx="2198" cy="2509" r="35" fill="red" stroke="none" /><circle cx="5490" cy="320" r="47" fill="red" stroke="none" /><circle cx="1361" cy="568" r="44" fill="red" stroke="none" /><circle cx="4932" cy="1109" r="6" fill="red" stroke="none" /><circle cx="5690" cy="1407" r="43" fill="red" stroke="none" /><circle cx="3296" cy="2582" r="73" fill="red" stroke="none" /><circle cx="6537" cy="2618" r="13" fill="red" stroke="none" /><circle cx="6445" cy="1473" r="76" fill="red" stroke="none" /><circle cx="3518" cy="1187" r="9" fill="red" stroke="none" /><circle cx="4342" cy="2888" r="52" fill="red" stroke="none" /><circle cx="1470" cy="230" r="75" fill="red" stroke="none" /><circle cx="1710" cy="289" r="25" fill="red" stroke="none" /><circle cx="3379" cy="2003" r="12" fill="red" stroke="none" /><circle cx="6836" cy="1998" r="45" fill="red" stroke="none" /><circle cx="2513" cy="1018" r="14" fill="red" stroke="none" /><circle cx="5341" cy="1863" r="36" fill="red" stroke="none" /><circle cx="6000" cy="529" r="72" fill="red" stroke="none" /><circle cx="6887" cy="3332" r="35" fill="red" stroke="none" /><circle cx="2700" cy="2885" r="56" fill="red" stroke="none" /><circle cx="4185" cy="2929" r="37" fill="red" stroke="none" /><circle cx="3998" cy="1624" r="11" fill="red" stroke="none" /><circle cx="2338" cy="1338" r="16" fill="red" stroke="none" /><circle cx="7898" cy="1704" r="57" fill="red" stroke="none" /><circle cx="295" cy="687" r="6" fill="red" stroke="none" /><circle cx="3928" cy="1680" r="43" fill="red" stroke="none" /><circle cx="6080" cy="1301" r="50" fill="red" stroke="none" /><circle cx="6368" cy="2608" r="79" fill="red" stroke="none" /><circle cx="8182" cy="131" r="68" fill="red" stroke="none" /><circle cx="6780" cy="3068" r="23" fill="red" stroke="none" /><circle cx="525" cy="2193" r="75" fill="red" stroke="none" /><circle cx="5093" cy="1487" r="54" fill="red" stroke="none" /><circle cx="372" cy="1429" r="9" fill="red" stroke="none" /><circle cx="4063" cy="1769" r="34" fill="red" stroke="none" /><circle cx="1086" cy="2304" r="53" fill="red" stroke="none" /><circle cx="5772" cy="639" r="52" fill="red" stroke="none" /><circle cx="7854" cy="1902" r="57" fill="red" stroke="none" /><circle cx="2735" cy="256" r="23" fill="red" stroke="none" /><circle cx="3046" cy="2807" r="23" fill="red" stroke="none" /><circle cx="3923" cy="2330" r="80" fill="red" stroke="none" /><circle cx="4843" cy="2874" r="80" fill="red" stroke="none" /><circle cx="108" cy="3037" r="73" fill="red" stroke="none" /><circle cx="4724" cy="2936" r="45" fill="red" stroke="none" /><circle cx="5030" cy="751" r="51" fill="red" stroke="none" /><circle cx="253" cy="581" r="13" fill="red" stroke="none" /><circle cx="1084" cy="2437" r="82" fill="red" stroke="none" /><circle cx="400" cy="2377" r="52" fill="red" stroke="none" /><circle cx="6953" cy="2331" r="21" fill="red" stroke="none" /><circle cx="3312" cy="624" r="75" fill="red" stroke="none" /><circle cx="7874" cy="2881" r="74" fill="red" stroke="none" /><circle cx="7968" cy="282" r="66" fill="red" stroke="none" /><circle cx="3731" cy="2987" r="22" fill="red" stroke="none" /><circle cx="6803" cy="167" r="58" fill="red" stroke="none" /><circle cx="2379" cy="705" r="29" fill="red" stroke="none" /><circle cx="2170" cy="1362" r="32" fill="red" stroke="none" /><circle cx="6241" cy="2309" r="34" fill="red" stroke="none" /><circle cx="5146" cy="3225" r="69" fill="red" stroke="none" /><circle cx="1751" cy="1048" r="76" fill="red" stroke="none" /><circle cx="588" cy="923" r="68" fill="red" stroke="none" /><circle cx="7581" cy="1837" r="58" fill="red" stroke="none" /><circle cx="821" cy="2611" r="17" fill="red" stroke="none" /><circle cx="2926" cy="2135" r="31" fill="red" stroke="none" /><circle cx="2958" cy="1573" r="78" fill="red" stroke="none" /><circle cx="6125" cy="2001" r="82" fill="red" stroke="none" /><circle cx="7650" cy="533" r="6" fill="red" stroke="none" /><circle cx="975" cy="672" r="64" fill="red" stroke="none" /><circle cx="3419" cy="2346" r="18" fill="red" stroke="none" /><circle cx="6112" cy="283" r="79" fill="red" stroke="none" /><circle cx="122" cy="380" r="11" fill="red" stroke="none" /><circle cx="4423" cy="1108" r="64" fill="red" stroke="none" /><circle cx="1250" cy="174" r="19" fill="red" stroke="none" /><circle cx="2605" cy="1809" r="35" fill="red" stroke="none" /><circle cx="2192" cy="2267" r="37" fill="red" stroke="none" /><circle cx="5583" cy="1501" r="30" fill="red" stroke="none" /><circle cx="2297" cy="2059" r="79" fill="red" stroke="none" /><circle cx="2650" cy="198" r="11" fill="red" stroke="none" /><circle cx="83" cy="2005" r="60" fill="red" stroke="none" /><circle cx="4679" cy="959" r="15" fill="red" stroke="none" /><circle cx="4115" cy="115" r="56" fill="red" stroke="none" /><circle cx="5102" cy="1800" r="67" fill="red" stroke="none" /><circle cx="5006" cy="3303" r="11" fill="red" stroke="none" /><circle cx="4253" cy="1557" r="80" fill="red" stroke="none" /><circle cx="5214" cy="2703" r="23" fill="red" stroke="none" /><circle cx="4144" cy="216" r="46" fill="red" stroke="none" /><circle cx="8067" cy="144" r="59" fill="red" stroke="none" /><circle cx="7047" cy="2839" r="66" fill="red" stroke="none" /><circle cx="7082" cy="2648" r="11" fill="red" stroke="none" /><circle cx="6594" cy="160" r="37" fill="red" stroke="none" /><circle cx="5080" cy="479" r="62" fill="red" stroke="none" /><circle cx="349" cy="2648" r="83" fill="red" stroke="none" /><circle cx="102" cy="1512" r="71" fill="red" stroke="none" /><circle cx="4513" cy="2709" r="17" fill="red" stroke="none" /><circle cx="7955" cy="3349" r="5" fill="red" stroke="none" /><circle cx="4896" cy="825" r="43" fill="red" stroke="none" /><circle cx="3549" cy="1296" r="6" fill="red" stroke="none" /><circle cx="6681" cy="2204" r="42" fill="red" stroke="none" /><circle cx="3525" cy="1711" r="28" fill="red" stroke="none" /><circle cx="2477" cy="3162" r="59" fill="red" stroke="none" /><circle cx="4766" cy="1337" r="13" fill="red" stroke="none" /><circle cx="6573" cy="2742" r="35" fill="red" stroke="none" /><circle cx="2218" cy="789" r="57" fill="red" stroke="none" /><circle cx="4952" cy="1796" r="67" fill="red" stroke="none" /><circle cx="3435" cy="1626" r="55" fill="red" stroke="none" /><circle cx="1641" cy="440" r="83" fill="red" stroke="none" /><circle cx="8045" cy="1135" r="11" fill="red" stroke="none" /><circle cx="2150" cy="1135" r="31" fill="red" stroke="none" /><circle cx="6099" cy="2392" r="70" fill="red" stroke="none" /><circle cx="1750" cy="531" r="26" fill="red" stroke="none" /><circle cx="6107" cy="1955" r="60" fill="red" stroke="none" /><circle cx="3024" cy="1554" r="17" fill="red" stroke="none" /><circle cx="2548" cy="584" r="59" fill="red" stroke="none" /><circle cx="6412" cy="2432" r="24" fill="red" stroke="none" /><circle cx="5264" cy="566" r="66" fill="red" stroke="none" /><circle cx="3812" cy="2697" r="71" fill="red" stroke="none" /><circle cx="6712" cy="1826" r="80" fill="red" stroke="none" /><circle cx="1261" cy="3032" r="16" fill="red" stroke="none" /><circle cx="3469" cy="1785" r="32" fill="red" stroke="none" /><circle cx="3929" cy="1396" r="66" fill="red" stroke="none" /><circle cx="1042" cy="2330" r="64" fill="red" stroke="none" /><circle cx="7274" cy="809" r="37" fill="red" stroke="none" /><circle cx="3837" cy="2059" r="76" fill="red" stroke="none" /><circle cx="755" cy="121" r="16" fill="red" stroke="none" /><circle cx="2688" cy="2275" r="54" fill="red" stroke="none" /><circle cx="3948" cy="2697" r="26" fill="red" stroke="none" /><circle cx="358" cy="1527" r="61" fill="red" stroke="none" /><circle cx="7483" cy="2607" r="14" fill="red" stroke="none" /><circle cx="1122" cy="1652" r="64" fill="red" stroke="none" /><circle cx="3790" cy="2796" r="66" fill="red" stroke="none" /><circle cx="2664" cy="2591" r="76" fill="red" stroke="none" /><circle cx="2680" cy="1147" r="60" fill="red" stroke="none" /><circle cx="2668" cy="1070" r="37" fill="red" stroke="none" /><circle cx="4208" cy="769" r="17" fill="red" stroke="none" /><circle cx="966" cy="144" r="71" fill="red" stroke="none" /><circle cx="1499" cy="1622" r="84" fill="red" stroke="none" /><circle cx="360" cy="153" r="66" fill="red" stroke="none" /><circle cx="804" cy="2804" r="51" fill="red" stroke="none" /><circle cx="1931" cy="1916" r="19" fill="red" stroke="none" /><circle cx="5700" cy="2186" r="52" fill="red" stroke="none" /><circle cx="1148" cy="1921" r="12" fill="red" stroke="none" /><circle cx="4037" cy="1285" r="5" fill="red" stroke="none" /><circle cx="6682" cy="364" r="8" fill="red" stroke="none" /><circle cx="4689" cy="3145" r="56" fill="red" stroke="none" /><circle cx="1009" cy="1061" r="36" fill="red" stroke="none" /><circle cx="719" cy="2123" r="47" fill="red" stroke="none" /><circle cx="3247" cy="1456" r="16" fill="red" stroke="none" /><circle cx="2584" cy="333" r="47" fill="red" stroke="none" /><circle cx="7759" cy="429" r="15" fill="red" stroke="none" /><circle cx="4683" cy="3025" r="29" fill="red" stroke="none" /><circle cx="1694" cy="3294" r="11" fill="red" stroke="none" /><circle cx="1478" cy="1207" r="25" fill="red" stroke="none" /><circle cx="4747" cy="64" r="19" fill="red" stroke="none" /><circle cx="6797" cy="1805" r="12" fill="red" stroke="none" /><circle cx="3174" cy="1247" r="55" fill="red" stroke="none" /><circle cx="3816" cy="232" r="74" fill="red" stroke="none" /><circle cx="4617" cy="992" r="67" fill="red" stroke="none" /><circle cx="5738" cy="2213" r="38" fill="red" stroke="none" /><circle cx="241" cy="1040" r="65" fill="red" stroke="none" /><circle cx="2060" cy="616" r="14" fill="red" stroke="none" /><circle cx="6567" cy="415" r="24" fill="red" stroke="none" /><circle cx="694" cy="1495" r="58" fill="red" stroke="none" /><circle cx="7803" cy="1768" r="47" fill="red" stroke="none" /><circle cx="1010" cy="2046" r="13" fill="red" stroke="none" /><circle cx="4623.187977548823" cy="2595" r="5" fill="blue" stroke="none" /><circle cx="4043" cy="2595" r="5" fill="blue" stroke="none" /><circle cx="4483.823802178962" cy="2595" r="5" fill="blue" stroke="none" /><circle cx="4469.410816559635" cy="2595" r="5" fill="blue" stroke="none" /><circle cx="4458.311763697485" cy="2594.0658757181727" r="5" fill="blue" stroke="none" /><circle cx="4592.997594376226" cy="2566.3677087202545" r="5" fill="blue" stroke="none" /><circle cx="4548.401886360045" cy="2571.699970155665" r="5" fill="blue" stroke="none" /><circle cx="4646.606172282342" cy="2594.880683829049" r="5" fill="blue" stroke="none" /><circle cx="4349.4937469831475" cy="2575.0049731080226" r="5" fill="blue" stroke="none" /><circle cx="5623" cy="1923.1250778090339" r="5" fill="blue" stroke="none" /><circle cx="4278.345422136799" cy="2595" r="5" fill="blue" stroke="none" /><circle cx="4673.677048360307" cy="2573.482973308832" r="5" fill="blue" stroke="none" /><circle cx="4594.981468289967" cy="2584.776868646694" r="5" fill="blue" stroke="none" /><circle cx="4744.648766658308" cy="2585.108444831791" r="5" fill="blue" stroke="none" /><circle cx="4716.035591317985" cy="2595" r="5" fill="blue" stroke="none" /><circle cx="4793.869045584383" cy="2585.174042398697" r="5" fill="blue" stroke="none" /><circle cx="4500.086484065649" cy="2595" r="5" fill="blue" stroke="none" /><circle cx="4707.723952513753" cy="2577.663755316979" r="5" fill="blue" stroke="none" /><circle cx="4601.593309273441" cy="2595" r="5" fill="blue" stroke="none" /><circle cx="4614.682022325863" cy="2575.732700485294" r="5" fill="blue" stroke="none" /><circle cx="4310.734630319452" cy="2593.729835753691" r="5" fill="blue" stroke="none" /><circle cx="4672.365659450298" cy="2560.2801394934368" r="5" fill="blue" stroke="none" /><circle cx="4927.948638360917" cy="2595" r="5" fill="blue" stroke="none" /><circle cx="4819.5043560585" cy="2594.8617452333824" r="5" fill="blue" stroke="none" /><circle cx="4066.6825971630606" cy="2585.2413592483217" r="5" fill="blue" stroke="none" /><circle cx="4834.582747428524" cy="2595" r="5" fill="blue" stroke="none" /><circle cx="4892.615598699591" cy="2592.8446781244775" r="5" fill="blue" stroke="none" /><circle cx="4722.920596081494" cy="2566.9587486631926" r="5" fill="blue" stroke="none" /><circle cx="4756.340551722" cy="2585.021795500349" r="5" fill="blue" stroke="none" /><circle cx="4726.047431458802" cy="2595" r="5" fill="blue" stroke="none" /><circle cx="4500.233161155059" cy="2584.9625430322035" r="5" fill="blue" stroke="none" /><circle cx="4769.303237161667" cy="2593.2587244539795" r="5" fill="blue" stroke="none" /><circle cx="4350.968085090837" cy="2595" r="5" fill="blue" stroke="none" /><circle cx="4587.982750734702" cy="2594.8665372035157" r="5" fill="blue" stroke="none" /><circle cx="4554.707291244421" cy="2592.406642509323" r="5" fill="blue" stroke="none" /><circle cx="4468.076713532817" cy="2585.079687509943" r="5" fill="blue" stroke="none" /><circle cx="4690.131839990023" cy="2583.195962037438" r="5" fill="blue" stroke="none" /><circle cx="4335.720815740023" cy="2584.874280423944" r="5" fill="blue" stroke="none" /><circle cx="4622.317625815101" cy="2566.6178290789617" r="5" fill="blue" stroke="none" /><circle cx="4791.7742220565215" cy="2595" r="5" fill="blue" stroke="none" /><circle cx="4656.125669755115" cy="2563.2911873835083" r="5" fill="blue" stroke="none" /><circle cx="4734.604418816934" cy="2585.0824470351827" r="5" fill="blue" stroke="none" /><circle cx="4655.494028186028" cy="2573.2723297164066" r="5" fill="blue" stroke="none" /><circle cx="4850.211961202576" cy="2595" r="5" fill="blue" stroke="none" /><circle cx="4448.832515513985" cy="2584.0093051616886" r="5" fill="blue" stroke="none" /><circle cx="4384.739046552511" cy="2581.3080190606142" r="5" fill="blue" stroke="none" /><circle cx="4288.35270164977" cy="2595" r="5" fill="blue" stroke="none" /><circle cx="4544.68728500789" cy="2595" r="5" fill="blue" stroke="none" /><circle cx="4757.413657525501" cy="2595" r="5" fill="blue" stroke="none" /><circle cx="4695.042545826092" cy="2593.7937532354226" r="5" fill="blue" stroke="none" /><circle cx="4631.981242586769" cy="2569.2528835520334" r="5" fill="blue" stroke="none" /><circle cx="4778.417573902555" cy="2584.900525120832" r="5" fill="blue" stroke="none" /><circle cx="4482.148993404372" cy="2585.1368470463385" r="5" fill="blue" stroke="none" /><circle cx="4680.3295041228575" cy="2581.2045830698908" r="5" fill="blue" stroke="none" /><circle cx="4402.187547912319" cy="2594.295622922017" r="5" fill="blue" stroke="none" /><circle cx="4644.394722614621" cy="2569.1309493689246" r="5" fill="blue" stroke="none" /><circle cx="4439.974518969939" cy="2595" r="5" fill="blue" stroke="none" /><circle cx="4053.3574417398945" cy="2595" r="5" fill="blue" stroke="none" /><circle cx="4648.780583871804" cy="2580.8639757810497" r="5" fill="blue" stroke="none" /><circle cx="4656.748526592363" cy="2595" r="5" fill="blue" stroke="none" /><circle cx="4573.1212085368725" cy="2576.747175393129" r="5" fill="blue" stroke="none" /><circle cx="4736.052671362333" cy="2595" r="5" fill="blue" stroke="none" /><circle cx="4697.57856884285" cy="2576.5178483207296" r="5" fill="blue" stroke="none" /><circle cx="4359.1034644857045" cy="2587.706156354629" r="5" fill="blue" stroke="none" /><circle cx="4680.5460205212985" cy="2566.0524362722526" r="5" fill="blue" stroke="none" /><circle cx="4687.021677095067" cy="2573.6882859419866" r="5" fill="blue" stroke="none" /><circle cx="4635.00249383365" cy="2595" r="5" fill="blue" stroke="none" /><circle cx="4563.967282575053" cy="2584.601622876528" r="5" fill="blue" stroke="none" /><circle cx="4638.303661670268" cy="2577.0626038527275" r="5" fill="blue" stroke="none" /><circle cx="4670.905389716546" cy="2585.4219687205136" r="5" fill="blue" stroke="none" /><circle cx="4511.729884758614" cy="2589.5026919982392" r="5" fill="blue" stroke="none" /><circle cx="4370.203741239597" cy="2579.262050530615" r="5" fill="blue" stroke="none" /><circle cx="4069.205825026399" cy="2594.921096669259" r="5" fill="blue" stroke="none" /><circle cx="4381.3821340871655" cy="2595" r="5" fill="blue" stroke="none" /><circle cx="4724.489067194744" cy="2585.0768463991017" r="5" fill="blue" stroke="none" /><circle cx="4668.022006682686" cy="2595" r="5" fill="blue" stroke="none" /><circle cx="4581.508188630723" cy="2583.215569421975" r="5" fill="blue" stroke="none" /><circle cx="4331.002726917251" cy="2595" r="5" fill="blue" stroke="none" /><circle cx="4567.112423579864" cy="2568.594414317842" r="5" fill="blue" stroke="none" /><circle cx="4805.606164661859" cy="2594.798357860604" r="5" fill="blue" stroke="none" /><circle cx="4557.1134755835965" cy="2576.6716796639275" r="5" fill="blue" stroke="none" /><circle cx="4436.243093750364" cy="2585.590730928526" r="5" fill="blue" stroke="none" /><circle cx="4692.498712538389" cy="2565.227261347635" r="5" fill="blue" stroke="none" /><circle cx="4908.93346122406" cy="2594.3711697900135" r="5" fill="blue" stroke="none" /><circle cx="4866.735187590025" cy="2595" r="5" fill="blue" stroke="none" /><circle cx="4396.276989034066" cy="2585.9509497407066" r="5" fill="blue" stroke="none" /><circle cx="4702.242481084856" cy="2567.6592845370133" r="5" fill="blue" stroke="none" /><circle cx="4347.390307429896" cy="2584.829740699858" r="5" fill="blue" stroke="none" /><circle cx="4684.92600431095" cy="2595" r="5" fill="blue" stroke="none" /><circle cx="4746.42722340563" cy="2595" r="5" fill="blue" stroke="none" /><circle cx="4712.207787084874" cy="2568.5662140533477" r="5" fill="blue" stroke="none" /><circle cx="4585.247440398429" cy="2572.712368998665" r="5" fill="blue" stroke="none" /><circle cx="4523.846011858384" cy="2584.7723595027173" r="5" fill="blue" stroke="none" /><circle cx="4320.994971889875" cy="2595" r="5" fill="blue" stroke="none" /><circle cx="4624.689507180482" cy="2576.6626629075477" r="5" fill="blue" stroke="none" /><circle cx="4664.561310961405" cy="2577.624522861902" r="5" fill="blue" stroke="none" /><circle cx="4412.75611199707" cy="2593.835519881881" r="5" fill="blue" stroke="none" /><circle cx="4627.85128722995" cy="2586.1520200266355" r="5" fill="blue" stroke="none" /><circle cx="4268.287567281981" cy="2594.973081411089" r="5" fill="blue" stroke="none" /><circle cx="4534.923064482137" cy="2590.6543086664797" r="5" fill="blue" stroke="none" /><circle cx="4705.330978448793" cy="2595" r="5" fill="blue" stroke="none" /><circle cx="4657.873490904056" cy="2585.0634324662396" r="5" fill="blue" stroke="none" /><circle cx="4665.520588548846" cy="2567.6388497493417" r="5" fill="blue" stroke="none" /><circle cx="4611.941125617282" cy="2595" r="5" fill="blue" stroke="none" /><circle cx="4547.007073981683" cy="2585.269039239798" r="5" fill="blue" stroke="none" /><circle cx="4714.445874019841" cy="2585.111960312445" r="5" fill="blue" stroke="none" /><circle cx="4729.515151644534" cy="2576.3806999771123" r="5" fill="blue" stroke="none" /><circle cx="4615.6418408318705" cy="2585.703952048051" r="5" fill="blue" stroke="none" /><circle cx="4604.473082157652" cy="2575.8188311729336" r="5" fill="blue" stroke="none" /><circle cx="4298.287169068205" cy="2584.9862332261246" r="5" fill="blue" stroke="none" /><circle cx="4368.452100113385" cy="2595" r="5" fill="blue" stroke="none" /><circle cx="4904.089436102727" cy="2579.9959380897776" r="5" fill="blue" stroke="none" /><circle cx="4701.70623946751" cy="2585.6793362013623" r="5" fill="blue" stroke="none" /><circle cx="4719.13247739919" cy="2576.2432572286843" r="5" fill="blue" stroke="none" /><circle cx="4605.59055466682" cy="2585.807337847909" r="5" fill="blue" stroke="none" /><circle cx="4298.362400304106" cy="2595" r="5" fill="blue" stroke="none" /><circle cx="4575.659255816832" cy="2595" r="5" fill="blue" stroke="none" /><circle cx="4779.157772333515" cy="2595" r="5" fill="blue" stroke="none" /><circle cx="4640.697586458299" cy="2586.778457241615" r="5" fill="blue" stroke="none" /><circle cx="4407.955487745443" cy="2584.7869139276895" r="5" fill="blue" stroke="none" /><circle cx="4391.503154553215" cy="2594.761525507728" r="5" fill="blue" stroke="none" /><circle cx="4341.075899642211" cy="2593.3449536332664" r="5" fill="blue" stroke="none" /><circle cx="4523.797336046884" cy="2594.8571326420306" r="5" fill="blue" stroke="none" /></svg>