<svg viewBox="0 0 5144 3291" xmlns="http://www.w3.org/2000/svg"><rect x="0" y="0" width="5144" height="3291" fill="lightyellow" stroke="none "/><rect x="0" y="2490" width="1611" height="801" fill="white" stroke="black "/><circle cx="2603" cy="2151" r="5" fill="green" stroke="none" /><circle cx="2887" cy="3094" r="5" fill="green" stroke="none" /><circle cx="1999" cy="500" r="5" fill="green" stroke="none" /><circle cx="4925" cy="1959" r="5" fill="green" stroke="none" /><circle cx="3366" cy="1601" r="5" fill="green" stroke="none" /><circle cx="2245" cy="535" r="5" fill="green" stroke="none" /><circle cx="4016" cy="3186" r="5" fill="green" stroke="none" /><circle cx="1605" cy="1737" r="5" fill="green" stroke="none" /><circle cx="3168" cy="1873" r="5" fill="green" stroke="none" /><circle cx="2892" cy="3208" r="5" fill="green" stroke="none" /><circle cx="2391" cy="718" r="5" fill="green" stroke="none" /><circle cx="941" cy="1108" r="5" fill="green" stroke="none" /><circle cx="406" cy="1646" r="5" fill="green" stroke="none" /><circle cx="3111" cy="533" r="5" fill="green" stroke="none" /><circle cx="2350" cy="1733" r="5" fill="green" stroke="none" /><circle cx="2760" cy="1689" r="5" fill="green" stroke="none" /><circle cx="762" cy="57" r="5" fill="green" stroke="none" /><circle cx="3784" cy="282" r="5" fill="green" stroke="none" /><circle cx="972" cy="498" r="5" fill="green" stroke="none" /><circle cx="614" cy="2342" r="5" fill="green" stroke="none" /><circle cx="1975" cy="237" r="5" fill="green" stroke="none" /><circle cx="2541" cy="1198" r="5" fill="green" stroke="none" /><circle cx="2703" cy="1905" r="5" fill="green" stroke="none" /><circle cx="454" cy="155" r="5" fill="green" stroke="none" /><circle cx="1943" cy="186" r="5" fill="green" stroke="none" /><circle cx="4129" cy="3223" r="5" fill="green" stroke="none" /><circle cx="227" cy="617" r="5" fill="green" stroke="none" /><circle cx="1081" cy="1710" r="5" fill="green" stroke="none" /><circle cx="2261" cy="2297" r="5" fill="green" stroke="none" /><circle cx="3808" cy="1459" r="5" fill="green" stroke="none" /><circle cx="3388" cy="1651" r="5" fill="green" stroke="none" /><circle cx="3025" cy="598" r="5" fill="green" stroke="none" /><circle cx="4261" cy="2034" r="5" fill="green" stroke="none" /><circle cx="3790" cy="310" r="5" fill="green" stroke="none" /><circle cx="3632" cy="3022" r="5" fill="green" stroke="none" /><circle cx="3550" cy="1694" r="5" fill="green" stroke="none" /><circle cx="2700" cy="1217" r="5" fill="green" stroke="none" /><circle cx="2085" cy="3034" r="5" fill="green" stroke="none" /><circle cx="5117" cy="3138" r="5" fill="green" stroke="none" /><circle cx="1506" cy="1959" r="5" fill="green" stroke="none" /><circle cx="3007" cy="1939" r="5" fill="green" stroke="none" /><circle cx="2587" cy="1374" r="5" fill="green" stroke="none" /><circle cx="2097" cy="2072" r="5" fill="green" stroke="none" /><circle cx="4900" cy="2968" r="5" fill="green" stroke="none" /><circle cx="3884" cy="2957" r="5" fill="green" stroke="none" /><circle cx="1152" cy="1694" r="5" fill="green" stroke="none" /><circle cx="1854" cy="2537" r="5" fill="green" stroke="none" /><circle cx="95" cy="2319" r="5" fill="green" stroke="none" /><circle cx="2866" cy="1106" r="5" fill="green" stroke="none" /><circle cx="1435" cy="436" r="5" fill="green" stroke="none" /><circle cx="4281" cy="3148" r="5" fill="green" stroke="none" /><circle cx="1984" cy="2864" r="5" fill="green" stroke="none" /><circle cx="2735" cy="698" r="5" fill="green" stroke="none" /><circle cx="4566" cy="3208" r="5" fill="green" stroke="none" /><circle cx="1578" cy="2344" r="5" fill="green" stroke="none" /><circle cx="349" cy="1043" r="5" fill="green" stroke="none" /><circle cx="1316" cy="150" r="5" fill="green" stroke="none" /><circle cx="1698" cy="2913" r="5" fill="green" stroke="none" /><circle cx="1285" cy="1962" r="5" fill="green" stroke="none" /><circle cx="4229" cy="3071" r="5" fill="green" stroke="none" /><circle cx="4731" cy="1589" r="5" fill="green" stroke="none" /><circle cx="1976" cy="1368" r="5" fill="green" stroke="none" /><circle cx="5084" cy="3147" r="5" fill="green" stroke="none" /><circle cx="2530" cy="1860" r="5" fill="green" stroke="none" /><circle cx="1047" cy="2162" r="5" fill="green" stroke="none" /><circle cx="4908" cy="2669" r="5" fill="green" stroke="none" /><circle cx="4909" cy="202" r="5" fill="green" stroke="none" /><circle cx="4751" cy="337" r="5" fill="green" stroke="none" /><circle cx="4824" cy="2206" r="5" fill="green" stroke="none" /><circle cx="2427" cy="877" r="5" fill="green" stroke="none" /><circle cx="4896" cy="2973" r="5" fill="green" stroke="none" /><circle cx="4757" cy="86" r="5" fill="green" stroke="none" /><circle cx="3246" cy="2887" r="5" fill="green" stroke="none" /><circle cx="1406" cy="2461" r="5" fill="green" stroke="none" /><circle cx="880" cy="2043" r="5" fill="green" stroke="none" /><circle cx="210" cy="94" r="5" fill="green" stroke="none" /><circle cx="4207" cy="2641" r="5" fill="green" stroke="none" /><circle cx="2582" cy="1501" r="5" fill="green" stroke="none" /><circle cx="4292" cy="1368" r="5" fill="green" stroke="none" /><circle cx="1336" cy="1913" r="5" fill="green" stroke="none" /><circle cx="1621" cy="2280" r="5" fill="green" stroke="none" /><circle cx="1396" cy="1562" r="5" fill="green" stroke="none" /><circle cx="706" cy="2260" r="5" fill="green" stroke="none" /><circle cx="1231" cy="1085" r="5" fill="green" stroke="none" /><circle cx="554" cy="1967" r="5" fill="green" stroke="none" /><circle cx="146" cy="1548" r="5" fill="green" stroke="none" /><circle cx="2565" cy="1646" r="5" fill="green" stroke="none" /><circle cx="2121" cy="3108" r="5" fill="green" stroke="none" /><circle cx="4051" cy="835" r="5" fill="green" stroke="none" /><circle cx="3405" cy="1236" r="5" fill="green" stroke="none" /><circle cx="2584" cy="1927" r="5" fill="green" stroke="none" /><circle cx="3746" cy="588" r="5" fill="green" stroke="none" /><circle cx="902" cy="405" r="5" fill="green" stroke="none" /><circle cx="3214" cy="2305" r="5" fill="green" stroke="none" /><circle cx="4336" cy="2284" r="5" fill="green" stroke="none" /><circle cx="2284" cy="2002" r="5" fill="green" stroke="none" /><circle cx="957" cy="1511" r="5" fill="green" stroke="none" /><circle cx="3869" cy="2919" r="5" fill="green" stroke="none" /><circle cx="1947" cy="1645" r="5" fill="green" stroke="none" /><circle cx="3398" cy="3020" r="5" fill="green" stroke="none" /><circle cx="1745" cy="3115" r="5" fill="green" stroke="none" /><circle cx="3932" cy="2836" r="5" fill="green" stroke="none" /><circle cx="4046" cy="2498" r="5" fill="green" stroke="none" /><circle cx="312" cy="1667" r="5" fill="green" stroke="none" /><circle cx="2642" cy="1211" r="5" fill="green" stroke="none" /><circle cx="3603" cy="1537" r="5" fill="green" stroke="none" /><circle cx="543" cy="856" r="5" fill="green" stroke="none" /><circle cx="439" cy="112" r="5" fill="green" stroke="none" /><circle cx="1942" cy="1222" r="5" fill="green" stroke="none" /><circle cx="85" cy="1657" r="5" fill="green" stroke="none" /><circle cx="1950" cy="3141" r="5" fill="green" stroke="none" /><circle cx="1978" cy="1233" r="5" fill="green" stroke="none" /><circle cx="2719" cy="1162" r="5" fill="green" stroke="none" /><circle cx="2771" cy="2180" r="5" fill="green" stroke="none" /><circle cx="3991" cy="1922" r="5" fill="green" stroke="none" /><circle cx="1557" cy="1323" r="5" fill="green" stroke="none" /><circle cx="3205" cy="1464" r="5" fill="green" stroke="none" /><circle cx="1521" cy="1499" r="5" fill="green" stroke="none" /><circle cx="3334" cy="1632" r="5" fill="green" stroke="none" /><circle cx="3372" cy="935" r="5" fill="green" stroke="none" /><circle cx="2777" cy="2426" r="5" fill="green" stroke="none" /><circle cx="3939" cy="2725" r="5" fill="green" stroke="none" /><circle cx="1632" cy="1083" r="5" fill="green" stroke="none" /><circle cx="3248" cy="1097" r="5" fill="green" stroke="none" /><circle cx="2359" cy="2902" r="5" fill="green" stroke="none" /><circle cx="2516" cy="38" r="5" fill="green" stroke="none" /><circle cx="4366" cy="2684" r="5" fill="green" stroke="none" /><circle cx="3851" cy="5" r="5" fill="green" stroke="none" /><circle cx="3928" cy="2233" r="5" fill="green" stroke="none" /><circle cx="3916" cy="2717" r="5" fill="green" stroke="none" /><circle cx="4662" cy="2729" r="5" fill="green" stroke="none" /><circle cx="97" cy="1595" r="5" fill="green" stroke="none" /><circle cx="4632" cy="1869" r="5" fill="green" stroke="none" /><circle cx="2717" cy="3230" r="5" fill="green" stroke="none" /><circle cx="3469" cy="108" r="5" fill="green" stroke="none" /><circle cx="3411" cy="3272" r="5" fill="green" stroke="none" /><circle cx="4426" cy="967" r="5" fill="green" stroke="none" /><circle cx="4792" cy="2992" r="5" fill="green" stroke="none" /><circle cx="2051" cy="3030" r="5" fill="green" stroke="none" /><circle cx="1338" cy="1866" r="5" fill="green" stroke="none" /><circle cx="1919" cy="382" r="5" fill="green" stroke="none" /><circle cx="3694" cy="386" r="5" fill="green" stroke="none" /><circle cx="4697" cy="2380" r="5" fill="green" stroke="none" /><circle cx="3752" cy="436" r="5" fill="green" stroke="none" /><circle cx="1002" cy="895" r="5" fill="green" stroke="none" /><circle cx="3339" cy="1748" r="5" fill="green" stroke="none" /><circle cx="2179" cy="2003" r="5" fill="green" stroke="none" /><circle cx="1304" cy="830" r="5" fill="green" stroke="none" /><circle cx="2669" cy="805" r="5" fill="green" stroke="none" /><circle cx="4611" cy="3233" r="5" fill="green" stroke="none" /><circle cx="1625" cy="2890" r="5" fill="green" stroke="none" /><circle cx="3636" cy="537" r="5" fill="green" stroke="none" /><circle cx="4020" cy="2786" r="5" fill="green" stroke="none" /><circle cx="3715" cy="2471" r="5" fill="green" stroke="none" /><circle cx="1495" cy="1060" r="5" fill="green" stroke="none" /><circle cx="1599" cy="250" r="5" fill="green" stroke="none" /><circle cx="4393" cy="1306" r="5" fill="green" stroke="none" /><circle cx="679" cy="1534" r="5" fill="green" stroke="none" /><circle cx="2406" cy="2515" r="5" fill="green" stroke="none" /><circle cx="3484" cy="897" r="5" fill="green" stroke="none" /><circle cx="2425" cy="2227" r="5" fill="green" stroke="none" /><circle cx="4999" cy="1018" r="5" fill="green" stroke="none" /><circle cx="4936" cy="552" r="5" fill="green" stroke="none" /><circle cx="2168" cy="3273" r="5" fill="green" stroke="none" /><circle cx="2562" cy="2017" r="5" fill="green" stroke="none" /><circle cx="3543" cy="1171" r="5" fill="green" stroke="none" /><circle cx="1516" cy="133" r="5" fill="green" stroke="none" /><circle cx="4156" cy="2310" r="5" fill="green" stroke="none" /><circle cx="3293" cy="1343" r="5" fill="green" stroke="none" /><circle cx="1141" cy="493" r="5" fill="green" stroke="none" /><circle cx="2812" cy="2575" r="5" fill="green" stroke="none" /><circle cx="2972" cy="2313" r="5" fill="green" stroke="none" /><circle cx="1802" cy="2367" r="5" fill="green" stroke="none" /><circle cx="4793" cy="2931" r="5" fill="green" stroke="none" /><circle cx="3718" cy="1357" r="5" fill="green" stroke="none" /><circle cx="567" cy="1038" r="5" fill="green" stroke="none" /><circle cx="2376" cy="2610" r="5" fill="green" stroke="none" /><circle cx="1735" cy="2895" r="5" fill="green" stroke="none" /><circle cx="2661" cy="1799" r="5" fill="green" stroke="none" /><circle cx="2221" cy="32" r="5" fill="green" stroke="none" /><circle cx="2843" cy="249" r="5" fill="green" stroke="none" /><circle cx="4395" cy="221" r="5" fill="green" stroke="none" /><circle cx="968" cy="2162" r="5" fill="green" stroke="none" /><circle cx="5075" cy="3238" r="5" fill="green" stroke="none" /><circle cx="2792" cy="2222" r="5" fill="green" stroke="none" /><circle cx="1718" cy="924" r="5" fill="green" stroke="none" /><circle cx="4172" cy="788" r="5" fill="green" stroke="none" /><circle cx="2486" cy="3136" r="5" fill="green" stroke="none" /><circle cx="4003" cy="1684" r="5" fill="green" stroke="none" /><circle cx="2019" cy="58" r="5" fill="green" stroke="none" /><circle cx="1633" cy="1452" r="5" fill="green" stroke="none" /><circle cx="1164" cy="896" r="5" fill="green" stroke="none" /><circle cx="2744" cy="3156" r="5" fill="green" stroke="none" /><circle cx="4798" cy="90" r="5" fill="green" stroke="none" /><circle cx="1552" cy="1443" r="5" fill="green" stroke="none" /><circle cx="324" cy="2171" r="5" fill="green" stroke="none" /><circle cx="1366" cy="2046" r="5" fill="green" stroke="none" /><circle cx="2459" cy="1548" r="5" fill="green" stroke="none" /><circle cx="263" cy="242" r="5" fill="green" stroke="none" /><circle cx="1845" cy="2079" r="5" fill="green" stroke="none" /><circle cx="1551.2357331547855" cy="2501.4969898347035" r="5" fill="blue" stroke="none" /><circle cx="1407.067129757321" cy="2500" r="5" fill="blue" stroke="none" /><circle cx="1356.1504100175337" cy="2500" r="5" fill="blue" stroke="none" /><circle cx="1469.921047733441" cy="2500.896570700197" r="5" fill="blue" stroke="none" /><circle cx="1386.154252871314" cy="2500" r="5" fill="blue" stroke="none" /><circle cx="1401.0999813818614" cy="2509.0628381303386" r="5" fill="blue" stroke="none" /><circle cx="1427.2038329313937" cy="2509.9364408699034" r="5" fill="blue" stroke="none" /><circle cx="1518.9703093893716" cy="2500" r="5" fill="blue" stroke="none" /><circle cx="1601" cy="2884.041988644605" r="5" fill="blue" stroke="none" /><circle cx="1448.3561602257205" cy="2500" r="5" fill="blue" stroke="none" /><circle cx="1428.3516958459786" cy="2500" r="5" fill="blue" stroke="none" /><circle cx="1574.988095237893" cy="2501.757016107346" r="5" fill="blue" stroke="none" /><circle cx="1396.8491899243757" cy="2500" r="5" fill="blue" stroke="none" /><circle cx="1601" cy="2862.8554293512634" r="5" fill="blue" stroke="none" /><circle cx="1592.1445657857423" cy="2888.6942880468246" r="5" fill="blue" stroke="none" /><circle cx="1600.6313452283057" cy="2925.35710545456" r="5" fill="blue" stroke="none" /><circle cx="1591.0265878170069" cy="2873.6993694625003" r="5" fill="blue" stroke="none" /><circle cx="1599.283308281763" cy="2903.9460988740784" r="5" fill="blue" stroke="none" /><circle cx="1600.7630226148744" cy="2852.848538940841" r="5" fill="blue" stroke="none" /><circle cx="1601" cy="2948.5306718995625" r="5" fill="blue" stroke="none" /><circle cx="1601" cy="2500" r="5" fill="blue" stroke="none" /><circle cx="1591.090662721816" cy="2916.802452389869" r="5" fill="blue" stroke="none" /><circle cx="1601" cy="2915.344096373616" r="5" fill="blue" stroke="none" /><circle cx="1601" cy="2894.0904916804857" r="5" fill="blue" stroke="none" /><circle cx="1601" cy="2872.938675723464" r="5" fill="blue" stroke="none" /><circle cx="1345.4810523638753" cy="2500" r="5" fill="blue" stroke="none" /><circle cx="1601" cy="2842.1723757749487" r="5" fill="blue" stroke="none" /><circle cx="1376.1536416479062" cy="2500" r="5" fill="blue" stroke="none" /><circle cx="1366.1504364957525" cy="2500" r="5" fill="blue" stroke="none" /><circle cx="1417.4391742683893" cy="2500" r="5" fill="blue" stroke="none" /><circle cx="1601" cy="2828.399199111864" r="5" fill="blue" stroke="none" /><circle cx="1601" cy="2935.351260654932" r="5" fill="blue" stroke="none" /><circle cx="1601" cy="2964.922050541969" r="5" fill="blue" stroke="none" /><circle cx="1601" cy="2985.5310872657983" r="5" fill="blue" stroke="none" /><circle cx="1485.4217165127404" cy="2502.073886347229" r="5" fill="blue" stroke="none" /><circle cx="1601" cy="3012.259242069006" r="5" fill="blue" stroke="none" /><circle cx="1413.5812758890318" cy="2509.2369824955726" r="5" fill="blue" stroke="none" /><circle cx="1387.82043255133" cy="2509.8686227512553" r="5" fill="blue" stroke="none" /><circle cx="1458.3832341074549" cy="2500" r="5" fill="blue" stroke="none" /><circle cx="1438.353823611134" cy="2500" r="5" fill="blue" stroke="none" /></svg>