<svg viewBox="0 0 7151 3876" xmlns="http://www.w3.org/2000/svg"><rect x="0" y="0" width="7151" height="3876" fill="lightyellow" stroke="none "/><rect x="6740" y="1871" width="181" height="1273" fill="white" stroke="black "/><circle cx="254" cy="211" r="5" fill="green" stroke="none" /><circle cx="3998" cy="1585" r="5" fill="green" stroke="none" /><circle cx="3747" cy="42" r="5" fill="green" stroke="none" /><circle cx="2935" cy="945" r="5" fill="green" stroke="none" /><circle cx="962" cy="1860" r="5" fill="green" stroke="none" /><circle cx="5489" cy="864" r="5" fill="green" stroke="none" /><circle cx="1342" cy="2513" r="5" fill="green" stroke="none" /><circle cx="6384" cy="1145" r="5" fill="green" stroke="none" /><circle cx="2643" cy="1830" r="5" fill="green" stroke="none" /><circle cx="987" cy="2953" r="5" fill="green" stroke="none" /><circle cx="818" cy="3873" r="5" fill="green" stroke="none" /><circle cx="1373" cy="2387" r="5" fill="green" stroke="none" /><circle cx="1993" cy="363" r="5" fill="green" stroke="none" /><circle cx="1826" cy="1980" r="5" fill="green" stroke="none" /><circle cx="6406" cy="1490" r="5" fill="green" stroke="none" /><circle cx="4404" cy="1577" r="5" fill="green" stroke="none" /><circle cx="1630" cy="1628" r="5" fill="green" stroke="none" /><circle cx="5218" cy="3584" r="5" fill="green" stroke="none" /><circle cx="5469" cy="3018" r="5" fill="green" stroke="none" /><circle cx="4560" cy="1244" r="5" fill="green" stroke="none" /><circle cx="3235" cy="379" r="5" fill="green" stroke="none" /><circle cx="1670" cy="1586" r="5" fill="green" stroke="none" /><circle cx="4968" cy="1229" r="5" fill="green" stroke="none" /><circle cx="1150" cy="3339" r="5" fill="green" stroke="none" /><circle cx="4243" cy="2407" r="5" fill="green" stroke="none" /><circle cx="3233" cy="3296" r="5" fill="green" stroke="none" /><circle cx="3543" cy="2692" r="5" fill="green" stroke="none" /><circle cx="611" cy="716" r="5" fill="green" stroke="none" /><circle cx="4858" cy="118" r="5" fill="green" stroke="none" /><circle cx="2330" cy="1497" r="5" fill="green" stroke="none" /><circle cx="2947" cy="2454" r="5" fill="green" stroke="none" /><circle cx="5392" cy="3489" r="5" fill="green" stroke="none" /><circle cx="2867" cy="432" r="5" fill="green" stroke="none" /><circle cx="648" cy="813" r="5" fill="green" stroke="none" /><circle cx="3301" cy="3480" r="5" fill="green" stroke="none" /><circle cx="4671" cy="408" r="5" fill="green" stroke="none" /><circle cx="1358" cy="869" r="5" fill="green" stroke="none" /><circle cx="6635" cy="1057" r="5" fill="green" stroke="none" /><circle cx="3312" cy="3596" r="5" fill="green" stroke="none" /><circle cx="2441" cy="1900" r="5" fill="green" stroke="none" /><circle cx="2130" cy="3833" r="5" fill="green" stroke="none" /><circle cx="2384" cy="2124" r="5" fill="green" stroke="none" /><circle cx="1388" cy="1474" r="5" fill="green" stroke="none" /><circle cx="5952" cy="3584" r="5" fill="green" stroke="none" /><circle cx="6012" cy="2812" r="5" fill="green" stroke="none" /><circle cx="2815" cy="2522" r="5" fill="green" stroke="none" /><circle cx="804" cy="3038" r="5" fill="green" stroke="none" /><circle cx="4649" cy="1528" r="5" fill="green" stroke="none" /><circle cx="5124" cy="1504" r="5" fill="green" stroke="none" /><circle cx="2620" cy="1548" r="5" fill="green" stroke="none" /><circle cx="2345" cy="2032" r="5" fill="green" stroke="none" /><circle cx="6648" cy="2527" r="5" fill="green" stroke="none" /><circle cx="4159" cy="2344" r="5" fill="green" stroke="none" /><circle cx="1168" cy="2335" r="5" fill="green" stroke="none" /><circle cx="285" cy="328" r="5" fill="green" stroke="none" /><circle cx="3368" cy="2329" r="5" fill="green" stroke="none" /><circle cx="6149" cy="686" r="5" fill="green" stroke="none" /><circle cx="5463" cy="3651" r="5" fill="green" stroke="none" /><circle cx="5128" cy="2159" r="5" fill="green" stroke="none" /><circle cx="3576" cy="1073" r="5" fill="green" stroke="none" /><circle cx="2337" cy="1612" r="5" fill="green" stroke="none" /><circle cx="5238" cy="831" r="5" fill="green" stroke="none" /><circle cx="326" cy="1441" r="5" fill="green" stroke="none" /><circle cx="6914" cy="1810" r="5" fill="green" stroke="none" /><circle cx="1045" cy="3362" r="5" fill="green" stroke="none" /><circle cx="1611" cy="84" r="5" fill="green" stroke="none" /><circle cx="2752" cy="2806" r="5" fill="green" stroke="none" /><circle cx="5878" cy="1625" r="5" fill="green" stroke="none" /><circle cx="5952" cy="2582" r="5" fill="green" stroke="none" /><circle cx="2869" cy="2857" r="5" fill="green" stroke="none" /><circle cx="790" cy="2227" r="5" fill="green" stroke="none" /><circle cx="504" cy="3226" r="5" fill="green" stroke="none" /><circle cx="2540" cy="1772" r="5" fill="green" stroke="none" /><circle cx="1038" cy="2987" r="5" fill="green" stroke="none" /><circle cx="6651" cy="1405" r="5" fill="green" stroke="none" /><circle cx="4986" cy="944" r="5" fill="green" stroke="none" /><circle cx="6915" cy="54" r="5" fill="green" stroke="none" /><circle cx="6533" cy="1959" r="5" fill="green" stroke="none" /><circle cx="1466" cy="94" r="5" fill="green" stroke="none" /><circle cx="2587" cy="1312" r="5" fill="green" stroke="none" /><circle cx="3819" cy="583" r="5" fill="green" stroke="none" /><circle cx="3835" cy="414" r="5" fill="green" stroke="none" /><circle cx="2896" cy="284" r="5" fill="green" stroke="none" /><circle cx="2424" cy="3538" r="5" fill="green" stroke="none" /><circle cx="1568" cy="3605" r="5" fill="green" stroke="none" /><circle cx="37" cy="1939" r="5" fill="green" stroke="none" /><circle cx="3452" cy="2145" r="5" fill="green" stroke="none" /><circle cx="3196" cy="1362" r="5" fill="green" stroke="none" /><circle cx="3711" cy="1812" r="5" fill="green" stroke="none" /><circle cx="1488" cy="1926" r="5" fill="green" stroke="none" /><circle cx="3176" cy="285" r="5" fill="green" stroke="none" /><circle cx="1754" cy="2231" r="5" fill="green" stroke="none" /><circle cx="5556" cy="1979" r="5" fill="green" stroke="none" /><circle cx="1743" cy="2404" r="5" fill="green" stroke="none" /><circle cx="6328" cy="3539" r="5" fill="green" stroke="none" /><circle cx="6513" cy="3847" r="5" fill="green" stroke="none" /><circle cx="2170" cy="1838" r="5" fill="green" stroke="none" /><circle cx="913" cy="1643" r="5" fill="green" stroke="none" /><circle cx="101" cy="3850" r="5" fill="green" stroke="none" /><circle cx="6069" cy="3299" r="5" fill="green" stroke="none" /><circle cx="456" cy="2673" r="5" fill="green" stroke="none" /><circle cx="2390" cy="665" r="5" fill="green" stroke="none" /><circle cx="609" cy="131" r="5" fill="green" stroke="none" /><circle cx="689" cy="2185" r="5" fill="green" stroke="none" /><circle cx="5867" cy="1247" r="5" fill="green" stroke="none" /><circle cx="6385" cy="1876" r="5" fill="green" stroke="none" /><circle cx="394" cy="1394" r="5" fill="green" stroke="none" /><circle cx="3810" cy="3768" r="5" fill="green" stroke="none" /><circle cx="6600" cy="2285" r="5" fill="green" stroke="none" /><circle cx="4366" cy="3644" r="5" fill="green" stroke="none" /><circle cx="624" cy="2021" r="5" fill="green" stroke="none" /><circle cx="2599" cy="531" r="5" fill="green" stroke="none" /><circle cx="3869" cy="1539" r="5" fill="green" stroke="none" /><circle cx="481" cy="3376" r="5" fill="green" stroke="none" /><circle cx="3673" cy="3571" r="5" fill="green" stroke="none" /><circle cx="5395" cy="2843" r="5" fill="green" stroke="none" /><circle cx="3873" cy="1421" r="5" fill="green" stroke="none" /><circle cx="3723" cy="3070" r="5" fill="green" stroke="none" /><circle cx="5411" cy="1145" r="5" fill="green" stroke="none" /><circle cx="2467" cy="795" r="5" fill="green" stroke="none" /><circle cx="6537" cy="148" r="5" fill="green" stroke="none" /><circle cx="3604" cy="491" r="5" fill="green" stroke="none" /><circle cx="436" cy="3192" r="5" fill="green" stroke="none" /><circle cx="5827" cy="3834" r="5" fill="green" stroke="none" /><circle cx="3781" cy="17" r="5" fill="green" stroke="none" /><circle cx="1608" cy="2030" r="5" fill="green" stroke="none" /><circle cx="4656" cy="3320" r="5" fill="green" stroke="none" /><circle cx="1267" cy="576" r="5" fill="green" stroke="none" /><circle cx="6182" cy="3326" r="5" fill="green" stroke="none" /><circle cx="1002" cy="3858" r="5" fill="green" stroke="none" /><circle cx="2755" cy="35" r="5" fill="green" stroke="none" /><circle cx="3304" cy="17" r="5" fill="green" stroke="none" /><circle cx="6053" cy="154" r="5" fill="green" stroke="none" /><circle cx="6532" cy="2061" r="5" fill="green" stroke="none" /><circle cx="916" cy="1582" r="5" fill="green" stroke="none" /><circle cx="6310" cy="3238" r="5" fill="green" stroke="none" /><circle cx="5048" cy="657" r="5" fill="green" stroke="none" /><circle cx="1510" cy="56" r="5" fill="green" stroke="none" /><circle cx="6212" cy="2693" r="5" fill="green" stroke="none" /><circle cx="7028" cy="906" r="5" fill="green" stroke="none" /><circle cx="1878" cy="3090" r="5" fill="green" stroke="none" /><circle cx="5950" cy="3608" r="5" fill="green" stroke="none" /><circle cx="1588" cy="2229" r="5" fill="green" stroke="none" /><circle cx="4359" cy="384" r="5" fill="green" stroke="none" /><circle cx="418" cy="2132" r="5" fill="green" stroke="none" /><circle cx="4489" cy="2645" r="5" fill="green" stroke="none" /><circle cx="2674" cy="676" r="5" fill="green" stroke="none" /><circle cx="2715" cy="2646" r="5" fill="green" stroke="none" /><circle cx="2598" cy="1634" r="5" fill="green" stroke="none" /><circle cx="6380" cy="3766" r="5" fill="green" stroke="none" /><circle cx="3344" cy="3305" r="5" fill="green" stroke="none" /><circle cx="1858" cy="2931" r="5" fill="green" stroke="none" /><circle cx="2583" cy="863" r="5" fill="green" stroke="none" /><circle cx="6921" cy="1081" r="5" fill="green" stroke="none" /><circle cx="3952" cy="3739" r="5" fill="green" stroke="none" /><circle cx="1729" cy="3736" r="5" fill="green" stroke="none" /><circle cx="6224" cy="2430" r="5" fill="green" stroke="none" /><circle cx="1213" cy="625" r="5" fill="green" stroke="none" /><circle cx="5150" cy="699" r="5" fill="green" stroke="none" /><circle cx="6623" cy="847" r="5" fill="green" stroke="none" /><circle cx="3852" cy="3021" r="5" fill="green" stroke="none" /><circle cx="6433" cy="3411" r="5" fill="green" stroke="none" /><circle cx="1956" cy="2108" r="5" fill="green" stroke="none" /><circle cx="3098" cy="902" r="5" fill="green" stroke="none" /><circle cx="6717" cy="1365" r="5" fill="green" stroke="none" /><circle cx="5832" cy="2641" r="5" fill="green" stroke="none" /><circle cx="1873" cy="725" r="5" fill="green" stroke="none" /><circle cx="5270" cy="253" r="5" fill="green" stroke="none" /><circle cx="3163" cy="1039" r="5" fill="green" stroke="none" /><circle cx="4602" cy="1249" r="5" fill="green" stroke="none" /><circle cx="5484" cy="2757" r="5" fill="green" stroke="none" /><circle cx="1817" cy="284" r="5" fill="green" stroke="none" /><circle cx="6138" cy="1490" r="5" fill="green" stroke="none" /><circle cx="5548" cy="2287" r="5" fill="green" stroke="none" /><circle cx="5921" cy="1386" r="5" fill="green" stroke="none" /><circle cx="2961" cy="2666" r="5" fill="green" stroke="none" /><circle cx="1491" cy="2398" r="5" fill="green" stroke="none" /><circle cx="2779" cy="2502" r="5" fill="green" stroke="none" /><circle cx="2814" cy="2751" r="5" fill="green" stroke="none" /><circle cx="5468" cy="1646" r="5" fill="green" stroke="none" /><circle cx="5710" cy="1028" r="5" fill="green" stroke="none" /><circle cx="2643" cy="3061" r="5" fill="green" stroke="none" /><circle cx="5497" cy="1333" r="5" fill="green" stroke="none" /><circle cx="4938" cy="1642" r="5" fill="green" stroke="none" /><circle cx="1713" cy="2084" r="5" fill="green" stroke="none" /><circle cx="6703" cy="2074" r="5" fill="green" stroke="none" /><circle cx="4958" cy="3840" r="5" fill="green" stroke="none" /><circle cx="5399" cy="947" r="5" fill="green" stroke="none" /><circle cx="227" cy="3379" r="5" fill="green" stroke="none" /><circle cx="5217" cy="2571" r="5" fill="green" stroke="none" /><circle cx="6629" cy="470" r="5" fill="green" stroke="none" /><circle cx="881" cy="3191" r="5" fill="green" stroke="none" /><circle cx="4317" cy="3752" r="5" fill="green" stroke="none" /><circle cx="3829" cy="953" r="5" fill="green" stroke="none" /><circle cx="132" cy="3250" r="5" fill="green" stroke="none" /><circle cx="1134" cy="1213" r="5" fill="green" stroke="none" /><circle cx="2900" cy="1985" r="5" fill="green" stroke="none" /><circle cx="5684" cy="1654" r="5" fill="green" stroke="none" /><circle cx="4575" cy="52" r="5" fill="green" stroke="none" /><circle cx="2400" cy="522" r="5" fill="green" stroke="none" /><circle cx="714" cy="3530" r="5" fill="green" stroke="none" /><circle cx="5328" cy="2724" r="5" fill="green" stroke="none" /><circle cx="1686" cy="2653" r="5" fill="green" stroke="none" /><circle cx="6308" cy="2162" r="5" fill="green" stroke="none" /><circle cx="2965" cy="2176" r="5" fill="green" stroke="none" /><circle cx="6979" cy="1185" r="5" fill="green" stroke="none" /><circle cx="2236" cy="2274" r="5" fill="green" stroke="none" /><circle cx="6032" cy="1880" r="5" fill="green" stroke="none" /><circle cx="6991" cy="335" r="5" fill="green" stroke="none" /><circle cx="5618" cy="1943" r="5" fill="green" stroke="none" /><circle cx="2054" cy="2818" r="5" fill="green" stroke="none" /><circle cx="3883" cy="3444" r="5" fill="green" stroke="none" /><circle cx="4746" cy="2761" r="5" fill="green" stroke="none" /><circle cx="3999" cy="173" r="5" fill="green" stroke="none" /><circle cx="6081" cy="919" r="5" fill="green" stroke="none" /><circle cx="686" cy="1804" r="5" fill="green" stroke="none" /><circle cx="6020" cy="3721" r="5" fill="green" stroke="none" /><circle cx="785" cy="1919" r="5" fill="green" stroke="none" /><circle cx="2481" cy="2862" r="5" fill="green" stroke="none" /><circle cx="373" cy="1202" r="5" fill="green" stroke="none" /><circle cx="3225" cy="528" r="5" fill="green" stroke="none" /><circle cx="3174" cy="1369" r="5" fill="green" stroke="none" /><circle cx="3971" cy="2075" r="5" fill="green" stroke="none" /><circle cx="4711" cy="3311" r="5" fill="green" stroke="none" /><circle cx="7018" cy="3529" r="5" fill="green" stroke="none" /><circle cx="3306" cy="2862" r="5" fill="green" stroke="none" /><circle cx="5320" cy="766" r="5" fill="green" stroke="none" /><circle cx="4478" cy="718" r="5" fill="green" stroke="none" /><circle cx="5636" cy="422" r="5" fill="green" stroke="none" /><circle cx="3862" cy="505" r="5" fill="green" stroke="none" /><circle cx="7141" cy="969" r="5" fill="green" stroke="none" /><circle cx="5792" cy="1376" r="5" fill="green" stroke="none" /><circle cx="2430" cy="3858" r="5" fill="green" stroke="none" /><circle cx="3226" cy="2601" r="5" fill="green" stroke="none" /><circle cx="2823" cy="1814" r="5" fill="green" stroke="none" /><circle cx="840" cy="1797" r="5" fill="green" stroke="none" /><circle cx="2612" cy="3542" r="5" fill="green" stroke="none" /><circle cx="914" cy="666" r="5" fill="green" stroke="none" /><circle cx="1594" cy="548" r="5" fill="green" stroke="none" /><circle cx="3856" cy="3049" r="5" fill="green" stroke="none" /><circle cx="145" cy="3464" r="5" fill="green" stroke="none" /><circle cx="2191" cy="817" r="5" fill="green" stroke="none" /><circle cx="2017" cy="632" r="5" fill="green" stroke="none" /><circle cx="4931" cy="1915" r="5" fill="green" stroke="none" /><circle cx="6960" cy="1243" r="5" fill="green" stroke="none" /><circle cx="5125" cy="76" r="5" fill="green" stroke="none" /><circle cx="6034" cy="222" r="5" fill="green" stroke="none" /><circle cx="270" cy="3852" r="5" fill="green" stroke="none" /><circle cx="3838" cy="2141" r="5" fill="green" stroke="none" /><circle cx="1417" cy="1059" r="5" fill="green" stroke="none" /><circle cx="5742" cy="2786" r="5" fill="green" stroke="none" /><circle cx="5258" cy="2746" r="5" fill="green" stroke="none" /><circle cx="5694" cy="2611" r="5" fill="green" stroke="none" /><circle cx="378" cy="3790" r="5" fill="green" stroke="none" /><circle cx="549" cy="1497" r="5" fill="green" stroke="none" /><circle cx="373" cy="2507" r="5" fill="green" stroke="none" /><circle cx="4158" cy="1132" r="5" fill="green" stroke="none" /><circle cx="4256" cy="1495" r="5" fill="green" stroke="none" /><circle cx="4357" cy="3220" r="5" fill="green" stroke="none" /><circle cx="4303" cy="1968" r="5" fill="green" stroke="none" /><circle cx="867" cy="1207" r="5" fill="green" stroke="none" /><circle cx="6074" cy="1899" r="5" fill="green" stroke="none" /><circle cx="3648" cy="2266" r="5" fill="green" stroke="none" /><circle cx="5813" cy="2092" r="5" fill="green" stroke="none" /><circle cx="6095" cy="410" r="5" fill="green" stroke="none" /><circle cx="1586" cy="954" r="5" fill="green" stroke="none" /><circle cx="4239" cy="1116" r="5" fill="green" stroke="none" /><circle cx="1919" cy="2956" r="5" fill="green" stroke="none" /><circle cx="1662" cy="1352" r="5" fill="green" stroke="none" /><circle cx="1745" cy="3725" r="5" fill="green" stroke="none" /><circle cx="1716" cy="1343" r="5" fill="green" stroke="none" /><circle cx="7124" cy="2576" r="5" fill="green" stroke="none" /><circle cx="2039" cy="139" r="5" fill="green" stroke="none" /><circle cx="2090" cy="1230" r="5" fill="green" stroke="none" /><circle cx="4467" cy="3410" r="5" fill="green" stroke="none" /><circle cx="4602" cy="3835" r="5" fill="green" stroke="none" /><circle cx="2303" cy="1551" r="5" fill="green" stroke="none" /><circle cx="3183" cy="3506" r="5" fill="green" stroke="none" /><circle cx="6716" cy="729" r="5" fill="green" stroke="none" /><circle cx="937" cy="2135" r="5" fill="green" stroke="none" /><circle cx="7029" cy="1101" r="5" fill="green" stroke="none" /><circle cx="6534" cy="753" r="5" fill="green" stroke="none" /><circle cx="6611" cy="2989" r="5" fill="green" stroke="none" /><circle cx="6908" cy="540" r="5" fill="green" stroke="none" /><circle cx="1600" cy="1940" r="5" fill="green" stroke="none" /><circle cx="1964" cy="1809" r="5" fill="green" stroke="none" /><circle cx="4247" cy="396" r="5" fill="green" stroke="none" /><circle cx="5411" cy="871" r="5" fill="green" stroke="none" /><circle cx="5576" cy="818" r="5" fill="green" stroke="none" /><circle cx="3200" cy="3832" r="5" fill="green" stroke="none" /><circle cx="1017" cy="3083" r="5" fill="green" stroke="none" /><circle cx="2627" cy="2799" r="5" fill="green" stroke="none" /><circle cx="4969" cy="850" r="5" fill="green" stroke="none" /><circle cx="3067" cy="826" r="5" fill="green" stroke="none" /><circle cx="1230" cy="1851" r="5" fill="green" stroke="none" /><circle cx="4727" cy="2666" r="5" fill="green" stroke="none" /><circle cx="6151" cy="2410" r="5" fill="green" stroke="none" /><circle cx="2628" cy="2364" r="5" fill="green" stroke="none" /><circle cx="6014" cy="8" r="5" fill="green" stroke="none" /><circle cx="4386" cy="955" r="5" fill="green" stroke="none" /><circle cx="2173" cy="348" r="5" fill="green" stroke="none" /><circle cx="3509" cy="835" r="5" fill="green" stroke="none" /><circle cx="6410" cy="1454" r="5" fill="green" stroke="none" /><circle cx="1291" cy="962" r="5" fill="green" stroke="none" /><circle cx="4908" cy="2359" r="5" fill="green" stroke="none" /><circle cx="2789" cy="3716" r="5" fill="green" stroke="none" /><circle cx="3040" cy="2086" r="5" fill="green" stroke="none" /><circle cx="4940" cy="3669" r="5" fill="green" stroke="none" /><circle cx="1967" cy="3679" r="5" fill="green" stroke="none" /><circle cx="5211" cy="1857" r="5" fill="green" stroke="none" /><circle cx="3739" cy="144" r="5" fill="green" stroke="none" /><circle cx="1414" cy="1144" r="5" fill="green" stroke="none" /><circle cx="4802" cy="360" r="5" fill="green" stroke="none" /><circle cx="637" cy="2748" r="5" fill="green" stroke="none" /><circle cx="7113" cy="1340" r="5" fill="green" stroke="none" /><circle cx="1188" cy="1786" r="5" fill="green" stroke="none" /><circle cx="1804" cy="3390" r="5" fill="green" stroke="none" /><circle cx="925" cy="807" r="5" fill="green" stroke="none" /><circle cx="1356" cy="889" r="5" fill="green" stroke="none" /><circle cx="3084" cy="1794" r="5" fill="green" stroke="none" /><circle cx="1121" cy="911" r="5" fill="green" stroke="none" /><circle cx="6980" cy="2069" r="5" fill="green" stroke="none" /><circle cx="1477" cy="2281" r="5" fill="green" stroke="none" /><circle cx="4552" cy="1204" r="5" fill="green" stroke="none" /><circle cx="2002" cy="1292" r="5" fill="green" stroke="none" /><circle cx="4884" cy="2998" r="5" fill="green" stroke="none" /><circle cx="57" cy="722" r="5" fill="green" stroke="none" /><circle cx="2000" cy="3186" r="5" fill="green" stroke="none" /><circle cx="4999" cy="2047" r="5" fill="green" stroke="none" /><circle cx="2280" cy="1874" r="5" fill="green" stroke="none" /><circle cx="3512" cy="3233" r="5" fill="green" stroke="none" /><circle cx="2996" cy="1545" r="5" fill="green" stroke="none" /><circle cx="1099" cy="2282" r="5" fill="green" stroke="none" /><circle cx="2684" cy="1634" r="5" fill="green" stroke="none" /><circle cx="4232" cy="2353" r="5" fill="green" stroke="none" /><circle cx="6951" cy="3533" r="5" fill="green" stroke="none" /><circle cx="6179" cy="3424" r="5" fill="green" stroke="none" /><circle cx="1862" cy="1083" r="5" fill="green" stroke="none" /><circle cx="5337" cy="3249" r="5" fill="green" stroke="none" /><circle cx="2002" cy="166" r="5" fill="green" stroke="none" /><circle cx="2075" cy="352" r="5" fill="green" stroke="none" /><circle cx="1864" cy="2218" r="5" fill="green" stroke="none" /><circle cx="2327" cy="2893" r="5" fill="green" stroke="none" /><circle cx="2931" cy="3721" r="5" fill="green" stroke="none" /><circle cx="4092" cy="674" r="5" fill="green" stroke="none" /><circle cx="5541" cy="692" r="5" fill="green" stroke="none" /><circle cx="6105" cy="2025" r="5" fill="green" stroke="none" /><circle cx="7117" cy="780" r="5" fill="green" stroke="none" /><circle cx="2078" cy="3749" r="5" fill="green" stroke="none" /><circle cx="374" cy="1691" r="5" fill="green" stroke="none" /><circle cx="5827" cy="129" r="5" fill="green" stroke="none" /><circle cx="6226" cy="700" r="5" fill="green" stroke="none" /><circle cx="6553" cy="354" r="5" fill="green" stroke="none" /><circle cx="3338" cy="3208" r="5" fill="green" stroke="none" /><circle cx="3438" cy="3277" r="5" fill="green" stroke="none" /><circle cx="6254" cy="1480" r="5" fill="green" stroke="none" /><circle cx="6424" cy="1796" r="5" fill="green" stroke="none" /><circle cx="4839" cy="3759" r="5" fill="green" stroke="none" /><circle cx="4669" cy="1560" r="5" fill="green" stroke="none" /><circle cx="6428" cy="2343" r="5" fill="green" stroke="none" /><circle cx="4526" cy="3429" r="5" fill="green" stroke="none" /><circle cx="1790" cy="2036" r="5" fill="green" stroke="none" /><circle cx="777" cy="1866" r="5" fill="green" stroke="none" /><circle cx="4137" cy="338" r="5" fill="green" stroke="none" /><circle cx="823" cy="2253" r="5" fill="green" stroke="none" /><circle cx="1404" cy="1854" r="5" fill="green" stroke="none" /><circle cx="153" cy="696" r="5" fill="green" stroke="none" /><circle cx="5091" cy="1425" r="5" fill="green" stroke="none" /><circle cx="3501" cy="29" r="5" fill="green" stroke="none" /><circle cx="2973" cy="2818" r="5" fill="green" stroke="none" /><circle cx="1632" cy="1542" r="5" fill="green" stroke="none" /><circle cx="4495" cy="213" r="5" fill="green" stroke="none" /><circle cx="2898" cy="429" r="5" fill="green" stroke="none" /><circle cx="5728" cy="2676" r="5" fill="green" stroke="none" /><circle cx="3329" cy="3596" r="5" fill="green" stroke="none" /><circle cx="3007" cy="2329" r="5" fill="green" stroke="none" /><circle cx="5173" cy="3506" r="5" fill="green" stroke="none" /><circle cx="6017" cy="1844" r="5" fill="green" stroke="none" /><circle cx="4839" cy="1530" r="5" fill="green" stroke="none" /><circle cx="6153" cy="2183" r="5" fill="green" stroke="none" /><circle cx="2524" cy="3646" r="5" fill="green" stroke="none" /><circle cx="5353" cy="522" r="5" fill="green" stroke="none" /><circle cx="6692" cy="1309" r="5" fill="green" stroke="none" /><circle cx="6355" cy="1248" r="5" fill="green" stroke="none" /><circle cx="589" cy="293" r="5" fill="green" stroke="none" /><circle cx="2402" cy="3368" r="5" fill="green" stroke="none" /><circle cx="5250" cy="617" r="5" fill="green" stroke="none" /><circle cx="5703" cy="2578" r="5" fill="green" stroke="none" /><circle cx="641" cy="2422" r="5" fill="green" stroke="none" /><circle cx="5443" cy="2546" r="5" fill="green" stroke="none" /><circle cx="372" cy="982" r="5" fill="green" stroke="none" /><circle cx="6865" cy="3731" r="5" fill="green" stroke="none" /><circle cx="1414" cy="3777" r="5" fill="green" stroke="none" /><circle cx="380" cy="938" r="5" fill="green" stroke="none" /><circle cx="6004" cy="1494" r="5" fill="green" stroke="none" /><circle cx="7027" cy="1309" r="5" fill="green" stroke="none" /><circle cx="2362" cy="1916" r="5" fill="green" stroke="none" /><circle cx="2482" cy="1303" r="5" fill="green" stroke="none" /><circle cx="3700" cy="3170" r="5" fill="green" stroke="none" /><circle cx="741" cy="583" r="5" fill="green" stroke="none" /><circle cx="6888.777692863335" cy="1881" r="5" fill="blue" stroke="none" /><circle cx="6750" cy="2122.999724742398" r="5" fill="blue" stroke="none" /><circle cx="6900.617055257013" cy="1881" r="5" fill="blue" stroke="none" /><circle cx="6750" cy="1967.6510155145425" r="5" fill="blue" stroke="none" /><circle cx="6911" cy="2078.400802365831" r="5" fill="blue" stroke="none" /><circle cx="6750" cy="2112.46396835669" r="5" fill="blue" stroke="none" /><circle cx="6750" cy="2086.3614163111806" r="5" fill="blue" stroke="none" /><circle cx="6878.737595298805" cy="1881" r="5" fill="blue" stroke="none" /><circle cx="6750" cy="2001.2085353835275" r="5" fill="blue" stroke="none" /><circle cx="6832.876284238552" cy="1881" r="5" fill="blue" stroke="none" /><circle cx="6761.397461441205" cy="2070.4536256716715" r="5" fill="blue" stroke="none" /><circle cx="6911" cy="2091.283112310196" r="5" fill="blue" stroke="none" /><circle cx="6750" cy="2066.068949293291" r="5" fill="blue" stroke="none" /><circle cx="6750" cy="2510.4341780217237" r="5" fill="blue" stroke="none" /><circle cx="6911" cy="2053.777848727602" r="5" fill="blue" stroke="none" /><circle cx="6750" cy="2076.164578705715" r="5" fill="blue" stroke="none" /><circle cx="6911" cy="2064.1198264258956" r="5" fill="blue" stroke="none" /><circle cx="6911" cy="1881" r="5" fill="blue" stroke="none" /><circle cx="6756.4739949234245" cy="2094.58347427067" r="5" fill="blue" stroke="none" /><circle cx="6750" cy="2045.320316313444" r="5" fill="blue" stroke="none" /><circle cx="6750" cy="2035.2351037226003" r="5" fill="blue" stroke="none" /><circle cx="6891.668896988096" cy="1890.991683257717" r="5" fill="blue" stroke="none" /><circle cx="6750" cy="2530.144828600277" r="5" fill="blue" stroke="none" /><circle cx="6750" cy="2056.002246124391" r="5" fill="blue" stroke="none" /><circle cx="6750" cy="1986.675687692588" r="5" fill="blue" stroke="none" /><circle cx="6911" cy="2043.341292474103" r="5" fill="blue" stroke="none" /><circle cx="6750.919191869167" cy="1891.921462187921" r="5" fill="blue" stroke="none" /><circle cx="6911" cy="2101.5103593848903" r="5" fill="blue" stroke="none" /><circle cx="6750" cy="2149.4964444713896" r="5" fill="blue" stroke="none" /><circle cx="6759.347129949938" cy="2082.682723949054" r="5" fill="blue" stroke="none" /><circle cx="6750" cy="2025.127455080352" r="5" fill="blue" stroke="none" /><circle cx="6750" cy="2133.101392703644" r="5" fill="blue" stroke="none" /><circle cx="6750" cy="2102.375030764653" r="5" fill="blue" stroke="none" /><circle cx="6750" cy="2014.086856588532" r="5" fill="blue" stroke="none" /></svg>