<svg viewBox="0 0 2372 1101" xmlns="http://www.w3.org/2000/svg"><rect x="0" y="0" width="2372" height="1101" fill="lightyellow" stroke="none "/><rect x="1719" y="498" width="636" height="279" fill="white" stroke="black "/><circle cx="346" cy="454" r="5" fill="green" stroke="none" /><circle cx="1522" cy="440" r="5" fill="green" stroke="none" /><circle cx="2192" cy="869" r="5" fill="green" stroke="none" /><circle cx="669" cy="518" r="5" fill="green" stroke="none" /><circle cx="131" cy="119" r="5" fill="green" stroke="none" /><circle cx="1679" cy="668" r="5" fill="green" stroke="none" /><circle cx="88" cy="547" r="5" fill="green" stroke="none" /><circle cx="182" cy="1063" r="5" fill="green" stroke="none" /><circle cx="1183" cy="893" r="5" fill="green" stroke="none" /><circle cx="186" cy="250" r="5" fill="green" stroke="none" /><circle cx="485" cy="868" r="5" fill="green" stroke="none" /><circle cx="1705" cy="171" r="5" fill="green" stroke="none" /><circle cx="1755" cy="375" r="5" fill="green" stroke="none" /><circle cx="846" cy="833" r="5" fill="green" stroke="none" /><circle cx="2281" cy="169" r="5" fill="green" stroke="none" /><circle cx="1593" cy="208" r="5" fill="green" stroke="none" /><circle cx="92" cy="521" r="5" fill="green" stroke="none" /><circle cx="159" cy="158" r="5" fill="green" stroke="none" /><circle cx="110" cy="340" r="5" fill="green" stroke="none" /><circle cx="1665" cy="218" r="5" fill="green" stroke="none" /><circle cx="760" cy="574" r="5" fill="green" stroke="none" /><circle cx="1515" cy="838" r="5" fill="green" stroke="none" /><circle cx="837" cy="135" r="5" fill="green" stroke="none" /><circle cx="1208" cy="721" r="5" fill="green" stroke="none" /><circle cx="2220" cy="1019" r="5" fill="green" stroke="none" /><circle cx="948" cy="1025" r="5" fill="green" stroke="none" /><circle cx="697" cy="81" r="5" fill="green" stroke="none" /><circle cx="1002" cy="307" r="5" fill="green" stroke="none" /><circle cx="1451" cy="951" r="5" fill="green" stroke="none" /><circle cx="1675" cy="387" r="5" fill="green" stroke="none" /><circle cx="242" cy="76" r="5" fill="green" stroke="none" /><circle cx="2231" cy="930" r="5" fill="green" stroke="none" /><circle cx="1817" cy="821" r="5" fill="green" stroke="none" /><circle cx="1507" cy="450" r="5" fill="green" stroke="none" /><circle cx="834" cy="885" r="5" fill="green" stroke="none" /><circle cx="433" cy="114" r="5" fill="green" stroke="none" /><circle cx="75" cy="1011" r="5" fill="green" stroke="none" /><circle cx="44" cy="272" r="5" fill="green" stroke="none" /><circle cx="674" cy="334" r="5" fill="green" stroke="none" /><circle cx="927" cy="479" r="5" fill="green" stroke="none" /><circle cx="653" cy="772" r="5" fill="green" stroke="none" /><circle cx="1793" cy="396" r="5" fill="green" stroke="none" /><circle cx="1409" cy="198" r="5" fill="green" stroke="none" /><circle cx="561" cy="695" r="5" fill="green" stroke="none" /><circle cx="1024" cy="837" r="5" fill="green" stroke="none" /><circle cx="690" cy="526" r="5" fill="green" stroke="none" /><circle cx="415" cy="956" r="5" fill="green" stroke="none" /><circle cx="96" cy="519" r="5" fill="green" stroke="none" /><circle cx="2168" cy="325" r="5" fill="green" stroke="none" /><circle cx="1031" cy="75" r="5" fill="green" stroke="none" /><circle cx="1093" cy="192" r="5" fill="green" stroke="none" /><circle cx="391" cy="870" r="5" fill="green" stroke="none" /><circle cx="5" cy="355" r="5" fill="green" stroke="none" /><circle cx="59" cy="358" r="5" fill="green" stroke="none" /><circle cx="636" cy="143" r="5" fill="green" stroke="none" /><circle cx="778" cy="718" r="5" fill="green" stroke="none" /><circle cx="1628" cy="709" r="5" fill="green" stroke="none" /><circle cx="924" cy="1100" r="5" fill="green" stroke="none" /><circle cx="748" cy="492" r="5" fill="green" stroke="none" /><circle cx="2190" cy="904" r="5" fill="green" stroke="none" /><circle cx="750" cy="951" r="5" fill="green" stroke="none" /><circle cx="1433" cy="949" r="5" fill="green" stroke="none" /><circle cx="1497" cy="574" r="5" fill="green" stroke="none" /><circle cx="579" cy="592" r="5" fill="green" stroke="none" /><circle cx="229" cy="167" r="5" fill="green" stroke="none" /><circle cx="1559" cy="143" r="5" fill="green" stroke="none" /><circle cx="76" cy="1090" r="5" fill="green" stroke="none" /><circle cx="496" cy="796" r="5" fill="green" stroke="none" /><circle cx="1396" cy="959" r="5" fill="green" stroke="none" /><circle cx="909" cy="323" r="5" fill="green" stroke="none" /><circle cx="922" cy="980" r="5" fill="green" stroke="none" /><circle cx="477" cy="898" r="5" fill="green" stroke="none" /><circle cx="56" cy="708" r="5" fill="green" stroke="none" /><circle cx="1915" cy="1051" r="5" fill="green" stroke="none" /><circle cx="1031" cy="976" r="5" fill="green" stroke="none" /><circle cx="1110" cy="700" r="5" fill="green" stroke="none" /><circle cx="737" cy="214" r="5" fill="green" stroke="none" /><circle cx="596" cy="54" r="5" fill="green" stroke="none" /><circle cx="921" cy="1096" r="5" fill="green" stroke="none" /><circle cx="947" cy="907" r="5" fill="green" stroke="none" /><circle cx="1206" cy="566" r="5" fill="green" stroke="none" /><circle cx="1305" cy="535" r="5" fill="green" stroke="none" /><circle cx="632" cy="163" r="5" fill="green" stroke="none" /><circle cx="941" cy="917" r="5" fill="green" stroke="none" /><circle cx="1587" cy="262" r="5" fill="green" stroke="none" /><circle cx="619" cy="630" r="5" fill="green" stroke="none" /><circle cx="1666" cy="668" r="5" fill="green" stroke="none" /><circle cx="1698" cy="115" r="5" fill="green" stroke="none" /><circle cx="1866" cy="111" r="5" fill="green" stroke="none" /><circle cx="1566" cy="1026" r="5" fill="green" stroke="none" /><circle cx="83" cy="464" r="5" fill="green" stroke="none" /><circle cx="2130" cy="323" r="5" fill="green" stroke="none" /><circle cx="1183" cy="493" r="5" fill="green" stroke="none" /><circle cx="1043" cy="529" r="5" fill="green" stroke="none" /><circle cx="2370" cy="33" r="5" fill="green" stroke="none" /><circle cx="1216" cy="220" r="5" fill="green" stroke="none" /><circle cx="2127" cy="215" r="5" fill="green" stroke="none" /><circle cx="2165" cy="55" r="5" fill="green" stroke="none" /><circle cx="1879" cy="442" r="5" fill="green" stroke="none" /><circle cx="1906" cy="1016" r="5" fill="green" stroke="none" /><circle cx="1014" cy="782" r="5" fill="green" stroke="none" /><circle cx="53" cy="818" r="5" fill="green" stroke="none" /><circle cx="1024" cy="814" r="5" fill="green" stroke="none" /><circle cx="444" cy="327" r="5" fill="green" stroke="none" /><circle cx="1016" cy="595" r="5" fill="green" stroke="none" /><circle cx="2369" cy="800" r="5" fill="green" stroke="none" /><circle cx="994" cy="542" r="5" fill="green" stroke="none" /><circle cx="1531" cy="414" r="5" fill="green" stroke="none" /><circle cx="1997" cy="416" r="5" fill="green" stroke="none" /><circle cx="1372" cy="571" r="5" fill="green" stroke="none" /><circle cx="1196" cy="126" r="5" fill="green" stroke="none" /><circle cx="2190" cy="396" r="5" fill="green" stroke="none" /><circle cx="2086" cy="403" r="5" fill="green" stroke="none" /><circle cx="1296" cy="611" r="5" fill="green" stroke="none" /><circle cx="1171" cy="450" r="5" fill="green" stroke="none" /><circle cx="1453" cy="202" r="5" fill="green" stroke="none" /><circle cx="2291" cy="398" r="5" fill="green" stroke="none" /><circle cx="1630" cy="1052" r="5" fill="green" stroke="none" /><circle cx="2306" cy="205" r="5" fill="green" stroke="none" /><circle cx="599" cy="199" r="5" fill="green" stroke="none" /><circle cx="1468" cy="931" r="5" fill="green" stroke="none" /><circle cx="1324" cy="699" r="5" fill="green" stroke="none" /><circle cx="328" cy="392" r="5" fill="green" stroke="none" /><circle cx="229" cy="657" r="5" fill="green" stroke="none" /><circle cx="884" cy="594" r="5" fill="green" stroke="none" /><circle cx="1988" cy="420" r="5" fill="green" stroke="none" /><circle cx="1172" cy="78" r="5" fill="green" stroke="none" /><circle cx="223" cy="904" r="5" fill="green" stroke="none" /><circle cx="698" cy="703" r="5" fill="green" stroke="none" /><circle cx="245" cy="728" r="5" fill="green" stroke="none" /><circle cx="1267" cy="371" r="5" fill="green" stroke="none" /><circle cx="1559" cy="911" r="5" fill="green" stroke="none" /><circle cx="723" cy="106" r="5" fill="green" stroke="none" /><circle cx="1406" cy="731" r="5" fill="green" stroke="none" /><circle cx="482" cy="632" r="5" fill="green" stroke="none" /><circle cx="222" cy="964" r="5" fill="green" stroke="none" /><circle cx="1059" cy="791" r="5" fill="green" stroke="none" /><circle cx="854" cy="1053" r="5" fill="green" stroke="none" /><circle cx="1947" cy="429" r="5" fill="green" stroke="none" /><circle cx="815" cy="125" r="5" fill="green" stroke="none" /><circle cx="2313" cy="102" r="5" fill="green" stroke="none" /><circle cx="1845" cy="820" r="5" fill="green" stroke="none" /><circle cx="1620" cy="669" r="5" fill="green" stroke="none" /><circle cx="1070" cy="937" r="5" fill="green" stroke="none" /><circle cx="1015" cy="112" r="5" fill="green" stroke="none" /><circle cx="2073" cy="214" r="5" fill="green" stroke="none" /><circle cx="132" cy="533" r="5" fill="green" stroke="none" /><circle cx="648" cy="263" r="5" fill="green" stroke="none" /><circle cx="395" cy="331" r="5" fill="green" stroke="none" /><circle cx="996" cy="627" r="5" fill="green" stroke="none" /><circle cx="1124" cy="1035" r="5" fill="green" stroke="none" /><circle cx="93" cy="962" r="5" fill="green" stroke="none" /><circle cx="643" cy="113" r="5" fill="green" stroke="none" /><circle cx="2354" cy="794" r="5" fill="green" stroke="none" /><circle cx="75" cy="449" r="5" fill="green" stroke="none" /><circle cx="298" cy="128" r="5" fill="green" stroke="none" /><circle cx="2076" cy="1004" r="5" fill="green" stroke="none" /><circle cx="420" cy="172" r="5" fill="green" stroke="none" /><circle cx="257" cy="160" r="5" fill="green" stroke="none" /><circle cx="178" cy="147" r="5" fill="green" stroke="none" /><circle cx="1245" cy="394" r="5" fill="green" stroke="none" /><circle cx="146" cy="470" r="5" fill="green" stroke="none" /><circle cx="375" cy="756" r="5" fill="green" stroke="none" /><circle cx="1402" cy="955" r="5" fill="green" stroke="none" /><circle cx="428" cy="887" r="5" fill="green" stroke="none" /><circle cx="1878" cy="35" r="5" fill="green" stroke="none" /><circle cx="798" cy="107" r="5" fill="green" stroke="none" /><circle cx="269" cy="712" r="5" fill="green" stroke="none" /><circle cx="1919" cy="96" r="5" fill="green" stroke="none" /><circle cx="534" cy="239" r="5" fill="green" stroke="none" /><circle cx="956" cy="1064" r="5" fill="green" stroke="none" /><circle cx="1228" cy="280" r="5" fill="green" stroke="none" /><circle cx="1121" cy="113" r="5" fill="green" stroke="none" /><circle cx="309" cy="309" r="5" fill="green" stroke="none" /><circle cx="546" cy="944" r="5" fill="green" stroke="none" /><circle cx="293" cy="869" r="5" fill="green" stroke="none" /><circle cx="1175" cy="725" r="5" fill="green" stroke="none" /><circle cx="1511" cy="314" r="5" fill="green" stroke="none" /><circle cx="1575" cy="894" r="5" fill="green" stroke="none" /><circle cx="1758" cy="961" r="5" fill="green" stroke="none" /><circle cx="818" cy="686" r="5" fill="green" stroke="none" /><circle cx="118" cy="997" r="5" fill="green" stroke="none" /><circle cx="1381" cy="109" r="5" fill="green" stroke="none" /><circle cx="992" cy="433" r="5" fill="green" stroke="none" /><circle cx="647" cy="511" r="5" fill="green" stroke="none" /><circle cx="2028" cy="329" r="5" fill="green" stroke="none" /><circle cx="1759" cy="162" r="5" fill="green" stroke="none" /><circle cx="279" cy="257" r="5" fill="green" stroke="none" /><circle cx="209" cy="554" r="5" fill="green" stroke="none" /><circle cx="877" cy="766" r="5" fill="green" stroke="none" /><circle cx="2162" cy="856" r="5" fill="green" stroke="none" /><circle cx="1610" cy="147" r="5" fill="green" stroke="none" /><circle cx="1482" cy="484" r="5" fill="green" stroke="none" /><circle cx="2272" cy="395" r="5" fill="green" stroke="none" /><circle cx="849" cy="77" r="5" fill="green" stroke="none" /><circle cx="423" cy="999" r="5" fill="green" stroke="none" /><circle cx="873" cy="432" r="5" fill="green" stroke="none" /><circle cx="271" cy="105" r="5" fill="green" stroke="none" /><circle cx="2173" cy="109" r="5" fill="green" stroke="none" /><circle cx="116" cy="75" r="5" fill="green" stroke="none" /><circle cx="1921" cy="361" r="5" fill="green" stroke="none" /><circle cx="731" cy="904" r="5" fill="green" stroke="none" /><circle cx="1149" cy="615" r="5" fill="green" stroke="none" /><circle cx="587" cy="373" r="5" fill="green" stroke="none" /><circle cx="858" cy="667" r="5" fill="green" stroke="none" /><circle cx="1880" cy="268" r="5" fill="green" stroke="none" /><circle cx="1110" cy="290" r="5" fill="green" stroke="none" /><circle cx="1774" cy="96" r="5" fill="green" stroke="none" /><circle cx="943" cy="466" r="5" fill="green" stroke="none" /><circle cx="1281" cy="945" r="5" fill="green" stroke="none" /><circle cx="602" cy="654" r="5" fill="green" stroke="none" /><circle cx="887" cy="842" r="5" fill="green" stroke="none" /><circle cx="1640" cy="372" r="5" fill="green" stroke="none" /><circle cx="1403" cy="595" r="5" fill="green" stroke="none" /><circle cx="1031" cy="673" r="5" fill="green" stroke="none" /><circle cx="699" cy="220" r="5" fill="green" stroke="none" /><circle cx="97" cy="123" r="5" fill="green" stroke="none" /><circle cx="1391" cy="115" r="5" fill="green" stroke="none" /><circle cx="1357" cy="1017" r="5" fill="green" stroke="none" /><circle cx="1760" cy="833" r="5" fill="green" stroke="none" /><circle cx="958" cy="723" r="5" fill="green" stroke="none" /><circle cx="40" cy="1049" r="5" fill="green" stroke="none" /><circle cx="95" cy="858" r="5" fill="green" stroke="none" /><circle cx="2206" cy="804" r="5" fill="green" stroke="none" /><circle cx="355" cy="73" r="5" fill="green" stroke="none" /><circle cx="1225" cy="1074" r="5" fill="green" stroke="none" /><circle cx="453" cy="34" r="5" fill="green" stroke="none" /><circle cx="2249" cy="353" r="5" fill="green" stroke="none" /><circle cx="2207" cy="297" r="5" fill="green" stroke="none" /><circle cx="2188" cy="909" r="5" fill="green" stroke="none" /><circle cx="2229" cy="216" r="5" fill="green" stroke="none" /><circle cx="1097" cy="354" r="5" fill="green" stroke="none" /><circle cx="1160" cy="686" r="5" fill="green" stroke="none" /><circle cx="880" cy="1070" r="5" fill="green" stroke="none" /><circle cx="2239" cy="296" r="5" fill="green" stroke="none" /><circle cx="880" cy="113" r="5" fill="green" stroke="none" /><circle cx="416" cy="842" r="5" fill="green" stroke="none" /><circle cx="1805" cy="58" r="5" fill="green" stroke="none" /><circle cx="754" cy="1063" r="5" fill="green" stroke="none" /><circle cx="405" cy="971" r="5" fill="green" stroke="none" /><circle cx="1126" cy="94" r="5" fill="green" stroke="none" /><circle cx="678" cy="279" r="5" fill="green" stroke="none" /><circle cx="1016" cy="1098" r="5" fill="green" stroke="none" /><circle cx="34" cy="726" r="5" fill="green" stroke="none" /><circle cx="1397" cy="793" r="5" fill="green" stroke="none" /><circle cx="1093" cy="1083" r="5" fill="green" stroke="none" /><circle cx="2174" cy="934" r="5" fill="green" stroke="none" /><circle cx="1200" cy="449" r="5" fill="green" stroke="none" /><circle cx="1682" cy="547" r="5" fill="green" stroke="none" /><circle cx="1569" cy="468" r="5" fill="green" stroke="none" /><circle cx="1655" cy="743" r="5" fill="green" stroke="none" /><circle cx="1002" cy="689" r="5" fill="green" stroke="none" /><circle cx="1562" cy="871" r="5" fill="green" stroke="none" /><circle cx="842" cy="439" r="5" fill="green" stroke="none" /><circle cx="1954" cy="222" r="5" fill="green" stroke="none" /><circle cx="1927" cy="325" r="5" fill="green" stroke="none" /><circle cx="1933" cy="8" r="5" fill="green" stroke="none" /><circle cx="1642" cy="1009" r="5" fill="green" stroke="none" /><circle cx="1348" cy="90" r="5" fill="green" stroke="none" /><circle cx="988" cy="805" r="5" fill="green" stroke="none" /><circle cx="621" cy="735" r="5" fill="green" stroke="none" /><circle cx="648" cy="835" r="5" fill="green" stroke="none" /><circle cx="1522" cy="324" r="5" fill="green" stroke="none" /><circle cx="1000" cy="586" r="5" fill="green" stroke="none" /><circle cx="1331" cy="492" r="5" fill="green" stroke="none" /><circle cx="130" cy="441" r="5" fill="green" stroke="none" /><circle cx="2283" cy="169" r="5" fill="green" stroke="none" /><circle cx="1380" cy="312" r="5" fill="green" stroke="none" /><circle cx="1501" cy="924" r="5" fill="green" stroke="none" /><circle cx="1485" cy="91" r="5" fill="green" stroke="none" /><circle cx="1687" cy="1020" r="5" fill="green" stroke="none" /><circle cx="1746" cy="456" r="5" fill="green" stroke="none" /><circle cx="2239" cy="408" r="5" fill="green" stroke="none" /><circle cx="2039" cy="1080" r="5" fill="green" stroke="none" /><circle cx="783" cy="830" r="5" fill="green" stroke="none" /><circle cx="145" cy="367" r="5" fill="green" stroke="none" /><circle cx="1242" cy="1094" r="5" fill="green" stroke="none" /><circle cx="2361" cy="397" r="5" fill="green" stroke="none" /><circle cx="1428" cy="228" r="5" fill="green" stroke="none" /><circle cx="1047" cy="678" r="5" fill="green" stroke="none" /><circle cx="2284" cy="482" r="5" fill="green" stroke="none" /><circle cx="584" cy="993" r="5" fill="green" stroke="none" /><circle cx="2330" cy="241" r="5" fill="green" stroke="none" /><circle cx="1778" cy="476" r="5" fill="green" stroke="none" /><circle cx="1946" cy="13" r="5" fill="green" stroke="none" /><circle cx="1981" cy="471" r="5" fill="green" stroke="none" /><circle cx="1721" cy="157" r="5" fill="green" stroke="none" /><circle cx="1579" cy="290" r="5" fill="green" stroke="none" /><circle cx="159" cy="413" r="5" fill="green" stroke="none" /><circle cx="38" cy="1034" r="5" fill="green" stroke="none" /><circle cx="727" cy="1006" r="5" fill="green" stroke="none" /><circle cx="1679" cy="351" r="5" fill="green" stroke="none" /><circle cx="392" cy="138" r="5" fill="green" stroke="none" /><circle cx="586" cy="555" r="5" fill="green" stroke="none" /><circle cx="397" cy="355" r="5" fill="green" stroke="none" /><circle cx="0" cy="429" r="5" fill="green" stroke="none" /><circle cx="893" cy="1045" r="5" fill="green" stroke="none" /><circle cx="1336" cy="644" r="5" fill="green" stroke="none" /><circle cx="1508" cy="798" r="5" fill="green" stroke="none" /><circle cx="1276" cy="878" r="5" fill="green" stroke="none" /><circle cx="1494" cy="272" r="5" fill="green" stroke="none" /><circle cx="1272" cy="371" r="5" fill="green" stroke="none" /><circle cx="1435" cy="224" r="5" fill="green" stroke="none" /><circle cx="1043" cy="115" r="5" fill="green" stroke="none" /><circle cx="1288" cy="226" r="5" fill="green" stroke="none" /><circle cx="435" cy="991" r="5" fill="green" stroke="none" /><circle cx="1290" cy="92" r="5" fill="green" stroke="none" /><circle cx="894" cy="516" r="5" fill="green" stroke="none" /><circle cx="96" cy="893" r="5" fill="green" stroke="none" /><circle cx="1364" cy="164" r="5" fill="green" stroke="none" /><circle cx="1127" cy="585" r="5" fill="green" stroke="none" /><circle cx="2020" cy="311" r="5" fill="green" stroke="none" /><circle cx="1259" cy="290" r="5" fill="green" stroke="none" /><circle cx="1771" cy="778" r="5" fill="green" stroke="none" /><circle cx="2084" cy="890" r="5" fill="green" stroke="none" /><circle cx="74" cy="995" r="5" fill="green" stroke="none" /><circle cx="572" cy="335" r="5" fill="green" stroke="none" /><circle cx="710" cy="66" r="5" fill="green" stroke="none" /><circle cx="1973" cy="129" r="5" fill="green" stroke="none" /><circle cx="466" cy="65" r="5" fill="green" stroke="none" /><circle cx="1348" cy="439" r="5" fill="green" stroke="none" /><circle cx="1899" cy="945" r="5" fill="green" stroke="none" /><circle cx="2052" cy="297" r="5" fill="green" stroke="none" /><circle cx="1256" cy="7" r="5" fill="green" stroke="none" /><circle cx="443" cy="777" r="5" fill="green" stroke="none" /><circle cx="79" cy="495" r="5" fill="green" stroke="none" /><circle cx="215" cy="612" r="5" fill="green" stroke="none" /><circle cx="837" cy="181" r="5" fill="green" stroke="none" /><circle cx="495" cy="546" r="5" fill="green" stroke="none" /><circle cx="668" cy="561" r="5" fill="green" stroke="none" /><circle cx="851" cy="134" r="5" fill="green" stroke="none" /><circle cx="311" cy="436" r="5" fill="green" stroke="none" /><circle cx="1355" cy="305" r="5" fill="green" stroke="none" /><circle cx="1519" cy="179" r="5" fill="green" stroke="none" /><circle cx="1746" cy="126" r="5" fill="green" stroke="none" /><circle cx="1647" cy="615" r="5" fill="green" stroke="none" /><circle cx="937" cy="483" r="5" fill="green" stroke="none" /><circle cx="734" cy="174" r="5" fill="green" stroke="none" /><circle cx="1630" cy="865" r="5" fill="green" stroke="none" /><circle cx="484" cy="637" r="5" fill="green" stroke="none" /><circle cx="561" cy="415" r="5" fill="green" stroke="none" /><circle cx="998" cy="1075" r="5" fill="green" stroke="none" /><circle cx="804" cy="370" r="5" fill="green" stroke="none" /><circle cx="1178" cy="440" r="5" fill="green" stroke="none" /><circle cx="833" cy="878" r="5" fill="green" stroke="none" /><circle cx="1189" cy="74" r="5" fill="green" stroke="none" /><circle cx="375" cy="766" r="5" fill="green" stroke="none" /><circle cx="2138" cy="9" r="5" fill="green" stroke="none" /><circle cx="1968" cy="314" r="5" fill="green" stroke="none" /><circle cx="1000" cy="647" r="5" fill="green" stroke="none" /><circle cx="436" cy="245" r="5" fill="green" stroke="none" /><circle cx="1819" cy="799" r="5" fill="green" stroke="none" /><circle cx="2112" cy="194" r="5" fill="green" stroke="none" /><circle cx="2290" cy="354" r="5" fill="green" stroke="none" /><circle cx="734" cy="674" r="5" fill="green" stroke="none" /><circle cx="1329" cy="35" r="5" fill="green" stroke="none" /><circle cx="810" cy="333" r="5" fill="green" stroke="none" /><circle cx="2244" cy="472" r="5" fill="green" stroke="none" /><circle cx="1483" cy="1012" r="5" fill="green" stroke="none" /><circle cx="2009" cy="377" r="5" fill="green" stroke="none" /><circle cx="431" cy="10" r="5" fill="green" stroke="none" /><circle cx="1356" cy="251" r="5" fill="green" stroke="none" /><circle cx="1219" cy="547" r="5" fill="green" stroke="none" /><circle cx="863" cy="647" r="5" fill="green" stroke="none" /><circle cx="783" cy="682" r="5" fill="green" stroke="none" /><circle cx="2166" cy="83" r="5" fill="green" stroke="none" /><circle cx="1704" cy="409" r="5" fill="green" stroke="none" /><circle cx="1002" cy="851" r="5" fill="green" stroke="none" /><circle cx="635" cy="944" r="5" fill="green" stroke="none" /><circle cx="2347" cy="993" r="5" fill="green" stroke="none" /><circle cx="1799" cy="1068" r="5" fill="green" stroke="none" /><circle cx="701" cy="458" r="5" fill="green" stroke="none" /><circle cx="1760" cy="40" r="5" fill="green" stroke="none" /><circle cx="1485" cy="976" r="5" fill="green" stroke="none" /><circle cx="774" cy="994" r="5" fill="green" stroke="none" /><circle cx="302" cy="930" r="5" fill="green" stroke="none" /><circle cx="16" cy="1062" r="5" fill="green" stroke="none" /><circle cx="384" cy="117" r="5" fill="green" stroke="none" /><circle cx="87" cy="13" r="5" fill="green" stroke="none" /><circle cx="1673" cy="1050" r="5" fill="green" stroke="none" /><circle cx="4" cy="669" r="5" fill="green" stroke="none" /><circle cx="139" cy="570" r="5" fill="green" stroke="none" /><circle cx="2368" cy="768" r="5" fill="green" stroke="none" /><circle cx="178" cy="1022" r="5" fill="green" stroke="none" /><circle cx="739" cy="885" r="5" fill="green" stroke="none" /><circle cx="1534" cy="339" r="5" fill="green" stroke="none" /><circle cx="1678" cy="697" r="5" fill="green" stroke="none" /><circle cx="256" cy="713" r="5" fill="green" stroke="none" /><circle cx="1046" cy="862" r="5" fill="green" stroke="none" /><circle cx="835" cy="765" r="5" fill="green" stroke="none" /><circle cx="2181" cy="99" r="5" fill="green" stroke="none" /><circle cx="1238" cy="977" r="5" fill="green" stroke="none" /><circle cx="311" cy="659" r="5" fill="green" stroke="none" /><circle cx="876" cy="879" r="5" fill="green" stroke="none" /><circle cx="244" cy="874" r="5" fill="green" stroke="none" /><circle cx="123" cy="166" r="5" fill="green" stroke="none" /><circle cx="1469" cy="1015" r="5" fill="green" stroke="none" /><circle cx="261" cy="153" r="5" fill="green" stroke="none" /><circle cx="1801" cy="250" r="5" fill="green" stroke="none" /><circle cx="953" cy="552" r="5" fill="green" stroke="none" /><circle cx="1706" cy="544" r="5" fill="green" stroke="none" /><circle cx="2223" cy="948" r="5" fill="green" stroke="none" /><circle cx="1153" cy="197" r="5" fill="green" stroke="none" /><circle cx="2068" cy="1048" r="5" fill="green" stroke="none" /><circle cx="1813" cy="362" r="5" fill="green" stroke="none" /><circle cx="1470" cy="94" r="5" fill="green" stroke="none" /><circle cx="1858" cy="452" r="5" fill="green" stroke="none" /><circle cx="845" cy="273" r="5" fill="green" stroke="none" /><circle cx="28" cy="594" r="5" fill="green" stroke="none" /><circle cx="1842" cy="931" r="5" fill="green" stroke="none" /><circle cx="1138" cy="135" r="5" fill="green" stroke="none" /><circle cx="2044" cy="376" r="5" fill="green" stroke="none" /><circle cx="583" cy="1091" r="5" fill="green" stroke="none" /><circle cx="265" cy="802" r="5" fill="green" stroke="none" /><circle cx="924" cy="664" r="5" fill="green" stroke="none" /><circle cx="1282" cy="661" r="5" fill="green" stroke="none" /><circle cx="29" cy="302" r="5" fill="green" stroke="none" /><circle cx="1965" cy="828" r="5" fill="green" stroke="none" /><circle cx="1059" cy="240" r="5" fill="green" stroke="none" /><circle cx="1672" cy="1064" r="5" fill="green" stroke="none" /><circle cx="315" cy="1051" r="5" fill="green" stroke="none" /><circle cx="756" cy="716" r="5" fill="green" stroke="none" /><circle cx="467" cy="156" r="5" fill="green" stroke="none" /><circle cx="821" cy="739" r="5" fill="green" stroke="none" /><circle cx="592" cy="507" r="5" fill="green" stroke="none" /><circle cx="2005" cy="45" r="5" fill="green" stroke="none" /><circle cx="332" cy="784" r="5" fill="green" stroke="none" /><circle cx="535" cy="491" r="5" fill="green" stroke="none" /><circle cx="573" cy="350" r="5" fill="green" stroke="none" /><circle cx="122" cy="436" r="5" fill="green" stroke="none" /><circle cx="1187" cy="807" r="5" fill="green" stroke="none" /><circle cx="1259" cy="442" r="5" fill="green" stroke="none" /><circle cx="1813" cy="900" r="5" fill="green" stroke="none" /><circle cx="1118" cy="442" r="5" fill="green" stroke="none" /><circle cx="1892" cy="255" r="5" fill="green" stroke="none" /><circle cx="1390" cy="593" r="5" fill="green" stroke="none" /><circle cx="1355" cy="240" r="5" fill="green" stroke="none" /><circle cx="1780" cy="939" r="5" fill="green" stroke="none" /><circle cx="268" cy="402" r="5" fill="green" stroke="none" /><circle cx="939" cy="220" r="5" fill="green" stroke="none" /><circle cx="1704" cy="355" r="5" fill="green" stroke="none" /><circle cx="402" cy="764" r="5" fill="green" stroke="none" /><circle cx="411" cy="251" r="5" fill="green" stroke="none" /><circle cx="1038" cy="670" r="5" fill="green" stroke="none" /><circle cx="538" cy="81" r="5" fill="green" stroke="none" /><circle cx="1313" cy="407" r="5" fill="green" stroke="none" /><circle cx="759" cy="609" r="5" fill="green" stroke="none" /><circle cx="1900" cy="200" r="5" fill="green" stroke="none" /><circle cx="1647" cy="1002" r="5" fill="green" stroke="none" /><circle cx="226" cy="837" r="5" fill="green" stroke="none" /><circle cx="2246" cy="1078" r="5" fill="green" stroke="none" /><circle cx="1066" cy="67" r="5" fill="green" stroke="none" /><circle cx="651" cy="343" r="5" fill="green" stroke="none" /><circle cx="983" cy="701" r="5" fill="green" stroke="none" /><circle cx="1663" cy="802" r="5" fill="green" stroke="none" /><circle cx="2149" cy="971" r="5" fill="green" stroke="none" /><circle cx="186" cy="1082" r="5" fill="green" stroke="none" /><circle cx="1569" cy="559" r="5" fill="green" stroke="none" /><circle cx="1832" cy="956" r="5" fill="green" stroke="none" /><circle cx="260" cy="1066" r="5" fill="green" stroke="none" /><circle cx="2212" cy="377" r="5" fill="green" stroke="none" /><circle cx="575" cy="180" r="5" fill="green" stroke="none" /><circle cx="2172" cy="1053" r="5" fill="green" stroke="none" /><circle cx="1463" cy="599" r="5" fill="green" stroke="none" /><circle cx="1739" cy="373" r="5" fill="green" stroke="none" /><circle cx="147" cy="207" r="5" fill="green" stroke="none" /><circle cx="1509" cy="1024" r="5" fill="green" stroke="none" /><circle cx="466" cy="216" r="5" fill="green" stroke="none" /><circle cx="1378" cy="303" r="5" fill="green" stroke="none" /><circle cx="1297" cy="499" r="5" fill="green" stroke="none" /><circle cx="313" cy="310" r="5" fill="green" stroke="none" /><circle cx="2334" cy="871" r="5" fill="green" stroke="none" /><circle cx="499" cy="539" r="5" fill="green" stroke="none" /><circle cx="1055" cy="28" r="5" fill="green" stroke="none" /><circle cx="110" cy="196" r="5" fill="green" stroke="none" /><circle cx="446" cy="924" r="5" fill="green" stroke="none" /><circle cx="998" cy="162" r="5" fill="green" stroke="none" /><circle cx="956" cy="1075" r="5" fill="green" stroke="none" /><circle cx="2315" cy="1056" r="5" fill="green" stroke="none" /><circle cx="1450" cy="172" r="5" fill="green" stroke="none" /><circle cx="1065" cy="1094" r="5" fill="green" stroke="none" /><circle cx="934" cy="518" r="5" fill="green" stroke="none" /><circle cx="217" cy="118" r="5" fill="green" stroke="none" /><circle cx="1810" cy="66" r="5" fill="green" stroke="none" /><circle cx="594" cy="872" r="5" fill="green" stroke="none" /><circle cx="787" cy="64" r="5" fill="green" stroke="none" /><circle cx="1922" cy="231" r="5" fill="green" stroke="none" /><circle cx="1321" cy="983" r="5" fill="green" stroke="none" /><circle cx="1169" cy="54" r="5" fill="green" stroke="none" /><circle cx="336" cy="860" r="5" fill="green" stroke="none" /><circle cx="1431" cy="632" r="5" fill="green" stroke="none" /><circle cx="1547" cy="758" r="5" fill="green" stroke="none" /><circle cx="303" cy="853" r="5" fill="green" stroke="none" /><circle cx="871" cy="425" r="5" fill="green" stroke="none" /><circle cx="1692" cy="714" r="5" fill="green" stroke="none" /><circle cx="2081" cy="78" r="5" fill="green" stroke="none" /><circle cx="1533" cy="976" r="5" fill="green" stroke="none" /><circle cx="819" cy="871" r="5" fill="green" stroke="none" /><circle cx="1470" cy="849" r="5" fill="green" stroke="none" /><circle cx="1416" cy="393" r="5" fill="green" stroke="none" /><circle cx="1729.0560416758656" cy="730.9840390739562" r="5" fill="blue" stroke="none" /><circle cx="2021.1788916289076" cy="508" r="5" fill="blue" stroke="none" /><circle cx="1840.0302746456605" cy="766.7357447435544" r="5" fill="blue" stroke="none" /><circle cx="1803.567578685272" cy="767" r="5" fill="blue" stroke="none" /><circle cx="2310.454387014004" cy="767" r="5" fill="blue" stroke="none" /><circle cx="1750.2043841628201" cy="736.5951397568112" r="5" fill="blue" stroke="none" /><circle cx="1798.1096587226284" cy="517.9131352869823" r="5" fill="blue" stroke="none" /><circle cx="2128.9081445799875" cy="533.461915575273" r="5" fill="blue" stroke="none" /><circle cx="1732.6469064765681" cy="523.2380853498752" r="5" fill="blue" stroke="none" /><circle cx="1905.8662376224513" cy="517.5777255009845" r="5" fill="blue" stroke="none" /><circle cx="1861.2021118661937" cy="524.1881832030384" r="5" fill="blue" stroke="none" /><circle cx="2332.078052644809" cy="508.3552193466345" r="5" fill="blue" stroke="none" /><circle cx="2293.6046218139404" cy="508" r="5" fill="blue" stroke="none" /><circle cx="1857.8982325368847" cy="753.6653767153387" r="5" fill="blue" stroke="none" /><circle cx="1743.9332401921884" cy="668.5115580070014" r="5" fill="blue" stroke="none" /><circle cx="2251.4916870164293" cy="508" r="5" fill="blue" stroke="none" /><circle cx="1729" cy="554.689010981707" r="5" fill="blue" stroke="none" /><circle cx="2216.0143233615095" cy="517.9826472897598" r="5" fill="blue" stroke="none" /><circle cx="1730.3227634838315" cy="666.7265753728166" r="5" fill="blue" stroke="none" /><circle cx="1938.5700214318606" cy="525.8445508522165" r="5" fill="blue" stroke="none" /><circle cx="1816.9436534299762" cy="767" r="5" fill="blue" stroke="none" /><circle cx="2098.6912276957178" cy="522.4781233192323" r="5" fill="blue" stroke="none" /><circle cx="1868.2084950717688" cy="515.6082249306754" r="5" fill="blue" stroke="none" /><circle cx="1885.0562359868925" cy="517.9448206664609" r="5" fill="blue" stroke="none" /><circle cx="1738.5303395854735" cy="535.652724635701" r="5" fill="blue" stroke="none" /><circle cx="2172.5087868313694" cy="767" r="5" fill="blue" stroke="none" /><circle cx="2209.2721313280513" cy="767" r="5" fill="blue" stroke="none" /><circle cx="1997.279148904866" cy="762.3467924738413" r="5" fill="blue" stroke="none" /><circle cx="2274.5973795080854" cy="758.9054611430242" r="5" fill="blue" stroke="none" /><circle cx="1741.2959947919044" cy="729.6050660423579" r="5" fill="blue" stroke="none" /><circle cx="2096.4519915984692" cy="767" r="5" fill="blue" stroke="none" /><circle cx="1945.7666393615548" cy="508.13904828954" r="5" fill="blue" stroke="none" /><circle cx="1731.8216089628984" cy="564.2885244615057" r="5" fill="blue" stroke="none" /><circle cx="2204.464122056964" cy="526.4899755130849" r="5" fill="blue" stroke="none" /><circle cx="1737.3495952196124" cy="607.8749296510086" r="5" fill="blue" stroke="none" /><circle cx="1733.7390802693328" cy="622.1999233503806" r="5" fill="blue" stroke="none" /><circle cx="1888.869316762737" cy="758.2019670791001" r="5" fill="blue" stroke="none" /><circle cx="2177.6175095941853" cy="510.0875687827556" r="5" fill="blue" stroke="none" /><circle cx="2343.806851619579" cy="508" r="5" fill="blue" stroke="none" /><circle cx="2342.670006679318" cy="756.9193517882495" r="5" fill="blue" stroke="none" /><circle cx="2283.437950519857" cy="508" r="5" fill="blue" stroke="none" /><circle cx="1729" cy="543.2630429419004" r="5" fill="blue" stroke="none" /><circle cx="2165.188119718917" cy="760.1602941215347" r="5" fill="blue" stroke="none" /><circle cx="1962.614499115123" cy="520.8717133357206" r="5" fill="blue" stroke="none" /><circle cx="2021.6690523208733" cy="757.6527600833203" r="5" fill="blue" stroke="none" /><circle cx="1984.519087838971" cy="767" r="5" fill="blue" stroke="none" /><circle cx="1744.414951686569" cy="714.0716394341463" r="5" fill="blue" stroke="none" /><circle cx="1774.4135056910152" cy="508" r="5" fill="blue" stroke="none" /><circle cx="1901.3586275161856" cy="761.7297267762626" r="5" fill="blue" stroke="none" /><circle cx="2243.700061232271" cy="767" r="5" fill="blue" stroke="none" /><circle cx="1948.3963395112726" cy="523.6198377566002" r="5" fill="blue" stroke="none" /><circle cx="2160.1259380323254" cy="535.7646756290277" r="5" fill="blue" stroke="none" /><circle cx="2173.740724086487" cy="533.0853807834595" r="5" fill="blue" stroke="none" /><circle cx="1739.3793236166746" cy="596.4576960848699" r="5" fill="blue" stroke="none" /><circle cx="1736.1626952079657" cy="573.510949583219" r="5" fill="blue" stroke="none" /><circle cx="2245.4034097386016" cy="757.1354647820767" r="5" fill="blue" stroke="none" /><circle cx="1886.60032131128" cy="508" r="5" fill="blue" stroke="none" /><circle cx="1833.3095331631177" cy="758.1099085016918" r="5" fill="blue" stroke="none" /><circle cx="1962.4873467045031" cy="766.7837482974361" r="5" fill="blue" stroke="none" /><circle cx="1757.520416446289" cy="755.0785880920017" r="5" fill="blue" stroke="none" /><circle cx="2290.164146477359" cy="517.3908709787383" r="5" fill="blue" stroke="none" /><circle cx="2325.8628543184254" cy="758.1168611065093" r="5" fill="blue" stroke="none" /><circle cx="2043.335002161281" cy="763.7116632747172" r="5" fill="blue" stroke="none" /><circle cx="2185.2445131982936" cy="767" r="5" fill="blue" stroke="none" /><circle cx="2236.466243290914" cy="520.7169018066784" r="5" fill="blue" stroke="none" /><circle cx="1737.8542282948372" cy="550.0401910585492" r="5" fill="blue" stroke="none" /><circle cx="1799.4763704281656" cy="508" r="5" fill="blue" stroke="none" /><circle cx="1975.5769038930514" cy="508" r="5" fill="blue" stroke="none" /><circle cx="1810.1024179182393" cy="759.422881820399" r="5" fill="blue" stroke="none" /><circle cx="1922.7176326964984" cy="513.0740759596744" r="5" fill="blue" stroke="none" /><circle cx="2262.7190699131606" cy="508" r="5" fill="blue" stroke="none" /><circle cx="1738.089384467602" cy="706.0917208838982" r="5" fill="blue" stroke="none" /><circle cx="1960.0509598540589" cy="510.78153440450706" r="5" fill="blue" stroke="none" /><circle cx="2219.7666470598356" cy="767" r="5" fill="blue" stroke="none" /><circle cx="1746.8476634651702" cy="515.4244093986924" r="5" fill="blue" stroke="none" /><circle cx="2110.338809071255" cy="522.4840486072193" r="5" fill="blue" stroke="none" /><circle cx="1822.0481383336842" cy="508" r="5" fill="blue" stroke="none" /><circle cx="1955.1827360769562" cy="530.9707077175002" r="5" fill="blue" stroke="none" /><circle cx="2190.074152127705" cy="758.238895642968" r="5" fill="blue" stroke="none" /><circle cx="1855.7397809900156" cy="767" r="5" fill="blue" stroke="none" /><circle cx="1874.9704798349264" cy="508.2327127871646" r="5" fill="blue" stroke="none" /><circle cx="1867.7544668829942" cy="767" r="5" fill="blue" stroke="none" /><circle cx="2320.452793900452" cy="766.8152655695483" r="5" fill="blue" stroke="none" /><circle cx="1868.9501347754886" cy="747.4057356292326" r="5" fill="blue" stroke="none" /><circle cx="1921.3190615716621" cy="766.3289219870533" r="5" fill="blue" stroke="none" /><circle cx="2047.9461463919647" cy="509.6032467966652" r="5" fill="blue" stroke="none" /><circle cx="2025.1133750091267" cy="520.5020172453147" r="5" fill="blue" stroke="none" /><circle cx="2266.0802065755042" cy="767" r="5" fill="blue" stroke="none" /><circle cx="1828.6828205584986" cy="767" r="5" fill="blue" stroke="none" /><circle cx="1729" cy="701.9218351316124" r="5" fill="blue" stroke="none" /><circle cx="1822.7378670359049" cy="758.8496303552404" r="5" fill="blue" stroke="none" /><circle cx="1729" cy="580.8421188762982" r="5" fill="blue" stroke="none" /><circle cx="1787.8115939844945" cy="757.1043565951245" r="5" fill="blue" stroke="none" /><circle cx="2060.344273681894" cy="764.5398692041201" r="5" fill="blue" stroke="none" /><circle cx="1798.3983336834797" cy="756.8424881074066" r="5" fill="blue" stroke="none" /><circle cx="2045.0661456142884" cy="536.1671256180992" r="5" fill="blue" stroke="none" /><circle cx="1729" cy="715.6742395807062" r="5" fill="blue" stroke="none" /><circle cx="2186.1468299036915" cy="538.8646902195267" r="5" fill="blue" stroke="none" /><circle cx="1735.7689637789563" cy="762.7763543648653" r="5" fill="blue" stroke="none" /><circle cx="1786.2681705774003" cy="767" r="5" fill="blue" stroke="none" /><circle cx="2273.1993118932533" cy="508" r="5" fill="blue" stroke="none" /><circle cx="2232.533414605551" cy="764.6516140619283" r="5" fill="blue" stroke="none" /><circle cx="1739.4908698256586" cy="585.6404866318111" r="5" fill="blue" stroke="none" /><circle cx="1967.8592022148175" cy="758.2012113805508" r="5" fill="blue" stroke="none" /><circle cx="2012.2784968408976" cy="514.4344290434381" r="5" fill="blue" stroke="none" /><circle cx="2127.426194217135" cy="760.6591337426441" r="5" fill="blue" stroke="none" /><circle cx="2345" cy="740.668019276508" r="5" fill="blue" stroke="none" /><circle cx="1949.9288726678922" cy="767" r="5" fill="blue" stroke="none" /><circle cx="1747.9513470006052" cy="684.7342710202756" r="5" fill="blue" stroke="none" /><circle cx="1859.5663982472056" cy="508.0714267331807" r="5" fill="blue" stroke="none" /><circle cx="2134.3488204968644" cy="508" r="5" fill="blue" stroke="none" /><circle cx="2060.158763942116" cy="508.2793906003657" r="5" fill="blue" stroke="none" /><circle cx="1751.2266161733955" cy="726.2904105107195" r="5" fill="blue" stroke="none" /><circle cx="2184.657151118923" cy="528.3355445632704" r="5" fill="blue" stroke="none" /><circle cx="1729.2033652577556" cy="747.9737894836717" r="5" fill="blue" stroke="none" /><circle cx="1739.7193393192895" cy="647.455907515418" r="5" fill="blue" stroke="none" /><circle cx="2297.2803492502867" cy="766.3544938739749" r="5" fill="blue" stroke="none" /><circle cx="1733.7581016074134" cy="655.486127756782" r="5" fill="blue" stroke="none" /><circle cx="2157.470152714618" cy="766.9742093698527" r="5" fill="blue" stroke="none" /><circle cx="2096.1838554104106" cy="508" r="5" fill="blue" stroke="none" /><circle cx="1729" cy="592.8766197300727" r="5" fill="blue" stroke="none" /><circle cx="1848.414914944099" cy="757.0056644424158" r="5" fill="blue" stroke="none" /><circle cx="1810.7107214212099" cy="513.0941758119098" r="5" fill="blue" stroke="none" /><circle cx="1738.3441162973622" cy="687.5823790711561" r="5" fill="blue" stroke="none" /><circle cx="1787.7591756258328" cy="508" r="5" fill="blue" stroke="none" /><circle cx="2036.5219563962262" cy="734.0375376253664" r="5" fill="blue" stroke="none" /><circle cx="2302.4666928412007" cy="512.6458318183405" r="5" fill="blue" stroke="none" /><circle cx="2085.562926365217" cy="766.5671114983427" r="5" fill="blue" stroke="none" /><circle cx="2344.630435128444" cy="730.6399713417313" r="5" fill="blue" stroke="none" /><circle cx="2142.017286812623" cy="766.7206648764482" r="5" fill="blue" stroke="none" /><circle cx="1931.3579963698867" cy="539.0339280303367" r="5" fill="blue" stroke="none" /><circle cx="2311.645755063546" cy="508" r="5" fill="blue" stroke="none" /><circle cx="2086.9974608906637" cy="523.235419334706" r="5" fill="blue" stroke="none" /><circle cx="1980.8025480966778" cy="757.7083315833636" r="5" fill="blue" stroke="none" /><circle cx="1911.8088583429708" cy="508" r="5" fill="blue" stroke="none" /><circle cx="1747.8638147755696" cy="767" r="5" fill="blue" stroke="none" /><circle cx="2254.707152224972" cy="764.5456692192869" r="5" fill="blue" stroke="none" /><circle cx="1754.0051337330249" cy="508" r="5" fill="blue" stroke="none" /><circle cx="1972.6116455422973" cy="767" r="5" fill="blue" stroke="none" /><circle cx="1731.6464575789646" cy="633.1450647473832" r="5" fill="blue" stroke="none" /><circle cx="1971.7867441299436" cy="533.5474749344245" r="5" fill="blue" stroke="none" /><circle cx="1787.178330532167" cy="741.0771902109718" r="5" fill="blue" stroke="none" /><circle cx="2337.5456863129816" cy="747.418853524885" r="5" fill="blue" stroke="none" /><circle cx="2064.5235954166346" cy="534.1158257833661" r="5" fill="blue" stroke="none" /><circle cx="1939.707786902287" cy="752.5439405648171" r="5" fill="blue" stroke="none" /><circle cx="2276.236028289237" cy="517.5305999374718" r="5" fill="blue" stroke="none" /><circle cx="2260.2594281954566" cy="517.7336861101754" r="5" fill="blue" stroke="none" /><circle cx="2178.9505321651304" cy="759.2016190186004" r="5" fill="blue" stroke="none" /><circle cx="1850.500702691004" cy="517.4456180392879" r="5" fill="blue" stroke="none" /><circle cx="1766.5580171321978" cy="517.6700338159801" r="5" fill="blue" stroke="none" /><circle cx="2340.5213337924697" cy="767" r="5" fill="blue" stroke="none" /><circle cx="2018.0976093864695" cy="767" r="5" fill="blue" stroke="none" /><circle cx="1781.08332495576" cy="515.457887862216" r="5" fill="blue" stroke="none" /><circle cx="2002.860584854755" cy="508" r="5" fill="blue" stroke="none" /><circle cx="2198.4818299661288" cy="767" r="5" fill="blue" stroke="none" /><circle cx="1729" cy="532.5835877496602" r="5" fill="blue" stroke="none" /><circle cx="1764.007517070729" cy="508" r="5" fill="blue" stroke="none" /><circle cx="2345" cy="683.176310162547" r="5" fill="blue" stroke="none" /><circle cx="2281.958016607661" cy="766.5611265126731" r="5" fill="blue" stroke="none" /><circle cx="1758.3992656963574" cy="766.4718738868482" r="5" fill="blue" stroke="none" /><circle cx="2330.4622401404886" cy="767" r="5" fill="blue" stroke="none" /><circle cx="2059.8183756741605" cy="519.2616447270358" r="5" fill="blue" stroke="none" /><circle cx="1980.636654062577" cy="518.0377367105085" r="5" fill="blue" stroke="none" /><circle cx="2216.8674917192125" cy="757.4138371930653" r="5" fill="blue" stroke="none" /><circle cx="2097.931753720774" cy="751.7702287363684" r="5" fill="blue" stroke="none" /><circle cx="1955.0889297756648" cy="758.4117198633691" r="5" fill="blue" stroke="none" /><circle cx="2321.9971228677605" cy="509.47881994889985" r="5" fill="blue" stroke="none" /><circle cx="2117.1338859788025" cy="763.3079530576806" r="5" fill="blue" stroke="none" /><circle cx="1995.27009831894" cy="514.5238836997356" r="5" fill="blue" stroke="none" /><circle cx="1987.3051984396934" cy="508" r="5" fill="blue" stroke="none" /><circle cx="2224.8571568392376" cy="513.2756659677548" r="5" fill="blue" stroke="none" /><circle cx="1876.4842870364382" cy="762.1107168797588" r="5" fill="blue" stroke="none" /><circle cx="1838.9457131942204" cy="516.6115199022217" r="5" fill="blue" stroke="none" /><circle cx="1928.7921077745962" cy="755.6095587832615" r="5" fill="blue" stroke="none" /><circle cx="2233.3686020718305" cy="508" r="5" fill="blue" stroke="none" /><circle cx="2232.1952083156216" cy="754.613610122148" r="5" fill="blue" stroke="none" /><circle cx="1737.5466908496446" cy="676.8495657890503" r="5" fill="blue" stroke="none" /><circle cx="2151.3362017419663" cy="509.58354326424" r="5" fill="blue" stroke="none" /><circle cx="2313.239504331798" cy="517.8777730876761" r="5" fill="blue" stroke="none" /><circle cx="1919.096716326009" cy="753.10465378667" r="5" fill="blue" stroke="none" /><circle cx="2077.8236768381917" cy="510.19885540925566" r="5" fill="blue" stroke="none" /><circle cx="2203.721040081078" cy="758.4802777122457" r="5" fill="blue" stroke="none" /><circle cx="1847.2003121956136" cy="508" r="5" fill="blue" stroke="none" /><circle cx="2145.435192467056" cy="533.120171633847" r="5" fill="blue" stroke="none" /><circle cx="2345" cy="719.8030918475516" r="5" fill="blue" stroke="none" /><circle cx="2334.429898127502" cy="737.90822007105" r="5" fill="blue" stroke="none" /><circle cx="1729" cy="643.9672646374634" r="5" fill="blue" stroke="none" /><circle cx="2121.933409766739" cy="509.9581320582198" r="5" fill="blue" stroke="none" /><circle cx="1748.212684999979" cy="659.4323037693066" r="5" fill="blue" stroke="none" /><circle cx="2343.712844092169" cy="701.7661769352483" r="5" fill="blue" stroke="none" /><circle cx="1766.249344838229" cy="760.012269308791" r="5" fill="blue" stroke="none" /><circle cx="1729" cy="691.1878059534861" r="5" fill="blue" stroke="none" /><circle cx="2141.4400985998145" cy="745.3872433465167" r="5" fill="blue" stroke="none" /><circle cx="2066.5322401349213" cy="750.058744551379" r="5" fill="blue" stroke="none" /><circle cx="1896.021783293433" cy="514.9766087777346" r="5" fill="blue" stroke="none" /><circle cx="1729.5436715490173" cy="509.43894091791196" r="5" fill="blue" stroke="none" /><circle cx="1773.4036340641815" cy="767" r="5" fill="blue" stroke="none" /><circle cx="1827.285292881114" cy="519.2478716588606" r="5" fill="blue" stroke="none" /><circle cx="2215.408308105469" cy="508" r="5" fill="blue" stroke="none" /><circle cx="2242.7497054372056" cy="512.9003997682483" r="5" fill="blue" stroke="none" /><circle cx="2153.3871901637244" cy="756.5577629964921" r="5" fill="blue" stroke="none" /></svg>