<svg viewBox="0 0 1000 1000" xmlns="http://www.w3.org/2000/svg"><rect x="0" y="0" width="1000" height="1000" fill="lightyellow" stroke="none "/><rect x="66" y="290" width="104" height="198" fill="white" stroke="black "/><circle cx="116" cy="498" r="5" fill="green" stroke="none" /><circle cx="492" cy="525" r="5" fill="green" stroke="none" /><circle cx="46" cy="786" r="5" fill="green" stroke="none" /><circle cx="32" cy="849" r="5" fill="green" stroke="none" /><circle cx="631" cy="196" r="5" fill="green" stroke="none" /><circle cx="672" cy="385" r="5" fill="green" stroke="none" /><circle cx="501" cy="931" r="5" fill="green" stroke="none" /><circle cx="147" cy="767" r="5" fill="green" stroke="none" /><circle cx="968" cy="43" r="5" fill="green" stroke="none" /><circle cx="536" cy="101" r="5" fill="green" stroke="none" /><circle cx="36" cy="737" r="5" fill="green" stroke="none" /><circle cx="745" cy="109" r="5" fill="green" stroke="none" /><circle cx="835" cy="25" r="5" fill="green" stroke="none" /><circle cx="353" cy="677" r="5" fill="green" stroke="none" /><circle cx="635" cy="173" r="5" fill="green" stroke="none" /><circle cx="820" cy="656" r="5" fill="green" stroke="none" /><circle cx="807" cy="65" r="5" fill="green" stroke="none" /><circle cx="837" cy="923" r="5" fill="green" stroke="none" /><circle cx="419" cy="644" r="5" fill="green" stroke="none" /><circle cx="667" cy="546" r="5" fill="green" stroke="none" /><circle cx="542" cy="670" r="5" fill="green" stroke="none" /><circle cx="496" cy="351" r="5" fill="green" stroke="none" /><circle cx="23" cy="851" r="5" fill="green" stroke="none" /><circle cx="987" cy="957" r="5" fill="green" stroke="none" /><circle cx="477" cy="113" r="5" fill="green" stroke="none" /><circle cx="920" cy="761" r="5" fill="green" stroke="none" /><circle cx="526" cy="885" r="5" fill="green" stroke="none" /><circle cx="535" cy="595" r="5" fill="green" stroke="none" /><circle cx="512" cy="679" r="5" fill="green" stroke="none" /><circle cx="130" cy="995" r="5" fill="green" stroke="none" /><circle cx="375" cy="839" r="5" fill="green" stroke="none" /><circle cx="581" cy="521" r="5" fill="green" stroke="none" /><circle cx="990" cy="237" r="5" fill="green" stroke="none" /><circle cx="521" cy="701" r="5" fill="green" stroke="none" /><circle cx="158" cy="98" r="5" fill="green" stroke="none" /><circle cx="652" cy="155" r="5" fill="green" stroke="none" /><circle cx="289" cy="126" r="5" fill="green" stroke="none" /><circle cx="30" cy="806" r="5" fill="green" stroke="none" /><circle cx="231" cy="861" r="5" fill="green" stroke="none" /><circle cx="661" cy="178" r="5" fill="green" stroke="none" /><circle cx="636" cy="342" r="5" fill="green" stroke="none" /><circle cx="694" cy="606" r="5" fill="green" stroke="none" /><circle cx="983" cy="753" r="5" fill="green" stroke="none" /><circle cx="521" cy="908" r="5" fill="green" stroke="none" /><circle cx="479" cy="728" r="5" fill="green" stroke="none" /><circle cx="910" cy="48" r="5" fill="green" stroke="none" /><circle cx="505" cy="36" r="5" fill="green" stroke="none" /><circle cx="349" cy="951" r="5" fill="green" stroke="none" /><circle cx="398" cy="37" r="5" fill="green" stroke="none" /><circle cx="707" cy="239" r="5" fill="green" stroke="none" /><circle cx="643" cy="468" r="5" fill="green" stroke="none" /><circle cx="462" cy="666" r="5" fill="green" stroke="none" /><circle cx="560" cy="979" r="5" fill="green" stroke="none" /><circle cx="801" cy="436" r="5" fill="green" stroke="none" /><circle cx="249" cy="14" r="5" fill="green" stroke="none" /><circle cx="118" cy="820" r="5" fill="green" stroke="none" /><circle cx="750" cy="698" r="5" fill="green" stroke="none" /><circle cx="14" cy="340" r="5" fill="green" stroke="none" /><circle cx="217" cy="916" r="5" fill="green" stroke="none" /><circle cx="518" cy="591" r="5" fill="green" stroke="none" /><circle cx="888" cy="554" r="5" fill="green" stroke="none" /><circle cx="217" cy="737" r="5" fill="green" stroke="none" /><circle cx="400" cy="608" r="5" fill="green" stroke="none" /><circle cx="860" cy="883" r="5" fill="green" stroke="none" /><circle cx="364" cy="942" r="5" fill="green" stroke="none" /><circle cx="52" cy="280" r="5" fill="green" stroke="none" /><circle cx="951" cy="868" r="5" fill="green" stroke="none" /><circle cx="973" cy="494" r="5" fill="green" stroke="none" /><circle cx="324" cy="734" r="5" fill="green" stroke="none" /><circle cx="537" cy="185" r="5" fill="green" stroke="none" /><circle cx="164" cy="223" r="5" fill="green" stroke="none" /><circle cx="735" cy="329" r="5" fill="green" stroke="none" /><circle cx="880" cy="919" r="5" fill="green" stroke="none" /><circle cx="617" cy="110" r="5" fill="green" stroke="none" /><circle cx="988" cy="764" r="5" fill="green" stroke="none" /><circle cx="476" cy="652" r="5" fill="green" stroke="none" /><circle cx="106" cy="145" r="5" fill="green" stroke="none" /><circle cx="702" cy="367" r="5" fill="green" stroke="none" /><circle cx="275" cy="639" r="5" fill="green" stroke="none" /><circle cx="559" cy="466" r="5" fill="green" stroke="none" /><circle cx="929" cy="170" r="5" fill="green" stroke="none" /><circle cx="388" cy="457" r="5" fill="green" stroke="none" /><circle cx="493" cy="481" r="5" fill="green" stroke="none" /><circle cx="599" cy="454" r="5" fill="green" stroke="none" /><circle cx="576" cy="907" r="5" fill="green" stroke="none" /><circle cx="391" cy="812" r="5" fill="green" stroke="none" /><circle cx="36" cy="581" r="5" fill="green" stroke="none" /><circle cx="815" cy="285" r="5" fill="green" stroke="none" /><circle cx="915" cy="812" r="5" fill="green" stroke="none" /><circle cx="929" cy="442" r="5" fill="green" stroke="none" /><circle cx="255" cy="636" r="5" fill="green" stroke="none" /><circle cx="789" cy="993" r="5" fill="green" stroke="none" /><circle cx="492" cy="208" r="5" fill="green" stroke="none" /><circle cx="717" cy="458" r="5" fill="green" stroke="none" /><circle cx="629" cy="486" r="5" fill="green" stroke="none" /><circle cx="161" cy="269" r="5" fill="green" stroke="none" /><circle cx="142" cy="738" r="5" fill="green" stroke="none" /><circle cx="558" cy="691" r="5" fill="green" stroke="none" /><circle cx="680" cy="251" r="5" fill="green" stroke="none" /><circle cx="79" cy="751" r="5" fill="green" stroke="none" /><circle cx="234" cy="838" r="5" fill="green" stroke="none" /><circle cx="643" cy="991" r="5" fill="green" stroke="none" /><circle cx="963" cy="102" r="5" fill="green" stroke="none" /><circle cx="31" cy="31" r="5" fill="green" stroke="none" /><circle cx="911" cy="193" r="5" fill="green" stroke="none" /><circle cx="786" cy="305" r="5" fill="green" stroke="none" /><circle cx="792" cy="664" r="5" fill="green" stroke="none" /><circle cx="85" cy="754" r="5" fill="green" stroke="none" /><circle cx="446" cy="3" r="5" fill="green" stroke="none" /><circle cx="662" cy="600" r="5" fill="green" stroke="none" /><circle cx="899" cy="918" r="5" fill="green" stroke="none" /><circle cx="269" cy="861" r="5" fill="green" stroke="none" /><circle cx="435" cy="25" r="5" fill="green" stroke="none" /><circle cx="751" cy="368" r="5" fill="green" stroke="none" /><circle cx="935" cy="672" r="5" fill="green" stroke="none" /><circle cx="468" cy="881" r="5" fill="green" stroke="none" /><circle cx="742" cy="258" r="5" fill="green" stroke="none" /><circle cx="474" cy="779" r="5" fill="green" stroke="none" /><circle cx="94" cy="818" r="5" fill="green" stroke="none" /><circle cx="265" cy="632" r="5" fill="green" stroke="none" /><circle cx="556" cy="46" r="5" fill="green" stroke="none" /><circle cx="387" cy="660" r="5" fill="green" stroke="none" /><circle cx="476" cy="355" r="5" fill="green" stroke="none" /><circle cx="27" cy="300" r="5" fill="green" stroke="none" /><circle cx="188" cy="313" r="5" fill="green" stroke="none" /><circle cx="795" cy="553" r="5" fill="green" stroke="none" /><circle cx="263" cy="395" r="5" fill="green" stroke="none" /><circle cx="261" cy="953" r="5" fill="green" stroke="none" /><circle cx="74" cy="952" r="5" fill="green" stroke="none" /><circle cx="188" cy="535" r="5" fill="green" stroke="none" /><circle cx="887" cy="657" r="5" fill="green" stroke="none" /><circle cx="899" cy="958" r="5" fill="green" stroke="none" /><circle cx="867" cy="68" r="5" fill="green" stroke="none" /><circle cx="30" cy="40" r="5" fill="green" stroke="none" /><circle cx="398" cy="209" r="5" fill="green" stroke="none" /><circle cx="978" cy="980" r="5" fill="green" stroke="none" /><circle cx="537" cy="175" r="5" fill="green" stroke="none" /><circle cx="562" cy="204" r="5" fill="green" stroke="none" /><circle cx="274" cy="186" r="5" fill="green" stroke="none" /><circle cx="108" cy="24" r="5" fill="green" stroke="none" /><circle cx="929" cy="218" r="5" fill="green" stroke="none" /><circle cx="255" cy="1" r="5" fill="green" stroke="none" /><circle cx="931" cy="601" r="5" fill="green" stroke="none" /><circle cx="586" cy="660" r="5" fill="green" stroke="none" /><circle cx="718" cy="479" r="5" fill="green" stroke="none" /><circle cx="400" cy="398" r="5" fill="green" stroke="none" /><circle cx="384" cy="111" r="5" fill="green" stroke="none" /><circle cx="583" cy="695" r="5" fill="green" stroke="none" /><circle cx="924" cy="933" r="5" fill="green" stroke="none" /><circle cx="742" cy="690" r="5" fill="green" stroke="none" /><circle cx="190" cy="148" r="5" fill="green" stroke="none" /><circle cx="151" cy="49" r="5" fill="green" stroke="none" /><circle cx="783" cy="441" r="5" fill="green" stroke="none" /><circle cx="582" cy="154" r="5" fill="green" stroke="none" /><circle cx="464" cy="902" r="5" fill="green" stroke="none" /><circle cx="307" cy="704" r="5" fill="green" stroke="none" /><circle cx="953" cy="631" r="5" fill="green" stroke="none" /><circle cx="165" cy="508" r="5" fill="green" stroke="none" /><circle cx="476" cy="612" r="5" fill="green" stroke="none" /><circle cx="684" cy="815" r="5" fill="green" stroke="none" /><circle cx="503" cy="488" r="5" fill="green" stroke="none" /><circle cx="580" cy="679" r="5" fill="green" stroke="none" /><circle cx="153" cy="717" r="5" fill="green" stroke="none" /><circle cx="116" cy="949" r="5" fill="green" stroke="none" /><circle cx="739" cy="304" r="5" fill="green" stroke="none" /><circle cx="873" cy="717" r="5" fill="green" stroke="none" /><circle cx="474" cy="52" r="5" fill="green" stroke="none" /><circle cx="328" cy="581" r="5" fill="green" stroke="none" /><circle cx="900" cy="740" r="5" fill="green" stroke="none" /><circle cx="803" cy="49" r="5" fill="green" stroke="none" /><circle cx="622" cy="410" r="5" fill="green" stroke="none" /><circle cx="847" cy="470" r="5" fill="green" stroke="none" /><circle cx="709" cy="134" r="5" fill="green" stroke="none" /><circle cx="844" cy="48" r="5" fill="green" stroke="none" /><circle cx="727" cy="257" r="5" fill="green" stroke="none" /><circle cx="412" cy="91" r="5" fill="green" stroke="none" /><circle cx="738" cy="794" r="5" fill="green" stroke="none" /><circle cx="121" cy="753" r="5" fill="green" stroke="none" /><circle cx="21" cy="317" r="5" fill="green" stroke="none" /><circle cx="644" cy="104" r="5" fill="green" stroke="none" /><circle cx="474" cy="140" r="5" fill="green" stroke="none" /><circle cx="59" cy="597" r="5" fill="green" stroke="none" /><circle cx="198" cy="191" r="5" fill="green" stroke="none" /><circle cx="686" cy="813" r="5" fill="green" stroke="none" /><circle cx="225" cy="386" r="5" fill="green" stroke="none" /><circle cx="974" cy="263" r="5" fill="green" stroke="none" /><circle cx="729" cy="189" r="5" fill="green" stroke="none" /><circle cx="414" cy="213" r="5" fill="green" stroke="none" /><circle cx="935" cy="50" r="5" fill="green" stroke="none" /><circle cx="301" cy="208" r="5" fill="green" stroke="none" /><circle cx="28" cy="68" r="5" fill="green" stroke="none" /><circle cx="156" cy="209" r="5" fill="green" stroke="none" /><circle cx="689" cy="873" r="5" fill="green" stroke="none" /><circle cx="525" cy="788" r="5" fill="green" stroke="none" /><circle cx="374" cy="693" r="5" fill="green" stroke="none" /><circle cx="622" cy="541" r="5" fill="green" stroke="none" /><circle cx="605" cy="812" r="5" fill="green" stroke="none" /><circle cx="825" cy="996" r="5" fill="green" stroke="none" /><circle cx="765" cy="935" r="5" fill="green" stroke="none" /><circle cx="445" cy="872" r="5" fill="green" stroke="none" /><circle cx="213" cy="610" r="5" fill="green" stroke="none" /><circle cx="35" cy="33" r="5" fill="green" stroke="none" /><circle cx="23" cy="530" r="5" fill="green" stroke="none" /><circle cx="378" cy="576" r="5" fill="green" stroke="none" /><circle cx="178" cy="569" r="5" fill="green" stroke="none" /><circle cx="42" cy="461" r="5" fill="green" stroke="none" /><circle cx="966" cy="46" r="5" fill="green" stroke="none" /><circle cx="717" cy="507" r="5" fill="green" stroke="none" /><circle cx="548" cy="604" r="5" fill="green" stroke="none" /><circle cx="529" cy="434" r="5" fill="green" stroke="none" /><circle cx="585" cy="184" r="5" fill="green" stroke="none" /><circle cx="44" cy="275" r="5" fill="green" stroke="none" /><circle cx="148" cy="255" r="5" fill="green" stroke="none" /><circle cx="771" cy="710" r="5" fill="green" stroke="none" /><circle cx="106" cy="585" r="5" fill="green" stroke="none" /><circle cx="835" cy="600" r="5" fill="green" stroke="none" /><circle cx="322" cy="759" r="5" fill="green" stroke="none" /><circle cx="208" cy="263" r="5" fill="green" stroke="none" /><circle cx="406" cy="177" r="5" fill="green" stroke="none" /><circle cx="178" cy="640" r="5" fill="green" stroke="none" /><circle cx="519" cy="498" r="5" fill="green" stroke="none" /><circle cx="741" cy="612" r="5" fill="green" stroke="none" /><circle cx="269" cy="884" r="5" fill="green" stroke="none" /><circle cx="628" cy="261" r="5" fill="green" stroke="none" /><circle cx="586" cy="442" r="5" fill="green" stroke="none" /><circle cx="433" cy="550" r="5" fill="green" stroke="none" /><circle cx="20" cy="431" r="5" fill="green" stroke="none" /><circle cx="481" cy="809" r="5" fill="green" stroke="none" /><circle cx="219" cy="208" r="5" fill="green" stroke="none" /><circle cx="761" cy="436" r="5" fill="green" stroke="none" /><circle cx="780" cy="335" r="5" fill="green" stroke="none" /><circle cx="686" cy="949" r="5" fill="green" stroke="none" /><circle cx="572" cy="938" r="5" fill="green" stroke="none" /><circle cx="646" cy="1" r="5" fill="green" stroke="none" /><circle cx="31" cy="819" r="5" fill="green" stroke="none" /><circle cx="518" cy="704" r="5" fill="green" stroke="none" /><circle cx="384" cy="733" r="5" fill="green" stroke="none" /><circle cx="931" cy="678" r="5" fill="green" stroke="none" /><circle cx="835" cy="634" r="5" fill="green" stroke="none" /><circle cx="724" cy="222" r="5" fill="green" stroke="none" /><circle cx="514" cy="965" r="5" fill="green" stroke="none" /><circle cx="589" cy="652" r="5" fill="green" stroke="none" /><circle cx="792" cy="290" r="5" fill="green" stroke="none" /><circle cx="380" cy="238" r="5" fill="green" stroke="none" /><circle cx="585" cy="38" r="5" fill="green" stroke="none" /><circle cx="878" cy="826" r="5" fill="green" stroke="none" /><circle cx="20" cy="412" r="5" fill="green" stroke="none" /><circle cx="922" cy="909" r="5" fill="green" stroke="none" /><circle cx="39" cy="959" r="5" fill="green" stroke="none" /><circle cx="231" cy="554" r="5" fill="green" stroke="none" /><circle cx="580" cy="476" r="5" fill="green" stroke="none" /><circle cx="152" cy="800" r="5" fill="green" stroke="none" /><circle cx="865" cy="344" r="5" fill="green" stroke="none" /><circle cx="979" cy="504" r="5" fill="green" stroke="none" /><circle cx="211" cy="203" r="5" fill="green" stroke="none" /><circle cx="576" cy="367" r="5" fill="green" stroke="none" /><circle cx="922" cy="270" r="5" fill="green" stroke="none" /><circle cx="180" cy="220" r="5" fill="green" stroke="none" /><circle cx="160" cy="621" r="5" fill="green" stroke="none" /><circle cx="645" cy="526" r="5" fill="green" stroke="none" /><circle cx="587" cy="885" r="5" fill="green" stroke="none" /><circle cx="911" cy="769" r="5" fill="green" stroke="none" /><circle cx="324" cy="668" r="5" fill="green" stroke="none" /><circle cx="394" cy="352" r="5" fill="green" stroke="none" /><circle cx="32" cy="802" r="5" fill="green" stroke="none" /><circle cx="645" cy="381" r="5" fill="green" stroke="none" /><circle cx="45" cy="614" r="5" fill="green" stroke="none" /><circle cx="894" cy="869" r="5" fill="green" stroke="none" /><circle cx="863" cy="276" r="5" fill="green" stroke="none" /><circle cx="56" cy="105" r="5" fill="green" stroke="none" /><circle cx="388" cy="285" r="5" fill="green" stroke="none" /><circle cx="309" cy="260" r="5" fill="green" stroke="none" /><circle cx="956" cy="293" r="5" fill="green" stroke="none" /><circle cx="295" cy="306" r="5" fill="green" stroke="none" /><circle cx="851" cy="196" r="5" fill="green" stroke="none" /><circle cx="561" cy="618" r="5" fill="green" stroke="none" /><circle cx="439" cy="409" r="5" fill="green" stroke="none" /><circle cx="278" cy="998" r="5" fill="green" stroke="none" /><circle cx="889" cy="622" r="5" fill="green" stroke="none" /><circle cx="665" cy="180" r="5" fill="green" stroke="none" /><circle cx="199" cy="211" r="5" fill="green" stroke="none" /><circle cx="547" cy="742" r="5" fill="green" stroke="none" /><circle cx="787" cy="53" r="5" fill="green" stroke="none" /><circle cx="697" cy="200" r="5" fill="green" stroke="none" /><circle cx="379" cy="79" r="5" fill="green" stroke="none" /><circle cx="966" cy="786" r="5" fill="green" stroke="none" /><circle cx="824" cy="746" r="5" fill="green" stroke="none" /><circle cx="874" cy="433" r="5" fill="green" stroke="none" /><circle cx="98" cy="828" r="5" fill="green" stroke="none" /><circle cx="800" cy="593" r="5" fill="green" stroke="none" /><circle cx="191" cy="581" r="5" fill="green" stroke="none" /><circle cx="408" cy="521" r="5" fill="green" stroke="none" /><circle cx="806" cy="292" r="5" fill="green" stroke="none" /><circle cx="681" cy="419" r="5" fill="green" stroke="none" /><circle cx="835" cy="810" r="5" fill="green" stroke="none" /><circle cx="223" cy="51" r="5" fill="green" stroke="none" /><circle cx="686" cy="749" r="5" fill="green" stroke="none" /><circle cx="794" cy="550" r="5" fill="green" stroke="none" /><circle cx="713" cy="445" r="5" fill="green" stroke="none" /><circle cx="462" cy="910" r="5" fill="green" stroke="none" /><circle cx="282" cy="54" r="5" fill="green" stroke="none" /><circle cx="299" cy="933" r="5" fill="green" stroke="none" /><circle cx="765" cy="889" r="5" fill="green" stroke="none" /><circle cx="262" cy="241" r="5" fill="green" stroke="none" /><circle cx="443" cy="458" r="5" fill="green" stroke="none" /><circle cx="49" cy="973" r="5" fill="green" stroke="none" /><circle cx="710" cy="60" r="5" fill="green" stroke="none" /><circle cx="500" cy="844" r="5" fill="green" stroke="none" /><circle cx="658" cy="184" r="5" fill="green" stroke="none" /><circle cx="806" cy="851" r="5" fill="green" stroke="none" /><circle cx="505" cy="777" r="5" fill="green" stroke="none" /><circle cx="157" cy="628" r="5" fill="green" stroke="none" /><circle cx="424" cy="268" r="5" fill="green" stroke="none" /><circle cx="192" cy="774" r="5" fill="green" stroke="none" /><circle cx="480" cy="41" r="5" fill="green" stroke="none" /><circle cx="971" cy="893" r="5" fill="green" stroke="none" /><circle cx="734" cy="110" r="5" fill="green" stroke="none" /><circle cx="789" cy="832" r="5" fill="green" stroke="none" /><circle cx="515" cy="826" r="5" fill="green" stroke="none" /><circle cx="380" cy="11" r="5" fill="green" stroke="none" /><circle cx="316" cy="170" r="5" fill="green" stroke="none" /><circle cx="224" cy="458" r="5" fill="green" stroke="none" /><circle cx="85" cy="603" r="5" fill="green" stroke="none" /><circle cx="922" cy="997" r="5" fill="green" stroke="none" /><circle cx="651" cy="398" r="5" fill="green" stroke="none" /><circle cx="48" cy="890" r="5" fill="green" stroke="none" /><circle cx="504" cy="925" r="5" fill="green" stroke="none" /><circle cx="977" cy="650" r="5" fill="green" stroke="none" /><circle cx="503" cy="65" r="5" fill="green" stroke="none" /><circle cx="254" cy="664" r="5" fill="green" stroke="none" /><circle cx="377" cy="923" r="5" fill="green" stroke="none" /><circle cx="897" cy="206" r="5" fill="green" stroke="none" /><circle cx="478" cy="803" r="5" fill="green" stroke="none" /><circle cx="291" cy="153" r="5" fill="green" stroke="none" /><circle cx="845" cy="628" r="5" fill="green" stroke="none" /><circle cx="585" cy="41" r="5" fill="green" stroke="none" /><circle cx="800" cy="746" r="5" fill="green" stroke="none" /><circle cx="360" cy="430" r="5" fill="green" stroke="none" /><circle cx="878" cy="316" r="5" fill="green" stroke="none" /><circle cx="404" cy="981" r="5" fill="green" stroke="none" /><circle cx="197" cy="75" r="5" fill="green" stroke="none" /><circle cx="169" cy="920" r="5" fill="green" stroke="none" /><circle cx="698" cy="974" r="5" fill="green" stroke="none" /><circle cx="11" cy="926" r="5" fill="green" stroke="none" /><circle cx="463" cy="562" r="5" fill="green" stroke="none" /><circle cx="991" cy="773" r="5" fill="green" stroke="none" /><circle cx="262" cy="480" r="5" fill="green" stroke="none" /><circle cx="522" cy="69" r="5" fill="green" stroke="none" /><circle cx="914" cy="622" r="5" fill="green" stroke="none" /><circle cx="838" cy="492" r="5" fill="green" stroke="none" /><circle cx="936" cy="969" r="5" fill="green" stroke="none" /><circle cx="642" cy="434" r="5" fill="green" stroke="none" /><circle cx="914" cy="334" r="5" fill="green" stroke="none" /><circle cx="750" cy="539" r="5" fill="green" stroke="none" /><circle cx="479" cy="242" r="5" fill="green" stroke="none" /><circle cx="232" cy="472" r="5" fill="green" stroke="none" /><circle cx="142" cy="48" r="5" fill="green" stroke="none" /><circle cx="278" cy="455" r="5" fill="green" stroke="none" /><circle cx="600" cy="715" r="5" fill="green" stroke="none" /><circle cx="293" cy="181" r="5" fill="green" stroke="none" /><circle cx="754" cy="649" r="5" fill="green" stroke="none" /><circle cx="411" cy="15" r="5" fill="green" stroke="none" /><circle cx="635" cy="626" r="5" fill="green" stroke="none" /><circle cx="667" cy="223" r="5" fill="green" stroke="none" /><circle cx="471" cy="114" r="5" fill="green" stroke="none" /><circle cx="810" cy="387" r="5" fill="green" stroke="none" /><circle cx="422" cy="257" r="5" fill="green" stroke="none" /><circle cx="850" cy="752" r="5" fill="green" stroke="none" /><circle cx="407" cy="783" r="5" fill="green" stroke="none" /><circle cx="627" cy="811" r="5" fill="green" stroke="none" /><circle cx="460" cy="820" r="5" fill="green" stroke="none" /><circle cx="597" cy="671" r="5" fill="green" stroke="none" /><circle cx="580" cy="986" r="5" fill="green" stroke="none" /><circle cx="338" cy="959" r="5" fill="green" stroke="none" /><circle cx="863" cy="115" r="5" fill="green" stroke="none" /><circle cx="871" cy="958" r="5" fill="green" stroke="none" /><circle cx="452" cy="976" r="5" fill="green" stroke="none" /><circle cx="548" cy="431" r="5" fill="green" stroke="none" /><circle cx="348" cy="815" r="5" fill="green" stroke="none" /><circle cx="217" cy="943" r="5" fill="green" stroke="none" /><circle cx="515" cy="12" r="5" fill="green" stroke="none" /><circle cx="682" cy="738" r="5" fill="green" stroke="none" /><circle cx="924" cy="967" r="5" fill="green" stroke="none" /><circle cx="992" cy="556" r="5" fill="green" stroke="none" /><circle cx="693" cy="756" r="5" fill="green" stroke="none" /><circle cx="765" cy="871" r="5" fill="green" stroke="none" /><circle cx="8" cy="106" r="5" fill="green" stroke="none" /><circle cx="116" cy="596" r="5" fill="green" stroke="none" /><circle cx="21" cy="56" r="5" fill="green" stroke="none" /><circle cx="78" cy="162" r="5" fill="green" stroke="none" /><circle cx="330" cy="657" r="5" fill="green" stroke="none" /><circle cx="117" cy="543" r="5" fill="green" stroke="none" /><circle cx="539" cy="65" r="5" fill="green" stroke="none" /><circle cx="656" cy="416" r="5" fill="green" stroke="none" /><circle cx="570" cy="796" r="5" fill="green" stroke="none" /><circle cx="137" cy="271" r="5" fill="green" stroke="none" /><circle cx="567" cy="627" r="5" fill="green" stroke="none" /><circle cx="690" cy="4" r="5" fill="green" stroke="none" /><circle cx="598" cy="77" r="5" fill="green" stroke="none" /><circle cx="917" cy="934" r="5" fill="green" stroke="none" /><circle cx="158.77229112539143" cy="328.34416424178914" r="5" fill="blue" stroke="none" /><circle cx="152.98447570520304" cy="300" r="5" fill="blue" stroke="none" /><circle cx="76" cy="464.69558113140795" r="5" fill="blue" stroke="none" /><circle cx="160" cy="308.1639807908251" r="5" fill="blue" stroke="none" /><circle cx="116.5888836148544" cy="478" r="5" fill="blue" stroke="none" /><circle cx="160" cy="318.416277189888" r="5" fill="blue" stroke="none" /><circle cx="154.75601358545967" cy="478" r="5" fill="blue" stroke="none" /><circle cx="76" cy="300" r="5" fill="blue" stroke="none" /><circle cx="160" cy="469.4852107756211" r="5" fill="blue" stroke="none" /><circle cx="76" cy="447.15989931861884" r="5" fill="blue" stroke="none" /></svg>