<svg viewBox="0 0 4785 2577" xmlns="http://www.w3.org/2000/svg"><rect x="0" y="0" width="4785" height="2577" fill="lightyellow" stroke="none "/><rect x="2794" y="24" width="157" height="588" fill="white" stroke="black "/><circle cx="1916" cy="57" r="5" fill="green" stroke="none" /><circle cx="1513" cy="1828" r="5" fill="green" stroke="none" /><circle cx="2788" cy="985" r="5" fill="green" stroke="none" /><circle cx="4364" cy="1729" r="5" fill="green" stroke="none" /><circle cx="209" cy="728" r="5" fill="green" stroke="none" /><circle cx="4493" cy="1812" r="5" fill="green" stroke="none" /><circle cx="1655" cy="423" r="5" fill="green" stroke="none" /><circle cx="3574" cy="346" r="5" fill="green" stroke="none" /><circle cx="842" cy="1185" r="5" fill="green" stroke="none" /><circle cx="787" cy="171" r="5" fill="green" stroke="none" /><circle cx="1078" cy="806" r="5" fill="green" stroke="none" /><circle cx="2802" cy="1892" r="5" fill="green" stroke="none" /><circle cx="3270" cy="460" r="5" fill="green" stroke="none" /><circle cx="4343" cy="1517" r="5" fill="green" stroke="none" /><circle cx="2879" cy="1087" r="5" fill="green" stroke="none" /><circle cx="2936" cy="1019" r="5" fill="green" stroke="none" /><circle cx="2822" cy="1336" r="5" fill="green" stroke="none" /><circle cx="574" cy="1310" r="5" fill="green" stroke="none" /><circle cx="143" cy="491" r="5" fill="green" stroke="none" /><circle cx="2043" cy="119" r="5" fill="green" stroke="none" /><circle cx="1250" cy="964" r="5" fill="green" stroke="none" /><circle cx="155" cy="440" r="5" fill="green" stroke="none" /><circle cx="503" cy="1237" r="5" fill="green" stroke="none" /><circle cx="4421" cy="1642" r="5" fill="green" stroke="none" /><circle cx="2759" cy="683" r="5" fill="green" stroke="none" /><circle cx="109" cy="410" r="5" fill="green" stroke="none" /><circle cx="2156" cy="1645" r="5" fill="green" stroke="none" /><circle cx="809" cy="212" r="5" fill="green" stroke="none" /><circle cx="3709" cy="2034" r="5" fill="green" stroke="none" /><circle cx="2463" cy="1051" r="5" fill="green" stroke="none" /><circle cx="4220" cy="2272" r="5" fill="green" stroke="none" /><circle cx="3183" cy="660" r="5" fill="green" stroke="none" /><circle cx="570" cy="269" r="5" fill="green" stroke="none" /><circle cx="3316" cy="371" r="5" fill="green" stroke="none" /><circle cx="4344" cy="1161" r="5" fill="green" stroke="none" /><circle cx="765" cy="1975" r="5" fill="green" stroke="none" /><circle cx="2205" cy="769" r="5" fill="green" stroke="none" /><circle cx="142" cy="936" r="5" fill="green" stroke="none" /><circle cx="3858" cy="491" r="5" fill="green" stroke="none" /><circle cx="644" cy="345" r="5" fill="green" stroke="none" /><circle cx="3979" cy="2283" r="5" fill="green" stroke="none" /><circle cx="1794" cy="1550" r="5" fill="green" stroke="none" /><circle cx="2573" cy="2298" r="5" fill="green" stroke="none" /><circle cx="3840" cy="2383" r="5" fill="green" stroke="none" /><circle cx="457" cy="471" r="5" fill="green" stroke="none" /><circle cx="3780" cy="944" r="5" fill="green" stroke="none" /><circle cx="3994" cy="34" r="5" fill="green" stroke="none" /><circle cx="574" cy="1619" r="5" fill="green" stroke="none" /><circle cx="566" cy="341" r="5" fill="green" stroke="none" /><circle cx="1478" cy="1355" r="5" fill="green" stroke="none" /><circle cx="385" cy="549" r="5" fill="green" stroke="none" /><circle cx="3955" cy="2066" r="5" fill="green" stroke="none" /><circle cx="3723" cy="1292" r="5" fill="green" stroke="none" /><circle cx="544" cy="2129" r="5" fill="green" stroke="none" /><circle cx="1951" cy="513" r="5" fill="green" stroke="none" /><circle cx="3866" cy="2538" r="5" fill="green" stroke="none" /><circle cx="1793" cy="2142" r="5" fill="green" stroke="none" /><circle cx="962" cy="1544" r="5" fill="green" stroke="none" /><circle cx="4007" cy="256" r="5" fill="green" stroke="none" /><circle cx="1399" cy="15" r="5" fill="green" stroke="none" /><circle cx="3098" cy="589" r="5" fill="green" stroke="none" /><circle cx="222" cy="1290" r="5" fill="green" stroke="none" /><circle cx="1596" cy="2271" r="5" fill="green" stroke="none" /><circle cx="4188" cy="1005" r="5" fill="green" stroke="none" /><circle cx="4047" cy="1735" r="5" fill="green" stroke="none" /><circle cx="2867" cy="766" r="5" fill="green" stroke="none" /><circle cx="2305" cy="1569" r="5" fill="green" stroke="none" /><circle cx="3684" cy="1141" r="5" fill="green" stroke="none" /><circle cx="855" cy="1322" r="5" fill="green" stroke="none" /><circle cx="1514" cy="1489" r="5" fill="green" stroke="none" /><circle cx="1268" cy="609" r="5" fill="green" stroke="none" /><circle cx="2888" cy="1350" r="5" fill="green" stroke="none" /><circle cx="4516" cy="2476" r="5" fill="green" stroke="none" /><circle cx="4507" cy="1385" r="5" fill="green" stroke="none" /><circle cx="807" cy="2499" r="5" fill="green" stroke="none" /><circle cx="3263" cy="2421" r="5" fill="green" stroke="none" /><circle cx="1524" cy="1958" r="5" fill="green" stroke="none" /><circle cx="413" cy="515" r="5" fill="green" stroke="none" /><circle cx="3639" cy="1058" r="5" fill="green" stroke="none" /><circle cx="1833" cy="1882" r="5" fill="green" stroke="none" /><circle cx="2750" cy="2497" r="5" fill="green" stroke="none" /><circle cx="2775" cy="2564" r="5" fill="green" stroke="none" /><circle cx="1872" cy="833" r="5" fill="green" stroke="none" /><circle cx="1615" cy="1214" r="5" fill="green" stroke="none" /><circle cx="4048" cy="290" r="5" fill="green" stroke="none" /><circle cx="1328" cy="306" r="5" fill="green" stroke="none" /><circle cx="2592" cy="154" r="5" fill="green" stroke="none" /><circle cx="4319" cy="2559" r="5" fill="green" stroke="none" /><circle cx="4419" cy="868" r="5" fill="green" stroke="none" /><circle cx="781" cy="2041" r="5" fill="green" stroke="none" /><circle cx="3054" cy="641" r="5" fill="green" stroke="none" /><circle cx="1864" cy="1192" r="5" fill="green" stroke="none" /><circle cx="4242" cy="1502" r="5" fill="green" stroke="none" /><circle cx="1615" cy="785" r="5" fill="green" stroke="none" /><circle cx="915" cy="834" r="5" fill="green" stroke="none" /><circle cx="3502" cy="1910" r="5" fill="green" stroke="none" /><circle cx="1144" cy="279" r="5" fill="green" stroke="none" /><circle cx="3764" cy="1947" r="5" fill="green" stroke="none" /><circle cx="2999" cy="152" r="5" fill="green" stroke="none" /><circle cx="361" cy="1598" r="5" fill="green" stroke="none" /><circle cx="2843" cy="1877" r="5" fill="green" stroke="none" /><circle cx="4317" cy="1532" r="5" fill="green" stroke="none" /><circle cx="1016" cy="2394" r="5" fill="green" stroke="none" /><circle cx="419" cy="1689" r="5" fill="green" stroke="none" /><circle cx="1316" cy="638" r="5" fill="green" stroke="none" /><circle cx="2639" cy="1835" r="5" fill="green" stroke="none" /><circle cx="1959" cy="643" r="5" fill="green" stroke="none" /><circle cx="3888" cy="58" r="5" fill="green" stroke="none" /><circle cx="2827" cy="1281" r="5" fill="green" stroke="none" /><circle cx="2372" cy="275" r="5" fill="green" stroke="none" /><circle cx="2067" cy="691" r="5" fill="green" stroke="none" /><circle cx="4155" cy="1897" r="5" fill="green" stroke="none" /><circle cx="4228" cy="295" r="5" fill="green" stroke="none" /><circle cx="2766" cy="964" r="5" fill="green" stroke="none" /><circle cx="1884" cy="543" r="5" fill="green" stroke="none" /><circle cx="127" cy="1281" r="5" fill="green" stroke="none" /><circle cx="3954" cy="1946" r="5" fill="green" stroke="none" /><circle cx="4236" cy="2056" r="5" fill="green" stroke="none" /><circle cx="2273" cy="2139" r="5" fill="green" stroke="none" /><circle cx="478" cy="1378" r="5" fill="green" stroke="none" /><circle cx="4488" cy="2361" r="5" fill="green" stroke="none" /><circle cx="2987" cy="2415" r="5" fill="green" stroke="none" /><circle cx="2831" cy="1060" r="5" fill="green" stroke="none" /><circle cx="4151" cy="2209" r="5" fill="green" stroke="none" /><circle cx="4280" cy="2137" r="5" fill="green" stroke="none" /><circle cx="1158" cy="346" r="5" fill="green" stroke="none" /><circle cx="1531" cy="2005" r="5" fill="green" stroke="none" /><circle cx="633" cy="299" r="5" fill="green" stroke="none" /><circle cx="90" cy="236" r="5" fill="green" stroke="none" /><circle cx="4134" cy="363" r="5" fill="green" stroke="none" /><circle cx="1146" cy="744" r="5" fill="green" stroke="none" /><circle cx="842" cy="1292" r="5" fill="green" stroke="none" /><circle cx="1993" cy="131" r="5" fill="green" stroke="none" /><circle cx="2620" cy="1339" r="5" fill="green" stroke="none" /><circle cx="1015" cy="1500" r="5" fill="green" stroke="none" /><circle cx="2716" cy="112" r="5" fill="green" stroke="none" /><circle cx="2514" cy="792" r="5" fill="green" stroke="none" /><circle cx="926" cy="1960" r="5" fill="green" stroke="none" /><circle cx="1148" cy="2192" r="5" fill="green" stroke="none" /><circle cx="2610" cy="1837" r="5" fill="green" stroke="none" /><circle cx="4192" cy="1745" r="5" fill="green" stroke="none" /><circle cx="3719" cy="43" r="5" fill="green" stroke="none" /><circle cx="4677" cy="964" r="5" fill="green" stroke="none" /><circle cx="1237" cy="741" r="5" fill="green" stroke="none" /><circle cx="3755" cy="1208" r="5" fill="green" stroke="none" /><circle cx="885" cy="232" r="5" fill="green" stroke="none" /><circle cx="62" cy="185" r="5" fill="green" stroke="none" /><circle cx="4023" cy="191" r="5" fill="green" stroke="none" /><circle cx="203" cy="668" r="5" fill="green" stroke="none" /><circle cx="2654" cy="1137" r="5" fill="green" stroke="none" /><circle cx="3754" cy="2299" r="5" fill="green" stroke="none" /><circle cx="2402" cy="1918" r="5" fill="green" stroke="none" /><circle cx="1339" cy="1376" r="5" fill="green" stroke="none" /><circle cx="220" cy="1656" r="5" fill="green" stroke="none" /><circle cx="2981" cy="1873" r="5" fill="green" stroke="none" /><circle cx="3308" cy="405" r="5" fill="green" stroke="none" /><circle cx="3431" cy="1477" r="5" fill="green" stroke="none" /><circle cx="2526" cy="2" r="5" fill="green" stroke="none" /><circle cx="3589" cy="1528" r="5" fill="green" stroke="none" /><circle cx="3982" cy="2479" r="5" fill="green" stroke="none" /><circle cx="4254" cy="1694" r="5" fill="green" stroke="none" /><circle cx="4009" cy="2365" r="5" fill="green" stroke="none" /><circle cx="3061" cy="551" r="5" fill="green" stroke="none" /><circle cx="3498" cy="1239" r="5" fill="green" stroke="none" /><circle cx="431" cy="291" r="5" fill="green" stroke="none" /><circle cx="2127" cy="724" r="5" fill="green" stroke="none" /><circle cx="4686" cy="64" r="5" fill="green" stroke="none" /><circle cx="3990" cy="893" r="5" fill="green" stroke="none" /><circle cx="3229" cy="310" r="5" fill="green" stroke="none" /><circle cx="3782" cy="2184" r="5" fill="green" stroke="none" /><circle cx="386" cy="433" r="5" fill="green" stroke="none" /><circle cx="2721" cy="707" r="5" fill="green" stroke="none" /><circle cx="1420" cy="1615" r="5" fill="green" stroke="none" /><circle cx="244" cy="1798" r="5" fill="green" stroke="none" /><circle cx="3639" cy="926" r="5" fill="green" stroke="none" /><circle cx="1232" cy="1118" r="5" fill="green" stroke="none" /><circle cx="2331" cy="1765" r="5" fill="green" stroke="none" /><circle cx="157" cy="2089" r="5" fill="green" stroke="none" /><circle cx="2682" cy="1237" r="5" fill="green" stroke="none" /><circle cx="3497" cy="991" r="5" fill="green" stroke="none" /><circle cx="2907" cy="1765" r="5" fill="green" stroke="none" /><circle cx="1131" cy="2118" r="5" fill="green" stroke="none" /><circle cx="3015" cy="990" r="5" fill="green" stroke="none" /><circle cx="2146" cy="2385" r="5" fill="green" stroke="none" /><circle cx="2247" cy="2549" r="5" fill="green" stroke="none" /><circle cx="4776" cy="1933" r="5" fill="green" stroke="none" /><circle cx="380" cy="654" r="5" fill="green" stroke="none" /><circle cx="2763" cy="226" r="5" fill="green" stroke="none" /><circle cx="3339" cy="255" r="5" fill="green" stroke="none" /><circle cx="2047" cy="874" r="5" fill="green" stroke="none" /><circle cx="3792" cy="628" r="5" fill="green" stroke="none" /><circle cx="2566" cy="885" r="5" fill="green" stroke="none" /><circle cx="31" cy="1749" r="5" fill="green" stroke="none" /><circle cx="4620" cy="1610" r="5" fill="green" stroke="none" /><circle cx="353" cy="1099" r="5" fill="green" stroke="none" /><circle cx="1421" cy="2271" r="5" fill="green" stroke="none" /><circle cx="2925" cy="2074" r="5" fill="green" stroke="none" /><circle cx="4076" cy="1448" r="5" fill="green" stroke="none" /><circle cx="1577" cy="1698" r="5" fill="green" stroke="none" /><circle cx="87" cy="892" r="5" fill="green" stroke="none" /><circle cx="3575" cy="1979" r="5" fill="green" stroke="none" /><circle cx="4448" cy="1816" r="5" fill="green" stroke="none" /><circle cx="4568" cy="1585" r="5" fill="green" stroke="none" /><circle cx="1089" cy="1131" r="5" fill="green" stroke="none" /><circle cx="348" cy="1980" r="5" fill="green" stroke="none" /><circle cx="4066" cy="2410" r="5" fill="green" stroke="none" /><circle cx="35" cy="563" r="5" fill="green" stroke="none" /><circle cx="3857" cy="2513" r="5" fill="green" stroke="none" /><circle cx="1636" cy="2573" r="5" fill="green" stroke="none" /><circle cx="2669" cy="747" r="5" fill="green" stroke="none" /><circle cx="1281" cy="1186" r="5" fill="green" stroke="none" /><circle cx="424" cy="788" r="5" fill="green" stroke="none" /><circle cx="3600" cy="881" r="5" fill="green" stroke="none" /><circle cx="996" cy="1947" r="5" fill="green" stroke="none" /><circle cx="2022" cy="83" r="5" fill="green" stroke="none" /><circle cx="909" cy="1197" r="5" fill="green" stroke="none" /><circle cx="4757" cy="373" r="5" fill="green" stroke="none" /><circle cx="1360" cy="1898" r="5" fill="green" stroke="none" /><circle cx="360" cy="1048" r="5" fill="green" stroke="none" /><circle cx="2716" cy="304" r="5" fill="green" stroke="none" /><circle cx="657" cy="1073" r="5" fill="green" stroke="none" /><circle cx="507" cy="2147" r="5" fill="green" stroke="none" /><circle cx="1924" cy="627" r="5" fill="green" stroke="none" /><circle cx="756" cy="676" r="5" fill="green" stroke="none" /><circle cx="4372" cy="2507" r="5" fill="green" stroke="none" /><circle cx="1265" cy="756" r="5" fill="green" stroke="none" /><circle cx="3190" cy="743" r="5" fill="green" stroke="none" /><circle cx="3915" cy="2059" r="5" fill="green" stroke="none" /><circle cx="67" cy="2228" r="5" fill="green" stroke="none" /><circle cx="3887" cy="2434" r="5" fill="green" stroke="none" /><circle cx="53" cy="11" r="5" fill="green" stroke="none" /><circle cx="282" cy="2393" r="5" fill="green" stroke="none" /><circle cx="4375" cy="48" r="5" fill="green" stroke="none" /><circle cx="683" cy="1430" r="5" fill="green" stroke="none" /><circle cx="130" cy="1280" r="5" fill="green" stroke="none" /><circle cx="422" cy="1400" r="5" fill="green" stroke="none" /><circle cx="3670" cy="1430" r="5" fill="green" stroke="none" /><circle cx="641" cy="250" r="5" fill="green" stroke="none" /><circle cx="2122" cy="281" r="5" fill="green" stroke="none" /><circle cx="302" cy="1596" r="5" fill="green" stroke="none" /><circle cx="1200" cy="1109" r="5" fill="green" stroke="none" /><circle cx="3392" cy="3" r="5" fill="green" stroke="none" /><circle cx="1375" cy="2322" r="5" fill="green" stroke="none" /><circle cx="3007" cy="2517" r="5" fill="green" stroke="none" /><circle cx="888" cy="1375" r="5" fill="green" stroke="none" /><circle cx="4049" cy="566" r="5" fill="green" stroke="none" /><circle cx="3616" cy="1675" r="5" fill="green" stroke="none" /><circle cx="926" cy="1368" r="5" fill="green" stroke="none" /><circle cx="1173" cy="1680" r="5" fill="green" stroke="none" /><circle cx="1957" cy="31" r="5" fill="green" stroke="none" /><circle cx="4697" cy="2575" r="5" fill="green" stroke="none" /><circle cx="1988" cy="329" r="5" fill="green" stroke="none" /><circle cx="1569" cy="2271" r="5" fill="green" stroke="none" /><circle cx="3618" cy="840" r="5" fill="green" stroke="none" /><circle cx="3177" cy="2257" r="5" fill="green" stroke="none" /><circle cx="3583" cy="295" r="5" fill="green" stroke="none" /><circle cx="1632" cy="2269" r="5" fill="green" stroke="none" /><circle cx="1526" cy="572" r="5" fill="green" stroke="none" /><circle cx="3265" cy="686" r="5" fill="green" stroke="none" /><circle cx="916" cy="116" r="5" fill="green" stroke="none" /><circle cx="3210" cy="2359" r="5" fill="green" stroke="none" /><circle cx="62" cy="2242" r="5" fill="green" stroke="none" /><circle cx="2738" cy="84" r="5" fill="green" stroke="none" /><circle cx="4458" cy="1116" r="5" fill="green" stroke="none" /><circle cx="2357" cy="592" r="5" fill="green" stroke="none" /><circle cx="2182" cy="339" r="5" fill="green" stroke="none" /><circle cx="3100" cy="894" r="5" fill="green" stroke="none" /><circle cx="2003" cy="1317" r="5" fill="green" stroke="none" /><circle cx="520" cy="2316" r="5" fill="green" stroke="none" /><circle cx="1686" cy="419" r="5" fill="green" stroke="none" /><circle cx="120" cy="1295" r="5" fill="green" stroke="none" /><circle cx="3425" cy="1582" r="5" fill="green" stroke="none" /><circle cx="4137" cy="1380" r="5" fill="green" stroke="none" /><circle cx="3724" cy="1774" r="5" fill="green" stroke="none" /><circle cx="3558" cy="761" r="5" fill="green" stroke="none" /><circle cx="2003" cy="2112" r="5" fill="green" stroke="none" /><circle cx="3235" cy="2094" r="5" fill="green" stroke="none" /><circle cx="2082" cy="1582" r="5" fill="green" stroke="none" /><circle cx="3648" cy="841" r="5" fill="green" stroke="none" /><circle cx="2176" cy="2272" r="5" fill="green" stroke="none" /><circle cx="2208" cy="1600" r="5" fill="green" stroke="none" /><circle cx="103" cy="2310" r="5" fill="green" stroke="none" /><circle cx="2128" cy="2391" r="5" fill="green" stroke="none" /><circle cx="3492" cy="1660" r="5" fill="green" stroke="none" /><circle cx="4065" cy="2188" r="5" fill="green" stroke="none" /><circle cx="4152" cy="1486" r="5" fill="green" stroke="none" /><circle cx="3847" cy="2083" r="5" fill="green" stroke="none" /><circle cx="2598" cy="895" r="5" fill="green" stroke="none" /><circle cx="4229" cy="814" r="5" fill="green" stroke="none" /><circle cx="637" cy="1486" r="5" fill="green" stroke="none" /><circle cx="1204" cy="1751" r="5" fill="green" stroke="none" /><circle cx="1096" cy="1751" r="5" fill="green" stroke="none" /><circle cx="4637" cy="255" r="5" fill="green" stroke="none" /><circle cx="4088" cy="126" r="5" fill="green" stroke="none" /><circle cx="2216" cy="840" r="5" fill="green" stroke="none" /><circle cx="2171" cy="388" r="5" fill="green" stroke="none" /><circle cx="4148" cy="1601" r="5" fill="green" stroke="none" /><circle cx="3757" cy="543" r="5" fill="green" stroke="none" /><circle cx="4130" cy="2294" r="5" fill="green" stroke="none" /><circle cx="3783" cy="2397" r="5" fill="green" stroke="none" /><circle cx="4228" cy="1684" r="5" fill="green" stroke="none" /><circle cx="414" cy="1684" r="5" fill="green" stroke="none" /><circle cx="2364" cy="1740" r="5" fill="green" stroke="none" /><circle cx="4668" cy="2329" r="5" fill="green" stroke="none" /><circle cx="1948" cy="2025" r="5" fill="green" stroke="none" /><circle cx="3982" cy="669" r="5" fill="green" stroke="none" /><circle cx="3137" cy="1753" r="5" fill="green" stroke="none" /><circle cx="2267" cy="1873" r="5" fill="green" stroke="none" /><circle cx="3196" cy="716" r="5" fill="green" stroke="none" /><circle cx="1869" cy="5" r="5" fill="green" stroke="none" /><circle cx="110" cy="2249" r="5" fill="green" stroke="none" /><circle cx="1210" cy="13" r="5" fill="green" stroke="none" /><circle cx="4756" cy="95" r="5" fill="green" stroke="none" /><circle cx="1359" cy="656" r="5" fill="green" stroke="none" /><circle cx="793" cy="1306" r="5" fill="green" stroke="none" /><circle cx="339" cy="1008" r="5" fill="green" stroke="none" /><circle cx="75" cy="1525" r="5" fill="green" stroke="none" /><circle cx="219" cy="1254" r="5" fill="green" stroke="none" /><circle cx="4695" cy="137" r="5" fill="green" stroke="none" /><circle cx="4708" cy="2290" r="5" fill="green" stroke="none" /><circle cx="2758" cy="1971" r="5" fill="green" stroke="none" /><circle cx="4616" cy="1536" r="5" fill="green" stroke="none" /><circle cx="14" cy="1043" r="5" fill="green" stroke="none" /><circle cx="2877" cy="714" r="5" fill="green" stroke="none" /><circle cx="2749" cy="2147" r="5" fill="green" stroke="none" /><circle cx="4753" cy="2474" r="5" fill="green" stroke="none" /><circle cx="1378" cy="2136" r="5" fill="green" stroke="none" /><circle cx="3931" cy="528" r="5" fill="green" stroke="none" /><circle cx="937" cy="1905" r="5" fill="green" stroke="none" /><circle cx="2629" cy="1271" r="5" fill="green" stroke="none" /><circle cx="2029" cy="1657" r="5" fill="green" stroke="none" /><circle cx="2262" cy="1374" r="5" fill="green" stroke="none" /><circle cx="3718" cy="2035" r="5" fill="green" stroke="none" /><circle cx="188" cy="2466" r="5" fill="green" stroke="none" /><circle cx="4115" cy="64" r="5" fill="green" stroke="none" /><circle cx="226" cy="2195" r="5" fill="green" stroke="none" /><circle cx="4671" cy="924" r="5" fill="green" stroke="none" /><circle cx="3993" cy="2161" r="5" fill="green" stroke="none" /><circle cx="2250" cy="2419" r="5" fill="green" stroke="none" /><circle cx="1149" cy="1011" r="5" fill="green" stroke="none" /><circle cx="1247" cy="549" r="5" fill="green" stroke="none" /><circle cx="2915" cy="1357" r="5" fill="green" stroke="none" /><circle cx="4122" cy="1488" r="5" fill="green" stroke="none" /><circle cx="4549" cy="1854" r="5" fill="green" stroke="none" /><circle cx="3413" cy="28" r="5" fill="green" stroke="none" /><circle cx="3748" cy="449" r="5" fill="green" stroke="none" /><circle cx="2481" cy="1688" r="5" fill="green" stroke="none" /><circle cx="4045" cy="2458" r="5" fill="green" stroke="none" /><circle cx="1204" cy="561" r="5" fill="green" stroke="none" /><circle cx="763" cy="1242" r="5" fill="green" stroke="none" /><circle cx="2028" cy="1281" r="5" fill="green" stroke="none" /><circle cx="2175" cy="928" r="5" fill="green" stroke="none" /><circle cx="3532" cy="195" r="5" fill="green" stroke="none" /><circle cx="167" cy="1609" r="5" fill="green" stroke="none" /><circle cx="4096" cy="18" r="5" fill="green" stroke="none" /><circle cx="704" cy="1978" r="5" fill="green" stroke="none" /><circle cx="1182" cy="431" r="5" fill="green" stroke="none" /><circle cx="3534" cy="1725" r="5" fill="green" stroke="none" /><circle cx="2103" cy="1883" r="5" fill="green" stroke="none" /><circle cx="3676" cy="457" r="5" fill="green" stroke="none" /><circle cx="104" cy="1524" r="5" fill="green" stroke="none" /><circle cx="4410" cy="1494" r="5" fill="green" stroke="none" /><circle cx="2268" cy="1730" r="5" fill="green" stroke="none" /><circle cx="932" cy="1587" r="5" fill="green" stroke="none" /><circle cx="3838" cy="920" r="5" fill="green" stroke="none" /><circle cx="744" cy="2045" r="5" fill="green" stroke="none" /><circle cx="830" cy="1398" r="5" fill="green" stroke="none" /><circle cx="2678" cy="1059" r="5" fill="green" stroke="none" /><circle cx="739" cy="1117" r="5" fill="green" stroke="none" /><circle cx="4750" cy="358" r="5" fill="green" stroke="none" /><circle cx="4752" cy="1895" r="5" fill="green" stroke="none" /><circle cx="2106" cy="1588" r="5" fill="green" stroke="none" /><circle cx="4375" cy="1616" r="5" fill="green" stroke="none" /><circle cx="877" cy="555" r="5" fill="green" stroke="none" /><circle cx="211" cy="671" r="5" fill="green" stroke="none" /><circle cx="2573" cy="6" r="5" fill="green" stroke="none" /><circle cx="4038" cy="18" r="5" fill="green" stroke="none" /><circle cx="2230" cy="1966" r="5" fill="green" stroke="none" /><circle cx="2283" cy="360" r="5" fill="green" stroke="none" /><circle cx="2167" cy="1861" r="5" fill="green" stroke="none" /><circle cx="2178" cy="2437" r="5" fill="green" stroke="none" /><circle cx="882" cy="1069" r="5" fill="green" stroke="none" /><circle cx="3856" cy="1737" r="5" fill="green" stroke="none" /><circle cx="3905" cy="226" r="5" fill="green" stroke="none" /><circle cx="959" cy="1041" r="5" fill="green" stroke="none" /><circle cx="499" cy="1864" r="5" fill="green" stroke="none" /><circle cx="536" cy="1628" r="5" fill="green" stroke="none" /><circle cx="3697" cy="1311" r="5" fill="green" stroke="none" /><circle cx="4618" cy="52" r="5" fill="green" stroke="none" /><circle cx="4021" cy="1392" r="5" fill="green" stroke="none" /><circle cx="2246" cy="1922" r="5" fill="green" stroke="none" /><circle cx="4161" cy="697" r="5" fill="green" stroke="none" /><circle cx="3696" cy="640" r="5" fill="green" stroke="none" /><circle cx="17" cy="1152" r="5" fill="green" stroke="none" /><circle cx="4252" cy="765" r="5" fill="green" stroke="none" /><circle cx="3914" cy="230" r="5" fill="green" stroke="none" /><circle cx="1686" cy="89" r="5" fill="green" stroke="none" /><circle cx="3964" cy="1470" r="5" fill="green" stroke="none" /><circle cx="4625" cy="446" r="5" fill="green" stroke="none" /><circle cx="354" cy="742" r="5" fill="green" stroke="none" /><circle cx="3317" cy="302" r="5" fill="green" stroke="none" /><circle cx="2515" cy="2221" r="5" fill="green" stroke="none" /><circle cx="1058" cy="70" r="5" fill="green" stroke="none" /><circle cx="2686" cy="505" r="5" fill="green" stroke="none" /><circle cx="1120" cy="1814" r="5" fill="green" stroke="none" /><circle cx="392" cy="2093" r="5" fill="green" stroke="none" /><circle cx="2948" cy="2030" r="5" fill="green" stroke="none" /><circle cx="4406" cy="2153" r="5" fill="green" stroke="none" /><circle cx="3506" cy="1259" r="5" fill="green" stroke="none" /><circle cx="1231" cy="1984" r="5" fill="green" stroke="none" /><circle cx="1374" cy="728" r="5" fill="green" stroke="none" /><circle cx="3880" cy="1498" r="5" fill="green" stroke="none" /><circle cx="4621" cy="8" r="5" fill="green" stroke="none" /><circle cx="2227" cy="668" r="5" fill="green" stroke="none" /><circle cx="1105" cy="1836" r="5" fill="green" stroke="none" /><circle cx="1285" cy="2077" r="5" fill="green" stroke="none" /><circle cx="2827" cy="737" r="5" fill="green" stroke="none" /><circle cx="1440" cy="1518" r="5" fill="green" stroke="none" /><circle cx="4295" cy="1262" r="5" fill="green" stroke="none" /><circle cx="1185" cy="494" r="5" fill="green" stroke="none" /><circle cx="3613" cy="1808" r="5" fill="green" stroke="none" /><circle cx="1991" cy="463" r="5" fill="green" stroke="none" /><circle cx="3082" cy="417" r="5" fill="green" stroke="none" /><circle cx="1653" cy="2506" r="5" fill="green" stroke="none" /><circle cx="2997" cy="2486" r="5" fill="green" stroke="none" /><circle cx="2273" cy="2088" r="5" fill="green" stroke="none" /><circle cx="1008" cy="1780" r="5" fill="green" stroke="none" /><circle cx="2374" cy="1356" r="5" fill="green" stroke="none" /><circle cx="535" cy="1233" r="5" fill="green" stroke="none" /><circle cx="2714" cy="1234" r="5" fill="green" stroke="none" /><circle cx="256" cy="1364" r="5" fill="green" stroke="none" /><circle cx="4662" cy="1989" r="5" fill="green" stroke="none" /><circle cx="1920" cy="76" r="5" fill="green" stroke="none" /><circle cx="2003" cy="814" r="5" fill="green" stroke="none" /><circle cx="1959" cy="314" r="5" fill="green" stroke="none" /><circle cx="1284" cy="1451" r="5" fill="green" stroke="none" /><circle cx="913" cy="1840" r="5" fill="green" stroke="none" /><circle cx="307" cy="1961" r="5" fill="green" stroke="none" /><circle cx="4214" cy="1361" r="5" fill="green" stroke="none" /><circle cx="2595" cy="506" r="5" fill="green" stroke="none" /><circle cx="221" cy="1007" r="5" fill="green" stroke="none" /><circle cx="3768" cy="2178" r="5" fill="green" stroke="none" /><circle cx="3018" cy="445" r="5" fill="green" stroke="none" /><circle cx="348" cy="738" r="5" fill="green" stroke="none" /><circle cx="360" cy="1561" r="5" fill="green" stroke="none" /><circle cx="1281" cy="564" r="5" fill="green" stroke="none" /><circle cx="2459" cy="475" r="5" fill="green" stroke="none" /><circle cx="3040" cy="510" r="5" fill="green" stroke="none" /><circle cx="4564" cy="816" r="5" fill="green" stroke="none" /><circle cx="453" cy="1445" r="5" fill="green" stroke="none" /><circle cx="3162" cy="14" r="5" fill="green" stroke="none" /><circle cx="3164" cy="1756" r="5" fill="green" stroke="none" /><circle cx="213" cy="2194" r="5" fill="green" stroke="none" /><circle cx="1691" cy="1050" r="5" fill="green" stroke="none" /><circle cx="4077" cy="367" r="5" fill="green" stroke="none" /><circle cx="3307" cy="398" r="5" fill="green" stroke="none" /><circle cx="1568" cy="1271" r="5" fill="green" stroke="none" /><circle cx="3063" cy="549" r="5" fill="green" stroke="none" /><circle cx="3682" cy="2116" r="5" fill="green" stroke="none" /><circle cx="4455" cy="12" r="5" fill="green" stroke="none" /><circle cx="215" cy="1082" r="5" fill="green" stroke="none" /><circle cx="834" cy="2089" r="5" fill="green" stroke="none" /><circle cx="782" cy="805" r="5" fill="green" stroke="none" /><circle cx="1509" cy="236" r="5" fill="green" stroke="none" /><circle cx="1547" cy="1117" r="5" fill="green" stroke="none" /><circle cx="2217" cy="516" r="5" fill="green" stroke="none" /><circle cx="4390" cy="1932" r="5" fill="green" stroke="none" /><circle cx="2101" cy="424" r="5" fill="green" stroke="none" /><circle cx="4361" cy="1474" r="5" fill="green" stroke="none" /><circle cx="708" cy="1183" r="5" fill="green" stroke="none" /><circle cx="4412" cy="2449" r="5" fill="green" stroke="none" /><circle cx="2854" cy="1941" r="5" fill="green" stroke="none" /><circle cx="745" cy="1731" r="5" fill="green" stroke="none" /><circle cx="2503" cy="1521" r="5" fill="green" stroke="none" /><circle cx="4387" cy="122" r="5" fill="green" stroke="none" /><circle cx="1810" cy="59" r="5" fill="green" stroke="none" /><circle cx="436" cy="1900" r="5" fill="green" stroke="none" /><circle cx="1390" cy="182" r="5" fill="green" stroke="none" /><circle cx="3448" cy="1612" r="5" fill="green" stroke="none" /><circle cx="374" cy="1370" r="5" fill="green" stroke="none" /><circle cx="1252" cy="1554" r="5" fill="green" stroke="none" /><circle cx="1819" cy="349" r="5" fill="green" stroke="none" /><circle cx="827" cy="459" r="5" fill="green" stroke="none" /><circle cx="357" cy="941" r="5" fill="green" stroke="none" /><circle cx="3569" cy="806" r="5" fill="green" stroke="none" /><circle cx="2482" cy="506" r="5" fill="green" stroke="none" /><circle cx="2116" cy="680" r="5" fill="green" stroke="none" /><circle cx="1949" cy="967" r="5" fill="green" stroke="none" /><circle cx="552" cy="248" r="5" fill="green" stroke="none" /><circle cx="2" cy="1715" r="5" fill="green" stroke="none" /><circle cx="2493" cy="1657" r="5" fill="green" stroke="none" /><circle cx="3240" cy="63" r="5" fill="green" stroke="none" /><circle cx="4237" cy="837" r="5" fill="green" stroke="none" /><circle cx="1981" cy="447" r="5" fill="green" stroke="none" /><circle cx="3883" cy="822" r="5" fill="green" stroke="none" /><circle cx="1226" cy="1147" r="5" fill="green" stroke="none" /><circle cx="2146" cy="1596" r="5" fill="green" stroke="none" /><circle cx="3006" cy="411" r="5" fill="green" stroke="none" /><circle cx="2022" cy="467" r="5" fill="green" stroke="none" /><circle cx="1144" cy="561" r="5" fill="green" stroke="none" /><circle cx="3796" cy="870" r="5" fill="green" stroke="none" /><circle cx="652" cy="1559" r="5" fill="green" stroke="none" /><circle cx="4059" cy="1338" r="5" fill="green" stroke="none" /><circle cx="4063" cy="558" r="5" fill="green" stroke="none" /><circle cx="4546" cy="852" r="5" fill="green" stroke="none" /><circle cx="267" cy="1409" r="5" fill="green" stroke="none" /><circle cx="1788" cy="216" r="5" fill="green" stroke="none" /><circle cx="4362" cy="2547" r="5" fill="green" stroke="none" /><circle cx="3392" cy="574" r="5" fill="green" stroke="none" /><circle cx="4117" cy="824" r="5" fill="green" stroke="none" /><circle cx="3364" cy="1450" r="5" fill="green" stroke="none" /><circle cx="2237" cy="335" r="5" fill="green" stroke="none" /><circle cx="243" cy="1017" r="5" fill="green" stroke="none" /><circle cx="1587" cy="1099" r="5" fill="green" stroke="none" /><circle cx="4721" cy="441" r="5" fill="green" stroke="none" /><circle cx="4463" cy="1724" r="5" fill="green" stroke="none" /><circle cx="2655" cy="525" r="5" fill="green" stroke="none" /><circle cx="3578" cy="205" r="5" fill="green" stroke="none" /><circle cx="4511" cy="2169" r="5" fill="green" stroke="none" /><circle cx="2271" cy="2469" r="5" fill="green" stroke="none" /><circle cx="2419" cy="1187" r="5" fill="green" stroke="none" /><circle cx="3582" cy="845" r="5" fill="green" stroke="none" /><circle cx="142" cy="533" r="5" fill="green" stroke="none" /><circle cx="1676" cy="575" r="5" fill="green" stroke="none" /><circle cx="743" cy="1274" r="5" fill="green" stroke="none" /><circle cx="1650" cy="2242" r="5" fill="green" stroke="none" /><circle cx="3366" cy="513" r="5" fill="green" stroke="none" /><circle cx="3025" cy="1914" r="5" fill="green" stroke="none" /><circle cx="1535" cy="1799" r="5" fill="green" stroke="none" /><circle cx="354" cy="252" r="5" fill="green" stroke="none" /><circle cx="2912" cy="2417" r="5" fill="green" stroke="none" /><circle cx="2835" cy="2406" r="5" fill="green" stroke="none" /><circle cx="595" cy="1594" r="5" fill="green" stroke="none" /><circle cx="1554" cy="458" r="5" fill="green" stroke="none" /><circle cx="4114" cy="967" r="5" fill="green" stroke="none" /><circle cx="229" cy="990" r="5" fill="green" stroke="none" /><circle cx="4547" cy="909" r="5" fill="green" stroke="none" /><circle cx="4686" cy="410" r="5" fill="green" stroke="none" /><circle cx="3525" cy="1979" r="5" fill="green" stroke="none" /><circle cx="1709" cy="1647" r="5" fill="green" stroke="none" /><circle cx="4321" cy="234" r="5" fill="green" stroke="none" /><circle cx="967" cy="1052" r="5" fill="green" stroke="none" /><circle cx="2374" cy="522" r="5" fill="green" stroke="none" /><circle cx="1851" cy="2035" r="5" fill="green" stroke="none" /><circle cx="3932" cy="1374" r="5" fill="green" stroke="none" /><circle cx="1804" cy="1431" r="5" fill="green" stroke="none" /><circle cx="1071" cy="864" r="5" fill="green" stroke="none" /><circle cx="1227" cy="647" r="5" fill="green" stroke="none" /><circle cx="634" cy="2139" r="5" fill="green" stroke="none" /><circle cx="1759" cy="1244" r="5" fill="green" stroke="none" /><circle cx="4404" cy="388" r="5" fill="green" stroke="none" /><circle cx="2283" cy="149" r="5" fill="green" stroke="none" /><circle cx="2804" cy="1065" r="5" fill="green" stroke="none" /><circle cx="2503" cy="504" r="5" fill="green" stroke="none" /><circle cx="707" cy="2143" r="5" fill="green" stroke="none" /><circle cx="4075" cy="1868" r="5" fill="green" stroke="none" /><circle cx="1207" cy="2062" r="5" fill="green" stroke="none" /><circle cx="2390" cy="1859" r="5" fill="green" stroke="none" /><circle cx="3732" cy="1620" r="5" fill="green" stroke="none" /><circle cx="4188" cy="1736" r="5" fill="green" stroke="none" /><circle cx="2837" cy="750" r="5" fill="green" stroke="none" /><circle cx="802" cy="2532" r="5" fill="green" stroke="none" /><circle cx="551" cy="1450" r="5" fill="green" stroke="none" /><circle cx="2073" cy="475" r="5" fill="green" stroke="none" /><circle cx="1772" cy="79" r="5" fill="green" stroke="none" /><circle cx="4223" cy="355" r="5" fill="green" stroke="none" /><circle cx="2014" cy="602" r="5" fill="green" stroke="none" /><circle cx="4409" cy="1947" r="5" fill="green" stroke="none" /><circle cx="3665" cy="418" r="5" fill="green" stroke="none" /><circle cx="1622" cy="266" r="5" fill="green" stroke="none" /><circle cx="3549" cy="610" r="5" fill="green" stroke="none" /><circle cx="2533" cy="1175" r="5" fill="green" stroke="none" /><circle cx="3795" cy="1761" r="5" fill="green" stroke="none" /><circle cx="133" cy="756" r="5" fill="green" stroke="none" /><circle cx="819" cy="81" r="5" fill="green" stroke="none" /><circle cx="2056" cy="151" r="5" fill="green" stroke="none" /><circle cx="1825" cy="1341" r="5" fill="green" stroke="none" /><circle cx="3482" cy="1549" r="5" fill="green" stroke="none" /><circle cx="2803" cy="2076" r="5" fill="green" stroke="none" /><circle cx="433" cy="1570" r="5" fill="green" stroke="none" /><circle cx="2231" cy="1187" r="90" fill="red" stroke="none" /><circle cx="2346" cy="943" r="94" fill="red" stroke="none" /><circle cx="2138" cy="2058" r="91" fill="red" stroke="none" /><circle cx="942" cy="2451" r="43" fill="red" stroke="none" /><circle cx="1128" cy="1599" r="65" fill="red" stroke="none" /><circle cx="3028" cy="632" r="6" fill="red" stroke="none" /><circle cx="3257" cy="200" r="91" fill="red" stroke="none" /><circle cx="3593" cy="2180" r="100" fill="red" stroke="none" /><circle cx="3268" cy="1460" r="90" fill="red" stroke="none" /><circle cx="520" cy="2397" r="34" fill="red" stroke="none" /><circle cx="3038" cy="2240" r="57" fill="red" stroke="none" /><circle cx="354" cy="1675" r="29" fill="red" stroke="none" /><circle cx="1724" cy="1376" r="55" fill="red" stroke="none" /><circle cx="2524" cy="2463" r="42" fill="red" stroke="none" /><circle cx="3552" cy="2140" r="51" fill="red" stroke="none" /><circle cx="1490" cy="376" r="89" fill="red" stroke="none" /><circle cx="3055" cy="700" r="39" fill="red" stroke="none" /><circle cx="676" cy="1700" r="13" fill="red" stroke="none" /><circle cx="3345" cy="1036" r="20" fill="red" stroke="none" /><circle cx="1953" cy="2108" r="33" fill="red" stroke="none" /><circle cx="86" cy="807" r="40" fill="red" stroke="none" /><circle cx="4584" cy="1148" r="100" fill="red" stroke="none" /><circle cx="656" cy="109" r="7" fill="red" stroke="none" /><circle cx="1296" cy="2270" r="93" fill="red" stroke="none" /><circle cx="2076" cy="1356" r="39" fill="red" stroke="none" /><circle cx="1191" cy="1307" r="78" fill="red" stroke="none" /><circle cx="4558" cy="1259" r="34" fill="red" stroke="none" /><circle cx="1775" cy="1148" r="53" fill="red" stroke="none" /><circle cx="3428" cy="582" r="36" fill="red" stroke="none" /><circle cx="922" cy="2224" r="28" fill="red" stroke="none" /><circle cx="731" cy="2023" r="23" fill="red" stroke="none" /><circle cx="195" cy="1349" r="10" fill="red" stroke="none" /><circle cx="1015" cy="2005" r="54" fill="red" stroke="none" /><circle cx="2583" cy="231" r="46" fill="red" stroke="none" /><circle cx="3156" cy="1475" r="27" fill="red" stroke="none" /><circle cx="1932" cy="2396" r="90" fill="red" stroke="none" /><circle cx="1543" cy="2454" r="101" fill="red" stroke="none" /><circle cx="1059" cy="1959" r="7" fill="red" stroke="none" /><circle cx="4187" cy="403" r="50" fill="red" stroke="none" /><circle cx="4637" cy="1080" r="26" fill="red" stroke="none" /><circle cx="2709" cy="1899" r="58" fill="red" stroke="none" /><circle cx="2983" cy="1154" r="79" fill="red" stroke="none" /><circle cx="2693" cy="849" r="79" fill="red" stroke="none" /><circle cx="301" cy="1149" r="66" fill="red" stroke="none" /><circle cx="4586" cy="1325" r="72" fill="red" stroke="none" /><circle cx="4367" cy="487" r="64" fill="red" stroke="none" /><circle cx="4516" cy="627" r="75" fill="red" stroke="none" /><circle cx="336" cy="1858" r="62" fill="red" stroke="none" /><circle cx="2018" cy="2218" r="63" fill="red" stroke="none" /><circle cx="679" cy="1220" r="45" fill="red" stroke="none" /><circle cx="2383" cy="1069" r="14" fill="red" stroke="none" /><circle cx="3368" cy="961" r="63" fill="red" stroke="none" /><circle cx="683" cy="2051" r="7" fill="red" stroke="none" /><circle cx="665" cy="139" r="79" fill="red" stroke="none" /><circle cx="4291" cy="708" r="63" fill="red" stroke="none" /><circle cx="2636" cy="1511" r="61" fill="red" stroke="none" /><circle cx="4268" cy="935" r="63" fill="red" stroke="none" /><circle cx="2804" cy="251.23845078691647" r="5" fill="blue" stroke="none" /><circle cx="2941" cy="374.20752591231076" r="5" fill="blue" stroke="none" /><circle cx="2940.929828996288" cy="353.8788393131872" r="5" fill="blue" stroke="none" /><circle cx="2890.0706116662736" cy="602" r="5" fill="blue" stroke="none" /><circle cx="2812.734138247173" cy="224.58103819256758" r="5" fill="blue" stroke="none" /><circle cx="2941" cy="420.08500611027875" r="5" fill="blue" stroke="none" /><circle cx="2804" cy="146.78287360447985" r="5" fill="blue" stroke="none" /><circle cx="2938.635527293369" cy="143.5549324862941" r="5" fill="blue" stroke="none" /><circle cx="2804" cy="272.4179552042856" r="5" fill="blue" stroke="none" /><circle cx="2804" cy="413.60071229020696" r="5" fill="blue" stroke="none" /><circle cx="2804" cy="261.6987162098162" r="5" fill="blue" stroke="none" /><circle cx="2941" cy="163.97051647736725" r="5" fill="blue" stroke="none" /><circle cx="2804" cy="66.64997750654675" r="5" fill="blue" stroke="none" /><circle cx="2941" cy="440.10092434152875" r="5" fill="blue" stroke="none" /><circle cx="2804.307544601687" cy="570.2024332772489" r="5" fill="blue" stroke="none" /><circle cx="2941" cy="110.90662966850005" r="5" fill="blue" stroke="none" /><circle cx="2804" cy="320.65079148229916" r="5" fill="blue" stroke="none" /><circle cx="2941" cy="554.6244967155328" r="5" fill="blue" stroke="none" /><circle cx="2941" cy="153.29776347731558" r="5" fill="blue" stroke="none" /><circle cx="2940.313591271669" cy="601.2879913746697" r="5" fill="blue" stroke="none" /><circle cx="2939.2976199391483" cy="384.3894283391951" r="5" fill="blue" stroke="none" /><circle cx="2941" cy="517.4884190767207" r="5" fill="blue" stroke="none" /><circle cx="2804.864896400591" cy="239.8065938633781" r="5" fill="blue" stroke="none" /><circle cx="2804.0886619317084" cy="495.2324916062021" r="5" fill="blue" stroke="none" /><circle cx="2941" cy="394.961859908668" r="5" fill="blue" stroke="none" /><circle cx="2932.5523451948225" cy="446.40735249990075" r="5" fill="blue" stroke="none" /><circle cx="2804" cy="229.83358611224412" r="5" fill="blue" stroke="none" /><circle cx="2804" cy="37.7839434104817" r="5" fill="blue" stroke="none" /><circle cx="2805.6239501963423" cy="209.82225519163148" r="5" fill="blue" stroke="none" /><circle cx="2804" cy="377.5912093353063" r="5" fill="blue" stroke="none" /><circle cx="2935.042118684354" cy="592.0810499540619" r="5" fill="blue" stroke="none" /><circle cx="2933.337597964438" cy="471.8436969344489" r="5" fill="blue" stroke="none" /><circle cx="2863.949645984558" cy="602" r="5" fill="blue" stroke="none" /><circle cx="2940.4985316886673" cy="488.72942363947413" r="5" fill="blue" stroke="none" /><circle cx="2933.681671821846" cy="413.0594056979512" r="5" fill="blue" stroke="none" /><circle cx="2941" cy="405.3630065699749" r="5" fill="blue" stroke="none" /><circle cx="2834.0899935735256" cy="602" r="5" fill="blue" stroke="none" /><circle cx="2804.677886175381" cy="130.96076014293976" r="5" fill="blue" stroke="none" /><circle cx="2872.8168670657433" cy="592.2622874176477" r="5" fill="blue" stroke="none" /><circle cx="2806.16931347194" cy="287.8531703208937" r="5" fill="blue" stroke="none" /><circle cx="2941" cy="123.83433926277394" r="5" fill="blue" stroke="none" /><circle cx="2804" cy="602" r="5" fill="blue" stroke="none" /><circle cx="2804" cy="363.39601929369564" r="5" fill="blue" stroke="none" /><circle cx="2804" cy="219.70280108019415" r="5" fill="blue" stroke="none" /><circle cx="2924.060802187293" cy="602" r="5" fill="blue" stroke="none" /><circle cx="2804" cy="199.9530363084641" r="5" fill="blue" stroke="none" /><circle cx="2804" cy="345.9467183892134" r="5" fill="blue" stroke="none" /><circle cx="2844.9633396553277" cy="601.5181045793347" r="5" fill="blue" stroke="none" /><circle cx="2941" cy="215.05241710663904" r="5" fill="blue" stroke="none" /><circle cx="2937.678267885735" cy="183.98771077663923" r="5" fill="blue" stroke="none" /><circle cx="2804" cy="308.15894069230944" r="5" fill="blue" stroke="none" /><circle cx="2805.363570363511" cy="110.591988480287" r="5" fill="blue" stroke="none" /><circle cx="2813.9038538858194" cy="249.824805939405" r="5" fill="blue" stroke="none" /><circle cx="2804.7552181682518" cy="56.647693114936374" r="5" fill="blue" stroke="none" /><circle cx="2912.754519970804" cy="584.0084221482923" r="5" fill="blue" stroke="none" /><circle cx="2813.8854299931286" cy="599.8366351006175" r="5" fill="blue" stroke="none" /><circle cx="2941" cy="133.8353769951991" r="5" fill="blue" stroke="none" /><circle cx="2940.5036725277323" cy="544.598898119006" r="5" fill="blue" stroke="none" /><circle cx="2941" cy="461.85800320339104" r="5" fill="blue" stroke="none" /><circle cx="2804" cy="170.33781814300391" r="5" fill="blue" stroke="none" /><circle cx="2823.7633285114234" cy="602" r="5" fill="blue" stroke="none" /><circle cx="2806.302345536969" cy="77.94601921645017" r="5" fill="blue" stroke="none" /><circle cx="2804" cy="97.79244599737285" r="5" fill="blue" stroke="none" /><circle cx="2804.7139019218093" cy="466.47655643526423" r="5" fill="blue" stroke="none" /><circle cx="2935.9116398866045" cy="508.50193759254216" r="5" fill="blue" stroke="none" /><circle cx="2932.1550083734155" cy="159.30130098492373" r="5" fill="blue" stroke="none" /><circle cx="2940.4665698047424" cy="333.20481484476795" r="5" fill="blue" stroke="none" /><circle cx="2927.977071218431" cy="572.9785419464617" r="5" fill="blue" stroke="none" /><circle cx="2941" cy="174.51877928983095" r="5" fill="blue" stroke="none" /><circle cx="2941" cy="478.71779544914125" r="5" fill="blue" stroke="none" /><circle cx="2806.0290808682958" cy="190.1334116849739" r="5" fill="blue" stroke="none" /><circle cx="2804" cy="180.33862971455983" r="5" fill="blue" stroke="none" /><circle cx="2804.7444414630404" cy="528.847569749887" r="5" fill="blue" stroke="none" /><circle cx="2940.5077176010896" cy="430.1116791633199" r="5" fill="blue" stroke="none" /><circle cx="2878.6758113205274" cy="601.1960244487107" r="5" fill="blue" stroke="none" /><circle cx="2940.3262993908875" cy="256.029672888134" r="5" fill="blue" stroke="none" /><circle cx="2941" cy="583.9848338826259" r="5" fill="blue" stroke="none" /><circle cx="2940.3404731422825" cy="364.1735441486517" r="5" fill="blue" stroke="none" /><circle cx="2937.2125066400026" cy="528.0094171644391" r="5" fill="blue" stroke="none" /><circle cx="2901.8082809671305" cy="602" r="5" fill="blue" stroke="none" /><circle cx="2941" cy="451.82281994661616" r="5" fill="blue" stroke="none" /><circle cx="2804.697527878338" cy="588.8300905179465" r="5" fill="blue" stroke="none" /><circle cx="2941" cy="564.624566869697" r="5" fill="blue" stroke="none" /><circle cx="2804" cy="87.70355234232238" r="5" fill="blue" stroke="none" /><circle cx="2940.3797878684104" cy="343.23665722379656" r="5" fill="blue" stroke="none" /><circle cx="2938.9046630332355" cy="498.6551545221505" r="5" fill="blue" stroke="none" /><circle cx="2804.8373901983136" cy="297.8067692966465" r="5" fill="blue" stroke="none" /><circle cx="2941" cy="193.69442825247097" r="5" fill="blue" stroke="none" /></svg>