<svg viewBox="0 0 1680 4552" xmlns="http://www.w3.org/2000/svg"><rect x="0" y="0" width="1680" height="4552" fill="lightyellow" stroke="none "/><rect x="636" y="3952" width="462" height="403" fill="white" stroke="black "/><circle cx="1480" cy="4093" r="5" fill="green" stroke="none" /><circle cx="46" cy="3325" r="5" fill="green" stroke="none" /><circle cx="249" cy="4164" r="5" fill="green" stroke="none" /><circle cx="1514" cy="4285" r="5" fill="green" stroke="none" /><circle cx="631" cy="3943" r="5" fill="green" stroke="none" /><circle cx="165" cy="3691" r="5" fill="green" stroke="none" /><circle cx="1017" cy="4516" r="5" fill="green" stroke="none" /><circle cx="374" cy="3477" r="5" fill="green" stroke="none" /><circle cx="89" cy="3968" r="5" fill="green" stroke="none" /><circle cx="1561" cy="4085" r="5" fill="green" stroke="none" /><circle cx="341" cy="4406" r="5" fill="green" stroke="none" /><circle cx="389" cy="4143" r="5" fill="green" stroke="none" /><circle cx="52" cy="3886" r="5" fill="green" stroke="none" /><circle cx="1665" cy="4394" r="5" fill="green" stroke="none" /><circle cx="893" cy="4427" r="5" fill="green" stroke="none" /><circle cx="1496" cy="4301" r="5" fill="green" stroke="none" /><circle cx="350" cy="4189" r="5" fill="green" stroke="none" /><circle cx="1166" cy="4509" r="5" fill="green" stroke="none" /><circle cx="466" cy="3342" r="5" fill="green" stroke="none" /><circle cx="1354" cy="2548" r="5" fill="green" stroke="none" /><circle cx="735" cy="3671" r="5" fill="green" stroke="none" /><circle cx="382" cy="3681" r="5" fill="green" stroke="none" /><circle cx="1347" cy="4263" r="5" fill="green" stroke="none" /><circle cx="1590" cy="3771" r="5" fill="green" stroke="none" /><circle cx="600" cy="4498" r="5" fill="green" stroke="none" /><circle cx="331" cy="4014" r="5" fill="green" stroke="none" /><circle cx="1526" cy="4395" r="5" fill="green" stroke="none" /><circle cx="1376" cy="4224" r="5" fill="green" stroke="none" /><circle cx="763" cy="3535" r="5" fill="green" stroke="none" /><circle cx="796" cy="4362" r="5" fill="green" stroke="none" /><circle cx="1455" cy="4430" r="5" fill="green" stroke="none" /><circle cx="303" cy="3442" r="5" fill="green" stroke="none" /><circle cx="1128" cy="4304" r="5" fill="green" stroke="none" /><circle cx="1092" cy="3776" r="5" fill="green" stroke="none" /><circle cx="225" cy="4204" r="5" fill="green" stroke="none" /><circle cx="636" cy="3815" r="5" fill="green" stroke="none" /><circle cx="705" cy="3594" r="5" fill="green" stroke="none" /><circle cx="660" cy="3547" r="5" fill="green" stroke="none" /><circle cx="1662" cy="1601" r="5" fill="green" stroke="none" /><circle cx="1666" cy="4546" r="5" fill="green" stroke="none" /><circle cx="1669" cy="3851" r="5" fill="green" stroke="none" /><circle cx="1296" cy="2673" r="5" fill="green" stroke="none" /><circle cx="1294" cy="4522" r="5" fill="green" stroke="none" /><circle cx="418" cy="4088" r="5" fill="green" stroke="none" /><circle cx="1635" cy="1546" r="5" fill="green" stroke="none" /><circle cx="1420" cy="4483" r="5" fill="green" stroke="none" /><circle cx="676" cy="4409" r="5" fill="green" stroke="none" /><circle cx="1465" cy="2086" r="5" fill="green" stroke="none" /><circle cx="97" cy="3612" r="5" fill="green" stroke="none" /><circle cx="328" cy="3869" r="5" fill="green" stroke="none" /><circle cx="1653" cy="3762" r="5" fill="green" stroke="none" /><circle cx="473" cy="4102" r="5" fill="green" stroke="none" /><circle cx="808" cy="3631" r="5" fill="green" stroke="none" /><circle cx="1619" cy="1519" r="5" fill="green" stroke="none" /><circle cx="1030" cy="3602" r="5" fill="green" stroke="none" /><circle cx="1121" cy="3395" r="5" fill="green" stroke="none" /><circle cx="1592" cy="4497" r="5" fill="green" stroke="none" /><circle cx="621" cy="3758" r="5" fill="green" stroke="none" /><circle cx="444" cy="4541" r="5" fill="green" stroke="none" /><circle cx="356" cy="4072" r="5" fill="green" stroke="none" /><circle cx="721" cy="3221" r="5" fill="green" stroke="none" /><circle cx="1570" cy="4490" r="5" fill="green" stroke="none" /><circle cx="995" cy="3881" r="5" fill="green" stroke="none" /><circle cx="1276" cy="3198" r="5" fill="green" stroke="none" /><circle cx="367" cy="4406" r="5" fill="green" stroke="none" /><circle cx="1040" cy="4358" r="5" fill="green" stroke="none" /><circle cx="404" cy="3621" r="5" fill="green" stroke="none" /><circle cx="577" cy="3828" r="5" fill="green" stroke="none" /><circle cx="1099" cy="4334" r="5" fill="green" stroke="none" /><circle cx="358" cy="3890" r="5" fill="green" stroke="none" /><circle cx="477" cy="4323" r="5" fill="green" stroke="none" /><circle cx="1505" cy="3921" r="5" fill="green" stroke="none" /><circle cx="1666" cy="3935" r="5" fill="green" stroke="none" /><circle cx="1679" cy="3814" r="5" fill="green" stroke="none" /><circle cx="1647" cy="4388" r="5" fill="green" stroke="none" /><circle cx="1355" cy="4061" r="5" fill="green" stroke="none" /><circle cx="1553" cy="3979" r="5" fill="green" stroke="none" /><circle cx="823" cy="3589" r="5" fill="green" stroke="none" /><circle cx="1310" cy="3399" r="5" fill="green" stroke="none" /><circle cx="518" cy="3677" r="5" fill="green" stroke="none" /><circle cx="1412" cy="3593" r="5" fill="green" stroke="none" /><circle cx="1121" cy="3465" r="5" fill="green" stroke="none" /><circle cx="24" cy="3342" r="5" fill="green" stroke="none" /><circle cx="259" cy="3822" r="5" fill="green" stroke="none" /><circle cx="1109" cy="3442" r="5" fill="green" stroke="none" /><circle cx="559" cy="3260" r="5" fill="green" stroke="none" /><circle cx="1592" cy="1553" r="5" fill="green" stroke="none" /><circle cx="1280" cy="4463" r="5" fill="green" stroke="none" /><circle cx="126" cy="4551" r="5" fill="green" stroke="none" /><circle cx="1514" cy="4252" r="5" fill="green" stroke="none" /><circle cx="645" cy="3822" r="5" fill="green" stroke="none" /><circle cx="152" cy="3296" r="5" fill="green" stroke="none" /><circle cx="1130" cy="3439" r="5" fill="green" stroke="none" /><circle cx="1172" cy="3229" r="5" fill="green" stroke="none" /><circle cx="289" cy="3935" r="5" fill="green" stroke="none" /><circle cx="1561" cy="4208" r="5" fill="green" stroke="none" /><circle cx="724" cy="3276" r="5" fill="green" stroke="none" /><circle cx="1193" cy="4283" r="5" fill="green" stroke="none" /><circle cx="1125" cy="4528" r="5" fill="green" stroke="none" /><circle cx="289" cy="1818" r="9" fill="red" stroke="none" /><circle cx="195" cy="451" r="40" fill="red" stroke="none" /><circle cx="770" cy="2136" r="46" fill="red" stroke="none" /><circle cx="761" cy="3816" r="8" fill="red" stroke="none" /><circle cx="633" cy="2718" r="34" fill="red" stroke="none" /><circle cx="697" cy="820" r="50" fill="red" stroke="none" /><circle cx="667" cy="1355" r="58" fill="red" stroke="none" /><circle cx="154" cy="2644" r="82" fill="red" stroke="none" /><circle cx="1233" cy="3576" r="66" fill="red" stroke="none" /><circle cx="390" cy="533" r="38" fill="red" stroke="none" /><circle cx="810" cy="1525" r="82" fill="red" stroke="none" /><circle cx="317" cy="3230" r="61" fill="red" stroke="none" /><circle cx="810" cy="1606" r="79" fill="red" stroke="none" /><circle cx="873" cy="2599" r="21" fill="red" stroke="none" /><circle cx="555" cy="4169" r="77" fill="red" stroke="none" /><circle cx="1227" cy="3644" r="30" fill="red" stroke="none" /><circle cx="406" cy="137" r="49" fill="red" stroke="none" /><circle cx="422" cy="274" r="9" fill="red" stroke="none" /><circle cx="632" cy="1016" r="45" fill="red" stroke="none" /><circle cx="707" cy="1456" r="41" fill="red" stroke="none" /><circle cx="555" cy="2202" r="42" fill="red" stroke="none" /><circle cx="520" cy="1134" r="57" fill="red" stroke="none" /><circle cx="620" cy="1133" r="13" fill="red" stroke="none" /><circle cx="1464" cy="353" r="62" fill="red" stroke="none" /><circle cx="1004" cy="3395" r="60" fill="red" stroke="none" /><circle cx="1321" cy="516" r="31" fill="red" stroke="none" /><circle cx="748" cy="2907" r="16" fill="red" stroke="none" /><circle cx="922" cy="3605" r="41" fill="red" stroke="none" /><circle cx="1389" cy="2995" r="37" fill="red" stroke="none" /><circle cx="964" cy="3765" r="61" fill="red" stroke="none" /><circle cx="217" cy="1923" r="10" fill="red" stroke="none" /><circle cx="323" cy="3359" r="49" fill="red" stroke="none" /><circle cx="754" cy="1910" r="10" fill="red" stroke="none" /><circle cx="1070" cy="2121" r="43" fill="red" stroke="none" /><circle cx="1355" cy="931" r="71" fill="red" stroke="none" /><circle cx="476" cy="985" r="45" fill="red" stroke="none" /><circle cx="1329" cy="1060" r="81" fill="red" stroke="none" /><circle cx="355" cy="3185" r="35" fill="red" stroke="none" /><circle cx="1224" cy="3817" r="41" fill="red" stroke="none" /><circle cx="700" cy="3382" r="21" fill="red" stroke="none" /><circle cx="723" cy="1112" r="26" fill="red" stroke="none" /><circle cx="360" cy="511" r="54" fill="red" stroke="none" /><circle cx="867" cy="3866" r="78" fill="red" stroke="none" /><circle cx="504" cy="954" r="78" fill="red" stroke="none" /><circle cx="1283" cy="2499" r="80" fill="red" stroke="none" /><circle cx="1564" cy="2605" r="41" fill="red" stroke="none" /><circle cx="173" cy="1673" r="57" fill="red" stroke="none" /><circle cx="1331" cy="3141" r="14" fill="red" stroke="none" /><circle cx="49" cy="297" r="40" fill="red" stroke="none" /><circle cx="401" cy="4295" r="44" fill="red" stroke="none" /><circle cx="745" cy="2579" r="8" fill="red" stroke="none" /><circle cx="1392" cy="2663" r="32" fill="red" stroke="none" /><circle cx="555" cy="1397" r="15" fill="red" stroke="none" /><circle cx="195" cy="4316" r="63" fill="red" stroke="none" /><circle cx="934" cy="937" r="81" fill="red" stroke="none" /><circle cx="341" cy="2525" r="16" fill="red" stroke="none" /><circle cx="996" cy="1922" r="53" fill="red" stroke="none" /><circle cx="1287" cy="3158" r="37" fill="red" stroke="none" /><circle cx="247" cy="4432" r="64" fill="red" stroke="none" /><circle cx="320" cy="372" r="22" fill="red" stroke="none" /><circle cx="398" cy="1587" r="50" fill="red" stroke="none" /><circle cx="585" cy="768" r="13" fill="red" stroke="none" /><circle cx="1242" cy="102" r="12" fill="red" stroke="none" /><circle cx="178" cy="520" r="20" fill="red" stroke="none" /><circle cx="1416" cy="4373" r="30" fill="red" stroke="none" /><circle cx="1163" cy="506" r="46" fill="red" stroke="none" /><circle cx="112" cy="1961" r="24" fill="red" stroke="none" /><circle cx="1350" cy="2259" r="76" fill="red" stroke="none" /><circle cx="629" cy="579" r="17" fill="red" stroke="none" /><circle cx="1340" cy="1540" r="8" fill="red" stroke="none" /><circle cx="1223" cy="2002" r="73" fill="red" stroke="none" /><circle cx="1510" cy="3147" r="9" fill="red" stroke="none" /><circle cx="153" cy="2559" r="73" fill="red" stroke="none" /><circle cx="1134" cy="611" r="12" fill="red" stroke="none" /><circle cx="488" cy="2890" r="18" fill="red" stroke="none" /><circle cx="1586" cy="2695" r="31" fill="red" stroke="none" /><circle cx="516" cy="1066" r="24" fill="red" stroke="none" /><circle cx="242" cy="2029" r="62" fill="red" stroke="none" /><circle cx="1135" cy="515" r="55" fill="red" stroke="none" /><circle cx="602" cy="2973" r="65" fill="red" stroke="none" /><circle cx="666" cy="318" r="6" fill="red" stroke="none" /><circle cx="79" cy="3528" r="63" fill="red" stroke="none" /><circle cx="876" cy="3091" r="79" fill="red" stroke="none" /><circle cx="389" cy="860" r="81" fill="red" stroke="none" /><circle cx="112" cy="1401" r="24" fill="red" stroke="none" /><circle cx="904" cy="2013" r="8" fill="red" stroke="none" /><circle cx="1032" cy="376" r="14" fill="red" stroke="none" /><circle cx="1248" cy="3685" r="37" fill="red" stroke="none" /><circle cx="547" cy="4234" r="76" fill="red" stroke="none" /><circle cx="1191" cy="1723" r="10" fill="red" stroke="none" /><circle cx="659" cy="1772" r="31" fill="red" stroke="none" /><circle cx="186" cy="1302" r="54" fill="red" stroke="none" /><circle cx="893" cy="4484" r="36" fill="red" stroke="none" /><circle cx="737" cy="3129" r="62" fill="red" stroke="none" /><circle cx="961" cy="3593" r="67" fill="red" stroke="none" /><circle cx="1020" cy="2471" r="79" fill="red" stroke="none" /><circle cx="875" cy="343" r="48" fill="red" stroke="none" /><circle cx="575" cy="3201" r="55" fill="red" stroke="none" /><circle cx="1124" cy="1114" r="58" fill="red" stroke="none" /><circle cx="550" cy="2037" r="61" fill="red" stroke="none" /><circle cx="426" cy="1484" r="23" fill="red" stroke="none" /><circle cx="423" cy="2363" r="13" fill="red" stroke="none" /><circle cx="1542" cy="4139" r="16" fill="red" stroke="none" /><circle cx="955" cy="359" r="66" fill="red" stroke="none" /><circle cx="333" cy="2956" r="56" fill="red" stroke="none" /><circle cx="1488" cy="578" r="33" fill="red" stroke="none" /><circle cx="1231" cy="3929" r="44" fill="red" stroke="none" /><circle cx="1273" cy="491" r="65" fill="red" stroke="none" /><circle cx="1379" cy="837" r="7" fill="red" stroke="none" /><circle cx="686" cy="3110" r="63" fill="red" stroke="none" /><circle cx="261" cy="4259" r="24" fill="red" stroke="none" /><circle cx="1481" cy="3346" r="46" fill="red" stroke="none" /><circle cx="500" cy="3117" r="30" fill="red" stroke="none" /><circle cx="1360" cy="493" r="13" fill="red" stroke="none" /><circle cx="668" cy="1115" r="53" fill="red" stroke="none" /><circle cx="229" cy="2404" r="18" fill="red" stroke="none" /><circle cx="1240" cy="3890" r="56" fill="red" stroke="none" /><circle cx="533" cy="1750" r="44" fill="red" stroke="none" /><circle cx="718" cy="2125" r="52" fill="red" stroke="none" /><circle cx="318" cy="939" r="49" fill="red" stroke="none" /><circle cx="1430" cy="1096" r="22" fill="red" stroke="none" /><circle cx="986" cy="4427" r="37" fill="red" stroke="none" /><circle cx="1468" cy="3688" r="65" fill="red" stroke="none" /><circle cx="1252" cy="1351" r="52" fill="red" stroke="none" /><circle cx="1585" cy="2261" r="81" fill="red" stroke="none" /><circle cx="645" cy="1234" r="50" fill="red" stroke="none" /><circle cx="395" cy="285" r="57" fill="red" stroke="none" /><circle cx="668" cy="2174" r="39" fill="red" stroke="none" /><circle cx="800" cy="969" r="40" fill="red" stroke="none" /><circle cx="457" cy="1563" r="10" fill="red" stroke="none" /><circle cx="976" cy="803" r="10" fill="red" stroke="none" /><circle cx="429" cy="1784" r="19" fill="red" stroke="none" /><circle cx="863" cy="2782" r="6" fill="red" stroke="none" /><circle cx="549" cy="2159" r="74" fill="red" stroke="none" /><circle cx="997" cy="346" r="68" fill="red" stroke="none" /><circle cx="1124" cy="4498" r="9" fill="red" stroke="none" /><circle cx="718" cy="1094" r="77" fill="red" stroke="none" /><circle cx="1014" cy="2483" r="29" fill="red" stroke="none" /><circle cx="274" cy="2623" r="46" fill="red" stroke="none" /><circle cx="654" cy="2403" r="12" fill="red" stroke="none" /><circle cx="942" cy="1350" r="72" fill="red" stroke="none" /><circle cx="118" cy="3878" r="24" fill="red" stroke="none" /><circle cx="1347" cy="1092" r="84" fill="red" stroke="none" /><circle cx="519" cy="2312" r="64" fill="red" stroke="none" /><circle cx="666" cy="3370" r="58" fill="red" stroke="none" /><circle cx="867" cy="3932" r="8" fill="red" stroke="none" /><circle cx="109" cy="2492" r="59" fill="red" stroke="none" /><circle cx="1007" cy="2997" r="28" fill="red" stroke="none" /><circle cx="433" cy="3215" r="70" fill="red" stroke="none" /><circle cx="639" cy="3256" r="37" fill="red" stroke="none" /><circle cx="1001" cy="3386" r="82" fill="red" stroke="none" /><circle cx="585" cy="484" r="37" fill="red" stroke="none" /><circle cx="1606" cy="3047" r="26" fill="red" stroke="none" /><circle cx="1408" cy="3053" r="23" fill="red" stroke="none" /><circle cx="1194" cy="468" r="75" fill="red" stroke="none" /><circle cx="142" cy="923" r="16" fill="red" stroke="none" /><circle cx="1316" cy="1611" r="23" fill="red" stroke="none" /><circle cx="898" cy="179" r="44" fill="red" stroke="none" /><circle cx="485" cy="2354" r="51" fill="red" stroke="none" /><circle cx="1147" cy="2906" r="71" fill="red" stroke="none" /><circle cx="940" cy="3270" r="44" fill="red" stroke="none" /><circle cx="397" cy="3276" r="74" fill="red" stroke="none" /><circle cx="1084" cy="928" r="22" fill="red" stroke="none" /><circle cx="1059" cy="541" r="31" fill="red" stroke="none" /><circle cx="560" cy="2610" r="73" fill="red" stroke="none" /><circle cx="1034" cy="2204" r="27" fill="red" stroke="none" /><circle cx="230" cy="4059" r="56" fill="red" stroke="none" /><circle cx="1370" cy="455" r="9" fill="red" stroke="none" /><circle cx="1235" cy="3954" r="72" fill="red" stroke="none" /><circle cx="707" cy="1652" r="53" fill="red" stroke="none" /><circle cx="1223" cy="3636" r="77" fill="red" stroke="none" /><circle cx="1005" cy="1632" r="33" fill="red" stroke="none" /><circle cx="801" cy="3370" r="74" fill="red" stroke="none" /><circle cx="514" cy="3113" r="58" fill="red" stroke="none" /><circle cx="544" cy="2842" r="34" fill="red" stroke="none" /><circle cx="99" cy="2663" r="41" fill="red" stroke="none" /><circle cx="727" cy="2751" r="72" fill="red" stroke="none" /><circle cx="1147" cy="1653" r="63" fill="red" stroke="none" /><circle cx="321" cy="3573" r="66" fill="red" stroke="none" /><circle cx="594" cy="1257" r="35" fill="red" stroke="none" /><circle cx="528" cy="1800" r="22" fill="red" stroke="none" /><circle cx="1319" cy="1788" r="56" fill="red" stroke="none" /><circle cx="1185" cy="4061" r="81" fill="red" stroke="none" /><circle cx="894" cy="587" r="51" fill="red" stroke="none" /><circle cx="1397" cy="3849" r="82" fill="red" stroke="none" /><circle cx="1005" cy="2813" r="26" fill="red" stroke="none" /><circle cx="110" cy="4160" r="36" fill="red" stroke="none" /><circle cx="845" cy="69" r="67" fill="red" stroke="none" /><circle cx="956" cy="3263" r="25" fill="red" stroke="none" /><circle cx="525" cy="3241" r="38" fill="red" stroke="none" /><circle cx="389" cy="4303" r="42" fill="red" stroke="none" /><circle cx="1267" cy="3390" r="33" fill="red" stroke="none" /><circle cx="296" cy="2830" r="52" fill="red" stroke="none" /><circle cx="912" cy="3530" r="26" fill="red" stroke="none" /><circle cx="964.7714911588164" cy="3988.3506710965084" r="5" fill="blue" stroke="none" /><circle cx="955.8214115141374" cy="4329.642807465841" r="5" fill="blue" stroke="none" /><circle cx="652.2278458090266" cy="4317.116552053682" r="5" fill="blue" stroke="none" /><circle cx="813.2048798083102" cy="4311.441582813256" r="5" fill="blue" stroke="none" /><circle cx="1045.7127871398895" cy="4286.729488424296" r="5" fill="blue" stroke="none" /><circle cx="1088" cy="4258.883166465743" r="5" fill="blue" stroke="none" /><circle cx="1034.0086328114016" cy="3962" r="5" fill="blue" stroke="none" /><circle cx="759.7304058973008" cy="4337.209993916946" r="5" fill="blue" stroke="none" /><circle cx="956.7401424404237" cy="3981.842029815109" r="5" fill="blue" stroke="none" /><circle cx="1079.202053247675" cy="4324.65937708162" r="5" fill="blue" stroke="none" /><circle cx="670.4955371687242" cy="4310.555998190294" r="5" fill="blue" stroke="none" /><circle cx="1079.5303579300853" cy="4344.81060256713" r="5" fill="blue" stroke="none" /><circle cx="740.1168427592739" cy="4331.073115822722" r="5" fill="blue" stroke="none" /><circle cx="730.114045284616" cy="4345" r="5" fill="blue" stroke="none" /><circle cx="945.8921260333773" cy="4335.6173587456515" r="5" fill="blue" stroke="none" /><circle cx="1054.4995686966522" cy="4291.718450806099" r="5" fill="blue" stroke="none" /><circle cx="766.699345943753" cy="4317.206366108218" r="5" fill="blue" stroke="none" /><circle cx="1069.2474498838396" cy="4265.99146852069" r="5" fill="blue" stroke="none" /><circle cx="795.4150837509969" cy="3971.9993668509032" r="5" fill="blue" stroke="none" /><circle cx="776.6770764048879" cy="4299.806568843699" r="5" fill="blue" stroke="none" /><circle cx="1016.0665742049096" cy="4318.376421989428" r="5" fill="blue" stroke="none" /><circle cx="864.1335939585948" cy="4345" r="5" fill="blue" stroke="none" /><circle cx="934.9137541750958" cy="4329.381723377002" r="5" fill="blue" stroke="none" /><circle cx="786.7948113794129" cy="4299.723387408557" r="5" fill="blue" stroke="none" /><circle cx="996.6376779420647" cy="3970.7766950004257" r="5" fill="blue" stroke="none" /><circle cx="1079.2842349137118" cy="4274.0350236662825" r="5" fill="blue" stroke="none" /><circle cx="1087.8180053353742" cy="4279.799480434056" r="5" fill="blue" stroke="none" /><circle cx="815.1853961185853" cy="4335.153072508427" r="5" fill="blue" stroke="none" /><circle cx="683.47804173039" cy="4319.435924925888" r="5" fill="blue" stroke="none" /><circle cx="849.3534180886192" cy="4324.702394203888" r="5" fill="blue" stroke="none" /><circle cx="855.2728470613446" cy="4340.360852925006" r="5" fill="blue" stroke="none" /><circle cx="1021.8414386997819" cy="4310.182071629558" r="5" fill="blue" stroke="none" /><circle cx="875.990772835382" cy="4341.369703790447" r="5" fill="blue" stroke="none" /><circle cx="1028.2052060716212" cy="4291.619418222442" r="5" fill="blue" stroke="none" /><circle cx="776.705357499348" cy="4317.117537752342" r="5" fill="blue" stroke="none" /><circle cx="936.2764989682593" cy="3971.7034464191975" r="5" fill="blue" stroke="none" /><circle cx="1019.5058011625408" cy="3971.631939592161" r="5" fill="blue" stroke="none" /><circle cx="895.8709967508997" cy="4314.163889970766" r="5" fill="blue" stroke="none" /><circle cx="884.8595944673056" cy="4314.577972170812" r="5" fill="blue" stroke="none" /><circle cx="933.7572608925002" cy="3962" r="5" fill="blue" stroke="none" /><circle cx="861.2179696157962" cy="3963.7657022878448" r="5" fill="blue" stroke="none" /><circle cx="1088" cy="4234.032477838724" r="5" fill="blue" stroke="none" /><circle cx="1068.5033526018094" cy="4304.1934547951405" r="5" fill="blue" stroke="none" /><circle cx="890.8640338033994" cy="3962.225729866006" r="5" fill="blue" stroke="none" /><circle cx="1059.1729059085012" cy="3972.00513228938" r="5" fill="blue" stroke="none" /><circle cx="677.8795816453426" cy="4345" r="5" fill="blue" stroke="none" /><circle cx="764.5981754831987" cy="4327.0068855104355" r="5" fill="blue" stroke="none" /><circle cx="649.2108940686735" cy="4296.8092010266455" r="5" fill="blue" stroke="none" /><circle cx="731.0034203953057" cy="3998.3519185743644" r="5" fill="blue" stroke="none" /><circle cx="1046.6331472671857" cy="4336.311213711424" r="5" fill="blue" stroke="none" /><circle cx="829.1133941234832" cy="4345" r="5" fill="blue" stroke="none" /><circle cx="731.2552105831151" cy="4315.054788073779" r="5" fill="blue" stroke="none" /><circle cx="1041.7832250351598" cy="4327.561678939237" r="5" fill="blue" stroke="none" /><circle cx="1055.9954357598415" cy="3981.565365428084" r="5" fill="blue" stroke="none" /><circle cx="984.2736342484727" cy="3968.9505224251993" r="5" fill="blue" stroke="none" /><circle cx="803.3662303879912" cy="4309.495539478143" r="5" fill="blue" stroke="none" /><circle cx="756.6804912829024" cy="4317.220905517778" r="5" fill="blue" stroke="none" /><circle cx="666.0136597259283" cy="3962.3198113433386" r="5" fill="blue" stroke="none" /><circle cx="819.1304750403635" cy="4297.05098643866" r="5" fill="blue" stroke="none" /><circle cx="737.5918211099364" cy="3990.768948394968" r="5" fill="blue" stroke="none" /><circle cx="1016.0274026895564" cy="4336.575885233907" r="5" fill="blue" stroke="none" /><circle cx="657.472464542961" cy="4052.175569520571" r="5" fill="blue" stroke="none" /><circle cx="954.034596346081" cy="3962" r="5" fill="blue" stroke="none" /><circle cx="1069.2568034086366" cy="4314.165511006325" r="5" fill="blue" stroke="none" /><circle cx="945.5340671956352" cy="4325.581910986559" r="5" fill="blue" stroke="none" /><circle cx="705.6376617628559" cy="4317.412359086388" r="5" fill="blue" stroke="none" /><circle cx="769.6335285205118" cy="4335.660986586262" r="5" fill="blue" stroke="none" /><circle cx="807.0970017192637" cy="4345" r="5" fill="blue" stroke="none" /><circle cx="1039.3025361869963" cy="4317.869986237185" r="5" fill="blue" stroke="none" /><circle cx="791.7351276455342" cy="4308.444581918262" r="5" fill="blue" stroke="none" /><circle cx="846.6841906828632" cy="4334.364758117581" r="5" fill="blue" stroke="none" /><circle cx="694.3790491855166" cy="4085.724342603093" r="5" fill="blue" stroke="none" /><circle cx="1005.3505636379073" cy="4316.957141534006" r="5" fill="blue" stroke="none" /><circle cx="1078.5968616757768" cy="4262.293387940971" r="5" fill="blue" stroke="none" /><circle cx="1053.5679080937725" cy="4329.063969534923" r="5" fill="blue" stroke="none" /><circle cx="1064.0313976422492" cy="4294.9772151394445" r="5" fill="blue" stroke="none" /><circle cx="995.3584683849821" cy="4318.539166540326" r="5" fill="blue" stroke="none" /><circle cx="904.4556777043437" cy="4324.056469332352" r="5" fill="blue" stroke="none" /><circle cx="1088" cy="4154.067022649649" r="5" fill="blue" stroke="none" /><circle cx="660.7877586279762" cy="4335.6510451643435" r="5" fill="blue" stroke="none" /><circle cx="1069.5828641363855" cy="4255.855650803135" r="5" fill="blue" stroke="none" /><circle cx="901.5265166845918" cy="4339.458010140017" r="5" fill="blue" stroke="none" /><circle cx="663.7589301559888" cy="4043.5948328488084" r="5" fill="blue" stroke="none" /><circle cx="678.7846365489607" cy="4328.312313383908" r="5" fill="blue" stroke="none" /><circle cx="998.9555138487005" cy="4342.471118321151" r="5" fill="blue" stroke="none" /><circle cx="821.7589912961528" cy="4316.674878760292" r="5" fill="blue" stroke="none" /><circle cx="660.5426044984854" cy="4311.556550047752" r="5" fill="blue" stroke="none" /><circle cx="796.1662657878097" cy="4345" r="5" fill="blue" stroke="none" /><circle cx="1053.3826228917553" cy="4280.2732460343705" r="5" fill="blue" stroke="none" /><circle cx="661.3441244394852" cy="4290.697198109088" r="5" fill="blue" stroke="none" /><circle cx="832.8401745914703" cy="3962" r="5" fill="blue" stroke="none" /><circle cx="911.9861797670665" cy="4317.4659537770285" r="5" fill="blue" stroke="none" /><circle cx="1082.2798181197234" cy="4183.841829310011" r="5" fill="blue" stroke="none" /><circle cx="807.279000397832" cy="4329.0115561511975" r="5" fill="blue" stroke="none" /><circle cx="770.7011648831013" cy="3962.2066565116884" r="5" fill="blue" stroke="none" /><circle cx="913.8869222226242" cy="4289.009454761818" r="5" fill="blue" stroke="none" /><circle cx="786.786869501246" cy="4317.136158750334" r="5" fill="blue" stroke="none" /><circle cx="927.6512496261004" cy="4322.289640707982" r="5" fill="blue" stroke="none" /><circle cx="707.4886565549582" cy="4335.1304466504425" r="5" fill="blue" stroke="none" /><circle cx="1056.4515898352595" cy="4301.5268159196075" r="5" fill="blue" stroke="none" /><circle cx="662.8379550929247" cy="4322.083783756629" r="5" fill="blue" stroke="none" /><circle cx="809.9883974522074" cy="4301.962944153278" r="5" fill="blue" stroke="none" /><circle cx="794.8189118585175" cy="4326.873774643811" r="5" fill="blue" stroke="none" /><circle cx="945.2568658689012" cy="3976.9991601399106" r="5" fill="blue" stroke="none" /><circle cx="890.6790323864782" cy="4322.724108046429" r="5" fill="blue" stroke="none" /><circle cx="654.8285512220182" cy="3990.134900327682" r="5" fill="blue" stroke="none" /><circle cx="672.4352940539586" cy="4336.060987776436" r="5" fill="blue" stroke="none" /><circle cx="700.6189153312639" cy="4308.629337564679" r="5" fill="blue" stroke="none" /><circle cx="723.687256966454" cy="4078.021427356689" r="5" fill="blue" stroke="none" /><circle cx="1088" cy="4329.41714895561" r="5" fill="blue" stroke="none" /><circle cx="740.3881771935594" cy="4321.034573767129" r="5" fill="blue" stroke="none" /><circle cx="710.377646263457" cy="3975.567909317692" r="5" fill="blue" stroke="none" /><circle cx="974.826149913411" cy="3985.7114773585304" r="5" fill="blue" stroke="none" /><circle cx="1009.6477188487193" cy="4326.046399975165" r="5" fill="blue" stroke="none" /><circle cx="1088" cy="4209.8727797699785" r="5" fill="blue" stroke="none" /><circle cx="846.052127000881" cy="4344.356248505695" r="5" fill="blue" stroke="none" /><circle cx="678.7323787890775" cy="3962" r="5" fill="blue" stroke="none" /><circle cx="902.0764402266731" cy="4300.505166419521" r="5" fill="blue" stroke="none" /><circle cx="1001.4792538576869" cy="3962" r="5" fill="blue" stroke="none" /><circle cx="690.852266593284" cy="3981.3491737648224" r="5" fill="blue" stroke="none" /><circle cx="720.4212986051477" cy="4322.115919687092" r="5" fill="blue" stroke="none" /><circle cx="806.6678553608715" cy="4319.0296545043575" r="5" fill="blue" stroke="none" /><circle cx="752.2174521419187" cy="4345" r="5" fill="blue" stroke="none" /><circle cx="966.6513211663937" cy="4334.61275023922" r="5" fill="blue" stroke="none" /><circle cx="662.218914448395" cy="4016.986287102338" r="5" fill="blue" stroke="none" /><circle cx="776.1658957327871" cy="4345" r="5" fill="blue" stroke="none" /><circle cx="1088" cy="4174.974722693046" r="5" fill="blue" stroke="none" /><circle cx="909.855874189227" cy="4345" r="5" fill="blue" stroke="none" /><circle cx="655.5177926870867" cy="4008.079117801468" r="5" fill="blue" stroke="none" /><circle cx="1026.6050134682014" cy="4336.211699645891" r="5" fill="blue" stroke="none" /><circle cx="1041.6364612718708" cy="4345" r="5" fill="blue" stroke="none" /><circle cx="1065.8698197303931" cy="4226.05039601403" r="5" fill="blue" stroke="none" /><circle cx="771.5384761137618" cy="3972.200967779955" r="5" fill="blue" stroke="none" /><circle cx="766.0323504721392" cy="4345" r="5" fill="blue" stroke="none" /><circle cx="825.1956969805098" cy="4335.799256379512" r="5" fill="blue" stroke="none" /><circle cx="1072.178611318892" cy="4284.615985522459" r="5" fill="blue" stroke="none" /><circle cx="656.0143515295318" cy="3962.5923174333225" r="5" fill="blue" stroke="none" /><circle cx="1051.637171411933" cy="4345" r="5" fill="blue" stroke="none" /><circle cx="647.013913723646" cy="3980.402023910636" r="5" fill="blue" stroke="none" /><circle cx="813.5980688012087" cy="3971.823178401791" r="5" fill="blue" stroke="none" /><circle cx="674.078188118397" cy="4055.172352037512" r="5" fill="blue" stroke="none" /><circle cx="964.5886516465647" cy="4324.79154789788" r="5" fill="blue" stroke="none" /><circle cx="709.0989946131647" cy="4345" r="5" fill="blue" stroke="none" /><circle cx="896.8757028903785" cy="4330.594880867186" r="5" fill="blue" stroke="none" /><circle cx="945.3486700027274" cy="3966.9580678987913" r="5" fill="blue" stroke="none" /><circle cx="646" cy="3994.9030650641967" r="5" fill="blue" stroke="none" /><circle cx="646" cy="3962" r="5" fill="blue" stroke="none" /><circle cx="1049.7888299860651" cy="4310.105894751407" r="5" fill="blue" stroke="none" /><circle cx="831.7908826268986" cy="4316.735767419908" r="5" fill="blue" stroke="none" /><circle cx="891.4607997330547" cy="4339.0412017873605" r="5" fill="blue" stroke="none" /><circle cx="903.6067988314808" cy="3972.191812517298" r="5" fill="blue" stroke="none" /><circle cx="967.4796446308699" cy="3978.7022892198765" r="5" fill="blue" stroke="none" /><circle cx="1088" cy="4307.77340212169" r="5" fill="blue" stroke="none" /><circle cx="1067.9900327493472" cy="3964.321991127758" r="5" fill="blue" stroke="none" /><circle cx="1069.7310827812173" cy="4200.6307369809" r="5" fill="blue" stroke="none" /><circle cx="926.8762482672512" cy="4342.692965614829" r="5" fill="blue" stroke="none" /><circle cx="1074.0263260385143" cy="4294.4637556425005" r="5" fill="blue" stroke="none" /><circle cx="905.336499503307" cy="4309.994689108069" r="5" fill="blue" stroke="none" /><circle cx="917.6386282524738" cy="4338.6929694943165" r="5" fill="blue" stroke="none" /><circle cx="718.7302102962282" cy="4342.183704735693" r="5" fill="blue" stroke="none" /><circle cx="748.4875814179657" cy="3972.562601411157" r="5" fill="blue" stroke="none" /><circle cx="1021.7950831737736" cy="4300.098815963311" r="5" fill="blue" stroke="none" /><circle cx="695.6194847824165" cy="4020.2662565130213" r="5" fill="blue" stroke="none" /><circle cx="811.6400399566627" cy="3962" r="5" fill="blue" stroke="none" /><circle cx="661.1581227789943" cy="3971.1967605788846" r="5" fill="blue" stroke="none" /><circle cx="841.6853224948691" cy="4318.249938757008" r="5" fill="blue" stroke="none" /><circle cx="1067.3611417349484" cy="4275.814177240108" r="5" fill="blue" stroke="none" /><circle cx="955.131570420427" cy="3971.9686729730493" r="5" fill="blue" stroke="none" /><circle cx="817.1000914799755" cy="4345" r="5" fill="blue" stroke="none" /><circle cx="936.4934560964019" cy="4339.301042368567" r="5" fill="blue" stroke="none" /><circle cx="657.2361775061777" cy="4345" r="5" fill="blue" stroke="none" /><circle cx="680.8080355154797" cy="4303.705945072694" r="5" fill="blue" stroke="none" /><circle cx="739.7285861905713" cy="4342.197222890675" r="5" fill="blue" stroke="none" /><circle cx="754.588230961991" cy="4327.039420995186" r="5" fill="blue" stroke="none" /><circle cx="1009.5239347672532" cy="4299.579532810003" r="5" fill="blue" stroke="none" /><circle cx="1031.7552386516866" cy="4301.02997515531" r="5" fill="blue" stroke="none" /><circle cx="906.7390429116766" cy="3962" r="5" fill="blue" stroke="none" /><circle cx="670.3417514497228" cy="3975.1679887378323" r="5" fill="blue" stroke="none" /><circle cx="916.8431366423041" cy="4326.475708891137" r="5" fill="blue" stroke="none" /><circle cx="977.3938543589097" cy="4329.917689872175" r="5" fill="blue" stroke="none" /><circle cx="646.1522940656059" cy="4287.277949008869" r="5" fill="blue" stroke="none" /><circle cx="676.0978119955482" cy="4073.5921626654813" r="5" fill="blue" stroke="none" /><circle cx="986.7962499290393" cy="3978.6737503095383" r="5" fill="blue" stroke="none" /><circle cx="1088" cy="4295.752692603103" r="5" fill="blue" stroke="none" /><circle cx="914.2156741158415" cy="4303.136089371549" r="5" fill="blue" stroke="none" /><circle cx="822.007477633127" cy="4306.665217414064" r="5" fill="blue" stroke="none" /><circle cx="648.1198123985316" cy="4335.094902435857" r="5" fill="blue" stroke="none" /><circle cx="789.7079189528981" cy="4335.645605401519" r="5" fill="blue" stroke="none" /><circle cx="1077.0917657788027" cy="4171.828414971958" r="5" fill="blue" stroke="none" /><circle cx="697.1419025600294" cy="3962" r="5" fill="blue" stroke="none" /><circle cx="738.353091600271" cy="3980.7972721421743" r="5" fill="blue" stroke="none" /><circle cx="654.2042922582458" cy="4327.141709303303" r="5" fill="blue" stroke="none" /><circle cx="931.2510767555179" cy="4311.699524456563" r="5" fill="blue" stroke="none" /><circle cx="1085.7489467686648" cy="4165.030777989819" r="5" fill="blue" stroke="none" /><circle cx="878.8910473376135" cy="3964.687031130001" r="5" fill="blue" stroke="none" /><circle cx="780.6682845540637" cy="3964.526197340475" r="5" fill="blue" stroke="none" /><circle cx="1031.6361156827063" cy="4345" r="5" fill="blue" stroke="none" /><circle cx="1040.5611251968905" cy="4306.1718416045405" r="5" fill="blue" stroke="none" /><circle cx="647.0352808280694" cy="4307.220907317807" r="5" fill="blue" stroke="none" /><circle cx="650.8198746985875" cy="3971.145182855588" r="5" fill="blue" stroke="none" /><circle cx="659.7242889185346" cy="4300.572214907037" r="5" fill="blue" stroke="none" /><circle cx="1078.313752479023" cy="4250.973629221819" r="5" fill="blue" stroke="none" /><circle cx="1058.561649921315" cy="4337.76368992582" r="5" fill="blue" stroke="none" /><circle cx="889.6507051176899" cy="4304.477545946319" r="5" fill="blue" stroke="none" /><circle cx="1081.6566610551663" cy="4287.985622377628" r="5" fill="blue" stroke="none" /><circle cx="669.9693966921174" cy="4300.564989088643" r="5" fill="blue" stroke="none" /><circle cx="646" cy="4021.565230199349" r="5" fill="blue" stroke="none" /><circle cx="796.8266192045942" cy="4317.07500090565" r="5" fill="blue" stroke="none" /><circle cx="835.355926994421" cy="4337.182532030122" r="5" fill="blue" stroke="none" /><circle cx="991.467526535792" cy="3962" r="5" fill="blue" stroke="none" /><circle cx="1088" cy="4248.487238867384" r="5" fill="blue" stroke="none" /><circle cx="664.8613566762081" cy="3990.324278645969" r="5" fill="blue" stroke="none" /><circle cx="695.2372136602145" cy="3972.168511245389" r="5" fill="blue" stroke="none" /><circle cx="682.6786674915229" cy="4066.061105169827" r="5" fill="blue" stroke="none" /><circle cx="730.8970129967418" cy="4335.022706946667" r="5" fill="blue" stroke="none" /><circle cx="1031.8151665627988" cy="4311.078601350427" r="5" fill="blue" stroke="none" /><circle cx="1006.0676898712544" cy="4335.415954929338" r="5" fill="blue" stroke="none" /><circle cx="836.5712812314991" cy="4327.204754768731" r="5" fill="blue" stroke="none" /><circle cx="1025.4589126154622" cy="3979.7508122242953" r="5" fill="blue" stroke="none" /><circle cx="690.8898184441789" cy="4326.156959252023" r="5" fill="blue" stroke="none" /><circle cx="700.1454508828801" cy="4294.882999559392" r="5" fill="blue" stroke="none" /><circle cx="680.1298324236751" cy="3972.5852942260485" r="5" fill="blue" stroke="none" /><circle cx="974.6236203694211" cy="3962" r="5" fill="blue" stroke="none" /><circle cx="1062.1282725773442" cy="4285.144788331368" r="5" fill="blue" stroke="none" /><circle cx="695.545051271455" cy="4317.286812782295" r="5" fill="blue" stroke="none" /><circle cx="700.8059096824815" cy="4327.652093346057" r="5" fill="blue" stroke="none" /><circle cx="1022.194108991416" cy="3962" r="5" fill="blue" stroke="none" /><circle cx="955.6938850516741" cy="4309.976577580324" r="5" fill="blue" stroke="none" /><circle cx="1087.6031952566082" cy="4221.72747343757" r="5" fill="blue" stroke="none" /><circle cx="999.737396018806" cy="4327.657901788098" r="5" fill="blue" stroke="none" /><circle cx="1088" cy="4269.132199830397" r="5" fill="blue" stroke="none" /><circle cx="720.1007215328045" cy="3983.8663962234023" r="5" fill="blue" stroke="none" /><circle cx="1011.8417844762364" cy="4309.307717990651" r="5" fill="blue" stroke="none" /><circle cx="786.1661089908998" cy="4345" r="5" fill="blue" stroke="none" /><circle cx="804.9675503224819" cy="4293.27074702857" r="5" fill="blue" stroke="none" /><circle cx="945.6196042742588" cy="4314.009175469282" r="5" fill="blue" stroke="none" /><circle cx="784.7463080124311" cy="4326.949814733889" r="5" fill="blue" stroke="none" /><circle cx="697.5805339465365" cy="4345" r="5" fill="blue" stroke="none" /><circle cx="826.628609492438" cy="4325.879511981481" r="5" fill="blue" stroke="none" /><circle cx="1038.2421170478372" cy="4293.408943434273" r="5" fill="blue" stroke="none" /><circle cx="1088" cy="4339.427176922654" r="5" fill="blue" stroke="none" /><circle cx="977.5404213241764" cy="4339.952673298361" r="5" fill="blue" stroke="none" /><circle cx="779.6928305411489" cy="4335.600807417539" r="5" fill="blue" stroke="none" /><circle cx="793.7185489074615" cy="3962" r="5" fill="blue" stroke="none" /><circle cx="866.5568204524525" cy="4335.289455504455" r="5" fill="blue" stroke="none" /><circle cx="711.1103132025313" cy="4325.807826505039" r="5" fill="blue" stroke="none" /><circle cx="670.8320712125782" cy="4035.5546721115757" r="5" fill="blue" stroke="none" /><circle cx="887.4541576957297" cy="3971.7019038219423" r="5" fill="blue" stroke="none" /><circle cx="879.6673198521906" cy="4303.174831828079" r="5" fill="blue" stroke="none" /><circle cx="646.5121148192585" cy="4345" r="5" fill="blue" stroke="none" /><circle cx="1023.014756238162" cy="3989.4663540337287" r="5" fill="blue" stroke="none" /><circle cx="924.1803349704734" cy="4304.145819414774" r="5" fill="blue" stroke="none" /><circle cx="1078.3256693142007" cy="3964.344163675174" r="5" fill="blue" stroke="none" /><circle cx="683.8512211207652" cy="4336.956677966054" r="5" fill="blue" stroke="none" /><circle cx="925.1930359448772" cy="4332.066500439835" r="5" fill="blue" stroke="none" /><circle cx="1036.629094581924" cy="4336.325785831201" r="5" fill="blue" stroke="none" /><circle cx="1007.8554020636534" cy="3971.2440232106883" r="5" fill="blue" stroke="none" /><circle cx="688.1232184223473" cy="4310.527204511348" r="5" fill="blue" stroke="none" /><circle cx="748.3692433139811" cy="3982.5647063537153" r="5" fill="blue" stroke="none" /><circle cx="721.5616004254949" cy="3973.9640600076073" r="5" fill="blue" stroke="none" /><circle cx="1079.2572417914164" cy="4314.523970398373" r="5" fill="blue" stroke="none" /><circle cx="714.9443749781396" cy="4313.744974347463" r="5" fill="blue" stroke="none" /><circle cx="822.0817189377536" cy="3962.009502361298" r="5" fill="blue" stroke="none" /><circle cx="749.1490853599051" cy="4335.448802763694" r="5" fill="blue" stroke="none" /><circle cx="1026.0802303720027" cy="4319.278110647706" r="5" fill="blue" stroke="none" /><circle cx="1049.0526179419505" cy="4320.104565680708" r="5" fill="blue" stroke="none" /><circle cx="690.7263017265882" cy="4051.83226716232" r="5" fill="blue" stroke="none" /><circle cx="1046.9289892695615" cy="4298.448464658601" r="5" fill="blue" stroke="none" /><circle cx="667.8625914710943" cy="4345" r="5" fill="blue" stroke="none" /><circle cx="1008.9617430707145" cy="4345" r="5" fill="blue" stroke="none" /><circle cx="988.4893326260166" cy="4345" r="5" fill="blue" stroke="none" /><circle cx="1088" cy="4192.054010826871" r="5" fill="blue" stroke="none" /><circle cx="1079.118372439208" cy="4334.764065787628" r="5" fill="blue" stroke="none" /><circle cx="761.7695404220023" cy="3969.9905252053845" r="5" fill="blue" stroke="none" /><circle cx="921.498265686861" cy="4314.2730837703175" r="5" fill="blue" stroke="none" /><circle cx="1011.6906650236883" cy="3962" r="5" fill="blue" stroke="none" /><circle cx="966.5356489011389" cy="4311.3763007734005" r="5" fill="blue" stroke="none" /><circle cx="885.1921447398039" cy="4331.24901810267" r="5" fill="blue" stroke="none" /><circle cx="842.8410982808263" cy="3962" r="5" fill="blue" stroke="none" /><circle cx="655.558458161978" cy="4024.7686481746605" r="5" fill="blue" stroke="none" /><circle cx="691.7021938351459" cy="4301.18340086723" r="5" fill="blue" stroke="none" /><circle cx="1036.5464085936687" cy="3980.79009344865" r="5" fill="blue" stroke="none" /><circle cx="1031.7820226886113" cy="4327.546591259068" r="5" fill="blue" stroke="none" /><circle cx="1032.0908665955342" cy="3971.8146399676525" r="5" fill="blue" stroke="none" /><circle cx="992.3922591174667" cy="4334.531218104342" r="5" fill="blue" stroke="none" /><circle cx="1086.3220588744903" cy="4140.389060904153" r="5" fill="blue" stroke="none" /><circle cx="1079.6573842410764" cy="4239.549066078696" r="5" fill="blue" stroke="none" /><circle cx="694.4705314940965" cy="4335.494639978201" r="5" fill="blue" stroke="none" /><circle cx="967.1778186140391" cy="3968.6810687645784" r="5" fill="blue" stroke="none" /><circle cx="938.1453693106254" cy="4304.37578301325" r="5" fill="blue" stroke="none" /><circle cx="1069.1274931867208" cy="4334.208784407499" r="5" fill="blue" stroke="none" /><circle cx="718.9165145034774" cy="4332.090877355751" r="5" fill="blue" stroke="none" /><circle cx="1059.6287694794012" cy="4321.073419769656" r="5" fill="blue" stroke="none" /><circle cx="1072.391048733549" cy="3973.33272348738" r="5" fill="blue" stroke="none" /><circle cx="1021.6201002656247" cy="4344.880751265031" r="5" fill="blue" stroke="none" /><circle cx="909.2716758856227" cy="4333.120372902177" r="5" fill="blue" stroke="none" /><circle cx="1088" cy="4319.415228387377" r="5" fill="blue" stroke="none" /><circle cx="761.633069413993" cy="4308.51637743983" r="5" fill="blue" stroke="none" /><circle cx="1058.237017995088" cy="3962" r="5" fill="blue" stroke="none" /><circle cx="672.7556693715181" cy="4320.329234136135" r="5" fill="blue" stroke="none" /><circle cx="914.4540120605742" cy="3968.435500525287" r="5" fill="blue" stroke="none" /><circle cx="832.1550582206362" cy="4306.590363840706" r="5" fill="blue" stroke="none" /><circle cx="977.0856669343423" cy="3975.919835225695" r="5" fill="blue" stroke="none" /><circle cx="868.9686977517949" cy="4325.551430815107" r="5" fill="blue" stroke="none" /><circle cx="1059.7700596681557" cy="4310.964607147018" r="5" fill="blue" stroke="none" /><circle cx="952.1496731454272" cy="4344.666960649348" r="5" fill="blue" stroke="none" /><circle cx="1011.7541457317367" cy="3980.4539799645827" r="5" fill="blue" stroke="none" /><circle cx="937.3014202788482" cy="4319.66266197322" r="5" fill="blue" stroke="none" /><circle cx="1066.5132632208567" cy="4343.877001412478" r="5" fill="blue" stroke="none" /><circle cx="816.6207540562632" cy="4325.25578930189" r="5" fill="blue" stroke="none" /><circle cx="953.7679569762083" cy="4319.817678292361" r="5" fill="blue" stroke="none" /><circle cx="799.709198226954" cy="4335.624081164502" r="5" fill="blue" stroke="none" /><circle cx="1021.0231996259798" cy="4327.912811189158" r="5" fill="blue" stroke="none" /><circle cx="1045.8720422119002" cy="3962" r="5" fill="blue" stroke="none" /><circle cx="924.1384442247814" cy="3965.311686451375" r="5" fill="blue" stroke="none" /><circle cx="748.187712536496" cy="3962.064286500696" r="5" fill="blue" stroke="none" /><circle cx="774.6754414702984" cy="4326.94471806057" r="5" fill="blue" stroke="none" /><circle cx="657.1048449342411" cy="3980.364463703199" r="5" fill="blue" stroke="none" /><circle cx="996.5833061013906" cy="3980.7952913074214" r="5" fill="blue" stroke="none" /><circle cx="781.7290409323798" cy="4308.459816770205" r="5" fill="blue" stroke="none" /><circle cx="1015.4178614646801" cy="4138.812203561399" r="5" fill="blue" stroke="none" /><circle cx="798.2634933490996" cy="4300.781576990709" r="5" fill="blue" stroke="none" /><circle cx="730.0136018538207" cy="4325.046820867931" r="5" fill="blue" stroke="none" /><circle cx="1074.0922856004042" cy="4220.264014656538" r="5" fill="blue" stroke="none" /><circle cx="1045.3271474214107" cy="3971.9854274444515" r="5" fill="blue" stroke="none" /><circle cx="874.9458410021406" cy="4313.202448661398" r="5" fill="blue" stroke="none" /><circle cx="771.6372618017277" cy="4308.473803611788" r="5" fill="blue" stroke="none" /><circle cx="1078.948518702754" cy="4196.3105601600755" r="5" fill="blue" stroke="none" /><circle cx="1078.0033445578624" cy="4209.578034185246" r="5" fill="blue" stroke="none" /><circle cx="666.90555346408" cy="4062.173541460954" r="5" fill="blue" stroke="none" /><circle cx="1078.5548636012431" cy="4304.445669022183" r="5" fill="blue" stroke="none" /><circle cx="878.7756678249011" cy="4323.576267353956" r="5" fill="blue" stroke="none" /><circle cx="710.6536546732665" cy="4304.49168124278" r="5" fill="blue" stroke="none" /><circle cx="660.1794665158181" cy="3999.225007147795" r="5" fill="blue" stroke="none" /><circle cx="650.7490640757351" cy="4268.059241621609" r="5" fill="blue" stroke="none" /><circle cx="1069.1837080891457" cy="4324.174979802486" r="5" fill="blue" stroke="none" /></svg>