<svg viewBox="0 0 2159 1047" xmlns="http://www.w3.org/2000/svg"><rect x="0" y="0" width="2159" height="1047" fill="lightyellow" stroke="none "/><rect x="990" y="101" width="275" height="334" fill="white" stroke="black "/><circle cx="44" cy="429" r="5" fill="green" stroke="none" /><circle cx="1911" cy="735" r="5" fill="green" stroke="none" /><circle cx="189" cy="231" r="5" fill="green" stroke="none" /><circle cx="212" cy="737" r="5" fill="green" stroke="none" /><circle cx="640" cy="629" r="5" fill="green" stroke="none" /><circle cx="208" cy="751" r="5" fill="green" stroke="none" /><circle cx="332" cy="284" r="5" fill="green" stroke="none" /><circle cx="930" cy="535" r="5" fill="green" stroke="none" /><circle cx="1994" cy="805" r="5" fill="green" stroke="none" /><circle cx="1101" cy="805" r="5" fill="green" stroke="none" /><circle cx="1945" cy="143" r="5" fill="green" stroke="none" /><circle cx="1481" cy="768" r="5" fill="green" stroke="none" /><circle cx="1587" cy="860" r="5" fill="green" stroke="none" /><circle cx="994" cy="692" r="5" fill="green" stroke="none" /><circle cx="457" cy="665" r="5" fill="green" stroke="none" /><circle cx="2076" cy="649" r="5" fill="green" stroke="none" /><circle cx="703" cy="1009" r="5" fill="green" stroke="none" /><circle cx="1393" cy="380" r="5" fill="green" stroke="none" /><circle cx="91" cy="478" r="5" fill="green" stroke="none" /><circle cx="319" cy="753" r="5" fill="green" stroke="none" /><circle cx="262" cy="388" r="5" fill="green" stroke="none" /><circle cx="1912" cy="474" r="5" fill="green" stroke="none" /><circle cx="1687" cy="88" r="5" fill="green" stroke="none" /><circle cx="563" cy="162" r="5" fill="green" stroke="none" /><circle cx="1003" cy="18" r="5" fill="green" stroke="none" /><circle cx="1239" cy="577" r="5" fill="green" stroke="none" /><circle cx="986" cy="784" r="5" fill="green" stroke="none" /><circle cx="1884" cy="471" r="5" fill="green" stroke="none" /><circle cx="1685" cy="162" r="5" fill="green" stroke="none" /><circle cx="1563" cy="280" r="5" fill="green" stroke="none" /><circle cx="1491" cy="759" r="5" fill="green" stroke="none" /><circle cx="1899" cy="497" r="5" fill="green" stroke="none" /><circle cx="533" cy="321" r="5" fill="green" stroke="none" /><circle cx="232" cy="602" r="5" fill="green" stroke="none" /><circle cx="351" cy="607" r="5" fill="green" stroke="none" /><circle cx="389" cy="713" r="5" fill="green" stroke="none" /><circle cx="714" cy="912" r="5" fill="green" stroke="none" /><circle cx="312" cy="74" r="5" fill="green" stroke="none" /><circle cx="865" cy="1008" r="5" fill="green" stroke="none" /><circle cx="794" cy="994" r="5" fill="green" stroke="none" /><circle cx="281" cy="507" r="5" fill="green" stroke="none" /><circle cx="34" cy="398" r="5" fill="green" stroke="none" /><circle cx="889" cy="851" r="5" fill="green" stroke="none" /><circle cx="555" cy="115" r="5" fill="green" stroke="none" /><circle cx="1270" cy="590" r="5" fill="green" stroke="none" /><circle cx="607" cy="745" r="5" fill="green" stroke="none" /><circle cx="123" cy="775" r="5" fill="green" stroke="none" /><circle cx="1288" cy="740" r="5" fill="green" stroke="none" /><circle cx="14" cy="342" r="5" fill="green" stroke="none" /><circle cx="843" cy="855" r="5" fill="green" stroke="none" /><circle cx="1640" cy="310" r="5" fill="green" stroke="none" /><circle cx="2104" cy="469" r="5" fill="green" stroke="none" /><circle cx="426" cy="705" r="5" fill="green" stroke="none" /><circle cx="1781" cy="885" r="5" fill="green" stroke="none" /><circle cx="335" cy="335" r="5" fill="green" stroke="none" /><circle cx="545" cy="1018" r="5" fill="green" stroke="none" /><circle cx="1954" cy="6" r="5" fill="green" stroke="none" /><circle cx="500" cy="308" r="5" fill="green" stroke="none" /><circle cx="2023" cy="354" r="5" fill="green" stroke="none" /><circle cx="2122" cy="860" r="5" fill="green" stroke="none" /><circle cx="492" cy="42" r="5" fill="green" stroke="none" /><circle cx="1945" cy="544" r="5" fill="green" stroke="none" /><circle cx="1019" cy="465" r="5" fill="green" stroke="none" /><circle cx="764" cy="1032" r="5" fill="green" stroke="none" /><circle cx="560" cy="534" r="5" fill="green" stroke="none" /><circle cx="1289" cy="535" r="5" fill="green" stroke="none" /><circle cx="656" cy="416" r="5" fill="green" stroke="none" /><circle cx="2087" cy="84" r="5" fill="green" stroke="none" /><circle cx="1943" cy="643" r="5" fill="green" stroke="none" /><circle cx="1145" cy="566" r="5" fill="green" stroke="none" /><circle cx="1644" cy="320" r="5" fill="green" stroke="none" /><circle cx="307" cy="583" r="5" fill="green" stroke="none" /><circle cx="1733" cy="574" r="5" fill="green" stroke="none" /><circle cx="1440" cy="18" r="5" fill="green" stroke="none" /><circle cx="1400" cy="397" r="5" fill="green" stroke="none" /><circle cx="735" cy="233" r="5" fill="green" stroke="none" /><circle cx="1314" cy="909" r="5" fill="green" stroke="none" /><circle cx="451" cy="775" r="5" fill="green" stroke="none" /><circle cx="1172" cy="807" r="5" fill="green" stroke="none" /><circle cx="482" cy="965" r="5" fill="green" stroke="none" /><circle cx="922" cy="941" r="5" fill="green" stroke="none" /><circle cx="1573" cy="217" r="5" fill="green" stroke="none" /><circle cx="1072" cy="855" r="5" fill="green" stroke="none" /><circle cx="1393" cy="858" r="5" fill="green" stroke="none" /><circle cx="1305" cy="876" r="5" fill="green" stroke="none" /><circle cx="430" cy="967" r="5" fill="green" stroke="none" /><circle cx="1635" cy="369" r="5" fill="green" stroke="none" /><circle cx="519" cy="519" r="5" fill="green" stroke="none" /><circle cx="477" cy="561" r="5" fill="green" stroke="none" /><circle cx="1574" cy="397" r="5" fill="green" stroke="none" /><circle cx="1569" cy="170" r="5" fill="green" stroke="none" /><circle cx="380" cy="872" r="5" fill="green" stroke="none" /><circle cx="1381" cy="967" r="5" fill="green" stroke="none" /><circle cx="455" cy="121" r="5" fill="green" stroke="none" /><circle cx="53" cy="833" r="5" fill="green" stroke="none" /><circle cx="887" cy="827" r="5" fill="green" stroke="none" /><circle cx="645" cy="483" r="5" fill="green" stroke="none" /><circle cx="1430" cy="237" r="5" fill="green" stroke="none" /><circle cx="1435" cy="176" r="5" fill="green" stroke="none" /><circle cx="80" cy="187" r="5" fill="green" stroke="none" /><circle cx="1658" cy="290" r="5" fill="green" stroke="none" /><circle cx="806" cy="991" r="5" fill="green" stroke="none" /><circle cx="985" cy="944" r="5" fill="green" stroke="none" /><circle cx="1350" cy="77" r="5" fill="green" stroke="none" /><circle cx="856" cy="558" r="5" fill="green" stroke="none" /><circle cx="122" cy="208" r="5" fill="green" stroke="none" /><circle cx="578" cy="482" r="5" fill="green" stroke="none" /><circle cx="440" cy="467" r="5" fill="green" stroke="none" /><circle cx="1559" cy="17" r="5" fill="green" stroke="none" /><circle cx="1755" cy="307" r="5" fill="green" stroke="none" /><circle cx="1978" cy="530" r="5" fill="green" stroke="none" /><circle cx="963" cy="278" r="5" fill="green" stroke="none" /><circle cx="516" cy="72" r="5" fill="green" stroke="none" /><circle cx="1929" cy="980" r="5" fill="green" stroke="none" /><circle cx="1784" cy="491" r="5" fill="green" stroke="none" /><circle cx="1468" cy="630" r="5" fill="green" stroke="none" /><circle cx="2079" cy="392" r="5" fill="green" stroke="none" /><circle cx="1725" cy="492" r="5" fill="green" stroke="none" /><circle cx="300" cy="460" r="5" fill="green" stroke="none" /><circle cx="1194" cy="696" r="5" fill="green" stroke="none" /><circle cx="1576" cy="791" r="5" fill="green" stroke="none" /><circle cx="1138" cy="524" r="5" fill="green" stroke="none" /><circle cx="101" cy="327" r="5" fill="green" stroke="none" /><circle cx="893" cy="903" r="5" fill="green" stroke="none" /><circle cx="2132" cy="752" r="5" fill="green" stroke="none" /><circle cx="1656" cy="647" r="5" fill="green" stroke="none" /><circle cx="152" cy="104" r="5" fill="green" stroke="none" /><circle cx="814" cy="526" r="5" fill="green" stroke="none" /><circle cx="755" cy="962" r="5" fill="green" stroke="none" /><circle cx="777" cy="989" r="5" fill="green" stroke="none" /><circle cx="598" cy="22" r="5" fill="green" stroke="none" /><circle cx="1653" cy="276" r="5" fill="green" stroke="none" /><circle cx="1335" cy="881" r="5" fill="green" stroke="none" /><circle cx="1782" cy="858" r="5" fill="green" stroke="none" /><circle cx="688" cy="967" r="5" fill="green" stroke="none" /><circle cx="1927" cy="546" r="5" fill="green" stroke="none" /><circle cx="1313" cy="399" r="5" fill="green" stroke="none" /><circle cx="1664" cy="944" r="5" fill="green" stroke="none" /><circle cx="671" cy="85" r="5" fill="green" stroke="none" /><circle cx="1453" cy="406" r="5" fill="green" stroke="none" /><circle cx="594" cy="617" r="5" fill="green" stroke="none" /><circle cx="524" cy="226" r="5" fill="green" stroke="none" /><circle cx="1381" cy="771" r="5" fill="green" stroke="none" /><circle cx="481" cy="222" r="5" fill="green" stroke="none" /><circle cx="1002" cy="1028" r="5" fill="green" stroke="none" /><circle cx="1297" cy="204" r="5" fill="green" stroke="none" /><circle cx="1595" cy="244" r="5" fill="green" stroke="none" /><circle cx="1368" cy="172" r="5" fill="green" stroke="none" /><circle cx="946" cy="271" r="5" fill="green" stroke="none" /><circle cx="728" cy="809" r="5" fill="green" stroke="none" /><circle cx="1598" cy="256" r="5" fill="green" stroke="none" /><circle cx="1976" cy="91" r="5" fill="green" stroke="none" /><circle cx="1383" cy="28" r="5" fill="green" stroke="none" /><circle cx="40" cy="1023" r="5" fill="green" stroke="none" /><circle cx="510" cy="77" r="5" fill="green" stroke="none" /><circle cx="1013" cy="697" r="5" fill="green" stroke="none" /><circle cx="1909" cy="662" r="5" fill="green" stroke="none" /><circle cx="1493" cy="897" r="5" fill="green" stroke="none" /><circle cx="2107" cy="767" r="5" fill="green" stroke="none" /><circle cx="1210" cy="922" r="5" fill="green" stroke="none" /><circle cx="2013" cy="81" r="5" fill="green" stroke="none" /><circle cx="1528" cy="560" r="5" fill="green" stroke="none" /><circle cx="576" cy="119" r="5" fill="green" stroke="none" /><circle cx="1623" cy="985" r="5" fill="green" stroke="none" /><circle cx="656" cy="91" r="5" fill="green" stroke="none" /><circle cx="2039" cy="183" r="5" fill="green" stroke="none" /><circle cx="2035" cy="118" r="5" fill="green" stroke="none" /><circle cx="972" cy="464" r="5" fill="green" stroke="none" /><circle cx="2014" cy="602" r="5" fill="green" stroke="none" /><circle cx="187" cy="840" r="5" fill="green" stroke="none" /><circle cx="39" cy="954" r="5" fill="green" stroke="none" /><circle cx="98" cy="352" r="5" fill="green" stroke="none" /><circle cx="1701" cy="866" r="5" fill="green" stroke="none" /><circle cx="266" cy="121" r="5" fill="green" stroke="none" /><circle cx="1639" cy="84" r="5" fill="green" stroke="none" /><circle cx="33" cy="650" r="5" fill="green" stroke="none" /><circle cx="611" cy="397" r="5" fill="green" stroke="none" /><circle cx="1783" cy="105" r="5" fill="green" stroke="none" /><circle cx="1907" cy="63" r="5" fill="green" stroke="none" /><circle cx="2135" cy="191" r="5" fill="green" stroke="none" /><circle cx="1901" cy="386" r="5" fill="green" stroke="none" /><circle cx="1746" cy="338" r="5" fill="green" stroke="none" /><circle cx="1240" cy="24" r="5" fill="green" stroke="none" /><circle cx="1447" cy="771" r="5" fill="green" stroke="none" /><circle cx="445" cy="199" r="5" fill="green" stroke="none" /><circle cx="1457" cy="953" r="5" fill="green" stroke="none" /><circle cx="112" cy="452" r="5" fill="green" stroke="none" /><circle cx="982" cy="90" r="5" fill="green" stroke="none" /><circle cx="879" cy="237" r="5" fill="green" stroke="none" /><circle cx="843" cy="82" r="5" fill="green" stroke="none" /><circle cx="1688" cy="515" r="5" fill="green" stroke="none" /><circle cx="1281" cy="603" r="5" fill="green" stroke="none" /><circle cx="686" cy="712" r="5" fill="green" stroke="none" /><circle cx="142" cy="956" r="5" fill="green" stroke="none" /><circle cx="2104" cy="785" r="5" fill="green" stroke="none" /><circle cx="1724" cy="532" r="5" fill="green" stroke="none" /><circle cx="229" cy="163" r="5" fill="green" stroke="none" /><circle cx="1403" cy="165" r="5" fill="green" stroke="none" /><circle cx="747" cy="598" r="5" fill="green" stroke="none" /><circle cx="2100" cy="539" r="5" fill="green" stroke="none" /><circle cx="2113" cy="1011" r="5" fill="green" stroke="none" /><circle cx="1585" cy="921" r="5" fill="green" stroke="none" /><circle cx="1362" cy="721" r="5" fill="green" stroke="none" /><circle cx="266" cy="601" r="5" fill="green" stroke="none" /><circle cx="554" cy="924" r="5" fill="green" stroke="none" /><circle cx="936" cy="914" r="5" fill="green" stroke="none" /><circle cx="1071" cy="974" r="5" fill="green" stroke="none" /><circle cx="1903" cy="442" r="5" fill="green" stroke="none" /><circle cx="2038" cy="774" r="5" fill="green" stroke="none" /><circle cx="197" cy="385" r="5" fill="green" stroke="none" /><circle cx="255" cy="498" r="5" fill="green" stroke="none" /><circle cx="1879" cy="540" r="5" fill="green" stroke="none" /><circle cx="391" cy="1045" r="5" fill="green" stroke="none" /><circle cx="73" cy="819" r="5" fill="green" stroke="none" /><circle cx="488" cy="864" r="5" fill="green" stroke="none" /><circle cx="1536" cy="176" r="5" fill="green" stroke="none" /><circle cx="894" cy="481" r="5" fill="green" stroke="none" /><circle cx="2106" cy="1039" r="5" fill="green" stroke="none" /><circle cx="1805" cy="812" r="5" fill="green" stroke="none" /><circle cx="377" cy="958" r="5" fill="green" stroke="none" /><circle cx="445" cy="590" r="5" fill="green" stroke="none" /><circle cx="1565" cy="1023" r="5" fill="green" stroke="none" /><circle cx="1157" cy="804" r="5" fill="green" stroke="none" /><circle cx="512" cy="875" r="5" fill="green" stroke="none" /><circle cx="2064" cy="51" r="5" fill="green" stroke="none" /><circle cx="206" cy="152" r="5" fill="green" stroke="none" /><circle cx="149" cy="831" r="5" fill="green" stroke="none" /><circle cx="1972" cy="486" r="5" fill="green" stroke="none" /><circle cx="467" cy="305" r="5" fill="green" stroke="none" /><circle cx="1520" cy="334" r="5" fill="green" stroke="none" /><circle cx="1405" cy="1042" r="5" fill="green" stroke="none" /><circle cx="634" cy="860" r="5" fill="green" stroke="none" /><circle cx="1109" cy="826" r="5" fill="green" stroke="none" /><circle cx="1958" cy="91" r="5" fill="green" stroke="none" /><circle cx="1034" cy="6" r="5" fill="green" stroke="none" /><circle cx="2018" cy="283" r="5" fill="green" stroke="none" /><circle cx="857" cy="456" r="5" fill="green" stroke="none" /><circle cx="1724" cy="766" r="5" fill="green" stroke="none" /><circle cx="886" cy="46" r="5" fill="green" stroke="none" /><circle cx="94" cy="493" r="5" fill="green" stroke="none" /><circle cx="687" cy="220" r="5" fill="green" stroke="none" /><circle cx="1187" cy="968" r="5" fill="green" stroke="none" /><circle cx="497" cy="102" r="5" fill="green" stroke="none" /><circle cx="904" cy="104" r="5" fill="green" stroke="none" /><circle cx="221" cy="431" r="5" fill="green" stroke="none" /><circle cx="1887" cy="200" r="5" fill="green" stroke="none" /><circle cx="1841" cy="663" r="5" fill="green" stroke="none" /><circle cx="1011" cy="498" r="5" fill="green" stroke="none" /><circle cx="264" cy="734" r="5" fill="green" stroke="none" /><circle cx="319" cy="567" r="5" fill="green" stroke="none" /><circle cx="1469" cy="685" r="5" fill="green" stroke="none" /><circle cx="148" cy="938" r="5" fill="green" stroke="none" /><circle cx="469" cy="643" r="5" fill="green" stroke="none" /><circle cx="1324" cy="547" r="5" fill="green" stroke="none" /><circle cx="102" cy="313" r="5" fill="green" stroke="none" /><circle cx="109" cy="1025" r="5" fill="green" stroke="none" /><circle cx="1456" cy="277" r="5" fill="green" stroke="none" /><circle cx="441" cy="975" r="5" fill="green" stroke="none" /><circle cx="607" cy="611" r="5" fill="green" stroke="none" /><circle cx="674" cy="196" r="5" fill="green" stroke="none" /><circle cx="442" cy="990" r="5" fill="green" stroke="none" /><circle cx="104" cy="109" r="5" fill="green" stroke="none" /><circle cx="1488" cy="702" r="5" fill="green" stroke="none" /><circle cx="1917" cy="889" r="5" fill="green" stroke="none" /><circle cx="98" cy="614" r="5" fill="green" stroke="none" /><circle cx="166" cy="91" r="5" fill="green" stroke="none" /><circle cx="1316" cy="47" r="5" fill="green" stroke="none" /><circle cx="1340" cy="277" r="5" fill="green" stroke="none" /><circle cx="1557" cy="214" r="5" fill="green" stroke="none" /><circle cx="1360" cy="427" r="5" fill="green" stroke="none" /><circle cx="191" cy="571" r="5" fill="green" stroke="none" /><circle cx="740" cy="415" r="5" fill="green" stroke="none" /><circle cx="1279" cy="833" r="5" fill="green" stroke="none" /><circle cx="2005" cy="424" r="5" fill="green" stroke="none" /><circle cx="1217" cy="922" r="5" fill="green" stroke="none" /><circle cx="967" cy="192" r="5" fill="green" stroke="none" /><circle cx="594" cy="115" r="5" fill="green" stroke="none" /><circle cx="973" cy="862" r="5" fill="green" stroke="none" /><circle cx="820" cy="177" r="5" fill="green" stroke="none" /><circle cx="1000" cy="876" r="5" fill="green" stroke="none" /><circle cx="2038" cy="674" r="5" fill="green" stroke="none" /><circle cx="771" cy="859" r="5" fill="green" stroke="none" /><circle cx="1896" cy="428" r="5" fill="green" stroke="none" /><circle cx="1218" cy="688" r="5" fill="green" stroke="none" /><circle cx="1742" cy="965" r="5" fill="green" stroke="none" /><circle cx="1548" cy="277" r="5" fill="green" stroke="none" /><circle cx="710" cy="318" r="5" fill="green" stroke="none" /><circle cx="267" cy="997" r="5" fill="green" stroke="none" /><circle cx="1952" cy="824" r="5" fill="green" stroke="none" /><circle cx="1312" cy="169" r="5" fill="green" stroke="none" /><circle cx="574" cy="435" r="5" fill="green" stroke="none" /><circle cx="1584" cy="332" r="5" fill="green" stroke="none" /><circle cx="239" cy="779" r="5" fill="green" stroke="none" /><circle cx="698" cy="110" r="5" fill="green" stroke="none" /><circle cx="1741" cy="267" r="5" fill="green" stroke="none" /><circle cx="664" cy="462" r="5" fill="green" stroke="none" /><circle cx="1824" cy="980" r="5" fill="green" stroke="none" /><circle cx="1702" cy="431" r="5" fill="green" stroke="none" /><circle cx="1874" cy="370" r="5" fill="green" stroke="none" /><circle cx="1252" cy="893" r="5" fill="green" stroke="none" /><circle cx="1347" cy="153" r="5" fill="green" stroke="none" /><circle cx="2000" cy="801" r="5" fill="green" stroke="none" /><circle cx="1250" cy="785" r="5" fill="green" stroke="none" /><circle cx="88" cy="57" r="5" fill="green" stroke="none" /><circle cx="1704" cy="45" r="5" fill="green" stroke="none" /><circle cx="864" cy="888" r="5" fill="green" stroke="none" /><circle cx="1524" cy="944" r="5" fill="green" stroke="none" /><circle cx="1299" cy="572" r="5" fill="green" stroke="none" /><circle cx="2051" cy="15" r="5" fill="green" stroke="none" /><circle cx="1828" cy="872" r="5" fill="green" stroke="none" /><circle cx="606" cy="430" r="5" fill="green" stroke="none" /><circle cx="1627" cy="498" r="5" fill="green" stroke="none" /><circle cx="712" cy="197" r="5" fill="green" stroke="none" /><circle cx="248" cy="121" r="5" fill="green" stroke="none" /><circle cx="50" cy="630" r="5" fill="green" stroke="none" /><circle cx="209" cy="878" r="5" fill="green" stroke="none" /><circle cx="1790" cy="782" r="5" fill="green" stroke="none" /><circle cx="1413" cy="5" r="5" fill="green" stroke="none" /><circle cx="736" cy="644" r="5" fill="green" stroke="none" /><circle cx="710" cy="807" r="5" fill="green" stroke="none" /><circle cx="36" cy="765" r="5" fill="green" stroke="none" /><circle cx="1170" cy="942" r="5" fill="green" stroke="none" /><circle cx="447" cy="422" r="5" fill="green" stroke="none" /><circle cx="1432" cy="902" r="5" fill="green" stroke="none" /><circle cx="517" cy="142" r="5" fill="green" stroke="none" /><circle cx="940" cy="521" r="5" fill="green" stroke="none" /><circle cx="341" cy="418" r="5" fill="green" stroke="none" /><circle cx="26" cy="483" r="5" fill="green" stroke="none" /><circle cx="1441" cy="908" r="5" fill="green" stroke="none" /><circle cx="1763" cy="270" r="5" fill="green" stroke="none" /><circle cx="1802" cy="72" r="5" fill="green" stroke="none" /><circle cx="743" cy="548" r="5" fill="green" stroke="none" /><circle cx="1444" cy="782" r="5" fill="green" stroke="none" /><circle cx="41" cy="569" r="5" fill="green" stroke="none" /><circle cx="614" cy="70" r="5" fill="green" stroke="none" /><circle cx="1854" cy="863" r="5" fill="green" stroke="none" /><circle cx="178" cy="550" r="5" fill="green" stroke="none" /><circle cx="410" cy="8" r="5" fill="green" stroke="none" /><circle cx="1868" cy="132" r="5" fill="green" stroke="none" /><circle cx="2075" cy="651" r="5" fill="green" stroke="none" /><circle cx="1166" cy="886" r="5" fill="green" stroke="none" /><circle cx="1602" cy="131" r="5" fill="green" stroke="none" /><circle cx="1183" cy="1020" r="5" fill="green" stroke="none" /><circle cx="1207" cy="734" r="5" fill="green" stroke="none" /><circle cx="1937" cy="438" r="5" fill="green" stroke="none" /><circle cx="638" cy="585" r="5" fill="green" stroke="none" /><circle cx="317" cy="713" r="5" fill="green" stroke="none" /><circle cx="694" cy="755" r="5" fill="green" stroke="none" /><circle cx="1709" cy="675" r="5" fill="green" stroke="none" /><circle cx="671" cy="587" r="5" fill="green" stroke="none" /><circle cx="1552" cy="839" r="5" fill="green" stroke="none" /><circle cx="1767" cy="693" r="5" fill="green" stroke="none" /><circle cx="661" cy="525" r="5" fill="green" stroke="none" /><circle cx="162" cy="412" r="5" fill="green" stroke="none" /><circle cx="1224" cy="48" r="5" fill="green" stroke="none" /><circle cx="2040" cy="345" r="5" fill="green" stroke="none" /><circle cx="1719" cy="290" r="5" fill="green" stroke="none" /><circle cx="1094" cy="871" r="5" fill="green" stroke="none" /><circle cx="195" cy="687" r="5" fill="green" stroke="none" /><circle cx="2110" cy="1034" r="5" fill="green" stroke="none" /><circle cx="1401" cy="270" r="5" fill="green" stroke="none" /><circle cx="1397" cy="519" r="5" fill="green" stroke="none" /><circle cx="1969" cy="839" r="5" fill="green" stroke="none" /><circle cx="1439" cy="822" r="5" fill="green" stroke="none" /><circle cx="1603" cy="424" r="5" fill="green" stroke="none" /><circle cx="337" cy="188" r="5" fill="green" stroke="none" /><circle cx="1479" cy="601" r="5" fill="green" stroke="none" /><circle cx="354" cy="554" r="5" fill="green" stroke="none" /><circle cx="1682" cy="77" r="5" fill="green" stroke="none" /><circle cx="1857" cy="807" r="5" fill="green" stroke="none" /><circle cx="139" cy="42" r="5" fill="green" stroke="none" /><circle cx="1099" cy="549" r="5" fill="green" stroke="none" /><circle cx="861" cy="965" r="5" fill="green" stroke="none" /><circle cx="217" cy="338" r="5" fill="green" stroke="none" /><circle cx="1890" cy="515" r="5" fill="green" stroke="none" /><circle cx="819" cy="84" r="5" fill="green" stroke="none" /><circle cx="476" cy="701" r="5" fill="green" stroke="none" /><circle cx="26" cy="812" r="5" fill="green" stroke="none" /><circle cx="445" cy="527" r="5" fill="green" stroke="none" /><circle cx="1085" cy="972" r="5" fill="green" stroke="none" /><circle cx="664" cy="539" r="5" fill="green" stroke="none" /><circle cx="2046" cy="770" r="5" fill="green" stroke="none" /><circle cx="1477" cy="985" r="5" fill="green" stroke="none" /><circle cx="1945" cy="369" r="5" fill="green" stroke="none" /><circle cx="46" cy="427" r="5" fill="green" stroke="none" /><circle cx="1839" cy="698" r="5" fill="green" stroke="none" /><circle cx="472" cy="488" r="5" fill="green" stroke="none" /><circle cx="1827" cy="1002" r="5" fill="green" stroke="none" /><circle cx="1900" cy="139" r="5" fill="green" stroke="none" /><circle cx="17" cy="647" r="5" fill="green" stroke="none" /><circle cx="1967" cy="420" r="5" fill="green" stroke="none" /><circle cx="2022" cy="425" r="5" fill="green" stroke="none" /><circle cx="1942" cy="3" r="5" fill="green" stroke="none" /><circle cx="2069" cy="251" r="5" fill="green" stroke="none" /><circle cx="256" cy="624" r="5" fill="green" stroke="none" /><circle cx="1971" cy="227" r="5" fill="green" stroke="none" /><circle cx="409" cy="869" r="5" fill="green" stroke="none" /><circle cx="774" cy="458" r="5" fill="green" stroke="none" /><circle cx="1340" cy="816" r="5" fill="green" stroke="none" /><circle cx="643" cy="476" r="5" fill="green" stroke="none" /><circle cx="900" cy="175" r="5" fill="green" stroke="none" /><circle cx="1721" cy="420" r="5" fill="green" stroke="none" /><circle cx="773" cy="582" r="5" fill="green" stroke="none" /><circle cx="55" cy="660" r="5" fill="green" stroke="none" /><circle cx="1415" cy="578" r="5" fill="green" stroke="none" /><circle cx="1634" cy="121" r="5" fill="green" stroke="none" /><circle cx="2005" cy="331" r="5" fill="green" stroke="none" /><circle cx="1841" cy="122" r="5" fill="green" stroke="none" /><circle cx="140" cy="805" r="5" fill="green" stroke="none" /><circle cx="667" cy="764" r="5" fill="green" stroke="none" /><circle cx="1625" cy="8" r="5" fill="green" stroke="none" /><circle cx="727" cy="762" r="5" fill="green" stroke="none" /><circle cx="1313" cy="117" r="5" fill="green" stroke="none" /><circle cx="1755" cy="770" r="5" fill="green" stroke="none" /><circle cx="418" cy="724" r="5" fill="green" stroke="none" /><circle cx="386" cy="482" r="5" fill="green" stroke="none" /><circle cx="392" cy="354" r="5" fill="green" stroke="none" /><circle cx="1690" cy="192" r="5" fill="green" stroke="none" /><circle cx="1297" cy="941" r="5" fill="green" stroke="none" /><circle cx="76" cy="99" r="5" fill="green" stroke="none" /><circle cx="784" cy="541" r="5" fill="green" stroke="none" /><circle cx="1427" cy="713" r="5" fill="green" stroke="none" /><circle cx="1520" cy="985" r="5" fill="green" stroke="none" /><circle cx="753" cy="94" r="5" fill="green" stroke="none" /><circle cx="51" cy="1026" r="5" fill="green" stroke="none" /><circle cx="682" cy="313" r="5" fill="green" stroke="none" /><circle cx="531" cy="122" r="5" fill="green" stroke="none" /><circle cx="1286" cy="987" r="5" fill="green" stroke="none" /><circle cx="832" cy="59" r="5" fill="green" stroke="none" /><circle cx="266" cy="200" r="5" fill="green" stroke="none" /><circle cx="326" cy="977" r="5" fill="green" stroke="none" /><circle cx="63" cy="257" r="5" fill="green" stroke="none" /><circle cx="631" cy="700" r="5" fill="green" stroke="none" /><circle cx="1057" cy="945" r="5" fill="green" stroke="none" /><circle cx="1679" cy="229" r="5" fill="green" stroke="none" /><circle cx="490" cy="181" r="5" fill="green" stroke="none" /><circle cx="1678" cy="241" r="5" fill="green" stroke="none" /><circle cx="743" cy="81" r="5" fill="green" stroke="none" /><circle cx="153" cy="89" r="5" fill="green" stroke="none" /><circle cx="1908" cy="765" r="5" fill="green" stroke="none" /><circle cx="1015" cy="45" r="5" fill="green" stroke="none" /><circle cx="871" cy="466" r="5" fill="green" stroke="none" /><circle cx="537" cy="1047" r="5" fill="green" stroke="none" /><circle cx="1332" cy="915" r="5" fill="green" stroke="none" /><circle cx="2156" cy="646" r="5" fill="green" stroke="none" /><circle cx="950" cy="489" r="5" fill="green" stroke="none" /><circle cx="1364" cy="782" r="5" fill="green" stroke="none" /><circle cx="1737" cy="85" r="5" fill="green" stroke="none" /><circle cx="1135" cy="730" r="5" fill="green" stroke="none" /><circle cx="643" cy="607" r="5" fill="green" stroke="none" /><circle cx="1297" cy="660" r="5" fill="green" stroke="none" /><circle cx="1936" cy="976" r="5" fill="green" stroke="none" /><circle cx="1671" cy="579" r="5" fill="green" stroke="none" /><circle cx="586" cy="779" r="5" fill="green" stroke="none" /><circle cx="439" cy="148" r="5" fill="green" stroke="none" /><circle cx="1093" cy="638" r="5" fill="green" stroke="none" /><circle cx="2011" cy="405" r="5" fill="green" stroke="none" /><circle cx="732" cy="877" r="5" fill="green" stroke="none" /><circle cx="2100" cy="279" r="5" fill="green" stroke="none" /><circle cx="939" cy="765" r="5" fill="green" stroke="none" /><circle cx="184" cy="760" r="5" fill="green" stroke="none" /><circle cx="1227" cy="952" r="5" fill="green" stroke="none" /><circle cx="2149" cy="739" r="5" fill="green" stroke="none" /><circle cx="1864" cy="105" r="5" fill="green" stroke="none" /><circle cx="439" cy="544" r="5" fill="green" stroke="none" /><circle cx="1921" cy="36" r="5" fill="green" stroke="none" /><circle cx="1165" cy="764" r="5" fill="green" stroke="none" /><circle cx="1119" cy="900" r="5" fill="green" stroke="none" /><circle cx="611" cy="400" r="5" fill="green" stroke="none" /><circle cx="1842" cy="73" r="5" fill="green" stroke="none" /><circle cx="2013" cy="724" r="5" fill="green" stroke="none" /><circle cx="1924" cy="326" r="5" fill="green" stroke="none" /><circle cx="63" cy="891" r="5" fill="green" stroke="none" /><circle cx="1857" cy="421" r="5" fill="green" stroke="none" /><circle cx="691" cy="309" r="5" fill="green" stroke="none" /><circle cx="298" cy="209" r="5" fill="green" stroke="none" /><circle cx="995" cy="481" r="5" fill="green" stroke="none" /><circle cx="1820" cy="562" r="5" fill="green" stroke="none" /><circle cx="179" cy="838" r="5" fill="green" stroke="none" /><circle cx="358" cy="742" r="5" fill="green" stroke="none" /><circle cx="1963" cy="665" r="5" fill="green" stroke="none" /><circle cx="292" cy="311" r="5" fill="green" stroke="none" /><circle cx="22" cy="588" r="5" fill="green" stroke="none" /><circle cx="1967" cy="831" r="5" fill="green" stroke="none" /><circle cx="882" cy="381" r="5" fill="green" stroke="none" /><circle cx="1461" cy="201" r="5" fill="green" stroke="none" /><circle cx="1671" cy="557" r="5" fill="green" stroke="none" /><circle cx="2012" cy="911" r="5" fill="green" stroke="none" /><circle cx="1755" cy="267" r="5" fill="green" stroke="none" /><circle cx="126" cy="692" r="5" fill="green" stroke="none" /><circle cx="2099" cy="217" r="5" fill="green" stroke="none" /><circle cx="1550" cy="293" r="5" fill="green" stroke="none" /><circle cx="1398" cy="21" r="5" fill="green" stroke="none" /><circle cx="772" cy="236" r="5" fill="green" stroke="none" /><circle cx="1867" cy="361" r="5" fill="green" stroke="none" /><circle cx="962" cy="348" r="5" fill="green" stroke="none" /><circle cx="316" cy="406" r="5" fill="green" stroke="none" /><circle cx="1423" cy="60" r="5" fill="green" stroke="none" /><circle cx="610" cy="885" r="5" fill="green" stroke="none" /><circle cx="2086" cy="305" r="5" fill="green" stroke="none" /><circle cx="1000" cy="169.558173275954" r="5" fill="blue" stroke="none" /><circle cx="1033.4286691550517" cy="297.0189402946804" r="5" fill="blue" stroke="none" /><circle cx="1021.9324272713784" cy="111" r="5" fill="blue" stroke="none" /><circle cx="1003.1266883963424" cy="232.3115838607116" r="5" fill="blue" stroke="none" /><circle cx="1000" cy="221.36410536366714" r="5" fill="blue" stroke="none" /><circle cx="1000" cy="329.0951457156484" r="5" fill="blue" stroke="none" /><circle cx="1228.9840569184896" cy="111.14097623506007" r="5" fill="blue" stroke="none" /><circle cx="1010.0861968777323" cy="138.80874901290758" r="5" fill="blue" stroke="none" /><circle cx="1229.4138618211048" cy="408.22709348416004" r="5" fill="blue" stroke="none" /><circle cx="1061.874049625231" cy="416.82810902082326" r="5" fill="blue" stroke="none" /><circle cx="1255" cy="186.8561899293278" r="5" fill="blue" stroke="none" /><circle cx="1085.8171060061534" cy="403.9388338080911" r="5" fill="blue" stroke="none" /><circle cx="1050.2806114364896" cy="424.4874597525894" r="5" fill="blue" stroke="none" /><circle cx="1238.9524732983546" cy="398.55841037287814" r="5" fill="blue" stroke="none" /><circle cx="1255" cy="217.54974162518852" r="5" fill="blue" stroke="none" /><circle cx="1245.7535572415659" cy="202.15494054376438" r="5" fill="blue" stroke="none" /><circle cx="1000" cy="414.79618275186647" r="5" fill="blue" stroke="none" /><circle cx="1000" cy="340.3613682420728" r="5" fill="blue" stroke="none" /><circle cx="1080.6856149920397" cy="268.16839257114736" r="5" fill="blue" stroke="none" /><circle cx="1255" cy="392.9819539519748" r="5" fill="blue" stroke="none" /><circle cx="1009.5672435186426" cy="151.5091839155192" r="5" fill="blue" stroke="none" /><circle cx="1009.0092224378197" cy="344.75371117633426" r="5" fill="blue" stroke="none" /><circle cx="1253.805237880813" cy="425" r="5" fill="blue" stroke="none" /><circle cx="1176.1352557468442" cy="162.48432516140304" r="5" fill="blue" stroke="none" /><circle cx="1017.331980693807" cy="396.55419283128947" r="5" fill="blue" stroke="none" /><circle cx="1010.6435165170221" cy="254.83723903225575" r="5" fill="blue" stroke="none" /><circle cx="1253.7889731481716" cy="227.77666056132466" r="5" fill="blue" stroke="none" /><circle cx="1255" cy="118.79621954489357" r="5" fill="blue" stroke="none" /><circle cx="1194.2213955483967" cy="111" r="5" fill="blue" stroke="none" /><circle cx="1030.1720746197827" cy="425" r="5" fill="blue" stroke="none" /><circle cx="1000.1756001898776" cy="121.49261909132304" r="5" fill="blue" stroke="none" /><circle cx="1000" cy="251.96066507473301" r="5" fill="blue" stroke="none" /><circle cx="1020.1668534329184" cy="425" r="5" fill="blue" stroke="none" /><circle cx="1010.0477751031921" cy="382.1292444252134" r="5" fill="blue" stroke="none" /><circle cx="1000" cy="134.35874105948756" r="5" fill="blue" stroke="none" /><circle cx="1000" cy="313.38330549312593" r="5" fill="blue" stroke="none" /><circle cx="1254.8824895892258" cy="131.97388564697167" r="5" fill="blue" stroke="none" /><circle cx="1143.7613641729895" cy="230.01854975016522" r="5" fill="blue" stroke="none" /><circle cx="1255" cy="163.25341490099618" r="5" fill="blue" stroke="none" /><circle cx="1090.7406382531096" cy="360.052691011098" r="5" fill="blue" stroke="none" /><circle cx="1236.5013520462844" cy="143.7290103244244" r="5" fill="blue" stroke="none" /><circle cx="1000.4602517934558" cy="262.56979794034135" r="5" fill="blue" stroke="none" /><circle cx="1004.3436052418718" cy="359.4244147659101" r="5" fill="blue" stroke="none" /><circle cx="1000" cy="272.5799578871737" r="5" fill="blue" stroke="none" /><circle cx="1245.5002154092144" cy="128.2706857190658" r="5" fill="blue" stroke="none" /><circle cx="1246.34175241964" cy="169.77601463345275" r="5" fill="blue" stroke="none" /><circle cx="1180.448691840545" cy="337.7742197986736" r="5" fill="blue" stroke="none" /><circle cx="1234.5542264948228" cy="186.2958332147797" r="5" fill="blue" stroke="none" /><circle cx="1255" cy="247.83117698042065" r="5" fill="blue" stroke="none" /><circle cx="1000.186836617478" cy="200.1863310367596" r="5" fill="blue" stroke="none" /><circle cx="1000" cy="424.9649906321348" r="5" fill="blue" stroke="none" /><circle cx="1254.680792741648" cy="365.8474513485294" r="5" fill="blue" stroke="none" /><circle cx="1000" cy="382.3008068882509" r="5" fill="blue" stroke="none" /><circle cx="1255" cy="197.35743546690276" r="5" fill="blue" stroke="none" /><circle cx="1000.6604049963894" cy="368.7231589325942" r="5" fill="blue" stroke="none" /><circle cx="1007.3692569461894" cy="161.28284404335682" r="5" fill="blue" stroke="none" /><circle cx="1245.5204073568373" cy="214.3445020918441" r="5" fill="blue" stroke="none" /><circle cx="1010.0030557815602" cy="111" r="5" fill="blue" stroke="none" /><circle cx="1251.8748850733268" cy="381.8114002078139" r="5" fill="blue" stroke="none" /><circle cx="1082.720143091485" cy="425" r="5" fill="blue" stroke="none" /><circle cx="1254.7305850982038" cy="153.09688297047046" r="5" fill="blue" stroke="none" /><circle cx="1000.0847864202422" cy="179.783766752985" r="5" fill="blue" stroke="none" /><circle cx="1253.9577636464655" cy="406.5378996704385" r="5" fill="blue" stroke="none" /><circle cx="1150.9369023276222" cy="415.0093460631358" r="5" fill="blue" stroke="none" /><circle cx="1003.3606040542619" cy="242.39635428509155" r="5" fill="blue" stroke="none" /><circle cx="1040.249616719051" cy="425" r="5" fill="blue" stroke="none" /><circle cx="1235.0323772859242" cy="419.0312018093075" r="5" fill="blue" stroke="none" /><circle cx="1000" cy="303.3414680441588" r="5" fill="blue" stroke="none" /><circle cx="1000" cy="210.1853135993265" r="5" fill="blue" stroke="none" /><circle cx="1009.8127980128519" cy="331.0421155504248" r="5" fill="blue" stroke="none" /><circle cx="1038.761885826205" cy="137.470704337489" r="5" fill="blue" stroke="none" /><circle cx="1171.9382254737513" cy="425" r="5" fill="blue" stroke="none" /><circle cx="1019.3398090214413" cy="143.14638673470233" r="5" fill="blue" stroke="none" /><circle cx="1037.123170156057" cy="111" r="5" fill="blue" stroke="none" /><circle cx="1000" cy="189.80198246986345" r="5" fill="blue" stroke="none" /><circle cx="1255" cy="142.58995424777595" r="5" fill="blue" stroke="none" /><circle cx="1098.830918970022" cy="422.36946967936433" r="5" fill="blue" stroke="none" /><circle cx="1107.14593331314" cy="401.11036863761" r="5" fill="blue" stroke="none" /><circle cx="1254.2880711429655" cy="207.47878407043527" r="5" fill="blue" stroke="none" /><circle cx="1010.006134276689" cy="425" r="5" fill="blue" stroke="none" /><circle cx="1000" cy="293.18074277635696" r="5" fill="blue" stroke="none" /><circle cx="1218.797279159471" cy="111" r="5" fill="blue" stroke="none" /><circle cx="1008.7145191179908" cy="277.509767392204" r="5" fill="blue" stroke="none" /><circle cx="1204.33871072667" cy="124.49977127758211" r="5" fill="blue" stroke="none" /><circle cx="1182.0823321699618" cy="111" r="5" fill="blue" stroke="none" /><circle cx="1060.7780921965777" cy="111.22782025165577" r="5" fill="blue" stroke="none" /><circle cx="1029.1408652668142" cy="120.1533646830037" r="5" fill="blue" stroke="none" /><circle cx="1000" cy="282.6113775067337" r="5" fill="blue" stroke="none" /><circle cx="1125.2232609008931" cy="423.0727133477899" r="5" fill="blue" stroke="none" /><circle cx="1000.2377080070552" cy="399.1030903047647" r="5" fill="blue" stroke="none" /><circle cx="1000" cy="111" r="5" fill="blue" stroke="none" /><circle cx="1237.6941777576274" cy="119.98651434047167" r="5" fill="blue" stroke="none" /><circle cx="1250.2650646028708" cy="238.80974097593878" r="5" fill="blue" stroke="none" /><circle cx="1254.9102180867806" cy="174.96725940299086" r="5" fill="blue" stroke="none" /><circle cx="1000.0287652572218" cy="350.39180519030833" r="5" fill="blue" stroke="none" /></svg>