<svg viewBox="0 0 2372 1101" xmlns="http://www.w3.org/2000/svg"><rect x="0" y="0" width="2372" height="1101" fill="lightyellow" stroke="none "/><rect x="1719" y="498" width="636" height="279" fill="white" stroke="black "/><circle cx="346" cy="454" r="5" fill="green" stroke="none" /><circle cx="1522" cy="440" r="5" fill="green" stroke="none" /><circle cx="2192" cy="869" r="5" fill="green" stroke="none" /><circle cx="669" cy="518" r="5" fill="green" stroke="none" /><circle cx="131" cy="119" r="5" fill="green" stroke="none" /><circle cx="1679" cy="668" r="5" fill="green" stroke="none" /><circle cx="88" cy="547" r="5" fill="green" stroke="none" /><circle cx="182" cy="1063" r="5" fill="green" stroke="none" /><circle cx="1183" cy="893" r="5" fill="green" stroke="none" /><circle cx="186" cy="250" r="5" fill="green" stroke="none" /><circle cx="485" cy="868" r="5" fill="green" stroke="none" /><circle cx="1705" cy="171" r="5" fill="green" stroke="none" /><circle cx="1755" cy="375" r="5" fill="green" stroke="none" /><circle cx="846" cy="833" r="5" fill="green" stroke="none" /><circle cx="2281" cy="169" r="5" fill="green" stroke="none" /><circle cx="1593" cy="208" r="5" fill="green" stroke="none" /><circle cx="92" cy="521" r="5" fill="green" stroke="none" /><circle cx="159" cy="158" r="5" fill="green" stroke="none" /><circle cx="110" cy="340" r="5" fill="green" stroke="none" /><circle cx="1665" cy="218" r="5" fill="green" stroke="none" /><circle cx="760" cy="574" r="5" fill="green" stroke="none" /><circle cx="1515" cy="838" r="5" fill="green" stroke="none" /><circle cx="837" cy="135" r="5" fill="green" stroke="none" /><circle cx="1208" cy="721" r="5" fill="green" stroke="none" /><circle cx="2220" cy="1019" r="5" fill="green" stroke="none" /><circle cx="948" cy="1025" r="5" fill="green" stroke="none" /><circle cx="697" cy="81" r="5" fill="green" stroke="none" /><circle cx="1002" cy="307" r="5" fill="green" stroke="none" /><circle cx="1451" cy="951" r="5" fill="green" stroke="none" /><circle cx="1675" cy="387" r="5" fill="green" stroke="none" /><circle cx="242" cy="76" r="5" fill="green" stroke="none" /><circle cx="2231" cy="930" r="5" fill="green" stroke="none" /><circle cx="1817" cy="821" r="5" fill="green" stroke="none" /><circle cx="1507" cy="450" r="5" fill="green" stroke="none" /><circle cx="834" cy="885" r="5" fill="green" stroke="none" /><circle cx="433" cy="114" r="5" fill="green" stroke="none" /><circle cx="75" cy="1011" r="5" fill="green" stroke="none" /><circle cx="44" cy="272" r="5" fill="green" stroke="none" /><circle cx="674" cy="334" r="5" fill="green" stroke="none" /><circle cx="927" cy="479" r="5" fill="green" stroke="none" /><circle cx="653" cy="772" r="5" fill="green" stroke="none" /><circle cx="1793" cy="396" r="5" fill="green" stroke="none" /><circle cx="1409" cy="198" r="5" fill="green" stroke="none" /><circle cx="561" cy="695" r="5" fill="green" stroke="none" /><circle cx="1024" cy="837" r="5" fill="green" stroke="none" /><circle cx="690" cy="526" r="5" fill="green" stroke="none" /><circle cx="415" cy="956" r="5" fill="green" stroke="none" /><circle cx="96" cy="519" r="5" fill="green" stroke="none" /><circle cx="2168" cy="325" r="5" fill="green" stroke="none" /><circle cx="1031" cy="75" r="5" fill="green" stroke="none" /><circle cx="1093" cy="192" r="5" fill="green" stroke="none" /><circle cx="391" cy="870" r="5" fill="green" stroke="none" /><circle cx="5" cy="355" r="5" fill="green" stroke="none" /><circle cx="59" cy="358" r="5" fill="green" stroke="none" /><circle cx="636" cy="143" r="5" fill="green" stroke="none" /><circle cx="778" cy="718" r="5" fill="green" stroke="none" /><circle cx="1628" cy="709" r="5" fill="green" stroke="none" /><circle cx="924" cy="1100" r="5" fill="green" stroke="none" /><circle cx="748" cy="492" r="5" fill="green" stroke="none" /><circle cx="2190" cy="904" r="5" fill="green" stroke="none" /><circle cx="750" cy="951" r="5" fill="green" stroke="none" /><circle cx="1433" cy="949" r="5" fill="green" stroke="none" /><circle cx="1497" cy="574" r="5" fill="green" stroke="none" /><circle cx="579" cy="592" r="5" fill="green" stroke="none" /><circle cx="229" cy="167" r="5" fill="green" stroke="none" /><circle cx="1559" cy="143" r="5" fill="green" stroke="none" /><circle cx="76" cy="1090" r="5" fill="green" stroke="none" /><circle cx="496" cy="796" r="5" fill="green" stroke="none" /><circle cx="1396" cy="959" r="5" fill="green" stroke="none" /><circle cx="909" cy="323" r="5" fill="green" stroke="none" /><circle cx="922" cy="980" r="5" fill="green" stroke="none" /><circle cx="477" cy="898" r="5" fill="green" stroke="none" /><circle cx="56" cy="708" r="5" fill="green" stroke="none" /><circle cx="1915" cy="1051" r="5" fill="green" stroke="none" /><circle cx="1031" cy="976" r="5" fill="green" stroke="none" /><circle cx="1110" cy="700" r="5" fill="green" stroke="none" /><circle cx="737" cy="214" r="5" fill="green" stroke="none" /><circle cx="596" cy="54" r="5" fill="green" stroke="none" /><circle cx="921" cy="1096" r="5" fill="green" stroke="none" /><circle cx="947" cy="907" r="5" fill="green" stroke="none" /><circle cx="1206" cy="566" r="5" fill="green" stroke="none" /><circle cx="1305" cy="535" r="5" fill="green" stroke="none" /><circle cx="632" cy="163" r="5" fill="green" stroke="none" /><circle cx="941" cy="917" r="5" fill="green" stroke="none" /><circle cx="1587" cy="262" r="5" fill="green" stroke="none" /><circle cx="619" cy="630" r="5" fill="green" stroke="none" /><circle cx="1666" cy="668" r="5" fill="green" stroke="none" /><circle cx="1698" cy="115" r="5" fill="green" stroke="none" /><circle cx="1866" cy="111" r="5" fill="green" stroke="none" /><circle cx="1566" cy="1026" r="5" fill="green" stroke="none" /><circle cx="83" cy="464" r="5" fill="green" stroke="none" /><circle cx="2130" cy="323" r="5" fill="green" stroke="none" /><circle cx="1183" cy="493" r="5" fill="green" stroke="none" /><circle cx="1043" cy="529" r="5" fill="green" stroke="none" /><circle cx="2370" cy="33" r="5" fill="green" stroke="none" /><circle cx="1216" cy="220" r="5" fill="green" stroke="none" /><circle cx="2127" cy="215" r="5" fill="green" stroke="none" /><circle cx="2165" cy="55" r="5" fill="green" stroke="none" /><circle cx="1879" cy="442" r="5" fill="green" stroke="none" /><circle cx="1906" cy="1016" r="5" fill="green" stroke="none" /><circle cx="1014" cy="782" r="5" fill="green" stroke="none" /><circle cx="53" cy="818" r="5" fill="green" stroke="none" /><circle cx="1024" cy="814" r="5" fill="green" stroke="none" /><circle cx="444" cy="327" r="5" fill="green" stroke="none" /><circle cx="1016" cy="595" r="5" fill="green" stroke="none" /><circle cx="2369" cy="800" r="5" fill="green" stroke="none" /><circle cx="994" cy="542" r="5" fill="green" stroke="none" /><circle cx="1531" cy="414" r="5" fill="green" stroke="none" /><circle cx="1997" cy="416" r="5" fill="green" stroke="none" /><circle cx="1372" cy="571" r="5" fill="green" stroke="none" /><circle cx="1196" cy="126" r="5" fill="green" stroke="none" /><circle cx="2190" cy="396" r="5" fill="green" stroke="none" /><circle cx="2086" cy="403" r="5" fill="green" stroke="none" /><circle cx="1296" cy="611" r="5" fill="green" stroke="none" /><circle cx="1171" cy="450" r="5" fill="green" stroke="none" /><circle cx="1453" cy="202" r="5" fill="green" stroke="none" /><circle cx="2291" cy="398" r="5" fill="green" stroke="none" /><circle cx="1630" cy="1052" r="5" fill="green" stroke="none" /><circle cx="2306" cy="205" r="5" fill="green" stroke="none" /><circle cx="599" cy="199" r="5" fill="green" stroke="none" /><circle cx="1468" cy="931" r="5" fill="green" stroke="none" /><circle cx="1324" cy="699" r="5" fill="green" stroke="none" /><circle cx="328" cy="392" r="5" fill="green" stroke="none" /><circle cx="229" cy="657" r="5" fill="green" stroke="none" /><circle cx="884" cy="594" r="5" fill="green" stroke="none" /><circle cx="1988" cy="420" r="5" fill="green" stroke="none" /><circle cx="1172" cy="78" r="5" fill="green" stroke="none" /><circle cx="223" cy="904" r="5" fill="green" stroke="none" /><circle cx="698" cy="703" r="5" fill="green" stroke="none" /><circle cx="245" cy="728" r="5" fill="green" stroke="none" /><circle cx="1267" cy="371" r="5" fill="green" stroke="none" /><circle cx="1559" cy="911" r="5" fill="green" stroke="none" /><circle cx="723" cy="106" r="5" fill="green" stroke="none" /><circle cx="1406" cy="731" r="5" fill="green" stroke="none" /><circle cx="482" cy="632" r="5" fill="green" stroke="none" /><circle cx="222" cy="964" r="5" fill="green" stroke="none" /><circle cx="1059" cy="791" r="5" fill="green" stroke="none" /><circle cx="854" cy="1053" r="5" fill="green" stroke="none" /><circle cx="1947" cy="429" r="5" fill="green" stroke="none" /><circle cx="815" cy="125" r="5" fill="green" stroke="none" /><circle cx="2313" cy="102" r="5" fill="green" stroke="none" /><circle cx="1845" cy="820" r="5" fill="green" stroke="none" /><circle cx="1620" cy="669" r="5" fill="green" stroke="none" /><circle cx="1070" cy="937" r="5" fill="green" stroke="none" /><circle cx="1015" cy="112" r="5" fill="green" stroke="none" /><circle cx="2073" cy="214" r="5" fill="green" stroke="none" /><circle cx="132" cy="533" r="5" fill="green" stroke="none" /><circle cx="648" cy="263" r="5" fill="green" stroke="none" /><circle cx="395" cy="331" r="5" fill="green" stroke="none" /><circle cx="996" cy="627" r="5" fill="green" stroke="none" /><circle cx="1124" cy="1035" r="5" fill="green" stroke="none" /><circle cx="93" cy="962" r="5" fill="green" stroke="none" /><circle cx="643" cy="113" r="5" fill="green" stroke="none" /><circle cx="2354" cy="794" r="5" fill="green" stroke="none" /><circle cx="75" cy="449" r="5" fill="green" stroke="none" /><circle cx="298" cy="128" r="5" fill="green" stroke="none" /><circle cx="2076" cy="1004" r="5" fill="green" stroke="none" /><circle cx="420" cy="172" r="5" fill="green" stroke="none" /><circle cx="257" cy="160" r="5" fill="green" stroke="none" /><circle cx="178" cy="147" r="5" fill="green" stroke="none" /><circle cx="1245" cy="394" r="5" fill="green" stroke="none" /><circle cx="146" cy="470" r="5" fill="green" stroke="none" /><circle cx="375" cy="756" r="5" fill="green" stroke="none" /><circle cx="1402" cy="955" r="5" fill="green" stroke="none" /><circle cx="428" cy="887" r="5" fill="green" stroke="none" /><circle cx="1878" cy="35" r="5" fill="green" stroke="none" /><circle cx="798" cy="107" r="5" fill="green" stroke="none" /><circle cx="269" cy="712" r="5" fill="green" stroke="none" /><circle cx="1919" cy="96" r="5" fill="green" stroke="none" /><circle cx="534" cy="239" r="5" fill="green" stroke="none" /><circle cx="956" cy="1064" r="5" fill="green" stroke="none" /><circle cx="1228" cy="280" r="5" fill="green" stroke="none" /><circle cx="1121" cy="113" r="5" fill="green" stroke="none" /><circle cx="309" cy="309" r="5" fill="green" stroke="none" /><circle cx="546" cy="944" r="5" fill="green" stroke="none" /><circle cx="293" cy="869" r="5" fill="green" stroke="none" /><circle cx="1175" cy="725" r="5" fill="green" stroke="none" /><circle cx="1511" cy="314" r="5" fill="green" stroke="none" /><circle cx="1575" cy="894" r="5" fill="green" stroke="none" /><circle cx="1758" cy="961" r="5" fill="green" stroke="none" /><circle cx="818" cy="686" r="5" fill="green" stroke="none" /><circle cx="118" cy="997" r="5" fill="green" stroke="none" /><circle cx="1381" cy="109" r="5" fill="green" stroke="none" /><circle cx="992" cy="433" r="5" fill="green" stroke="none" /><circle cx="647" cy="511" r="5" fill="green" stroke="none" /><circle cx="2028" cy="329" r="5" fill="green" stroke="none" /><circle cx="1759" cy="162" r="5" fill="green" stroke="none" /><circle cx="279" cy="257" r="5" fill="green" stroke="none" /><circle cx="209" cy="554" r="5" fill="green" stroke="none" /><circle cx="877" cy="766" r="5" fill="green" stroke="none" /><circle cx="2162" cy="856" r="5" fill="green" stroke="none" /><circle cx="1610" cy="147" r="5" fill="green" stroke="none" /><circle cx="1482" cy="484" r="5" fill="green" stroke="none" /><circle cx="2272" cy="395" r="5" fill="green" stroke="none" /><circle cx="849" cy="77" r="5" fill="green" stroke="none" /><circle cx="423" cy="999" r="5" fill="green" stroke="none" /><circle cx="873" cy="432" r="5" fill="green" stroke="none" /><circle cx="271" cy="105" r="5" fill="green" stroke="none" /><circle cx="2173" cy="109" r="5" fill="green" stroke="none" /><circle cx="116" cy="75" r="5" fill="green" stroke="none" /><circle cx="1921" cy="361" r="5" fill="green" stroke="none" /><circle cx="731" cy="904" r="5" fill="green" stroke="none" /><circle cx="1149" cy="615" r="5" fill="green" stroke="none" /><circle cx="587" cy="373" r="5" fill="green" stroke="none" /><circle cx="858" cy="667" r="5" fill="green" stroke="none" /><circle cx="1880" cy="268" r="5" fill="green" stroke="none" /><circle cx="1110" cy="290" r="5" fill="green" stroke="none" /><circle cx="1774" cy="96" r="5" fill="green" stroke="none" /><circle cx="943" cy="466" r="5" fill="green" stroke="none" /><circle cx="1281" cy="945" r="5" fill="green" stroke="none" /><circle cx="602" cy="654" r="5" fill="green" stroke="none" /><circle cx="887" cy="842" r="5" fill="green" stroke="none" /><circle cx="1640" cy="372" r="5" fill="green" stroke="none" /><circle cx="1403" cy="595" r="5" fill="green" stroke="none" /><circle cx="1031" cy="673" r="5" fill="green" stroke="none" /><circle cx="699" cy="220" r="5" fill="green" stroke="none" /><circle cx="97" cy="123" r="5" fill="green" stroke="none" /><circle cx="1391" cy="115" r="5" fill="green" stroke="none" /><circle cx="1357" cy="1017" r="5" fill="green" stroke="none" /><circle cx="1760" cy="833" r="5" fill="green" stroke="none" /><circle cx="958" cy="723" r="5" fill="green" stroke="none" /><circle cx="40" cy="1049" r="5" fill="green" stroke="none" /><circle cx="95" cy="858" r="5" fill="green" stroke="none" /><circle cx="2206" cy="804" r="5" fill="green" stroke="none" /><circle cx="355" cy="73" r="5" fill="green" stroke="none" /><circle cx="1225" cy="1074" r="5" fill="green" stroke="none" /><circle cx="453" cy="34" r="5" fill="green" stroke="none" /><circle cx="2249" cy="353" r="5" fill="green" stroke="none" /><circle cx="2207" cy="297" r="5" fill="green" stroke="none" /><circle cx="2188" cy="909" r="5" fill="green" stroke="none" /><circle cx="2229" cy="216" r="5" fill="green" stroke="none" /><circle cx="1097" cy="354" r="5" fill="green" stroke="none" /><circle cx="1160" cy="686" r="5" fill="green" stroke="none" /><circle cx="880" cy="1070" r="5" fill="green" stroke="none" /><circle cx="2239" cy="296" r="5" fill="green" stroke="none" /><circle cx="880" cy="113" r="5" fill="green" stroke="none" /><circle cx="416" cy="842" r="5" fill="green" stroke="none" /><circle cx="1805" cy="58" r="5" fill="green" stroke="none" /><circle cx="754" cy="1063" r="5" fill="green" stroke="none" /><circle cx="405" cy="971" r="5" fill="green" stroke="none" /><circle cx="1126" cy="94" r="5" fill="green" stroke="none" /><circle cx="678" cy="279" r="5" fill="green" stroke="none" /><circle cx="1016" cy="1098" r="5" fill="green" stroke="none" /><circle cx="34" cy="726" r="5" fill="green" stroke="none" /><circle cx="1397" cy="793" r="5" fill="green" stroke="none" /><circle cx="1093" cy="1083" r="5" fill="green" stroke="none" /><circle cx="2174" cy="934" r="5" fill="green" stroke="none" /><circle cx="1200" cy="449" r="5" fill="green" stroke="none" /><circle cx="1682" cy="547" r="5" fill="green" stroke="none" /><circle cx="1569" cy="468" r="5" fill="green" stroke="none" /><circle cx="1655" cy="743" r="5" fill="green" stroke="none" /><circle cx="1002" cy="689" r="5" fill="green" stroke="none" /><circle cx="1562" cy="871" r="5" fill="green" stroke="none" /><circle cx="842" cy="439" r="5" fill="green" stroke="none" /><circle cx="1954" cy="222" r="5" fill="green" stroke="none" /><circle cx="1927" cy="325" r="5" fill="green" stroke="none" /><circle cx="1933" cy="8" r="5" fill="green" stroke="none" /><circle cx="1642" cy="1009" r="5" fill="green" stroke="none" /><circle cx="1348" cy="90" r="5" fill="green" stroke="none" /><circle cx="988" cy="805" r="5" fill="green" stroke="none" /><circle cx="621" cy="735" r="5" fill="green" stroke="none" /><circle cx="648" cy="835" r="5" fill="green" stroke="none" /><circle cx="1522" cy="324" r="5" fill="green" stroke="none" /><circle cx="1000" cy="586" r="5" fill="green" stroke="none" /><circle cx="1331" cy="492" r="5" fill="green" stroke="none" /><circle cx="130" cy="441" r="5" fill="green" stroke="none" /><circle cx="2283" cy="169" r="5" fill="green" stroke="none" /><circle cx="1380" cy="312" r="5" fill="green" stroke="none" /><circle cx="1501" cy="924" r="5" fill="green" stroke="none" /><circle cx="1485" cy="91" r="5" fill="green" stroke="none" /><circle cx="1687" cy="1020" r="5" fill="green" stroke="none" /><circle cx="1746" cy="456" r="5" fill="green" stroke="none" /><circle cx="2239" cy="408" r="5" fill="green" stroke="none" /><circle cx="2039" cy="1080" r="5" fill="green" stroke="none" /><circle cx="783" cy="830" r="5" fill="green" stroke="none" /><circle cx="145" cy="367" r="5" fill="green" stroke="none" /><circle cx="1242" cy="1094" r="5" fill="green" stroke="none" /><circle cx="2361" cy="397" r="5" fill="green" stroke="none" /><circle cx="1428" cy="228" r="5" fill="green" stroke="none" /><circle cx="1047" cy="678" r="5" fill="green" stroke="none" /><circle cx="2284" cy="482" r="5" fill="green" stroke="none" /><circle cx="584" cy="993" r="5" fill="green" stroke="none" /><circle cx="2330" cy="241" r="5" fill="green" stroke="none" /><circle cx="1778" cy="476" r="5" fill="green" stroke="none" /><circle cx="1946" cy="13" r="5" fill="green" stroke="none" /><circle cx="1981" cy="471" r="5" fill="green" stroke="none" /><circle cx="1721" cy="157" r="5" fill="green" stroke="none" /><circle cx="1579" cy="290" r="5" fill="green" stroke="none" /><circle cx="159" cy="413" r="5" fill="green" stroke="none" /><circle cx="38" cy="1034" r="5" fill="green" stroke="none" /><circle cx="727" cy="1006" r="5" fill="green" stroke="none" /><circle cx="1679" cy="351" r="5" fill="green" stroke="none" /><circle cx="392" cy="138" r="5" fill="green" stroke="none" /><circle cx="586" cy="555" r="5" fill="green" stroke="none" /><circle cx="397" cy="355" r="5" fill="green" stroke="none" /><circle cx="0" cy="429" r="5" fill="green" stroke="none" /><circle cx="893" cy="1045" r="5" fill="green" stroke="none" /><circle cx="1336" cy="644" r="5" fill="green" stroke="none" /><circle cx="1508" cy="798" r="5" fill="green" stroke="none" /><circle cx="1276" cy="878" r="5" fill="green" stroke="none" /><circle cx="1494" cy="272" r="5" fill="green" stroke="none" /><circle cx="1272" cy="371" r="5" fill="green" stroke="none" /><circle cx="1435" cy="224" r="5" fill="green" stroke="none" /><circle cx="1043" cy="115" r="5" fill="green" stroke="none" /><circle cx="1288" cy="226" r="5" fill="green" stroke="none" /><circle cx="435" cy="991" r="5" fill="green" stroke="none" /><circle cx="1290" cy="92" r="5" fill="green" stroke="none" /><circle cx="894" cy="516" r="5" fill="green" stroke="none" /><circle cx="96" cy="893" r="5" fill="green" stroke="none" /><circle cx="1364" cy="164" r="5" fill="green" stroke="none" /><circle cx="1127" cy="585" r="5" fill="green" stroke="none" /><circle cx="2020" cy="311" r="5" fill="green" stroke="none" /><circle cx="1259" cy="290" r="5" fill="green" stroke="none" /><circle cx="1771" cy="778" r="5" fill="green" stroke="none" /><circle cx="2084" cy="890" r="5" fill="green" stroke="none" /><circle cx="74" cy="995" r="5" fill="green" stroke="none" /><circle cx="572" cy="335" r="5" fill="green" stroke="none" /><circle cx="710" cy="66" r="5" fill="green" stroke="none" /><circle cx="1973" cy="129" r="5" fill="green" stroke="none" /><circle cx="466" cy="65" r="5" fill="green" stroke="none" /><circle cx="1348" cy="439" r="5" fill="green" stroke="none" /><circle cx="1899" cy="945" r="5" fill="green" stroke="none" /><circle cx="2052" cy="297" r="5" fill="green" stroke="none" /><circle cx="1256" cy="7" r="5" fill="green" stroke="none" /><circle cx="443" cy="777" r="5" fill="green" stroke="none" /><circle cx="79" cy="495" r="5" fill="green" stroke="none" /><circle cx="215" cy="612" r="5" fill="green" stroke="none" /><circle cx="837" cy="181" r="5" fill="green" stroke="none" /><circle cx="495" cy="546" r="5" fill="green" stroke="none" /><circle cx="668" cy="561" r="5" fill="green" stroke="none" /><circle cx="851" cy="134" r="5" fill="green" stroke="none" /><circle cx="311" cy="436" r="5" fill="green" stroke="none" /><circle cx="1355" cy="305" r="5" fill="green" stroke="none" /><circle cx="1519" cy="179" r="5" fill="green" stroke="none" /><circle cx="1746" cy="126" r="5" fill="green" stroke="none" /><circle cx="1647" cy="615" r="5" fill="green" stroke="none" /><circle cx="937" cy="483" r="5" fill="green" stroke="none" /><circle cx="734" cy="174" r="5" fill="green" stroke="none" /><circle cx="1630" cy="865" r="5" fill="green" stroke="none" /><circle cx="484" cy="637" r="5" fill="green" stroke="none" /><circle cx="561" cy="415" r="5" fill="green" stroke="none" /><circle cx="998" cy="1075" r="5" fill="green" stroke="none" /><circle cx="804" cy="370" r="5" fill="green" stroke="none" /><circle cx="1178" cy="440" r="5" fill="green" stroke="none" /><circle cx="833" cy="878" r="5" fill="green" stroke="none" /><circle cx="1189" cy="74" r="5" fill="green" stroke="none" /><circle cx="375" cy="766" r="5" fill="green" stroke="none" /><circle cx="2138" cy="9" r="5" fill="green" stroke="none" /><circle cx="1968" cy="314" r="5" fill="green" stroke="none" /><circle cx="1000" cy="647" r="5" fill="green" stroke="none" /><circle cx="436" cy="245" r="5" fill="green" stroke="none" /><circle cx="1819" cy="799" r="5" fill="green" stroke="none" /><circle cx="2112" cy="194" r="5" fill="green" stroke="none" /><circle cx="2290" cy="354" r="5" fill="green" stroke="none" /><circle cx="734" cy="674" r="5" fill="green" stroke="none" /><circle cx="1329" cy="35" r="5" fill="green" stroke="none" /><circle cx="810" cy="333" r="5" fill="green" stroke="none" /><circle cx="2244" cy="472" r="5" fill="green" stroke="none" /><circle cx="1483" cy="1012" r="5" fill="green" stroke="none" /><circle cx="2009" cy="377" r="5" fill="green" stroke="none" /><circle cx="431" cy="10" r="5" fill="green" stroke="none" /><circle cx="1356" cy="251" r="5" fill="green" stroke="none" /><circle cx="1219" cy="547" r="5" fill="green" stroke="none" /><circle cx="863" cy="647" r="5" fill="green" stroke="none" /><circle cx="783" cy="682" r="5" fill="green" stroke="none" /><circle cx="2166" cy="83" r="5" fill="green" stroke="none" /><circle cx="1704" cy="409" r="5" fill="green" stroke="none" /><circle cx="1002" cy="851" r="5" fill="green" stroke="none" /><circle cx="635" cy="944" r="5" fill="green" stroke="none" /><circle cx="2347" cy="993" r="5" fill="green" stroke="none" /><circle cx="1799" cy="1068" r="5" fill="green" stroke="none" /><circle cx="701" cy="458" r="5" fill="green" stroke="none" /><circle cx="1760" cy="40" r="5" fill="green" stroke="none" /><circle cx="1485" cy="976" r="5" fill="green" stroke="none" /><circle cx="774" cy="994" r="5" fill="green" stroke="none" /><circle cx="302" cy="930" r="5" fill="green" stroke="none" /><circle cx="16" cy="1062" r="5" fill="green" stroke="none" /><circle cx="384" cy="117" r="5" fill="green" stroke="none" /><circle cx="87" cy="13" r="5" fill="green" stroke="none" /><circle cx="1673" cy="1050" r="5" fill="green" stroke="none" /><circle cx="4" cy="669" r="5" fill="green" stroke="none" /><circle cx="139" cy="570" r="5" fill="green" stroke="none" /><circle cx="2368" cy="768" r="5" fill="green" stroke="none" /><circle cx="178" cy="1022" r="5" fill="green" stroke="none" /><circle cx="739" cy="885" r="5" fill="green" stroke="none" /><circle cx="1534" cy="339" r="5" fill="green" stroke="none" /><circle cx="1678" cy="697" r="5" fill="green" stroke="none" /><circle cx="256" cy="713" r="5" fill="green" stroke="none" /><circle cx="1046" cy="862" r="5" fill="green" stroke="none" /><circle cx="835" cy="765" r="5" fill="green" stroke="none" /><circle cx="2181" cy="99" r="5" fill="green" stroke="none" /><circle cx="1238" cy="977" r="5" fill="green" stroke="none" /><circle cx="311" cy="659" r="5" fill="green" stroke="none" /><circle cx="876" cy="879" r="5" fill="green" stroke="none" /><circle cx="244" cy="874" r="5" fill="green" stroke="none" /><circle cx="123" cy="166" r="5" fill="green" stroke="none" /><circle cx="1469" cy="1015" r="5" fill="green" stroke="none" /><circle cx="261" cy="153" r="5" fill="green" stroke="none" /><circle cx="1801" cy="250" r="5" fill="green" stroke="none" /><circle cx="953" cy="552" r="5" fill="green" stroke="none" /><circle cx="1706" cy="544" r="5" fill="green" stroke="none" /><circle cx="2223" cy="948" r="5" fill="green" stroke="none" /><circle cx="1153" cy="197" r="5" fill="green" stroke="none" /><circle cx="2068" cy="1048" r="5" fill="green" stroke="none" /><circle cx="1813" cy="362" r="5" fill="green" stroke="none" /><circle cx="1470" cy="94" r="5" fill="green" stroke="none" /><circle cx="1858" cy="452" r="5" fill="green" stroke="none" /><circle cx="845" cy="273" r="5" fill="green" stroke="none" /><circle cx="28" cy="594" r="5" fill="green" stroke="none" /><circle cx="1842" cy="931" r="5" fill="green" stroke="none" /><circle cx="1138" cy="135" r="5" fill="green" stroke="none" /><circle cx="2044" cy="376" r="5" fill="green" stroke="none" /><circle cx="583" cy="1091" r="5" fill="green" stroke="none" /><circle cx="265" cy="802" r="5" fill="green" stroke="none" /><circle cx="924" cy="664" r="5" fill="green" stroke="none" /><circle cx="1282" cy="661" r="5" fill="green" stroke="none" /><circle cx="29" cy="302" r="5" fill="green" stroke="none" /><circle cx="1965" cy="828" r="5" fill="green" stroke="none" /><circle cx="1059" cy="240" r="5" fill="green" stroke="none" /><circle cx="1672" cy="1064" r="5" fill="green" stroke="none" /><circle cx="315" cy="1051" r="5" fill="green" stroke="none" /><circle cx="756" cy="716" r="5" fill="green" stroke="none" /><circle cx="467" cy="156" r="5" fill="green" stroke="none" /><circle cx="821" cy="739" r="5" fill="green" stroke="none" /><circle cx="592" cy="507" r="5" fill="green" stroke="none" /><circle cx="2005" cy="45" r="5" fill="green" stroke="none" /><circle cx="332" cy="784" r="5" fill="green" stroke="none" /><circle cx="535" cy="491" r="5" fill="green" stroke="none" /><circle cx="573" cy="350" r="5" fill="green" stroke="none" /><circle cx="122" cy="436" r="5" fill="green" stroke="none" /><circle cx="1187" cy="807" r="5" fill="green" stroke="none" /><circle cx="1259" cy="442" r="5" fill="green" stroke="none" /><circle cx="1813" cy="900" r="5" fill="green" stroke="none" /><circle cx="1118" cy="442" r="5" fill="green" stroke="none" /><circle cx="1892" cy="255" r="5" fill="green" stroke="none" /><circle cx="1390" cy="593" r="5" fill="green" stroke="none" /><circle cx="1355" cy="240" r="5" fill="green" stroke="none" /><circle cx="1780" cy="939" r="5" fill="green" stroke="none" /><circle cx="268" cy="402" r="5" fill="green" stroke="none" /><circle cx="939" cy="220" r="5" fill="green" stroke="none" /><circle cx="1704" cy="355" r="5" fill="green" stroke="none" /><circle cx="402" cy="764" r="5" fill="green" stroke="none" /><circle cx="411" cy="251" r="5" fill="green" stroke="none" /><circle cx="1038" cy="670" r="5" fill="green" stroke="none" /><circle cx="538" cy="81" r="5" fill="green" stroke="none" /><circle cx="1313" cy="407" r="5" fill="green" stroke="none" /><circle cx="759" cy="609" r="5" fill="green" stroke="none" /><circle cx="1900" cy="200" r="5" fill="green" stroke="none" /><circle cx="1647" cy="1002" r="5" fill="green" stroke="none" /><circle cx="226" cy="837" r="5" fill="green" stroke="none" /><circle cx="2246" cy="1078" r="5" fill="green" stroke="none" /><circle cx="1066" cy="67" r="5" fill="green" stroke="none" /><circle cx="651" cy="343" r="5" fill="green" stroke="none" /><circle cx="983" cy="701" r="5" fill="green" stroke="none" /><circle cx="1663" cy="802" r="5" fill="green" stroke="none" /><circle cx="2149" cy="971" r="5" fill="green" stroke="none" /><circle cx="186" cy="1082" r="5" fill="green" stroke="none" /><circle cx="1569" cy="559" r="5" fill="green" stroke="none" /><circle cx="1832" cy="956" r="5" fill="green" stroke="none" /><circle cx="260" cy="1066" r="5" fill="green" stroke="none" /><circle cx="2212" cy="377" r="5" fill="green" stroke="none" /><circle cx="575" cy="180" r="5" fill="green" stroke="none" /><circle cx="2172" cy="1053" r="5" fill="green" stroke="none" /><circle cx="1463" cy="599" r="5" fill="green" stroke="none" /><circle cx="1739" cy="373" r="5" fill="green" stroke="none" /><circle cx="147" cy="207" r="5" fill="green" stroke="none" /><circle cx="1509" cy="1024" r="5" fill="green" stroke="none" /><circle cx="466" cy="216" r="5" fill="green" stroke="none" /><circle cx="1378" cy="303" r="5" fill="green" stroke="none" /><circle cx="1297" cy="499" r="5" fill="green" stroke="none" /><circle cx="313" cy="310" r="5" fill="green" stroke="none" /><circle cx="2334" cy="871" r="5" fill="green" stroke="none" /><circle cx="499" cy="539" r="5" fill="green" stroke="none" /><circle cx="1055" cy="28" r="5" fill="green" stroke="none" /><circle cx="110" cy="196" r="5" fill="green" stroke="none" /><circle cx="446" cy="924" r="5" fill="green" stroke="none" /><circle cx="998" cy="162" r="5" fill="green" stroke="none" /><circle cx="956" cy="1075" r="5" fill="green" stroke="none" /><circle cx="2315" cy="1056" r="5" fill="green" stroke="none" /><circle cx="1450" cy="172" r="5" fill="green" stroke="none" /><circle cx="1065" cy="1094" r="5" fill="green" stroke="none" /><circle cx="934" cy="518" r="5" fill="green" stroke="none" /><circle cx="217" cy="118" r="5" fill="green" stroke="none" /><circle cx="1810" cy="66" r="5" fill="green" stroke="none" /><circle cx="594" cy="872" r="5" fill="green" stroke="none" /><circle cx="787" cy="64" r="5" fill="green" stroke="none" /><circle cx="1922" cy="231" r="5" fill="green" stroke="none" /><circle cx="1321" cy="983" r="5" fill="green" stroke="none" /><circle cx="1169" cy="54" r="5" fill="green" stroke="none" /><circle cx="336" cy="860" r="5" fill="green" stroke="none" /><circle cx="1431" cy="632" r="5" fill="green" stroke="none" /><circle cx="1547" cy="758" r="5" fill="green" stroke="none" /><circle cx="303" cy="853" r="5" fill="green" stroke="none" /><circle cx="871" cy="425" r="5" fill="green" stroke="none" /><circle cx="1692" cy="714" r="5" fill="green" stroke="none" /><circle cx="2081" cy="78" r="5" fill="green" stroke="none" /><circle cx="1533" cy="976" r="5" fill="green" stroke="none" /><circle cx="819" cy="871" r="5" fill="green" stroke="none" /><circle cx="1470" cy="849" r="5" fill="green" stroke="none" /><circle cx="1416" cy="393" r="5" fill="green" stroke="none" /><circle cx="1729.0560416758656" cy="730.9840390739562" r="5" fill="blue" stroke="none" /><circle cx="2021.1931675837145" cy="508" r="5" fill="blue" stroke="none" /><circle cx="1828.7028071938105" cy="767" r="5" fill="blue" stroke="none" /><circle cx="1803.5694100594035" cy="767" r="5" fill="blue" stroke="none" /><circle cx="2266.013679102913" cy="767" r="5" fill="blue" stroke="none" /><circle cx="2186.1468299036915" cy="538.8646902195267" r="5" fill="blue" stroke="none" /><circle cx="2344.606086195654" cy="730.561980409323" r="5" fill="blue" stroke="none" /><circle cx="2128.280964802126" cy="534.5027199732957" r="5" fill="blue" stroke="none" /><circle cx="1739.4908698256586" cy="585.6404866318111" r="5" fill="blue" stroke="none" /><circle cx="1905.9401132026844" cy="517.5349630461425" r="5" fill="blue" stroke="none" /><circle cx="1929.0167961684106" cy="755.6815464958013" r="5" fill="blue" stroke="none" /><circle cx="2302.4764847655883" cy="512.6512156029917" r="5" fill="blue" stroke="none" /><circle cx="2293.6161733044623" cy="508" r="5" fill="blue" stroke="none" /><circle cx="1766.5580171321978" cy="517.6700338159801" r="5" fill="blue" stroke="none" /><circle cx="1743.9332401921884" cy="668.5115580070014" r="5" fill="blue" stroke="none" /><circle cx="2233.381806439433" cy="508" r="5" fill="blue" stroke="none" /><circle cx="1729" cy="554.6895811562467" r="5" fill="blue" stroke="none" /><circle cx="2216.0143233615095" cy="517.9826472897598" r="5" fill="blue" stroke="none" /><circle cx="1730.3227634838315" cy="666.7265753728166" r="5" fill="blue" stroke="none" /><circle cx="1938.5164728504155" cy="525.601908882576" r="5" fill="blue" stroke="none" /><circle cx="1816.9209283589119" cy="767" r="5" fill="blue" stroke="none" /><circle cx="2012.1531039035342" cy="513.8505646624637" r="5" fill="blue" stroke="none" /><circle cx="1868.2482168911172" cy="515.6185085337778" r="5" fill="blue" stroke="none" /><circle cx="1885.0562359868925" cy="517.9448206664609" r="5" fill="blue" stroke="none" /><circle cx="1738.5303395854735" cy="535.652724635701" r="5" fill="blue" stroke="none" /><circle cx="2157.3185611554095" cy="767" r="5" fill="blue" stroke="none" /><circle cx="2209.30206693691" cy="767" r="5" fill="blue" stroke="none" /><circle cx="1996.8990620276272" cy="762.6347604051547" r="5" fill="blue" stroke="none" /><circle cx="2274.559273554821" cy="758.7160205393795" r="5" fill="blue" stroke="none" /><circle cx="1741.1534448514863" cy="729.3931651487097" r="5" fill="blue" stroke="none" /><circle cx="2117.254238364629" cy="763.5916015749622" r="5" fill="blue" stroke="none" /><circle cx="1980.7011151760114" cy="518.0859811584327" r="5" fill="blue" stroke="none" /><circle cx="1731.8145691148802" cy="564.307752993722" r="5" fill="blue" stroke="none" /><circle cx="1787.2816193943468" cy="741.0888128193809" r="5" fill="blue" stroke="none" /><circle cx="1735.7016954611422" cy="762.8409784199362" r="5" fill="blue" stroke="none" /><circle cx="1827.4038697479489" cy="519.2782268336605" r="5" fill="blue" stroke="none" /><circle cx="1889.0831805658604" cy="758.0835824989447" r="5" fill="blue" stroke="none" /><circle cx="2177.703134453873" cy="510.1804522788568" r="5" fill="blue" stroke="none" /><circle cx="2343.795970127241" cy="701.88611016701" r="5" fill="blue" stroke="none" /><circle cx="2342.651256621059" cy="756.9031025299416" r="5" fill="blue" stroke="none" /><circle cx="2283.4373355014372" cy="508" r="5" fill="blue" stroke="none" /><circle cx="1729" cy="543.2679625786635" r="5" fill="blue" stroke="none" /><circle cx="2178.897510719481" cy="759.2129356586727" r="5" fill="blue" stroke="none" /><circle cx="2064.552544880149" cy="534.2236545301738" r="5" fill="blue" stroke="none" /><circle cx="2127.790420439491" cy="760.6941758681511" r="5" fill="blue" stroke="none" /><circle cx="1984.5845344828438" cy="767" r="5" fill="blue" stroke="none" /><circle cx="1729.422357955406" cy="509.27474457215146" r="5" fill="blue" stroke="none" /><circle cx="1763.9980165343575" cy="508" r="5" fill="blue" stroke="none" /><circle cx="1901.5481478401116" cy="761.789834675408" r="5" fill="blue" stroke="none" /><circle cx="2243.701343956824" cy="767" r="5" fill="blue" stroke="none" /><circle cx="1948.3963395112726" cy="523.6198377566002" r="5" fill="blue" stroke="none" /><circle cx="2160.1270457487926" cy="536.1550827052241" r="5" fill="blue" stroke="none" /><circle cx="2002.852394698094" cy="508" r="5" fill="blue" stroke="none" /><circle cx="1739.384659114113" cy="596.4251000836937" r="5" fill="blue" stroke="none" /><circle cx="1736.2386609661637" cy="573.5499647992825" r="5" fill="blue" stroke="none" /><circle cx="1931.33460632845" cy="539.0123222222765" r="5" fill="blue" stroke="none" /><circle cx="1886.6006340927079" cy="508" r="5" fill="blue" stroke="none" /><circle cx="1848.475342413082" cy="756.9720090385276" r="5" fill="blue" stroke="none" /><circle cx="1962.4941081159425" cy="766.7701158902538" r="5" fill="blue" stroke="none" /><circle cx="1729" cy="715.6760972921743" r="5" fill="blue" stroke="none" /><circle cx="2276.232578797545" cy="517.5508900277134" r="5" fill="blue" stroke="none" /><circle cx="2337.4818158107964" cy="747.3549274590638" r="5" fill="blue" stroke="none" /><circle cx="2043.2006024328662" cy="763.4285826907474" r="5" fill="blue" stroke="none" /><circle cx="2060.1716760336853" cy="508.28205456453907" r="5" fill="blue" stroke="none" /><circle cx="2236.460824760015" cy="520.8836707298861" r="5" fill="blue" stroke="none" /><circle cx="1876.481105162384" cy="762.0226140419466" r="5" fill="blue" stroke="none" /><circle cx="1787.756447843944" cy="508" r="5" fill="blue" stroke="none" /><circle cx="2215.390198624847" cy="508" r="5" fill="blue" stroke="none" /><circle cx="1810.061677994747" cy="759.3759223017003" r="5" fill="blue" stroke="none" /><circle cx="1922.7576529488529" cy="513.1200739893287" r="5" fill="blue" stroke="none" /><circle cx="1729" cy="532.5820521854644" r="5" fill="blue" stroke="none" /><circle cx="1738.089384467602" cy="706.0917208838982" r="5" fill="blue" stroke="none" /><circle cx="1959.9987420871712" cy="510.81925866126414" r="5" fill="blue" stroke="none" /><circle cx="2219.7953453235314" cy="767" r="5" fill="blue" stroke="none" /><circle cx="1798.250245498329" cy="756.0377560774273" r="5" fill="blue" stroke="none" /><circle cx="2110.2487974685005" cy="522.5378465805517" r="5" fill="blue" stroke="none" /><circle cx="1847.0055381429756" cy="508" r="5" fill="blue" stroke="none" /><circle cx="1955.1961049617591" cy="531.0733447605141" r="5" fill="blue" stroke="none" /><circle cx="2189.9399882131925" cy="758.1980499240253" r="5" fill="blue" stroke="none" /><circle cx="1855.7603448148209" cy="767" r="5" fill="blue" stroke="none" /><circle cx="1875.0369404637029" cy="508.24827254639206" r="5" fill="blue" stroke="none" /><circle cx="1867.7590624730522" cy="767" r="5" fill="blue" stroke="none" /><circle cx="2310.4408916379" cy="767" r="5" fill="blue" stroke="none" /><circle cx="2185.1900922362834" cy="767" r="5" fill="blue" stroke="none" /><circle cx="2060.337216632348" cy="764.3964269968378" r="5" fill="blue" stroke="none" /><circle cx="1733.7581016074134" cy="655.486127756782" r="5" fill="blue" stroke="none" /><circle cx="1787.8115939844945" cy="757.1043565951245" r="5" fill="blue" stroke="none" /><circle cx="2297.1075696156513" cy="766.3829051482917" r="5" fill="blue" stroke="none" /><circle cx="1840.0670966920552" cy="766.7266033312214" r="5" fill="blue" stroke="none" /><circle cx="1774.4166782020186" cy="508" r="5" fill="blue" stroke="none" /><circle cx="2036.5347624054975" cy="734.0845422023825" r="5" fill="blue" stroke="none" /><circle cx="2343.802716247227" cy="508" r="5" fill="blue" stroke="none" /><circle cx="2025.1341110121932" cy="520.517534633556" r="5" fill="blue" stroke="none" /><circle cx="1921.3322652258707" cy="766.3272121502848" r="5" fill="blue" stroke="none" /><circle cx="1746.8476634651702" cy="515.4244093986924" r="5" fill="blue" stroke="none" /><circle cx="2325.8070871564078" cy="758.08507410381" r="5" fill="blue" stroke="none" /><circle cx="1757.5127338133993" cy="755.0208970969414" r="5" fill="blue" stroke="none" /><circle cx="2087.070932940466" cy="523.7572027679835" r="5" fill="blue" stroke="none" /><circle cx="2322.0992886541007" cy="509.5416850541393" r="5" fill="blue" stroke="none" /><circle cx="1786.2682745337215" cy="767" r="5" fill="blue" stroke="none" /><circle cx="2273.1993118932533" cy="508" r="5" fill="blue" stroke="none" /><circle cx="2232.533414605551" cy="764.6516140619283" r="5" fill="blue" stroke="none" /><circle cx="1732.6469064765681" cy="523.2380853498752" r="5" fill="blue" stroke="none" /><circle cx="2153.2454568402345" cy="756.6152652124665" r="5" fill="blue" stroke="none" /><circle cx="2098.6912276957178" cy="522.4781233192323" r="5" fill="blue" stroke="none" /><circle cx="2085.5533360728664" cy="766.8932190038947" r="5" fill="blue" stroke="none" /><circle cx="2345" cy="740.6384370412374" r="5" fill="blue" stroke="none" /><circle cx="1949.903053122042" cy="767" r="5" fill="blue" stroke="none" /><circle cx="1751.3542851299528" cy="726.4069598654917" r="5" fill="blue" stroke="none" /><circle cx="1859.5663982472056" cy="508.0714267331807" r="5" fill="blue" stroke="none" /><circle cx="2077.815882672439" cy="510.202311835808" r="5" fill="blue" stroke="none" /><circle cx="1868.9527967307993" cy="747.2835632383949" r="5" fill="blue" stroke="none" /><circle cx="1747.9761656212554" cy="684.7729984569651" r="5" fill="blue" stroke="none" /><circle cx="2184.6788420440457" cy="528.3869262863064" r="5" fill="blue" stroke="none" /><circle cx="1729" cy="592.869545522305" r="5" fill="blue" stroke="none" /><circle cx="1740.14484700223" cy="647.7638153259243" r="5" fill="blue" stroke="none" /><circle cx="2330.4518435693544" cy="767" r="5" fill="blue" stroke="none" /><circle cx="2047.9461463919647" cy="509.6032467966652" r="5" fill="blue" stroke="none" /><circle cx="2141.986008600061" cy="766.7304216520233" r="5" fill="blue" stroke="none" /><circle cx="1838.9276654984692" cy="516.6227487143842" r="5" fill="blue" stroke="none" /><circle cx="1729" cy="747.8731339381677" r="5" fill="blue" stroke="none" /><circle cx="1833.2857230046286" cy="758.0463686148298" r="5" fill="blue" stroke="none" /><circle cx="1781.078373401641" cy="515.4669034980382" r="5" fill="blue" stroke="none" /><circle cx="1748.2451893841599" cy="659.4634988634243" r="5" fill="blue" stroke="none" /><circle cx="1810.7107214212099" cy="513.0941758119098" r="5" fill="blue" stroke="none" /><circle cx="1822.695050723144" cy="758.8231824046047" r="5" fill="blue" stroke="none" /><circle cx="2332.118757039742" cy="508.37297125154157" r="5" fill="blue" stroke="none" /><circle cx="2021.6033024120604" cy="757.68209821778" r="5" fill="blue" stroke="none" /><circle cx="1798.1354292364413" cy="517.9255267587548" r="5" fill="blue" stroke="none" /><circle cx="2172.4281379671966" cy="767" r="5" fill="blue" stroke="none" /><circle cx="2232.131214290959" cy="754.6468155826799" r="5" fill="blue" stroke="none" /><circle cx="2311.662196085363" cy="508" r="5" fill="blue" stroke="none" /><circle cx="1750.2043841628201" cy="736.5951397568112" r="5" fill="blue" stroke="none" /><circle cx="1980.6959373537898" cy="757.5800370870023" r="5" fill="blue" stroke="none" /><circle cx="1911.8200070420673" cy="508" r="5" fill="blue" stroke="none" /><circle cx="1747.8612257309424" cy="767" r="5" fill="blue" stroke="none" /><circle cx="2254.80794443345" cy="764.5231979936941" r="5" fill="blue" stroke="none" /><circle cx="1744.3717162381372" cy="714.0528063387012" r="5" fill="blue" stroke="none" /><circle cx="1972.5899494760413" cy="767" r="5" fill="blue" stroke="none" /><circle cx="1731.684971316937" cy="633.3056364117597" r="5" fill="blue" stroke="none" /><circle cx="1971.7231266376014" cy="533.4962079016682" r="5" fill="blue" stroke="none" /><circle cx="2204.4403794452055" cy="526.1255616753307" r="5" fill="blue" stroke="none" /><circle cx="2334.333717831908" cy="737.7902673461037" r="5" fill="blue" stroke="none" /><circle cx="1962.614499115123" cy="520.8717133357206" r="5" fill="blue" stroke="none" /><circle cx="1939.7301757733526" cy="752.4633189271616" r="5" fill="blue" stroke="none" /><circle cx="2290.1783878584447" cy="517.4037711002513" r="5" fill="blue" stroke="none" /><circle cx="2260.2594281954566" cy="517.7336861101754" r="5" fill="blue" stroke="none" /><circle cx="2165.076131968146" cy="760.1192651672036" r="5" fill="blue" stroke="none" /><circle cx="1850.5002806519349" cy="517.4664977181866" r="5" fill="blue" stroke="none" /><circle cx="1857.9147352765174" cy="753.651128512082" r="5" fill="blue" stroke="none" /><circle cx="2340.51027723028" cy="767" r="5" fill="blue" stroke="none" /><circle cx="2017.5727787565315" cy="767" r="5" fill="blue" stroke="none" /><circle cx="1799.4966130935986" cy="508" r="5" fill="blue" stroke="none" /><circle cx="2173.891767312998" cy="533.0455014255425" r="5" fill="blue" stroke="none" /><circle cx="2198.4827800047956" cy="767" r="5" fill="blue" stroke="none" /><circle cx="2262.6815257143526" cy="508" r="5" fill="blue" stroke="none" /><circle cx="1729" cy="701.9210908998684" r="5" fill="blue" stroke="none" /><circle cx="2096.42702489194" cy="767" r="5" fill="blue" stroke="none" /><circle cx="2281.982342858322" cy="766.5138834760996" r="5" fill="blue" stroke="none" /><circle cx="1758.374330146295" cy="766.4604637827347" r="5" fill="blue" stroke="none" /><circle cx="2320.4488690270264" cy="766.8091998863403" r="5" fill="blue" stroke="none" /><circle cx="1733.7482766466942" cy="622.1817100889918" r="5" fill="blue" stroke="none" /><circle cx="1945.7666393615548" cy="508.13904828954" r="5" fill="blue" stroke="none" /><circle cx="2216.8770999728185" cy="757.4137768598935" r="5" fill="blue" stroke="none" /><circle cx="2097.944525820358" cy="752.0880449724987" r="5" fill="blue" stroke="none" /><circle cx="1967.8556776275598" cy="758.1634342377099" r="5" fill="blue" stroke="none" /><circle cx="1737.3085961456022" cy="607.8448742444983" r="5" fill="blue" stroke="none" /><circle cx="2345" cy="682.8473528630016" r="5" fill="blue" stroke="none" /><circle cx="1987.2922545956123" cy="508" r="5" fill="blue" stroke="none" /><circle cx="1995.286476307448" cy="514.5920708757686" r="5" fill="blue" stroke="none" /><circle cx="1737.5466908496446" cy="676.8495657890503" r="5" fill="blue" stroke="none" /><circle cx="1737.901199405708" cy="550.089664999654" r="5" fill="blue" stroke="none" /><circle cx="2096.0899446119556" cy="508" r="5" fill="blue" stroke="none" /><circle cx="1861.2378620073366" cy="524.2893647187874" r="5" fill="blue" stroke="none" /><circle cx="2251.4900909830885" cy="508" r="5" fill="blue" stroke="none" /><circle cx="2245.4003606709134" cy="757.1125780443559" r="5" fill="blue" stroke="none" /><circle cx="2224.901956498882" cy="513.3211608950916" r="5" fill="blue" stroke="none" /><circle cx="2134.35210056864" cy="508" r="5" fill="blue" stroke="none" /><circle cx="2313.253741318671" cy="517.8806312917454" r="5" fill="blue" stroke="none" /><circle cx="1919.1454681263415" cy="753.1179432392037" r="5" fill="blue" stroke="none" /><circle cx="2121.933409766739" cy="509.9581320582198" r="5" fill="blue" stroke="none" /><circle cx="2203.721040081078" cy="758.4802777122457" r="5" fill="blue" stroke="none" /><circle cx="1822.320685445129" cy="508.0799357686378" r="5" fill="blue" stroke="none" /><circle cx="2145.496271604563" cy="533.0258590484003" r="5" fill="blue" stroke="none" /><circle cx="2345" cy="719.7622852478823" r="5" fill="blue" stroke="none" /><circle cx="2045.086946988749" cy="536.3138337878528" r="5" fill="blue" stroke="none" /><circle cx="1729" cy="643.960413097049" r="5" fill="blue" stroke="none" /><circle cx="2151.3070049033436" cy="509.6039853251382" r="5" fill="blue" stroke="none" /><circle cx="1738.3441162973622" cy="687.5823790711561" r="5" fill="blue" stroke="none" /><circle cx="1729" cy="580.8436133826725" r="5" fill="blue" stroke="none" /><circle cx="1766.249344838229" cy="760.012269308791" r="5" fill="blue" stroke="none" /><circle cx="1729" cy="691.1853809219818" r="5" fill="blue" stroke="none" /><circle cx="2141.007788215016" cy="745.0297660386481" r="5" fill="blue" stroke="none" /><circle cx="2066.3111384405947" cy="749.9927203932136" r="5" fill="blue" stroke="none" /><circle cx="1896.021783293433" cy="514.9766087777346" r="5" fill="blue" stroke="none" /><circle cx="1753.9875589214337" cy="508" r="5" fill="blue" stroke="none" /><circle cx="1773.4072383863886" cy="767" r="5" fill="blue" stroke="none" /><circle cx="2059.8169244146816" cy="519.285681695634" r="5" fill="blue" stroke="none" /><circle cx="1975.5720411400755" cy="508" r="5" fill="blue" stroke="none" /><circle cx="2242.7387402580166" cy="512.9983080159991" r="5" fill="blue" stroke="none" /><circle cx="1955.1179489470433" cy="758.3565581152748" r="5" fill="blue" stroke="none" /></svg>