<svg viewBox="0 0 2159 1047" xmlns="http://www.w3.org/2000/svg"><rect x="0" y="0" width="2159" height="1047" fill="lightyellow" stroke="none "/><rect x="990" y="101" width="275" height="334" fill="white" stroke="black "/><circle cx="44" cy="429" r="5" fill="green" stroke="none" /><circle cx="1911" cy="735" r="5" fill="green" stroke="none" /><circle cx="189" cy="231" r="5" fill="green" stroke="none" /><circle cx="212" cy="737" r="5" fill="green" stroke="none" /><circle cx="640" cy="629" r="5" fill="green" stroke="none" /><circle cx="208" cy="751" r="5" fill="green" stroke="none" /><circle cx="332" cy="284" r="5" fill="green" stroke="none" /><circle cx="930" cy="535" r="5" fill="green" stroke="none" /><circle cx="1994" cy="805" r="5" fill="green" stroke="none" /><circle cx="1101" cy="805" r="5" fill="green" stroke="none" /><circle cx="1945" cy="143" r="5" fill="green" stroke="none" /><circle cx="1481" cy="768" r="5" fill="green" stroke="none" /><circle cx="1587" cy="860" r="5" fill="green" stroke="none" /><circle cx="994" cy="692" r="5" fill="green" stroke="none" /><circle cx="457" cy="665" r="5" fill="green" stroke="none" /><circle cx="2076" cy="649" r="5" fill="green" stroke="none" /><circle cx="703" cy="1009" r="5" fill="green" stroke="none" /><circle cx="1393" cy="380" r="5" fill="green" stroke="none" /><circle cx="91" cy="478" r="5" fill="green" stroke="none" /><circle cx="319" cy="753" r="5" fill="green" stroke="none" /><circle cx="262" cy="388" r="5" fill="green" stroke="none" /><circle cx="1912" cy="474" r="5" fill="green" stroke="none" /><circle cx="1687" cy="88" r="5" fill="green" stroke="none" /><circle cx="563" cy="162" r="5" fill="green" stroke="none" /><circle cx="1003" cy="18" r="5" fill="green" stroke="none" /><circle cx="1239" cy="577" r="5" fill="green" stroke="none" /><circle cx="986" cy="784" r="5" fill="green" stroke="none" /><circle cx="1884" cy="471" r="5" fill="green" stroke="none" /><circle cx="1685" cy="162" r="5" fill="green" stroke="none" /><circle cx="1563" cy="280" r="5" fill="green" stroke="none" /><circle cx="1491" cy="759" r="5" fill="green" stroke="none" /><circle cx="1899" cy="497" r="5" fill="green" stroke="none" /><circle cx="533" cy="321" r="5" fill="green" stroke="none" /><circle cx="232" cy="602" r="5" fill="green" stroke="none" /><circle cx="351" cy="607" r="5" fill="green" stroke="none" /><circle cx="389" cy="713" r="5" fill="green" stroke="none" /><circle cx="714" cy="912" r="5" fill="green" stroke="none" /><circle cx="312" cy="74" r="5" fill="green" stroke="none" /><circle cx="865" cy="1008" r="5" fill="green" stroke="none" /><circle cx="794" cy="994" r="5" fill="green" stroke="none" /><circle cx="281" cy="507" r="5" fill="green" stroke="none" /><circle cx="34" cy="398" r="5" fill="green" stroke="none" /><circle cx="889" cy="851" r="5" fill="green" stroke="none" /><circle cx="555" cy="115" r="5" fill="green" stroke="none" /><circle cx="1270" cy="590" r="5" fill="green" stroke="none" /><circle cx="607" cy="745" r="5" fill="green" stroke="none" /><circle cx="123" cy="775" r="5" fill="green" stroke="none" /><circle cx="1288" cy="740" r="5" fill="green" stroke="none" /><circle cx="14" cy="342" r="5" fill="green" stroke="none" /><circle cx="843" cy="855" r="5" fill="green" stroke="none" /><circle cx="1640" cy="310" r="5" fill="green" stroke="none" /><circle cx="2104" cy="469" r="5" fill="green" stroke="none" /><circle cx="426" cy="705" r="5" fill="green" stroke="none" /><circle cx="1781" cy="885" r="5" fill="green" stroke="none" /><circle cx="335" cy="335" r="5" fill="green" stroke="none" /><circle cx="545" cy="1018" r="5" fill="green" stroke="none" /><circle cx="1954" cy="6" r="5" fill="green" stroke="none" /><circle cx="500" cy="308" r="5" fill="green" stroke="none" /><circle cx="2023" cy="354" r="5" fill="green" stroke="none" /><circle cx="2122" cy="860" r="5" fill="green" stroke="none" /><circle cx="492" cy="42" r="5" fill="green" stroke="none" /><circle cx="1945" cy="544" r="5" fill="green" stroke="none" /><circle cx="1019" cy="465" r="5" fill="green" stroke="none" /><circle cx="764" cy="1032" r="5" fill="green" stroke="none" /><circle cx="560" cy="534" r="5" fill="green" stroke="none" /><circle cx="1289" cy="535" r="5" fill="green" stroke="none" /><circle cx="656" cy="416" r="5" fill="green" stroke="none" /><circle cx="2087" cy="84" r="5" fill="green" stroke="none" /><circle cx="1943" cy="643" r="5" fill="green" stroke="none" /><circle cx="1145" cy="566" r="5" fill="green" stroke="none" /><circle cx="1644" cy="320" r="5" fill="green" stroke="none" /><circle cx="307" cy="583" r="5" fill="green" stroke="none" /><circle cx="1733" cy="574" r="5" fill="green" stroke="none" /><circle cx="1440" cy="18" r="5" fill="green" stroke="none" /><circle cx="1400" cy="397" r="5" fill="green" stroke="none" /><circle cx="735" cy="233" r="5" fill="green" stroke="none" /><circle cx="1314" cy="909" r="5" fill="green" stroke="none" /><circle cx="451" cy="775" r="5" fill="green" stroke="none" /><circle cx="1172" cy="807" r="5" fill="green" stroke="none" /><circle cx="482" cy="965" r="5" fill="green" stroke="none" /><circle cx="922" cy="941" r="5" fill="green" stroke="none" /><circle cx="1573" cy="217" r="5" fill="green" stroke="none" /><circle cx="1072" cy="855" r="5" fill="green" stroke="none" /><circle cx="1393" cy="858" r="5" fill="green" stroke="none" /><circle cx="1305" cy="876" r="5" fill="green" stroke="none" /><circle cx="430" cy="967" r="5" fill="green" stroke="none" /><circle cx="1635" cy="369" r="5" fill="green" stroke="none" /><circle cx="519" cy="519" r="5" fill="green" stroke="none" /><circle cx="477" cy="561" r="5" fill="green" stroke="none" /><circle cx="1574" cy="397" r="5" fill="green" stroke="none" /><circle cx="1569" cy="170" r="5" fill="green" stroke="none" /><circle cx="380" cy="872" r="5" fill="green" stroke="none" /><circle cx="1381" cy="967" r="5" fill="green" stroke="none" /><circle cx="455" cy="121" r="5" fill="green" stroke="none" /><circle cx="53" cy="833" r="5" fill="green" stroke="none" /><circle cx="887" cy="827" r="5" fill="green" stroke="none" /><circle cx="645" cy="483" r="5" fill="green" stroke="none" /><circle cx="1430" cy="237" r="5" fill="green" stroke="none" /><circle cx="1435" cy="176" r="5" fill="green" stroke="none" /><circle cx="80" cy="187" r="5" fill="green" stroke="none" /><circle cx="1658" cy="290" r="5" fill="green" stroke="none" /><circle cx="806" cy="991" r="5" fill="green" stroke="none" /><circle cx="985" cy="944" r="5" fill="green" stroke="none" /><circle cx="1350" cy="77" r="5" fill="green" stroke="none" /><circle cx="856" cy="558" r="5" fill="green" stroke="none" /><circle cx="122" cy="208" r="5" fill="green" stroke="none" /><circle cx="578" cy="482" r="5" fill="green" stroke="none" /><circle cx="440" cy="467" r="5" fill="green" stroke="none" /><circle cx="1559" cy="17" r="5" fill="green" stroke="none" /><circle cx="1755" cy="307" r="5" fill="green" stroke="none" /><circle cx="1978" cy="530" r="5" fill="green" stroke="none" /><circle cx="963" cy="278" r="5" fill="green" stroke="none" /><circle cx="516" cy="72" r="5" fill="green" stroke="none" /><circle cx="1929" cy="980" r="5" fill="green" stroke="none" /><circle cx="1784" cy="491" r="5" fill="green" stroke="none" /><circle cx="1468" cy="630" r="5" fill="green" stroke="none" /><circle cx="2079" cy="392" r="5" fill="green" stroke="none" /><circle cx="1725" cy="492" r="5" fill="green" stroke="none" /><circle cx="300" cy="460" r="5" fill="green" stroke="none" /><circle cx="1194" cy="696" r="5" fill="green" stroke="none" /><circle cx="1576" cy="791" r="5" fill="green" stroke="none" /><circle cx="1138" cy="524" r="5" fill="green" stroke="none" /><circle cx="101" cy="327" r="5" fill="green" stroke="none" /><circle cx="893" cy="903" r="5" fill="green" stroke="none" /><circle cx="2132" cy="752" r="5" fill="green" stroke="none" /><circle cx="1656" cy="647" r="5" fill="green" stroke="none" /><circle cx="152" cy="104" r="5" fill="green" stroke="none" /><circle cx="814" cy="526" r="5" fill="green" stroke="none" /><circle cx="755" cy="962" r="5" fill="green" stroke="none" /><circle cx="777" cy="989" r="5" fill="green" stroke="none" /><circle cx="598" cy="22" r="5" fill="green" stroke="none" /><circle cx="1653" cy="276" r="5" fill="green" stroke="none" /><circle cx="1335" cy="881" r="5" fill="green" stroke="none" /><circle cx="1782" cy="858" r="5" fill="green" stroke="none" /><circle cx="688" cy="967" r="5" fill="green" stroke="none" /><circle cx="1927" cy="546" r="5" fill="green" stroke="none" /><circle cx="1313" cy="399" r="5" fill="green" stroke="none" /><circle cx="1664" cy="944" r="5" fill="green" stroke="none" /><circle cx="671" cy="85" r="5" fill="green" stroke="none" /><circle cx="1453" cy="406" r="5" fill="green" stroke="none" /><circle cx="594" cy="617" r="5" fill="green" stroke="none" /><circle cx="524" cy="226" r="5" fill="green" stroke="none" /><circle cx="1381" cy="771" r="5" fill="green" stroke="none" /><circle cx="481" cy="222" r="5" fill="green" stroke="none" /><circle cx="1002" cy="1028" r="5" fill="green" stroke="none" /><circle cx="1297" cy="204" r="5" fill="green" stroke="none" /><circle cx="1595" cy="244" r="5" fill="green" stroke="none" /><circle cx="1368" cy="172" r="5" fill="green" stroke="none" /><circle cx="946" cy="271" r="5" fill="green" stroke="none" /><circle cx="728" cy="809" r="5" fill="green" stroke="none" /><circle cx="1598" cy="256" r="5" fill="green" stroke="none" /><circle cx="1976" cy="91" r="5" fill="green" stroke="none" /><circle cx="1383" cy="28" r="5" fill="green" stroke="none" /><circle cx="40" cy="1023" r="5" fill="green" stroke="none" /><circle cx="510" cy="77" r="5" fill="green" stroke="none" /><circle cx="1013" cy="697" r="5" fill="green" stroke="none" /><circle cx="1909" cy="662" r="5" fill="green" stroke="none" /><circle cx="1493" cy="897" r="5" fill="green" stroke="none" /><circle cx="2107" cy="767" r="5" fill="green" stroke="none" /><circle cx="1210" cy="922" r="5" fill="green" stroke="none" /><circle cx="2013" cy="81" r="5" fill="green" stroke="none" /><circle cx="1528" cy="560" r="5" fill="green" stroke="none" /><circle cx="576" cy="119" r="5" fill="green" stroke="none" /><circle cx="1623" cy="985" r="5" fill="green" stroke="none" /><circle cx="656" cy="91" r="5" fill="green" stroke="none" /><circle cx="2039" cy="183" r="5" fill="green" stroke="none" /><circle cx="2035" cy="118" r="5" fill="green" stroke="none" /><circle cx="972" cy="464" r="5" fill="green" stroke="none" /><circle cx="2014" cy="602" r="5" fill="green" stroke="none" /><circle cx="187" cy="840" r="5" fill="green" stroke="none" /><circle cx="39" cy="954" r="5" fill="green" stroke="none" /><circle cx="98" cy="352" r="5" fill="green" stroke="none" /><circle cx="1701" cy="866" r="5" fill="green" stroke="none" /><circle cx="266" cy="121" r="5" fill="green" stroke="none" /><circle cx="1639" cy="84" r="5" fill="green" stroke="none" /><circle cx="33" cy="650" r="5" fill="green" stroke="none" /><circle cx="611" cy="397" r="5" fill="green" stroke="none" /><circle cx="1783" cy="105" r="5" fill="green" stroke="none" /><circle cx="1907" cy="63" r="5" fill="green" stroke="none" /><circle cx="2135" cy="191" r="5" fill="green" stroke="none" /><circle cx="1901" cy="386" r="5" fill="green" stroke="none" /><circle cx="1746" cy="338" r="5" fill="green" stroke="none" /><circle cx="1240" cy="24" r="5" fill="green" stroke="none" /><circle cx="1447" cy="771" r="5" fill="green" stroke="none" /><circle cx="445" cy="199" r="5" fill="green" stroke="none" /><circle cx="1457" cy="953" r="5" fill="green" stroke="none" /><circle cx="112" cy="452" r="5" fill="green" stroke="none" /><circle cx="982" cy="90" r="5" fill="green" stroke="none" /><circle cx="879" cy="237" r="5" fill="green" stroke="none" /><circle cx="843" cy="82" r="5" fill="green" stroke="none" /><circle cx="1688" cy="515" r="5" fill="green" stroke="none" /><circle cx="1281" cy="603" r="5" fill="green" stroke="none" /><circle cx="686" cy="712" r="5" fill="green" stroke="none" /><circle cx="142" cy="956" r="5" fill="green" stroke="none" /><circle cx="2104" cy="785" r="5" fill="green" stroke="none" /><circle cx="1724" cy="532" r="5" fill="green" stroke="none" /><circle cx="229" cy="163" r="5" fill="green" stroke="none" /><circle cx="1403" cy="165" r="5" fill="green" stroke="none" /><circle cx="747" cy="598" r="5" fill="green" stroke="none" /><circle cx="2100" cy="539" r="5" fill="green" stroke="none" /><circle cx="2113" cy="1011" r="5" fill="green" stroke="none" /><circle cx="1585" cy="921" r="5" fill="green" stroke="none" /><circle cx="1362" cy="721" r="5" fill="green" stroke="none" /><circle cx="266" cy="601" r="5" fill="green" stroke="none" /><circle cx="554" cy="924" r="5" fill="green" stroke="none" /><circle cx="936" cy="914" r="5" fill="green" stroke="none" /><circle cx="1071" cy="974" r="5" fill="green" stroke="none" /><circle cx="1903" cy="442" r="5" fill="green" stroke="none" /><circle cx="2038" cy="774" r="5" fill="green" stroke="none" /><circle cx="197" cy="385" r="5" fill="green" stroke="none" /><circle cx="255" cy="498" r="5" fill="green" stroke="none" /><circle cx="1879" cy="540" r="5" fill="green" stroke="none" /><circle cx="391" cy="1045" r="5" fill="green" stroke="none" /><circle cx="73" cy="819" r="5" fill="green" stroke="none" /><circle cx="488" cy="864" r="5" fill="green" stroke="none" /><circle cx="1536" cy="176" r="5" fill="green" stroke="none" /><circle cx="894" cy="481" r="5" fill="green" stroke="none" /><circle cx="2106" cy="1039" r="5" fill="green" stroke="none" /><circle cx="1805" cy="812" r="5" fill="green" stroke="none" /><circle cx="377" cy="958" r="5" fill="green" stroke="none" /><circle cx="445" cy="590" r="5" fill="green" stroke="none" /><circle cx="1565" cy="1023" r="5" fill="green" stroke="none" /><circle cx="1157" cy="804" r="5" fill="green" stroke="none" /><circle cx="512" cy="875" r="5" fill="green" stroke="none" /><circle cx="2064" cy="51" r="5" fill="green" stroke="none" /><circle cx="206" cy="152" r="5" fill="green" stroke="none" /><circle cx="149" cy="831" r="5" fill="green" stroke="none" /><circle cx="1972" cy="486" r="5" fill="green" stroke="none" /><circle cx="467" cy="305" r="5" fill="green" stroke="none" /><circle cx="1520" cy="334" r="5" fill="green" stroke="none" /><circle cx="1405" cy="1042" r="5" fill="green" stroke="none" /><circle cx="634" cy="860" r="5" fill="green" stroke="none" /><circle cx="1109" cy="826" r="5" fill="green" stroke="none" /><circle cx="1958" cy="91" r="5" fill="green" stroke="none" /><circle cx="1034" cy="6" r="5" fill="green" stroke="none" /><circle cx="2018" cy="283" r="5" fill="green" stroke="none" /><circle cx="857" cy="456" r="5" fill="green" stroke="none" /><circle cx="1724" cy="766" r="5" fill="green" stroke="none" /><circle cx="886" cy="46" r="5" fill="green" stroke="none" /><circle cx="94" cy="493" r="5" fill="green" stroke="none" /><circle cx="687" cy="220" r="5" fill="green" stroke="none" /><circle cx="1187" cy="968" r="5" fill="green" stroke="none" /><circle cx="497" cy="102" r="5" fill="green" stroke="none" /><circle cx="904" cy="104" r="5" fill="green" stroke="none" /><circle cx="221" cy="431" r="5" fill="green" stroke="none" /><circle cx="1887" cy="200" r="5" fill="green" stroke="none" /><circle cx="1841" cy="663" r="5" fill="green" stroke="none" /><circle cx="1011" cy="498" r="5" fill="green" stroke="none" /><circle cx="264" cy="734" r="5" fill="green" stroke="none" /><circle cx="319" cy="567" r="5" fill="green" stroke="none" /><circle cx="1469" cy="685" r="5" fill="green" stroke="none" /><circle cx="148" cy="938" r="5" fill="green" stroke="none" /><circle cx="469" cy="643" r="5" fill="green" stroke="none" /><circle cx="1324" cy="547" r="5" fill="green" stroke="none" /><circle cx="102" cy="313" r="5" fill="green" stroke="none" /><circle cx="109" cy="1025" r="5" fill="green" stroke="none" /><circle cx="1456" cy="277" r="5" fill="green" stroke="none" /><circle cx="441" cy="975" r="5" fill="green" stroke="none" /><circle cx="607" cy="611" r="5" fill="green" stroke="none" /><circle cx="674" cy="196" r="5" fill="green" stroke="none" /><circle cx="442" cy="990" r="5" fill="green" stroke="none" /><circle cx="104" cy="109" r="5" fill="green" stroke="none" /><circle cx="1488" cy="702" r="5" fill="green" stroke="none" /><circle cx="1917" cy="889" r="5" fill="green" stroke="none" /><circle cx="98" cy="614" r="5" fill="green" stroke="none" /><circle cx="166" cy="91" r="5" fill="green" stroke="none" /><circle cx="1316" cy="47" r="5" fill="green" stroke="none" /><circle cx="1340" cy="277" r="5" fill="green" stroke="none" /><circle cx="1557" cy="214" r="5" fill="green" stroke="none" /><circle cx="1360" cy="427" r="5" fill="green" stroke="none" /><circle cx="191" cy="571" r="5" fill="green" stroke="none" /><circle cx="740" cy="415" r="5" fill="green" stroke="none" /><circle cx="1279" cy="833" r="5" fill="green" stroke="none" /><circle cx="2005" cy="424" r="5" fill="green" stroke="none" /><circle cx="1217" cy="922" r="5" fill="green" stroke="none" /><circle cx="967" cy="192" r="5" fill="green" stroke="none" /><circle cx="594" cy="115" r="5" fill="green" stroke="none" /><circle cx="973" cy="862" r="5" fill="green" stroke="none" /><circle cx="820" cy="177" r="5" fill="green" stroke="none" /><circle cx="1000" cy="876" r="5" fill="green" stroke="none" /><circle cx="2038" cy="674" r="5" fill="green" stroke="none" /><circle cx="771" cy="859" r="5" fill="green" stroke="none" /><circle cx="1896" cy="428" r="5" fill="green" stroke="none" /><circle cx="1218" cy="688" r="5" fill="green" stroke="none" /><circle cx="1742" cy="965" r="5" fill="green" stroke="none" /><circle cx="1548" cy="277" r="5" fill="green" stroke="none" /><circle cx="710" cy="318" r="5" fill="green" stroke="none" /><circle cx="267" cy="997" r="5" fill="green" stroke="none" /><circle cx="1952" cy="824" r="5" fill="green" stroke="none" /><circle cx="1312" cy="169" r="5" fill="green" stroke="none" /><circle cx="574" cy="435" r="5" fill="green" stroke="none" /><circle cx="1584" cy="332" r="5" fill="green" stroke="none" /><circle cx="239" cy="779" r="5" fill="green" stroke="none" /><circle cx="698" cy="110" r="5" fill="green" stroke="none" /><circle cx="1741" cy="267" r="5" fill="green" stroke="none" /><circle cx="664" cy="462" r="5" fill="green" stroke="none" /><circle cx="1824" cy="980" r="5" fill="green" stroke="none" /><circle cx="1702" cy="431" r="5" fill="green" stroke="none" /><circle cx="1874" cy="370" r="5" fill="green" stroke="none" /><circle cx="1252" cy="893" r="5" fill="green" stroke="none" /><circle cx="1347" cy="153" r="5" fill="green" stroke="none" /><circle cx="2000" cy="801" r="5" fill="green" stroke="none" /><circle cx="1250" cy="785" r="5" fill="green" stroke="none" /><circle cx="88" cy="57" r="5" fill="green" stroke="none" /><circle cx="1704" cy="45" r="5" fill="green" stroke="none" /><circle cx="864" cy="888" r="5" fill="green" stroke="none" /><circle cx="1524" cy="944" r="5" fill="green" stroke="none" /><circle cx="1299" cy="572" r="5" fill="green" stroke="none" /><circle cx="2051" cy="15" r="5" fill="green" stroke="none" /><circle cx="1828" cy="872" r="5" fill="green" stroke="none" /><circle cx="606" cy="430" r="5" fill="green" stroke="none" /><circle cx="1627" cy="498" r="5" fill="green" stroke="none" /><circle cx="712" cy="197" r="5" fill="green" stroke="none" /><circle cx="248" cy="121" r="5" fill="green" stroke="none" /><circle cx="50" cy="630" r="5" fill="green" stroke="none" /><circle cx="209" cy="878" r="5" fill="green" stroke="none" /><circle cx="1790" cy="782" r="5" fill="green" stroke="none" /><circle cx="1413" cy="5" r="5" fill="green" stroke="none" /><circle cx="736" cy="644" r="5" fill="green" stroke="none" /><circle cx="710" cy="807" r="5" fill="green" stroke="none" /><circle cx="36" cy="765" r="5" fill="green" stroke="none" /><circle cx="1170" cy="942" r="5" fill="green" stroke="none" /><circle cx="447" cy="422" r="5" fill="green" stroke="none" /><circle cx="1432" cy="902" r="5" fill="green" stroke="none" /><circle cx="517" cy="142" r="5" fill="green" stroke="none" /><circle cx="940" cy="521" r="5" fill="green" stroke="none" /><circle cx="341" cy="418" r="5" fill="green" stroke="none" /><circle cx="26" cy="483" r="5" fill="green" stroke="none" /><circle cx="1441" cy="908" r="5" fill="green" stroke="none" /><circle cx="1763" cy="270" r="5" fill="green" stroke="none" /><circle cx="1802" cy="72" r="5" fill="green" stroke="none" /><circle cx="743" cy="548" r="5" fill="green" stroke="none" /><circle cx="1444" cy="782" r="5" fill="green" stroke="none" /><circle cx="41" cy="569" r="5" fill="green" stroke="none" /><circle cx="614" cy="70" r="5" fill="green" stroke="none" /><circle cx="1854" cy="863" r="5" fill="green" stroke="none" /><circle cx="178" cy="550" r="5" fill="green" stroke="none" /><circle cx="410" cy="8" r="5" fill="green" stroke="none" /><circle cx="1868" cy="132" r="5" fill="green" stroke="none" /><circle cx="2075" cy="651" r="5" fill="green" stroke="none" /><circle cx="1166" cy="886" r="5" fill="green" stroke="none" /><circle cx="1602" cy="131" r="5" fill="green" stroke="none" /><circle cx="1183" cy="1020" r="5" fill="green" stroke="none" /><circle cx="1207" cy="734" r="5" fill="green" stroke="none" /><circle cx="1937" cy="438" r="5" fill="green" stroke="none" /><circle cx="638" cy="585" r="5" fill="green" stroke="none" /><circle cx="317" cy="713" r="5" fill="green" stroke="none" /><circle cx="694" cy="755" r="5" fill="green" stroke="none" /><circle cx="1709" cy="675" r="5" fill="green" stroke="none" /><circle cx="671" cy="587" r="5" fill="green" stroke="none" /><circle cx="1552" cy="839" r="5" fill="green" stroke="none" /><circle cx="1767" cy="693" r="5" fill="green" stroke="none" /><circle cx="661" cy="525" r="5" fill="green" stroke="none" /><circle cx="162" cy="412" r="5" fill="green" stroke="none" /><circle cx="1224" cy="48" r="5" fill="green" stroke="none" /><circle cx="2040" cy="345" r="5" fill="green" stroke="none" /><circle cx="1719" cy="290" r="5" fill="green" stroke="none" /><circle cx="1094" cy="871" r="5" fill="green" stroke="none" /><circle cx="195" cy="687" r="5" fill="green" stroke="none" /><circle cx="2110" cy="1034" r="5" fill="green" stroke="none" /><circle cx="1401" cy="270" r="5" fill="green" stroke="none" /><circle cx="1397" cy="519" r="5" fill="green" stroke="none" /><circle cx="1969" cy="839" r="5" fill="green" stroke="none" /><circle cx="1439" cy="822" r="5" fill="green" stroke="none" /><circle cx="1603" cy="424" r="5" fill="green" stroke="none" /><circle cx="337" cy="188" r="5" fill="green" stroke="none" /><circle cx="1479" cy="601" r="5" fill="green" stroke="none" /><circle cx="354" cy="554" r="5" fill="green" stroke="none" /><circle cx="1682" cy="77" r="5" fill="green" stroke="none" /><circle cx="1857" cy="807" r="5" fill="green" stroke="none" /><circle cx="139" cy="42" r="5" fill="green" stroke="none" /><circle cx="1099" cy="549" r="5" fill="green" stroke="none" /><circle cx="861" cy="965" r="5" fill="green" stroke="none" /><circle cx="217" cy="338" r="5" fill="green" stroke="none" /><circle cx="1890" cy="515" r="5" fill="green" stroke="none" /><circle cx="819" cy="84" r="5" fill="green" stroke="none" /><circle cx="476" cy="701" r="5" fill="green" stroke="none" /><circle cx="26" cy="812" r="5" fill="green" stroke="none" /><circle cx="445" cy="527" r="5" fill="green" stroke="none" /><circle cx="1085" cy="972" r="5" fill="green" stroke="none" /><circle cx="664" cy="539" r="5" fill="green" stroke="none" /><circle cx="2046" cy="770" r="5" fill="green" stroke="none" /><circle cx="1477" cy="985" r="5" fill="green" stroke="none" /><circle cx="1945" cy="369" r="5" fill="green" stroke="none" /><circle cx="46" cy="427" r="5" fill="green" stroke="none" /><circle cx="1839" cy="698" r="5" fill="green" stroke="none" /><circle cx="472" cy="488" r="5" fill="green" stroke="none" /><circle cx="1827" cy="1002" r="5" fill="green" stroke="none" /><circle cx="1900" cy="139" r="5" fill="green" stroke="none" /><circle cx="17" cy="647" r="5" fill="green" stroke="none" /><circle cx="1967" cy="420" r="5" fill="green" stroke="none" /><circle cx="2022" cy="425" r="5" fill="green" stroke="none" /><circle cx="1942" cy="3" r="5" fill="green" stroke="none" /><circle cx="2069" cy="251" r="5" fill="green" stroke="none" /><circle cx="256" cy="624" r="5" fill="green" stroke="none" /><circle cx="1971" cy="227" r="5" fill="green" stroke="none" /><circle cx="409" cy="869" r="5" fill="green" stroke="none" /><circle cx="774" cy="458" r="5" fill="green" stroke="none" /><circle cx="1340" cy="816" r="5" fill="green" stroke="none" /><circle cx="643" cy="476" r="5" fill="green" stroke="none" /><circle cx="900" cy="175" r="5" fill="green" stroke="none" /><circle cx="1721" cy="420" r="5" fill="green" stroke="none" /><circle cx="773" cy="582" r="5" fill="green" stroke="none" /><circle cx="55" cy="660" r="5" fill="green" stroke="none" /><circle cx="1415" cy="578" r="5" fill="green" stroke="none" /><circle cx="1634" cy="121" r="5" fill="green" stroke="none" /><circle cx="2005" cy="331" r="5" fill="green" stroke="none" /><circle cx="1841" cy="122" r="5" fill="green" stroke="none" /><circle cx="140" cy="805" r="5" fill="green" stroke="none" /><circle cx="667" cy="764" r="5" fill="green" stroke="none" /><circle cx="1625" cy="8" r="5" fill="green" stroke="none" /><circle cx="727" cy="762" r="5" fill="green" stroke="none" /><circle cx="1313" cy="117" r="5" fill="green" stroke="none" /><circle cx="1755" cy="770" r="5" fill="green" stroke="none" /><circle cx="418" cy="724" r="5" fill="green" stroke="none" /><circle cx="386" cy="482" r="5" fill="green" stroke="none" /><circle cx="392" cy="354" r="5" fill="green" stroke="none" /><circle cx="1690" cy="192" r="5" fill="green" stroke="none" /><circle cx="1297" cy="941" r="5" fill="green" stroke="none" /><circle cx="76" cy="99" r="5" fill="green" stroke="none" /><circle cx="784" cy="541" r="5" fill="green" stroke="none" /><circle cx="1427" cy="713" r="5" fill="green" stroke="none" /><circle cx="1520" cy="985" r="5" fill="green" stroke="none" /><circle cx="753" cy="94" r="5" fill="green" stroke="none" /><circle cx="51" cy="1026" r="5" fill="green" stroke="none" /><circle cx="682" cy="313" r="5" fill="green" stroke="none" /><circle cx="531" cy="122" r="5" fill="green" stroke="none" /><circle cx="1286" cy="987" r="5" fill="green" stroke="none" /><circle cx="832" cy="59" r="5" fill="green" stroke="none" /><circle cx="266" cy="200" r="5" fill="green" stroke="none" /><circle cx="326" cy="977" r="5" fill="green" stroke="none" /><circle cx="63" cy="257" r="5" fill="green" stroke="none" /><circle cx="631" cy="700" r="5" fill="green" stroke="none" /><circle cx="1057" cy="945" r="5" fill="green" stroke="none" /><circle cx="1679" cy="229" r="5" fill="green" stroke="none" /><circle cx="490" cy="181" r="5" fill="green" stroke="none" /><circle cx="1678" cy="241" r="5" fill="green" stroke="none" /><circle cx="743" cy="81" r="5" fill="green" stroke="none" /><circle cx="153" cy="89" r="5" fill="green" stroke="none" /><circle cx="1908" cy="765" r="5" fill="green" stroke="none" /><circle cx="1015" cy="45" r="5" fill="green" stroke="none" /><circle cx="871" cy="466" r="5" fill="green" stroke="none" /><circle cx="537" cy="1047" r="5" fill="green" stroke="none" /><circle cx="1332" cy="915" r="5" fill="green" stroke="none" /><circle cx="2156" cy="646" r="5" fill="green" stroke="none" /><circle cx="950" cy="489" r="5" fill="green" stroke="none" /><circle cx="1364" cy="782" r="5" fill="green" stroke="none" /><circle cx="1737" cy="85" r="5" fill="green" stroke="none" /><circle cx="1135" cy="730" r="5" fill="green" stroke="none" /><circle cx="643" cy="607" r="5" fill="green" stroke="none" /><circle cx="1297" cy="660" r="5" fill="green" stroke="none" /><circle cx="1936" cy="976" r="5" fill="green" stroke="none" /><circle cx="1671" cy="579" r="5" fill="green" stroke="none" /><circle cx="586" cy="779" r="5" fill="green" stroke="none" /><circle cx="439" cy="148" r="5" fill="green" stroke="none" /><circle cx="1093" cy="638" r="5" fill="green" stroke="none" /><circle cx="2011" cy="405" r="5" fill="green" stroke="none" /><circle cx="732" cy="877" r="5" fill="green" stroke="none" /><circle cx="2100" cy="279" r="5" fill="green" stroke="none" /><circle cx="939" cy="765" r="5" fill="green" stroke="none" /><circle cx="184" cy="760" r="5" fill="green" stroke="none" /><circle cx="1227" cy="952" r="5" fill="green" stroke="none" /><circle cx="2149" cy="739" r="5" fill="green" stroke="none" /><circle cx="1864" cy="105" r="5" fill="green" stroke="none" /><circle cx="439" cy="544" r="5" fill="green" stroke="none" /><circle cx="1921" cy="36" r="5" fill="green" stroke="none" /><circle cx="1165" cy="764" r="5" fill="green" stroke="none" /><circle cx="1119" cy="900" r="5" fill="green" stroke="none" /><circle cx="611" cy="400" r="5" fill="green" stroke="none" /><circle cx="1842" cy="73" r="5" fill="green" stroke="none" /><circle cx="2013" cy="724" r="5" fill="green" stroke="none" /><circle cx="1924" cy="326" r="5" fill="green" stroke="none" /><circle cx="63" cy="891" r="5" fill="green" stroke="none" /><circle cx="1857" cy="421" r="5" fill="green" stroke="none" /><circle cx="691" cy="309" r="5" fill="green" stroke="none" /><circle cx="298" cy="209" r="5" fill="green" stroke="none" /><circle cx="995" cy="481" r="5" fill="green" stroke="none" /><circle cx="1820" cy="562" r="5" fill="green" stroke="none" /><circle cx="179" cy="838" r="5" fill="green" stroke="none" /><circle cx="358" cy="742" r="5" fill="green" stroke="none" /><circle cx="1963" cy="665" r="5" fill="green" stroke="none" /><circle cx="292" cy="311" r="5" fill="green" stroke="none" /><circle cx="22" cy="588" r="5" fill="green" stroke="none" /><circle cx="1967" cy="831" r="5" fill="green" stroke="none" /><circle cx="882" cy="381" r="5" fill="green" stroke="none" /><circle cx="1461" cy="201" r="5" fill="green" stroke="none" /><circle cx="1671" cy="557" r="5" fill="green" stroke="none" /><circle cx="2012" cy="911" r="5" fill="green" stroke="none" /><circle cx="1755" cy="267" r="5" fill="green" stroke="none" /><circle cx="126" cy="692" r="5" fill="green" stroke="none" /><circle cx="2099" cy="217" r="5" fill="green" stroke="none" /><circle cx="1550" cy="293" r="5" fill="green" stroke="none" /><circle cx="1398" cy="21" r="5" fill="green" stroke="none" /><circle cx="772" cy="236" r="5" fill="green" stroke="none" /><circle cx="1867" cy="361" r="5" fill="green" stroke="none" /><circle cx="962" cy="348" r="5" fill="green" stroke="none" /><circle cx="316" cy="406" r="5" fill="green" stroke="none" /><circle cx="1423" cy="60" r="5" fill="green" stroke="none" /><circle cx="610" cy="885" r="5" fill="green" stroke="none" /><circle cx="2086" cy="305" r="5" fill="green" stroke="none" /><circle cx="1000.0188984977748" cy="138.45999310910906" r="5" fill="blue" stroke="none" /><circle cx="1217.902127756815" cy="301.53125339892654" r="5" fill="blue" stroke="none" /><circle cx="1000.0007834083029" cy="111.06454188176826" r="5" fill="blue" stroke="none" /><circle cx="1015.0139812889095" cy="234.6233692223443" r="5" fill="blue" stroke="none" /><circle cx="1254.957914323357" cy="225.1399355030503" r="5" fill="blue" stroke="none" /><circle cx="1020.3597003645905" cy="424.99062124398915" r="5" fill="blue" stroke="none" /><circle cx="1230.8255932055995" cy="112.5125332567842" r="5" fill="blue" stroke="none" /><circle cx="1099.8027763950465" cy="139.75104696042388" r="5" fill="blue" stroke="none" /><circle cx="1146.4023049945697" cy="410.23824086579816" r="5" fill="blue" stroke="none" /><circle cx="1058.1272448521781" cy="405.82385733723254" r="5" fill="blue" stroke="none" /><circle cx="1254.9021836447014" cy="172.52892723719583" r="5" fill="blue" stroke="none" /><circle cx="1220.9148275528714" cy="135.14604101680197" r="5" fill="blue" stroke="none" /><circle cx="1062.8430005281837" cy="111.17365575114297" r="5" fill="blue" stroke="none" /><circle cx="1246.3682670797523" cy="414.5886961240665" r="5" fill="blue" stroke="none" /><circle cx="1244.3510559788206" cy="223.69020252020096" r="5" fill="blue" stroke="none" /><circle cx="1244.536050024094" cy="199.76906283075562" r="5" fill="blue" stroke="none" /><circle cx="1002.5832737797447" cy="410.8213054111254" r="5" fill="blue" stroke="none" /><circle cx="1000.0729845168589" cy="335.0195568607742" r="5" fill="blue" stroke="none" /><circle cx="1245.7089472962693" cy="261.6507719871505" r="5" fill="blue" stroke="none" /><circle cx="1254.969375798631" cy="381.2122362229802" r="5" fill="blue" stroke="none" /><circle cx="1003.5595462592911" cy="167.40817994015106" r="5" fill="blue" stroke="none" /><circle cx="1009.7219300778755" cy="338.2035680892151" r="5" fill="blue" stroke="none" /><circle cx="1249.8119426988974" cy="280.59807119957475" r="5" fill="blue" stroke="none" /><circle cx="1011.4609726732206" cy="263.2807667250054" r="5" fill="blue" stroke="none" /><circle cx="1220.2399017518978" cy="183.6150019653245" r="5" fill="blue" stroke="none" /><circle cx="1236.608598081289" cy="315.56604157443337" r="5" fill="blue" stroke="none" /><circle cx="1222.076770765998" cy="123.6866966578882" r="5" fill="blue" stroke="none" /><circle cx="1254.8601113971963" cy="120.0761023684164" r="5" fill="blue" stroke="none" /><circle cx="1015.6276387488465" cy="137.32519935448863" r="5" fill="blue" stroke="none" /><circle cx="1006.391485951004" cy="369.33419110476643" r="5" fill="blue" stroke="none" /><circle cx="1000.0442057216442" cy="359.5455741835349" r="5" fill="blue" stroke="none" /><circle cx="1000.035003740536" cy="240.06075922326136" r="5" fill="blue" stroke="none" /><circle cx="1214.8760312959953" cy="114.43762091543431" r="5" fill="blue" stroke="none" /><circle cx="1205.9308332890555" cy="417.48551622995694" r="5" fill="blue" stroke="none" /><circle cx="1000.0174020707774" cy="177.5548213651066" r="5" fill="blue" stroke="none" /><circle cx="1000.618144561128" cy="270.0640941078474" r="5" fill="blue" stroke="none" /><circle cx="1254.8931496948874" cy="252.6981914676917" r="5" fill="blue" stroke="none" /><circle cx="1039.5800934033596" cy="118.77107054845453" r="5" fill="blue" stroke="none" /><circle cx="1254.3628739456472" cy="150.71188101877158" r="5" fill="blue" stroke="none" /><circle cx="1170.186525043251" cy="268.9477418951733" r="5" fill="blue" stroke="none" /><circle cx="1110.9698583028087" cy="364.3510306642795" r="5" fill="blue" stroke="none" /><circle cx="1007.9794947154328" cy="277.4163848614463" r="5" fill="blue" stroke="none" /><circle cx="1000.7285323801918" cy="345.979878687357" r="5" fill="blue" stroke="none" /><circle cx="1008.7236927132593" cy="291.68396167540755" r="5" fill="blue" stroke="none" /><circle cx="1001.5923549026932" cy="124.24434292281853" r="5" fill="blue" stroke="none" /><circle cx="1225.007718489913" cy="359.8964525671896" r="5" fill="blue" stroke="none" /><circle cx="1017.409038708358" cy="407.49488390791794" r="5" fill="blue" stroke="none" /><circle cx="1235.176042609181" cy="152.01425553748993" r="5" fill="blue" stroke="none" /><circle cx="1185.2436308655576" cy="424.8560882484272" r="5" fill="blue" stroke="none" /><circle cx="1003.481723028263" cy="186.95285185320608" r="5" fill="blue" stroke="none" /><circle cx="1040.5505304509434" cy="424.5042420707704" r="5" fill="blue" stroke="none" /><circle cx="1254.4213827963147" cy="235.13382300007981" r="5" fill="blue" stroke="none" /><circle cx="1010.0546344155775" cy="308.529694190006" r="5" fill="blue" stroke="none" /><circle cx="1249.4113331025837" cy="185.47787366754847" r="5" fill="blue" stroke="none" /><circle cx="1014.9243762617198" cy="381.3544632293449" r="5" fill="blue" stroke="none" /><circle cx="1025.4150655463063" cy="338.18775566704437" r="5" fill="blue" stroke="none" /><circle cx="1198.1724857324139" cy="337.27923553952303" r="5" fill="blue" stroke="none" /><circle cx="1026.0886021452154" cy="123.71242333575867" r="5" fill="blue" stroke="none" /><circle cx="1249.4819966311459" cy="353.338367065345" r="5" fill="blue" stroke="none" /><circle cx="1057.3719865808553" cy="424.9935426460936" r="5" fill="blue" stroke="none" /><circle cx="1254.9706554935285" cy="195.43515456565137" r="5" fill="blue" stroke="none" /><circle cx="1000.0247795467081" cy="208.61638944011395" r="5" fill="blue" stroke="none" /><circle cx="1254.8590842732744" cy="420.5099681112331" r="5" fill="blue" stroke="none" /><circle cx="1163.6554839648848" cy="419.09070661316343" r="5" fill="blue" stroke="none" /><circle cx="1002.2410827304805" cy="229.37603902985143" r="5" fill="blue" stroke="none" /><circle cx="1205.3474992478748" cy="111.21419353810427" r="5" fill="blue" stroke="none" /><circle cx="1000.0324132714778" cy="259.5518012554103" r="5" fill="blue" stroke="none" /><circle cx="1000.083059668939" cy="283.5593270672657" r="5" fill="blue" stroke="none" /><circle cx="1000.006457190537" cy="196.4803872147745" r="5" fill="blue" stroke="none" /><circle cx="1250.7877330911492" cy="215.8454546717735" r="5" fill="blue" stroke="none" /><circle cx="1102.9001032711778" cy="420.34994260034637" r="5" fill="blue" stroke="none" /><circle cx="1151.873990872806" cy="423.6625742537984" r="5" fill="blue" stroke="none" /><circle cx="1254.8513576398184" cy="399.46079682328093" r="5" fill="blue" stroke="none" /><circle cx="1031.8279236483932" cy="111.56290692626487" r="5" fill="blue" stroke="none" /><circle cx="1085.6185048185037" cy="424.6136076258598" r="5" fill="blue" stroke="none" /><circle cx="1229.5185452568255" cy="343.93874567394244" r="5" fill="blue" stroke="none" /><circle cx="1030.1955166965345" cy="423.0875230855082" r="5" fill="blue" stroke="none" /><circle cx="1091.8164719450303" cy="413.92284309629235" r="5" fill="blue" stroke="none" /><circle cx="1193.802587013601" cy="121.95012414965208" r="5" fill="blue" stroke="none" /><circle cx="1001.9597173851129" cy="424.9913546116163" r="5" fill="blue" stroke="none" /><circle cx="1000.0157547760173" cy="308.4502937719062" r="5" fill="blue" stroke="none" /><circle cx="1017.9068008462427" cy="111.05348702054289" r="5" fill="blue" stroke="none" /><circle cx="1007.885170865016" cy="353.18520570646365" r="5" fill="blue" stroke="none" /><circle cx="1176.139317162861" cy="405.4321046864536" r="5" fill="blue" stroke="none" /><circle cx="1171.894187365937" cy="115.00094950090772" r="5" fill="blue" stroke="none" /><circle cx="1240.9855934144052" cy="174.85649704883235" r="5" fill="blue" stroke="none" /><circle cx="1173.6885693922688" cy="356.3087323473958" r="5" fill="blue" stroke="none" /><circle cx="1000.0246723626888" cy="296.798624636962" r="5" fill="blue" stroke="none" /><circle cx="1222.1625122003497" cy="311.33406322593055" r="5" fill="blue" stroke="none" /><circle cx="1000.0270114840871" cy="379.1672469117251" r="5" fill="blue" stroke="none" /><circle cx="1192.5630093654172" cy="111.53208111639788" r="5" fill="blue" stroke="none" /><circle cx="1010.9538335677601" cy="247.40681521602778" r="5" fill="blue" stroke="none" /><circle cx="1000.9230486490251" cy="325.0452287499879" r="5" fill="blue" stroke="none" /><circle cx="1254.917016843179" cy="206.7317517205788" r="5" fill="blue" stroke="none" /><circle cx="1222.6124733638712" cy="414.0310954478381" r="5" fill="blue" stroke="none" /></svg>