<svg viewBox="0 0 1000 1000" xmlns="http://www.w3.org/2000/svg"><rect x="0" y="0" width="1000" height="1000" fill="lightyellow" stroke="none "/><rect x="875" y="718" width="105" height="175" fill="white" stroke="black "/><circle cx="21" cy="981" r="5" fill="green" stroke="none" /><circle cx="341" cy="544" r="5" fill="green" stroke="none" /><circle cx="493" cy="889" r="5" fill="green" stroke="none" /><circle cx="951" cy="554" r="5" fill="green" stroke="none" /><circle cx="827" cy="284" r="5" fill="green" stroke="none" /><circle cx="554" cy="813" r="5" fill="green" stroke="none" /><circle cx="428" cy="689" r="5" fill="green" stroke="none" /><circle cx="213" cy="917" r="5" fill="green" stroke="none" /><circle cx="756" cy="812" r="5" fill="green" stroke="none" /><circle cx="479" cy="580" r="5" fill="green" stroke="none" /><circle cx="263" cy="383" r="5" fill="green" stroke="none" /><circle cx="730" cy="820" r="5" fill="green" stroke="none" /><circle cx="415" cy="209" r="5" fill="green" stroke="none" /><circle cx="161" cy="390" r="5" fill="green" stroke="none" /><circle cx="51" cy="283" r="5" fill="green" stroke="none" /><circle cx="499" cy="581" r="5" fill="green" stroke="none" /><circle cx="78" cy="575" r="5" fill="green" stroke="none" /><circle cx="395" cy="1000" r="5" fill="green" stroke="none" /><circle cx="522" cy="884" r="5" fill="green" stroke="none" /><circle cx="184" cy="629" r="5" fill="green" stroke="none" /><circle cx="798" cy="461" r="5" fill="green" stroke="none" /><circle cx="178" cy="529" r="5" fill="green" stroke="none" /><circle cx="176" cy="790" r="5" fill="green" stroke="none" /><circle cx="542" cy="576" r="5" fill="green" stroke="none" /><circle cx="207" cy="567" r="5" fill="green" stroke="none" /><circle cx="338" cy="936" r="5" fill="green" stroke="none" /><circle cx="911" cy="373" r="5" fill="green" stroke="none" /><circle cx="985" cy="577" r="5" fill="green" stroke="none" /><circle cx="256" cy="607" r="5" fill="green" stroke="none" /><circle cx="888" cy="438" r="5" fill="green" stroke="none" /><circle cx="625" cy="906" r="5" fill="green" stroke="none" /><circle cx="436" cy="649" r="5" fill="green" stroke="none" /><circle cx="730" cy="670" r="5" fill="green" stroke="none" /><circle cx="634" cy="723" r="5" fill="green" stroke="none" /><circle cx="158" cy="383" r="5" fill="green" stroke="none" /><circle cx="890" cy="945" r="5" fill="green" stroke="none" /><circle cx="607" cy="289" r="5" fill="green" stroke="none" /><circle cx="159" cy="785" r="5" fill="green" stroke="none" /><circle cx="715" cy="90" r="5" fill="green" stroke="none" /><circle cx="589" cy="349" r="5" fill="green" stroke="none" /><circle cx="954" cy="321" r="5" fill="green" stroke="none" /><circle cx="853" cy="869" r="5" fill="green" stroke="none" /><circle cx="191" cy="89" r="5" fill="green" stroke="none" /><circle cx="611" cy="901" r="5" fill="green" stroke="none" /><circle cx="6" cy="901" r="5" fill="green" stroke="none" /><circle cx="723" cy="931" r="5" fill="green" stroke="none" /><circle cx="259" cy="840" r="5" fill="green" stroke="none" /><circle cx="93" cy="779" r="5" fill="green" stroke="none" /><circle cx="466" cy="682" r="5" fill="green" stroke="none" /><circle cx="186" cy="851" r="5" fill="green" stroke="none" /><circle cx="627" cy="403" r="5" fill="green" stroke="none" /><circle cx="473" cy="172" r="5" fill="green" stroke="none" /><circle cx="4" cy="996" r="5" fill="green" stroke="none" /><circle cx="875" cy="420" r="5" fill="green" stroke="none" /><circle cx="822" cy="649" r="5" fill="green" stroke="none" /><circle cx="336" cy="467" r="5" fill="green" stroke="none" /><circle cx="419" cy="476" r="5" fill="green" stroke="none" /><circle cx="404" cy="600" r="5" fill="green" stroke="none" /><circle cx="694" cy="848" r="5" fill="green" stroke="none" /><circle cx="53" cy="724" r="5" fill="green" stroke="none" /><circle cx="338" cy="790" r="5" fill="green" stroke="none" /><circle cx="792" cy="919" r="5" fill="green" stroke="none" /><circle cx="866" cy="682" r="5" fill="green" stroke="none" /><circle cx="849" cy="673" r="5" fill="green" stroke="none" /><circle cx="122" cy="515" r="5" fill="green" stroke="none" /><circle cx="246" cy="244" r="5" fill="green" stroke="none" /><circle cx="321" cy="521" r="5" fill="green" stroke="none" /><circle cx="848" cy="248" r="5" fill="green" stroke="none" /><circle cx="738" cy="248" r="5" fill="green" stroke="none" /><circle cx="767" cy="233" r="5" fill="green" stroke="none" /><circle cx="843" cy="934" r="5" fill="green" stroke="none" /><circle cx="737" cy="191" r="5" fill="green" stroke="none" /><circle cx="807" cy="156" r="5" fill="green" stroke="none" /><circle cx="31" cy="16" r="5" fill="green" stroke="none" /><circle cx="688" cy="803" r="5" fill="green" stroke="none" /><circle cx="21" cy="193" r="5" fill="green" stroke="none" /><circle cx="67" cy="355" r="5" fill="green" stroke="none" /><circle cx="286" cy="253" r="5" fill="green" stroke="none" /><circle cx="708" cy="257" r="5" fill="green" stroke="none" /><circle cx="562" cy="306" r="5" fill="green" stroke="none" /><circle cx="305" cy="237" r="5" fill="green" stroke="none" /><circle cx="122" cy="575" r="5" fill="green" stroke="none" /><circle cx="92" cy="204" r="5" fill="green" stroke="none" /><circle cx="267" cy="88" r="5" fill="green" stroke="none" /><circle cx="748" cy="136" r="5" fill="green" stroke="none" /><circle cx="596" cy="476" r="5" fill="green" stroke="none" /><circle cx="844" cy="163" r="5" fill="green" stroke="none" /><circle cx="143" cy="106" r="5" fill="green" stroke="none" /><circle cx="74" cy="941" r="5" fill="green" stroke="none" /><circle cx="338" cy="779" r="5" fill="green" stroke="none" /><circle cx="59" cy="911" r="5" fill="green" stroke="none" /><circle cx="756" cy="868" r="5" fill="green" stroke="none" /><circle cx="561" cy="517" r="5" fill="green" stroke="none" /><circle cx="441" cy="775" r="5" fill="green" stroke="none" /><circle cx="127" cy="767" r="5" fill="green" stroke="none" /><circle cx="602" cy="62" r="5" fill="green" stroke="none" /><circle cx="192" cy="328" r="5" fill="green" stroke="none" /><circle cx="46" cy="529" r="5" fill="green" stroke="none" /><circle cx="965" cy="137" r="5" fill="green" stroke="none" /><circle cx="659" cy="823" r="5" fill="green" stroke="none" /><circle cx="895.0507488595827" cy="728.103218858945" r="5" fill="blue" stroke="none" /><circle cx="885.001013834499" cy="863.0202709088493" r="5" fill="blue" stroke="none" /><circle cx="885.0135346970087" cy="728.4471063444729" r="5" fill="blue" stroke="none" /><circle cx="905.0574346501007" cy="728.0030620735531" r="5" fill="blue" stroke="none" /><circle cx="885.0025759353575" cy="873.0218288665385" r="5" fill="blue" stroke="none" /></svg>