<svg viewBox="0 0 7948 3504" xmlns="http://www.w3.org/2000/svg"><rect x="0" y="0" width="7948" height="3504" fill="lightyellow" stroke="none "/><rect x="384" y="1927" width="1704" height="415" fill="white" stroke="black "/><circle cx="6253" cy="483" r="5" fill="green" stroke="none" /><circle cx="1497" cy="544" r="5" fill="green" stroke="none" /><circle cx="3269" cy="1802" r="5" fill="green" stroke="none" /><circle cx="7407" cy="1371" r="5" fill="green" stroke="none" /><circle cx="5624" cy="2896" r="5" fill="green" stroke="none" /><circle cx="2344" cy="812" r="5" fill="green" stroke="none" /><circle cx="3718" cy="2465" r="5" fill="green" stroke="none" /><circle cx="2346" cy="1047" r="5" fill="green" stroke="none" /><circle cx="2468" cy="1789" r="5" fill="green" stroke="none" /><circle cx="1194" cy="2863" r="5" fill="green" stroke="none" /><circle cx="6402" cy="2607" r="5" fill="green" stroke="none" /><circle cx="6433" cy="1119" r="5" fill="green" stroke="none" /><circle cx="330" cy="2412" r="5" fill="green" stroke="none" /><circle cx="2376" cy="2179" r="5" fill="green" stroke="none" /><circle cx="7315" cy="184" r="5" fill="green" stroke="none" /><circle cx="6245" cy="671" r="5" fill="green" stroke="none" /><circle cx="4900" cy="1518" r="5" fill="green" stroke="none" /><circle cx="5893" cy="946" r="5" fill="green" stroke="none" /><circle cx="2131" cy="1465" r="5" fill="green" stroke="none" /><circle cx="7786" cy="66" r="5" fill="green" stroke="none" /><circle cx="3949" cy="1266" r="5" fill="green" stroke="none" /><circle cx="7631" cy="1675" r="5" fill="green" stroke="none" /><circle cx="6441" cy="784" r="5" fill="green" stroke="none" /><circle cx="7659" cy="2098" r="5" fill="green" stroke="none" /><circle cx="1355" cy="185" r="5" fill="green" stroke="none" /><circle cx="2706" cy="1303" r="5" fill="green" stroke="none" /><circle cx="2093" cy="2389" r="5" fill="green" stroke="none" /><circle cx="7215" cy="2000" r="5" fill="green" stroke="none" /><circle cx="2989" cy="2511" r="5" fill="green" stroke="none" /><circle cx="784" cy="3242" r="5" fill="green" stroke="none" /><circle cx="2482" cy="762" r="5" fill="green" stroke="none" /><circle cx="1804" cy="3173" r="5" fill="green" stroke="none" /><circle cx="6401" cy="1661" r="5" fill="green" stroke="none" /><circle cx="7693" cy="2318" r="5" fill="green" stroke="none" /><circle cx="2551" cy="2603" r="5" fill="green" stroke="none" /><circle cx="5122" cy="1079" r="5" fill="green" stroke="none" /><circle cx="722" cy="434" r="5" fill="green" stroke="none" /><circle cx="5912" cy="1480" r="5" fill="green" stroke="none" /><circle cx="2316" cy="156" r="5" fill="green" stroke="none" /><circle cx="6975" cy="3165" r="5" fill="green" stroke="none" /><circle cx="4642" cy="1965" r="5" fill="green" stroke="none" /><circle cx="6896" cy="972" r="5" fill="green" stroke="none" /><circle cx="499" cy="53" r="5" fill="green" stroke="none" /><circle cx="7883" cy="618" r="5" fill="green" stroke="none" /><circle cx="1702" cy="2609" r="5" fill="green" stroke="none" /><circle cx="6637" cy="1229" r="5" fill="green" stroke="none" /><circle cx="6844" cy="2782" r="5" fill="green" stroke="none" /><circle cx="3815" cy="3367" r="5" fill="green" stroke="none" /><circle cx="707" cy="3276" r="5" fill="green" stroke="none" /><circle cx="223" cy="1963" r="5" fill="green" stroke="none" /><circle cx="1965" cy="3261" r="5" fill="green" stroke="none" /><circle cx="7029" cy="3311" r="5" fill="green" stroke="none" /><circle cx="5440" cy="2703" r="5" fill="green" stroke="none" /><circle cx="3712" cy="2" r="5" fill="green" stroke="none" /><circle cx="6896" cy="460" r="5" fill="green" stroke="none" /><circle cx="5947" cy="359" r="5" fill="green" stroke="none" /><circle cx="5556" cy="3478" r="5" fill="green" stroke="none" /><circle cx="6817" cy="2269" r="5" fill="green" stroke="none" /><circle cx="6802" cy="927" r="5" fill="green" stroke="none" /><circle cx="7175" cy="1630" r="5" fill="green" stroke="none" /><circle cx="5624" cy="552" r="5" fill="green" stroke="none" /><circle cx="3979" cy="3488" r="5" fill="green" stroke="none" /><circle cx="2453" cy="4" r="5" fill="green" stroke="none" /><circle cx="4828" cy="318" r="5" fill="green" stroke="none" /><circle cx="1507" cy="2555" r="5" fill="green" stroke="none" /><circle cx="4462" cy="1105" r="5" fill="green" stroke="none" /><circle cx="5008" cy="2609" r="5" fill="green" stroke="none" /><circle cx="755" cy="295" r="5" fill="green" stroke="none" /><circle cx="4847" cy="3176" r="5" fill="green" stroke="none" /><circle cx="621" cy="1090" r="5" fill="green" stroke="none" /><circle cx="7357" cy="1773" r="5" fill="green" stroke="none" /><circle cx="4565" cy="3452" r="5" fill="green" stroke="none" /><circle cx="6433" cy="3265" r="5" fill="green" stroke="none" /><circle cx="5585" cy="1581" r="5" fill="green" stroke="none" /><circle cx="6888" cy="1625" r="5" fill="green" stroke="none" /><circle cx="3048" cy="1405" r="5" fill="green" stroke="none" /><circle cx="238" cy="2779" r="5" fill="green" stroke="none" /><circle cx="2576" cy="431" r="5" fill="green" stroke="none" /><circle cx="2110" cy="1375" r="5" fill="green" stroke="none" /><circle cx="255" cy="2841" r="5" fill="green" stroke="none" /><circle cx="1608" cy="1101" r="5" fill="green" stroke="none" /><circle cx="5862" cy="635" r="5" fill="green" stroke="none" /><circle cx="7007" cy="2771" r="5" fill="green" stroke="none" /><circle cx="3150" cy="1689" r="5" fill="green" stroke="none" /><circle cx="2106" cy="1374" r="5" fill="green" stroke="none" /><circle cx="7503" cy="2786" r="5" fill="green" stroke="none" /><circle cx="6868" cy="2283" r="5" fill="green" stroke="none" /><circle cx="7273" cy="765" r="5" fill="green" stroke="none" /><circle cx="937" cy="137" r="5" fill="green" stroke="none" /><circle cx="7913" cy="2747" r="5" fill="green" stroke="none" /><circle cx="2967" cy="2934" r="5" fill="green" stroke="none" /><circle cx="2389" cy="2084" r="5" fill="green" stroke="none" /><circle cx="3872" cy="3070" r="5" fill="green" stroke="none" /><circle cx="137" cy="3199" r="5" fill="green" stroke="none" /><circle cx="2387" cy="1826" r="5" fill="green" stroke="none" /><circle cx="1098" cy="3286" r="5" fill="green" stroke="none" /><circle cx="1484" cy="1644" r="5" fill="green" stroke="none" /><circle cx="3891" cy="3284" r="5" fill="green" stroke="none" /><circle cx="5815" cy="1574" r="5" fill="green" stroke="none" /><circle cx="262" cy="1970" r="5" fill="green" stroke="none" /><circle cx="1895" cy="426" r="5" fill="green" stroke="none" /><circle cx="1061" cy="1319" r="5" fill="green" stroke="none" /><circle cx="6674" cy="1204" r="5" fill="green" stroke="none" /><circle cx="4816" cy="3071" r="5" fill="green" stroke="none" /><circle cx="6322" cy="644" r="5" fill="green" stroke="none" /><circle cx="4455" cy="1438" r="5" fill="green" stroke="none" /><circle cx="6933" cy="660" r="5" fill="green" stroke="none" /><circle cx="2109" cy="2883" r="5" fill="green" stroke="none" /><circle cx="3469" cy="2499" r="5" fill="green" stroke="none" /><circle cx="2871" cy="1788" r="5" fill="green" stroke="none" /><circle cx="6870" cy="1042" r="5" fill="green" stroke="none" /><circle cx="7429" cy="630" r="5" fill="green" stroke="none" /><circle cx="564" cy="2377" r="5" fill="green" stroke="none" /><circle cx="3818" cy="969" r="5" fill="green" stroke="none" /><circle cx="164" cy="1914" r="5" fill="green" stroke="none" /><circle cx="1617" cy="2576" r="5" fill="green" stroke="none" /><circle cx="4068" cy="2882" r="5" fill="green" stroke="none" /><circle cx="1209" cy="1871" r="5" fill="green" stroke="none" /><circle cx="6028" cy="1333" r="5" fill="green" stroke="none" /><circle cx="5859" cy="1311" r="5" fill="green" stroke="none" /><circle cx="3950" cy="3230" r="5" fill="green" stroke="none" /><circle cx="1703" cy="1420" r="5" fill="green" stroke="none" /><circle cx="7743" cy="2385" r="5" fill="green" stroke="none" /><circle cx="4792" cy="125" r="5" fill="green" stroke="none" /><circle cx="2850" cy="1294" r="5" fill="green" stroke="none" /><circle cx="2680" cy="1611" r="5" fill="green" stroke="none" /><circle cx="3072" cy="1981" r="5" fill="green" stroke="none" /><circle cx="2809" cy="1197" r="5" fill="green" stroke="none" /><circle cx="3546" cy="2222" r="5" fill="green" stroke="none" /><circle cx="258" cy="1693" r="5" fill="green" stroke="none" /><circle cx="6590" cy="2780" r="5" fill="green" stroke="none" /><circle cx="1505" cy="3332" r="5" fill="green" stroke="none" /><circle cx="6983" cy="1661" r="5" fill="green" stroke="none" /><circle cx="543" cy="345" r="5" fill="green" stroke="none" /><circle cx="2096" cy="259" r="5" fill="green" stroke="none" /><circle cx="2182" cy="222" r="5" fill="green" stroke="none" /><circle cx="1073" cy="1361" r="5" fill="green" stroke="none" /><circle cx="2088" cy="2954" r="5" fill="green" stroke="none" /><circle cx="3897" cy="2300" r="5" fill="green" stroke="none" /><circle cx="5953" cy="1549" r="5" fill="green" stroke="none" /><circle cx="1124" cy="3077" r="5" fill="green" stroke="none" /><circle cx="1270" cy="1879" r="5" fill="green" stroke="none" /><circle cx="6878" cy="2677" r="5" fill="green" stroke="none" /><circle cx="1942" cy="297" r="5" fill="green" stroke="none" /><circle cx="7330" cy="883" r="5" fill="green" stroke="none" /><circle cx="1579" cy="1167" r="5" fill="green" stroke="none" /><circle cx="2821" cy="2416" r="5" fill="green" stroke="none" /><circle cx="6412" cy="661" r="5" fill="green" stroke="none" /><circle cx="7319" cy="2386" r="5" fill="green" stroke="none" /><circle cx="2708" cy="2844" r="5" fill="green" stroke="none" /><circle cx="6" cy="1084" r="5" fill="green" stroke="none" /><circle cx="5146" cy="568" r="5" fill="green" stroke="none" /><circle cx="1392" cy="2870" r="5" fill="green" stroke="none" /><circle cx="2901" cy="381" r="5" fill="green" stroke="none" /><circle cx="4646" cy="1218" r="5" fill="green" stroke="none" /><circle cx="499" cy="1662" r="5" fill="green" stroke="none" /><circle cx="5956" cy="1417" r="5" fill="green" stroke="none" /><circle cx="6165" cy="1371" r="5" fill="green" stroke="none" /><circle cx="1591" cy="3343" r="5" fill="green" stroke="none" /><circle cx="3369" cy="1644" r="5" fill="green" stroke="none" /><circle cx="288" cy="1741" r="5" fill="green" stroke="none" /><circle cx="4572" cy="2516" r="5" fill="green" stroke="none" /><circle cx="5090" cy="714" r="5" fill="green" stroke="none" /><circle cx="3977" cy="1698" r="5" fill="green" stroke="none" /><circle cx="6863" cy="1889" r="5" fill="green" stroke="none" /><circle cx="3405" cy="2654" r="5" fill="green" stroke="none" /><circle cx="5324" cy="3120" r="5" fill="green" stroke="none" /><circle cx="4269" cy="3423" r="5" fill="green" stroke="none" /><circle cx="5557" cy="2337" r="5" fill="green" stroke="none" /><circle cx="6037" cy="1290" r="5" fill="green" stroke="none" /><circle cx="6546" cy="1702" r="5" fill="green" stroke="none" /><circle cx="3630" cy="2818" r="5" fill="green" stroke="none" /><circle cx="5802" cy="3102" r="5" fill="green" stroke="none" /><circle cx="4767" cy="553" r="5" fill="green" stroke="none" /><circle cx="6748" cy="2205" r="5" fill="green" stroke="none" /><circle cx="6560" cy="454" r="5" fill="green" stroke="none" /><circle cx="6845" cy="3044" r="5" fill="green" stroke="none" /><circle cx="4475" cy="2426" r="5" fill="green" stroke="none" /><circle cx="3288" cy="591" r="5" fill="green" stroke="none" /><circle cx="6063" cy="1694" r="5" fill="green" stroke="none" /><circle cx="2573" cy="484" r="5" fill="green" stroke="none" /><circle cx="5718" cy="1416" r="5" fill="green" stroke="none" /><circle cx="2457" cy="1397" r="5" fill="green" stroke="none" /><circle cx="5795" cy="2285" r="5" fill="green" stroke="none" /><circle cx="6620" cy="814" r="5" fill="green" stroke="none" /><circle cx="7153" cy="2402" r="5" fill="green" stroke="none" /><circle cx="7010" cy="415" r="5" fill="green" stroke="none" /><circle cx="3249" cy="1133" r="5" fill="green" stroke="none" /><circle cx="3163" cy="3473" r="5" fill="green" stroke="none" /><circle cx="295" cy="584" r="5" fill="green" stroke="none" /><circle cx="2269" cy="2397" r="5" fill="green" stroke="none" /><circle cx="2963" cy="2496" r="5" fill="green" stroke="none" /><circle cx="419" cy="817" r="5" fill="green" stroke="none" /><circle cx="7884" cy="3500" r="5" fill="green" stroke="none" /><circle cx="5125" cy="2703" r="5" fill="green" stroke="none" /><circle cx="155" cy="774" r="5" fill="green" stroke="none" /><circle cx="3406" cy="678" r="5" fill="green" stroke="none" /><circle cx="40" cy="457" r="5" fill="green" stroke="none" /><circle cx="7737" cy="3469" r="5" fill="green" stroke="none" /><circle cx="996" cy="1813" r="5" fill="green" stroke="none" /><circle cx="1135" cy="31" r="5" fill="green" stroke="none" /><circle cx="7681" cy="487" r="5" fill="green" stroke="none" /><circle cx="4608" cy="765" r="5" fill="green" stroke="none" /><circle cx="30" cy="864" r="5" fill="green" stroke="none" /><circle cx="4037" cy="1035" r="5" fill="green" stroke="none" /><circle cx="1482" cy="610" r="5" fill="green" stroke="none" /><circle cx="7132" cy="200" r="5" fill="green" stroke="none" /><circle cx="3414" cy="1739" r="5" fill="green" stroke="none" /><circle cx="6093" cy="613" r="5" fill="green" stroke="none" /><circle cx="6681" cy="170" r="5" fill="green" stroke="none" /><circle cx="1426" cy="3301" r="5" fill="green" stroke="none" /><circle cx="2639" cy="3050" r="5" fill="green" stroke="none" /><circle cx="7010" cy="2794" r="5" fill="green" stroke="none" /><circle cx="4071" cy="1953" r="5" fill="green" stroke="none" /><circle cx="5879" cy="2826" r="5" fill="green" stroke="none" /><circle cx="290" cy="2479" r="5" fill="green" stroke="none" /><circle cx="1726" cy="3201" r="5" fill="green" stroke="none" /><circle cx="1239" cy="703" r="5" fill="green" stroke="none" /><circle cx="459" cy="294" r="5" fill="green" stroke="none" /><circle cx="6659" cy="2787" r="5" fill="green" stroke="none" /><circle cx="600" cy="2524" r="5" fill="green" stroke="none" /><circle cx="2947" cy="2502" r="5" fill="green" stroke="none" /><circle cx="4019" cy="3371" r="5" fill="green" stroke="none" /><circle cx="7583" cy="3219" r="5" fill="green" stroke="none" /><circle cx="3225" cy="2453" r="5" fill="green" stroke="none" /><circle cx="6602" cy="2164" r="5" fill="green" stroke="none" /><circle cx="3415" cy="2109" r="5" fill="green" stroke="none" /><circle cx="6945" cy="2205" r="5" fill="green" stroke="none" /><circle cx="7238" cy="2080" r="5" fill="green" stroke="none" /><circle cx="5153" cy="854" r="5" fill="green" stroke="none" /><circle cx="4067" cy="3313" r="5" fill="green" stroke="none" /><circle cx="3845" cy="377" r="5" fill="green" stroke="none" /><circle cx="5357" cy="2960" r="5" fill="green" stroke="none" /><circle cx="5363" cy="533" r="5" fill="green" stroke="none" /><circle cx="6152" cy="1288" r="5" fill="green" stroke="none" /><circle cx="625" cy="2759" r="5" fill="green" stroke="none" /><circle cx="5198" cy="994" r="5" fill="green" stroke="none" /><circle cx="6903" cy="2665" r="5" fill="green" stroke="none" /><circle cx="6220" cy="839" r="5" fill="green" stroke="none" /><circle cx="2229" cy="3131" r="5" fill="green" stroke="none" /><circle cx="1290" cy="3498" r="5" fill="green" stroke="none" /><circle cx="2690" cy="1639" r="5" fill="green" stroke="none" /><circle cx="7622" cy="652" r="5" fill="green" stroke="none" /><circle cx="3966" cy="2907" r="5" fill="green" stroke="none" /><circle cx="6239" cy="3367" r="5" fill="green" stroke="none" /><circle cx="4237" cy="2730" r="5" fill="green" stroke="none" /><circle cx="2251" cy="1092" r="5" fill="green" stroke="none" /><circle cx="6026" cy="3244" r="5" fill="green" stroke="none" /><circle cx="7505" cy="437" r="5" fill="green" stroke="none" /><circle cx="3155" cy="2966" r="5" fill="green" stroke="none" /><circle cx="3798" cy="1298" r="5" fill="green" stroke="none" /><circle cx="1857" cy="776" r="5" fill="green" stroke="none" /><circle cx="7702" cy="2699" r="5" fill="green" stroke="none" /><circle cx="6800" cy="3028" r="5" fill="green" stroke="none" /><circle cx="6369" cy="5" r="5" fill="green" stroke="none" /><circle cx="2256" cy="2738" r="5" fill="green" stroke="none" /><circle cx="5677" cy="3254" r="5" fill="green" stroke="none" /><circle cx="1931" cy="2374" r="5" fill="green" stroke="none" /><circle cx="6294" cy="12" r="5" fill="green" stroke="none" /><circle cx="6427" cy="2723" r="5" fill="green" stroke="none" /><circle cx="5200" cy="646" r="5" fill="green" stroke="none" /><circle cx="5228" cy="1530" r="5" fill="green" stroke="none" /><circle cx="1321" cy="3470" r="5" fill="green" stroke="none" /><circle cx="6654" cy="1171" r="5" fill="green" stroke="none" /><circle cx="6592" cy="1645" r="5" fill="green" stroke="none" /><circle cx="3074" cy="2782" r="5" fill="green" stroke="none" /><circle cx="2401" cy="2157" r="5" fill="green" stroke="none" /><circle cx="18" cy="2340" r="5" fill="green" stroke="none" /><circle cx="7851" cy="243" r="5" fill="green" stroke="none" /><circle cx="5082" cy="1840" r="5" fill="green" stroke="none" /><circle cx="3504" cy="450" r="5" fill="green" stroke="none" /><circle cx="4406" cy="550" r="5" fill="green" stroke="none" /><circle cx="2988" cy="908" r="5" fill="green" stroke="none" /><circle cx="3042" cy="2253" r="5" fill="green" stroke="none" /><circle cx="6266" cy="2161" r="5" fill="green" stroke="none" /><circle cx="4882" cy="1521" r="5" fill="green" stroke="none" /><circle cx="5102" cy="2944" r="5" fill="green" stroke="none" /><circle cx="5461" cy="152" r="5" fill="green" stroke="none" /><circle cx="2040" cy="3397" r="5" fill="green" stroke="none" /><circle cx="686" cy="672" r="5" fill="green" stroke="none" /><circle cx="4287" cy="301" r="5" fill="green" stroke="none" /><circle cx="1276" cy="2487" r="5" fill="green" stroke="none" /><circle cx="5991" cy="1710" r="5" fill="green" stroke="none" /><circle cx="1474" cy="554" r="5" fill="green" stroke="none" /><circle cx="6791" cy="753" r="5" fill="green" stroke="none" /><circle cx="338" cy="845" r="5" fill="green" stroke="none" /><circle cx="4580" cy="2425" r="5" fill="green" stroke="none" /><circle cx="6232" cy="26" r="5" fill="green" stroke="none" /><circle cx="1511" cy="2655" r="5" fill="green" stroke="none" /><circle cx="662" cy="314" r="5" fill="green" stroke="none" /><circle cx="7012" cy="3473" r="5" fill="green" stroke="none" /><circle cx="5175" cy="2574" r="5" fill="green" stroke="none" /><circle cx="3846" cy="1098" r="5" fill="green" stroke="none" /><circle cx="4835" cy="1490" r="5" fill="green" stroke="none" /><circle cx="1171" cy="1713" r="5" fill="green" stroke="none" /><circle cx="2029" cy="2577" r="5" fill="green" stroke="none" /><circle cx="7918" cy="558" r="5" fill="green" stroke="none" /><circle cx="4868" cy="3445" r="5" fill="green" stroke="none" /><circle cx="5514" cy="2077" r="5" fill="green" stroke="none" /><circle cx="0" cy="1673" r="5" fill="green" stroke="none" /><circle cx="2985" cy="841" r="5" fill="green" stroke="none" /><circle cx="2902" cy="2394" r="5" fill="green" stroke="none" /><circle cx="6137" cy="269" r="5" fill="green" stroke="none" /><circle cx="2017" cy="1584" r="5" fill="green" stroke="none" /><circle cx="5413" cy="2954" r="5" fill="green" stroke="none" /><circle cx="2172" cy="521" r="5" fill="green" stroke="none" /><circle cx="5668" cy="596" r="5" fill="green" stroke="none" /><circle cx="4983" cy="2768" r="5" fill="green" stroke="none" /><circle cx="7395" cy="2090" r="5" fill="green" stroke="none" /><circle cx="2039" cy="104" r="5" fill="green" stroke="none" /><circle cx="6126" cy="39" r="5" fill="green" stroke="none" /><circle cx="5303" cy="1055" r="5" fill="green" stroke="none" /><circle cx="5295" cy="1433" r="5" fill="green" stroke="none" /><circle cx="3220" cy="568" r="5" fill="green" stroke="none" /><circle cx="395" cy="3063" r="5" fill="green" stroke="none" /><circle cx="7271" cy="1831" r="5" fill="green" stroke="none" /><circle cx="6844" cy="175" r="5" fill="green" stroke="none" /><circle cx="6172" cy="2722" r="5" fill="green" stroke="none" /><circle cx="610" cy="3046" r="5" fill="green" stroke="none" /><circle cx="2410" cy="2796" r="5" fill="green" stroke="none" /><circle cx="4183" cy="1386" r="5" fill="green" stroke="none" /><circle cx="7353" cy="1781" r="5" fill="green" stroke="none" /><circle cx="5514" cy="2903" r="5" fill="green" stroke="none" /><circle cx="3167" cy="857" r="5" fill="green" stroke="none" /><circle cx="4039" cy="676" r="5" fill="green" stroke="none" /><circle cx="5833" cy="2280" r="5" fill="green" stroke="none" /><circle cx="2908" cy="1866" r="5" fill="green" stroke="none" /><circle cx="5570" cy="130" r="5" fill="green" stroke="none" /><circle cx="187" cy="1786" r="5" fill="green" stroke="none" /><circle cx="389" cy="66" r="5" fill="green" stroke="none" /><circle cx="2876" cy="2734" r="5" fill="green" stroke="none" /><circle cx="6649" cy="585" r="5" fill="green" stroke="none" /><circle cx="12" cy="376" r="5" fill="green" stroke="none" /><circle cx="3593" cy="901" r="5" fill="green" stroke="none" /><circle cx="3872" cy="2323" r="5" fill="green" stroke="none" /><circle cx="1615" cy="1433" r="5" fill="green" stroke="none" /><circle cx="7841" cy="3066" r="5" fill="green" stroke="none" /><circle cx="5234" cy="2603" r="5" fill="green" stroke="none" /><circle cx="2705" cy="1656" r="5" fill="green" stroke="none" /><circle cx="76" cy="2733" r="5" fill="green" stroke="none" /><circle cx="6287" cy="2567" r="5" fill="green" stroke="none" /><circle cx="1690" cy="1275" r="5" fill="green" stroke="none" /><circle cx="6145" cy="2955" r="5" fill="green" stroke="none" /><circle cx="2299" cy="2014" r="5" fill="green" stroke="none" /><circle cx="3173" cy="1076" r="5" fill="green" stroke="none" /><circle cx="4880" cy="2516" r="5" fill="green" stroke="none" /><circle cx="7196" cy="2417" r="5" fill="green" stroke="none" /><circle cx="2590" cy="1730" r="5" fill="green" stroke="none" /><circle cx="2789" cy="1942" r="5" fill="green" stroke="none" /><circle cx="936" cy="3429" r="5" fill="green" stroke="none" /><circle cx="2251" cy="1794" r="5" fill="green" stroke="none" /><circle cx="2378" cy="435" r="5" fill="green" stroke="none" /><circle cx="1901" cy="886" r="5" fill="green" stroke="none" /><circle cx="2854" cy="2522" r="5" fill="green" stroke="none" /><circle cx="7585" cy="2546" r="5" fill="green" stroke="none" /><circle cx="3881" cy="3138" r="5" fill="green" stroke="none" /><circle cx="7793" cy="2450" r="5" fill="green" stroke="none" /><circle cx="114" cy="3057" r="5" fill="green" stroke="none" /><circle cx="4002" cy="2811" r="5" fill="green" stroke="none" /><circle cx="1739" cy="2348" r="5" fill="green" stroke="none" /><circle cx="3468" cy="2411" r="5" fill="green" stroke="none" /><circle cx="6545" cy="1462" r="5" fill="green" stroke="none" /><circle cx="5841" cy="1240" r="5" fill="green" stroke="none" /><circle cx="6264" cy="2571" r="5" fill="green" stroke="none" /><circle cx="4788" cy="299" r="5" fill="green" stroke="none" /><circle cx="5884" cy="145" r="5" fill="green" stroke="none" /><circle cx="7112" cy="669" r="5" fill="green" stroke="none" /><circle cx="1535" cy="1332" r="5" fill="green" stroke="none" /><circle cx="1747" cy="589" r="5" fill="green" stroke="none" /><circle cx="249" cy="738" r="5" fill="green" stroke="none" /><circle cx="577" cy="341" r="5" fill="green" stroke="none" /><circle cx="2256" cy="1719" r="5" fill="green" stroke="none" /><circle cx="2588" cy="2465" r="5" fill="green" stroke="none" /><circle cx="7072" cy="1231" r="5" fill="green" stroke="none" /><circle cx="5373" cy="2231" r="5" fill="green" stroke="none" /><circle cx="815" cy="3028" r="5" fill="green" stroke="none" /><circle cx="3112" cy="808" r="5" fill="green" stroke="none" /><circle cx="3278" cy="3" r="5" fill="green" stroke="none" /><circle cx="6296" cy="2643" r="5" fill="green" stroke="none" /><circle cx="1684" cy="1200" r="5" fill="green" stroke="none" /><circle cx="6432" cy="2686" r="5" fill="green" stroke="none" /><circle cx="2684" cy="3040" r="5" fill="green" stroke="none" /><circle cx="7314" cy="2674" r="5" fill="green" stroke="none" /><circle cx="6104" cy="350" r="5" fill="green" stroke="none" /><circle cx="3600" cy="2038" r="5" fill="green" stroke="none" /><circle cx="2706" cy="465" r="5" fill="green" stroke="none" /><circle cx="6382" cy="3284" r="5" fill="green" stroke="none" /><circle cx="6078" cy="287" r="5" fill="green" stroke="none" /><circle cx="7774" cy="276" r="5" fill="green" stroke="none" /><circle cx="2304" cy="284" r="5" fill="green" stroke="none" /><circle cx="112" cy="2055" r="5" fill="green" stroke="none" /><circle cx="3680" cy="615" r="5" fill="green" stroke="none" /><circle cx="110" cy="1274" r="5" fill="green" stroke="none" /><circle cx="5055" cy="1858" r="5" fill="green" stroke="none" /><circle cx="3799" cy="1480" r="5" fill="green" stroke="none" /><circle cx="4262" cy="1341" r="5" fill="green" stroke="none" /><circle cx="4547" cy="3450" r="5" fill="green" stroke="none" /><circle cx="610" cy="1739" r="5" fill="green" stroke="none" /><circle cx="211" cy="3259" r="5" fill="green" stroke="none" /><circle cx="5227" cy="3369" r="5" fill="green" stroke="none" /><circle cx="1739.0008438155196" cy="2331.999898416269" r="5" fill="blue" stroke="none" /><circle cx="1256.7675771191514" cy="1937.0008949676708" r="5" fill="blue" stroke="none" /></svg>