<svg viewBox="0 0 1000 1000" xmlns="http://www.w3.org/2000/svg"><rect x="0" y="0" width="1000" height="1000" fill="lightyellow" stroke="none "/><rect x="0" y="0" width="1000" height="12" fill="none" stroke="none "/><circle cx="442" cy="621" r="5" fill="green" stroke="none" /><circle cx="806" cy="187" r="5" fill="green" stroke="none" /><circle cx="376" cy="141" r="5" fill="green" stroke="none" /><circle cx="512" cy="756" r="5" fill="green" stroke="none" /><circle cx="306" cy="479" r="5" fill="green" stroke="none" /><circle cx="688" cy="502" r="5" fill="green" stroke="none" /><circle cx="884" cy="436" r="5" fill="green" stroke="none" /><circle cx="911" cy="952" r="5" fill="green" stroke="none" /><circle cx="372" cy="725" r="5" fill="green" stroke="none" /><circle cx="971" cy="590" r="5" fill="green" stroke="none" /><circle cx="699" cy="762" r="5" fill="green" stroke="none" /><circle cx="162" cy="679" r="5" fill="green" stroke="none" /><circle cx="6" cy="70" r="5" fill="green" stroke="none" /><circle cx="509" cy="298" r="5" fill="green" stroke="none" /><circle cx="983" cy="694" r="5" fill="green" stroke="none" /><circle cx="412" cy="392" r="5" fill="green" stroke="none" /><circle cx="167" cy="698" r="5" fill="green" stroke="none" /><circle cx="907" cy="478" r="5" fill="green" stroke="none" /><circle cx="48" cy="31" r="5" fill="green" stroke="none" /><circle cx="989" cy="717" r="5" fill="green" stroke="none" /><circle cx="129" cy="753" r="5" fill="green" stroke="none" /><circle cx="101" cy="148" r="5" fill="green" stroke="none" /><circle cx="451" cy="22" r="5" fill="green" stroke="none" /><circle cx="261" cy="190" r="5" fill="green" stroke="none" /><circle cx="56" cy="715" r="5" fill="green" stroke="none" /><circle cx="663" cy="387" r="5" fill="green" stroke="none" /><circle cx="67" cy="244" r="5" fill="green" stroke="none" /><circle cx="625" cy="411" r="5" fill="green" stroke="none" /><circle cx="163" cy="514" r="5" fill="green" stroke="none" /><circle cx="670" cy="775" r="5" fill="green" stroke="none" /><circle cx="831" cy="303" r="5" fill="green" stroke="none" /><circle cx="770" cy="224" r="5" fill="green" stroke="none" /><circle cx="418" cy="475" r="5" fill="green" stroke="none" /><circle cx="316" cy="208" r="5" fill="green" stroke="none" /><circle cx="724" cy="578" r="5" fill="green" stroke="none" /><circle cx="76" cy="266" r="5" fill="green" stroke="none" /><circle cx="290" cy="308" r="5" fill="green" stroke="none" /><circle cx="853" cy="335" r="5" fill="green" stroke="none" /><circle cx="357" cy="387" r="5" fill="green" stroke="none" /><circle cx="735" cy="114" r="5" fill="green" stroke="none" /><circle cx="985" cy="552" r="5" fill="green" stroke="none" /><circle cx="126" cy="522" r="5" fill="green" stroke="none" /><circle cx="520" cy="558" r="5" fill="green" stroke="none" /><circle cx="126" cy="771" r="5" fill="green" stroke="none" /><circle cx="540" cy="685" r="5" fill="green" stroke="none" /><circle cx="240" cy="834" r="5" fill="green" stroke="none" /><circle cx="168" cy="233" r="5" fill="green" stroke="none" /><circle cx="756" cy="593" r="5" fill="green" stroke="none" /><circle cx="440" cy="110" r="5" fill="green" stroke="none" /><circle cx="793" cy="439" r="5" fill="green" stroke="none" /><circle cx="677" cy="437" r="5" fill="green" stroke="none" /><circle cx="632" cy="767" r="5" fill="green" stroke="none" /><circle cx="4" cy="670" r="5" fill="green" stroke="none" /><circle cx="306" cy="609" r="5" fill="green" stroke="none" /><circle cx="273" cy="945" r="5" fill="green" stroke="none" /><circle cx="490" cy="594" r="5" fill="green" stroke="none" /><circle cx="801" cy="480" r="5" fill="green" stroke="none" /><circle cx="448" cy="852" r="5" fill="green" stroke="none" /><circle cx="251" cy="404" r="5" fill="green" stroke="none" /><circle cx="239" cy="652" r="5" fill="green" stroke="none" /><circle cx="755" cy="394" r="5" fill="green" stroke="none" /><circle cx="783" cy="795" r="5" fill="green" stroke="none" /><circle cx="14" cy="566" r="5" fill="green" stroke="none" /><circle cx="485" cy="58" r="5" fill="green" stroke="none" /><circle cx="135" cy="772" r="5" fill="green" stroke="none" /><circle cx="417" cy="521" r="5" fill="green" stroke="none" /><circle cx="552" cy="16" r="5" fill="green" stroke="none" /><circle cx="930" cy="648" r="5" fill="green" stroke="none" /><circle cx="302" cy="160" r="5" fill="green" stroke="none" /><circle cx="199" cy="358" r="5" fill="green" stroke="none" /><circle cx="831" cy="937" r="5" fill="green" stroke="none" /><circle cx="307" cy="524" r="5" fill="green" stroke="none" /><circle cx="568" cy="962" r="5" fill="green" stroke="none" /><circle cx="754" cy="539" r="5" fill="green" stroke="none" /><circle cx="890" cy="616" r="5" fill="green" stroke="none" /><circle cx="86" cy="631" r="5" fill="green" stroke="none" /><circle cx="439" cy="816" r="5" fill="green" stroke="none" /><circle cx="820" cy="771" r="5" fill="green" stroke="none" /><circle cx="994" cy="428" r="5" fill="green" stroke="none" /><circle cx="303" cy="662" r="5" fill="green" stroke="none" /><circle cx="444" cy="418" r="5" fill="green" stroke="none" /><circle cx="79" cy="459" r="5" fill="green" stroke="none" /><circle cx="307" cy="783" r="5" fill="green" stroke="none" /><circle cx="40" cy="604" r="5" fill="green" stroke="none" /><circle cx="31" cy="667" r="5" fill="green" stroke="none" /><circle cx="102" cy="48" r="5" fill="green" stroke="none" /><circle cx="510" cy="352" r="5" fill="green" stroke="none" /><circle cx="397" cy="933" r="5" fill="green" stroke="none" /><circle cx="83" cy="110" r="5" fill="green" stroke="none" /><circle cx="584" cy="869" r="5" fill="green" stroke="none" /><circle cx="395" cy="475" r="5" fill="green" stroke="none" /><circle cx="554" cy="324" r="5" fill="green" stroke="none" /><circle cx="936" cy="596" r="5" fill="green" stroke="none" /><circle cx="975" cy="375" r="5" fill="green" stroke="none" /><circle cx="973" cy="156" r="5" fill="green" stroke="none" /><circle cx="250" cy="267" r="5" fill="green" stroke="none" /><circle cx="41" cy="619" r="5" fill="green" stroke="none" /><circle cx="480" cy="107" r="5" fill="green" stroke="none" /><circle cx="9" cy="640" r="5" fill="green" stroke="none" /><circle cx="648" cy="633" r="5" fill="green" stroke="none" /><circle cx="583" cy="725" r="5" fill="green" stroke="none" /><circle cx="666" cy="485" r="5" fill="green" stroke="none" /><circle cx="557" cy="572" r="5" fill="green" stroke="none" /><circle cx="406" cy="376" r="5" fill="green" stroke="none" /><circle cx="794" cy="329" r="5" fill="green" stroke="none" /><circle cx="522" cy="238" r="5" fill="green" stroke="none" /><circle cx="214" cy="628" r="5" fill="green" stroke="none" /><circle cx="337" cy="419" r="5" fill="green" stroke="none" /><circle cx="587" cy="683" r="5" fill="green" stroke="none" /><circle cx="208" cy="428" r="5" fill="green" stroke="none" /><circle cx="986" cy="695" r="5" fill="green" stroke="none" /><circle cx="608" cy="182" r="5" fill="green" stroke="none" /><circle cx="163" cy="276" r="5" fill="green" stroke="none" /><circle cx="849" cy="45" r="5" fill="green" stroke="none" /><circle cx="299" cy="52" r="5" fill="green" stroke="none" /><circle cx="409" cy="796" r="5" fill="green" stroke="none" /><circle cx="256" cy="123" r="5" fill="green" stroke="none" /><circle cx="294" cy="209" r="5" fill="green" stroke="none" /><circle cx="514" cy="852" r="5" fill="green" stroke="none" /><circle cx="359" cy="193" r="5" fill="green" stroke="none" /><circle cx="690" cy="319" r="5" fill="green" stroke="none" /><circle cx="455" cy="741" r="5" fill="green" stroke="none" /><circle cx="768" cy="908" r="5" fill="green" stroke="none" /><circle cx="194" cy="438" r="5" fill="green" stroke="none" /><circle cx="1" cy="521" r="5" fill="green" stroke="none" /><circle cx="891" cy="144" r="5" fill="green" stroke="none" /><circle cx="194" cy="801" r="5" fill="green" stroke="none" /><circle cx="506" cy="773" r="5" fill="green" stroke="none" /><circle cx="304" cy="540" r="5" fill="green" stroke="none" /><circle cx="82" cy="980" r="5" fill="green" stroke="none" /><circle cx="60" cy="846" r="5" fill="green" stroke="none" /><circle cx="532" cy="603" r="5" fill="green" stroke="none" /><circle cx="758" cy="683" r="5" fill="green" stroke="none" /><circle cx="150" cy="155" r="5" fill="green" stroke="none" /><circle cx="107" cy="232" r="5" fill="green" stroke="none" /><circle cx="145" cy="902" r="5" fill="green" stroke="none" /><circle cx="558" cy="921" r="5" fill="green" stroke="none" /><circle cx="581" cy="625" r="5" fill="green" stroke="none" /><circle cx="611" cy="311" r="5" fill="green" stroke="none" /><circle cx="701" cy="346" r="5" fill="green" stroke="none" /><circle cx="112" cy="137" r="5" fill="green" stroke="none" /><circle cx="572" cy="800" r="5" fill="green" stroke="none" /><circle cx="268" cy="205" r="5" fill="green" stroke="none" /><circle cx="599" cy="134" r="5" fill="green" stroke="none" /><circle cx="888" cy="729" r="5" fill="green" stroke="none" /><circle cx="794" cy="811" r="5" fill="green" stroke="none" /><circle cx="843" cy="35" r="5" fill="green" stroke="none" /><circle cx="768" cy="21" r="5" fill="green" stroke="none" /><circle cx="149" cy="797" r="5" fill="green" stroke="none" /><circle cx="900" cy="720" r="5" fill="green" stroke="none" /><circle cx="770" cy="884" r="5" fill="green" stroke="none" /><circle cx="299" cy="917" r="5" fill="green" stroke="none" /><circle cx="597" cy="374" r="5" fill="green" stroke="none" /><circle cx="95" cy="311" r="5" fill="green" stroke="none" /><circle cx="911" cy="543" r="5" fill="green" stroke="none" /><circle cx="221" cy="201" r="5" fill="green" stroke="none" /><circle cx="184" cy="691" r="5" fill="green" stroke="none" /><circle cx="154" cy="768" r="5" fill="green" stroke="none" /><circle cx="654" cy="986" r="5" fill="green" stroke="none" /><circle cx="584" cy="676" r="5" fill="green" stroke="none" /><circle cx="858" cy="827" r="5" fill="green" stroke="none" /><circle cx="369" cy="570" r="5" fill="green" stroke="none" /><circle cx="844" cy="164" r="5" fill="green" stroke="none" /><circle cx="536" cy="841" r="5" fill="green" stroke="none" /><circle cx="738" cy="806" r="5" fill="green" stroke="none" /><circle cx="921" cy="261" r="5" fill="green" stroke="none" /><circle cx="353" cy="571" r="5" fill="green" stroke="none" /><circle cx="587" cy="666" r="5" fill="green" stroke="none" /><circle cx="256" cy="811" r="5" fill="green" stroke="none" /><circle cx="854" cy="236" r="5" fill="green" stroke="none" /><circle cx="346" cy="807" r="5" fill="green" stroke="none" /><circle cx="307" cy="978" r="5" fill="green" stroke="none" /><circle cx="623" cy="428" r="5" fill="green" stroke="none" /><circle cx="990" cy="71" r="5" fill="green" stroke="none" /><circle cx="151" cy="964" r="5" fill="green" stroke="none" /><circle cx="435" cy="721" r="5" fill="green" stroke="none" /><circle cx="420" cy="335" r="5" fill="green" stroke="none" /><circle cx="320" cy="65" r="5" fill="green" stroke="none" /><circle cx="38" cy="426" r="5" fill="green" stroke="none" /><circle cx="659" cy="362" r="5" fill="green" stroke="none" /><circle cx="886" cy="329" r="5" fill="green" stroke="none" /><circle cx="151" cy="534" r="5" fill="green" stroke="none" /><circle cx="810" cy="381" r="5" fill="green" stroke="none" /><circle cx="449" cy="303" r="5" fill="green" stroke="none" /><circle cx="526" cy="834" r="5" fill="green" stroke="none" /><circle cx="525" cy="210" r="5" fill="green" stroke="none" /><circle cx="830" cy="193" r="5" fill="green" stroke="none" /><circle cx="219" cy="534" r="5" fill="green" stroke="none" /><circle cx="354" cy="76" r="5" fill="green" stroke="none" /><circle cx="290" cy="565" r="5" fill="green" stroke="none" /><circle cx="48" cy="227" r="5" fill="green" stroke="none" /><circle cx="747" cy="529" r="5" fill="green" stroke="none" /><circle cx="390" cy="119" r="5" fill="green" stroke="none" /><circle cx="673" cy="947" r="5" fill="green" stroke="none" /><circle cx="167" cy="700" r="5" fill="green" stroke="none" /><circle cx="535" cy="150" r="5" fill="green" stroke="none" /><circle cx="174" cy="854" r="5" fill="green" stroke="none" /><circle cx="765" cy="725" r="5" fill="green" stroke="none" /><circle cx="706" cy="481" r="5" fill="green" stroke="none" /><circle cx="358" cy="93" r="5" fill="green" stroke="none" /><circle cx="707" cy="321" r="5" fill="green" stroke="none" /><circle cx="43" cy="341" r="5" fill="green" stroke="none" /><circle cx="553" cy="971" r="5" fill="green" stroke="none" /><circle cx="105" cy="939" r="5" fill="green" stroke="none" /><circle cx="94" cy="367" r="5" fill="green" stroke="none" /><circle cx="809" cy="25" r="5" fill="green" stroke="none" /><circle cx="159" cy="915" r="5" fill="green" stroke="none" /><circle cx="152" cy="314" r="5" fill="green" stroke="none" /><circle cx="471" cy="697" r="5" fill="green" stroke="none" /><circle cx="221" cy="335" r="5" fill="green" stroke="none" /><circle cx="976" cy="889" r="5" fill="green" stroke="none" /><circle cx="918" cy="762" r="5" fill="green" stroke="none" /><circle cx="871" cy="240" r="5" fill="green" stroke="none" /><circle cx="199" cy="86" r="5" fill="green" stroke="none" /><circle cx="527" cy="786" r="5" fill="green" stroke="none" /><circle cx="36" cy="515" r="5" fill="green" stroke="none" /><circle cx="316" cy="611" r="5" fill="green" stroke="none" /><circle cx="934" cy="362" r="5" fill="green" stroke="none" /><circle cx="665" cy="667" r="5" fill="green" stroke="none" /><circle cx="993" cy="970" r="5" fill="green" stroke="none" /><circle cx="672" cy="397" r="5" fill="green" stroke="none" /><circle cx="481" cy="402" r="5" fill="green" stroke="none" /><circle cx="830" cy="892" r="5" fill="green" stroke="none" /><circle cx="377" cy="903" r="5" fill="green" stroke="none" /><circle cx="674" cy="380" r="5" fill="green" stroke="none" /><circle cx="376" cy="210" r="5" fill="green" stroke="none" /><circle cx="0" cy="535" r="5" fill="green" stroke="none" /><circle cx="334" cy="355" r="5" fill="green" stroke="none" /><circle cx="928" cy="895" r="5" fill="green" stroke="none" /><circle cx="213" cy="246" r="5" fill="green" stroke="none" /><circle cx="976" cy="873" r="5" fill="green" stroke="none" /><circle cx="427" cy="488" r="5" fill="green" stroke="none" /><circle cx="247" cy="974" r="5" fill="green" stroke="none" /><circle cx="519" cy="117" r="5" fill="green" stroke="none" /><circle cx="137" cy="665" r="5" fill="green" stroke="none" /><circle cx="614" cy="804" r="5" fill="green" stroke="none" /><circle cx="986" cy="807" r="5" fill="green" stroke="none" /><circle cx="982" cy="115" r="5" fill="green" stroke="none" /><circle cx="48" cy="116" r="5" fill="green" stroke="none" /><circle cx="95" cy="600" r="5" fill="green" stroke="none" /><circle cx="482" cy="994" r="5" fill="green" stroke="none" /><circle cx="719" cy="156" r="5" fill="green" stroke="none" /><circle cx="594" cy="226" r="5" fill="green" stroke="none" /><circle cx="130" cy="265" r="5" fill="green" stroke="none" /><circle cx="626" cy="265" r="5" fill="green" stroke="none" /><circle cx="723" cy="472" r="5" fill="green" stroke="none" /><circle cx="324" cy="697" r="5" fill="green" stroke="none" /><circle cx="798" cy="206" r="5" fill="green" stroke="none" /><circle cx="139" cy="623" r="5" fill="green" stroke="none" /><circle cx="316" cy="220" r="5" fill="green" stroke="none" /><circle cx="686" cy="29" r="5" fill="green" stroke="none" /><circle cx="376" cy="120" r="5" fill="green" stroke="none" /><circle cx="621" cy="44" r="5" fill="green" stroke="none" /><circle cx="353" cy="930" r="5" fill="green" stroke="none" /><circle cx="951" cy="668" r="5" fill="green" stroke="none" /><circle cx="397" cy="614" r="5" fill="green" stroke="none" /><circle cx="477" cy="352" r="5" fill="green" stroke="none" /><circle cx="920" cy="643" r="5" fill="green" stroke="none" /><circle cx="487" cy="935" r="5" fill="green" stroke="none" /><circle cx="962" cy="975" r="5" fill="green" stroke="none" /><circle cx="908" cy="148" r="5" fill="green" stroke="none" /><circle cx="234" cy="874" r="5" fill="green" stroke="none" /><circle cx="44" cy="277" r="5" fill="green" stroke="none" /><circle cx="872" cy="713" r="5" fill="green" stroke="none" /><circle cx="7" cy="891" r="5" fill="green" stroke="none" /><circle cx="225" cy="900" r="5" fill="green" stroke="none" /><circle cx="27" cy="998" r="5" fill="green" stroke="none" /><circle cx="101" cy="873" r="5" fill="green" stroke="none" /><circle cx="854" cy="863" r="5" fill="green" stroke="none" /><circle cx="329" cy="801" r="5" fill="green" stroke="none" /><circle cx="321" cy="555" r="5" fill="green" stroke="none" /><circle cx="763" cy="78" r="5" fill="green" stroke="none" /><circle cx="737" cy="539" r="5" fill="green" stroke="none" /><circle cx="701" cy="599" r="5" fill="green" stroke="none" /><circle cx="527" cy="775" r="5" fill="green" stroke="none" /><circle cx="48" cy="137" r="5" fill="green" stroke="none" /><circle cx="243" cy="929" r="5" fill="green" stroke="none" /><circle cx="358" cy="835" r="5" fill="green" stroke="none" /><circle cx="694" cy="468" r="5" fill="green" stroke="none" /><circle cx="748" cy="788" r="5" fill="green" stroke="none" /><circle cx="420" cy="190" r="5" fill="green" stroke="none" /><circle cx="483" cy="323" r="5" fill="green" stroke="none" /><circle cx="376" cy="813" r="5" fill="green" stroke="none" /><circle cx="805" cy="305" r="5" fill="green" stroke="none" /><circle cx="303" cy="13" r="5" fill="green" stroke="none" /><circle cx="942" cy="979" r="5" fill="green" stroke="none" /><circle cx="595" cy="299" r="5" fill="green" stroke="none" /><circle cx="568" cy="996" r="5" fill="green" stroke="none" /><circle cx="736" cy="861" r="5" fill="green" stroke="none" /><circle cx="445" cy="320" r="5" fill="green" stroke="none" /><circle cx="407" cy="297" r="5" fill="green" stroke="none" /><circle cx="967" cy="280" r="5" fill="green" stroke="none" /><circle cx="791" cy="737" r="5" fill="green" stroke="none" /><circle cx="79" cy="52" r="5" fill="green" stroke="none" /><circle cx="739" cy="810" r="5" fill="green" stroke="none" /><circle cx="792" cy="619" r="5" fill="green" stroke="none" /><circle cx="485" cy="713" r="5" fill="green" stroke="none" /><circle cx="425" cy="586" r="5" fill="green" stroke="none" /><circle cx="546" cy="553" r="5" fill="green" stroke="none" /><circle cx="663" cy="551" r="5" fill="green" stroke="none" /><circle cx="657" cy="766" r="5" fill="green" stroke="none" /><circle cx="62" cy="524" r="5" fill="green" stroke="none" /><circle cx="928" cy="926" r="5" fill="green" stroke="none" /><circle cx="746" cy="378" r="5" fill="green" stroke="none" /><circle cx="399" cy="909" r="5" fill="green" stroke="none" /><circle cx="750" cy="754" r="5" fill="green" stroke="none" /><circle cx="98" cy="380" r="5" fill="green" stroke="none" /><circle cx="314" cy="796" r="5" fill="green" stroke="none" /><circle cx="835" cy="972" r="5" fill="green" stroke="none" /><circle cx="570" cy="315" r="5" fill="green" stroke="none" /><circle cx="672" cy="394" r="5" fill="green" stroke="none" /><circle cx="122" cy="720" r="5" fill="green" stroke="none" /><circle cx="712" cy="640" r="5" fill="green" stroke="none" /><circle cx="768" cy="106" r="5" fill="green" stroke="none" /><circle cx="869" cy="196" r="5" fill="green" stroke="none" /><circle cx="59" cy="835" r="5" fill="green" stroke="none" /><circle cx="642" cy="37" r="5" fill="green" stroke="none" /><circle cx="621" cy="365" r="5" fill="green" stroke="none" /><circle cx="845" cy="401" r="5" fill="green" stroke="none" /><circle cx="806" cy="773" r="5" fill="green" stroke="none" /><circle cx="94" cy="762" r="5" fill="green" stroke="none" /><circle cx="427" cy="804" r="5" fill="green" stroke="none" /><circle cx="150" cy="343" r="5" fill="green" stroke="none" /><circle cx="427" cy="153" r="5" fill="green" stroke="none" /><circle cx="630" cy="331" r="5" fill="green" stroke="none" /><circle cx="106" cy="188" r="5" fill="green" stroke="none" /><circle cx="230" cy="922" r="5" fill="green" stroke="none" /><circle cx="526" cy="892" r="5" fill="green" stroke="none" /><circle cx="587" cy="624" r="5" fill="green" stroke="none" /><circle cx="312" cy="665" r="5" fill="green" stroke="none" /><circle cx="799" cy="52" r="5" fill="green" stroke="none" /><circle cx="111" cy="510" r="5" fill="green" stroke="none" /><circle cx="140" cy="952" r="5" fill="green" stroke="none" /><circle cx="866" cy="386" r="5" fill="green" stroke="none" /><circle cx="778" cy="966" r="5" fill="green" stroke="none" /><circle cx="358" cy="585" r="5" fill="green" stroke="none" /><circle cx="181" cy="871" r="5" fill="green" stroke="none" /><circle cx="696" cy="706" r="5" fill="green" stroke="none" /><circle cx="638" cy="810" r="5" fill="green" stroke="none" /><circle cx="342" cy="255" r="5" fill="green" stroke="none" /><circle cx="95" cy="422" r="5" fill="green" stroke="none" /><circle cx="0" cy="427" r="5" fill="green" stroke="none" /><circle cx="432" cy="269" r="5" fill="green" stroke="none" /><circle cx="406" cy="126" r="5" fill="green" stroke="none" /><circle cx="753" cy="893" r="5" fill="green" stroke="none" /><circle cx="626" cy="39" r="5" fill="green" stroke="none" /><circle cx="638" cy="869" r="5" fill="green" stroke="none" /><circle cx="221" cy="656" r="5" fill="green" stroke="none" /><circle cx="984" cy="569" r="5" fill="green" stroke="none" /><circle cx="533" cy="17" r="5" fill="green" stroke="none" /><circle cx="614" cy="605" r="5" fill="green" stroke="none" /><circle cx="227" cy="762" r="5" fill="green" stroke="none" /><circle cx="815" cy="126" r="5" fill="green" stroke="none" /><circle cx="701" cy="55" r="5" fill="green" stroke="none" /><circle cx="315" cy="35" r="5" fill="green" stroke="none" /><circle cx="791" cy="220" r="5" fill="green" stroke="none" /><circle cx="432" cy="488" r="5" fill="green" stroke="none" /><circle cx="382" cy="485" r="5" fill="green" stroke="none" /><circle cx="552" cy="364" r="5" fill="green" stroke="none" /><circle cx="537" cy="466" r="5" fill="green" stroke="none" /><circle cx="808" cy="492" r="5" fill="green" stroke="none" /><circle cx="715" cy="954" r="5" fill="green" stroke="none" /><circle cx="606" cy="53" r="5" fill="green" stroke="none" /><circle cx="956" cy="358" r="5" fill="green" stroke="none" /><circle cx="361" cy="696" r="5" fill="green" stroke="none" /><circle cx="419" cy="113" r="5" fill="green" stroke="none" /><circle cx="499" cy="160" r="5" fill="green" stroke="none" /><circle cx="638" cy="522" r="5" fill="green" stroke="none" /><circle cx="527" cy="22" r="5" fill="green" stroke="none" /><circle cx="401" cy="177" r="5" fill="green" stroke="none" /><circle cx="640" cy="995" r="5" fill="green" stroke="none" /><circle cx="522" cy="27" r="5" fill="green" stroke="none" /><circle cx="854" cy="579" r="5" fill="green" stroke="none" /><circle cx="303" cy="522" r="5" fill="green" stroke="none" /><circle cx="981" cy="889" r="5" fill="green" stroke="none" /><circle cx="171" cy="734" r="5" fill="green" stroke="none" /><circle cx="624" cy="327" r="5" fill="green" stroke="none" /><circle cx="117" cy="651" r="5" fill="green" stroke="none" /><circle cx="376" cy="533" r="5" fill="green" stroke="none" /><circle cx="614" cy="33" r="5" fill="green" stroke="none" /><circle cx="269" cy="18" r="5" fill="green" stroke="none" /><circle cx="442" cy="226" r="5" fill="green" stroke="none" /><circle cx="775" cy="347" r="5" fill="green" stroke="none" /><circle cx="929" cy="270" r="5" fill="green" stroke="none" /><circle cx="14" cy="303" r="5" fill="green" stroke="none" /><circle cx="266" cy="260" r="5" fill="green" stroke="none" /><circle cx="449" cy="775" r="5" fill="green" stroke="none" /><circle cx="11" cy="647" r="5" fill="green" stroke="none" /><circle cx="84" cy="177" r="5" fill="green" stroke="none" /><circle cx="984" cy="286" r="5" fill="green" stroke="none" /><circle cx="437" cy="995" r="5" fill="green" stroke="none" /><circle cx="560" cy="359" r="5" fill="green" stroke="none" /><circle cx="246" cy="112" r="5" fill="green" stroke="none" /><circle cx="522" cy="885" r="5" fill="green" stroke="none" /><circle cx="166" cy="944" r="5" fill="green" stroke="none" /><circle cx="993" cy="924" r="5" fill="green" stroke="none" /><circle cx="144" cy="871" r="5" fill="green" stroke="none" /><circle cx="196" cy="156" r="5" fill="green" stroke="none" /><circle cx="676" cy="124" r="5" fill="green" stroke="none" /><circle cx="36" cy="273" r="5" fill="green" stroke="none" /></svg>