<svg viewBox="0 0 1000 1000" xmlns="http://www.w3.org/2000/svg"><rect x="0" y="0" width="1000" height="1000" fill="lightyellow" stroke="none "/><rect x="0" y="0" width="1000" height="12" fill="none" stroke="none "/><circle cx="63" cy="60" r="5" fill="green" stroke="none" /><circle cx="696" cy="937" r="5" fill="green" stroke="none" /><circle cx="119" cy="103" r="5" fill="green" stroke="none" /><circle cx="51" cy="187" r="5" fill="green" stroke="none" /><circle cx="210" cy="874" r="5" fill="green" stroke="none" /><circle cx="99" cy="432" r="5" fill="green" stroke="none" /><circle cx="684" cy="524" r="5" fill="green" stroke="none" /><circle cx="440" cy="77" r="5" fill="green" stroke="none" /><circle cx="980" cy="36" r="5" fill="green" stroke="none" /><circle cx="854" cy="40" r="5" fill="green" stroke="none" /><circle cx="249" cy="719" r="5" fill="green" stroke="none" /><circle cx="459" cy="168" r="5" fill="green" stroke="none" /><circle cx="533" cy="680" r="5" fill="green" stroke="none" /><circle cx="16" cy="100" r="5" fill="green" stroke="none" /><circle cx="457" cy="803" r="5" fill="green" stroke="none" /><circle cx="624" cy="604" r="5" fill="green" stroke="none" /><circle cx="705" cy="690" r="5" fill="green" stroke="none" /><circle cx="268" cy="754" r="5" fill="green" stroke="none" /><circle cx="200" cy="176" r="5" fill="green" stroke="none" /><circle cx="302" cy="869" r="5" fill="green" stroke="none" /><circle cx="606" cy="712" r="5" fill="green" stroke="none" /><circle cx="716" cy="339" r="5" fill="green" stroke="none" /><circle cx="161" cy="874" r="5" fill="green" stroke="none" /><circle cx="477" cy="215" r="5" fill="green" stroke="none" /><circle cx="628" cy="714" r="5" fill="green" stroke="none" /><circle cx="44" cy="91" r="5" fill="green" stroke="none" /><circle cx="610" cy="847" r="5" fill="green" stroke="none" /><circle cx="786" cy="80" r="5" fill="green" stroke="none" /><circle cx="916" cy="734" r="5" fill="green" stroke="none" /><circle cx="800" cy="750" r="5" fill="green" stroke="none" /><circle cx="388" cy="213" r="5" fill="green" stroke="none" /><circle cx="440" cy="902" r="5" fill="green" stroke="none" /><circle cx="923" cy="308" r="5" fill="green" stroke="none" /><circle cx="778" cy="183" r="5" fill="green" stroke="none" /><circle cx="212" cy="629" r="5" fill="green" stroke="none" /><circle cx="652" cy="554" r="5" fill="green" stroke="none" /><circle cx="469" cy="847" r="5" fill="green" stroke="none" /><circle cx="398" cy="856" r="5" fill="green" stroke="none" /><circle cx="857" cy="671" r="5" fill="green" stroke="none" /><circle cx="871" cy="992" r="5" fill="green" stroke="none" /><circle cx="909" cy="26" r="5" fill="green" stroke="none" /><circle cx="768" cy="103" r="5" fill="green" stroke="none" /><circle cx="853" cy="751" r="5" fill="green" stroke="none" /><circle cx="174" cy="732" r="5" fill="green" stroke="none" /><circle cx="587" cy="827" r="5" fill="green" stroke="none" /><circle cx="406" cy="502" r="5" fill="green" stroke="none" /><circle cx="577" cy="569" r="5" fill="green" stroke="none" /><circle cx="336" cy="884" r="5" fill="green" stroke="none" /><circle cx="24" cy="960" r="5" fill="green" stroke="none" /><circle cx="553" cy="979" r="5" fill="green" stroke="none" /><circle cx="193" cy="278" r="5" fill="green" stroke="none" /><circle cx="432" cy="536" r="5" fill="green" stroke="none" /><circle cx="588" cy="612" r="5" fill="green" stroke="none" /><circle cx="67" cy="438" r="5" fill="green" stroke="none" /><circle cx="495" cy="492" r="5" fill="green" stroke="none" /><circle cx="599" cy="667" r="5" fill="green" stroke="none" /><circle cx="538" cy="232" r="5" fill="green" stroke="none" /><circle cx="122" cy="587" r="5" fill="green" stroke="none" /><circle cx="170" cy="334" r="5" fill="green" stroke="none" /><circle cx="751" cy="24" r="5" fill="green" stroke="none" /><circle cx="470" cy="212" r="5" fill="green" stroke="none" /><circle cx="530" cy="614" r="5" fill="green" stroke="none" /><circle cx="683" cy="991" r="5" fill="green" stroke="none" /><circle cx="664" cy="457" r="5" fill="green" stroke="none" /><circle cx="540" cy="104" r="5" fill="green" stroke="none" /><circle cx="650" cy="839" r="5" fill="green" stroke="none" /><circle cx="498" cy="693" r="5" fill="green" stroke="none" /><circle cx="534" cy="747" r="5" fill="green" stroke="none" /><circle cx="930" cy="710" r="5" fill="green" stroke="none" /><circle cx="312" cy="582" r="5" fill="green" stroke="none" /><circle cx="738" cy="462" r="5" fill="green" stroke="none" /><circle cx="995" cy="200" r="5" fill="green" stroke="none" /><circle cx="1" cy="369" r="5" fill="green" stroke="none" /><circle cx="945" cy="576" r="5" fill="green" stroke="none" /><circle cx="679" cy="219" r="5" fill="green" stroke="none" /><circle cx="485" cy="650" r="5" fill="green" stroke="none" /><circle cx="180" cy="595" r="5" fill="green" stroke="none" /><circle cx="877" cy="391" r="5" fill="green" stroke="none" /><circle cx="320" cy="385" r="5" fill="green" stroke="none" /><circle cx="907" cy="698" r="5" fill="green" stroke="none" /><circle cx="351" cy="123" r="5" fill="green" stroke="none" /><circle cx="465" cy="358" r="5" fill="green" stroke="none" /><circle cx="723" cy="592" r="5" fill="green" stroke="none" /><circle cx="720" cy="717" r="5" fill="green" stroke="none" /><circle cx="84" cy="945" r="5" fill="green" stroke="none" /><circle cx="336" cy="172" r="5" fill="green" stroke="none" /><circle cx="345" cy="386" r="5" fill="green" stroke="none" /><circle cx="137" cy="251" r="5" fill="green" stroke="none" /><circle cx="559" cy="125" r="5" fill="green" stroke="none" /><circle cx="931" cy="612" r="5" fill="green" stroke="none" /><circle cx="18" cy="644" r="5" fill="green" stroke="none" /><circle cx="629" cy="684" r="5" fill="green" stroke="none" /><circle cx="453" cy="268" r="5" fill="green" stroke="none" /><circle cx="70" cy="26" r="5" fill="green" stroke="none" /><circle cx="481" cy="981" r="5" fill="green" stroke="none" /><circle cx="661" cy="693" r="5" fill="green" stroke="none" /><circle cx="976" cy="354" r="5" fill="green" stroke="none" /><circle cx="428" cy="80" r="5" fill="green" stroke="none" /><circle cx="95" cy="173" r="5" fill="green" stroke="none" /><circle cx="133" cy="128" r="5" fill="green" stroke="none" /><circle cx="564" cy="962" r="5" fill="green" stroke="none" /><circle cx="56" cy="177" r="5" fill="green" stroke="none" /><circle cx="564" cy="39" r="5" fill="green" stroke="none" /><circle cx="877" cy="297" r="5" fill="green" stroke="none" /><circle cx="372" cy="508" r="5" fill="green" stroke="none" /><circle cx="560" cy="206" r="5" fill="green" stroke="none" /><circle cx="662" cy="460" r="5" fill="green" stroke="none" /><circle cx="413" cy="512" r="5" fill="green" stroke="none" /><circle cx="569" cy="459" r="5" fill="green" stroke="none" /><circle cx="100" cy="497" r="5" fill="green" stroke="none" /><circle cx="943" cy="296" r="5" fill="green" stroke="none" /><circle cx="794" cy="487" r="5" fill="green" stroke="none" /><circle cx="596" cy="585" r="5" fill="green" stroke="none" /><circle cx="689" cy="492" r="5" fill="green" stroke="none" /><circle cx="149" cy="79" r="5" fill="green" stroke="none" /><circle cx="109" cy="23" r="5" fill="green" stroke="none" /><circle cx="794" cy="676" r="5" fill="green" stroke="none" /><circle cx="219" cy="525" r="5" fill="green" stroke="none" /><circle cx="127" cy="534" r="5" fill="green" stroke="none" /><circle cx="33" cy="511" r="5" fill="green" stroke="none" /><circle cx="388" cy="878" r="5" fill="green" stroke="none" /><circle cx="725" cy="289" r="5" fill="green" stroke="none" /><circle cx="619" cy="335" r="5" fill="green" stroke="none" /><circle cx="987" cy="422" r="5" fill="green" stroke="none" /><circle cx="559" cy="239" r="5" fill="green" stroke="none" /><circle cx="463" cy="533" r="5" fill="green" stroke="none" /><circle cx="605" cy="162" r="5" fill="green" stroke="none" /><circle cx="770" cy="914" r="5" fill="green" stroke="none" /><circle cx="406" cy="341" r="5" fill="green" stroke="none" /><circle cx="918" cy="744" r="5" fill="green" stroke="none" /><circle cx="50" cy="506" r="5" fill="green" stroke="none" /><circle cx="490" cy="345" r="5" fill="green" stroke="none" /><circle cx="873" cy="269" r="5" fill="green" stroke="none" /><circle cx="871" cy="879" r="5" fill="green" stroke="none" /><circle cx="707" cy="417" r="5" fill="green" stroke="none" /><circle cx="602" cy="851" r="5" fill="green" stroke="none" /><circle cx="608" cy="212" r="5" fill="green" stroke="none" /><circle cx="776" cy="977" r="5" fill="green" stroke="none" /><circle cx="211" cy="814" r="5" fill="green" stroke="none" /><circle cx="710" cy="139" r="5" fill="green" stroke="none" /><circle cx="311" cy="638" r="5" fill="green" stroke="none" /><circle cx="97" cy="449" r="5" fill="green" stroke="none" /><circle cx="291" cy="667" r="5" fill="green" stroke="none" /><circle cx="345" cy="399" r="5" fill="green" stroke="none" /><circle cx="747" cy="488" r="5" fill="green" stroke="none" /><circle cx="315" cy="614" r="5" fill="green" stroke="none" /><circle cx="93" cy="333" r="5" fill="green" stroke="none" /><circle cx="495" cy="331" r="5" fill="green" stroke="none" /><circle cx="343" cy="388" r="5" fill="green" stroke="none" /><circle cx="636" cy="875" r="5" fill="green" stroke="none" /><circle cx="157" cy="989" r="5" fill="green" stroke="none" /><circle cx="946" cy="175" r="5" fill="green" stroke="none" /><circle cx="452" cy="55" r="5" fill="green" stroke="none" /><circle cx="592" cy="798" r="5" fill="green" stroke="none" /><circle cx="564" cy="704" r="5" fill="green" stroke="none" /><circle cx="559" cy="959" r="5" fill="green" stroke="none" /><circle cx="81" cy="483" r="5" fill="green" stroke="none" /><circle cx="682" cy="122" r="5" fill="green" stroke="none" /><circle cx="492" cy="479" r="5" fill="green" stroke="none" /><circle cx="105" cy="941" r="5" fill="green" stroke="none" /><circle cx="929" cy="175" r="5" fill="green" stroke="none" /><circle cx="357" cy="816" r="5" fill="green" stroke="none" /><circle cx="861" cy="41" r="5" fill="green" stroke="none" /><circle cx="522" cy="814" r="5" fill="green" stroke="none" /><circle cx="365" cy="735" r="5" fill="green" stroke="none" /><circle cx="777" cy="562" r="5" fill="green" stroke="none" /><circle cx="594" cy="278" r="5" fill="green" stroke="none" /><circle cx="560" cy="514" r="5" fill="green" stroke="none" /><circle cx="653" cy="656" r="5" fill="green" stroke="none" /><circle cx="287" cy="707" r="5" fill="green" stroke="none" /><circle cx="73" cy="110" r="5" fill="green" stroke="none" /><circle cx="952" cy="892" r="5" fill="green" stroke="none" /><circle cx="157" cy="623" r="5" fill="green" stroke="none" /><circle cx="352" cy="910" r="5" fill="green" stroke="none" /><circle cx="215" cy="135" r="5" fill="green" stroke="none" /><circle cx="484" cy="225" r="5" fill="green" stroke="none" /><circle cx="866" cy="506" r="5" fill="green" stroke="none" /><circle cx="341" cy="744" r="5" fill="green" stroke="none" /><circle cx="103" cy="793" r="5" fill="green" stroke="none" /><circle cx="697" cy="962" r="5" fill="green" stroke="none" /><circle cx="893" cy="507" r="5" fill="green" stroke="none" /><circle cx="317" cy="43" r="5" fill="green" stroke="none" /><circle cx="343" cy="505" r="5" fill="green" stroke="none" /><circle cx="471" cy="965" r="5" fill="green" stroke="none" /><circle cx="80" cy="962" r="5" fill="green" stroke="none" /><circle cx="138" cy="81" r="5" fill="green" stroke="none" /><circle cx="450" cy="975" r="5" fill="green" stroke="none" /><circle cx="888" cy="63" r="5" fill="green" stroke="none" /><circle cx="341" cy="825" r="5" fill="green" stroke="none" /><circle cx="688" cy="890" r="5" fill="green" stroke="none" /><circle cx="535" cy="470" r="5" fill="green" stroke="none" /><circle cx="75" cy="890" r="5" fill="green" stroke="none" /><circle cx="54" cy="649" r="5" fill="green" stroke="none" /><circle cx="969" cy="922" r="5" fill="green" stroke="none" /><circle cx="13" cy="198" r="5" fill="green" stroke="none" /><circle cx="882" cy="427" r="5" fill="green" stroke="none" /><circle cx="717" cy="885" r="5" fill="green" stroke="none" /><circle cx="478" cy="55" r="5" fill="green" stroke="none" /><circle cx="837" cy="451" r="5" fill="green" stroke="none" /><circle cx="659" cy="23" r="5" fill="green" stroke="none" /><circle cx="739" cy="456" r="5" fill="green" stroke="none" /><circle cx="478" cy="560" r="5" fill="green" stroke="none" /><circle cx="787" cy="363" r="5" fill="green" stroke="none" /><circle cx="437" cy="225" r="5" fill="green" stroke="none" /><circle cx="528" cy="724" r="5" fill="green" stroke="none" /><circle cx="24" cy="31" r="5" fill="green" stroke="none" /><circle cx="252" cy="92" r="5" fill="green" stroke="none" /><circle cx="410" cy="659" r="5" fill="green" stroke="none" /><circle cx="434" cy="305" r="5" fill="green" stroke="none" /><circle cx="548" cy="399" r="5" fill="green" stroke="none" /><circle cx="607" cy="310" r="5" fill="green" stroke="none" /><circle cx="769" cy="899" r="5" fill="green" stroke="none" /><circle cx="46" cy="639" r="5" fill="green" stroke="none" /><circle cx="939" cy="825" r="5" fill="green" stroke="none" /><circle cx="22" cy="414" r="5" fill="green" stroke="none" /><circle cx="375" cy="42" r="5" fill="green" stroke="none" /><circle cx="989" cy="883" r="5" fill="green" stroke="none" /><circle cx="175" cy="793" r="5" fill="green" stroke="none" /><circle cx="5" cy="592" r="5" fill="green" stroke="none" /><circle cx="486" cy="85" r="5" fill="green" stroke="none" /><circle cx="2" cy="126" r="5" fill="green" stroke="none" /><circle cx="959" cy="581" r="5" fill="green" stroke="none" /><circle cx="847" cy="511" r="5" fill="green" stroke="none" /><circle cx="192" cy="706" r="5" fill="green" stroke="none" /><circle cx="413" cy="503" r="5" fill="green" stroke="none" /><circle cx="231" cy="445" r="5" fill="green" stroke="none" /><circle cx="792" cy="324" r="5" fill="green" stroke="none" /><circle cx="224" cy="687" r="5" fill="green" stroke="none" /><circle cx="940" cy="905" r="5" fill="green" stroke="none" /><circle cx="962" cy="37" r="5" fill="green" stroke="none" /><circle cx="427" cy="102" r="5" fill="green" stroke="none" /><circle cx="675" cy="403" r="5" fill="green" stroke="none" /><circle cx="238" cy="31" r="5" fill="green" stroke="none" /><circle cx="499" cy="676" r="5" fill="green" stroke="none" /><circle cx="51" cy="616" r="5" fill="green" stroke="none" /><circle cx="491" cy="711" r="5" fill="green" stroke="none" /><circle cx="53" cy="993" r="5" fill="green" stroke="none" /><circle cx="276" cy="938" r="5" fill="green" stroke="none" /><circle cx="428" cy="42" r="5" fill="green" stroke="none" /><circle cx="828" cy="412" r="5" fill="green" stroke="none" /><circle cx="556" cy="76" r="5" fill="green" stroke="none" /><circle cx="277" cy="883" r="5" fill="green" stroke="none" /><circle cx="942" cy="329" r="5" fill="green" stroke="none" /><circle cx="580" cy="838" r="5" fill="green" stroke="none" /><circle cx="787" cy="769" r="5" fill="green" stroke="none" /><circle cx="696" cy="633" r="5" fill="green" stroke="none" /><circle cx="637" cy="408" r="5" fill="green" stroke="none" /><circle cx="852" cy="599" r="5" fill="green" stroke="none" /><circle cx="554" cy="513" r="5" fill="green" stroke="none" /><circle cx="696" cy="612" r="5" fill="green" stroke="none" /><circle cx="888" cy="950" r="5" fill="green" stroke="none" /><circle cx="848" cy="94" r="5" fill="green" stroke="none" /><circle cx="814" cy="666" r="5" fill="green" stroke="none" /><circle cx="789" cy="150" r="5" fill="green" stroke="none" /><circle cx="257" cy="983" r="5" fill="green" stroke="none" /><circle cx="870" cy="258" r="5" fill="green" stroke="none" /><circle cx="355" cy="847" r="5" fill="green" stroke="none" /><circle cx="879" cy="812" r="5" fill="green" stroke="none" /><circle cx="531" cy="22" r="5" fill="green" stroke="none" /><circle cx="635" cy="869" r="5" fill="green" stroke="none" /><circle cx="109" cy="343" r="5" fill="green" stroke="none" /><circle cx="299" cy="555" r="5" fill="green" stroke="none" /><circle cx="395" cy="689" r="5" fill="green" stroke="none" /><circle cx="540" cy="550" r="5" fill="green" stroke="none" /><circle cx="12" cy="949" r="5" fill="green" stroke="none" /><circle cx="199" cy="31" r="5" fill="green" stroke="none" /><circle cx="444" cy="534" r="5" fill="green" stroke="none" /><circle cx="391" cy="123" r="5" fill="green" stroke="none" /><circle cx="513" cy="129" r="5" fill="green" stroke="none" /><circle cx="398" cy="459" r="5" fill="green" stroke="none" /><circle cx="717" cy="618" r="5" fill="green" stroke="none" /><circle cx="483" cy="224" r="5" fill="green" stroke="none" /><circle cx="176" cy="208" r="5" fill="green" stroke="none" /><circle cx="657" cy="473" r="5" fill="green" stroke="none" /><circle cx="475" cy="138" r="5" fill="green" stroke="none" /><circle cx="164" cy="858" r="5" fill="green" stroke="none" /><circle cx="563" cy="157" r="5" fill="green" stroke="none" /><circle cx="887" cy="151" r="5" fill="green" stroke="none" /><circle cx="497" cy="596" r="5" fill="green" stroke="none" /><circle cx="541" cy="558" r="5" fill="green" stroke="none" /><circle cx="771" cy="251" r="5" fill="green" stroke="none" /><circle cx="579" cy="94" r="5" fill="green" stroke="none" /><circle cx="158" cy="368" r="5" fill="green" stroke="none" /><circle cx="698" cy="287" r="5" fill="green" stroke="none" /><circle cx="488" cy="374" r="5" fill="green" stroke="none" /><circle cx="752" cy="898" r="5" fill="green" stroke="none" /><circle cx="759" cy="987" r="5" fill="green" stroke="none" /><circle cx="720" cy="904" r="5" fill="green" stroke="none" /><circle cx="487" cy="761" r="5" fill="green" stroke="none" /><circle cx="984" cy="771" r="5" fill="green" stroke="none" /><circle cx="649" cy="917" r="5" fill="green" stroke="none" /><circle cx="196" cy="637" r="5" fill="green" stroke="none" /><circle cx="508" cy="546" r="5" fill="green" stroke="none" /><circle cx="61" cy="867" r="5" fill="green" stroke="none" /><circle cx="855" cy="702" r="5" fill="green" stroke="none" /><circle cx="376" cy="360" r="5" fill="green" stroke="none" /><circle cx="645" cy="848" r="5" fill="green" stroke="none" /><circle cx="702" cy="804" r="5" fill="green" stroke="none" /><circle cx="879" cy="614" r="5" fill="green" stroke="none" /><circle cx="868" cy="601" r="5" fill="green" stroke="none" /><circle cx="545" cy="323" r="5" fill="green" stroke="none" /><circle cx="937" cy="275" r="5" fill="green" stroke="none" /><circle cx="148" cy="888" r="5" fill="green" stroke="none" /><circle cx="759" cy="80" r="5" fill="green" stroke="none" /><circle cx="695" cy="199" r="5" fill="green" stroke="none" /><circle cx="917" cy="85" r="5" fill="green" stroke="none" /><circle cx="43" cy="798" r="5" fill="green" stroke="none" /><circle cx="379" cy="887" r="5" fill="green" stroke="none" /><circle cx="260" cy="124" r="5" fill="green" stroke="none" /><circle cx="286" cy="577" r="5" fill="green" stroke="none" /><circle cx="502" cy="340" r="5" fill="green" stroke="none" /><circle cx="917" cy="688" r="5" fill="green" stroke="none" /><circle cx="994" cy="289" r="5" fill="green" stroke="none" /><circle cx="247" cy="493" r="5" fill="green" stroke="none" /><circle cx="469" cy="518" r="5" fill="green" stroke="none" /><circle cx="702" cy="710" r="5" fill="green" stroke="none" /><circle cx="948" cy="298" r="5" fill="green" stroke="none" /><circle cx="338" cy="463" r="5" fill="green" stroke="none" /><circle cx="831" cy="598" r="5" fill="green" stroke="none" /><circle cx="724" cy="560" r="5" fill="green" stroke="none" /><circle cx="436" cy="750" r="5" fill="green" stroke="none" /><circle cx="700" cy="820" r="5" fill="green" stroke="none" /><circle cx="409" cy="248" r="5" fill="green" stroke="none" /><circle cx="439" cy="394" r="5" fill="green" stroke="none" /><circle cx="47" cy="756" r="5" fill="green" stroke="none" /><circle cx="629" cy="304" r="5" fill="green" stroke="none" /><circle cx="628" cy="89" r="5" fill="green" stroke="none" /><circle cx="350" cy="207" r="5" fill="green" stroke="none" /><circle cx="500" cy="397" r="5" fill="green" stroke="none" /><circle cx="452" cy="553" r="5" fill="green" stroke="none" /><circle cx="972" cy="544" r="5" fill="green" stroke="none" /><circle cx="325" cy="146" r="5" fill="green" stroke="none" /><circle cx="173" cy="77" r="5" fill="green" stroke="none" /><circle cx="238" cy="109" r="5" fill="green" stroke="none" /><circle cx="874" cy="806" r="5" fill="green" stroke="none" /><circle cx="174" cy="478" r="5" fill="green" stroke="none" /><circle cx="832" cy="668" r="5" fill="green" stroke="none" /><circle cx="180" cy="676" r="5" fill="green" stroke="none" /><circle cx="48" cy="945" r="5" fill="green" stroke="none" /><circle cx="754" cy="845" r="5" fill="green" stroke="none" /><circle cx="554" cy="662" r="5" fill="green" stroke="none" /><circle cx="540" cy="712" r="5" fill="green" stroke="none" /><circle cx="697" cy="70" r="5" fill="green" stroke="none" /><circle cx="694" cy="528" r="5" fill="green" stroke="none" /><circle cx="297" cy="430" r="5" fill="green" stroke="none" /><circle cx="843" cy="680" r="5" fill="green" stroke="none" /><circle cx="44" cy="172" r="5" fill="green" stroke="none" /><circle cx="63" cy="133" r="5" fill="green" stroke="none" /><circle cx="576" cy="608" r="5" fill="green" stroke="none" /><circle cx="681" cy="397" r="5" fill="green" stroke="none" /><circle cx="458" cy="244" r="5" fill="green" stroke="none" /><circle cx="227" cy="460" r="5" fill="green" stroke="none" /><circle cx="276" cy="458" r="5" fill="green" stroke="none" /><circle cx="364" cy="134" r="5" fill="green" stroke="none" /><circle cx="412" cy="272" r="5" fill="green" stroke="none" /><circle cx="851" cy="838" r="5" fill="green" stroke="none" /><circle cx="164" cy="385" r="5" fill="green" stroke="none" /><circle cx="397" cy="727" r="5" fill="green" stroke="none" /><circle cx="872" cy="784" r="5" fill="green" stroke="none" /><circle cx="609" cy="928" r="5" fill="green" stroke="none" /><circle cx="962" cy="66" r="5" fill="green" stroke="none" /><circle cx="172" cy="388" r="5" fill="green" stroke="none" /><circle cx="688" cy="620" r="5" fill="green" stroke="none" /><circle cx="667" cy="328" r="5" fill="green" stroke="none" /><circle cx="181" cy="465" r="5" fill="green" stroke="none" /><circle cx="346" cy="85" r="5" fill="green" stroke="none" /><circle cx="324" cy="935" r="5" fill="green" stroke="none" /><circle cx="752" cy="828" r="5" fill="green" stroke="none" /><circle cx="811" cy="449" r="5" fill="green" stroke="none" /><circle cx="99" cy="656" r="5" fill="green" stroke="none" /><circle cx="862" cy="673" r="5" fill="green" stroke="none" /><circle cx="143" cy="812" r="5" fill="green" stroke="none" /><circle cx="914" cy="849" r="5" fill="green" stroke="none" /><circle cx="190" cy="927" r="5" fill="green" stroke="none" /><circle cx="959" cy="364" r="5" fill="green" stroke="none" /><circle cx="878" cy="314" r="5" fill="green" stroke="none" /><circle cx="882" cy="246" r="5" fill="green" stroke="none" /><circle cx="766" cy="162" r="5" fill="green" stroke="none" /><circle cx="970" cy="322" r="5" fill="green" stroke="none" /><circle cx="744" cy="733" r="5" fill="green" stroke="none" /><circle cx="401" cy="920" r="5" fill="green" stroke="none" /><circle cx="660" cy="248" r="5" fill="green" stroke="none" /><circle cx="898" cy="31" r="5" fill="green" stroke="none" /><circle cx="646" cy="88" r="5" fill="green" stroke="none" /><circle cx="244" cy="726" r="5" fill="green" stroke="none" /><circle cx="644" cy="178" r="5" fill="green" stroke="none" /><circle cx="729" cy="665" r="5" fill="green" stroke="none" /><circle cx="615" cy="407" r="5" fill="green" stroke="none" /><circle cx="238" cy="387" r="5" fill="green" stroke="none" /><circle cx="756" cy="473" r="5" fill="green" stroke="none" /><circle cx="434" cy="206" r="5" fill="green" stroke="none" /><circle cx="505" cy="576" r="5" fill="green" stroke="none" /><circle cx="352" cy="109" r="5" fill="green" stroke="none" /><circle cx="260" cy="201" r="5" fill="green" stroke="none" /><circle cx="342" cy="165" r="5" fill="green" stroke="none" /><circle cx="455" cy="106" r="5" fill="green" stroke="none" /><circle cx="204" cy="547" r="5" fill="green" stroke="none" /><circle cx="999" cy="850" r="5" fill="green" stroke="none" /><circle cx="228" cy="240" r="5" fill="green" stroke="none" /><circle cx="851" cy="794" r="5" fill="green" stroke="none" /><circle cx="476" cy="298" r="5" fill="green" stroke="none" /><circle cx="652" cy="713" r="5" fill="green" stroke="none" /><circle cx="821" cy="264" r="5" fill="green" stroke="none" /><circle cx="714" cy="987" r="5" fill="green" stroke="none" /><circle cx="434" cy="68" r="5" fill="green" stroke="none" /><circle cx="76" cy="135" r="5" fill="green" stroke="none" /><circle cx="566" cy="837" r="5" fill="green" stroke="none" /><circle cx="12" cy="793" r="5" fill="green" stroke="none" /><circle cx="580" cy="962" r="5" fill="green" stroke="none" /><circle cx="458" cy="44" r="5" fill="green" stroke="none" /><circle cx="889" cy="358" r="5" fill="green" stroke="none" /><circle cx="854" cy="462" r="5" fill="green" stroke="none" /><circle cx="839" cy="318" r="5" fill="green" stroke="none" /><circle cx="781" cy="175" r="5" fill="green" stroke="none" /><circle cx="410" cy="718" r="5" fill="green" stroke="none" /><circle cx="72" cy="660" r="5" fill="green" stroke="none" /><circle cx="600" cy="332" r="5" fill="green" stroke="none" /><circle cx="265" cy="471" r="5" fill="green" stroke="none" /><circle cx="485" cy="606" r="5" fill="green" stroke="none" /><circle cx="426" cy="911" r="5" fill="green" stroke="none" /><circle cx="227" cy="686" r="5" fill="green" stroke="none" /><circle cx="362" cy="826" r="5" fill="green" stroke="none" /><circle cx="600" cy="787" r="5" fill="green" stroke="none" /><circle cx="379" cy="227" r="5" fill="green" stroke="none" /><circle cx="56" cy="388" r="5" fill="green" stroke="none" /><circle cx="838" cy="608" r="5" fill="green" stroke="none" /><circle cx="941" cy="48" r="5" fill="green" stroke="none" /><circle cx="479" cy="272" r="5" fill="green" stroke="none" /><circle cx="670" cy="778" r="5" fill="green" stroke="none" /><circle cx="641" cy="599" r="5" fill="green" stroke="none" /><circle cx="904" cy="634" r="5" fill="green" stroke="none" /><circle cx="194" cy="444" r="5" fill="green" stroke="none" /><circle cx="348" cy="248" r="5" fill="green" stroke="none" /><circle cx="635" cy="842" r="5" fill="green" stroke="none" /><circle cx="284" cy="353" r="5" fill="green" stroke="none" /><circle cx="373" cy="972" r="5" fill="green" stroke="none" /><circle cx="195" cy="646" r="5" fill="green" stroke="none" /><circle cx="753" cy="452" r="5" fill="green" stroke="none" /><circle cx="836" cy="379" r="5" fill="green" stroke="none" /><circle cx="246" cy="545" r="5" fill="green" stroke="none" /><circle cx="342" cy="739" r="5" fill="green" stroke="none" /><circle cx="852" cy="848" r="5" fill="green" stroke="none" /><circle cx="625" cy="245" r="5" fill="green" stroke="none" /><circle cx="511" cy="172" r="5" fill="green" stroke="none" /><circle cx="499" cy="702" r="5" fill="green" stroke="none" /><circle cx="936" cy="809" r="5" fill="green" stroke="none" /><circle cx="127" cy="164" r="5" fill="green" stroke="none" /><circle cx="394" cy="113" r="5" fill="green" stroke="none" /><circle cx="29" cy="55" r="5" fill="green" stroke="none" /><circle cx="836" cy="761" r="5" fill="green" stroke="none" /><circle cx="860" cy="322" r="5" fill="green" stroke="none" /><circle cx="746" cy="446" r="5" fill="green" stroke="none" /><circle cx="373" cy="633" r="5" fill="green" stroke="none" /><circle cx="38" cy="595" r="5" fill="green" stroke="none" /><circle cx="460" cy="163" r="5" fill="green" stroke="none" /><circle cx="62" cy="242" r="5" fill="green" stroke="none" /><circle cx="138" cy="20" r="5" fill="green" stroke="none" /><circle cx="549" cy="955" r="5" fill="green" stroke="none" /><circle cx="401" cy="800" r="5" fill="green" stroke="none" /><circle cx="243" cy="962" r="5" fill="green" stroke="none" /><circle cx="777" cy="614" r="5" fill="green" stroke="none" /><circle cx="812" cy="589" r="5" fill="green" stroke="none" /><circle cx="678" cy="751" r="5" fill="green" stroke="none" /><circle cx="148" cy="56" r="5" fill="green" stroke="none" /><circle cx="519" cy="957" r="5" fill="green" stroke="none" /><circle cx="937" cy="555" r="5" fill="green" stroke="none" /><circle cx="390" cy="15" r="5" fill="green" stroke="none" /><circle cx="787" cy="272" r="5" fill="green" stroke="none" /><circle cx="715" cy="999" r="5" fill="green" stroke="none" /><circle cx="329" cy="450" r="5" fill="green" stroke="none" /><circle cx="493" cy="163" r="5" fill="green" stroke="none" /><circle cx="787" cy="935" r="5" fill="green" stroke="none" /><circle cx="965" cy="502" r="5" fill="green" stroke="none" /><circle cx="592" cy="397" r="5" fill="green" stroke="none" /><circle cx="941" cy="649" r="5" fill="green" stroke="none" /><circle cx="706" cy="656" r="5" fill="green" stroke="none" /><circle cx="84" cy="572" r="5" fill="green" stroke="none" /><circle cx="152" cy="538" r="5" fill="green" stroke="none" /><circle cx="955" cy="554" r="5" fill="green" stroke="none" /><circle cx="371" cy="56" r="5" fill="green" stroke="none" /><circle cx="784" cy="874" r="5" fill="green" stroke="none" /><circle cx="568" cy="329" r="5" fill="green" stroke="none" /><circle cx="820" cy="149" r="5" fill="green" stroke="none" /><circle cx="343" cy="354" r="5" fill="green" stroke="none" /><circle cx="809" cy="501" r="5" fill="green" stroke="none" /><circle cx="950" cy="634" r="5" fill="green" stroke="none" /><circle cx="516" cy="363" r="5" fill="green" stroke="none" /><circle cx="281" cy="634" r="5" fill="green" stroke="none" /><circle cx="191" cy="30" r="5" fill="green" stroke="none" /><circle cx="134" cy="185" r="5" fill="green" stroke="none" /><circle cx="979" cy="873" r="5" fill="green" stroke="none" /><circle cx="953" cy="59" r="5" fill="green" stroke="none" /><circle cx="591" cy="377" r="5" fill="green" stroke="none" /><circle cx="415" cy="256" r="5" fill="green" stroke="none" /><circle cx="130" cy="173" r="5" fill="green" stroke="none" /><circle cx="37" cy="700" r="5" fill="green" stroke="none" /><circle cx="769" cy="774" r="5" fill="green" stroke="none" /><circle cx="367" cy="783" r="5" fill="green" stroke="none" /><circle cx="101" cy="31" r="5" fill="green" stroke="none" /><circle cx="775" cy="804" r="5" fill="green" stroke="none" /></svg>