<svg viewBox="0 0 9963 9102" xmlns="http://www.w3.org/2000/svg"><rect x="0" y="0" width="9963" height="9102" fill="lightyellow" stroke="none "/><rect x="159" y="5835" width="1984" height="2450" fill="white" stroke="black "/><circle cx="7435" cy="336" r="5" fill="green" stroke="none" /><circle cx="539" cy="1593" r="5" fill="green" stroke="none" /><circle cx="772" cy="3346" r="5" fill="green" stroke="none" /><circle cx="8033" cy="7908" r="5" fill="green" stroke="none" /><circle cx="6539" cy="4363" r="5" fill="green" stroke="none" /><circle cx="8462" cy="7627" r="5" fill="green" stroke="none" /><circle cx="5854" cy="1944" r="5" fill="green" stroke="none" /><circle cx="2941" cy="5659" r="5" fill="green" stroke="none" /><circle cx="3775" cy="330" r="5" fill="green" stroke="none" /><circle cx="7317" cy="1767" r="5" fill="green" stroke="none" /><circle cx="944" cy="4085" r="5" fill="green" stroke="none" /><circle cx="8158" cy="3410" r="5" fill="green" stroke="none" /><circle cx="3206" cy="8763" r="5" fill="green" stroke="none" /><circle cx="3952" cy="7077" r="5" fill="green" stroke="none" /><circle cx="1581" cy="3333" r="5" fill="green" stroke="none" /><circle cx="4670" cy="8594" r="5" fill="green" stroke="none" /><circle cx="7052" cy="6625" r="5" fill="green" stroke="none" /><circle cx="5134" cy="9086" r="5" fill="green" stroke="none" /><circle cx="4804" cy="6382" r="5" fill="green" stroke="none" /><circle cx="7791" cy="4136" r="5" fill="green" stroke="none" /><circle cx="8144" cy="9098" r="5" fill="green" stroke="none" /><circle cx="5890" cy="5421" r="5" fill="green" stroke="none" /><circle cx="4577" cy="2143" r="5" fill="green" stroke="none" /><circle cx="7822" cy="4413" r="5" fill="green" stroke="none" /><circle cx="2496" cy="2965" r="5" fill="green" stroke="none" /><circle cx="6113" cy="6027" r="5" fill="green" stroke="none" /><circle cx="7022" cy="4661" r="5" fill="green" stroke="none" /><circle cx="5490" cy="7402" r="5" fill="green" stroke="none" /><circle cx="8456" cy="7539" r="5" fill="green" stroke="none" /><circle cx="7212" cy="7549" r="5" fill="green" stroke="none" /><circle cx="6832" cy="4968" r="5" fill="green" stroke="none" /><circle cx="57" cy="608" r="5" fill="green" stroke="none" /><circle cx="2311" cy="2904" r="5" fill="green" stroke="none" /><circle cx="2996" cy="4987" r="5" fill="green" stroke="none" /><circle cx="4049" cy="2248" r="5" fill="green" stroke="none" /><circle cx="6784" cy="6182" r="5" fill="green" stroke="none" /><circle cx="6758" cy="1800" r="5" fill="green" stroke="none" /><circle cx="6031" cy="251" r="5" fill="green" stroke="none" /><circle cx="6048" cy="116" r="5" fill="green" stroke="none" /><circle cx="8004" cy="2285" r="5" fill="green" stroke="none" /><circle cx="7629" cy="5066" r="5" fill="green" stroke="none" /><circle cx="2946" cy="4304" r="5" fill="green" stroke="none" /><circle cx="4763" cy="4874" r="5" fill="green" stroke="none" /><circle cx="1188" cy="3249" r="5" fill="green" stroke="none" /><circle cx="2902" cy="6143" r="5" fill="green" stroke="none" /><circle cx="6079" cy="4353" r="5" fill="green" stroke="none" /><circle cx="4140" cy="69" r="5" fill="green" stroke="none" /><circle cx="5094" cy="9100" r="5" fill="green" stroke="none" /><circle cx="9301" cy="7119" r="5" fill="green" stroke="none" /><circle cx="3615" cy="1980" r="5" fill="green" stroke="none" /><circle cx="208" cy="698" r="5" fill="green" stroke="none" /><circle cx="4214" cy="2412" r="5" fill="green" stroke="none" /><circle cx="9045" cy="5010" r="5" fill="green" stroke="none" /><circle cx="768" cy="1292" r="5" fill="green" stroke="none" /><circle cx="9749" cy="1217" r="5" fill="green" stroke="none" /><circle cx="9273" cy="6125" r="5" fill="green" stroke="none" /><circle cx="5217" cy="4288" r="5" fill="green" stroke="none" /><circle cx="7324" cy="518" r="5" fill="green" stroke="none" /><circle cx="8765" cy="5476" r="5" fill="green" stroke="none" /><circle cx="5984" cy="1657" r="5" fill="green" stroke="none" /><circle cx="3668" cy="7858" r="5" fill="green" stroke="none" /><circle cx="7773" cy="6167" r="5" fill="green" stroke="none" /><circle cx="552" cy="2088" r="5" fill="green" stroke="none" /><circle cx="9610" cy="3947" r="5" fill="green" stroke="none" /><circle cx="2533" cy="5079" r="5" fill="green" stroke="none" /><circle cx="2511" cy="2529" r="5" fill="green" stroke="none" /><circle cx="6364" cy="1084" r="5" fill="green" stroke="none" /><circle cx="5624" cy="5000" r="5" fill="green" stroke="none" /><circle cx="3439" cy="5196" r="5" fill="green" stroke="none" /><circle cx="3416" cy="6532" r="5" fill="green" stroke="none" /><circle cx="7172" cy="6255" r="5" fill="green" stroke="none" /><circle cx="877" cy="5663" r="5" fill="green" stroke="none" /><circle cx="3491" cy="3396" r="5" fill="green" stroke="none" /><circle cx="2139" cy="5440" r="5" fill="green" stroke="none" /><circle cx="722" cy="2602" r="5" fill="green" stroke="none" /><circle cx="237" cy="5423" r="5" fill="green" stroke="none" /><circle cx="4935" cy="9" r="5" fill="green" stroke="none" /><circle cx="5971" cy="4040" r="5" fill="green" stroke="none" /><circle cx="5485" cy="4430" r="5" fill="green" stroke="none" /><circle cx="6499" cy="4408" r="5" fill="green" stroke="none" /><circle cx="5136" cy="8426" r="5" fill="green" stroke="none" /><circle cx="5637" cy="3161" r="5" fill="green" stroke="none" /><circle cx="7909" cy="8203" r="5" fill="green" stroke="none" /><circle cx="2229" cy="6047" r="5" fill="green" stroke="none" /><circle cx="5473" cy="6051" r="5" fill="green" stroke="none" /><circle cx="2282" cy="6495" r="5" fill="green" stroke="none" /><circle cx="4756" cy="2375" r="5" fill="green" stroke="none" /><circle cx="4704" cy="4970" r="5" fill="green" stroke="none" /><circle cx="6825" cy="4199" r="5" fill="green" stroke="none" /><circle cx="8014" cy="5328" r="5" fill="green" stroke="none" /><circle cx="4565" cy="4124" r="5" fill="green" stroke="none" /><circle cx="9427" cy="2796" r="5" fill="green" stroke="none" /><circle cx="1273" cy="5682" r="5" fill="green" stroke="none" /><circle cx="1943" cy="4170" r="5" fill="green" stroke="none" /><circle cx="336" cy="2021" r="5" fill="green" stroke="none" /><circle cx="6866" cy="862" r="5" fill="green" stroke="none" /><circle cx="9340" cy="4517" r="5" fill="green" stroke="none" /><circle cx="7302" cy="4666" r="5" fill="green" stroke="none" /><circle cx="5021" cy="8587" r="5" fill="green" stroke="none" /><circle cx="4687" cy="7685" r="5" fill="green" stroke="none" /><circle cx="6323" cy="6807" r="5" fill="green" stroke="none" /><circle cx="2645" cy="2217" r="5" fill="green" stroke="none" /><circle cx="9082" cy="215" r="5" fill="green" stroke="none" /><circle cx="7571" cy="6295" r="5" fill="green" stroke="none" /><circle cx="2898" cy="4522" r="5" fill="green" stroke="none" /><circle cx="4553" cy="474" r="5" fill="green" stroke="none" /><circle cx="1793" cy="1621" r="5" fill="green" stroke="none" /><circle cx="5819" cy="4509" r="5" fill="green" stroke="none" /><circle cx="99" cy="6937" r="5" fill="green" stroke="none" /><circle cx="2862" cy="2353" r="5" fill="green" stroke="none" /><circle cx="9558" cy="6720" r="5" fill="green" stroke="none" /><circle cx="7370" cy="1987" r="5" fill="green" stroke="none" /><circle cx="4251" cy="1849" r="5" fill="green" stroke="none" /><circle cx="543" cy="4482" r="5" fill="green" stroke="none" /><circle cx="2025" cy="8694" r="5" fill="green" stroke="none" /><circle cx="6815" cy="4376" r="5" fill="green" stroke="none" /><circle cx="5666" cy="7996" r="5" fill="green" stroke="none" /><circle cx="5348" cy="971" r="5" fill="green" stroke="none" /><circle cx="1526" cy="5174" r="5" fill="green" stroke="none" /><circle cx="3275" cy="7440" r="5" fill="green" stroke="none" /><circle cx="6089" cy="1775" r="5" fill="green" stroke="none" /><circle cx="6521" cy="3422" r="5" fill="green" stroke="none" /><circle cx="6867" cy="3761" r="5" fill="green" stroke="none" /><circle cx="6732" cy="513" r="5" fill="green" stroke="none" /><circle cx="9719" cy="6561" r="5" fill="green" stroke="none" /><circle cx="6998" cy="5838" r="5" fill="green" stroke="none" /><circle cx="915" cy="3552" r="5" fill="green" stroke="none" /><circle cx="45" cy="1957" r="5" fill="green" stroke="none" /><circle cx="7892" cy="2008" r="5" fill="green" stroke="none" /><circle cx="1018" cy="8596" r="5" fill="green" stroke="none" /><circle cx="9712" cy="7576" r="5" fill="green" stroke="none" /><circle cx="9745" cy="3409" r="5" fill="green" stroke="none" /><circle cx="2263" cy="1478" r="5" fill="green" stroke="none" /><circle cx="9663" cy="1957" r="5" fill="green" stroke="none" /><circle cx="8662" cy="5364" r="5" fill="green" stroke="none" /><circle cx="8429" cy="7124" r="5" fill="green" stroke="none" /><circle cx="2038" cy="633" r="5" fill="green" stroke="none" /><circle cx="116" cy="2609" r="5" fill="green" stroke="none" /><circle cx="3117" cy="2884" r="5" fill="green" stroke="none" /><circle cx="4957" cy="4742" r="5" fill="green" stroke="none" /><circle cx="6740" cy="1871" r="5" fill="green" stroke="none" /><circle cx="8121" cy="373" r="5" fill="green" stroke="none" /><circle cx="6670" cy="1582" r="5" fill="green" stroke="none" /><circle cx="4615" cy="5248" r="5" fill="green" stroke="none" /><circle cx="1697" cy="2287" r="5" fill="green" stroke="none" /><circle cx="4998" cy="1543" r="5" fill="green" stroke="none" /><circle cx="8490" cy="2467" r="5" fill="green" stroke="none" /><circle cx="1270" cy="8971" r="5" fill="green" stroke="none" /><circle cx="9322" cy="2012" r="5" fill="green" stroke="none" /><circle cx="2217" cy="2779" r="5" fill="green" stroke="none" /><circle cx="5765" cy="953" r="5" fill="green" stroke="none" /><circle cx="4478" cy="1782" r="5" fill="green" stroke="none" /><circle cx="9616" cy="6851" r="5" fill="green" stroke="none" /><circle cx="1608" cy="8325" r="5" fill="green" stroke="none" /><circle cx="9085" cy="6634" r="5" fill="green" stroke="none" /><circle cx="5774" cy="1085" r="5" fill="green" stroke="none" /><circle cx="1434" cy="3089" r="5" fill="green" stroke="none" /><circle cx="8549" cy="4400" r="5" fill="green" stroke="none" /><circle cx="3034" cy="6622" r="5" fill="green" stroke="none" /><circle cx="8513" cy="4126" r="5" fill="green" stroke="none" /><circle cx="1941" cy="67" r="5" fill="green" stroke="none" /><circle cx="8876" cy="237" r="5" fill="green" stroke="none" /><circle cx="9663" cy="212" r="5" fill="green" stroke="none" /><circle cx="2966" cy="1311" r="5" fill="green" stroke="none" /><circle cx="6302" cy="6358" r="5" fill="green" stroke="none" /><circle cx="57" cy="2848" r="5" fill="green" stroke="none" /><circle cx="2872" cy="9048" r="5" fill="green" stroke="none" /><circle cx="7349" cy="563" r="5" fill="green" stroke="none" /><circle cx="5895" cy="1849" r="5" fill="green" stroke="none" /><circle cx="929" cy="669" r="5" fill="green" stroke="none" /><circle cx="8860" cy="216" r="5" fill="green" stroke="none" /><circle cx="3146" cy="1366" r="5" fill="green" stroke="none" /><circle cx="4036" cy="1013" r="5" fill="green" stroke="none" /><circle cx="3698" cy="3663" r="5" fill="green" stroke="none" /><circle cx="92" cy="1966" r="5" fill="green" stroke="none" /><circle cx="3737" cy="4911" r="5" fill="green" stroke="none" /><circle cx="7471" cy="5134" r="5" fill="green" stroke="none" /><circle cx="7846" cy="4458" r="5" fill="green" stroke="none" /><circle cx="9737" cy="4768" r="5" fill="green" stroke="none" /><circle cx="286" cy="1529" r="5" fill="green" stroke="none" /><circle cx="2802" cy="4303" r="5" fill="green" stroke="none" /><circle cx="4853" cy="1146" r="5" fill="green" stroke="none" /><circle cx="5684" cy="8122" r="5" fill="green" stroke="none" /><circle cx="5163" cy="2478" r="5" fill="green" stroke="none" /><circle cx="5981" cy="2590" r="5" fill="green" stroke="none" /><circle cx="7193" cy="8428" r="5" fill="green" stroke="none" /><circle cx="4051" cy="2529" r="5" fill="green" stroke="none" /><circle cx="9959" cy="8110" r="5" fill="green" stroke="none" /><circle cx="7078" cy="2188" r="5" fill="green" stroke="none" /><circle cx="3837" cy="5341" r="5" fill="green" stroke="none" /><circle cx="1745" cy="8461" r="5" fill="green" stroke="none" /><circle cx="6931" cy="3501" r="5" fill="green" stroke="none" /><circle cx="852" cy="1581" r="5" fill="green" stroke="none" /><circle cx="9715" cy="5660" r="5" fill="green" stroke="none" /><circle cx="5449" cy="1765" r="5" fill="green" stroke="none" /><circle cx="9182" cy="1075" r="5" fill="green" stroke="none" /><circle cx="9937" cy="4295" r="5" fill="green" stroke="none" /><circle cx="8101" cy="3973" r="5" fill="green" stroke="none" /><circle cx="4445" cy="4397" r="5" fill="green" stroke="none" /><circle cx="4676" cy="361" r="5" fill="green" stroke="none" /><circle cx="5238" cy="5226" r="5" fill="green" stroke="none" /><circle cx="8658" cy="955" r="5" fill="green" stroke="none" /><circle cx="9093" cy="1902" r="5" fill="green" stroke="none" /><circle cx="8762" cy="6937" r="5" fill="green" stroke="none" /><circle cx="3163" cy="5528" r="5" fill="green" stroke="none" /><circle cx="4917" cy="6186" r="5" fill="green" stroke="none" /><circle cx="9357" cy="4877" r="5" fill="green" stroke="none" /><circle cx="654" cy="1788" r="5" fill="green" stroke="none" /><circle cx="4078" cy="4795" r="5" fill="green" stroke="none" /><circle cx="6454" cy="4824" r="5" fill="green" stroke="none" /><circle cx="4095" cy="1774" r="5" fill="green" stroke="none" /><circle cx="7730" cy="5230" r="5" fill="green" stroke="none" /><circle cx="6354" cy="3513" r="5" fill="green" stroke="none" /><circle cx="2046" cy="3947" r="5" fill="green" stroke="none" /><circle cx="8014" cy="5750" r="5" fill="green" stroke="none" /><circle cx="5361" cy="4457" r="5" fill="green" stroke="none" /><circle cx="9570" cy="5179" r="5" fill="green" stroke="none" /><circle cx="5519" cy="5119" r="5" fill="green" stroke="none" /><circle cx="7924" cy="6097" r="5" fill="green" stroke="none" /><circle cx="3340" cy="4318" r="5" fill="green" stroke="none" /><circle cx="7219" cy="4327" r="5" fill="green" stroke="none" /><circle cx="3217" cy="2149" r="5" fill="green" stroke="none" /><circle cx="8641" cy="1793" r="5" fill="green" stroke="none" /><circle cx="8128" cy="2290" r="5" fill="green" stroke="none" /><circle cx="74" cy="6692" r="5" fill="green" stroke="none" /><circle cx="4407" cy="4832" r="5" fill="green" stroke="none" /><circle cx="811" cy="5437" r="5" fill="green" stroke="none" /><circle cx="7177" cy="5964" r="5" fill="green" stroke="none" /><circle cx="1664" cy="4337" r="5" fill="green" stroke="none" /><circle cx="5958" cy="7765" r="5" fill="green" stroke="none" /><circle cx="2932" cy="1901" r="5" fill="green" stroke="none" /><circle cx="2628" cy="1695" r="5" fill="green" stroke="none" /><circle cx="9605" cy="8650" r="5" fill="green" stroke="none" /><circle cx="8825" cy="5251" r="5" fill="green" stroke="none" /><circle cx="3889" cy="3904" r="5" fill="green" stroke="none" /><circle cx="6513" cy="1761" r="5" fill="green" stroke="none" /><circle cx="460" cy="4264" r="5" fill="green" stroke="none" /><circle cx="7714" cy="4691" r="5" fill="green" stroke="none" /><circle cx="8324" cy="7327" r="5" fill="green" stroke="none" /><circle cx="7634" cy="1960" r="5" fill="green" stroke="none" /><circle cx="6250" cy="6774" r="5" fill="green" stroke="none" /><circle cx="4758" cy="102" r="5" fill="green" stroke="none" /><circle cx="4343" cy="3238" r="5" fill="green" stroke="none" /><circle cx="8929" cy="1038" r="5" fill="green" stroke="none" /><circle cx="8556" cy="4871" r="5" fill="green" stroke="none" /><circle cx="4185" cy="5369" r="5" fill="green" stroke="none" /><circle cx="3595" cy="462" r="5" fill="green" stroke="none" /><circle cx="262" cy="3002" r="5" fill="green" stroke="none" /><circle cx="4964" cy="296" r="5" fill="green" stroke="none" /><circle cx="9540" cy="2781" r="5" fill="green" stroke="none" /><circle cx="608" cy="3874" r="5" fill="green" stroke="none" /><circle cx="2832" cy="8218" r="5" fill="green" stroke="none" /><circle cx="4898" cy="6068" r="5" fill="green" stroke="none" /><circle cx="9822" cy="4421" r="5" fill="green" stroke="none" /><circle cx="7999" cy="5764" r="5" fill="green" stroke="none" /><circle cx="2393" cy="1986" r="5" fill="green" stroke="none" /><circle cx="2363" cy="3266" r="5" fill="green" stroke="none" /><circle cx="5472" cy="8551" r="5" fill="green" stroke="none" /><circle cx="1177" cy="3508" r="5" fill="green" stroke="none" /><circle cx="7298" cy="3149" r="5" fill="green" stroke="none" /><circle cx="6510" cy="5681" r="5" fill="green" stroke="none" /><circle cx="7766" cy="6972" r="5" fill="green" stroke="none" /><circle cx="2987" cy="5142" r="5" fill="green" stroke="none" /><circle cx="9743" cy="7059" r="5" fill="green" stroke="none" /><circle cx="3593" cy="5925" r="5" fill="green" stroke="none" /><circle cx="4515" cy="1468" r="5" fill="green" stroke="none" /><circle cx="3261" cy="1974" r="5" fill="green" stroke="none" /><circle cx="1948" cy="5190" r="5" fill="green" stroke="none" /><circle cx="2015" cy="1119" r="5" fill="green" stroke="none" /><circle cx="4626" cy="2613" r="5" fill="green" stroke="none" /><circle cx="7347" cy="718" r="5" fill="green" stroke="none" /><circle cx="6683" cy="4496" r="5" fill="green" stroke="none" /><circle cx="8936" cy="6852" r="5" fill="green" stroke="none" /><circle cx="5581" cy="8683" r="5" fill="green" stroke="none" /><circle cx="6804" cy="39" r="5" fill="green" stroke="none" /><circle cx="9668" cy="3656" r="5" fill="green" stroke="none" /><circle cx="6803" cy="3798" r="5" fill="green" stroke="none" /><circle cx="745" cy="2241" r="5" fill="green" stroke="none" /><circle cx="9078" cy="8239" r="5" fill="green" stroke="none" /><circle cx="5900" cy="7625" r="5" fill="green" stroke="none" /><circle cx="5538" cy="3451" r="5" fill="green" stroke="none" /><circle cx="5078" cy="3188" r="5" fill="green" stroke="none" /><circle cx="7348" cy="5235" r="5" fill="green" stroke="none" /><circle cx="6215" cy="3641" r="5" fill="green" stroke="none" /><circle cx="5604" cy="5030" r="5" fill="green" stroke="none" /><circle cx="2013" cy="9058" r="5" fill="green" stroke="none" /><circle cx="4700" cy="8920" r="5" fill="green" stroke="none" /><circle cx="7639" cy="6451" r="5" fill="green" stroke="none" /><circle cx="9685" cy="8604" r="5" fill="green" stroke="none" /><circle cx="6355" cy="6449" r="5" fill="green" stroke="none" /><circle cx="4355" cy="2043" r="5" fill="green" stroke="none" /><circle cx="1220" cy="1927" r="5" fill="green" stroke="none" /><circle cx="2631" cy="7022" r="5" fill="green" stroke="none" /><circle cx="7991" cy="5190" r="5" fill="green" stroke="none" /><circle cx="3252" cy="5146" r="5" fill="green" stroke="none" /><circle cx="5381" cy="7823" r="5" fill="green" stroke="none" /><circle cx="7059" cy="5923" r="5" fill="green" stroke="none" /><circle cx="1298" cy="1255" r="5" fill="green" stroke="none" /><circle cx="1354" cy="2577" r="5" fill="green" stroke="none" /><circle cx="5054" cy="1655" r="5" fill="green" stroke="none" /><circle cx="8831" cy="1934" r="5" fill="green" stroke="none" /><circle cx="8081" cy="8322" r="5" fill="green" stroke="none" /><circle cx="9525" cy="1131" r="5" fill="green" stroke="none" /><circle cx="3876" cy="5755" r="5" fill="green" stroke="none" /><circle cx="3380" cy="8710" r="5" fill="green" stroke="none" /><circle cx="7127" cy="5165" r="5" fill="green" stroke="none" /><circle cx="9470" cy="441" r="5" fill="green" stroke="none" /><circle cx="1817" cy="4633" r="5" fill="green" stroke="none" /><circle cx="3762" cy="2742" r="5" fill="green" stroke="none" /><circle cx="3240" cy="4087" r="5" fill="green" stroke="none" /><circle cx="8978" cy="7470" r="5" fill="green" stroke="none" /><circle cx="801" cy="355" r="5" fill="green" stroke="none" /><circle cx="4322" cy="100" r="5" fill="green" stroke="none" /><circle cx="9919" cy="5351" r="5" fill="green" stroke="none" /><circle cx="8768" cy="2250" r="5" fill="green" stroke="none" /><circle cx="2732" cy="1438" r="5" fill="green" stroke="none" /><circle cx="3625" cy="4768" r="5" fill="green" stroke="none" /><circle cx="4667" cy="8333" r="5" fill="green" stroke="none" /><circle cx="6068" cy="6264" r="5" fill="green" stroke="none" /><circle cx="8017" cy="4115" r="5" fill="green" stroke="none" /><circle cx="3199" cy="2876" r="5" fill="green" stroke="none" /><circle cx="9043" cy="2173" r="5" fill="green" stroke="none" /><circle cx="3811" cy="2340" r="5" fill="green" stroke="none" /><circle cx="800" cy="13" r="5" fill="green" stroke="none" /><circle cx="9082" cy="1562" r="5" fill="green" stroke="none" /><circle cx="4561" cy="4082" r="5" fill="green" stroke="none" /><circle cx="3140" cy="819" r="5" fill="green" stroke="none" /><circle cx="5246" cy="7679" r="5" fill="green" stroke="none" /><circle cx="8228" cy="1839" r="5" fill="green" stroke="none" /><circle cx="3280" cy="8813" r="5" fill="green" stroke="none" /><circle cx="2437" cy="6301" r="5" fill="green" stroke="none" /><circle cx="25" cy="5000" r="5" fill="green" stroke="none" /><circle cx="95" cy="2060" r="5" fill="green" stroke="none" /><circle cx="3609" cy="7605" r="5" fill="green" stroke="none" /><circle cx="7688" cy="2134" r="5" fill="green" stroke="none" /><circle cx="4272" cy="5287" r="5" fill="green" stroke="none" /><circle cx="3908" cy="1946" r="5" fill="green" stroke="none" /><circle cx="3953" cy="3991" r="5" fill="green" stroke="none" /><circle cx="1149" cy="751" r="5" fill="green" stroke="none" /><circle cx="9356" cy="6114" r="5" fill="green" stroke="none" /><circle cx="1027" cy="3484" r="5" fill="green" stroke="none" /><circle cx="4921" cy="6671" r="5" fill="green" stroke="none" /><circle cx="7503" cy="8664" r="5" fill="green" stroke="none" /><circle cx="6399" cy="7996" r="5" fill="green" stroke="none" /><circle cx="7313" cy="1021" r="5" fill="green" stroke="none" /><circle cx="4541" cy="3603" r="5" fill="green" stroke="none" /><circle cx="906" cy="4154" r="5" fill="green" stroke="none" /><circle cx="2600" cy="686" r="5" fill="green" stroke="none" /><circle cx="4906" cy="8877" r="5" fill="green" stroke="none" /><circle cx="7594" cy="8221" r="5" fill="green" stroke="none" /><circle cx="5113" cy="3033" r="5" fill="green" stroke="none" /><circle cx="5055" cy="3017" r="5" fill="green" stroke="none" /><circle cx="7691" cy="6218" r="5" fill="green" stroke="none" /><circle cx="4758" cy="349" r="5" fill="green" stroke="none" /><circle cx="1558" cy="5286" r="5" fill="green" stroke="none" /><circle cx="2846" cy="2688" r="5" fill="green" stroke="none" /><circle cx="4281" cy="7279" r="5" fill="green" stroke="none" /><circle cx="1529" cy="43" r="5" fill="green" stroke="none" /><circle cx="1912" cy="8536" r="5" fill="green" stroke="none" /><circle cx="6881" cy="7916" r="5" fill="green" stroke="none" /><circle cx="1481" cy="5448" r="5" fill="green" stroke="none" /><circle cx="7162" cy="1640" r="5" fill="green" stroke="none" /><circle cx="5322" cy="521" r="5" fill="green" stroke="none" /><circle cx="9258" cy="138" r="5" fill="green" stroke="none" /><circle cx="9478" cy="7958" r="5" fill="green" stroke="none" /><circle cx="9568" cy="2315" r="5" fill="green" stroke="none" /><circle cx="2297" cy="7255" r="5" fill="green" stroke="none" /><circle cx="4740" cy="624" r="5" fill="green" stroke="none" /><circle cx="1985" cy="1384" r="5" fill="green" stroke="none" /><circle cx="2651" cy="3661" r="5" fill="green" stroke="none" /><circle cx="2750" cy="1117" r="5" fill="green" stroke="none" /><circle cx="9447" cy="8391" r="5" fill="green" stroke="none" /><circle cx="7610" cy="7162" r="5" fill="green" stroke="none" /><circle cx="4944" cy="4747" r="5" fill="green" stroke="none" /><circle cx="4377" cy="6300" r="5" fill="green" stroke="none" /><circle cx="6462" cy="5803" r="5" fill="green" stroke="none" /><circle cx="6878" cy="8383" r="5" fill="green" stroke="none" /><circle cx="1927" cy="128" r="5" fill="green" stroke="none" /><circle cx="5704" cy="6014" r="5" fill="green" stroke="none" /><circle cx="5128" cy="274" r="5" fill="green" stroke="none" /><circle cx="9445" cy="6393" r="5" fill="green" stroke="none" /><circle cx="3926" cy="4382" r="5" fill="green" stroke="none" /><circle cx="8898" cy="6973" r="5" fill="green" stroke="none" /><circle cx="4828" cy="8996" r="5" fill="green" stroke="none" /><circle cx="698" cy="58" r="5" fill="green" stroke="none" /><circle cx="2343" cy="4188" r="5" fill="green" stroke="none" /><circle cx="9959" cy="895" r="5" fill="green" stroke="none" /><circle cx="6722" cy="884" r="5" fill="green" stroke="none" /><circle cx="313" cy="226" r="5" fill="green" stroke="none" /><circle cx="4281" cy="918" r="5" fill="green" stroke="none" /><circle cx="2862" cy="1404" r="5" fill="green" stroke="none" /><circle cx="7011" cy="2919" r="5" fill="green" stroke="none" /><circle cx="4229" cy="6787" r="5" fill="green" stroke="none" /><circle cx="3146" cy="1009" r="5" fill="green" stroke="none" /><circle cx="7108" cy="7924" r="5" fill="green" stroke="none" /><circle cx="4217" cy="2004" r="5" fill="green" stroke="none" /><circle cx="4300" cy="2101" r="5" fill="green" stroke="none" /><circle cx="3790" cy="7456" r="5" fill="green" stroke="none" /><circle cx="6981" cy="231" r="5" fill="green" stroke="none" /><circle cx="1138" cy="651" r="5" fill="green" stroke="none" /><circle cx="6736" cy="6434" r="5" fill="green" stroke="none" /><circle cx="588" cy="3865" r="5" fill="green" stroke="none" /><circle cx="3695" cy="369" r="5" fill="green" stroke="none" /><circle cx="8444" cy="2178" r="5" fill="green" stroke="none" /><circle cx="6327" cy="734" r="5" fill="green" stroke="none" /><circle cx="4312" cy="5423" r="5" fill="green" stroke="none" /><circle cx="6364" cy="5087" r="5" fill="green" stroke="none" /><circle cx="1650" cy="3709" r="5" fill="green" stroke="none" /><circle cx="9287" cy="7811" r="5" fill="green" stroke="none" /><circle cx="915" cy="1184" r="5" fill="green" stroke="none" /><circle cx="4871" cy="3478" r="5" fill="green" stroke="none" /><circle cx="4634" cy="6588" r="5" fill="green" stroke="none" /><circle cx="9744" cy="2263" r="5" fill="green" stroke="none" /><circle cx="3078" cy="4130" r="5" fill="green" stroke="none" /><circle cx="8542" cy="9047" r="5" fill="green" stroke="none" /><circle cx="6112" cy="1578" r="5" fill="green" stroke="none" /><circle cx="2417" cy="6035" r="5" fill="green" stroke="none" /><circle cx="516" cy="8787" r="5" fill="green" stroke="none" /><circle cx="2124" cy="2738" r="5" fill="green" stroke="none" /><circle cx="2648" cy="7794" r="5" fill="green" stroke="none" /><circle cx="1736" cy="4262" r="5" fill="green" stroke="none" /><circle cx="5712" cy="2081" r="5" fill="green" stroke="none" /><circle cx="4915" cy="281" r="5" fill="green" stroke="none" /><circle cx="7992" cy="8082" r="5" fill="green" stroke="none" /><circle cx="2736" cy="4056" r="5" fill="green" stroke="none" /><circle cx="39" cy="6659" r="5" fill="green" stroke="none" /><circle cx="3282" cy="6596" r="5" fill="green" stroke="none" /><circle cx="8967" cy="3833" r="5" fill="green" stroke="none" /><circle cx="2289" cy="6573" r="5" fill="green" stroke="none" /><circle cx="9166" cy="4442" r="5" fill="green" stroke="none" /><circle cx="7039" cy="2104" r="5" fill="green" stroke="none" /><circle cx="2530" cy="8564" r="5" fill="green" stroke="none" /><circle cx="2833" cy="5692" r="5" fill="green" stroke="none" /><circle cx="2491" cy="4228" r="5" fill="green" stroke="none" /><circle cx="7901" cy="6147" r="5" fill="green" stroke="none" /><circle cx="4033" cy="691" r="5" fill="green" stroke="none" /><circle cx="4301" cy="1117" r="5" fill="green" stroke="none" /><circle cx="2952" cy="7463" r="5" fill="green" stroke="none" /><circle cx="3833" cy="2576" r="5" fill="green" stroke="none" /><circle cx="2472" cy="5222" r="5" fill="green" stroke="none" /><circle cx="335" cy="1283" r="5" fill="green" stroke="none" /><circle cx="2547" cy="6206" r="5" fill="green" stroke="none" /><circle cx="3596" cy="5137" r="5" fill="green" stroke="none" /><circle cx="283" cy="4039" r="5" fill="green" stroke="none" /><circle cx="7638" cy="1135" r="5" fill="green" stroke="none" /><circle cx="2458" cy="436" r="5" fill="green" stroke="none" /><circle cx="2901" cy="5131" r="5" fill="green" stroke="none" /><circle cx="2683" cy="3474" r="5" fill="green" stroke="none" /><circle cx="2763" cy="7807" r="5" fill="green" stroke="none" /><circle cx="6880" cy="2608" r="5" fill="green" stroke="none" /><circle cx="4421" cy="3281" r="5" fill="green" stroke="none" /><circle cx="6356" cy="1956" r="5" fill="green" stroke="none" /><circle cx="1918" cy="3940" r="5" fill="green" stroke="none" /><circle cx="9461" cy="286" r="5" fill="green" stroke="none" /><circle cx="9267" cy="1013" r="5" fill="green" stroke="none" /><circle cx="3608" cy="4" r="5" fill="green" stroke="none" /><circle cx="7762" cy="148" r="5" fill="green" stroke="none" /><circle cx="3243" cy="345" r="5" fill="green" stroke="none" /><circle cx="8250" cy="2310" r="5" fill="green" stroke="none" /><circle cx="1451" cy="13" r="5" fill="green" stroke="none" /><circle cx="2082" cy="790" r="5" fill="green" stroke="none" /><circle cx="7663" cy="3173" r="5" fill="green" stroke="none" /><circle cx="1449" cy="2330" r="5" fill="green" stroke="none" /><circle cx="8539" cy="8846" r="5" fill="green" stroke="none" /><circle cx="883" cy="1521" r="5" fill="green" stroke="none" /><circle cx="8842" cy="4567" r="5" fill="green" stroke="none" /><circle cx="2297" cy="6575" r="5" fill="green" stroke="none" /><circle cx="7754" cy="3425" r="5" fill="green" stroke="none" /><circle cx="7185" cy="8957" r="5" fill="green" stroke="none" /><circle cx="7908" cy="196" r="5" fill="green" stroke="none" /><circle cx="2862" cy="6134" r="5" fill="green" stroke="none" /><circle cx="4043" cy="1915" r="5" fill="green" stroke="none" /><circle cx="6601" cy="8343" r="5" fill="green" stroke="none" /><circle cx="6269" cy="7054" r="5" fill="green" stroke="none" /><circle cx="4191" cy="5769" r="5" fill="green" stroke="none" /><circle cx="9794" cy="780" r="5" fill="green" stroke="none" /><circle cx="4682" cy="3544" r="5" fill="green" stroke="none" /><circle cx="4374" cy="7571" r="5" fill="green" stroke="none" /><circle cx="5282" cy="3044" r="5" fill="green" stroke="none" /><circle cx="1971" cy="3289" r="5" fill="green" stroke="none" /><circle cx="6650" cy="940" r="5" fill="green" stroke="none" /><circle cx="3472" cy="5731" r="5" fill="green" stroke="none" /><circle cx="5535" cy="7303" r="5" fill="green" stroke="none" /><circle cx="2092" cy="303" r="5" fill="green" stroke="none" /><circle cx="2689" cy="4156" r="5" fill="green" stroke="none" /><circle cx="6286" cy="8630" r="5" fill="green" stroke="none" /><circle cx="3382" cy="6188" r="5" fill="green" stroke="none" /><circle cx="7369" cy="1903" r="5" fill="green" stroke="none" /><circle cx="3985" cy="2952" r="5" fill="green" stroke="none" /><circle cx="8514" cy="8945" r="5" fill="green" stroke="none" /><circle cx="4410" cy="4365" r="5" fill="green" stroke="none" /><circle cx="4118" cy="8687" r="5" fill="green" stroke="none" /><circle cx="9631" cy="2992" r="5" fill="green" stroke="none" /><circle cx="4349" cy="8286" r="5" fill="green" stroke="none" /><circle cx="5655" cy="481" r="5" fill="green" stroke="none" /><circle cx="9717" cy="189" r="5" fill="green" stroke="none" /><circle cx="8676" cy="291" r="5" fill="green" stroke="none" /><circle cx="2357" cy="3080" r="5" fill="green" stroke="none" /><circle cx="2956" cy="2266" r="5" fill="green" stroke="none" /><circle cx="161" cy="1744" r="5" fill="green" stroke="none" /></svg>