<svg viewBox="0 0 8085 3225" xmlns="http://www.w3.org/2000/svg"><rect x="0" y="0" width="8085" height="3225" fill="lightyellow" stroke="none "/><rect x="6032" y="1280" width="1489" height="596" fill="white" stroke="black "/><circle cx="2889" cy="1473" r="5" fill="green" stroke="none" /><circle cx="4486" cy="806" r="5" fill="green" stroke="none" /><circle cx="7310" cy="2057" r="5" fill="green" stroke="none" /><circle cx="3159" cy="1416" r="5" fill="green" stroke="none" /><circle cx="5871" cy="212" r="5" fill="green" stroke="none" /><circle cx="3080" cy="1277" r="5" fill="green" stroke="none" /><circle cx="6855" cy="2047" r="5" fill="green" stroke="none" /><circle cx="2419" cy="2019" r="5" fill="green" stroke="none" /><circle cx="6225" cy="2186" r="5" fill="green" stroke="none" /><circle cx="4353" cy="1864" r="5" fill="green" stroke="none" /><circle cx="6896" cy="945" r="5" fill="green" stroke="none" /><circle cx="4899" cy="193" r="5" fill="green" stroke="none" /><circle cx="5980" cy="3081" r="5" fill="green" stroke="none" /><circle cx="3760" cy="2253" r="5" fill="green" stroke="none" /><circle cx="5925" cy="376" r="5" fill="green" stroke="none" /><circle cx="1212" cy="2685" r="5" fill="green" stroke="none" /><circle cx="1837" cy="2015" r="5" fill="green" stroke="none" /><circle cx="2354" cy="102" r="5" fill="green" stroke="none" /><circle cx="4777" cy="2411" r="5" fill="green" stroke="none" /><circle cx="3978" cy="995" r="5" fill="green" stroke="none" /><circle cx="5871" cy="702" r="5" fill="green" stroke="none" /><circle cx="3892" cy="825" r="5" fill="green" stroke="none" /><circle cx="1740" cy="1617" r="5" fill="green" stroke="none" /><circle cx="6385" cy="2943" r="5" fill="green" stroke="none" /><circle cx="7427" cy="1153" r="5" fill="green" stroke="none" /><circle cx="5178" cy="1991" r="5" fill="green" stroke="none" /><circle cx="5207" cy="3196" r="5" fill="green" stroke="none" /><circle cx="7299" cy="461" r="5" fill="green" stroke="none" /><circle cx="5979" cy="1883" r="5" fill="green" stroke="none" /><circle cx="1924" cy="2437" r="5" fill="green" stroke="none" /><circle cx="4316" cy="1746" r="5" fill="green" stroke="none" /><circle cx="5310" cy="2542" r="5" fill="green" stroke="none" /><circle cx="6133" cy="3018" r="5" fill="green" stroke="none" /><circle cx="4661" cy="1065" r="5" fill="green" stroke="none" /><circle cx="2418" cy="323" r="5" fill="green" stroke="none" /><circle cx="2207" cy="461" r="5" fill="green" stroke="none" /><circle cx="5107" cy="94" r="5" fill="green" stroke="none" /><circle cx="5553" cy="742" r="5" fill="green" stroke="none" /><circle cx="3664" cy="94" r="5" fill="green" stroke="none" /><circle cx="2618" cy="1835" r="5" fill="green" stroke="none" /><circle cx="5392" cy="780" r="5" fill="green" stroke="none" /><circle cx="1976" cy="694" r="5" fill="green" stroke="none" /><circle cx="4575" cy="76" r="5" fill="green" stroke="none" /><circle cx="1755" cy="1815" r="5" fill="green" stroke="none" /><circle cx="2221" cy="824" r="5" fill="green" stroke="none" /><circle cx="4644" cy="785" r="5" fill="green" stroke="none" /><circle cx="4567" cy="3080" r="5" fill="green" stroke="none" /><circle cx="1034" cy="129" r="5" fill="green" stroke="none" /><circle cx="7407" cy="2502" r="5" fill="green" stroke="none" /><circle cx="7373" cy="2498" r="5" fill="green" stroke="none" /><circle cx="2430" cy="2025" r="5" fill="green" stroke="none" /><circle cx="2580" cy="2032" r="5" fill="green" stroke="none" /><circle cx="1295" cy="1542" r="5" fill="green" stroke="none" /><circle cx="7859" cy="916" r="5" fill="green" stroke="none" /><circle cx="7500" cy="1957" r="5" fill="green" stroke="none" /><circle cx="8046" cy="2900" r="5" fill="green" stroke="none" /><circle cx="2909" cy="1058" r="5" fill="green" stroke="none" /><circle cx="4809" cy="549" r="5" fill="green" stroke="none" /><circle cx="2487" cy="2373" r="5" fill="green" stroke="none" /><circle cx="7552" cy="1861" r="5" fill="green" stroke="none" /><circle cx="8019" cy="535" r="5" fill="green" stroke="none" /><circle cx="5235" cy="779" r="5" fill="green" stroke="none" /><circle cx="6855" cy="2592" r="5" fill="green" stroke="none" /><circle cx="1961" cy="1862" r="5" fill="green" stroke="none" /><circle cx="6974" cy="2112" r="5" fill="green" stroke="none" /><circle cx="3475" cy="2747" r="5" fill="green" stroke="none" /><circle cx="5808" cy="2041" r="5" fill="green" stroke="none" /><circle cx="1680" cy="2140" r="5" fill="green" stroke="none" /><circle cx="2616" cy="2317" r="5" fill="green" stroke="none" /><circle cx="2149" cy="1911" r="5" fill="green" stroke="none" /><circle cx="2873" cy="2054" r="5" fill="green" stroke="none" /><circle cx="8079" cy="2616" r="5" fill="green" stroke="none" /><circle cx="7443" cy="2822" r="5" fill="green" stroke="none" /><circle cx="5" cy="1581" r="5" fill="green" stroke="none" /><circle cx="4745" cy="1188" r="5" fill="green" stroke="none" /><circle cx="7519" cy="642" r="5" fill="green" stroke="none" /><circle cx="5887" cy="720" r="5" fill="green" stroke="none" /><circle cx="2312" cy="2013" r="5" fill="green" stroke="none" /><circle cx="2384" cy="549" r="5" fill="green" stroke="none" /><circle cx="1591" cy="783" r="5" fill="green" stroke="none" /><circle cx="7645" cy="187" r="5" fill="green" stroke="none" /><circle cx="3641" cy="3006" r="5" fill="green" stroke="none" /><circle cx="6468" cy="1927" r="5" fill="green" stroke="none" /><circle cx="4661" cy="1463" r="5" fill="green" stroke="none" /><circle cx="1038" cy="1621" r="5" fill="green" stroke="none" /><circle cx="5247" cy="2114" r="5" fill="green" stroke="none" /><circle cx="4817" cy="2670" r="5" fill="green" stroke="none" /><circle cx="1971" cy="2759" r="5" fill="green" stroke="none" /><circle cx="6379" cy="2494" r="5" fill="green" stroke="none" /><circle cx="1802" cy="3154" r="5" fill="green" stroke="none" /><circle cx="4921" cy="2221" r="5" fill="green" stroke="none" /><circle cx="1260" cy="1292" r="5" fill="green" stroke="none" /><circle cx="4052" cy="35" r="5" fill="green" stroke="none" /><circle cx="7085" cy="681" r="5" fill="green" stroke="none" /><circle cx="5509" cy="2306" r="5" fill="green" stroke="none" /><circle cx="5359" cy="808" r="5" fill="green" stroke="none" /><circle cx="2931" cy="1212" r="5" fill="green" stroke="none" /><circle cx="7997" cy="2823" r="5" fill="green" stroke="none" /><circle cx="7523" cy="1532" r="5" fill="green" stroke="none" /><circle cx="955" cy="3106" r="5" fill="green" stroke="none" /><circle cx="6858" cy="818" r="5" fill="green" stroke="none" /><circle cx="4649" cy="551" r="5" fill="green" stroke="none" /><circle cx="2642" cy="2383" r="5" fill="green" stroke="none" /><circle cx="2548" cy="3209" r="5" fill="green" stroke="none" /><circle cx="3423" cy="564" r="5" fill="green" stroke="none" /><circle cx="4382" cy="1788" r="5" fill="green" stroke="none" /><circle cx="3268" cy="2756" r="5" fill="green" stroke="none" /><circle cx="7940" cy="108" r="5" fill="green" stroke="none" /><circle cx="6018" cy="904" r="5" fill="green" stroke="none" /><circle cx="1643" cy="2283" r="5" fill="green" stroke="none" /><circle cx="2911" cy="1444" r="5" fill="green" stroke="none" /><circle cx="3744" cy="882" r="5" fill="green" stroke="none" /><circle cx="1991" cy="1621" r="5" fill="green" stroke="none" /><circle cx="2911" cy="955" r="5" fill="green" stroke="none" /><circle cx="4373" cy="366" r="5" fill="green" stroke="none" /><circle cx="1101" cy="2739" r="5" fill="green" stroke="none" /><circle cx="817" cy="691" r="5" fill="green" stroke="none" /><circle cx="1216" cy="313" r="5" fill="green" stroke="none" /><circle cx="6887" cy="2195" r="5" fill="green" stroke="none" /><circle cx="8069" cy="952" r="5" fill="green" stroke="none" /><circle cx="3503" cy="3183" r="5" fill="green" stroke="none" /><circle cx="3515" cy="2760" r="5" fill="green" stroke="none" /><circle cx="69" cy="934" r="5" fill="green" stroke="none" /><circle cx="1839" cy="2188" r="5" fill="green" stroke="none" /><circle cx="1076" cy="503" r="5" fill="green" stroke="none" /><circle cx="5721" cy="1071" r="5" fill="green" stroke="none" /><circle cx="6647" cy="2224" r="5" fill="green" stroke="none" /><circle cx="3099" cy="1849" r="5" fill="green" stroke="none" /><circle cx="4692" cy="38" r="5" fill="green" stroke="none" /><circle cx="7802" cy="67" r="5" fill="green" stroke="none" /><circle cx="862" cy="618" r="5" fill="green" stroke="none" /><circle cx="1534" cy="2812" r="5" fill="green" stroke="none" /><circle cx="3188" cy="2426" r="5" fill="green" stroke="none" /><circle cx="8014" cy="1591" r="5" fill="green" stroke="none" /><circle cx="4952" cy="1889" r="5" fill="green" stroke="none" /><circle cx="1411" cy="448" r="5" fill="green" stroke="none" /><circle cx="7432" cy="2777" r="5" fill="green" stroke="none" /><circle cx="7502" cy="652" r="5" fill="green" stroke="none" /><circle cx="1790" cy="1248" r="5" fill="green" stroke="none" /><circle cx="4576" cy="1321" r="5" fill="green" stroke="none" /><circle cx="5098" cy="2490" r="5" fill="green" stroke="none" /><circle cx="110" cy="1612" r="5" fill="green" stroke="none" /><circle cx="4983" cy="292" r="5" fill="green" stroke="none" /><circle cx="5245" cy="1169" r="5" fill="green" stroke="none" /><circle cx="5569" cy="94" r="5" fill="green" stroke="none" /><circle cx="6309" cy="964" r="5" fill="green" stroke="none" /><circle cx="4915" cy="15" r="5" fill="green" stroke="none" /><circle cx="1299" cy="224" r="5" fill="green" stroke="none" /><circle cx="547" cy="393" r="5" fill="green" stroke="none" /><circle cx="1852" cy="989" r="5" fill="green" stroke="none" /><circle cx="7538" cy="2356" r="5" fill="green" stroke="none" /><circle cx="1956" cy="866" r="5" fill="green" stroke="none" /><circle cx="724" cy="2826" r="5" fill="green" stroke="none" /><circle cx="2439" cy="3213" r="5" fill="green" stroke="none" /><circle cx="777" cy="2875" r="5" fill="green" stroke="none" /><circle cx="7706" cy="2865" r="5" fill="green" stroke="none" /><circle cx="6733" cy="2468" r="5" fill="green" stroke="none" /><circle cx="3628" cy="298" r="5" fill="green" stroke="none" /><circle cx="2956" cy="933" r="5" fill="green" stroke="none" /><circle cx="7568" cy="1337" r="5" fill="green" stroke="none" /><circle cx="2389" cy="1364" r="5" fill="green" stroke="none" /><circle cx="7042" cy="106" r="5" fill="green" stroke="none" /><circle cx="5101" cy="1147" r="5" fill="green" stroke="none" /><circle cx="4871" cy="2605" r="5" fill="green" stroke="none" /><circle cx="7088" cy="3163" r="5" fill="green" stroke="none" /><circle cx="7533" cy="840" r="5" fill="green" stroke="none" /><circle cx="6170" cy="2553" r="5" fill="green" stroke="none" /><circle cx="4273" cy="115" r="5" fill="green" stroke="none" /><circle cx="6365" cy="870" r="5" fill="green" stroke="none" /><circle cx="2321" cy="280" r="5" fill="green" stroke="none" /><circle cx="2526" cy="1208" r="5" fill="green" stroke="none" /><circle cx="5231" cy="1017" r="5" fill="green" stroke="none" /><circle cx="3386" cy="2342" r="5" fill="green" stroke="none" /><circle cx="3343" cy="578" r="5" fill="green" stroke="none" /><circle cx="7301" cy="531" r="5" fill="green" stroke="none" /><circle cx="5338" cy="2928" r="5" fill="green" stroke="none" /><circle cx="6413" cy="1026" r="5" fill="green" stroke="none" /><circle cx="4618" cy="87" r="5" fill="green" stroke="none" /><circle cx="2744" cy="2313" r="5" fill="green" stroke="none" /><circle cx="4681" cy="2501" r="5" fill="green" stroke="none" /><circle cx="5701" cy="115" r="5" fill="green" stroke="none" /><circle cx="6048" cy="927" r="5" fill="green" stroke="none" /><circle cx="387" cy="49" r="5" fill="green" stroke="none" /><circle cx="2524" cy="2678" r="5" fill="green" stroke="none" /><circle cx="7288" cy="923" r="5" fill="green" stroke="none" /><circle cx="4460" cy="1440" r="5" fill="green" stroke="none" /><circle cx="7255" cy="385" r="5" fill="green" stroke="none" /><circle cx="7708" cy="3133" r="5" fill="green" stroke="none" /><circle cx="5518" cy="2503" r="5" fill="green" stroke="none" /><circle cx="7261" cy="2216" r="5" fill="green" stroke="none" /><circle cx="3959" cy="2484" r="5" fill="green" stroke="none" /><circle cx="7753" cy="3032" r="5" fill="green" stroke="none" /><circle cx="1310" cy="2454" r="5" fill="green" stroke="none" /><circle cx="5772" cy="568" r="5" fill="green" stroke="none" /><circle cx="84" cy="1035" r="5" fill="green" stroke="none" /><circle cx="4404" cy="2187" r="5" fill="green" stroke="none" /><circle cx="1181" cy="402" r="5" fill="green" stroke="none" /><circle cx="2055" cy="2171" r="5" fill="green" stroke="none" /><circle cx="5418" cy="3224" r="5" fill="green" stroke="none" /><circle cx="7721" cy="1117" r="5" fill="green" stroke="none" /><circle cx="963" cy="2227" r="5" fill="green" stroke="none" /><circle cx="507" cy="729" r="5" fill="green" stroke="none" /><circle cx="7562" cy="258" r="5" fill="green" stroke="none" /><circle cx="5634" cy="1144" r="5" fill="green" stroke="none" /><circle cx="5774" cy="417" r="5" fill="green" stroke="none" /><circle cx="4456" cy="660" r="5" fill="green" stroke="none" /><circle cx="2666" cy="1944" r="5" fill="green" stroke="none" /><circle cx="7828" cy="1589" r="5" fill="green" stroke="none" /><circle cx="1834" cy="1744" r="5" fill="green" stroke="none" /><circle cx="4181" cy="2105" r="5" fill="green" stroke="none" /><circle cx="3285" cy="139" r="5" fill="green" stroke="none" /><circle cx="7624" cy="2152" r="5" fill="green" stroke="none" /><circle cx="6340" cy="1206" r="5" fill="green" stroke="none" /><circle cx="2981" cy="1079" r="5" fill="green" stroke="none" /><circle cx="140" cy="622" r="5" fill="green" stroke="none" /><circle cx="5165" cy="1674" r="5" fill="green" stroke="none" /><circle cx="5587" cy="2138" r="5" fill="green" stroke="none" /><circle cx="6048" cy="647" r="5" fill="green" stroke="none" /><circle cx="1611" cy="1340" r="5" fill="green" stroke="none" /><circle cx="1817" cy="1415" r="5" fill="green" stroke="none" /><circle cx="1911" cy="2397" r="5" fill="green" stroke="none" /><circle cx="2297" cy="2781" r="5" fill="green" stroke="none" /><circle cx="4448" cy="2946" r="5" fill="green" stroke="none" /><circle cx="7123" cy="2797" r="5" fill="green" stroke="none" /><circle cx="2005" cy="2831" r="5" fill="green" stroke="none" /><circle cx="5086" cy="2423" r="5" fill="green" stroke="none" /><circle cx="4764" cy="648" r="5" fill="green" stroke="none" /><circle cx="2797" cy="2934" r="5" fill="green" stroke="none" /><circle cx="22" cy="2967" r="5" fill="green" stroke="none" /><circle cx="1178" cy="185" r="5" fill="green" stroke="none" /><circle cx="3769" cy="126" r="5" fill="green" stroke="none" /><circle cx="7279" cy="2578" r="5" fill="green" stroke="none" /><circle cx="2485" cy="2049" r="5" fill="green" stroke="none" /><circle cx="3937" cy="1916" r="5" fill="green" stroke="none" /><circle cx="1212" cy="2310" r="5" fill="green" stroke="none" /><circle cx="7374" cy="2837" r="5" fill="green" stroke="none" /><circle cx="626" cy="2676" r="5" fill="green" stroke="none" /><circle cx="3118" cy="331" r="5" fill="green" stroke="none" /><circle cx="3662" cy="2284" r="5" fill="green" stroke="none" /><circle cx="3594" cy="54" r="5" fill="green" stroke="none" /><circle cx="2928" cy="764" r="5" fill="green" stroke="none" /><circle cx="6014" cy="1872" r="5" fill="green" stroke="none" /><circle cx="2187" cy="392" r="5" fill="green" stroke="none" /><circle cx="1937" cy="2160" r="5" fill="green" stroke="none" /><circle cx="2945" cy="2254" r="5" fill="green" stroke="none" /><circle cx="1425" cy="598" r="5" fill="green" stroke="none" /><circle cx="5811" cy="336" r="5" fill="green" stroke="none" /><circle cx="1569" cy="455" r="5" fill="green" stroke="none" /><circle cx="4580" cy="1809" r="5" fill="green" stroke="none" /><circle cx="5784" cy="3134" r="5" fill="green" stroke="none" /><circle cx="1370" cy="2234" r="5" fill="green" stroke="none" /><circle cx="239" cy="1091" r="5" fill="green" stroke="none" /><circle cx="1702" cy="1140" r="5" fill="green" stroke="none" /><circle cx="5540" cy="2089" r="5" fill="green" stroke="none" /><circle cx="6197" cy="2954" r="5" fill="green" stroke="none" /><circle cx="1234" cy="3159" r="5" fill="green" stroke="none" /><circle cx="2275" cy="2469" r="5" fill="green" stroke="none" /><circle cx="2900" cy="1280" r="5" fill="green" stroke="none" /><circle cx="1396" cy="127" r="5" fill="green" stroke="none" /><circle cx="726" cy="1214" r="5" fill="green" stroke="none" /><circle cx="3066" cy="965" r="5" fill="green" stroke="none" /><circle cx="7556" cy="274" r="5" fill="green" stroke="none" /><circle cx="4704" cy="3145" r="5" fill="green" stroke="none" /><circle cx="7014" cy="2636" r="5" fill="green" stroke="none" /><circle cx="5579" cy="1040" r="5" fill="green" stroke="none" /><circle cx="2275" cy="1824" r="5" fill="green" stroke="none" /><circle cx="196" cy="1260" r="5" fill="green" stroke="none" /><circle cx="6448" cy="2531" r="5" fill="green" stroke="none" /><circle cx="7290" cy="2455" r="5" fill="green" stroke="none" /><circle cx="5448" cy="357" r="5" fill="green" stroke="none" /><circle cx="5526" cy="2262" r="5" fill="green" stroke="none" /><circle cx="231" cy="552" r="5" fill="green" stroke="none" /><circle cx="3361" cy="1401" r="5" fill="green" stroke="none" /><circle cx="5958" cy="2016" r="5" fill="green" stroke="none" /><circle cx="5284" cy="1839" r="5" fill="green" stroke="none" /><circle cx="5285" cy="2488" r="5" fill="green" stroke="none" /><circle cx="3454" cy="2870" r="5" fill="green" stroke="none" /><circle cx="5491" cy="2642" r="5" fill="green" stroke="none" /><circle cx="5665" cy="837" r="5" fill="green" stroke="none" /><circle cx="1838" cy="1404" r="5" fill="green" stroke="none" /><circle cx="2155" cy="146" r="5" fill="green" stroke="none" /><circle cx="1442" cy="1633" r="5" fill="green" stroke="none" /><circle cx="985" cy="1913" r="5" fill="green" stroke="none" /><circle cx="6077" cy="2553" r="5" fill="green" stroke="none" /><circle cx="3999" cy="2006" r="5" fill="green" stroke="none" /><circle cx="62" cy="1788" r="5" fill="green" stroke="none" /><circle cx="7080" cy="553" r="5" fill="green" stroke="none" /><circle cx="4626" cy="566" r="5" fill="green" stroke="none" /><circle cx="2874" cy="2516" r="5" fill="green" stroke="none" /><circle cx="1269" cy="1913" r="5" fill="green" stroke="none" /><circle cx="2336" cy="1370" r="5" fill="green" stroke="none" /><circle cx="3449" cy="0" r="5" fill="green" stroke="none" /><circle cx="4805" cy="1687" r="5" fill="green" stroke="none" /><circle cx="1376" cy="1818" r="5" fill="green" stroke="none" /><circle cx="6119" cy="154" r="5" fill="green" stroke="none" /><circle cx="4588" cy="297" r="5" fill="green" stroke="none" /><circle cx="3084" cy="2729" r="5" fill="green" stroke="none" /><circle cx="1482" cy="362" r="5" fill="green" stroke="none" /><circle cx="2472" cy="884" r="5" fill="green" stroke="none" /><circle cx="7487" cy="2339" r="5" fill="green" stroke="none" /><circle cx="744" cy="2858" r="5" fill="green" stroke="none" /><circle cx="3645" cy="1686" r="5" fill="green" stroke="none" /><circle cx="4302" cy="865" r="5" fill="green" stroke="none" /><circle cx="2511" cy="124" r="5" fill="green" stroke="none" /><circle cx="2509" cy="3010" r="5" fill="green" stroke="none" /><circle cx="6694" cy="2523" r="5" fill="green" stroke="none" /><circle cx="230" cy="538" r="5" fill="green" stroke="none" /><circle cx="2927" cy="942" r="5" fill="green" stroke="none" /><circle cx="3746" cy="3073" r="5" fill="green" stroke="none" /><circle cx="3604" cy="2278" r="5" fill="green" stroke="none" /><circle cx="3358" cy="1162" r="5" fill="green" stroke="none" /><circle cx="1103" cy="2254" r="5" fill="green" stroke="none" /><circle cx="773" cy="2067" r="5" fill="green" stroke="none" /><circle cx="5033" cy="523" r="5" fill="green" stroke="none" /><circle cx="4796" cy="3070" r="5" fill="green" stroke="none" /><circle cx="2836" cy="1363" r="5" fill="green" stroke="none" /><circle cx="2721" cy="465" r="5" fill="green" stroke="none" /><circle cx="4890" cy="288" r="5" fill="green" stroke="none" /><circle cx="2362" cy="845" r="5" fill="green" stroke="none" /><circle cx="7866" cy="3107" r="5" fill="green" stroke="none" /><circle cx="3909" cy="2500" r="5" fill="green" stroke="none" /><circle cx="469" cy="2177" r="5" fill="green" stroke="none" /><circle cx="1721" cy="692" r="5" fill="green" stroke="none" /><circle cx="5175" cy="768" r="5" fill="green" stroke="none" /><circle cx="4747" cy="120" r="5" fill="green" stroke="none" /><circle cx="2348" cy="2658" r="5" fill="green" stroke="none" /><circle cx="6850" cy="2293" r="5" fill="green" stroke="none" /><circle cx="6692" cy="2556" r="5" fill="green" stroke="none" /><circle cx="4337" cy="2454" r="5" fill="green" stroke="none" /><circle cx="5452" cy="1706" r="5" fill="green" stroke="none" /><circle cx="7821" cy="2993" r="5" fill="green" stroke="none" /><circle cx="5908" cy="1285" r="5" fill="green" stroke="none" /><circle cx="4429" cy="430" r="5" fill="green" stroke="none" /><circle cx="5691" cy="1977" r="5" fill="green" stroke="none" /><circle cx="2474" cy="1915" r="5" fill="green" stroke="none" /><circle cx="5282" cy="583" r="5" fill="green" stroke="none" /><circle cx="2949" cy="232" r="5" fill="green" stroke="none" /><circle cx="2098" cy="2413" r="5" fill="green" stroke="none" /><circle cx="5409" cy="1676" r="5" fill="green" stroke="none" /><circle cx="650" cy="2099" r="5" fill="green" stroke="none" /><circle cx="7807" cy="2639" r="5" fill="green" stroke="none" /><circle cx="2375" cy="3007" r="5" fill="green" stroke="none" /><circle cx="471" cy="2208" r="5" fill="green" stroke="none" /><circle cx="7906" cy="3105" r="5" fill="green" stroke="none" /><circle cx="7204" cy="2562" r="5" fill="green" stroke="none" /><circle cx="7215" cy="2675" r="5" fill="green" stroke="none" /><circle cx="1179" cy="1316" r="5" fill="green" stroke="none" /><circle cx="3646" cy="319" r="5" fill="green" stroke="none" /><circle cx="4241" cy="446" r="5" fill="green" stroke="none" /><circle cx="4112" cy="2494" r="5" fill="green" stroke="none" /><circle cx="424" cy="2488" r="5" fill="green" stroke="none" /><circle cx="300" cy="1564" r="5" fill="green" stroke="none" /><circle cx="6827" cy="2757" r="5" fill="green" stroke="none" /><circle cx="5254" cy="1389" r="5" fill="green" stroke="none" /><circle cx="4886" cy="2764" r="5" fill="green" stroke="none" /><circle cx="6322" cy="265" r="5" fill="green" stroke="none" /><circle cx="6482" cy="613" r="5" fill="green" stroke="none" /><circle cx="1849" cy="854" r="5" fill="green" stroke="none" /><circle cx="2715" cy="2150" r="5" fill="green" stroke="none" /><circle cx="3903" cy="2596" r="5" fill="green" stroke="none" /><circle cx="1747" cy="3115" r="5" fill="green" stroke="none" /><circle cx="7541" cy="2341" r="5" fill="green" stroke="none" /><circle cx="21" cy="2204" r="5" fill="green" stroke="none" /><circle cx="226" cy="2852" r="5" fill="green" stroke="none" /><circle cx="2605" cy="1991" r="5" fill="green" stroke="none" /><circle cx="2722" cy="2125" r="5" fill="green" stroke="none" /><circle cx="7105" cy="1187" r="5" fill="green" stroke="none" /><circle cx="18" cy="2054" r="5" fill="green" stroke="none" /><circle cx="5318" cy="2692" r="5" fill="green" stroke="none" /><circle cx="4483" cy="263" r="5" fill="green" stroke="none" /><circle cx="2565" cy="439" r="5" fill="green" stroke="none" /><circle cx="1137" cy="1773" r="5" fill="green" stroke="none" /><circle cx="6375" cy="333" r="5" fill="green" stroke="none" /><circle cx="7458" cy="719" r="5" fill="green" stroke="none" /><circle cx="7750" cy="2195" r="5" fill="green" stroke="none" /><circle cx="3014" cy="1151" r="5" fill="green" stroke="none" /><circle cx="5903" cy="3067" r="5" fill="green" stroke="none" /><circle cx="3386" cy="1974" r="5" fill="green" stroke="none" /><circle cx="1075" cy="2541" r="5" fill="green" stroke="none" /><circle cx="3510" cy="568" r="5" fill="green" stroke="none" /><circle cx="3981" cy="1499" r="5" fill="green" stroke="none" /><circle cx="6075" cy="759" r="5" fill="green" stroke="none" /><circle cx="3568" cy="1405" r="5" fill="green" stroke="none" /><circle cx="2993" cy="535" r="5" fill="green" stroke="none" /><circle cx="984" cy="1906" r="5" fill="green" stroke="none" /><circle cx="4542" cy="3069" r="5" fill="green" stroke="none" /><circle cx="4988" cy="3" r="5" fill="green" stroke="none" /><circle cx="5982" cy="2016" r="5" fill="green" stroke="none" /><circle cx="6578" cy="2157" r="5" fill="green" stroke="none" /><circle cx="7878" cy="3145" r="5" fill="green" stroke="none" /><circle cx="2158" cy="2669" r="5" fill="green" stroke="none" /><circle cx="1017" cy="1534" r="5" fill="green" stroke="none" /><circle cx="2096" cy="2156" r="5" fill="green" stroke="none" /><circle cx="4546" cy="1630" r="5" fill="green" stroke="none" /><circle cx="465" cy="1190" r="5" fill="green" stroke="none" /><circle cx="4441" cy="38" r="5" fill="green" stroke="none" /><circle cx="2258" cy="897" r="5" fill="green" stroke="none" /><circle cx="2613" cy="3200" r="5" fill="green" stroke="none" /><circle cx="2883" cy="1232" r="5" fill="green" stroke="none" /><circle cx="1406" cy="749" r="5" fill="green" stroke="none" /><circle cx="5702" cy="2919" r="5" fill="green" stroke="none" /><circle cx="4042" cy="2388" r="5" fill="green" stroke="none" /><circle cx="2261" cy="3122" r="5" fill="green" stroke="none" /><circle cx="3679" cy="2851" r="5" fill="green" stroke="none" /><circle cx="8078" cy="2094" r="5" fill="green" stroke="none" /><circle cx="1944" cy="1575" r="5" fill="green" stroke="none" /><circle cx="1923" cy="309" r="5" fill="green" stroke="none" /><circle cx="6196" cy="2139" r="5" fill="green" stroke="none" /><circle cx="5351" cy="191" r="5" fill="green" stroke="none" /><circle cx="7951" cy="1257" r="5" fill="green" stroke="none" /><circle cx="3132" cy="882" r="5" fill="green" stroke="none" /><circle cx="4467" cy="2302" r="5" fill="green" stroke="none" /><circle cx="2716" cy="3142" r="5" fill="green" stroke="none" /><circle cx="3213" cy="792" r="5" fill="green" stroke="none" /><circle cx="6025" cy="2463" r="5" fill="green" stroke="none" /><circle cx="5330" cy="125" r="5" fill="green" stroke="none" /><circle cx="5950" cy="1817" r="5" fill="green" stroke="none" /><circle cx="1494" cy="2771" r="5" fill="green" stroke="none" /><circle cx="7730" cy="701" r="5" fill="green" stroke="none" /><circle cx="4140" cy="3073" r="5" fill="green" stroke="none" /><circle cx="5494" cy="1445" r="5" fill="green" stroke="none" /><circle cx="1550" cy="2627" r="5" fill="green" stroke="none" /><circle cx="7416" cy="489" r="5" fill="green" stroke="none" /><circle cx="5030" cy="798" r="5" fill="green" stroke="none" /><circle cx="4870" cy="1055" r="5" fill="green" stroke="none" /><circle cx="708" cy="2318" r="5" fill="green" stroke="none" /><circle cx="1222" cy="2772" r="5" fill="green" stroke="none" /><circle cx="3828" cy="2151" r="5" fill="green" stroke="none" /><circle cx="4710" cy="1823" r="5" fill="green" stroke="none" /><circle cx="3694" cy="1369" r="5" fill="green" stroke="none" /><circle cx="2929" cy="146" r="5" fill="green" stroke="none" /><circle cx="6516" cy="2028" r="5" fill="green" stroke="none" /><circle cx="7490" cy="2025" r="5" fill="green" stroke="none" /><circle cx="3808" cy="3201" r="5" fill="green" stroke="none" /><circle cx="6236" cy="1001" r="5" fill="green" stroke="none" /><circle cx="896" cy="149" r="5" fill="green" stroke="none" /><circle cx="2675" cy="1581" r="5" fill="green" stroke="none" /><circle cx="754" cy="3089" r="5" fill="green" stroke="none" /><circle cx="6141" cy="250" r="5" fill="green" stroke="none" /><circle cx="3920" cy="879" r="5" fill="green" stroke="none" /><circle cx="5423" cy="3198" r="5" fill="green" stroke="none" /><circle cx="7069" cy="2221" r="5" fill="green" stroke="none" /><circle cx="1515" cy="457" r="5" fill="green" stroke="none" /><circle cx="199" cy="665" r="5" fill="green" stroke="none" /><circle cx="4378" cy="965" r="5" fill="green" stroke="none" /><circle cx="5865" cy="97" r="5" fill="green" stroke="none" /><circle cx="5617" cy="590" r="5" fill="green" stroke="none" /><circle cx="5540" cy="1384" r="5" fill="green" stroke="none" /><circle cx="2834" cy="2458" r="5" fill="green" stroke="none" /><circle cx="6314" cy="993" r="5" fill="green" stroke="none" /><circle cx="4848" cy="1026" r="5" fill="green" stroke="none" /><circle cx="6588" cy="3186" r="5" fill="green" stroke="none" /><circle cx="3116" cy="2789" r="5" fill="green" stroke="none" /><circle cx="2209" cy="2455" r="5" fill="green" stroke="none" /><circle cx="3702" cy="2623" r="5" fill="green" stroke="none" /><circle cx="6689" cy="3061" r="5" fill="green" stroke="none" /><circle cx="141" cy="1896" r="5" fill="green" stroke="none" /><circle cx="5031" cy="1973" r="5" fill="green" stroke="none" /><circle cx="2426" cy="671" r="5" fill="green" stroke="none" /><circle cx="3513" cy="1224" r="5" fill="green" stroke="none" /><circle cx="645" cy="1308" r="5" fill="green" stroke="none" /><circle cx="2110" cy="272" r="5" fill="green" stroke="none" /><circle cx="3802" cy="362" r="5" fill="green" stroke="none" /><circle cx="1329" cy="1557" r="5" fill="green" stroke="none" /><circle cx="7999" cy="828" r="5" fill="green" stroke="none" /><circle cx="2441" cy="1605" r="5" fill="green" stroke="none" /><circle cx="3631" cy="3197" r="5" fill="green" stroke="none" /><circle cx="2447" cy="336" r="5" fill="green" stroke="none" /><circle cx="3178" cy="394" r="5" fill="green" stroke="none" /><circle cx="1353" cy="1918" r="5" fill="green" stroke="none" /><circle cx="1193" cy="1509" r="5" fill="green" stroke="none" /><circle cx="6422" cy="2157" r="5" fill="green" stroke="none" /><circle cx="3880" cy="2643" r="5" fill="green" stroke="none" /><circle cx="6320" cy="153" r="5" fill="green" stroke="none" /><circle cx="2268" cy="2212" r="5" fill="green" stroke="none" /><circle cx="4240" cy="374" r="5" fill="green" stroke="none" /><circle cx="5437" cy="3149" r="5" fill="green" stroke="none" /><circle cx="1322" cy="2728" r="5" fill="green" stroke="none" /><circle cx="1867" cy="1241" r="5" fill="green" stroke="none" /><circle cx="4905" cy="666" r="5" fill="green" stroke="none" /><circle cx="5485" cy="2434" r="5" fill="green" stroke="none" /><circle cx="7576" cy="1864" r="5" fill="green" stroke="none" /><circle cx="5292" cy="1299" r="5" fill="green" stroke="none" /><circle cx="471" cy="0" r="5" fill="green" stroke="none" /><circle cx="5197" cy="2982" r="5" fill="green" stroke="none" /><circle cx="7967" cy="717" r="5" fill="green" stroke="none" /><circle cx="2488" cy="1112" r="5" fill="green" stroke="none" /><circle cx="255" cy="1709" r="5" fill="green" stroke="none" /><circle cx="4042" cy="2164" r="5" fill="green" stroke="none" /><circle cx="2898" cy="584" r="5" fill="green" stroke="none" /><circle cx="4313" cy="501" r="5" fill="green" stroke="none" /><circle cx="551" cy="1208" r="5" fill="green" stroke="none" /><circle cx="7194" cy="2051" r="5" fill="green" stroke="none" /><circle cx="1069" cy="2007" r="5" fill="green" stroke="none" /><circle cx="7955" cy="2537" r="5" fill="green" stroke="none" /><circle cx="1790" cy="171" r="5" fill="green" stroke="none" /><circle cx="1976" cy="3148" r="5" fill="green" stroke="none" /><circle cx="3845" cy="426" r="5" fill="green" stroke="none" /><circle cx="4304" cy="1877" r="5" fill="green" stroke="none" /><circle cx="1011" cy="684" r="5" fill="green" stroke="none" /></svg>