<svg viewBox="0 0 2159 1047" xmlns="http://www.w3.org/2000/svg"><rect x="0" y="0" width="2159" height="1047" fill="lightyellow" stroke="none "/><rect x="990" y="612" width="275" height="334" fill="none" stroke="none "/><circle cx="44" cy="618" r="5" fill="green" stroke="none" /><circle cx="1911" cy="312" r="5" fill="green" stroke="none" /><circle cx="189" cy="816" r="5" fill="green" stroke="none" /><circle cx="212" cy="310" r="5" fill="green" stroke="none" /><circle cx="640" cy="418" r="5" fill="green" stroke="none" /><circle cx="208" cy="296" r="5" fill="green" stroke="none" /><circle cx="332" cy="763" r="5" fill="green" stroke="none" /><circle cx="930" cy="512" r="5" fill="green" stroke="none" /><circle cx="1994" cy="242" r="5" fill="green" stroke="none" /><circle cx="1101" cy="242" r="5" fill="green" stroke="none" /><circle cx="1945" cy="904" r="5" fill="green" stroke="none" /><circle cx="1481" cy="279" r="5" fill="green" stroke="none" /><circle cx="1587" cy="187" r="5" fill="green" stroke="none" /><circle cx="994" cy="355" r="5" fill="green" stroke="none" /><circle cx="457" cy="382" r="5" fill="green" stroke="none" /><circle cx="2076" cy="398" r="5" fill="green" stroke="none" /><circle cx="703" cy="38" r="5" fill="green" stroke="none" /><circle cx="1393" cy="667" r="5" fill="green" stroke="none" /><circle cx="91" cy="569" r="5" fill="green" stroke="none" /><circle cx="319" cy="294" r="5" fill="green" stroke="none" /><circle cx="262" cy="659" r="5" fill="green" stroke="none" /><circle cx="1912" cy="573" r="5" fill="green" stroke="none" /><circle cx="1687" cy="959" r="5" fill="green" stroke="none" /><circle cx="563" cy="885" r="5" fill="green" stroke="none" /><circle cx="1003" cy="1029" r="5" fill="green" stroke="none" /><circle cx="1239" cy="470" r="5" fill="green" stroke="none" /><circle cx="986" cy="263" r="5" fill="green" stroke="none" /><circle cx="1884" cy="576" r="5" fill="green" stroke="none" /><circle cx="1685" cy="885" r="5" fill="green" stroke="none" /><circle cx="1563" cy="767" r="5" fill="green" stroke="none" /><circle cx="1491" cy="288" r="5" fill="green" stroke="none" /><circle cx="1899" cy="550" r="5" fill="green" stroke="none" /><circle cx="533" cy="726" r="5" fill="green" stroke="none" /><circle cx="232" cy="445" r="5" fill="green" stroke="none" /><circle cx="351" cy="440" r="5" fill="green" stroke="none" /><circle cx="389" cy="334" r="5" fill="green" stroke="none" /><circle cx="714" cy="135" r="5" fill="green" stroke="none" /><circle cx="312" cy="973" r="5" fill="green" stroke="none" /><circle cx="865" cy="39" r="5" fill="green" stroke="none" /><circle cx="794" cy="53" r="5" fill="green" stroke="none" /><circle cx="281" cy="540" r="5" fill="green" stroke="none" /><circle cx="34" cy="649" r="5" fill="green" stroke="none" /><circle cx="889" cy="196" r="5" fill="green" stroke="none" /><circle cx="555" cy="932" r="5" fill="green" stroke="none" /><circle cx="1270" cy="457" r="5" fill="green" stroke="none" /><circle cx="607" cy="302" r="5" fill="green" stroke="none" /><circle cx="123" cy="272" r="5" fill="green" stroke="none" /><circle cx="1288" cy="307" r="5" fill="green" stroke="none" /><circle cx="14" cy="705" r="5" fill="green" stroke="none" /><circle cx="843" cy="192" r="5" fill="green" stroke="none" /><circle cx="1640" cy="737" r="5" fill="green" stroke="none" /><circle cx="2104" cy="578" r="5" fill="green" stroke="none" /><circle cx="426" cy="342" r="5" fill="green" stroke="none" /><circle cx="1781" cy="162" r="5" fill="green" stroke="none" /><circle cx="335" cy="712" r="5" fill="green" stroke="none" /><circle cx="545" cy="29" r="5" fill="green" stroke="none" /><circle cx="1954" cy="1041" r="5" fill="green" stroke="none" /><circle cx="500" cy="739" r="5" fill="green" stroke="none" /><circle cx="2023" cy="693" r="5" fill="green" stroke="none" /><circle cx="2122" cy="187" r="5" fill="green" stroke="none" /><circle cx="492" cy="1005" r="5" fill="green" stroke="none" /><circle cx="1945" cy="503" r="5" fill="green" stroke="none" /><circle cx="1019" cy="582" r="5" fill="green" stroke="none" /><circle cx="764" cy="15" r="5" fill="green" stroke="none" /><circle cx="560" cy="513" r="5" fill="green" stroke="none" /><circle cx="1289" cy="512" r="5" fill="green" stroke="none" /><circle cx="656" cy="631" r="5" fill="green" stroke="none" /><circle cx="2087" cy="963" r="5" fill="green" stroke="none" /><circle cx="1943" cy="404" r="5" fill="green" stroke="none" /><circle cx="1145" cy="481" r="5" fill="green" stroke="none" /><circle cx="1644" cy="727" r="5" fill="green" stroke="none" /><circle cx="307" cy="464" r="5" fill="green" stroke="none" /><circle cx="1733" cy="473" r="5" fill="green" stroke="none" /><circle cx="1440" cy="1029" r="5" fill="green" stroke="none" /><circle cx="1400" cy="650" r="5" fill="green" stroke="none" /><circle cx="735" cy="814" r="5" fill="green" stroke="none" /><circle cx="1314" cy="138" r="5" fill="green" stroke="none" /><circle cx="451" cy="272" r="5" fill="green" stroke="none" /><circle cx="1172" cy="240" r="5" fill="green" stroke="none" /><circle cx="482" cy="82" r="5" fill="green" stroke="none" /><circle cx="922" cy="106" r="5" fill="green" stroke="none" /><circle cx="1573" cy="830" r="5" fill="green" stroke="none" /><circle cx="1072" cy="192" r="5" fill="green" stroke="none" /><circle cx="1393" cy="189" r="5" fill="green" stroke="none" /><circle cx="1305" cy="171" r="5" fill="green" stroke="none" /><circle cx="430" cy="80" r="5" fill="green" stroke="none" /><circle cx="1635" cy="678" r="5" fill="green" stroke="none" /><circle cx="519" cy="528" r="5" fill="green" stroke="none" /><circle cx="477" cy="486" r="5" fill="green" stroke="none" /><circle cx="1574" cy="650" r="5" fill="green" stroke="none" /><circle cx="1569" cy="877" r="5" fill="green" stroke="none" /><circle cx="380" cy="175" r="5" fill="green" stroke="none" /><circle cx="1381" cy="80" r="5" fill="green" stroke="none" /><circle cx="455" cy="926" r="5" fill="green" stroke="none" /><circle cx="53" cy="214" r="5" fill="green" stroke="none" /><circle cx="887" cy="220" r="5" fill="green" stroke="none" /><circle cx="645" cy="564" r="5" fill="green" stroke="none" /><circle cx="1430" cy="810" r="5" fill="green" stroke="none" /><circle cx="1435" cy="871" r="5" fill="green" stroke="none" /><circle cx="80" cy="860" r="5" fill="green" stroke="none" /><circle cx="1658" cy="757" r="5" fill="green" stroke="none" /><circle cx="806" cy="56" r="5" fill="green" stroke="none" /><circle cx="985" cy="103" r="5" fill="green" stroke="none" /><circle cx="1350" cy="970" r="5" fill="green" stroke="none" /><circle cx="856" cy="489" r="5" fill="green" stroke="none" /><circle cx="122" cy="839" r="5" fill="green" stroke="none" /><circle cx="578" cy="565" r="5" fill="green" stroke="none" /><circle cx="440" cy="580" r="5" fill="green" stroke="none" /><circle cx="1559" cy="1030" r="5" fill="green" stroke="none" /><circle cx="1755" cy="740" r="5" fill="green" stroke="none" /><circle cx="1978" cy="517" r="5" fill="green" stroke="none" /><circle cx="963" cy="769" r="5" fill="green" stroke="none" /><circle cx="516" cy="975" r="5" fill="green" stroke="none" /><circle cx="1929" cy="67" r="5" fill="green" stroke="none" /><circle cx="1784" cy="556" r="5" fill="green" stroke="none" /><circle cx="1468" cy="417" r="5" fill="green" stroke="none" /><circle cx="2079" cy="655" r="5" fill="green" stroke="none" /><circle cx="1725" cy="555" r="5" fill="green" stroke="none" /><circle cx="300" cy="587" r="5" fill="green" stroke="none" /><circle cx="1194" cy="351" r="5" fill="green" stroke="none" /><circle cx="1576" cy="256" r="5" fill="green" stroke="none" /><circle cx="1138" cy="523" r="5" fill="green" stroke="none" /><circle cx="101" cy="720" r="5" fill="green" stroke="none" /><circle cx="893" cy="144" r="5" fill="green" stroke="none" /><circle cx="2132" cy="295" r="5" fill="green" stroke="none" /><circle cx="1656" cy="400" r="5" fill="green" stroke="none" /><circle cx="152" cy="943" r="5" fill="green" stroke="none" /><circle cx="814" cy="521" r="5" fill="green" stroke="none" /><circle cx="755" cy="85" r="5" fill="green" stroke="none" /><circle cx="777" cy="58" r="5" fill="green" stroke="none" /><circle cx="598" cy="1025" r="5" fill="green" stroke="none" /><circle cx="1653" cy="771" r="5" fill="green" stroke="none" /><circle cx="1335" cy="166" r="5" fill="green" stroke="none" /><circle cx="1782" cy="189" r="5" fill="green" stroke="none" /><circle cx="688" cy="80" r="5" fill="green" stroke="none" /><circle cx="1927" cy="501" r="5" fill="green" stroke="none" /><circle cx="1313" cy="648" r="5" fill="green" stroke="none" /><circle cx="1664" cy="103" r="5" fill="green" stroke="none" /><circle cx="671" cy="962" r="5" fill="green" stroke="none" /><circle cx="1453" cy="641" r="5" fill="green" stroke="none" /><circle cx="594" cy="430" r="5" fill="green" stroke="none" /><circle cx="524" cy="821" r="5" fill="green" stroke="none" /><circle cx="1381" cy="276" r="5" fill="green" stroke="none" /><circle cx="481" cy="825" r="5" fill="green" stroke="none" /><circle cx="1002" cy="19" r="5" fill="green" stroke="none" /><circle cx="1297" cy="843" r="5" fill="green" stroke="none" /><circle cx="1595" cy="803" r="5" fill="green" stroke="none" /><circle cx="1368" cy="875" r="5" fill="green" stroke="none" /><circle cx="946" cy="776" r="5" fill="green" stroke="none" /><circle cx="728" cy="238" r="5" fill="green" stroke="none" /><circle cx="1598" cy="791" r="5" fill="green" stroke="none" /><circle cx="1976" cy="956" r="5" fill="green" stroke="none" /><circle cx="1383" cy="1019" r="5" fill="green" stroke="none" /><circle cx="40" cy="24" r="5" fill="green" stroke="none" /><circle cx="510" cy="970" r="5" fill="green" stroke="none" /><circle cx="1013" cy="350" r="5" fill="green" stroke="none" /><circle cx="1909" cy="385" r="5" fill="green" stroke="none" /><circle cx="1493" cy="150" r="5" fill="green" stroke="none" /><circle cx="2107" cy="280" r="5" fill="green" stroke="none" /><circle cx="1210" cy="125" r="5" fill="green" stroke="none" /><circle cx="2013" cy="966" r="5" fill="green" stroke="none" /><circle cx="1528" cy="487" r="5" fill="green" stroke="none" /><circle cx="576" cy="928" r="5" fill="green" stroke="none" /><circle cx="1623" cy="62" r="5" fill="green" stroke="none" /><circle cx="656" cy="956" r="5" fill="green" stroke="none" /><circle cx="2039" cy="864" r="5" fill="green" stroke="none" /><circle cx="2035" cy="929" r="5" fill="green" stroke="none" /><circle cx="972" cy="583" r="5" fill="green" stroke="none" /><circle cx="2014" cy="445" r="5" fill="green" stroke="none" /><circle cx="187" cy="207" r="5" fill="green" stroke="none" /><circle cx="39" cy="93" r="5" fill="green" stroke="none" /><circle cx="98" cy="695" r="5" fill="green" stroke="none" /><circle cx="1701" cy="181" r="5" fill="green" stroke="none" /><circle cx="266" cy="926" r="5" fill="green" stroke="none" /><circle cx="1639" cy="963" r="5" fill="green" stroke="none" /><circle cx="33" cy="397" r="5" fill="green" stroke="none" /><circle cx="611" cy="650" r="5" fill="green" stroke="none" /><circle cx="1783" cy="942" r="5" fill="green" stroke="none" /><circle cx="1907" cy="984" r="5" fill="green" stroke="none" /><circle cx="2135" cy="856" r="5" fill="green" stroke="none" /><circle cx="1901" cy="661" r="5" fill="green" stroke="none" /><circle cx="1746" cy="709" r="5" fill="green" stroke="none" /><circle cx="1240" cy="1023" r="5" fill="green" stroke="none" /><circle cx="1447" cy="276" r="5" fill="green" stroke="none" /><circle cx="445" cy="848" r="5" fill="green" stroke="none" /><circle cx="1457" cy="94" r="5" fill="green" stroke="none" /><circle cx="112" cy="595" r="5" fill="green" stroke="none" /><circle cx="982" cy="957" r="5" fill="green" stroke="none" /><circle cx="879" cy="810" r="5" fill="green" stroke="none" /><circle cx="843" cy="965" r="5" fill="green" stroke="none" /><circle cx="1688" cy="532" r="5" fill="green" stroke="none" /><circle cx="1281" cy="444" r="5" fill="green" stroke="none" /><circle cx="686" cy="335" r="5" fill="green" stroke="none" /><circle cx="142" cy="91" r="5" fill="green" stroke="none" /><circle cx="2104" cy="262" r="5" fill="green" stroke="none" /><circle cx="1724" cy="515" r="5" fill="green" stroke="none" /><circle cx="229" cy="884" r="5" fill="green" stroke="none" /><circle cx="1403" cy="882" r="5" fill="green" stroke="none" /><circle cx="747" cy="449" r="5" fill="green" stroke="none" /><circle cx="2100" cy="508" r="5" fill="green" stroke="none" /><circle cx="2113" cy="36" r="5" fill="green" stroke="none" /><circle cx="1585" cy="126" r="5" fill="green" stroke="none" /><circle cx="1362" cy="326" r="5" fill="green" stroke="none" /><circle cx="266" cy="446" r="5" fill="green" stroke="none" /><circle cx="554" cy="123" r="5" fill="green" stroke="none" /><circle cx="936" cy="133" r="5" fill="green" stroke="none" /><circle cx="1071" cy="73" r="5" fill="green" stroke="none" /><circle cx="1903" cy="605" r="5" fill="green" stroke="none" /><circle cx="2038" cy="273" r="5" fill="green" stroke="none" /><circle cx="197" cy="662" r="5" fill="green" stroke="none" /><circle cx="255" cy="549" r="5" fill="green" stroke="none" /><circle cx="1879" cy="507" r="5" fill="green" stroke="none" /><circle cx="391" cy="2" r="5" fill="green" stroke="none" /><circle cx="73" cy="228" r="5" fill="green" stroke="none" /><circle cx="488" cy="183" r="5" fill="green" stroke="none" /><circle cx="1536" cy="871" r="5" fill="green" stroke="none" /><circle cx="894" cy="566" r="5" fill="green" stroke="none" /><circle cx="2106" cy="8" r="5" fill="green" stroke="none" /><circle cx="1805" cy="235" r="5" fill="green" stroke="none" /><circle cx="377" cy="89" r="5" fill="green" stroke="none" /><circle cx="445" cy="457" r="5" fill="green" stroke="none" /><circle cx="1565" cy="24" r="5" fill="green" stroke="none" /><circle cx="1157" cy="243" r="5" fill="green" stroke="none" /><circle cx="512" cy="172" r="5" fill="green" stroke="none" /><circle cx="2064" cy="996" r="5" fill="green" stroke="none" /><circle cx="206" cy="895" r="5" fill="green" stroke="none" /><circle cx="149" cy="216" r="5" fill="green" stroke="none" /><circle cx="1972" cy="561" r="5" fill="green" stroke="none" /><circle cx="467" cy="742" r="5" fill="green" stroke="none" /><circle cx="1520" cy="713" r="5" fill="green" stroke="none" /><circle cx="1405" cy="5" r="5" fill="green" stroke="none" /><circle cx="634" cy="187" r="5" fill="green" stroke="none" /><circle cx="1109" cy="221" r="5" fill="green" stroke="none" /><circle cx="1958" cy="956" r="5" fill="green" stroke="none" /><circle cx="1034" cy="1041" r="5" fill="green" stroke="none" /><circle cx="2018" cy="764" r="5" fill="green" stroke="none" /><circle cx="857" cy="591" r="5" fill="green" stroke="none" /><circle cx="1724" cy="281" r="5" fill="green" stroke="none" /><circle cx="886" cy="1001" r="5" fill="green" stroke="none" /><circle cx="94" cy="554" r="5" fill="green" stroke="none" /><circle cx="687" cy="827" r="5" fill="green" stroke="none" /><circle cx="1187" cy="79" r="5" fill="green" stroke="none" /><circle cx="497" cy="945" r="5" fill="green" stroke="none" /><circle cx="904" cy="943" r="5" fill="green" stroke="none" /><circle cx="221" cy="616" r="5" fill="green" stroke="none" /><circle cx="1887" cy="847" r="5" fill="green" stroke="none" /><circle cx="1841" cy="384" r="5" fill="green" stroke="none" /><circle cx="1011" cy="549" r="5" fill="green" stroke="none" /><circle cx="264" cy="313" r="5" fill="green" stroke="none" /><circle cx="319" cy="480" r="5" fill="green" stroke="none" /><circle cx="1469" cy="362" r="5" fill="green" stroke="none" /><circle cx="148" cy="109" r="5" fill="green" stroke="none" /><circle cx="469" cy="404" r="5" fill="green" stroke="none" /><circle cx="1324" cy="500" r="5" fill="green" stroke="none" /><circle cx="102" cy="734" r="5" fill="green" stroke="none" /><circle cx="109" cy="22" r="5" fill="green" stroke="none" /><circle cx="1456" cy="770" r="5" fill="green" stroke="none" /><circle cx="441" cy="72" r="5" fill="green" stroke="none" /><circle cx="607" cy="436" r="5" fill="green" stroke="none" /><circle cx="674" cy="851" r="5" fill="green" stroke="none" /><circle cx="442" cy="57" r="5" fill="green" stroke="none" /><circle cx="104" cy="938" r="5" fill="green" stroke="none" /><circle cx="1488" cy="345" r="5" fill="green" stroke="none" /><circle cx="1917" cy="158" r="5" fill="green" stroke="none" /><circle cx="98" cy="433" r="5" fill="green" stroke="none" /><circle cx="166" cy="956" r="5" fill="green" stroke="none" /><circle cx="1316" cy="1000" r="5" fill="green" stroke="none" /><circle cx="1340" cy="770" r="5" fill="green" stroke="none" /><circle cx="1557" cy="833" r="5" fill="green" stroke="none" /><circle cx="1360" cy="620" r="5" fill="green" stroke="none" /><circle cx="191" cy="476" r="5" fill="green" stroke="none" /><circle cx="740" cy="632" r="5" fill="green" stroke="none" /><circle cx="1279" cy="214" r="5" fill="green" stroke="none" /><circle cx="2005" cy="623" r="5" fill="green" stroke="none" /><circle cx="1217" cy="125" r="5" fill="green" stroke="none" /><circle cx="967" cy="855" r="5" fill="green" stroke="none" /><circle cx="594" cy="932" r="5" fill="green" stroke="none" /><circle cx="973" cy="185" r="5" fill="green" stroke="none" /><circle cx="820" cy="870" r="5" fill="green" stroke="none" /><circle cx="1000" cy="171" r="5" fill="green" stroke="none" /><circle cx="2038" cy="373" r="5" fill="green" stroke="none" /><circle cx="771" cy="188" r="5" fill="green" stroke="none" /><circle cx="1896" cy="619" r="5" fill="green" stroke="none" /><circle cx="1218" cy="359" r="5" fill="green" stroke="none" /><circle cx="1742" cy="82" r="5" fill="green" stroke="none" /><circle cx="1548" cy="770" r="5" fill="green" stroke="none" /><circle cx="710" cy="729" r="5" fill="green" stroke="none" /><circle cx="267" cy="50" r="5" fill="green" stroke="none" /><circle cx="1952" cy="223" r="5" fill="green" stroke="none" /><circle cx="1312" cy="878" r="5" fill="green" stroke="none" /><circle cx="574" cy="612" r="5" fill="green" stroke="none" /><circle cx="1584" cy="715" r="5" fill="green" stroke="none" /><circle cx="239" cy="268" r="5" fill="green" stroke="none" /><circle cx="698" cy="937" r="5" fill="green" stroke="none" /><circle cx="1741" cy="780" r="5" fill="green" stroke="none" /><circle cx="664" cy="585" r="5" fill="green" stroke="none" /><circle cx="1824" cy="67" r="5" fill="green" stroke="none" /><circle cx="1702" cy="616" r="5" fill="green" stroke="none" /><circle cx="1874" cy="677" r="5" fill="green" stroke="none" /><circle cx="1252" cy="154" r="5" fill="green" stroke="none" /><circle cx="1347" cy="894" r="5" fill="green" stroke="none" /><circle cx="2000" cy="246" r="5" fill="green" stroke="none" /><circle cx="1250" cy="262" r="5" fill="green" stroke="none" /><circle cx="88" cy="990" r="5" fill="green" stroke="none" /><circle cx="1704" cy="1002" r="5" fill="green" stroke="none" /><circle cx="864" cy="159" r="5" fill="green" stroke="none" /><circle cx="1524" cy="103" r="5" fill="green" stroke="none" /><circle cx="1299" cy="475" r="5" fill="green" stroke="none" /><circle cx="2051" cy="1032" r="5" fill="green" stroke="none" /><circle cx="1828" cy="175" r="5" fill="green" stroke="none" /><circle cx="606" cy="617" r="5" fill="green" stroke="none" /><circle cx="1627" cy="549" r="5" fill="green" stroke="none" /><circle cx="712" cy="850" r="5" fill="green" stroke="none" /><circle cx="248" cy="926" r="5" fill="green" stroke="none" /><circle cx="50" cy="417" r="5" fill="green" stroke="none" /><circle cx="209" cy="169" r="5" fill="green" stroke="none" /><circle cx="1790" cy="265" r="5" fill="green" stroke="none" /><circle cx="1413" cy="1042" r="5" fill="green" stroke="none" /><circle cx="736" cy="403" r="5" fill="green" stroke="none" /><circle cx="710" cy="240" r="5" fill="green" stroke="none" /><circle cx="36" cy="282" r="5" fill="green" stroke="none" /><circle cx="1170" cy="105" r="5" fill="green" stroke="none" /><circle cx="447" cy="625" r="5" fill="green" stroke="none" /><circle cx="1432" cy="145" r="5" fill="green" stroke="none" /><circle cx="517" cy="905" r="5" fill="green" stroke="none" /><circle cx="940" cy="526" r="5" fill="green" stroke="none" /><circle cx="341" cy="629" r="5" fill="green" stroke="none" /><circle cx="26" cy="564" r="5" fill="green" stroke="none" /><circle cx="1441" cy="139" r="5" fill="green" stroke="none" /><circle cx="1763" cy="777" r="5" fill="green" stroke="none" /><circle cx="1802" cy="975" r="5" fill="green" stroke="none" /><circle cx="743" cy="499" r="5" fill="green" stroke="none" /><circle cx="1444" cy="265" r="5" fill="green" stroke="none" /><circle cx="41" cy="478" r="5" fill="green" stroke="none" /><circle cx="614" cy="977" r="5" fill="green" stroke="none" /><circle cx="1854" cy="184" r="5" fill="green" stroke="none" /><circle cx="178" cy="497" r="5" fill="green" stroke="none" /><circle cx="410" cy="1039" r="5" fill="green" stroke="none" /><circle cx="1868" cy="915" r="5" fill="green" stroke="none" /><circle cx="2075" cy="396" r="5" fill="green" stroke="none" /><circle cx="1166" cy="161" r="5" fill="green" stroke="none" /><circle cx="1602" cy="916" r="5" fill="green" stroke="none" /><circle cx="1183" cy="27" r="5" fill="green" stroke="none" /><circle cx="1207" cy="313" r="5" fill="green" stroke="none" /><circle cx="1937" cy="609" r="5" fill="green" stroke="none" /><circle cx="638" cy="462" r="5" fill="green" stroke="none" /><circle cx="317" cy="334" r="5" fill="green" stroke="none" /><circle cx="694" cy="292" r="5" fill="green" stroke="none" /><circle cx="1709" cy="372" r="5" fill="green" stroke="none" /><circle cx="671" cy="460" r="5" fill="green" stroke="none" /><circle cx="1552" cy="208" r="5" fill="green" stroke="none" /><circle cx="1767" cy="354" r="5" fill="green" stroke="none" /><circle cx="661" cy="522" r="5" fill="green" stroke="none" /><circle cx="162" cy="635" r="5" fill="green" stroke="none" /><circle cx="1224" cy="999" r="5" fill="green" stroke="none" /><circle cx="2040" cy="702" r="5" fill="green" stroke="none" /><circle cx="1719" cy="757" r="5" fill="green" stroke="none" /><circle cx="1094" cy="176" r="5" fill="green" stroke="none" /><circle cx="195" cy="360" r="5" fill="green" stroke="none" /><circle cx="2110" cy="13" r="5" fill="green" stroke="none" /><circle cx="1401" cy="777" r="5" fill="green" stroke="none" /><circle cx="1397" cy="528" r="5" fill="green" stroke="none" /><circle cx="1969" cy="208" r="5" fill="green" stroke="none" /><circle cx="1439" cy="225" r="5" fill="green" stroke="none" /><circle cx="1603" cy="623" r="5" fill="green" stroke="none" /><circle cx="337" cy="859" r="5" fill="green" stroke="none" /><circle cx="1479" cy="446" r="5" fill="green" stroke="none" /><circle cx="354" cy="493" r="5" fill="green" stroke="none" /><circle cx="1682" cy="970" r="5" fill="green" stroke="none" /><circle cx="1857" cy="240" r="5" fill="green" stroke="none" /><circle cx="139" cy="1005" r="5" fill="green" stroke="none" /><circle cx="1099" cy="498" r="5" fill="green" stroke="none" /><circle cx="861" cy="82" r="5" fill="green" stroke="none" /><circle cx="217" cy="709" r="5" fill="green" stroke="none" /><circle cx="1890" cy="532" r="5" fill="green" stroke="none" /><circle cx="819" cy="963" r="5" fill="green" stroke="none" /><circle cx="476" cy="346" r="5" fill="green" stroke="none" /><circle cx="26" cy="235" r="5" fill="green" stroke="none" /><circle cx="445" cy="520" r="5" fill="green" stroke="none" /><circle cx="1085" cy="75" r="5" fill="green" stroke="none" /><circle cx="664" cy="508" r="5" fill="green" stroke="none" /><circle cx="2046" cy="277" r="5" fill="green" stroke="none" /><circle cx="1477" cy="62" r="5" fill="green" stroke="none" /><circle cx="1945" cy="678" r="5" fill="green" stroke="none" /><circle cx="46" cy="620" r="5" fill="green" stroke="none" /><circle cx="1839" cy="349" r="5" fill="green" stroke="none" /><circle cx="472" cy="559" r="5" fill="green" stroke="none" /><circle cx="1827" cy="45" r="5" fill="green" stroke="none" /><circle cx="1900" cy="908" r="5" fill="green" stroke="none" /><circle cx="17" cy="400" r="5" fill="green" stroke="none" /><circle cx="1967" cy="627" r="5" fill="green" stroke="none" /><circle cx="2022" cy="622" r="5" fill="green" stroke="none" /><circle cx="1942" cy="1044" r="5" fill="green" stroke="none" /><circle cx="2069" cy="796" r="5" fill="green" stroke="none" /><circle cx="256" cy="423" r="5" fill="green" stroke="none" /><circle cx="1971" cy="820" r="5" fill="green" stroke="none" /><circle cx="409" cy="178" r="5" fill="green" stroke="none" /><circle cx="774" cy="589" r="5" fill="green" stroke="none" /><circle cx="1340" cy="231" r="5" fill="green" stroke="none" /><circle cx="643" cy="571" r="5" fill="green" stroke="none" /><circle cx="900" cy="872" r="5" fill="green" stroke="none" /><circle cx="1721" cy="627" r="5" fill="green" stroke="none" /><circle cx="773" cy="465" r="5" fill="green" stroke="none" /><circle cx="55" cy="387" r="5" fill="green" stroke="none" /><circle cx="1415" cy="469" r="5" fill="green" stroke="none" /><circle cx="1634" cy="926" r="5" fill="green" stroke="none" /><circle cx="2005" cy="716" r="5" fill="green" stroke="none" /><circle cx="1841" cy="925" r="5" fill="green" stroke="none" /><circle cx="140" cy="242" r="5" fill="green" stroke="none" /><circle cx="667" cy="283" r="5" fill="green" stroke="none" /><circle cx="1625" cy="1039" r="5" fill="green" stroke="none" /><circle cx="727" cy="285" r="5" fill="green" stroke="none" /><circle cx="1313" cy="930" r="5" fill="green" stroke="none" /><circle cx="1755" cy="277" r="5" fill="green" stroke="none" /><circle cx="418" cy="323" r="5" fill="green" stroke="none" /><circle cx="386" cy="565" r="5" fill="green" stroke="none" /><circle cx="392" cy="693" r="5" fill="green" stroke="none" /><circle cx="1690" cy="855" r="5" fill="green" stroke="none" /><circle cx="1297" cy="106" r="5" fill="green" stroke="none" /><circle cx="76" cy="948" r="5" fill="green" stroke="none" /><circle cx="784" cy="506" r="5" fill="green" stroke="none" /><circle cx="1427" cy="334" r="5" fill="green" stroke="none" /><circle cx="1520" cy="62" r="5" fill="green" stroke="none" /><circle cx="753" cy="953" r="5" fill="green" stroke="none" /><circle cx="51" cy="21" r="5" fill="green" stroke="none" /><circle cx="682" cy="734" r="5" fill="green" stroke="none" /><circle cx="531" cy="925" r="5" fill="green" stroke="none" /><circle cx="1286" cy="60" r="5" fill="green" stroke="none" /><circle cx="832" cy="988" r="5" fill="green" stroke="none" /><circle cx="266" cy="847" r="5" fill="green" stroke="none" /><circle cx="326" cy="70" r="5" fill="green" stroke="none" /><circle cx="63" cy="790" r="5" fill="green" stroke="none" /><circle cx="631" cy="347" r="5" fill="green" stroke="none" /><circle cx="1057" cy="102" r="5" fill="green" stroke="none" /><circle cx="1679" cy="818" r="5" fill="green" stroke="none" /><circle cx="490" cy="866" r="5" fill="green" stroke="none" /><circle cx="1678" cy="806" r="5" fill="green" stroke="none" /><circle cx="743" cy="966" r="5" fill="green" stroke="none" /><circle cx="153" cy="958" r="5" fill="green" stroke="none" /><circle cx="1908" cy="282" r="5" fill="green" stroke="none" /><circle cx="1015" cy="1002" r="5" fill="green" stroke="none" /><circle cx="871" cy="581" r="5" fill="green" stroke="none" /><circle cx="537" cy="0" r="5" fill="green" stroke="none" /><circle cx="1332" cy="132" r="5" fill="green" stroke="none" /><circle cx="2156" cy="401" r="5" fill="green" stroke="none" /><circle cx="950" cy="558" r="5" fill="green" stroke="none" /><circle cx="1364" cy="265" r="5" fill="green" stroke="none" /><circle cx="1737" cy="962" r="5" fill="green" stroke="none" /><circle cx="1135" cy="317" r="5" fill="green" stroke="none" /><circle cx="643" cy="440" r="5" fill="green" stroke="none" /><circle cx="1297" cy="387" r="5" fill="green" stroke="none" /><circle cx="1936" cy="71" r="5" fill="green" stroke="none" /><circle cx="1671" cy="468" r="5" fill="green" stroke="none" /><circle cx="586" cy="268" r="5" fill="green" stroke="none" /><circle cx="439" cy="899" r="5" fill="green" stroke="none" /><circle cx="1093" cy="409" r="5" fill="green" stroke="none" /><circle cx="2011" cy="642" r="5" fill="green" stroke="none" /><circle cx="732" cy="170" r="5" fill="green" stroke="none" /><circle cx="2100" cy="768" r="5" fill="green" stroke="none" /><circle cx="939" cy="282" r="5" fill="green" stroke="none" /><circle cx="184" cy="287" r="5" fill="green" stroke="none" /><circle cx="1227" cy="95" r="5" fill="green" stroke="none" /><circle cx="2149" cy="308" r="5" fill="green" stroke="none" /><circle cx="1864" cy="942" r="5" fill="green" stroke="none" /><circle cx="439" cy="503" r="5" fill="green" stroke="none" /><circle cx="1921" cy="1011" r="5" fill="green" stroke="none" /><circle cx="1165" cy="283" r="5" fill="green" stroke="none" /><circle cx="1119" cy="147" r="5" fill="green" stroke="none" /><circle cx="611" cy="647" r="5" fill="green" stroke="none" /><circle cx="1842" cy="974" r="5" fill="green" stroke="none" /><circle cx="2013" cy="323" r="5" fill="green" stroke="none" /><circle cx="1924" cy="721" r="5" fill="green" stroke="none" /><circle cx="63" cy="156" r="5" fill="green" stroke="none" /><circle cx="1857" cy="626" r="5" fill="green" stroke="none" /><circle cx="691" cy="738" r="5" fill="green" stroke="none" /><circle cx="298" cy="838" r="5" fill="green" stroke="none" /><circle cx="995" cy="566" r="5" fill="green" stroke="none" /><circle cx="1820" cy="485" r="5" fill="green" stroke="none" /><circle cx="179" cy="209" r="5" fill="green" stroke="none" /><circle cx="358" cy="305" r="5" fill="green" stroke="none" /><circle cx="1963" cy="382" r="5" fill="green" stroke="none" /><circle cx="292" cy="736" r="5" fill="green" stroke="none" /><circle cx="22" cy="459" r="5" fill="green" stroke="none" /><circle cx="1967" cy="216" r="5" fill="green" stroke="none" /><circle cx="882" cy="666" r="5" fill="green" stroke="none" /><circle cx="1461" cy="846" r="5" fill="green" stroke="none" /><circle cx="1671" cy="490" r="5" fill="green" stroke="none" /><circle cx="2012" cy="136" r="5" fill="green" stroke="none" /><circle cx="1755" cy="780" r="5" fill="green" stroke="none" /><circle cx="126" cy="355" r="5" fill="green" stroke="none" /><circle cx="2099" cy="830" r="5" fill="green" stroke="none" /><circle cx="1550" cy="754" r="5" fill="green" stroke="none" /><circle cx="1398" cy="1026" r="5" fill="green" stroke="none" /><circle cx="772" cy="811" r="5" fill="green" stroke="none" /><circle cx="1867" cy="686" r="5" fill="green" stroke="none" /><circle cx="962" cy="699" r="5" fill="green" stroke="none" /><circle cx="316" cy="641" r="5" fill="green" stroke="none" /><circle cx="1423" cy="987" r="5" fill="green" stroke="none" /><circle cx="610" cy="162" r="5" fill="green" stroke="none" /><circle cx="2086" cy="742" r="5" fill="green" stroke="none" /></svg>