<svg viewBox="0 0 1000 1000" xmlns="http://www.w3.org/2000/svg"><rect x="0" y="0" width="1000" height="1000" fill="lightyellow" stroke="none "/><rect x="529" y="621" width="148" height="169" fill="none" stroke="none "/><circle cx="663" cy="171" r="5" fill="green" stroke="none" /><circle cx="410" cy="475" r="5" fill="green" stroke="none" /><circle cx="66" cy="302" r="5" fill="green" stroke="none" /><circle cx="993" cy="163" r="5" fill="green" stroke="none" /><circle cx="255" cy="807" r="5" fill="green" stroke="none" /><circle cx="235" cy="475" r="5" fill="green" stroke="none" /><circle cx="700" cy="739" r="5" fill="green" stroke="none" /><circle cx="955" cy="400" r="5" fill="green" stroke="none" /><circle cx="396" cy="155" r="5" fill="green" stroke="none" /><circle cx="806" cy="40" r="5" fill="green" stroke="none" /><circle cx="337" cy="468" r="5" fill="green" stroke="none" /><circle cx="8" cy="235" r="5" fill="green" stroke="none" /><circle cx="924" cy="174" r="5" fill="green" stroke="none" /><circle cx="979" cy="344" r="5" fill="green" stroke="none" /><circle cx="789" cy="535" r="5" fill="green" stroke="none" /><circle cx="705" cy="632" r="5" fill="green" stroke="none" /><circle cx="934" cy="0" r="5" fill="green" stroke="none" /><circle cx="323" cy="592" r="5" fill="green" stroke="none" /><circle cx="979" cy="820" r="5" fill="green" stroke="none" /><circle cx="225" cy="870" r="5" fill="green" stroke="none" /><circle cx="72" cy="223" r="5" fill="green" stroke="none" /><circle cx="59" cy="461" r="5" fill="green" stroke="none" /><circle cx="446" cy="859" r="5" fill="green" stroke="none" /><circle cx="23" cy="154" r="5" fill="green" stroke="none" /><circle cx="540" cy="799" r="5" fill="green" stroke="none" /><circle cx="829" cy="589" r="5" fill="green" stroke="none" /><circle cx="157" cy="725" r="5" fill="green" stroke="none" /><circle cx="401" cy="74" r="5" fill="green" stroke="none" /><circle cx="930" cy="548" r="5" fill="green" stroke="none" /><circle cx="93" cy="402" r="5" fill="green" stroke="none" /><circle cx="868" cy="436" r="5" fill="green" stroke="none" /><circle cx="764" cy="638" r="5" fill="green" stroke="none" /><circle cx="812" cy="957" r="5" fill="green" stroke="none" /><circle cx="456" cy="738" r="5" fill="green" stroke="none" /><circle cx="110" cy="99" r="5" fill="green" stroke="none" /><circle cx="720" cy="255" r="5" fill="green" stroke="none" /><circle cx="402" cy="743" r="5" fill="green" stroke="none" /><circle cx="735" cy="871" r="5" fill="green" stroke="none" /><circle cx="421" cy="301" r="5" fill="green" stroke="none" /><circle cx="226" cy="733" r="5" fill="green" stroke="none" /><circle cx="843" cy="497" r="5" fill="green" stroke="none" /><circle cx="15" cy="588" r="5" fill="green" stroke="none" /><circle cx="632" cy="811" r="5" fill="green" stroke="none" /><circle cx="823" cy="187" r="5" fill="green" stroke="none" /><circle cx="366" cy="728" r="5" fill="green" stroke="none" /><circle cx="706" cy="15" r="5" fill="green" stroke="none" /><circle cx="440" cy="107" r="5" fill="green" stroke="none" /><circle cx="470" cy="685" r="5" fill="green" stroke="none" /><circle cx="593" cy="851" r="5" fill="green" stroke="none" /><circle cx="836" cy="145" r="5" fill="green" stroke="none" /><circle cx="422" cy="557" r="5" fill="green" stroke="none" /><circle cx="992" cy="789" r="5" fill="green" stroke="none" /><circle cx="464" cy="118" r="5" fill="green" stroke="none" /><circle cx="369" cy="441" r="5" fill="green" stroke="none" /><circle cx="726" cy="482" r="5" fill="green" stroke="none" /><circle cx="161" cy="390" r="5" fill="green" stroke="none" /><circle cx="840" cy="658" r="5" fill="green" stroke="none" /><circle cx="792" cy="124" r="5" fill="green" stroke="none" /><circle cx="107" cy="953" r="5" fill="green" stroke="none" /><circle cx="31" cy="612" r="5" fill="green" stroke="none" /><circle cx="986" cy="390" r="5" fill="green" stroke="none" /><circle cx="548" cy="380" r="5" fill="green" stroke="none" /><circle cx="366" cy="114" r="5" fill="green" stroke="none" /><circle cx="783" cy="417" r="5" fill="green" stroke="none" /><circle cx="216" cy="718" r="5" fill="green" stroke="none" /><circle cx="907" cy="629" r="5" fill="green" stroke="none" /><circle cx="70" cy="112" r="5" fill="green" stroke="none" /><circle cx="240" cy="111" r="5" fill="green" stroke="none" /><circle cx="57" cy="659" r="5" fill="green" stroke="none" /><circle cx="937" cy="503" r="5" fill="green" stroke="none" /><circle cx="964" cy="981" r="5" fill="green" stroke="none" /><circle cx="538" cy="426" r="5" fill="green" stroke="none" /><circle cx="670" cy="117" r="5" fill="green" stroke="none" /><circle cx="412" cy="910" r="5" fill="green" stroke="none" /><circle cx="648" cy="167" r="5" fill="green" stroke="none" /><circle cx="693" cy="663" r="5" fill="green" stroke="none" /><circle cx="936" cy="384" r="5" fill="green" stroke="none" /><circle cx="922" cy="425" r="5" fill="green" stroke="none" /><circle cx="706" cy="650" r="5" fill="green" stroke="none" /><circle cx="47" cy="452" r="5" fill="green" stroke="none" /><circle cx="249" cy="5" r="5" fill="green" stroke="none" /><circle cx="13" cy="437" r="5" fill="green" stroke="none" /><circle cx="997" cy="446" r="5" fill="green" stroke="none" /><circle cx="353" cy="610" r="5" fill="green" stroke="none" /><circle cx="367" cy="667" r="5" fill="green" stroke="none" /><circle cx="24" cy="855" r="5" fill="green" stroke="none" /><circle cx="774" cy="574" r="5" fill="green" stroke="none" /><circle cx="544" cy="35" r="5" fill="green" stroke="none" /><circle cx="365" cy="990" r="5" fill="green" stroke="none" /><circle cx="255" cy="91" r="5" fill="green" stroke="none" /><circle cx="5" cy="782" r="5" fill="green" stroke="none" /><circle cx="200" cy="997" r="5" fill="green" stroke="none" /><circle cx="311" cy="804" r="5" fill="green" stroke="none" /><circle cx="503" cy="312" r="5" fill="green" stroke="none" /><circle cx="745" cy="207" r="5" fill="green" stroke="none" /><circle cx="482" cy="736" r="5" fill="green" stroke="none" /><circle cx="605" cy="491" r="5" fill="green" stroke="none" /><circle cx="687" cy="597" r="5" fill="green" stroke="none" /><circle cx="457" cy="856" r="5" fill="green" stroke="none" /><circle cx="860" cy="126" r="5" fill="green" stroke="none" /></svg>