<svg viewBox="0 0 1000 1000" xmlns="http://www.w3.org/2000/svg"><rect x="0" y="0" width="1000" height="1000" fill="lightyellow" stroke="none "/><rect x="392" y="595" width="256" height="330" fill="none" stroke="none "/><circle cx="873" cy="109" r="5" fill="green" stroke="none" /><circle cx="920" cy="209" r="5" fill="green" stroke="none" /><circle cx="227" cy="694" r="5" fill="green" stroke="none" /><circle cx="955" cy="151" r="5" fill="green" stroke="none" /><circle cx="734" cy="381" r="5" fill="green" stroke="none" /><circle cx="276" cy="457" r="5" fill="green" stroke="none" /><circle cx="561" cy="15" r="5" fill="green" stroke="none" /><circle cx="707" cy="520" r="5" fill="green" stroke="none" /><circle cx="331" cy="727" r="5" fill="green" stroke="none" /><circle cx="560" cy="140" r="5" fill="green" stroke="none" /><circle cx="241" cy="104" r="5" fill="green" stroke="none" /><circle cx="783" cy="603" r="5" fill="green" stroke="none" /><circle cx="179" cy="245" r="5" fill="green" stroke="none" /><circle cx="152" cy="441" r="5" fill="green" stroke="none" /><circle cx="374" cy="746" r="5" fill="green" stroke="none" /><circle cx="73" cy="218" r="5" fill="green" stroke="none" /><circle cx="635" cy="483" r="5" fill="green" stroke="none" /><circle cx="81" cy="155" r="5" fill="green" stroke="none" /><circle cx="77" cy="813" r="5" fill="green" stroke="none" /><circle cx="339" cy="140" r="5" fill="green" stroke="none" /><circle cx="586" cy="379" r="5" fill="green" stroke="none" /><circle cx="169" cy="336" r="5" fill="green" stroke="none" /><circle cx="31" cy="269" r="5" fill="green" stroke="none" /><circle cx="804" cy="619" r="5" fill="green" stroke="none" /><circle cx="129" cy="361" r="5" fill="green" stroke="none" /><circle cx="397" cy="139" r="5" fill="green" stroke="none" /><circle cx="327" cy="445" r="5" fill="green" stroke="none" /><circle cx="525" cy="60" r="5" fill="green" stroke="none" /><circle cx="68" cy="228" r="5" fill="green" stroke="none" /><circle cx="733" cy="434" r="5" fill="green" stroke="none" /><circle cx="943" cy="641" r="5" fill="green" stroke="none" /><circle cx="523" cy="556" r="5" fill="green" stroke="none" /><circle cx="7" cy="26" r="5" fill="green" stroke="none" /><circle cx="890" cy="1" r="5" fill="green" stroke="none" /><circle cx="980" cy="436" r="5" fill="green" stroke="none" /><circle cx="108" cy="228" r="5" fill="green" stroke="none" /><circle cx="711" cy="597" r="5" fill="green" stroke="none" /><circle cx="477" cy="29" r="5" fill="green" stroke="none" /><circle cx="2" cy="451" r="5" fill="green" stroke="none" /><circle cx="301" cy="795" r="5" fill="green" stroke="none" /><circle cx="357" cy="997" r="5" fill="green" stroke="none" /><circle cx="325" cy="867" r="5" fill="green" stroke="none" /><circle cx="576" cy="138" r="5" fill="green" stroke="none" /><circle cx="580" cy="403" r="5" fill="green" stroke="none" /><circle cx="190" cy="775" r="5" fill="green" stroke="none" /><circle cx="480" cy="416" r="5" fill="green" stroke="none" /><circle cx="85" cy="538" r="5" fill="green" stroke="none" /><circle cx="565" cy="121" r="5" fill="green" stroke="none" /><circle cx="830" cy="516" r="5" fill="green" stroke="none" /><circle cx="749" cy="13" r="5" fill="green" stroke="none" /><circle cx="136" cy="477" r="5" fill="green" stroke="none" /><circle cx="52" cy="359" r="5" fill="green" stroke="none" /><circle cx="121" cy="330" r="5" fill="green" stroke="none" /><circle cx="565" cy="250" r="5" fill="green" stroke="none" /><circle cx="757" cy="33" r="5" fill="green" stroke="none" /><circle cx="30" cy="123" r="5" fill="green" stroke="none" /><circle cx="345" cy="236" r="5" fill="green" stroke="none" /><circle cx="889" cy="92" r="5" fill="green" stroke="none" /><circle cx="495" cy="252" r="5" fill="green" stroke="none" /><circle cx="688" cy="694" r="5" fill="green" stroke="none" /><circle cx="958" cy="551" r="5" fill="green" stroke="none" /><circle cx="606" cy="559" r="5" fill="green" stroke="none" /><circle cx="21" cy="762" r="5" fill="green" stroke="none" /><circle cx="734" cy="278" r="5" fill="green" stroke="none" /><circle cx="938" cy="309" r="5" fill="green" stroke="none" /><circle cx="997" cy="275" r="5" fill="green" stroke="none" /><circle cx="447" cy="92" r="5" fill="green" stroke="none" /><circle cx="13" cy="569" r="5" fill="green" stroke="none" /><circle cx="863" cy="785" r="5" fill="green" stroke="none" /><circle cx="33" cy="644" r="5" fill="green" stroke="none" /><circle cx="532" cy="37" r="5" fill="green" stroke="none" /><circle cx="43" cy="48" r="5" fill="green" stroke="none" /><circle cx="57" cy="389" r="5" fill="green" stroke="none" /><circle cx="937" cy="263" r="5" fill="green" stroke="none" /><circle cx="807" cy="328" r="5" fill="green" stroke="none" /><circle cx="829" cy="161" r="5" fill="green" stroke="none" /><circle cx="43" cy="6" r="5" fill="green" stroke="none" /><circle cx="297" cy="392" r="5" fill="green" stroke="none" /><circle cx="383" cy="332" r="5" fill="green" stroke="none" /><circle cx="842" cy="389" r="5" fill="green" stroke="none" /><circle cx="871" cy="942" r="5" fill="green" stroke="none" /><circle cx="849" cy="6" r="5" fill="green" stroke="none" /><circle cx="871" cy="4" r="5" fill="green" stroke="none" /><circle cx="111" cy="819" r="5" fill="green" stroke="none" /><circle cx="47" cy="687" r="5" fill="green" stroke="none" /><circle cx="339" cy="35" r="5" fill="green" stroke="none" /><circle cx="929" cy="212" r="5" fill="green" stroke="none" /><circle cx="338" cy="656" r="5" fill="green" stroke="none" /><circle cx="203" cy="48" r="5" fill="green" stroke="none" /><circle cx="21" cy="809" r="5" fill="green" stroke="none" /><circle cx="185" cy="568" r="5" fill="green" stroke="none" /><circle cx="541" cy="311" r="5" fill="green" stroke="none" /><circle cx="251" cy="485" r="5" fill="green" stroke="none" /><circle cx="204" cy="103" r="5" fill="green" stroke="none" /><circle cx="200" cy="726" r="5" fill="green" stroke="none" /><circle cx="992" cy="376" r="5" fill="green" stroke="none" /><circle cx="198" cy="532" r="5" fill="green" stroke="none" /><circle cx="807" cy="787" r="5" fill="green" stroke="none" /><circle cx="765" cy="767" r="5" fill="green" stroke="none" /><circle cx="347" cy="101" r="5" fill="green" stroke="none" /><circle cx="122" cy="77" r="5" fill="green" stroke="none" /><circle cx="509" cy="28" r="5" fill="green" stroke="none" /><circle cx="143" cy="792" r="5" fill="green" stroke="none" /><circle cx="799" cy="651" r="5" fill="green" stroke="none" /><circle cx="28" cy="920" r="5" fill="green" stroke="none" /><circle cx="985" cy="449" r="5" fill="green" stroke="none" /><circle cx="48" cy="534" r="5" fill="green" stroke="none" /><circle cx="741" cy="455" r="5" fill="green" stroke="none" /><circle cx="965" cy="121" r="5" fill="green" stroke="none" /><circle cx="399" cy="333" r="5" fill="green" stroke="none" /><circle cx="187" cy="829" r="5" fill="green" stroke="none" /><circle cx="381" cy="57" r="5" fill="green" stroke="none" /><circle cx="568" cy="56" r="5" fill="green" stroke="none" /><circle cx="26" cy="75" r="5" fill="green" stroke="none" /><circle cx="276" cy="745" r="5" fill="green" stroke="none" /><circle cx="351" cy="837" r="5" fill="green" stroke="none" /><circle cx="579" cy="201" r="5" fill="green" stroke="none" /><circle cx="903" cy="224" r="5" fill="green" stroke="none" /><circle cx="791" cy="118" r="5" fill="green" stroke="none" /><circle cx="903" cy="731" r="5" fill="green" stroke="none" /><circle cx="457" cy="569" r="5" fill="green" stroke="none" /><circle cx="151" cy="294" r="5" fill="green" stroke="none" /><circle cx="956" cy="654" r="5" fill="green" stroke="none" /><circle cx="919" cy="251" r="5" fill="green" stroke="none" /><circle cx="968" cy="115" r="5" fill="green" stroke="none" /><circle cx="994" cy="986" r="5" fill="green" stroke="none" /><circle cx="984" cy="991" r="5" fill="green" stroke="none" /><circle cx="248" cy="300" r="5" fill="green" stroke="none" /><circle cx="252" cy="730" r="5" fill="green" stroke="none" /><circle cx="166" cy="511" r="5" fill="green" stroke="none" /><circle cx="86" cy="521" r="5" fill="green" stroke="none" /><circle cx="622" cy="156" r="5" fill="green" stroke="none" /><circle cx="884" cy="29" r="5" fill="green" stroke="none" /><circle cx="500" cy="261" r="5" fill="green" stroke="none" /><circle cx="833" cy="732" r="5" fill="green" stroke="none" /><circle cx="59" cy="675" r="5" fill="green" stroke="none" /><circle cx="511" cy="546" r="5" fill="green" stroke="none" /><circle cx="784" cy="740" r="5" fill="green" stroke="none" /><circle cx="44" cy="852" r="5" fill="green" stroke="none" /><circle cx="703" cy="708" r="5" fill="green" stroke="none" /><circle cx="808" cy="884" r="5" fill="green" stroke="none" /><circle cx="466" cy="268" r="5" fill="green" stroke="none" /><circle cx="22" cy="773" r="5" fill="green" stroke="none" /><circle cx="726" cy="686" r="5" fill="green" stroke="none" /><circle cx="147" cy="983" r="5" fill="green" stroke="none" /><circle cx="48" cy="506" r="5" fill="green" stroke="none" /><circle cx="476" cy="438" r="5" fill="green" stroke="none" /><circle cx="692" cy="905" r="5" fill="green" stroke="none" /><circle cx="876" cy="329" r="5" fill="green" stroke="none" /><circle cx="728" cy="346" r="5" fill="green" stroke="none" /><circle cx="847" cy="61" r="5" fill="green" stroke="none" /><circle cx="940" cy="820" r="5" fill="green" stroke="none" /><circle cx="78" cy="693" r="5" fill="green" stroke="none" /><circle cx="36" cy="946" r="5" fill="green" stroke="none" /><circle cx="335" cy="915" r="5" fill="green" stroke="none" /><circle cx="660" cy="536" r="5" fill="green" stroke="none" /><circle cx="852" cy="878" r="5" fill="green" stroke="none" /><circle cx="208" cy="687" r="5" fill="green" stroke="none" /><circle cx="715" cy="462" r="5" fill="green" stroke="none" /><circle cx="612" cy="249" r="5" fill="green" stroke="none" /><circle cx="672" cy="399" r="5" fill="green" stroke="none" /><circle cx="991" cy="663" r="5" fill="green" stroke="none" /><circle cx="389" cy="666" r="5" fill="green" stroke="none" /><circle cx="980" cy="980" r="5" fill="green" stroke="none" /><circle cx="136" cy="538" r="5" fill="green" stroke="none" /><circle cx="607" cy="324" r="5" fill="green" stroke="none" /><circle cx="936" cy="379" r="5" fill="green" stroke="none" /><circle cx="731" cy="229" r="5" fill="green" stroke="none" /><circle cx="173" cy="718" r="5" fill="green" stroke="none" /><circle cx="711" cy="659" r="5" fill="green" stroke="none" /><circle cx="457" cy="455" r="5" fill="green" stroke="none" /><circle cx="933" cy="535" r="5" fill="green" stroke="none" /><circle cx="44" cy="615" r="5" fill="green" stroke="none" /><circle cx="207" cy="714" r="5" fill="green" stroke="none" /><circle cx="831" cy="218" r="5" fill="green" stroke="none" /><circle cx="143" cy="495" r="5" fill="green" stroke="none" /><circle cx="836" cy="331" r="5" fill="green" stroke="none" /><circle cx="202" cy="327" r="5" fill="green" stroke="none" /><circle cx="554" cy="532" r="5" fill="green" stroke="none" /><circle cx="343" cy="105" r="5" fill="green" stroke="none" /><circle cx="823" cy="400" r="5" fill="green" stroke="none" /><circle cx="1" cy="392" r="5" fill="green" stroke="none" /><circle cx="189" cy="822" r="5" fill="green" stroke="none" /><circle cx="606" cy="62" r="5" fill="green" stroke="none" /><circle cx="721" cy="225" r="5" fill="green" stroke="none" /><circle cx="81" cy="848" r="5" fill="green" stroke="none" /><circle cx="952" cy="62" r="5" fill="green" stroke="none" /><circle cx="569" cy="559" r="5" fill="green" stroke="none" /><circle cx="500" cy="951" r="5" fill="green" stroke="none" /><circle cx="272" cy="504" r="5" fill="green" stroke="none" /><circle cx="121" cy="277" r="5" fill="green" stroke="none" /><circle cx="147" cy="426" r="5" fill="green" stroke="none" /><circle cx="203" cy="759" r="5" fill="green" stroke="none" /><circle cx="781" cy="643" r="5" fill="green" stroke="none" /><circle cx="828" cy="458" r="5" fill="green" stroke="none" /><circle cx="576" cy="474" r="5" fill="green" stroke="none" /><circle cx="278" cy="281" r="5" fill="green" stroke="none" /><circle cx="937" cy="423" r="5" fill="green" stroke="none" /><circle cx="44" cy="557" r="5" fill="green" stroke="none" /><circle cx="224" cy="445" r="5" fill="green" stroke="none" /><circle cx="928" cy="279" r="5" fill="green" stroke="none" /><circle cx="52" cy="417" r="5" fill="green" stroke="none" /><circle cx="32" cy="136" r="5" fill="green" stroke="none" /><circle cx="732" cy="285" r="5" fill="green" stroke="none" /><circle cx="857" cy="962" r="5" fill="green" stroke="none" /><circle cx="973" cy="880" r="5" fill="green" stroke="none" /><circle cx="764" cy="100" r="5" fill="green" stroke="none" /><circle cx="547" cy="23" r="5" fill="green" stroke="none" /><circle cx="385" cy="107" r="5" fill="green" stroke="none" /><circle cx="637" cy="583" r="5" fill="green" stroke="none" /><circle cx="724" cy="426" r="5" fill="green" stroke="none" /><circle cx="995" cy="656" r="5" fill="green" stroke="none" /><circle cx="666" cy="321" r="5" fill="green" stroke="none" /><circle cx="313" cy="588" r="5" fill="green" stroke="none" /><circle cx="677" cy="559" r="5" fill="green" stroke="none" /><circle cx="944" cy="182" r="5" fill="green" stroke="none" /><circle cx="61" cy="518" r="5" fill="green" stroke="none" /><circle cx="186" cy="382" r="5" fill="green" stroke="none" /><circle cx="236" cy="856" r="5" fill="green" stroke="none" /><circle cx="672" cy="78" r="5" fill="green" stroke="none" /><circle cx="82" cy="280" r="5" fill="green" stroke="none" /><circle cx="949" cy="592" r="5" fill="green" stroke="none" /><circle cx="21" cy="71" r="5" fill="green" stroke="none" /><circle cx="773" cy="518" r="5" fill="green" stroke="none" /><circle cx="843" cy="347" r="5" fill="green" stroke="none" /><circle cx="33" cy="290" r="5" fill="green" stroke="none" /><circle cx="851" cy="804" r="5" fill="green" stroke="none" /><circle cx="249" cy="601" r="5" fill="green" stroke="none" /><circle cx="99" cy="335" r="5" fill="green" stroke="none" /><circle cx="221" cy="35" r="5" fill="green" stroke="none" /><circle cx="853" cy="425" r="5" fill="green" stroke="none" /><circle cx="333" cy="171" r="5" fill="green" stroke="none" /><circle cx="877" cy="668" r="5" fill="green" stroke="none" /><circle cx="390" cy="71" r="5" fill="green" stroke="none" /><circle cx="956" cy="801" r="5" fill="green" stroke="none" /><circle cx="945" cy="138" r="5" fill="green" stroke="none" /><circle cx="698" cy="327" r="5" fill="green" stroke="none" /><circle cx="98" cy="397" r="5" fill="green" stroke="none" /><circle cx="799" cy="19" r="5" fill="green" stroke="none" /><circle cx="817" cy="639" r="5" fill="green" stroke="none" /><circle cx="381" cy="190" r="5" fill="green" stroke="none" /><circle cx="201" cy="192" r="5" fill="green" stroke="none" /><circle cx="331" cy="710" r="5" fill="green" stroke="none" /><circle cx="966" cy="49" r="5" fill="green" stroke="none" /><circle cx="777" cy="974" r="5" fill="green" stroke="none" /><circle cx="366" cy="873" r="5" fill="green" stroke="none" /><circle cx="307" cy="384" r="5" fill="green" stroke="none" /><circle cx="672" cy="508" r="5" fill="green" stroke="none" /><circle cx="825" cy="175" r="5" fill="green" stroke="none" /><circle cx="384" cy="240" r="5" fill="green" stroke="none" /><circle cx="509" cy="221" r="5" fill="green" stroke="none" /><circle cx="788" cy="646" r="5" fill="green" stroke="none" /><circle cx="700" cy="520" r="5" fill="green" stroke="none" /><circle cx="815" cy="114" r="5" fill="green" stroke="none" /><circle cx="726" cy="35" r="5" fill="green" stroke="none" /><circle cx="988" cy="19" r="5" fill="green" stroke="none" /><circle cx="929" cy="757" r="5" fill="green" stroke="none" /><circle cx="347" cy="49" r="5" fill="green" stroke="none" /><circle cx="686" cy="367" r="5" fill="green" stroke="none" /><circle cx="703" cy="812" r="5" fill="green" stroke="none" /><circle cx="873" cy="964" r="5" fill="green" stroke="none" /><circle cx="83" cy="413" r="5" fill="green" stroke="none" /><circle cx="382" cy="825" r="5" fill="green" stroke="none" /><circle cx="592" cy="258" r="5" fill="green" stroke="none" /><circle cx="164" cy="997" r="5" fill="green" stroke="none" /><circle cx="771" cy="572" r="5" fill="green" stroke="none" /><circle cx="809" cy="125" r="5" fill="green" stroke="none" /><circle cx="382" cy="33" r="5" fill="green" stroke="none" /><circle cx="597" cy="364" r="5" fill="green" stroke="none" /><circle cx="243" cy="886" r="5" fill="green" stroke="none" /><circle cx="80" cy="353" r="5" fill="green" stroke="none" /><circle cx="668" cy="539" r="5" fill="green" stroke="none" /><circle cx="865" cy="498" r="5" fill="green" stroke="none" /><circle cx="50" cy="455" r="5" fill="green" stroke="none" /><circle cx="331" cy="189" r="5" fill="green" stroke="none" /><circle cx="314" cy="309" r="5" fill="green" stroke="none" /><circle cx="367" cy="440" r="5" fill="green" stroke="none" /><circle cx="624" cy="575" r="5" fill="green" stroke="none" /><circle cx="130" cy="542" r="5" fill="green" stroke="none" /><circle cx="994" cy="626" r="5" fill="green" stroke="none" /><circle cx="73" cy="341" r="5" fill="green" stroke="none" /><circle cx="761" cy="840" r="5" fill="green" stroke="none" /><circle cx="16" cy="633" r="5" fill="green" stroke="none" /><circle cx="230" cy="563" r="5" fill="green" stroke="none" /><circle cx="72" cy="793" r="5" fill="green" stroke="none" /><circle cx="578" cy="327" r="5" fill="green" stroke="none" /><circle cx="266" cy="735" r="5" fill="green" stroke="none" /><circle cx="896" cy="426" r="5" fill="green" stroke="none" /><circle cx="822" cy="850" r="5" fill="green" stroke="none" /><circle cx="959" cy="42" r="5" fill="green" stroke="none" /><circle cx="297" cy="79" r="5" fill="green" stroke="none" /><circle cx="384" cy="641" r="5" fill="green" stroke="none" /><circle cx="324" cy="660" r="5" fill="green" stroke="none" /><circle cx="938" cy="818" r="5" fill="green" stroke="none" /><circle cx="516" cy="566" r="5" fill="green" stroke="none" /><circle cx="656" cy="166" r="5" fill="green" stroke="none" /><circle cx="852" cy="825" r="5" fill="green" stroke="none" /><circle cx="898" cy="990" r="5" fill="green" stroke="none" /><circle cx="200" cy="455" r="5" fill="green" stroke="none" /><circle cx="830" cy="813" r="5" fill="green" stroke="none" /><circle cx="648" cy="12" r="5" fill="green" stroke="none" /><circle cx="1" cy="524" r="5" fill="green" stroke="none" /><circle cx="867" cy="125" r="5" fill="green" stroke="none" /><circle cx="716" cy="409" r="5" fill="green" stroke="none" /><circle cx="458" cy="969" r="5" fill="green" stroke="none" /><circle cx="411" cy="934" r="5" fill="green" stroke="none" /><circle cx="816" cy="144" r="5" fill="green" stroke="none" /><circle cx="132" cy="816" r="5" fill="green" stroke="none" /><circle cx="663" cy="52" r="5" fill="green" stroke="none" /><circle cx="40" cy="320" r="5" fill="green" stroke="none" /><circle cx="556" cy="475" r="5" fill="green" stroke="none" /><circle cx="972" cy="359" r="5" fill="green" stroke="none" /><circle cx="983" cy="579" r="5" fill="green" stroke="none" /><circle cx="660" cy="469" r="5" fill="green" stroke="none" /><circle cx="997" cy="135" r="5" fill="green" stroke="none" /><circle cx="585" cy="172" r="5" fill="green" stroke="none" /><circle cx="379" cy="147" r="5" fill="green" stroke="none" /><circle cx="139" cy="68" r="5" fill="green" stroke="none" /><circle cx="572" cy="426" r="5" fill="green" stroke="none" /><circle cx="525" cy="267" r="5" fill="green" stroke="none" /><circle cx="559" cy="990" r="5" fill="green" stroke="none" /><circle cx="946" cy="52" r="5" fill="green" stroke="none" /><circle cx="750" cy="693" r="5" fill="green" stroke="none" /><circle cx="335" cy="717" r="5" fill="green" stroke="none" /><circle cx="39" cy="790" r="5" fill="green" stroke="none" /><circle cx="299" cy="10" r="5" fill="green" stroke="none" /><circle cx="640" cy="350" r="5" fill="green" stroke="none" /><circle cx="489" cy="295" r="5" fill="green" stroke="none" /><circle cx="507" cy="351" r="5" fill="green" stroke="none" /><circle cx="715" cy="681" r="5" fill="green" stroke="none" /><circle cx="266" cy="399" r="5" fill="green" stroke="none" /><circle cx="258" cy="2" r="5" fill="green" stroke="none" /><circle cx="352" cy="30" r="5" fill="green" stroke="none" /><circle cx="48" cy="789" r="5" fill="green" stroke="none" /><circle cx="839" cy="870" r="5" fill="green" stroke="none" /><circle cx="544" cy="955" r="5" fill="green" stroke="none" /><circle cx="713" cy="889" r="5" fill="green" stroke="none" /><circle cx="182" cy="345" r="5" fill="green" stroke="none" /><circle cx="30" cy="840" r="5" fill="green" stroke="none" /><circle cx="151" cy="749" r="5" fill="green" stroke="none" /><circle cx="695" cy="527" r="5" fill="green" stroke="none" /><circle cx="410" cy="953" r="5" fill="green" stroke="none" /><circle cx="995" cy="421" r="5" fill="green" stroke="none" /><circle cx="632" cy="988" r="5" fill="green" stroke="none" /><circle cx="864" cy="695" r="5" fill="green" stroke="none" /><circle cx="962" cy="197" r="5" fill="green" stroke="none" /><circle cx="166" cy="133" r="5" fill="green" stroke="none" /><circle cx="511" cy="319" r="5" fill="green" stroke="none" /><circle cx="804" cy="732" r="5" fill="green" stroke="none" /><circle cx="798" cy="113" r="5" fill="green" stroke="none" /><circle cx="124" cy="544" r="5" fill="green" stroke="none" /><circle cx="192" cy="917" r="5" fill="green" stroke="none" /><circle cx="909" cy="847" r="5" fill="green" stroke="none" /><circle cx="402" cy="946" r="5" fill="green" stroke="none" /><circle cx="846" cy="455" r="5" fill="green" stroke="none" /><circle cx="826" cy="42" r="5" fill="green" stroke="none" /><circle cx="754" cy="74" r="5" fill="green" stroke="none" /><circle cx="253" cy="533" r="5" fill="green" stroke="none" /><circle cx="221" cy="869" r="5" fill="green" stroke="none" /><circle cx="671" cy="984" r="5" fill="green" stroke="none" /><circle cx="231" cy="554" r="5" fill="green" stroke="none" /><circle cx="236" cy="557" r="5" fill="green" stroke="none" /><circle cx="956" cy="3" r="5" fill="green" stroke="none" /><circle cx="263" cy="934" r="5" fill="green" stroke="none" /><circle cx="707" cy="905" r="5" fill="green" stroke="none" /><circle cx="880" cy="487" r="5" fill="green" stroke="none" /><circle cx="150" cy="476" r="5" fill="green" stroke="none" /><circle cx="488" cy="12" r="5" fill="green" stroke="none" /><circle cx="462" cy="306" r="5" fill="green" stroke="none" /><circle cx="650" cy="708" r="5" fill="green" stroke="none" /><circle cx="411" cy="422" r="5" fill="green" stroke="none" /><circle cx="922" cy="867" r="5" fill="green" stroke="none" /><circle cx="970" cy="853" r="5" fill="green" stroke="none" /><circle cx="165" cy="228" r="5" fill="green" stroke="none" /><circle cx="602" cy="123" r="5" fill="green" stroke="none" /><circle cx="763" cy="169" r="5" fill="green" stroke="none" /><circle cx="238" cy="219" r="5" fill="green" stroke="none" /><circle cx="982" cy="596" r="5" fill="green" stroke="none" /><circle cx="694" cy="648" r="5" fill="green" stroke="none" /><circle cx="987" cy="520" r="5" fill="green" stroke="none" /><circle cx="97" cy="571" r="5" fill="green" stroke="none" /><circle cx="54" cy="370" r="5" fill="green" stroke="none" /><circle cx="123" cy="90" r="5" fill="green" stroke="none" /><circle cx="784" cy="346" r="5" fill="green" stroke="none" /><circle cx="111" cy="77" r="5" fill="green" stroke="none" /><circle cx="915" cy="265" r="5" fill="green" stroke="none" /><circle cx="996" cy="31" r="5" fill="green" stroke="none" /><circle cx="771" cy="851" r="5" fill="green" stroke="none" /><circle cx="450" cy="584" r="5" fill="green" stroke="none" /><circle cx="354" cy="342" r="5" fill="green" stroke="none" /><circle cx="386" cy="974" r="5" fill="green" stroke="none" /><circle cx="928" cy="155" r="5" fill="green" stroke="none" /><circle cx="41" cy="370" r="5" fill="green" stroke="none" /><circle cx="887" cy="573" r="5" fill="green" stroke="none" /><circle cx="549" cy="566" r="5" fill="green" stroke="none" /><circle cx="876" cy="720" r="5" fill="green" stroke="none" /><circle cx="588" cy="50" r="5" fill="green" stroke="none" /><circle cx="349" cy="622" r="5" fill="green" stroke="none" /><circle cx="7" cy="803" r="5" fill="green" stroke="none" /><circle cx="409" cy="185" r="5" fill="green" stroke="none" /></svg>