<svg viewBox="0 0 1000 1000" xmlns="http://www.w3.org/2000/svg"><rect x="0" y="0" width="1000" height="1000" fill="lightyellow" stroke="none "/><rect x="66" y="512" width="104" height="198" fill="none" stroke="none "/><circle cx="116" cy="502" r="5" fill="green" stroke="none" /><circle cx="492" cy="475" r="5" fill="green" stroke="none" /><circle cx="46" cy="214" r="5" fill="green" stroke="none" /><circle cx="32" cy="151" r="5" fill="green" stroke="none" /><circle cx="631" cy="804" r="5" fill="green" stroke="none" /><circle cx="672" cy="615" r="5" fill="green" stroke="none" /><circle cx="501" cy="69" r="5" fill="green" stroke="none" /><circle cx="147" cy="233" r="5" fill="green" stroke="none" /><circle cx="968" cy="957" r="5" fill="green" stroke="none" /><circle cx="536" cy="899" r="5" fill="green" stroke="none" /><circle cx="36" cy="263" r="5" fill="green" stroke="none" /><circle cx="745" cy="891" r="5" fill="green" stroke="none" /><circle cx="835" cy="975" r="5" fill="green" stroke="none" /><circle cx="353" cy="323" r="5" fill="green" stroke="none" /><circle cx="635" cy="827" r="5" fill="green" stroke="none" /><circle cx="820" cy="344" r="5" fill="green" stroke="none" /><circle cx="807" cy="935" r="5" fill="green" stroke="none" /><circle cx="837" cy="77" r="5" fill="green" stroke="none" /><circle cx="419" cy="356" r="5" fill="green" stroke="none" /><circle cx="667" cy="454" r="5" fill="green" stroke="none" /><circle cx="542" cy="330" r="5" fill="green" stroke="none" /><circle cx="496" cy="649" r="5" fill="green" stroke="none" /><circle cx="23" cy="149" r="5" fill="green" stroke="none" /><circle cx="987" cy="43" r="5" fill="green" stroke="none" /><circle cx="477" cy="887" r="5" fill="green" stroke="none" /><circle cx="920" cy="239" r="5" fill="green" stroke="none" /><circle cx="526" cy="115" r="5" fill="green" stroke="none" /><circle cx="535" cy="405" r="5" fill="green" stroke="none" /><circle cx="512" cy="321" r="5" fill="green" stroke="none" /><circle cx="130" cy="5" r="5" fill="green" stroke="none" /><circle cx="375" cy="161" r="5" fill="green" stroke="none" /><circle cx="581" cy="479" r="5" fill="green" stroke="none" /><circle cx="990" cy="763" r="5" fill="green" stroke="none" /><circle cx="521" cy="299" r="5" fill="green" stroke="none" /><circle cx="158" cy="902" r="5" fill="green" stroke="none" /><circle cx="652" cy="845" r="5" fill="green" stroke="none" /><circle cx="289" cy="874" r="5" fill="green" stroke="none" /><circle cx="30" cy="194" r="5" fill="green" stroke="none" /><circle cx="231" cy="139" r="5" fill="green" stroke="none" /><circle cx="661" cy="822" r="5" fill="green" stroke="none" /><circle cx="636" cy="658" r="5" fill="green" stroke="none" /><circle cx="694" cy="394" r="5" fill="green" stroke="none" /><circle cx="983" cy="247" r="5" fill="green" stroke="none" /><circle cx="521" cy="92" r="5" fill="green" stroke="none" /><circle cx="479" cy="272" r="5" fill="green" stroke="none" /><circle cx="910" cy="952" r="5" fill="green" stroke="none" /><circle cx="505" cy="964" r="5" fill="green" stroke="none" /><circle cx="349" cy="49" r="5" fill="green" stroke="none" /><circle cx="398" cy="963" r="5" fill="green" stroke="none" /><circle cx="707" cy="761" r="5" fill="green" stroke="none" /><circle cx="643" cy="532" r="5" fill="green" stroke="none" /><circle cx="462" cy="334" r="5" fill="green" stroke="none" /><circle cx="560" cy="21" r="5" fill="green" stroke="none" /><circle cx="801" cy="564" r="5" fill="green" stroke="none" /><circle cx="249" cy="986" r="5" fill="green" stroke="none" /><circle cx="118" cy="180" r="5" fill="green" stroke="none" /><circle cx="750" cy="302" r="5" fill="green" stroke="none" /><circle cx="14" cy="660" r="5" fill="green" stroke="none" /><circle cx="217" cy="84" r="5" fill="green" stroke="none" /><circle cx="518" cy="409" r="5" fill="green" stroke="none" /><circle cx="888" cy="446" r="5" fill="green" stroke="none" /><circle cx="217" cy="263" r="5" fill="green" stroke="none" /><circle cx="400" cy="392" r="5" fill="green" stroke="none" /><circle cx="860" cy="117" r="5" fill="green" stroke="none" /><circle cx="364" cy="58" r="5" fill="green" stroke="none" /><circle cx="52" cy="720" r="5" fill="green" stroke="none" /><circle cx="951" cy="132" r="5" fill="green" stroke="none" /><circle cx="973" cy="506" r="5" fill="green" stroke="none" /><circle cx="324" cy="266" r="5" fill="green" stroke="none" /><circle cx="537" cy="815" r="5" fill="green" stroke="none" /><circle cx="164" cy="777" r="5" fill="green" stroke="none" /><circle cx="735" cy="671" r="5" fill="green" stroke="none" /><circle cx="880" cy="81" r="5" fill="green" stroke="none" /><circle cx="617" cy="890" r="5" fill="green" stroke="none" /><circle cx="988" cy="236" r="5" fill="green" stroke="none" /><circle cx="476" cy="348" r="5" fill="green" stroke="none" /><circle cx="106" cy="855" r="5" fill="green" stroke="none" /><circle cx="702" cy="633" r="5" fill="green" stroke="none" /><circle cx="275" cy="361" r="5" fill="green" stroke="none" /><circle cx="559" cy="534" r="5" fill="green" stroke="none" /><circle cx="929" cy="830" r="5" fill="green" stroke="none" /><circle cx="388" cy="543" r="5" fill="green" stroke="none" /><circle cx="493" cy="519" r="5" fill="green" stroke="none" /><circle cx="599" cy="546" r="5" fill="green" stroke="none" /><circle cx="576" cy="93" r="5" fill="green" stroke="none" /><circle cx="391" cy="188" r="5" fill="green" stroke="none" /><circle cx="36" cy="419" r="5" fill="green" stroke="none" /><circle cx="815" cy="715" r="5" fill="green" stroke="none" /><circle cx="915" cy="188" r="5" fill="green" stroke="none" /><circle cx="929" cy="558" r="5" fill="green" stroke="none" /><circle cx="255" cy="364" r="5" fill="green" stroke="none" /><circle cx="789" cy="7" r="5" fill="green" stroke="none" /><circle cx="492" cy="792" r="5" fill="green" stroke="none" /><circle cx="717" cy="542" r="5" fill="green" stroke="none" /><circle cx="629" cy="514" r="5" fill="green" stroke="none" /><circle cx="161" cy="731" r="5" fill="green" stroke="none" /><circle cx="142" cy="262" r="5" fill="green" stroke="none" /><circle cx="558" cy="309" r="5" fill="green" stroke="none" /><circle cx="680" cy="749" r="5" fill="green" stroke="none" /><circle cx="79" cy="249" r="5" fill="green" stroke="none" /><circle cx="234" cy="162" r="5" fill="green" stroke="none" /><circle cx="643" cy="9" r="5" fill="green" stroke="none" /><circle cx="963" cy="898" r="5" fill="green" stroke="none" /><circle cx="31" cy="969" r="5" fill="green" stroke="none" /><circle cx="911" cy="807" r="5" fill="green" stroke="none" /><circle cx="786" cy="695" r="5" fill="green" stroke="none" /><circle cx="792" cy="336" r="5" fill="green" stroke="none" /><circle cx="85" cy="246" r="5" fill="green" stroke="none" /><circle cx="446" cy="997" r="5" fill="green" stroke="none" /><circle cx="662" cy="400" r="5" fill="green" stroke="none" /><circle cx="899" cy="82" r="5" fill="green" stroke="none" /><circle cx="269" cy="139" r="5" fill="green" stroke="none" /><circle cx="435" cy="975" r="5" fill="green" stroke="none" /><circle cx="751" cy="632" r="5" fill="green" stroke="none" /><circle cx="935" cy="328" r="5" fill="green" stroke="none" /><circle cx="468" cy="119" r="5" fill="green" stroke="none" /><circle cx="742" cy="742" r="5" fill="green" stroke="none" /><circle cx="474" cy="221" r="5" fill="green" stroke="none" /><circle cx="94" cy="182" r="5" fill="green" stroke="none" /><circle cx="265" cy="368" r="5" fill="green" stroke="none" /><circle cx="556" cy="954" r="5" fill="green" stroke="none" /><circle cx="387" cy="340" r="5" fill="green" stroke="none" /><circle cx="476" cy="645" r="5" fill="green" stroke="none" /><circle cx="27" cy="700" r="5" fill="green" stroke="none" /><circle cx="188" cy="687" r="5" fill="green" stroke="none" /><circle cx="795" cy="447" r="5" fill="green" stroke="none" /><circle cx="263" cy="605" r="5" fill="green" stroke="none" /><circle cx="261" cy="47" r="5" fill="green" stroke="none" /><circle cx="74" cy="48" r="5" fill="green" stroke="none" /><circle cx="188" cy="465" r="5" fill="green" stroke="none" /><circle cx="887" cy="343" r="5" fill="green" stroke="none" /><circle cx="899" cy="42" r="5" fill="green" stroke="none" /><circle cx="867" cy="932" r="5" fill="green" stroke="none" /><circle cx="30" cy="960" r="5" fill="green" stroke="none" /><circle cx="398" cy="791" r="5" fill="green" stroke="none" /><circle cx="978" cy="20" r="5" fill="green" stroke="none" /><circle cx="537" cy="825" r="5" fill="green" stroke="none" /><circle cx="562" cy="796" r="5" fill="green" stroke="none" /><circle cx="274" cy="814" r="5" fill="green" stroke="none" /><circle cx="108" cy="976" r="5" fill="green" stroke="none" /><circle cx="929" cy="782" r="5" fill="green" stroke="none" /><circle cx="255" cy="999" r="5" fill="green" stroke="none" /><circle cx="931" cy="399" r="5" fill="green" stroke="none" /><circle cx="586" cy="340" r="5" fill="green" stroke="none" /><circle cx="718" cy="521" r="5" fill="green" stroke="none" /><circle cx="400" cy="602" r="5" fill="green" stroke="none" /><circle cx="384" cy="889" r="5" fill="green" stroke="none" /><circle cx="583" cy="305" r="5" fill="green" stroke="none" /><circle cx="924" cy="67" r="5" fill="green" stroke="none" /><circle cx="742" cy="310" r="5" fill="green" stroke="none" /><circle cx="190" cy="852" r="5" fill="green" stroke="none" /><circle cx="151" cy="951" r="5" fill="green" stroke="none" /><circle cx="783" cy="559" r="5" fill="green" stroke="none" /><circle cx="582" cy="846" r="5" fill="green" stroke="none" /><circle cx="464" cy="98" r="5" fill="green" stroke="none" /><circle cx="307" cy="296" r="5" fill="green" stroke="none" /><circle cx="953" cy="369" r="5" fill="green" stroke="none" /><circle cx="165" cy="492" r="5" fill="green" stroke="none" /><circle cx="476" cy="388" r="5" fill="green" stroke="none" /><circle cx="684" cy="185" r="5" fill="green" stroke="none" /><circle cx="503" cy="512" r="5" fill="green" stroke="none" /><circle cx="580" cy="321" r="5" fill="green" stroke="none" /><circle cx="153" cy="283" r="5" fill="green" stroke="none" /><circle cx="116" cy="51" r="5" fill="green" stroke="none" /><circle cx="739" cy="696" r="5" fill="green" stroke="none" /><circle cx="873" cy="283" r="5" fill="green" stroke="none" /><circle cx="474" cy="948" r="5" fill="green" stroke="none" /><circle cx="328" cy="419" r="5" fill="green" stroke="none" /><circle cx="900" cy="260" r="5" fill="green" stroke="none" /><circle cx="803" cy="951" r="5" fill="green" stroke="none" /><circle cx="622" cy="590" r="5" fill="green" stroke="none" /><circle cx="847" cy="530" r="5" fill="green" stroke="none" /><circle cx="709" cy="866" r="5" fill="green" stroke="none" /><circle cx="844" cy="952" r="5" fill="green" stroke="none" /><circle cx="727" cy="743" r="5" fill="green" stroke="none" /><circle cx="412" cy="909" r="5" fill="green" stroke="none" /><circle cx="738" cy="206" r="5" fill="green" stroke="none" /><circle cx="121" cy="247" r="5" fill="green" stroke="none" /><circle cx="21" cy="683" r="5" fill="green" stroke="none" /><circle cx="644" cy="896" r="5" fill="green" stroke="none" /><circle cx="474" cy="860" r="5" fill="green" stroke="none" /><circle cx="59" cy="403" r="5" fill="green" stroke="none" /><circle cx="198" cy="809" r="5" fill="green" stroke="none" /><circle cx="686" cy="187" r="5" fill="green" stroke="none" /><circle cx="225" cy="614" r="5" fill="green" stroke="none" /><circle cx="974" cy="737" r="5" fill="green" stroke="none" /><circle cx="729" cy="811" r="5" fill="green" stroke="none" /><circle cx="414" cy="787" r="5" fill="green" stroke="none" /><circle cx="935" cy="950" r="5" fill="green" stroke="none" /><circle cx="301" cy="792" r="5" fill="green" stroke="none" /><circle cx="28" cy="932" r="5" fill="green" stroke="none" /><circle cx="156" cy="791" r="5" fill="green" stroke="none" /><circle cx="689" cy="127" r="5" fill="green" stroke="none" /><circle cx="525" cy="212" r="5" fill="green" stroke="none" /><circle cx="374" cy="307" r="5" fill="green" stroke="none" /><circle cx="622" cy="459" r="5" fill="green" stroke="none" /><circle cx="605" cy="188" r="5" fill="green" stroke="none" /><circle cx="825" cy="4" r="5" fill="green" stroke="none" /><circle cx="765" cy="65" r="5" fill="green" stroke="none" /><circle cx="445" cy="128" r="5" fill="green" stroke="none" /><circle cx="213" cy="390" r="5" fill="green" stroke="none" /><circle cx="35" cy="967" r="5" fill="green" stroke="none" /><circle cx="23" cy="470" r="5" fill="green" stroke="none" /><circle cx="378" cy="424" r="5" fill="green" stroke="none" /><circle cx="178" cy="431" r="5" fill="green" stroke="none" /><circle cx="42" cy="539" r="5" fill="green" stroke="none" /><circle cx="966" cy="954" r="5" fill="green" stroke="none" /><circle cx="717" cy="493" r="5" fill="green" stroke="none" /><circle cx="548" cy="396" r="5" fill="green" stroke="none" /><circle cx="529" cy="566" r="5" fill="green" stroke="none" /><circle cx="585" cy="816" r="5" fill="green" stroke="none" /><circle cx="44" cy="725" r="5" fill="green" stroke="none" /><circle cx="148" cy="745" r="5" fill="green" stroke="none" /><circle cx="771" cy="290" r="5" fill="green" stroke="none" /><circle cx="106" cy="415" r="5" fill="green" stroke="none" /><circle cx="835" cy="400" r="5" fill="green" stroke="none" /><circle cx="322" cy="241" r="5" fill="green" stroke="none" /><circle cx="208" cy="737" r="5" fill="green" stroke="none" /><circle cx="406" cy="823" r="5" fill="green" stroke="none" /><circle cx="178" cy="360" r="5" fill="green" stroke="none" /><circle cx="519" cy="502" r="5" fill="green" stroke="none" /><circle cx="741" cy="388" r="5" fill="green" stroke="none" /><circle cx="269" cy="116" r="5" fill="green" stroke="none" /><circle cx="628" cy="739" r="5" fill="green" stroke="none" /><circle cx="586" cy="558" r="5" fill="green" stroke="none" /><circle cx="433" cy="450" r="5" fill="green" stroke="none" /><circle cx="20" cy="569" r="5" fill="green" stroke="none" /><circle cx="481" cy="191" r="5" fill="green" stroke="none" /><circle cx="219" cy="792" r="5" fill="green" stroke="none" /><circle cx="761" cy="564" r="5" fill="green" stroke="none" /><circle cx="780" cy="665" r="5" fill="green" stroke="none" /><circle cx="686" cy="51" r="5" fill="green" stroke="none" /><circle cx="572" cy="62" r="5" fill="green" stroke="none" /><circle cx="646" cy="999" r="5" fill="green" stroke="none" /><circle cx="31" cy="181" r="5" fill="green" stroke="none" /><circle cx="518" cy="296" r="5" fill="green" stroke="none" /><circle cx="384" cy="267" r="5" fill="green" stroke="none" /><circle cx="931" cy="322" r="5" fill="green" stroke="none" /><circle cx="835" cy="366" r="5" fill="green" stroke="none" /><circle cx="724" cy="778" r="5" fill="green" stroke="none" /><circle cx="514" cy="35" r="5" fill="green" stroke="none" /><circle cx="589" cy="348" r="5" fill="green" stroke="none" /><circle cx="792" cy="710" r="5" fill="green" stroke="none" /><circle cx="380" cy="762" r="5" fill="green" stroke="none" /><circle cx="585" cy="962" r="5" fill="green" stroke="none" /><circle cx="878" cy="174" r="5" fill="green" stroke="none" /><circle cx="20" cy="588" r="5" fill="green" stroke="none" /><circle cx="922" cy="91" r="5" fill="green" stroke="none" /><circle cx="39" cy="41" r="5" fill="green" stroke="none" /><circle cx="231" cy="446" r="5" fill="green" stroke="none" /><circle cx="580" cy="524" r="5" fill="green" stroke="none" /><circle cx="152" cy="200" r="5" fill="green" stroke="none" /><circle cx="865" cy="656" r="5" fill="green" stroke="none" /><circle cx="979" cy="496" r="5" fill="green" stroke="none" /><circle cx="211" cy="797" r="5" fill="green" stroke="none" /><circle cx="576" cy="633" r="5" fill="green" stroke="none" /><circle cx="922" cy="730" r="5" fill="green" stroke="none" /><circle cx="180" cy="780" r="5" fill="green" stroke="none" /><circle cx="160" cy="379" r="5" fill="green" stroke="none" /><circle cx="645" cy="474" r="5" fill="green" stroke="none" /><circle cx="587" cy="115" r="5" fill="green" stroke="none" /><circle cx="911" cy="231" r="5" fill="green" stroke="none" /><circle cx="324" cy="332" r="5" fill="green" stroke="none" /><circle cx="394" cy="648" r="5" fill="green" stroke="none" /><circle cx="32" cy="198" r="5" fill="green" stroke="none" /><circle cx="645" cy="619" r="5" fill="green" stroke="none" /><circle cx="45" cy="386" r="5" fill="green" stroke="none" /><circle cx="894" cy="131" r="5" fill="green" stroke="none" /><circle cx="863" cy="724" r="5" fill="green" stroke="none" /><circle cx="56" cy="895" r="5" fill="green" stroke="none" /><circle cx="388" cy="715" r="5" fill="green" stroke="none" /><circle cx="309" cy="740" r="5" fill="green" stroke="none" /><circle cx="956" cy="707" r="5" fill="green" stroke="none" /><circle cx="295" cy="694" r="5" fill="green" stroke="none" /><circle cx="851" cy="804" r="5" fill="green" stroke="none" /><circle cx="561" cy="382" r="5" fill="green" stroke="none" /><circle cx="439" cy="591" r="5" fill="green" stroke="none" /><circle cx="278" cy="2" r="5" fill="green" stroke="none" /><circle cx="889" cy="378" r="5" fill="green" stroke="none" /><circle cx="665" cy="820" r="5" fill="green" stroke="none" /><circle cx="199" cy="789" r="5" fill="green" stroke="none" /><circle cx="547" cy="258" r="5" fill="green" stroke="none" /><circle cx="787" cy="947" r="5" fill="green" stroke="none" /><circle cx="697" cy="800" r="5" fill="green" stroke="none" /><circle cx="379" cy="921" r="5" fill="green" stroke="none" /><circle cx="966" cy="214" r="5" fill="green" stroke="none" /><circle cx="824" cy="254" r="5" fill="green" stroke="none" /><circle cx="874" cy="567" r="5" fill="green" stroke="none" /><circle cx="98" cy="172" r="5" fill="green" stroke="none" /><circle cx="800" cy="407" r="5" fill="green" stroke="none" /><circle cx="191" cy="419" r="5" fill="green" stroke="none" /><circle cx="408" cy="479" r="5" fill="green" stroke="none" /><circle cx="806" cy="708" r="5" fill="green" stroke="none" /><circle cx="681" cy="581" r="5" fill="green" stroke="none" /><circle cx="835" cy="190" r="5" fill="green" stroke="none" /><circle cx="223" cy="949" r="5" fill="green" stroke="none" /><circle cx="686" cy="251" r="5" fill="green" stroke="none" /><circle cx="794" cy="450" r="5" fill="green" stroke="none" /><circle cx="713" cy="555" r="5" fill="green" stroke="none" /><circle cx="462" cy="90" r="5" fill="green" stroke="none" /><circle cx="282" cy="946" r="5" fill="green" stroke="none" /><circle cx="299" cy="67" r="5" fill="green" stroke="none" /><circle cx="765" cy="111" r="5" fill="green" stroke="none" /><circle cx="262" cy="759" r="5" fill="green" stroke="none" /><circle cx="443" cy="542" r="5" fill="green" stroke="none" /><circle cx="49" cy="27" r="5" fill="green" stroke="none" /><circle cx="710" cy="940" r="5" fill="green" stroke="none" /><circle cx="500" cy="156" r="5" fill="green" stroke="none" /><circle cx="658" cy="816" r="5" fill="green" stroke="none" /><circle cx="806" cy="149" r="5" fill="green" stroke="none" /><circle cx="505" cy="223" r="5" fill="green" stroke="none" /><circle cx="157" cy="372" r="5" fill="green" stroke="none" /><circle cx="424" cy="732" r="5" fill="green" stroke="none" /><circle cx="192" cy="226" r="5" fill="green" stroke="none" /><circle cx="480" cy="959" r="5" fill="green" stroke="none" /><circle cx="971" cy="107" r="5" fill="green" stroke="none" /><circle cx="734" cy="890" r="5" fill="green" stroke="none" /><circle cx="789" cy="168" r="5" fill="green" stroke="none" /><circle cx="515" cy="174" r="5" fill="green" stroke="none" /><circle cx="380" cy="989" r="5" fill="green" stroke="none" /><circle cx="316" cy="830" r="5" fill="green" stroke="none" /><circle cx="224" cy="542" r="5" fill="green" stroke="none" /><circle cx="85" cy="397" r="5" fill="green" stroke="none" /><circle cx="922" cy="3" r="5" fill="green" stroke="none" /><circle cx="651" cy="602" r="5" fill="green" stroke="none" /><circle cx="48" cy="110" r="5" fill="green" stroke="none" /><circle cx="504" cy="75" r="5" fill="green" stroke="none" /><circle cx="977" cy="350" r="5" fill="green" stroke="none" /><circle cx="503" cy="935" r="5" fill="green" stroke="none" /><circle cx="254" cy="336" r="5" fill="green" stroke="none" /><circle cx="377" cy="77" r="5" fill="green" stroke="none" /><circle cx="897" cy="794" r="5" fill="green" stroke="none" /><circle cx="478" cy="197" r="5" fill="green" stroke="none" /><circle cx="291" cy="847" r="5" fill="green" stroke="none" /><circle cx="845" cy="372" r="5" fill="green" stroke="none" /><circle cx="585" cy="959" r="5" fill="green" stroke="none" /><circle cx="800" cy="254" r="5" fill="green" stroke="none" /><circle cx="360" cy="570" r="5" fill="green" stroke="none" /><circle cx="878" cy="684" r="5" fill="green" stroke="none" /><circle cx="404" cy="19" r="5" fill="green" stroke="none" /><circle cx="197" cy="925" r="5" fill="green" stroke="none" /><circle cx="169" cy="80" r="5" fill="green" stroke="none" /><circle cx="698" cy="26" r="5" fill="green" stroke="none" /><circle cx="11" cy="74" r="5" fill="green" stroke="none" /><circle cx="463" cy="438" r="5" fill="green" stroke="none" /><circle cx="991" cy="227" r="5" fill="green" stroke="none" /><circle cx="262" cy="520" r="5" fill="green" stroke="none" /><circle cx="522" cy="931" r="5" fill="green" stroke="none" /><circle cx="914" cy="378" r="5" fill="green" stroke="none" /><circle cx="838" cy="508" r="5" fill="green" stroke="none" /><circle cx="936" cy="31" r="5" fill="green" stroke="none" /><circle cx="642" cy="566" r="5" fill="green" stroke="none" /><circle cx="914" cy="666" r="5" fill="green" stroke="none" /><circle cx="750" cy="461" r="5" fill="green" stroke="none" /><circle cx="479" cy="758" r="5" fill="green" stroke="none" /><circle cx="232" cy="528" r="5" fill="green" stroke="none" /><circle cx="142" cy="952" r="5" fill="green" stroke="none" /><circle cx="278" cy="545" r="5" fill="green" stroke="none" /><circle cx="600" cy="285" r="5" fill="green" stroke="none" /><circle cx="293" cy="819" r="5" fill="green" stroke="none" /><circle cx="754" cy="351" r="5" fill="green" stroke="none" /><circle cx="411" cy="985" r="5" fill="green" stroke="none" /><circle cx="635" cy="374" r="5" fill="green" stroke="none" /><circle cx="667" cy="777" r="5" fill="green" stroke="none" /><circle cx="471" cy="886" r="5" fill="green" stroke="none" /><circle cx="810" cy="613" r="5" fill="green" stroke="none" /><circle cx="422" cy="743" r="5" fill="green" stroke="none" /><circle cx="850" cy="248" r="5" fill="green" stroke="none" /><circle cx="407" cy="217" r="5" fill="green" stroke="none" /><circle cx="627" cy="189" r="5" fill="green" stroke="none" /><circle cx="460" cy="180" r="5" fill="green" stroke="none" /><circle cx="597" cy="329" r="5" fill="green" stroke="none" /><circle cx="580" cy="14" r="5" fill="green" stroke="none" /><circle cx="338" cy="41" r="5" fill="green" stroke="none" /><circle cx="863" cy="885" r="5" fill="green" stroke="none" /><circle cx="871" cy="42" r="5" fill="green" stroke="none" /><circle cx="452" cy="24" r="5" fill="green" stroke="none" /><circle cx="548" cy="569" r="5" fill="green" stroke="none" /><circle cx="348" cy="185" r="5" fill="green" stroke="none" /><circle cx="217" cy="57" r="5" fill="green" stroke="none" /><circle cx="515" cy="988" r="5" fill="green" stroke="none" /><circle cx="682" cy="262" r="5" fill="green" stroke="none" /><circle cx="924" cy="33" r="5" fill="green" stroke="none" /><circle cx="992" cy="444" r="5" fill="green" stroke="none" /><circle cx="693" cy="244" r="5" fill="green" stroke="none" /><circle cx="765" cy="129" r="5" fill="green" stroke="none" /><circle cx="8" cy="894" r="5" fill="green" stroke="none" /><circle cx="116" cy="404" r="5" fill="green" stroke="none" /><circle cx="21" cy="944" r="5" fill="green" stroke="none" /><circle cx="78" cy="838" r="5" fill="green" stroke="none" /><circle cx="330" cy="343" r="5" fill="green" stroke="none" /><circle cx="117" cy="457" r="5" fill="green" stroke="none" /><circle cx="539" cy="935" r="5" fill="green" stroke="none" /><circle cx="656" cy="584" r="5" fill="green" stroke="none" /><circle cx="570" cy="204" r="5" fill="green" stroke="none" /><circle cx="137" cy="729" r="5" fill="green" stroke="none" /><circle cx="567" cy="373" r="5" fill="green" stroke="none" /><circle cx="690" cy="996" r="5" fill="green" stroke="none" /><circle cx="598" cy="923" r="5" fill="green" stroke="none" /><circle cx="917" cy="66" r="5" fill="green" stroke="none" /></svg>